<svg width="29" height="29" viewBox="0 0 29 29" fill="none" xmlns="http://www.w3.org/2000/svg">
<path d="M14.5 29C22.5081 29 29 22.5081 29 14.5C29 6.49187 22.5081 0 14.5 0C6.49187 0 0 6.49187 0 14.5C0 22.5081 6.49187 29 14.5 29Z" fill="#FFD93B"/>
<path d="M29 14.5C29 22.5112 22.5067 29 14.5 29C9.94155 29 5.87249 26.8975 3.21265 23.6033C5.7003 25.6152 8.86765 26.8159 12.3159 26.8159C20.3227 26.8159 26.8159 20.3272 26.8159 12.3159C26.8159 8.86765 25.6152 5.7003 23.6033 3.21265C26.893 5.87249 29 9.94155 29 14.5Z" fill="#F4C534"/>
<path d="M19.0639 22.8919C19.7708 23.0749 20.4704 22.543 20.4423 21.8134C20.3227 18.7032 17.7571 16.1068 14.5 16.1068C11.2366 16.1068 8.67192 18.7104 8.55773 21.8234C8.53145 22.5493 9.22473 23.0831 9.92798 22.9027C13.0509 22.1052 16.0941 22.1216 19.0639 22.8919Z" fill="#3E4347"/>
<path d="M17.835 22.62C17.8676 22.4696 17.8876 22.3146 17.8876 22.1533C17.8876 20.9398 16.9052 19.9574 15.6962 19.9574C15.0963 19.9574 14.558 20.1931 14.1674 20.5791C13.901 20.4676 13.6119 20.406 13.3047 20.406C12.0957 20.406 11.1133 21.3884 11.1133 22.5973C11.1133 22.6109 11.117 22.6236 11.1179 22.6372C13.398 22.204 15.6364 22.2067 17.835 22.62Z" fill="#E24B4B"/>
<path d="M25.4847 19.8242C25.4847 18.7911 23.6142 15.6156 23.6142 15.6156C23.6142 15.6156 21.7437 18.7911 21.7437 19.8242C21.7437 20.8573 22.581 21.6947 23.6142 21.6947C24.6473 21.6947 25.4847 20.8573 25.4847 19.8242Z" fill="#65B1EF"/>
<path d="M23.8135 15.3673L22.1941 13.601C20.3317 11.5764 16.9822 11.5175 16.9451 11.5175L16.0252 11.5103L16.7022 10.884C17.5631 10.0748 18.4766 9.75758 19.3965 9.94154C21.4355 10.3394 22.746 13.0772 22.7976 13.195L23.8135 15.3673Z" fill="#3E4347"/>
<path d="M15.6346 2.66708C19.3484 6.84399 20.4821 7.05061 21.7608 8.19521C20.5247 8.19339 18.9388 7.63424 17.7099 6.52499C16.1938 5.09674 15.621 3.59508 15.6346 2.66708Z" fill="#3E4347"/>
<path d="M5.09039 15.3673L6.70986 13.601C8.5722 11.5764 11.9217 11.5175 11.9589 11.5175L12.8787 11.5103L12.2017 10.884C11.3408 10.0748 10.4273 9.75758 9.50745 9.94154C7.46839 10.3394 6.15796 13.0772 6.1063 13.195L5.09039 15.3673Z" fill="#3E4347"/>
<path d="M13.2693 2.66708C9.5555 6.84399 8.42178 7.05061 7.14307 8.19521C8.37919 8.19339 9.96513 7.63424 11.194 6.52499C12.7111 5.09674 13.2829 3.59508 13.2693 2.66708Z" fill="#3E4347"/>
<g opacity="0.2">
<path opacity="0.2" d="M24.6237 20.6589C24.3618 20.9706 23.9803 21.0984 23.7918 20.9271C23.5942 20.7649 23.6559 20.3752 23.9259 20.0626C24.1887 19.7427 24.5612 19.623 24.7579 19.7943C24.9554 19.9574 24.8938 20.3471 24.6237 20.6589Z" fill="white"/>
</g>
</svg>
