<svg width="29" height="29" viewBox="0 0 29 29" fill="none" xmlns="http://www.w3.org/2000/svg">
<g clip-path="url(#clip0)">
<path d="M14.5 29C22.5081 29 29 22.5081 29 14.5C29 6.49187 22.5081 0 14.5 0C6.49187 0 0 6.49187 0 14.5C0 22.5081 6.49187 29 14.5 29Z" fill="#FFD93B"/>
<path d="M29 14.5C29 22.5113 22.5067 29 14.5 29C9.94155 29 5.87249 26.8975 3.21265 23.6033C5.7003 25.6152 8.86765 26.8159 12.3159 26.8159C20.3226 26.8159 26.8159 20.3272 26.8159 12.3159C26.8159 8.86766 25.6151 5.70032 23.6033 3.21266C26.893 5.87251 29 9.94157 29 14.5Z" fill="#F4C534"/>
<path d="M15.4316 13.156C14.4937 15.6337 16.0379 18.5138 18.8817 19.5913C21.7183 20.6652 24.7832 19.5315 25.7212 17.0538C26.6565 14.5825 25.1131 11.7024 22.2756 10.6285C19.4318 9.55008 16.3669 10.6847 15.4316 13.156Z" fill="#F4C534"/>
<path d="M19.9221 18.6978C22.0563 18.6978 23.7864 16.9677 23.7864 14.8335C23.7864 12.6993 22.0563 10.9693 19.9221 10.9693C17.7879 10.9693 16.0579 12.6993 16.0579 14.8335C16.0579 16.9677 17.7879 18.6978 19.9221 18.6978Z" fill="white"/>
<path d="M21.3232 15.0764C21.3304 16.337 20.3145 17.3529 19.0539 17.3456C17.8006 17.3456 16.7774 16.337 16.7774 15.0764C16.7774 13.8158 17.8006 12.8071 19.0539 12.8071C20.3145 12.799 21.3232 13.8221 21.3232 15.0764Z" fill="#3E4347"/>
<path d="M20.1432 13.9865C19.9011 13.7445 19.5714 13.6816 19.4069 13.8462C19.2423 14.0108 19.3051 14.3404 19.5472 14.5825C19.7893 14.8246 20.1189 14.8874 20.2835 14.7228C20.4481 14.5583 20.3853 14.2286 20.1432 13.9865Z" fill="white"/>
<path d="M13.5684 13.156C14.5063 15.6337 12.9621 18.5138 10.1183 19.5913C7.2817 20.6652 4.21676 19.5315 3.27879 17.0538C2.34264 14.5825 3.88689 11.7024 6.72345 10.6285C9.56817 9.55006 12.6331 10.6847 13.5684 13.156Z" fill="#F4C534"/>
<path d="M9.08062 18.6978C11.2148 18.6978 12.9449 16.9677 12.9449 14.8335C12.9449 12.6993 11.2148 10.9693 9.08062 10.9693C6.94645 10.9693 5.21637 12.6993 5.21637 14.8335C5.21637 16.9677 6.94645 18.6978 9.08062 18.6978Z" fill="white"/>
<path d="M12.2226 15.0764C12.2298 16.337 11.2139 17.3529 9.95332 17.3456C8.69907 17.3456 7.67682 16.337 7.67682 15.0764C7.67682 13.8158 8.69998 12.8071 9.95332 12.8071C11.2139 12.799 12.2226 13.8221 12.2226 15.0764Z" fill="#3E4347"/>
<path d="M11.0419 13.9871C10.7998 13.745 10.4702 13.6822 10.3056 13.8468C10.1411 14.0113 10.2039 14.341 10.446 14.5831C10.688 14.8251 11.0177 14.888 11.1823 14.7234C11.3468 14.5588 11.284 14.2292 11.0419 13.9871Z" fill="white"/>
<path d="M24.2014 7.24094C22.1089 8.45169 17.6936 10.4101 15.9618 6.65278C15.8784 6.47154 16.0877 6.29663 16.2518 6.40629C17.2269 7.03975 19.5532 7.97591 24.0482 6.87391C24.2748 6.81863 24.4017 7.12041 24.2014 7.24094Z" fill="#3E4347"/>
<path d="M4.67988 8.44445C7.08053 8.76436 11.9154 8.88942 12.0667 4.75238C12.074 4.553 11.813 4.47144 11.7033 4.63547C11.0472 5.59338 9.25735 7.34879 4.67897 8.0466C4.44878 8.08195 4.44788 8.41001 4.67988 8.44445Z" fill="#3E4347"/>
<path d="M20.5755 25.172C20.3118 24.331 19.3584 23.1837 16.6723 22.2883C15.2957 21.7609 12.4437 21.2289 11.6489 21.0286C12.8135 20.7386 15.1371 19.9593 17.1952 20.6634C19.0838 21.3984 20.5755 23.0577 20.5755 25.172Z" fill="#3E4347"/>
</g>
<defs>
<clipPath id="clip0">
<rect width="29" height="29" fill="white"/>
</clipPath>
</defs>
</svg>
