<svg width="29" height="29" viewBox="0 0 29 29" fill="none" xmlns="http://www.w3.org/2000/svg">
<g clip-path="url(#clip0)">
<path d="M14.5 29C22.5081 29 29 22.5081 29 14.5C29 6.49187 22.5081 0 14.5 0C6.49187 0 0 6.49187 0 14.5C0 22.5081 6.49187 29 14.5 29Z" fill="#FFD93B"/>
<path d="M29 14.5C29 22.5113 22.5067 29 14.5 29C9.94155 29 5.87249 26.8975 3.21265 23.6033C5.7003 25.6152 8.86765 26.8159 12.3159 26.8159C20.3226 26.8159 26.8159 20.3272 26.8159 12.3159C26.8159 8.86766 25.6151 5.70032 23.6033 3.21266C26.893 5.87251 29 9.94157 29 14.5Z" fill="#F4C534"/>
<path d="M15.5322 11.4985C14.5942 13.9762 16.1385 16.8562 18.9823 17.9338C21.8189 19.0086 24.8838 17.874 25.8218 15.3963C26.7579 12.9249 25.2137 10.0449 22.3762 8.97097C19.5333 7.89343 16.4684 9.02806 15.5322 11.4985Z" fill="#F4C534"/>
<path d="M20.0191 17.0402C22.1532 17.0402 23.8833 15.3101 23.8833 13.176C23.8833 11.0418 22.1532 9.31172 20.0191 9.31172C17.8849 9.31172 16.1548 11.0418 16.1548 13.176C16.1548 15.3101 17.8849 17.0402 20.0191 17.0402Z" fill="white"/>
<path d="M21.4247 13.4188C21.4319 14.6794 20.416 15.6962 19.1554 15.6881C17.9021 15.6881 16.8789 14.6794 16.8789 13.4188C16.8789 12.1582 17.9021 11.1496 19.1554 11.1496C20.416 11.1423 21.4247 12.1655 21.4247 13.4188Z" fill="#3E4347"/>
<path d="M20.2443 12.3319C20.0023 12.0898 19.6726 12.027 19.508 12.1915C19.3435 12.3561 19.4063 12.6858 19.6484 12.9278C19.8905 13.1699 20.2201 13.2327 20.3847 13.0682C20.5493 12.9036 20.4864 12.574 20.2443 12.3319Z" fill="white"/>
<path d="M24.3799 7.46478C22.0001 7.88981 17.1816 8.22784 16.8336 4.10441C16.8164 3.90594 17.0728 3.8126 17.1907 3.97119C17.8912 4.89919 19.7599 6.57212 24.3618 7.06694C24.5929 7.09231 24.6092 7.42037 24.3799 7.46478Z" fill="#3E4347"/>
<path d="M13.3228 11.4985C14.2607 13.9762 12.7165 16.8562 9.87268 17.9338C7.03612 19.0086 3.97118 17.874 3.03321 15.3963C2.09705 12.9249 3.6413 10.0449 6.47877 8.97095C9.32259 7.89342 12.3866 9.02804 13.3228 11.4985Z" fill="#F4C534"/>
<path d="M8.8323 17.0402C10.9665 17.0402 12.6965 15.3101 12.6965 13.176C12.6965 11.0418 10.9665 9.31172 8.8323 9.31172C6.69813 9.31172 4.96805 11.0418 4.96805 13.176C4.96805 15.3101 6.69813 17.0402 8.8323 17.0402Z" fill="white"/>
<path d="M11.977 13.4188C11.9842 14.6794 10.9683 15.6962 9.70774 15.6881C8.45349 15.6881 7.43124 14.6794 7.43124 13.4188C7.43124 12.1582 8.4544 11.1496 9.70774 11.1496C10.9683 11.1423 11.977 12.1655 11.977 13.4188Z" fill="#3E4347"/>
<path d="M10.7964 12.332C10.5543 12.09 10.2247 12.0271 10.0601 12.1917C9.89554 12.3563 9.95837 12.6859 10.2004 12.928C10.4425 13.1701 10.7722 13.2329 10.9367 13.0683C11.1013 12.9038 11.0385 12.5741 10.7964 12.332Z" fill="white"/>
<path d="M4.47506 7.46478C6.85487 7.88981 11.6734 8.22784 12.0214 4.10441C12.0386 3.90594 11.7822 3.8126 11.6643 3.97119C10.9638 4.89919 9.09512 6.57212 4.49409 7.06694C4.26209 7.09231 4.24578 7.42037 4.47506 7.46478Z" fill="#3E4347"/>
<path d="M21.7627 24.3319C20.6706 26.6474 14.4519 25.4937 8.11726 24.2621C7.68317 24.177 7.39679 23.7664 7.46657 23.3323C7.94689 20.4124 10.4789 18.1821 13.5303 18.1821C16.7284 18.1821 21.2905 20.7531 21.817 23.8897C21.8397 24.0374 21.8243 24.2005 21.7627 24.3319Z" fill="#3E4347"/>
<path d="M19.4653 25.5762C19.4653 25.5581 19.4681 25.5408 19.4681 25.5236C19.4681 24.4914 19.1409 23.5281 18.5845 22.7442C17.8395 21.702 16.5092 21.3141 15.2685 21.6123C14.8716 21.702 14.4547 21.7509 14.0079 21.7509C13.8094 21.7509 13.6209 21.7418 13.4415 21.731C12.2597 21.6123 11.0789 22.079 10.4726 23.1012C10.2017 23.5589 10.0141 24.0673 9.90894 24.6065C13.669 25.3179 17.2133 25.8834 19.4653 25.5762Z" fill="#E24B4B"/>
</g>
<defs>
<clipPath id="clip0">
<rect width="29" height="29" fill="white"/>
</clipPath>
</defs>
</svg>
