<svg width="29" height="29" viewBox="0 0 29 29" fill="none" xmlns="http://www.w3.org/2000/svg">
<g clip-path="url(#clip0)">
<path d="M14.5 29C22.5081 29 29 22.5081 29 14.5C29 6.49187 22.5081 0 14.5 0C6.49187 0 0 6.49187 0 14.5C0 22.5081 6.49187 29 14.5 29Z" fill="#FFD93B"/>
<path d="M29 14.5C29 22.5113 22.5067 29 14.5 29C9.94156 29 5.8725 26.8975 3.21265 23.6033C5.70031 25.6152 8.86765 26.8159 12.3159 26.8159C20.3227 26.8159 26.8159 20.3272 26.8159 12.3159C26.8159 8.86766 25.6152 5.70032 23.6033 3.21266C26.893 5.87251 29 9.94157 29 14.5Z" fill="#F4C534"/>
<path d="M4.68804 11.4323L4.15788 12.5307L5.29341 12.0767C5.4357 12.0196 8.87038 10.7137 12.6186 13.7804L13.8203 14.7556C12.393 10.0159 6.8431 6.97087 4.68804 11.4323Z" fill="#3E4347"/>
<path d="M24.8421 12.5117C24.8421 15.1579 22.6862 17.3139 20.0399 17.3139C17.3837 17.3139 15.2377 15.1579 15.2377 12.5117C15.2377 9.86544 17.3846 7.70947 20.0399 7.70947C22.6862 7.70947 24.8421 9.86544 24.8421 12.5117Z" fill="#F4C534"/>
<path d="M23.9676 12.5117C23.8752 14.7483 22.0355 16.5708 19.8713 16.5708C17.6991 16.5708 16.0189 14.7483 16.1113 12.5117C16.2037 10.2751 18.0353 8.45259 20.2076 8.45259C22.3726 8.45259 24.06 10.2751 23.9676 12.5117Z" fill="white"/>
<path d="M20.9824 12.8434C20.9824 14.0143 20.0308 14.9658 18.8591 14.9658C17.6882 14.9658 16.7448 14.0143 16.7448 12.8434C16.7448 11.6807 17.6882 10.7291 18.86 10.7291C20.0308 10.7291 20.9824 11.6807 20.9824 12.8434Z" fill="#3E4347"/>
<path d="M20.039 12.5017C19.8759 12.6567 19.5668 12.6077 19.3394 12.3794C19.1037 12.1437 19.0548 11.8347 19.2089 11.6716C19.3629 11.5166 19.681 11.5737 19.9085 11.8012C20.1369 12.0305 20.1931 12.3395 20.039 12.5017Z" fill="white"/>
<path d="M23.7737 19.372C22.523 23.2961 18.8437 26.1417 14.5027 26.1417C10.1527 26.1417 6.48241 23.2961 5.22273 19.372C5.0596 18.8464 5.53085 18.3479 6.06554 18.4567C11.6934 19.5895 17.3121 19.5895 22.9309 18.4567C23.4746 18.3479 23.9459 18.8464 23.7737 19.372Z" fill="#3E4347"/>
<path d="M21.6304 18.686C16.8789 19.4962 12.1274 19.4962 7.36963 18.686C8.26772 21.1093 11.117 21.7672 14.5 21.7672C17.883 21.7681 20.7323 21.1102 21.6304 18.686Z" fill="white"/>
<path d="M14.5027 26.1417C16.3624 26.1417 18.0997 25.616 19.5768 24.7098C18.9343 23.3169 16.7829 22.291 14.2218 22.291C11.8293 22.291 9.79568 23.1864 9.01358 24.4397C10.576 25.51 12.4628 26.1417 14.5027 26.1417Z" fill="#E24B4B"/>
</g>
<defs>
<clipPath id="clip0">
<rect width="29" height="29" fill="white"/>
</clipPath>
</defs>
</svg>
