<svg xmlns="http://www.w3.org/2000/svg" viewBox="0 0 45 45" width="45" height="45">
	<style>
		tspan { white-space:pre }
		.shp0 { fill: #888db1 } 
	</style>
	<g id="Layer">
		<g id="Layer">
			<path id="Layer" fill-rule="evenodd" class="shp0" d="M33 15.91L33 29.66C33 30.95 31.9 32 30.54 32L14.46 32C13.1 32 12 30.95 12 29.66L12 15.91C12 14.61 13.1 13.56 14.46 13.56L15.45 13.56L15.45 12L17.09 12L17.09 13.56L27.91 13.56L27.91 12L29.55 12L29.55 13.56L30.54 13.56C31.9 13.56 33 14.61 33 15.91ZM31.36 19.34L13.64 19.34L13.64 29.66C13.64 30.09 14.01 30.44 14.46 30.44L30.54 30.44C30.99 30.44 31.36 30.09 31.36 29.66L31.36 19.34ZM31.36 15.91C31.36 15.48 30.99 15.13 30.54 15.13L29.55 15.13L29.55 16.69L27.91 16.69L27.91 15.13L17.09 15.13L17.09 16.69L15.45 16.69L15.45 15.13L14.46 15.13C14.01 15.13 13.64 15.48 13.64 15.91L13.64 17.78L31.36 17.78L31.36 15.91Z" />
		</g>
	</g>
	<g id="Layer">
		<g id="Layer">
			<path id="Layer" class="shp0" d="M15.12 20.98L16.76 20.98L16.76 22.55L15.12 22.55L15.12 20.98Z" />
		</g>
	</g>
	<g id="Layer">
		<g id="Layer">
			<path id="Layer" class="shp0" d="M18.4 20.98L20.04 20.98L20.04 22.55L18.4 22.55L18.4 20.98Z" />
		</g>
	</g>
	<g id="Layer">
		<g id="Layer">
			<path id="Layer" class="shp0" d="M21.68 20.98L23.32 20.98L23.32 22.55L21.68 22.55L21.68 20.98Z" />
		</g>
	</g>
	<g id="Layer">
		<g id="Layer">
			<path id="Layer" class="shp0" d="M24.96 20.98L26.6 20.98L26.6 22.55L24.96 22.55L24.96 20.98Z" />
		</g>
	</g>
	<g id="Layer">
		<g id="Layer">
			<path id="Layer" class="shp0" d="M28.24 20.98L29.88 20.98L29.88 22.55L28.24 22.55L28.24 20.98Z" />
		</g>
	</g>
	<g id="Layer">
		<g id="Layer">
			<path id="Layer" class="shp0" d="M15.12 24.11L16.76 24.11L16.76 25.67L15.12 25.67L15.12 24.11Z" />
		</g>
	</g>
	<g id="Layer">
		<g id="Layer">
			<path id="Layer" class="shp0" d="M18.4 24.11L20.04 24.11L20.04 25.67L18.4 25.67L18.4 24.11Z" />
		</g>
	</g>
	<g id="Layer">
		<g id="Layer">
			<path id="Layer" class="shp0" d="M21.68 24.11L23.32 24.11L23.32 25.67L21.68 25.67L21.68 24.11Z" />
		</g>
	</g>
	<g id="Layer">
		<g id="Layer">
			<path id="Layer" class="shp0" d="M24.96 24.11L26.6 24.11L26.6 25.67L24.96 25.67L24.96 24.11Z" />
		</g>
	</g>
	<g id="Layer">
		<g id="Layer">
			<path id="Layer" class="shp0" d="M15.12 27.23L16.76 27.23L16.76 28.8L15.12 28.8L15.12 27.23Z" />
		</g>
	</g>
	<g id="Layer">
		<g id="Layer">
			<path id="Layer" class="shp0" d="M18.4 27.23L20.04 27.23L20.04 28.8L18.4 28.8L18.4 27.23Z" />
		</g>
	</g>
	<g id="Layer">
		<g id="Layer">
			<path id="Layer" class="shp0" d="M21.68 27.23L23.32 27.23L23.32 28.8L21.68 28.8L21.68 27.23Z" />
		</g>
	</g>
	<g id="Layer">
		<g id="Layer">
			<path id="Layer" class="shp0" d="M24.96 27.23L26.6 27.23L26.6 28.8L24.96 28.8L24.96 27.23Z" />
		</g>
	</g>
	<g id="Layer">
		<g id="Layer">
			<path id="Layer" class="shp0" d="M28.24 24.11L29.88 24.11L29.88 25.67L28.24 25.67L28.24 24.11Z" />
		</g>
	</g>
	<g id="Layer">
	</g>
	<g id="Layer">
	</g>
	<g id="Layer">
	</g>
	<g id="Layer">
	</g>
	<g id="Layer">
	</g>
	<g id="Layer">
	</g>
	<g id="Layer">
	</g>
	<g id="Layer">
	</g>
	<g id="Layer">
	</g>
	<g id="Layer">
	</g>
	<g id="Layer">
	</g>
	<g id="Layer">
	</g>
	<g id="Layer">
	</g>
	<g id="Layer">
	</g>
	<g id="Layer">
	</g>
</svg>