<svg width="45" height="45" viewBox="0 0 45 45" fill="none" xmlns="http://www.w3.org/2000/svg">
<rect width="45" height="45" rx="10" fill="none"/>
<g clip-path="url(#clip0)">
<path d="M31.75 14H12.25C11.0093 14 10 15.0093 10 16.25V29.75C10 30.9907 11.0093 32 12.25 32H31.75C32.9907 32 34 30.9907 34 29.75V16.25C34 15.0093 32.9907 14 31.75 14V14ZM31.75 15.5C31.8519 15.5 31.9488 15.5211 32.0374 15.5581L22 24.2576L11.9625 15.5581C12.0511 15.5212 12.1481 15.5 12.25 15.5H31.75ZM31.75 30.5H12.25C11.8362 30.5 11.5 30.1638 11.5 29.75V17.1428L21.5085 25.8169C21.6499 25.9392 21.825 26 22 26C22.175 26 22.3501 25.9392 22.4915 25.8169L32.5 17.1428V29.75C32.5 30.1638 32.1638 30.5 31.75 30.5V30.5Z" fill="#001CE2"/>
</g>
<defs>
<clipPath id="clip0">
<rect width="24" height="24" fill="white" transform="translate(10 11)"/>
</clipPath>
</defs>
</svg>
