<svg width="45" height="45" viewBox="0 0 45 45" fill="none" xmlns="http://www.w3.org/2000/svg">
<rect width="45" height="45" rx="10" fill="none"/>
<path d="M31.8906 14.5625H12.1094C10.9463 14.5625 10 15.5088 10 16.6719V29.3281C10 30.4912 10.9463 31.4375 12.1094 31.4375H31.8906C33.0537 31.4375 34 30.4912 34 29.3281V16.6719C34 15.5088 33.0537 14.5625 31.8906 14.5625ZM29.6048 15.9688L22 23.5352L14.3952 15.9688H29.6048ZM12.7656 30.0312H12.1094C11.7217 30.0312 11.4062 29.7158 11.4062 29.3281V18.9456L12.7656 20.2846V30.0312ZM29.7344 30.0312H14.125V21.6838L19.514 27.0125C20.1766 27.676 21.0595 28.0414 22 28.0414C22.9405 28.0414 23.8234 27.676 24.4844 27.014L29.7344 21.804V30.0312ZM32.5938 29.3281C32.5938 29.7158 32.2783 30.0312 31.8906 30.0312H31.1406V20.4049L32.5938 18.9456V29.3281ZM32.5938 16.9619L23.491 26.0187C23.0941 26.4162 22.5646 26.6351 22 26.6351C21.4354 26.6351 20.9059 26.4163 20.5074 26.0172L11.4062 16.9619V16.6719C11.4062 16.2842 11.7217 15.9688 12.1094 15.9688H12.4015L22 25.519L31.5985 15.9688H31.8906C32.2783 15.9688 32.5938 16.2842 32.5938 16.6719V16.9619Z" fill="#001CE2"/>
</svg>
