<svg xmlns="http://www.w3.org/2000/svg" viewBox="0 0 45 45" width="45" height="45">
	<style>
		tspan { white-space:pre }
		.shp0 { fill: #888db1 } 
	</style>
	<path id="Layer" fill-rule="evenodd" class="shp0" d="M22.81 34.63L22.81 31.03C16.63 31.03 11 26.42 11 20.77C11 14.82 16.29 10 22.81 10C29.34 10 34.63 14.82 34.63 20.77C34.63 26.21 29.96 31.44 22.81 34.63ZM23.94 22.31L26.75 22.31L26.75 24.88C27.99 24.88 29 23.75 29 22.31L29 17.7L23.94 17.7L23.94 22.31ZM22.25 17.7L17.19 17.7L17.19 22.31L20 22.31L20 24.88C21.24 24.88 22.25 23.75 22.25 22.31L22.25 17.7Z" />
</svg>