<svg width="45" height="45" viewBox="0 0 45 45" fill="none" xmlns="http://www.w3.org/2000/svg">
<rect width="45" height="45" rx="10" fill="none"/>
<g clip-path="url(#clip0)">
<path d="M32.75 13H13.25C12.0093 13 11 14.0093 11 15.25V28.75C11 29.9907 12.0093 31 13.25 31H32.75C33.9907 31 35 29.9907 35 28.75V15.25C35 14.0093 33.9907 13 32.75 13V13ZM32.75 14.5C32.8519 14.5 32.9488 14.5211 33.0374 14.5581L23 23.2576L12.9625 14.5581C13.0511 14.5212 13.1481 14.5 13.25 14.5H32.75ZM32.75 29.5H13.25C12.8362 29.5 12.5 29.1638 12.5 28.75V16.1428L22.5085 24.8169C22.6499 24.9392 22.825 25 23 25C23.175 25 23.3501 24.9392 23.4915 24.8169L33.5 16.1428V28.75C33.5 29.1638 33.1638 29.5 32.75 29.5V29.5Z" fill="#888DB1"/>
</g>
<defs>
<clipPath id="clip0">
<rect width="24" height="24" fill="white" transform="translate(11 10)"/>
</clipPath>
</defs>
</svg>
