<svg width="45" height="45" viewBox="0 0 45 45" fill="none" xmlns="http://www.w3.org/2000/svg">
<rect width="45" height="45" rx="10" fill="none"/>
<g clip-path="url(#clip0)">
<path d="M13.424 34.25C13.424 34.824 14.042 35.183 14.542 34.904L18.633 32.601C22.417 33.625 26.484 32.872 29.576 30.565C32.387 28.468 34 25.354 34 22.022C34 15.944 28.617 11 22 11C15.383 11 10 15.944 10 22.022C10 24.938 11.213 27.659 13.424 29.721V34.25ZM11.5 22.022C11.5 16.771 16.21 12.5 22 12.5C27.79 12.5 32.5 16.771 32.5 22.022C32.5 24.876 31.107 27.552 28.679 29.363C25.88 31.45 22.167 32.091 18.751 31.075C18.556 31.017 18.346 31.041 18.169 31.14L14.923 32.967V29.388C14.923 29.173 14.83 28.967 14.669 28.825C12.625 27.027 11.5 24.611 11.5 22.022V22.022Z" fill="#1E37E6"/>
<path d="M14.8347 26.171L20.3437 23.416L22.9617 26.106C23.3047 26.459 23.7817 26.364 24.0337 26.11L30.0337 20.027C30.6287 19.423 29.9137 18.447 29.1587 18.832L23.6497 21.644L21.0357 18.975C20.7567 18.691 20.2797 18.66 19.9697 18.97L13.9697 24.97C13.3697 25.57 14.0797 26.55 14.8347 26.171V26.171ZM20.4947 20.566L22.9647 23.087C23.1947 23.322 23.5507 23.379 23.8407 23.23L25.7067 22.278L23.5037 24.511L21.0377 21.976C20.8097 21.741 20.4557 21.683 20.1647 21.828L18.2987 22.761L20.4947 20.566Z" fill="#1E37E6"/>
</g>
<defs>
<clipPath id="clip0">
<rect width="24" height="24" fill="white" transform="translate(10 11)"/>
</clipPath>
</defs>
</svg>
