<svg width="45" height="45" viewBox="0 0 45 45" fill="none" xmlns="http://www.w3.org/2000/svg">
<rect width="45" height="45" rx="10" fill="none"/>
<g clip-path="url(#clip0)">
<path d="M27.2487 34C26.474 34 25.7058 33.863 24.9547 33.5901C21.6455 32.388 18.574 30.4301 16.0719 27.9281C13.5698 25.4261 11.6119 22.3544 10.4098 19.0453C10.0236 17.9818 9.90956 16.8841 10.0711 15.7824C10.2225 14.7504 10.6222 13.7486 11.2272 12.8852C11.8348 12.018 12.6448 11.2967 13.5697 10.7993C14.556 10.269 15.6326 10 16.7695 10C17.1231 10 17.4288 10.2471 17.5029 10.5928L18.68 16.0863C18.7333 16.335 18.6569 16.5939 18.477 16.7738L16.4656 18.7852C18.3631 22.5578 21.4421 25.6368 25.2147 27.5343L27.2261 25.5229C27.406 25.343 27.6649 25.2667 27.9136 25.3199L33.4071 26.497C33.7529 26.5711 33.9999 26.8767 33.9999 27.2304C33.9999 28.3673 33.7309 29.4439 33.2005 30.4302C32.7031 31.3551 31.9819 32.1652 31.1147 32.7728C30.2513 33.3777 29.2495 33.7774 28.2175 33.9288C27.8941 33.9763 27.5708 34 27.2487 34ZM16.1703 11.5327C14.6706 11.6983 13.3395 12.4844 12.4556 13.746C11.4616 15.1646 11.2298 16.9094 11.8196 18.5332C14.1307 24.8951 19.1049 29.8693 25.4668 32.1803C27.0905 32.7702 28.8354 32.5385 30.254 31.5444C31.5156 30.6605 32.3017 29.3294 32.4672 27.8297L27.9983 26.8721L25.8976 28.9727C25.6741 29.1963 25.3345 29.2556 25.0484 29.1212C20.5866 27.0251 16.9749 23.4134 14.8788 18.9515C14.7444 18.6655 14.8037 18.3258 15.0273 18.1023L17.1279 16.0017L16.1703 11.5327Z" fill="#888DB1"/>
</g>
<defs>
<clipPath id="clip0">
<rect width="24" height="24" fill="white" transform="translate(10 10)"/>
</clipPath>
</defs>
</svg>
