<svg width="45" height="45" viewBox="0 0 45 45" fill="none" xmlns="http://www.w3.org/2000/svg">
<rect width="45" height="45" rx="10" fill="none"/>
<path d="M34 23C34 16.383 28.6165 11 22 11C20.7975 11 19.61 11.1775 18.4645 11.5295C17.692 11.182 16.8485 11 16 11C12.6915 11 10 13.6915 10 17C10 17.8485 10.182 18.692 10.5295 19.4645C10.1775 20.61 10 21.7975 10 23C10 29.617 15.383 35 22 35C23.2025 35 24.39 34.822 25.5355 34.4705C26.308 34.818 27.152 35 28 35C31.3085 35 34 32.3085 34 29C34 28.152 33.818 27.3085 33.4705 26.536C33.8225 25.3905 34 24.203 34 23ZM31.499 27.059C31.5045 27.07 31.51 27.0805 31.5155 27.0915C31.8325 27.676 32 28.336 32 29C32 31.2055 30.2055 33 28 33C27.3355 33 26.676 32.8325 26.092 32.516C25.984 32.4575 25.8635 32.4195 25.741 32.4035C25.6995 32.398 25.657 32.395 25.614 32.395C25.613 32.395 25.612 32.395 25.612 32.395C25.611 32.395 25.6095 32.395 25.6085 32.395H25.608C25.6075 32.395 25.6075 32.395 25.607 32.395C25.607 32.395 25.6065 32.395 25.606 32.395C25.606 32.395 25.606 32.395 25.6055 32.395C25.487 32.3955 25.373 32.4165 25.2675 32.4555C24.2145 32.8165 23.115 33 22 33C16.486 33 12 28.514 12 23C12 21.8795 12.185 20.7745 12.5505 19.716C12.5785 19.6345 12.596 19.5475 12.6025 19.4605C12.6045 19.437 12.6055 19.413 12.6055 19.389C12.6055 19.389 12.6055 19.389 12.6055 19.3885C12.6055 19.388 12.6055 19.3875 12.6055 19.387C12.6055 19.387 12.6055 19.387 12.6055 19.3865C12.6055 19.3855 12.6055 19.3845 12.6055 19.383C12.6055 19.382 12.6055 19.382 12.6055 19.381C12.605 19.223 12.5675 19.0735 12.5015 18.941C12.496 18.9305 12.4905 18.9195 12.4845 18.9085C12.1675 18.3245 12 17.6645 12 17C12 14.7945 13.7945 13 16 13C16.6645 13 17.3245 13.1675 17.908 13.484C18.013 13.541 18.13 13.5785 18.2495 13.595C18.294 13.6015 18.3395 13.6045 18.3855 13.605H18.3875H18.3895C18.3895 13.605 18.391 13.605 18.3915 13.605C18.392 13.605 18.392 13.605 18.3925 13.605H18.3935C18.5125 13.6045 18.6265 13.5835 18.732 13.5445C19.786 13.1835 20.8855 13 22 13C27.514 13 32 17.486 32 23C32 24.114 31.8175 25.2115 31.457 26.2625C31.4175 26.3695 31.3955 26.485 31.395 26.606V26.6065V26.608C31.395 26.6075 31.395 26.609 31.395 26.61V26.615V26.617V26.619C31.3955 26.7775 31.433 26.9265 31.499 27.059V27.059Z" fill="#1E37E6"/>
<path d="M22 19C23.084 19 24 19.687 24 20.5C24 21.052 24.448 21.5 25 21.5C25.552 21.5 26 21.052 26 20.5C26 18.57 24.2055 17 22 17C19.7945 17 18 18.57 18 20.5C18 22.43 19.7945 24 22 24C23.084 24 24 24.687 24 25.5C24 26.313 23.084 27 22 27C20.916 27 20 26.313 20 25.5C20 24.948 19.552 24.5 19 24.5C18.448 24.5 18 24.948 18 25.5C18 27.43 19.7945 29 22 29C24.2055 29 26 27.43 26 25.5C26 23.57 24.2055 22 22 22C20.916 22 20 21.313 20 20.5C20 19.687 20.916 19 22 19Z" fill="#1E37E6"/>
</svg>
