<svg width="45" height="45" viewBox="0 0 45 45" fill="none" xmlns="http://www.w3.org/2000/svg">
<rect width="45" height="45" rx="10" fill="none"/>
<g clip-path="url(#clip0)">
<path d="M33.6294 13.384C33.3363 13.0255 32.8972 12.8281 32.3929 12.8281C32.1188 12.8281 31.8284 12.8858 31.5299 12.9999L11.2144 20.7549C10.1363 21.1664 9.99107 21.7838 10.0004 22.1152C10.0097 22.4467 10.1897 23.0549 11.2895 23.4048C11.2961 23.4069 11.3026 23.4089 11.3092 23.4107L15.5232 24.6166L17.8022 31.1334C18.1129 32.0218 18.8103 32.5737 19.6226 32.5737C20.1347 32.5737 20.6385 32.3591 21.0794 31.9533L23.6859 29.5533L27.4665 32.5975C27.4668 32.5978 27.4674 32.598 27.4678 32.5984L27.5036 32.6273C27.5069 32.6299 27.5104 32.6326 27.5137 32.6352C27.9339 32.9611 28.3926 33.1332 28.8407 33.1334H28.8409C29.7163 33.1334 30.4134 32.4854 30.6164 31.4827L33.9451 15.0464C34.0788 14.3867 33.9667 13.7964 33.6294 13.384ZM16.933 24.3876L25.063 20.2342L20.0007 25.6133C19.9178 25.7014 19.859 25.8092 19.8301 25.9266L18.8539 29.8806L16.933 24.3876ZM20.1267 30.9188C20.093 30.9497 20.0591 30.9774 20.0252 31.0028L20.9309 27.3348L22.5783 28.6614L20.1267 30.9188ZM32.5669 14.7672L29.2382 31.2037C29.2062 31.361 29.1038 31.727 28.8407 31.727C28.7107 31.727 28.5473 31.6561 28.3802 31.5274L24.0962 28.0781C24.0957 28.0775 24.0949 28.077 24.0942 28.0766L21.5452 26.024L28.8659 18.2451C29.1003 17.9961 29.1216 17.6147 28.9163 17.3411C28.7109 17.0676 28.3386 16.9815 28.0341 17.1371L15.9934 23.2884L11.7221 22.0663L32.0315 14.3137C32.203 14.2481 32.3228 14.2344 32.3929 14.2344C32.4359 14.2344 32.5125 14.2395 32.5409 14.2745C32.5782 14.3201 32.6258 14.4755 32.5669 14.7672Z" fill="#888DB1"/>
</g>
<defs>
<clipPath id="clip0">
<rect width="24" height="24" fill="white" transform="translate(10 11)"/>
</clipPath>
</defs>
</svg>
