<svg width="45" height="45" viewBox="0 0 45 45" fill="none" xmlns="http://www.w3.org/2000/svg">
<rect width="45" height="45" rx="10" fill="none"/>
<g clip-path="url(#clip0)">
<path d="M30.5911 14.4089C28.3928 12.2105 25.4706 11 22.3615 11C22.3613 11 22.3605 11 22.3604 11C20.8226 11.0002 19.3241 11.2979 17.9067 11.8851C16.4891 12.4724 15.2191 13.3214 14.1316 14.4089C11.9334 16.6071 10.7229 19.5298 10.7229 22.6385C10.7229 24.4925 11.1702 26.3349 12.0178 27.9764L10.0615 33.5652C9.92365 33.9594 10.0212 34.3879 10.3168 34.6832C10.5235 34.8901 10.7956 35 11.0754 35C11.1953 35 11.3165 34.9799 11.4348 34.9385L17.0236 32.9824C18.6651 33.83 20.5075 34.2773 22.3615 34.2773C25.4702 34.2773 28.3928 33.0666 30.5911 30.8684C32.7893 28.6702 34 25.7475 34 22.6387C34 19.5298 32.7895 16.6071 30.5911 14.4089ZM29.5958 29.873C27.6635 31.8055 25.0941 32.8696 22.3615 32.8696C20.6897 32.8696 19.0289 32.4561 17.5586 31.6735C17.292 31.5318 16.9769 31.5074 16.694 31.6065L11.6165 33.3835L13.3937 28.306C13.4927 28.0228 13.4682 27.7076 13.3265 27.4412C12.5441 25.9713 12.1304 24.3105 12.1304 22.6385C12.1304 19.9059 13.1946 17.3365 15.127 15.4042C17.0591 13.4721 19.6281 12.4079 22.3605 12.4075H22.3615C25.0943 12.4075 27.6635 13.4717 29.5958 15.4042C31.5283 17.3365 32.5925 19.9057 32.5925 22.6385C32.5925 25.3714 31.5283 27.9407 29.5958 29.873Z" fill="#888DB1"/>
<path d="M26.6871 23.6783C26.1517 23.1429 25.2805 23.1429 24.7451 23.6783L24.1595 24.2639C22.7055 23.4716 21.5288 22.2949 20.7363 20.8409L21.3219 20.2553C21.8575 19.7199 21.8575 18.8487 21.3219 18.3133L19.7439 16.7353C19.2085 16.1999 18.3373 16.1999 17.8019 16.7353L16.5396 17.9976C15.8165 18.7207 15.7804 19.9638 16.4379 21.498C17.0089 22.8301 18.0537 24.2943 19.3799 25.6205C20.7061 26.9467 22.1702 27.9915 23.5023 28.5624C24.2313 28.8748 24.8943 29.0306 25.4672 29.0306C26.1002 29.0306 26.6232 28.8404 27.0028 28.4608L28.2651 27.1983V27.1985C28.5245 26.939 28.6674 26.5942 28.6674 26.2275C28.6674 25.8605 28.5245 25.5157 28.2651 25.2565L26.6871 23.6783ZM26.0074 27.4655C25.801 27.6718 25.1664 27.7441 24.057 27.2688C22.8854 26.7667 21.5779 25.8278 20.3752 24.6251C19.1726 23.4225 18.2338 22.1151 17.7318 20.9436C17.2562 19.8342 17.3286 19.1993 17.5349 18.993L18.7731 17.7548L20.3024 19.2843L19.5694 20.0175C19.238 20.3489 19.158 20.8515 19.3706 21.2682C20.3342 23.1579 21.8425 24.6661 23.7321 25.6298C24.1491 25.8424 24.6517 25.7626 24.9831 25.431L25.7161 24.698L27.2456 26.2275L26.0074 27.4655Z" fill="#888DB1"/>
</g>
<defs>
<clipPath id="clip0">
<rect width="24" height="24" fill="white" transform="translate(10 11)"/>
</clipPath>
</defs>
</svg>
