<svg xmlns="http://www.w3.org/2000/svg" viewBox="0 0 45 45" width="45" height="45">
	<style>
		tspan { white-space:pre }
		.shp0 { fill: #888db1 } 
	</style>
	<g id="Layer">
		<g id="Layer">
			<path id="Layer" fill-rule="evenodd" class="shp0" d="M38 14.86L38 30.14C38 30.66 37.57 31.09 37.03 31.09L34.13 31.09C33.87 31.09 33.63 30.99 33.45 30.81L31.79 29.18L30.25 29.18L30.25 30.14C30.25 31.72 28.95 33 27.34 33L9.91 33C8.3 33 7 31.72 7 30.14L7 14.86C7 13.28 8.3 12 9.91 12L27.34 12C28.95 12 30.25 13.28 30.25 14.86L30.25 15.82L31.79 15.82L33.44 14.19C33.62 14.01 33.87 13.91 34.13 13.91L37.03 13.91C37.57 13.91 38 14.34 38 14.86ZM36.06 15.82L34.52 15.82L32.88 17.45C32.69 17.63 32.45 17.73 32.19 17.73L30.25 17.73L30.25 24.41L28.31 24.41L28.31 14.86C28.31 14.34 27.88 13.91 27.34 13.91L9.91 13.91C9.37 13.91 8.94 14.34 8.94 14.86L8.94 30.14C8.94 30.66 9.37 31.09 9.91 31.09L27.34 31.09C27.88 31.09 28.31 30.66 28.31 30.14L28.31 28.23C28.31 27.7 28.75 27.27 29.28 27.27L32.19 27.27C32.44 27.27 32.69 27.37 32.87 27.55L34.52 29.18L36.06 29.18L36.06 15.82Z" />
		</g>
	</g>
	<g id="Layer">
	</g>
	<g id="Layer">
	</g>
	<g id="Layer">
	</g>
	<g id="Layer">
	</g>
	<g id="Layer">
	</g>
	<g id="Layer">
	</g>
	<g id="Layer">
	</g>
	<g id="Layer">
	</g>
	<g id="Layer">
	</g>
	<g id="Layer">
	</g>
	<g id="Layer">
	</g>
	<g id="Layer">
	</g>
	<g id="Layer">
	</g>
	<g id="Layer">
	</g>
	<g id="Layer">
	</g>
</svg>