<?xml version="1.0" encoding="utf-8"?>
<!-- Generator: Adobe Illustrator 24.1.1, SVG Export Plug-In . SVG Version: 6.00 Build 0)  -->
<svg version="1.1" id="Layer_1" xmlns="http://www.w3.org/2000/svg" xmlns:xlink="http://www.w3.org/1999/xlink" x="0px" y="0px"
	 viewBox="0 0 512 512" style="enable-background:new 0 0 512 512;" xml:space="preserve">
<style type="text/css">
	.st0{fill:#6C54FF;}
</style>
<path class="st0" d="M193.5,242.1c26.4-11.6,39.8-36.3,39.8-74.3c0-54.8-31.3-82.3-94-82.3H49.1c-7.3,0-13.4,1.8-18.7,5.2
	c-5.3,3.4-7.9,8.1-7.9,14v303.9c0,5,2.4,9.3,7.4,13.1c5,3.7,11.4,5.6,19.2,5.6H148c28.7,0,51.4-7.9,68.3-23.7
	c16.8-15.8,25.3-40.9,25.3-75.6v-9.8c0-21.8-4-38.4-12.1-49.8C221.4,257.1,209.3,248.2,193.5,242.1z M82.6,138.6h51.9
	c11.9,0,21.1,3.5,27.9,10.5c6.8,7.1,10,16.6,10,28.7c0,12.4-3.2,22.2-9.5,29.5s-15.6,10.8-27.9,10.8H82.6V138.6z M180.8,323
	c0,34-15.1,50.9-45.3,50.9H82.6v-108h52.9c15,0,26.3,3.9,33.8,11.8c7.6,7.7,11.4,20.5,11.4,37.9V323z"/>
<path class="st0" d="M455.2,331.9c6.6,0,11.8-0.3,16-1c4-0.6,8.5-2.1,13.4-4.7c4.8-2.4,8.4-6.8,10.8-12.7c2.4-6,3.5-13.7,3.5-22.9
	c0-25.3-9.5-46.4-28.4-63.2s-41.6-25.1-68-25.1c-28.4,0-52.5,9.2-72.5,27.6c-20,18.4-30,40.4-30,65.9v39.8
	c0,28.7,10.5,51.9,31.6,69.5c21.1,17.6,48.2,26.4,81.5,26.4c23.4,0,42.9-4.4,58.7-12.9c15.8-8.5,23.7-17.2,23.7-25.9
	c0-5.6-2.3-11.4-6.6-17.6c-4.4-6.1-9.8-9.2-16.4-9.2c-3.4,0-11,2.9-22.4,8.9c-11.6,6-23.2,8.9-35.1,8.9c-16.6,0-29.8-4.2-39.8-12.4
	s-15-19-15-32.6v-6.8H455.2z M360.3,284c0-10.2,4-18.4,12.1-24.7s17.6-9.3,28.5-9.3c11.6,0,21.3,3.2,29.2,9.7
	c7.9,6.4,11.9,14.7,11.9,24.8c0,4.7-1,7.7-3.1,9.3c-2.1,1.6-5.5,2.4-10.5,2.4h-68.3V284H360.3z"/>
<path class="st0" d="M475.8,128.6H324.5c-13.4,0-24.2,10.8-24.2,24.2c0,13.4,10.8,24.2,24.2,24.2h151.3c13.4,0,24.2-10.8,24.2-24.2
	S489.2,128.6,475.8,128.6z"/>
</svg>
