<?xml version="1.0" encoding="utf-8"?>
<!-- Generator: Adobe Illustrator 24.1.1, SVG Export Plug-In . SVG Version: 6.00 Build 0)  -->
<svg version="1.1" id="Layer_1" xmlns="http://www.w3.org/2000/svg" xmlns:xlink="http://www.w3.org/1999/xlink" x="0px" y="0px"
	 viewBox="0 0 512 512" style="enable-background:new 0 0 512 512;" xml:space="preserve">
<style type="text/css">
	.st0{fill:#6C54FF;}
</style>
<g>
	<g>
		<path class="st0" d="M511.3,448.1L486,289.7l24.8-124c3-14.8-0.8-29.9-10.4-41.6c-6.1-7.5-14.1-12.9-23-15.8V55.7
			c0-27.6-22.5-50.1-50.1-50.1H84.7c-27.6,0-50.1,22.5-50.1,50.1v52.6c-8.9,2.9-16.9,8.3-23,15.8C2,135.8-1.8,150.9,1.2,165.7
			l24.8,124L0.7,448.1c-2.4,14.5,1.7,29.3,11.2,40.5c9.5,11.3,23.5,17.7,38.2,17.7h411.9c14.7,0,28.7-6.5,38.2-17.7
			C509.6,477.4,513.7,462.6,511.3,448.1z M68,55.7C68,46.5,75.5,39,84.7,39h49v16.7c0,9.2,7.5,16.7,16.7,16.7S167,64.9,167,55.7V39
			h178v16.7c0,9.2,7.5,16.7,16.7,16.7s16.7-7.5,16.7-16.7V39h49c9.2,0,16.7,7.5,16.7,16.7v50.1H68V55.7z M474.7,467.1
			c-3.2,3.8-7.7,5.9-12.7,5.9H50.1c-5,0-9.5-2.1-12.7-5.9c-3.2-3.8-4.5-8.6-3.7-13.5c0,0,0-0.1,0-0.1L59.4,292c0.3-2,0.3-4-0.1-5.9
			l-25.4-127c-1-4.9,0.3-10,3.5-13.9s7.9-6.1,12.9-6.1h1h409.4h1c5,0,9.7,2.2,12.9,6.1c3.2,3.9,4.4,8.9,3.5,13.9l-25.4,127
			c-0.4,1.9-0.4,3.9-0.1,5.9l25.8,161.4c0,0,0,0.1,0,0.1C479.2,458.4,477.9,463.3,474.7,467.1z"/>
	</g>
</g>
<g>
	<g>
		<path class="st0" d="M244.5,302.7c13.9-12.2,22.7-30.1,22.7-50.1c0-36.8-29.9-66.8-66.8-66.8s-66.8,29.9-66.8,66.8
			c0,9.2,7.5,16.7,16.7,16.7s16.7-7.5,16.7-16.7c0-18.4,15-33.4,33.4-33.4c18.4,0,33.4,15,33.4,33.4c0,18.4-15,33.4-33.4,33.4
			c-9.2,0-16.7,7.5-16.7,16.7s7.5,16.7,16.7,16.7c18.4,0,33.4,15,33.4,33.4s-15,33.4-33.4,33.4c-18.4,0-33.4-15-33.4-33.4
			c0-9.2-7.5-16.7-16.7-16.7s-16.7,7.5-16.7,16.7c0,36.8,29.9,66.8,66.8,66.8s66.8-29.9,66.8-66.8
			C267.1,332.9,258.3,315,244.5,302.7z"/>
	</g>
</g>
<g>
	<g>
		<path class="st0" d="M368.1,187.2c-6.2-2.6-13.4-1.2-18.2,3.6l-50.1,50.1c-6.5,6.5-6.5,17.1,0,23.6c6.5,6.5,17.1,6.5,23.6,0
			l21.6-21.6v160c0,9.2,7.5,16.7,16.7,16.7s16.7-7.5,16.7-16.7V202.6C378.4,195.8,374.3,189.8,368.1,187.2z"/>
	</g>
</g>
</svg>
