<?xml version="1.0" encoding="utf-8"?>
<!-- Generator: Adobe Illustrator 24.1.1, SVG Export Plug-In . SVG Version: 6.00 Build 0)  -->
<svg version="1.1" id="Layer_1" xmlns="http://www.w3.org/2000/svg" xmlns:xlink="http://www.w3.org/1999/xlink" x="0px" y="0px"
	 viewBox="0 0 40 40" style="enable-background:new 0 0 40 40;" xml:space="preserve">
<style type="text/css">
	.st0{fill:#6C54FF;}
</style>
<path class="st0" d="M13.4,31.1C7.3,31.1,2.3,26.2,2.2,20.1S7,9,13.1,8.9c0.1,0,0.2,0,0.2,0c2.8,0,5.4,1,7.4,2.9l-3,2.9
	C16.6,13.6,15,13,13.4,13c-3.9,0.1-6.9,3.3-6.9,7.1c0.1,3.8,3.1,6.8,6.9,6.9c3,0.2,5.7-1.8,6.3-4.8h-6.3v-3.8h10.4
	c0.1,0.6,0.2,1.2,0.2,1.8C24,26.6,19.8,31.1,13.4,31.1z"/>
<polygon class="st0" points="37.7,22 34.5,22 34.5,25.2 31.3,25.2 31.3,22 28.1,22 28.1,18.8 31.3,18.8 31.3,15.6 34.5,15.6 
	34.5,18.8 37.7,18.8 "/>
</svg>
