<?xml version="1.0" encoding="utf-8"?>
<!-- Generator: Adobe Illustrator 24.1.1, SVG Export Plug-In . SVG Version: 6.00 Build 0)  -->
<svg version="1.1" id="Capa_1" xmlns="http://www.w3.org/2000/svg" xmlns:xlink="http://www.w3.org/1999/xlink" x="0px" y="0px"
	 viewBox="0 0 512 512" style="enable-background:new 0 0 512 512;" xml:space="preserve">
<style type="text/css">
	.st0{fill:#6C54FF;}
</style>
<g>
	<g>
		<path class="st0" d="M415.1,65.9C372.6,23.4,316.1,0,256,0S139.4,23.4,96.9,65.9S31,164.9,31,225s23.4,116.6,65.9,159.1
			C135.8,423,186.5,446,241,449.5V497c0,8.3,6.7,15,15,15c30.6,0,60.9-9.6,90-28.6c25.9-17,49.7-40.6,70.8-70.2
			C457,356.5,481,286.2,481,225C481,164.9,457.6,108.4,415.1,65.9z M271,481v-46c0-8.3-6.7-15-15-15c-107.5,0-195-87.5-195-195
			S148.5,30,256,30s195,87.5,195,195C451,332.8,367.9,468.1,271,481z"/>
	</g>
	<g>
		<path class="st0" d="M376,150h-90c-8.3,0-15,6.7-15,15v90c0,8.3,6.7,15,15,15h15v45c0,8.3,6.7,15,15,15c41.4,0,75-33.6,75-75v-90
			C391,156.7,384.3,150,376,150z M361,255c0,19.6-12.5,36.2-30,42.4V255c0-8.3-6.7-15-15-15h-15v-60h60V255z"/>
	</g>
	<g>
		<path class="st0" d="M226,150h-90c-8.3,0-15,6.7-15,15v90c0,8.3,6.7,15,15,15h15v45c0,8.3,6.7,15,15,15c41.4,0,75-33.6,75-75v-90
			C241,156.7,234.3,150,226,150z M211,255c0,19.6-12.5,36.2-30,42.4V255c0-8.3-6.7-15-15-15h-15v-60h60V255z"/>
	</g>
</g>
</svg>
