<?xml version="1.0" encoding="utf-8"?>
<!-- Generator: Adobe Illustrator 24.1.1, SVG Export Plug-In . SVG Version: 6.00 Build 0)  -->
<svg version="1.1" id="Layer_1" xmlns="http://www.w3.org/2000/svg" xmlns:xlink="http://www.w3.org/1999/xlink" x="0px" y="0px"
	 viewBox="0 0 512 512" style="enable-background:new 0 0 512 512;" xml:space="preserve">
<style type="text/css">
	.st0{fill:#6C54FF;}
</style>
<path class="st0" d="M120.4,160.7H24c-8.3,0-15,6.7-15,15V497c0,8.3,6.7,15,15,15h96.4c8.3,0,15-6.7,15-15V175.7
	C135.4,167.4,128.7,160.7,120.4,160.7z M105.4,482H39V190.7h66.4V482z"/>
<path class="st0" d="M72.2,0C37.4,0,9,28.4,9,63.2c0,34.9,28.4,63.2,63.2,63.2c34.8,0,63.2-28.4,63.2-63.2
	C135.4,28.4,107.1,0,72.2,0z M72.2,96.4C53.9,96.4,39,81.5,39,63.2C39,44.9,53.9,30,72.2,30c18.3,0,33.2,14.9,33.2,33.2
	C105.4,81.5,90.5,96.4,72.2,96.4z"/>
<path class="st0" d="M361.4,158.5c-22.8,0-45.3,5.5-65.4,15.8c-0.7-7.7-7.1-13.7-14.9-13.7h-96.4c-8.3,0-15,6.7-15,15V497
	c0,8.3,6.7,15,15,15h96.4c8.3,0,15-6.7,15-15V320.3c0-22.7,18.5-41.2,41.2-41.2s41.2,18.5,41.2,41.2V497c0,8.3,6.7,15,15,15h96.4
	c8.3,0,15-6.7,15-15V302.1C504.9,222.9,440.6,158.5,361.4,158.5z M474.9,482h-66.4V320.3c0-39.3-32-71.2-71.2-71.2
	c-39.3,0-71.2,32-71.2,71.2V482h-66.4V190.7h66.4v11.1c0,5.8,3.3,11,8.5,13.5c5.2,2.5,11.4,1.8,15.9-1.8
	c20.3-16.3,44.9-24.9,71-24.9c62.6,0,113.5,50.9,113.5,113.5V482z"/>
</svg>
