<?xml version="1.0" encoding="utf-8"?>
<!-- Generator: Adobe Illustrator 24.1.1, SVG Export Plug-In . SVG Version: 6.00 Build 0)  -->
<svg version="1.1" id="Layer_1" xmlns="http://www.w3.org/2000/svg" xmlns:xlink="http://www.w3.org/1999/xlink" x="0px" y="0px"
	 viewBox="0 0 40 40" style="enable-background:new 0 0 40 40;" xml:space="preserve">
<style type="text/css">
	.st0{fill:#6C54FF;}
</style>
<path class="st0" d="M36.3,31.1L36.3,31.1L36.3,31.1l-1.5,1.5c-2.1,2.1-4.9,2.9-7.6,2.3c-2.9-0.8-5.5-1.9-7.8-3.4
	c-2.3-1.5-4.4-3-6.3-4.9c-1.7-1.7-3.2-3.6-4.6-5.5C7,19,5.9,16.5,5.1,14c-1-2.9-0.2-6.1,2.1-8.4l1.9-1.9c0.6-0.6,1.3-0.6,1.9,0l0,0
	l5.7,5.7c0.6,0.6,0.6,1.3,0,1.9l0,0l-3.4,3.4c-1,1-1.1,2.5-0.4,3.6c1.1,1.7,2.5,3.2,4,4.8c1.7,1.7,3.4,3,5.3,4.4
	c1.1,0.8,2.7,0.6,3.4-0.4l3.2-3.2c0.6-0.6,1.3-0.6,1.9,0l0,0l5.7,5.7C36.9,29.8,36.9,30.6,36.3,31.1z"/>
</svg>
