<?xml version="1.0" encoding="utf-8"?>
<!-- Generator: Adobe Illustrator 24.1.1, SVG Export Plug-In . SVG Version: 6.00 Build 0)  -->
<svg version="1.1" id="regular" xmlns="http://www.w3.org/2000/svg" xmlns:xlink="http://www.w3.org/1999/xlink" x="0px" y="0px"
	 viewBox="0 0 512 512" style="enable-background:new 0 0 512 512;" xml:space="preserve">
<style type="text/css">
	.st0{fill:#6C54FF;}
</style>
<path class="st0" d="M144.8,234.7c-15.2-28.6-13.2-65.5,5.4-96.4c52.2-87,214.1-72.3,214.1,47.1c0,106-72.8,132.7-100.5,110.3
	c-24.3-19.6,18.5-77,18.5-126.5c0-84.5-124.3-74.9-124.3,29.8c0,20.6,4.9,36.5,8.1,44.6c-5.8,23.6-29.1,119.5-33.9,139.5
	c-1.4,5.8-13.1,115.1,13.4,127.6c35.1,16.6,76.9-110.9,85.8-147.7c16.6,11.2,38.6,18.3,60.7,18.3C507.8,381.1,542.8,0,262.4,0v0
	C52.2,0-2,215.3,90.4,300.9C115.7,324.1,158.1,259.7,144.8,234.7L144.8,234.7z M262.4,32c237.5,0,203.9,317.1,29.7,317.1
	c-25.4,0-48.3-13-54.8-25c-3-5.4-8.3-8.5-15-8.3c-27.6,1.6-11.1,57-61.3,142c-4.6-84.1,10.7-81.7,37.5-211.9
	c1.9-7.6-23.8-57,5.4-89.4c7.1-7.9,16.4-12.4,25.4-12.4c43,0,7.5,72.7-3.5,118.2c-13.5,56.6,44.7,89.4,99.8,63.1
	c21.2-10.2,70.7-44.1,70.7-140c0-152-204.6-178.4-273.5-63.5c-23.9,39.9-26.6,88-7.1,126.2c-0.7,4.9-6.3,14.6-11.3,21
	C44.7,196.1,89.5,32,262.4,32z"/>
</svg>
