<?xml version="1.0" encoding="utf-8"?>
<!-- Generator: Adobe Illustrator 24.1.1, SVG Export Plug-In . SVG Version: 6.00 Build 0)  -->
<svg version="1.1" id="Capa_1" xmlns="http://www.w3.org/2000/svg" xmlns:xlink="http://www.w3.org/1999/xlink" x="0px" y="0px"
	 viewBox="0 0 490.7 490.7" style="enable-background:new 0 0 490.7 490.7;" xml:space="preserve">
<style type="text/css">
	.st0{fill:#6C54FF;}
</style>
<g>
	<g>
		<path class="st0" d="M437.3,149.3h-384C23.9,149.3,0,173.3,0,202.7V288c0,29.4,23.9,53.3,53.3,53.3h384
			c29.4,0,53.3-23.9,53.3-53.3v-85.3C490.7,173.3,466.8,149.3,437.3,149.3z M469.3,288c0,17.6-14.4,32-32,32h-384
			c-17.6,0-32-14.4-32-32v-85.3c0-17.6,14.4-32,32-32h384c17.6,0,32,14.4,32,32V288z"/>
	</g>
</g>
<g>
	<g>
		<path class="st0" d="M245.3,42.7c-5.9,0-10.7,4.8-10.7,10.7V160c0,5.9,4.8,10.7,10.7,10.7S256,165.9,256,160V53.3
			C256,47.4,251.2,42.7,245.3,42.7z"/>
	</g>
</g>
<g>
	<g>
		<path class="st0" d="M245.3,320c-5.9,0-10.7,4.8-10.7,10.7v106.7c0,5.9,4.8,10.7,10.7,10.7s10.7-4.8,10.7-10.7V330.7
			C256,324.8,251.2,320,245.3,320z"/>
	</g>
</g>
<g>
	<g>
		<path class="st0" d="M351.1,157.2C331.5,86.5,291,42.7,245.3,42.7s-86.2,43.9-105.7,114.5c-1.6,5.7,1.7,11.5,7.4,13.1
			c5.7,1.6,11.6-1.8,13.1-7.4c16.6-60,50.1-98.8,85.2-98.8s68.6,38.8,85.2,98.8c1.3,4.7,5.6,7.8,10.3,7.8c0.9,0,1.9-0.1,2.8-0.4
			C349.3,168.7,352.6,162.8,351.1,157.2z"/>
	</g>
</g>
<g>
	<g>
		<path class="st0" d="M343.6,320.4c-5.7-1.5-11.6,1.8-13.1,7.4c-16.6,60-50.1,98.8-85.2,98.8s-68.6-38.8-85.2-98.8
			c-1.5-5.7-7.3-9-13.1-7.4c-5.7,1.6-9,7.4-7.4,13.1c19.5,70.6,60,114.5,105.7,114.5s86.2-43.9,105.7-114.5
			C352.6,327.8,349.3,322,343.6,320.4z"/>
	</g>
</g>
<g>
	<g>
		<path class="st0" d="M426.7,155.2c-34.6-69.4-104-112.6-181.4-112.6S98.5,85.8,64,155.3c-2.6,5.3-0.5,11.7,4.8,14.3
			c5.2,2.6,11.7,0.5,14.3-4.8C114,102.6,176.2,64,245.3,64s131.3,38.6,162.3,100.8c1.9,3.7,5.6,5.9,9.5,5.9c1.6,0,3.2-0.4,4.7-1.1
			C427.2,166.9,429.3,160.5,426.7,155.2z"/>
	</g>
</g>
<g>
	<g>
		<path class="st0" d="M421.9,321.1c-5.2-2.6-11.7-0.5-14.3,4.8c-30.9,62.1-93.1,100.8-162.3,100.8S114,388.1,83.1,325.9
			c-2.6-5.3-9.1-7.4-14.3-4.8c-5.3,2.6-7.4,9-4.8,14.3C98.5,404.9,168,448,245.3,448s146.8-43.1,181.4-112.6
			C429.3,330.1,427.2,323.7,421.9,321.1z"/>
	</g>
</g>
<g>
	<g>
		<path class="st0" d="M290.6,192.3c-5.8-1.4-11.5,2-12.9,7.8l-12.4,49.8l-9.7-29.2c-2.9-8.7-17.3-8.7-20.2,0l-9.7,29.2L213,200.1
			c-1.4-5.7-7.3-9.2-12.9-7.8c-5.7,1.4-9.2,7.2-7.8,12.9l21.3,85.3c1.2,4.6,5.2,7.9,9.9,8.1c5.6,0.2,9-2.8,10.5-7.3l11.2-33.6
			l11.2,33.6c1.5,4.4,5.5,7.3,10.1,7.3c0.1,0,0.3,0,0.4,0c4.7-0.2,8.8-3.5,9.9-8.1l21.3-85.3C299.8,199.5,296.3,193.7,290.6,192.3z"
			/>
	</g>
</g>
<g>
	<g>
		<path class="st0" d="M162.6,192.3c-5.8-1.4-11.5,2-12.9,7.8l-12.4,49.8l-9.7-29.2c-2.9-8.7-17.3-8.7-20.2,0l-9.7,29.2L85,200.1
			c-1.4-5.7-7.3-9.2-12.9-7.8c-5.7,1.4-9.2,7.2-7.8,12.9l21.3,85.3c1.2,4.6,5.2,7.9,9.9,8.1c5.7,0.2,9-2.8,10.5-7.3l11.2-33.6
			l11.2,33.6c1.5,4.4,5.5,7.3,10.1,7.3c0.1,0,0.3,0,0.4,0c4.7-0.2,8.8-3.5,9.9-8.1l21.3-85.3C171.8,199.5,168.3,193.7,162.6,192.3z"
			/>
	</g>
</g>
<g>
	<g>
		<path class="st0" d="M418.6,192.3c-5.8-1.4-11.5,2-12.9,7.8l-12.4,49.8l-9.7-29.2c-2.9-8.7-17.3-8.7-20.2,0l-9.7,29.2L341,200.1
			c-1.4-5.7-7.3-9.2-12.9-7.8c-5.7,1.4-9.2,7.2-7.8,12.9l21.3,85.3c1.2,4.6,5.2,7.9,9.9,8.1c5.5,0.2,9-2.8,10.5-7.3l11.2-33.6
			l11.2,33.6c1.5,4.4,5.5,7.3,10.1,7.3c0.1,0,0.3,0,0.4,0c4.7-0.2,8.8-3.5,9.9-8.1l21.3-85.3C427.8,199.5,424.3,193.7,418.6,192.3z"
			/>
	</g>
</g>
</svg>
