<svg width="31" height="30" viewBox="0 0 31 30" fill="none" xmlns="http://www.w3.org/2000/svg">
<rect x="0.0683594" width="30" height="30" rx="5" fill="#F2F3FD"/>
<path fill-rule="evenodd" clip-rule="evenodd" d="M10.3461 20.75H19.2906C19.9934 20.75 20.5684 20.175 20.5684 19.4722V10.5278C20.5684 9.825 19.9934 9.25 19.2906 9.25H10.3461C9.64336 9.25 9.06836 9.825 9.06836 10.5278V19.4722C9.06836 20.175 9.64336 20.75 10.3461 20.75ZM10.985 10.5278H18.6517C19.0031 10.5278 19.2906 10.8153 19.2906 11.1667V18.8333C19.2906 19.1847 19.0031 19.4722 18.6517 19.4722H10.985C10.6336 19.4722 10.3461 19.1847 10.3461 18.8333V11.1667C10.3461 10.8153 10.6336 10.5278 10.985 10.5278Z" fill="#888DB1"/>
</svg>
