<svg width="31" height="30" viewBox="0 0 31 30" fill="none" xmlns="http://www.w3.org/2000/svg">
<rect x="0.804688" width="30" height="30" rx="5" fill="#F2F3FD"/>
<path fill-rule="evenodd" clip-rule="evenodd" d="M11.0825 20.75H20.0269C20.7297 20.75 21.3047 20.175 21.3047 19.4722V10.5278C21.3047 9.825 20.7297 9.25 20.0269 9.25H11.0825C10.3797 9.25 9.80469 9.825 9.80469 10.5278V19.4722C9.80469 20.175 10.3797 20.75 11.0825 20.75ZM11.7214 10.5278H19.388C19.7394 10.5278 20.0269 10.8153 20.0269 11.1667V18.8333C20.0269 19.1847 19.7394 19.4722 19.388 19.4722H11.7214C11.37 19.4722 11.0825 19.1847 11.0825 18.8333V11.1667C11.0825 10.8153 11.37 10.5278 11.7214 10.5278Z" fill="#2D44E6"/>
<path fill-rule="evenodd" clip-rule="evenodd" d="M11.7083 10.5H19.2917C19.8875 10.5 20.375 10.95 20.375 11.5V18.5C20.375 19.05 19.8875 19.5 19.2917 19.5H11.7083C11.1125 19.5 10.625 19.05 10.625 18.5V11.5C10.625 10.95 11.1125 10.5 11.7083 10.5ZM14.0373 17.145C14.2485 17.34 14.5898 17.34 14.801 17.145L18.9069 13.35C19.1181 13.155 19.1181 12.84 18.9069 12.645C18.6956 12.45 18.3544 12.45 18.1431 12.645L14.4165 16.085L12.8565 14.645C12.6452 14.45 12.304 14.45 12.0927 14.645C11.9913 14.7384 11.9343 14.8652 11.9343 14.9975C11.9343 15.1297 11.9913 15.2566 12.0927 15.35L14.0373 17.145Z" fill="#001CE2"/>
</svg>
