<svg width="31" height="30" viewBox="0 0 31 30" fill="none" xmlns="http://www.w3.org/2000/svg">
<rect x="0.0683594" width="30" height="30" rx="5" fill="#F2F3FD"/>
<g clip-path="url(#clip0)">
<path d="M14.4844 10.3333H10.401C10.0916 10.3333 9.79488 10.4562 9.57608 10.675C9.35729 10.8938 9.23438 11.1905 9.23438 11.4999V19.6666C9.23438 19.976 9.35729 20.2727 9.57608 20.4915C9.79488 20.7103 10.0916 20.8333 10.401 20.8333H18.5677C18.8771 20.8333 19.1739 20.7103 19.3927 20.4915C19.6115 20.2727 19.7344 19.976 19.7344 19.6666V15.5833" stroke="#888DB1" stroke-linecap="round" stroke-linejoin="round"/>
<path d="M18.8594 9.45838C19.0914 9.22632 19.4062 9.09595 19.7344 9.09595C20.0626 9.09595 20.3773 9.22632 20.6094 9.45838C20.8414 9.69045 20.9718 10.0052 20.9718 10.3334C20.9718 10.6616 20.8414 10.9763 20.6094 11.2084L15.0677 16.75L12.7344 17.3334L13.3177 15.0001L18.8594 9.45838Z" stroke="#888DB1" stroke-linecap="round" stroke-linejoin="round"/>
</g>
<defs>
<clipPath id="clip0">
<rect width="14" height="14" fill="white" transform="translate(8.06836 8)"/>
</clipPath>
</defs>
</svg>
