<svg width="30" height="30" viewBox="0 0 30 30" fill="none" xmlns="http://www.w3.org/2000/svg">
<rect width="30" height="30" rx="5" fill="#F2F3FD"/>
<path d="M14.9993 15.8332C15.4596 15.8332 15.8327 15.4601 15.8327 14.9998C15.8327 14.5396 15.4596 14.1665 14.9993 14.1665C14.5391 14.1665 14.166 14.5396 14.166 14.9998C14.166 15.4601 14.5391 15.8332 14.9993 15.8332Z" stroke="#888DB1" stroke-width="2" stroke-linecap="round" stroke-linejoin="round"/>
<path d="M14.9993 10.0002C15.4596 10.0002 15.8327 9.62707 15.8327 9.16683C15.8327 8.70659 15.4596 8.3335 14.9993 8.3335C14.5391 8.3335 14.166 8.70659 14.166 9.16683C14.166 9.62707 14.5391 10.0002 14.9993 10.0002Z" stroke="#888DB1" stroke-width="2" stroke-linecap="round" stroke-linejoin="round"/>
<path d="M14.9993 21.6667C15.4596 21.6667 15.8327 21.2936 15.8327 20.8333C15.8327 20.3731 15.4596 20 14.9993 20C14.5391 20 14.166 20.3731 14.166 20.8333C14.166 21.2936 14.5391 21.6667 14.9993 21.6667Z" stroke="#888DB1" stroke-width="2" stroke-linecap="round" stroke-linejoin="round"/>
</svg>
