<svg width="29" height="29" viewBox="0 0 29 29" fill="none" xmlns="http://www.w3.org/2000/svg">
<path d="M16.9163 16.3126V9.66675C16.9163 8.38487 16.4071 7.15549 15.5007 6.24907C14.5943 5.34264 13.3649 4.83341 12.083 4.83341C10.8011 4.83341 9.57175 5.34264 8.66532 6.24907C7.7589 7.15549 7.24967 8.38487 7.24967 9.66675V16.3126C7.24967 18.3956 8.07716 20.3934 9.55011 21.8663C11.023 23.3393 13.0208 24.1667 15.1038 24.1667C17.1869 24.1667 19.1846 23.3393 20.6576 21.8663C22.1305 20.3934 22.958 18.3956 22.958 16.3126V4.83341H25.3747V16.3126C25.3747 19.0366 24.2926 21.649 22.3664 23.5752C20.4403 25.5013 17.8278 26.5834 15.1038 26.5834C12.3798 26.5834 9.76742 25.5013 7.84127 23.5752C5.91511 21.649 4.83301 19.0366 4.83301 16.3126V9.66675C4.83301 7.74393 5.59685 5.89986 6.95648 4.54022C8.31612 3.18059 10.1602 2.41675 12.083 2.41675C14.0058 2.41675 15.8499 3.18059 17.2095 4.54022C18.5692 5.89986 19.333 7.74393 19.333 9.66675V16.3126C19.333 17.4342 18.8874 18.5099 18.0943 19.3031C17.3012 20.0962 16.2255 20.5417 15.1038 20.5417C13.9822 20.5417 12.9065 20.0962 12.1134 19.3031C11.3202 18.5099 10.8747 17.4342 10.8747 16.3126V9.66675H13.2913V16.3126C13.2913 16.7933 13.4823 17.2543 13.8222 17.5942C14.1621 17.9341 14.6231 18.1251 15.1038 18.1251C15.5845 18.1251 16.0456 17.9341 16.3855 17.5942C16.7254 17.2543 16.9163 16.7933 16.9163 16.3126Z" fill="#888DB1"/>
</svg>
