<svg width="44" height="44" viewBox="0 0 44 44" fill="none" xmlns="http://www.w3.org/2000/svg">
<path d="M42.2812 20.2812H1.71875C0.769484 20.2812 0 21.0507 0 22C0 22.9493 0.769484 23.7188 1.71875 23.7188H42.2812C43.2305 23.7188 44 22.9493 44 22C44 21.0507 43.2305 20.2812 42.2812 20.2812Z" fill="#001CE2"/>
<path d="M42.2812 6.53125H1.71875C0.769484 6.53125 0 7.30073 0 8.25C0 9.19927 0.769484 9.96875 1.71875 9.96875H42.2812C43.2305 9.96875 44 9.19927 44 8.25C44 7.30073 43.2305 6.53125 42.2812 6.53125Z" fill="#001CE2"/>
<path d="M42.2812 34.0312H1.71875C0.769484 34.0312 0 34.8007 0 35.75C0 36.6993 0.769484 37.4688 1.71875 37.4688H42.2812C43.2305 37.4688 44 36.6993 44 35.75C44 34.8007 43.2305 34.0312 42.2812 34.0312Z" fill="#001CE2"/>
</svg>
