<svg width="23" height="23" viewBox="0 0 23 23" fill="none" xmlns="http://www.w3.org/2000/svg">
<g clip-path="url(#clip0)">
<path d="M4.9 8.78711C3.52789 8.78711 2.41162 9.90338 2.41162 11.2755C2.41162 12.6476 3.52789 13.7639 4.9 13.7639C6.2721 13.7639 7.38837 12.6476 7.38837 11.2755C7.38837 9.90338 6.2721 8.78711 4.9 8.78711ZM4.9 12.411C4.2739 12.411 3.76447 11.9016 3.76447 11.2755C3.76447 10.6493 4.2739 10.14 4.9 10.14C5.52609 10.14 6.03552 10.6493 6.03552 11.2755C6.03552 11.9016 5.52609 12.411 4.9 12.411Z" fill="#888DB1"/>
<path d="M9.3062 14.6643C7.93414 14.6643 6.81787 15.7806 6.81787 17.1527C6.81787 18.5247 7.93414 19.641 9.3062 19.641C10.6783 19.641 11.7946 18.5247 11.7946 17.1527C11.7946 15.7806 10.6783 14.6643 9.3062 14.6643ZM9.3062 18.2882C8.6801 18.2882 8.17072 17.7788 8.17072 17.1526C8.17072 16.5265 8.6801 16.0171 9.3062 16.0171C9.93234 16.0171 10.4417 16.5265 10.4417 17.1526C10.4418 17.7788 9.93234 18.2882 9.3062 18.2882Z" fill="#888DB1"/>
<path d="M22.3768 14.6431C22.3723 14.6387 22.3678 14.6343 22.3633 14.63L20.021 12.4197C21.3322 11.4283 21.9245 9.67336 21.3858 8.04992C18.8464 0.388529 9.08826 -2.04208 3.27382 3.68452C-1.0809 7.97343 -1.04026 14.8889 3.09144 19.1475C6.80323 22.9732 12.6519 23.5105 16.9686 20.6848C18.9901 19.362 18.0607 16.2133 15.6418 16.2133C13.8351 16.2133 13.5315 13.6873 15.2381 13.2547L19.3647 17.6281C19.369 17.6326 19.3734 17.6371 19.3778 17.6416C20.2051 18.4707 21.5488 18.4729 22.3782 17.6435C23.2075 16.8142 23.2075 15.4719 22.3768 14.6431ZM13.6367 16.7674C14.1802 17.2824 14.8922 17.5661 15.6418 17.5661C16.7222 17.5661 17.1295 18.9628 16.2278 19.5529C12.4497 22.0261 7.31843 21.5615 4.0624 18.2055C0.410451 14.4414 0.431962 8.40083 4.2381 4.65697C9.33837 -0.359828 17.8689 1.73903 20.1017 8.47574C20.4801 9.61595 20.0073 10.8549 19.0157 11.4711L15.2584 7.92554C15.4859 6.83335 15.1708 5.68196 14.3453 4.85653C13.3093 3.82045 10.0454 3.30403 8.63092 3.15038C8.2019 3.10366 7.83864 3.46634 7.88532 3.89598C8.04023 5.31599 8.55362 8.57247 9.59151 9.6104C10.4175 10.4363 11.5695 10.7508 12.6608 10.5233L14.2435 12.2006C12.5582 13.1155 12.216 15.4211 13.6367 16.7674ZM10.5481 8.65378C10.0383 8.14404 9.5829 6.20532 9.34243 4.60745C10.9403 4.84787 12.8791 5.30336 13.3888 5.8131C14.1737 6.59799 14.1738 7.86867 13.3888 8.65378C12.6056 9.437 11.3347 9.44038 10.5481 8.65378ZM21.4217 16.6869C21.1236 16.985 20.6411 16.9864 20.3413 16.6917C19.995 16.3248 14.2855 10.2739 13.9674 9.93682C14.2343 9.73862 14.4735 9.49942 14.672 9.23225L21.4269 15.6065C21.7218 15.9067 21.7202 16.3883 21.4217 16.6869Z" fill="#888DB1"/>
</g>
<defs>
<clipPath id="clip0">
<rect width="23" height="23" fill="white"/>
</clipPath>
</defs>
</svg>
