<svg width="23" height="23" viewBox="0 0 23 23" fill="none" xmlns="http://www.w3.org/2000/svg">
<g clip-path="url(#clip0)">
<path d="M4.89951 8.78719C3.5274 8.78719 2.41113 9.90346 2.41113 11.2756C2.41113 12.6477 3.5274 13.7639 4.89951 13.7639C6.27162 13.7639 7.38788 12.6477 7.38788 11.2756C7.38788 9.90346 6.27162 8.78719 4.89951 8.78719ZM4.89951 12.4111C4.27341 12.4111 3.76398 11.9017 3.76398 11.2756C3.76398 10.6494 4.27341 10.14 4.89951 10.14C5.5256 10.14 6.03503 10.6494 6.03503 11.2756C6.03503 11.9017 5.5256 12.4111 4.89951 12.4111Z" fill="#888DB1"/>
<path d="M9.30669 14.6644C7.93462 14.6644 6.81836 15.7806 6.81836 17.1527C6.81836 18.5248 7.93462 19.6411 9.30669 19.6411C10.6788 19.6411 11.7951 18.5248 11.7951 17.1527C11.7951 15.7806 10.6788 14.6644 9.30669 14.6644ZM9.30669 18.2882C8.68059 18.2882 8.17121 17.7788 8.17121 17.1527C8.17121 16.5265 8.68059 16.0172 9.30669 16.0172C9.93283 16.0172 10.4422 16.5265 10.4422 17.1527C10.4423 17.7788 9.93283 18.2882 9.30669 18.2882Z" fill="#888DB1"/>
<path d="M22.3768 14.643C22.3723 14.6385 22.3678 14.6342 22.3633 14.6299L20.021 12.4196C21.3322 11.4281 21.9245 9.67324 21.3858 8.04981C18.8464 0.388414 9.08826 -2.04219 3.27382 3.68441C-1.0809 7.97332 -1.04026 14.8888 3.09144 19.1474C6.80323 22.9731 12.6519 23.5104 16.9686 20.6847C18.9901 19.3619 18.0607 16.2131 15.6418 16.2131C13.8351 16.2131 13.5315 13.6872 15.2381 13.2546L19.3647 17.628C19.369 17.6325 19.3734 17.637 19.3778 17.6415C20.2051 18.4706 21.5488 18.4728 22.3782 17.6434C23.2075 16.8141 23.2075 15.4718 22.3768 14.643ZM13.6367 16.7673C14.1802 17.2823 14.8922 17.5659 15.6418 17.5659C16.7222 17.5659 17.1295 18.9627 16.2278 19.5528C12.4497 22.026 7.31843 21.5614 4.0624 18.2053C0.410451 14.4413 0.431962 8.40071 4.2381 4.65685C9.33837 -0.359942 17.8689 1.73892 20.1017 8.47562C20.4801 9.61584 20.0073 10.8548 19.0157 11.471L15.2584 7.92543C15.4859 6.83324 15.1708 5.68184 14.3453 4.85641C13.3093 3.82033 10.0454 3.30391 8.63092 3.15026C8.2019 3.10354 7.83864 3.46622 7.88532 3.89587C8.04023 5.31587 8.55362 8.57236 9.59151 9.61029C10.4175 10.4362 11.5695 10.7506 12.6608 10.5232L14.2435 12.2005C12.5582 13.1154 12.216 15.4209 13.6367 16.7673ZM10.5481 8.65367C10.0383 8.14392 9.5829 6.20521 9.34243 4.60734C10.9403 4.84775 12.8791 5.30324 13.3888 5.81299C14.1737 6.59787 14.1738 7.86856 13.3888 8.65367C12.6056 9.43689 11.3347 9.44027 10.5481 8.65367ZM21.4217 16.6868C21.1236 16.9849 20.6411 16.9863 20.3413 16.6916C19.995 16.3247 14.2855 10.2738 13.9674 9.93671C14.2343 9.7385 14.4735 9.4993 14.672 9.23214L21.4269 15.6064C21.7218 15.9066 21.7202 16.3882 21.4217 16.6868Z" fill="#888DB1"/>
</g>
<defs>
<clipPath id="clip0">
<rect width="23" height="23" fill="white"/>
</clipPath>
</defs>
</svg>
