<svg width="44" height="45" viewBox="0 0 44 45" fill="none" xmlns="http://www.w3.org/2000/svg">
<g clip-path="url(#clip0)">
<path d="M0.410248 22.6496C0.410248 10.6126 10.1681 0.854706 22.2051 0.854706C34.2421 0.854706 44 10.6126 44 22.6496C44 34.6866 34.2421 44.4445 22.2051 44.4445C10.1681 44.4445 0.410248 34.6866 0.410248 22.6496Z" fill="white"/>
<path fill-rule="evenodd" clip-rule="evenodd" d="M22.2051 44.4445C34.2421 44.4445 44 34.6866 44 22.6496C44 10.6126 34.2421 0.854706 22.2051 0.854706C10.1681 0.854706 0.410248 10.6126 0.410248 22.6496C0.410248 34.6866 10.1681 44.4445 22.2051 44.4445Z" fill="white" stroke="#979797"/>
<g clip-path="url(#clip1)">
<rect width="27.2436" height="27.2436" transform="translate(8.58331 9.02777)" fill="white"/>
<path d="M35.3728 22.9522C35.3728 21.8322 35.2832 21.0149 35.0892 20.1673H22.4738V25.2225H29.8788C29.7295 26.4787 28.9233 28.3706 27.1318 29.6419L27.1067 29.8112L31.0954 32.9438L31.3717 32.9718C33.9097 30.5955 35.3728 27.0992 35.3728 22.9522Z" fill="#4285F4"/>
<path d="M22.473 36.2714C26.1008 36.2714 29.1464 35.0605 31.3709 32.9719L27.131 29.642C25.9964 30.4442 24.4735 31.0042 22.473 31.0042C18.9198 31.0042 15.9041 28.628 14.8291 25.3437L14.6715 25.3572L10.524 28.6113L10.4697 28.7642C12.6793 33.2139 17.2178 36.2714 22.473 36.2714Z" fill="#34A853"/>
<path d="M14.8299 25.3436C14.5463 24.4961 14.3821 23.5879 14.3821 22.6495C14.3821 21.7111 14.5463 20.803 14.815 19.9555L14.8075 19.7749L10.608 16.4686L10.4706 16.5348C9.55992 18.3814 9.03738 20.4549 9.03738 22.6495C9.03738 24.8442 9.55992 26.9176 10.4706 28.7642L14.8299 25.3436Z" fill="#FBBC05"/>
<path d="M22.473 14.2948C24.9961 14.2948 26.698 15.3997 27.6684 16.323L31.4605 12.5694C29.1316 10.3748 26.1008 9.02777 22.473 9.02777C17.2178 9.02777 12.6793 12.0851 10.4697 16.5348L14.8142 19.9555C15.9041 16.6711 18.9198 14.2948 22.473 14.2948Z" fill="#EB4335"/>
</g>
</g>
<defs>
<clipPath id="clip0">
<path d="M0.410248 22.6496C0.410248 10.6126 10.1681 0.854706 22.2051 0.854706C34.2421 0.854706 44 10.6126 44 22.6496C44 34.6866 34.2421 44.4445 22.2051 44.4445C10.1681 44.4445 0.410248 34.6866 0.410248 22.6496Z" fill="white"/>
</clipPath>
<clipPath id="clip1">
<rect width="27.2436" height="27.2436" fill="white" transform="translate(8.58331 9.02777)"/>
</clipPath>
</defs>
</svg>
