<?xml version="1.0" encoding="iso-8859-1"?>
<!-- Generator: Adobe Illustrator 21.0.0, SVG Export Plug-In . SVG Version: 6.00 Build 0)  -->
<svg xmlns="http://www.w3.org/2000/svg" xmlns:xlink="http://www.w3.org/1999/xlink" version="1.1" id="Capa_1" x="0px" y="0px" viewBox="0 0 512 512" style="enable-background:new 0 0 512 512;" xml:space="preserve" width="512" height="512">
<g>
	<g>
		<path d="M415.1,65.9C372.6,23.4,316.1,0,256,0S139.4,23.4,96.9,65.9S31,164.9,31,225s23.4,116.6,65.9,159.1    c38.94,38.94,89.64,61.85,144.1,65.41V497c0,8.29,6.72,15,15,15c30.65,0,60.91-9.63,89.95-28.64    c25.94-16.96,49.74-40.58,70.77-70.18C456.97,356.51,481,286.17,481,225C481,164.9,457.6,108.4,415.1,65.9z M271,481v-46    c0-8.28-6.72-15-15-15c-107.52,0-195-87.48-195-195S148.48,30,256,30s195,87.48,195,195C451,332.76,367.92,468.06,271,481z"/>
	</g>
	<g>
		<path d="M376,150h-90c-8.28,0-15,6.72-15,15v90c0,8.28,6.72,15,15,15h15v45c0,8.28,6.72,15,15,15c41.35,0,75-33.64,75-75v-90    C391,156.72,384.28,150,376,150z M361,255c0,19.56-12.54,36.24-30,42.43V255c0-8.28-6.72-15-15-15h-15v-60h60V255z"/>
	</g>
	<g>
		<path d="M226,150h-90c-8.28,0-15,6.72-15,15v90c0,8.28,6.72,15,15,15h15v45c0,8.28,6.72,15,15,15c41.35,0,75-33.64,75-75v-90    C241,156.72,234.28,150,226,150z M211,255c0,19.56-12.54,36.24-30,42.43V255c0-8.28-6.72-15-15-15h-15v-60h60V255z"/>
	</g>
</g>















</svg>
