<svg width="44" height="44" viewBox="0 0 44 44" fill="none" xmlns="http://www.w3.org/2000/svg">
<path fill-rule="evenodd" clip-rule="evenodd" d="M22 43.5897C34.037 43.5897 43.7949 33.8318 43.7949 21.7949C43.7949 9.7579 34.037 0 22 0C9.96304 0 0.205139 9.7579 0.205139 21.7949C0.205139 33.8318 9.96304 43.5897 22 43.5897Z" fill="#FF3366"/>
<path fill-rule="evenodd" clip-rule="evenodd" d="M18.2222 12.2396C18.2222 13.5315 17.1688 14.5171 15.9112 14.5171C14.6538 14.5171 13.6005 13.5315 13.6005 12.2396C13.6005 10.9487 14.6538 9.96332 15.9112 9.96332C17.1688 9.96332 18.2222 10.9487 18.2222 12.2396ZM10.9158 28.4216C10.9158 27.9126 10.9839 27.2888 11.1197 26.711L12.8528 19.6308H10.1683L10.9839 16.6217H17.4407L14.8917 26.7326C14.7217 27.3787 14.6538 27.9146 14.6538 28.2879C14.6538 28.9344 14.9721 29.1234 15.4697 29.2356C15.7726 29.3036 18.1876 29.2561 19.5026 26.3336L21.1765 19.6308H18.4579L19.2735 16.6217H25.0846L24.3371 20.038C25.3564 18.1347 27.3955 16.3262 29.4004 16.3262C31.5414 16.3262 33.3086 17.8514 33.3086 20.7739C33.3086 21.5213 33.2066 22.3349 32.9348 23.2521L31.8471 27.1589C31.7455 27.5676 31.6771 27.9071 31.6771 28.2128C31.6771 28.8922 31.9492 29.2319 32.459 29.2319C32.9687 29.2319 33.6144 28.8572 34.3621 26.7852L35.8572 27.3626C34.9736 30.4552 33.3765 31.7459 31.3713 31.7459C29.0265 31.7459 27.9054 30.3534 27.9054 28.4497C27.9054 27.9066 27.9731 27.3283 28.143 26.7506L29.2647 22.7407C29.4004 22.2987 29.4346 21.8913 29.4346 21.5172C29.4346 20.2263 28.653 19.4445 27.3955 19.4445C25.7982 19.4445 24.7447 20.5908 24.2011 22.7999L22.026 31.5238H18.22L18.9031 28.7823C17.7846 30.62 16.2309 31.7583 14.3141 31.7583C12.0032 31.7583 10.9158 30.427 10.9158 28.4216Z" fill="white"/>
</svg>
