<svg width="44" height="44" viewBox="0 0 44 44" fill="none" xmlns="http://www.w3.org/2000/svg">
<path fill-rule="evenodd" clip-rule="evenodd" d="M21.7949 43.5897C33.8318 43.5897 43.5897 33.8318 43.5897 21.7949C43.5897 9.7579 33.8318 0 21.7949 0C9.7579 0 0 9.7579 0 21.7949C0 33.8318 9.7579 43.5897 21.7949 43.5897Z" fill="#0976B4"/>
<path fill-rule="evenodd" clip-rule="evenodd" d="M13.3044 16.1698C14.8048 16.1698 16.0212 15.0605 16.0212 13.6906C16.0212 12.3195 14.8048 11.2087 13.3044 11.2087C11.8025 11.2087 10.5861 12.3195 10.5861 13.6906C10.5861 15.0605 11.8025 16.1698 13.3044 16.1698Z" fill="white"/>
<path fill-rule="evenodd" clip-rule="evenodd" d="M11.2088 32.1179H16.0836V18.0585H11.2088V32.1179Z" fill="white"/>
<path fill-rule="evenodd" clip-rule="evenodd" d="M22.9254 24.2985C22.9254 22.6862 23.6882 21.1095 25.5122 21.1095C27.3362 21.1095 27.7847 22.6862 27.7847 24.2599V31.9385H32.6377V23.946C32.6377 18.3932 29.3554 17.4359 27.3362 17.4359C25.3187 17.4359 24.206 18.1183 22.9254 19.7719V17.8791H18.0586V31.9385H22.9254V24.2985Z" fill="white"/>
</svg>
