<svg width="44" height="45" viewBox="0 0 44 45" fill="none" xmlns="http://www.w3.org/2000/svg">
<path fill-rule="evenodd" clip-rule="evenodd" d="M22.1026 44.4445C34.1395 44.4445 43.8974 34.6866 43.8974 22.6496C43.8974 10.6126 34.1395 0.854706 22.1026 0.854706C10.0656 0.854706 0.307678 10.6126 0.307678 22.6496C0.307678 34.6866 10.0656 44.4445 22.1026 44.4445Z" fill="#0084FF"/>
<path fill-rule="evenodd" clip-rule="evenodd" d="M24.0554 25.4042L20.9527 22.0744L14.8986 25.4042L21.5581 18.2906L24.7365 21.6204L30.715 18.2906L24.0554 25.4042ZM22.8443 10.1176C16.1153 10.1176 10.6604 15.1998 10.6604 21.4691C10.6604 25.0414 12.4321 28.2278 15.201 30.3086V34.6368L19.3495 32.3459C20.4566 32.6542 21.6295 32.8206 22.8443 32.8206C29.5733 32.8206 35.0282 27.7384 35.0282 21.4691C35.0282 15.1998 29.5733 10.1176 22.8443 10.1176Z" fill="white"/>
</svg>
