<svg width="44" height="44" viewBox="0 0 44 44" fill="none" xmlns="http://www.w3.org/2000/svg">
<path fill-rule="evenodd" clip-rule="evenodd" d="M21.8974 43.5897C33.9344 43.5897 43.6923 33.8318 43.6923 21.7949C43.6923 9.7579 33.9344 0 21.8974 0C9.86044 0 0.102539 9.7579 0.102539 21.7949C0.102539 33.8318 9.86044 43.5897 21.8974 43.5897Z" fill="#CC2127"/>
<path fill-rule="evenodd" clip-rule="evenodd" d="M22.2088 10.5862C16.1907 10.5862 11.3113 15.4706 11.3113 21.4949C11.3113 25.9851 14.0224 29.8415 17.8941 31.5161C17.8663 30.7556 17.8934 29.8487 18.0857 29.0265C18.2971 28.139 19.4943 23.0609 19.4943 23.0609C19.4943 23.0609 19.1447 22.361 19.1447 21.3278C19.1447 19.707 20.085 18.494 21.2537 18.494C22.2487 18.494 22.7297 19.2435 22.7297 20.1393C22.7297 21.14 22.0918 22.6366 21.7625 24.023C21.4898 25.1842 22.3466 26.1323 23.4906 26.1323C25.5611 26.1323 26.9557 23.4684 26.9557 20.3104C26.9557 17.9122 25.3436 16.1152 22.4064 16.1152C19.0899 16.1152 17.0209 18.5919 17.0209 21.3591C17.0209 22.3125 17.3028 22.9862 17.7437 23.5062C17.9459 23.7454 17.9733 23.8419 17.8994 24.1175C17.8462 24.3178 17.7285 24.8026 17.6779 24.9963C17.6055 25.2734 17.38 25.3706 17.1298 25.2688C15.6028 24.6455 14.8898 22.9702 14.8898 21.0874C14.8898 17.9767 17.5103 14.2474 22.7064 14.2474C26.8833 14.2474 29.6309 17.2729 29.6309 20.5182C29.6309 24.8152 27.2451 28.0224 23.7298 28.0224C22.5488 28.0224 21.4372 27.3831 21.0587 26.6588C21.0587 26.6588 20.4216 29.1789 20.2886 29.6677C20.0591 30.4994 19.6169 31.3304 19.2071 31.9847C20.1596 32.2571 21.1665 32.4036 22.2088 32.4036C28.2268 32.4036 33.1062 27.5191 33.1062 21.4949C33.1062 15.4706 28.2268 10.5862 22.2088 10.5862Z" fill="white"/>
</svg>
