<svg width="22" height="18" viewBox="0 0 22 18" fill="none" xmlns="http://www.w3.org/2000/svg">
<path d="M19.8539 2.33426L20.1421 2.15H19.8H2.2H1.85788L2.14614 2.33426L10.9461 7.95926L11 7.99368L11.0539 7.95926L19.8539 2.33426ZM19.8 15.85H19.9V15.75V4.5V4.3174L19.7461 4.41574L11 10.0063L2.25386 4.41574L2.1 4.3174V4.5V15.75V15.85H2.2H19.8ZM19.8 0.1C20.9527 0.1 21.9 1.0656 21.9 2.25V15.75C21.9 16.9344 20.9527 17.9 19.8 17.9H2.2C1.04734 17.9 0.1 16.9344 0.1 15.75V2.25C0.1 1.0656 1.04734 0.1 2.2 0.1H19.8Z" fill="black" stroke="#F0F0F3" stroke-width="0.2"/>
</svg>
