<svg width="54" height="54" viewBox="0 0 54 54" fill="none" xmlns="http://www.w3.org/2000/svg">
<circle cx="27" cy="27" r="24.75" fill="#F56068" stroke="#F56068" stroke-width="4.5"/>
<path d="M38.7305 23.1406H36.9531V20.5399L30.4133 14H17.0469V23.1406H15.2695V36.1406H17.0469V40H36.9531V36.1406H38.7305V23.1406ZM30.8594 16.6008L34.3524 20.0938H30.8594V16.6008ZM18.5703 15.5234H29.3359V21.6172H35.4297V23.1406H18.5703V15.5234ZM35.4297 38.4766H18.5703V36.1406H35.4297V38.4766ZM37.207 34.6172H16.793V24.6641H37.207V34.6172Z" fill="white"/>
<path d="M20.5 30.9102H21.2363C22.5104 30.9102 23.5469 29.8737 23.5469 28.5996C23.5469 27.3255 22.5104 26.2891 21.2363 26.2891H18.9766V33.1953H20.5V30.9102ZM20.5 27.8125H21.2363C21.6703 27.8125 22.0234 28.1656 22.0234 28.5996C22.0234 29.0336 21.6703 29.3867 21.2363 29.3867H20.5V27.8125Z" fill="white"/>
<path d="M29.6406 30.1484V29.3359C29.6406 27.6558 28.2739 26.2891 26.5938 26.2891H25.0703V33.1953H26.5938C28.2739 33.1953 29.6406 31.8286 29.6406 30.1484ZM26.5938 27.8125C27.4338 27.8125 28.1172 28.4959 28.1172 29.3359V30.1484C28.1172 30.9885 27.4338 31.6719 26.5938 31.6719V27.8125Z" fill="white"/>
<path d="M32.7891 31.0879H34.3125V29.5645H32.7891V27.8125H35.0742V26.2891H31.2656V33.1953H32.7891V31.0879Z" fill="white"/>
</svg>
