<svg viewBox="0 0 43 43" fill="none" xmlns="http://www.w3.org/2000/svg">
<g filter="url(#filter0_d)">
<circle cx="21.5" cy="21.5" r="11.5" fill="#005BD1"/>
</g>
<path d="M18.4655 18.0403H17.9968V17.2179H18.4538C18.7497 17.2179 18.9344 17.36 18.9344 17.625V17.6325C18.9344 17.8634 18.7608 18.0403 18.4655 18.0403ZM21.8328 18.0361V18.0286C21.8328 17.5519 21.5066 17.2179 21.0224 17.2179H20.5652V18.8394H21.0224C21.5066 18.8394 21.8328 18.5129 21.8328 18.0361ZM26.4556 16.4992V26.6683C26.4556 27.4962 25.7849 28.1675 24.9564 28.1675H17.4991C16.671 28.1675 16 27.4962 16 26.6683V16.4992C16 15.6713 16.671 15 17.4991 15H24.9561C25.784 15 26.4556 15.6713 26.4556 16.4992ZM19.9727 19.0777C19.9727 19.2429 20.1037 19.3737 20.2686 19.3737H21.0218C21.867 19.3737 22.4517 18.7857 22.4517 18.0286V18.0211C22.4517 17.264 21.8679 16.6839 21.0218 16.6839H20.2686C20.1034 16.6839 19.9727 16.8146 19.9727 16.9798V19.0777ZM17.405 19.1005C17.405 19.266 17.5357 19.3965 17.7009 19.3965C17.8661 19.3965 17.9965 19.2657 17.9965 19.1005V18.5668H18.4463C19.0495 18.5668 19.5335 18.2442 19.5335 17.6217V17.6137C19.5335 17.0644 19.1455 16.6839 18.5036 16.6839H17.7006C17.5351 16.6839 17.4047 16.8146 17.4047 16.9798L17.405 19.1005ZM25.0506 25.8843C25.0506 25.5533 24.7819 25.2846 24.4509 25.2846H18.0046C17.6736 25.2846 17.405 25.5533 17.405 25.8843C17.405 26.2153 17.6736 26.4839 18.0046 26.4839H24.4509C24.7819 26.4839 25.0506 26.2153 25.0506 25.8843ZM25.0506 23.6355C25.0506 23.3045 24.7819 23.0358 24.4509 23.0358H18.0046C17.6736 23.0358 17.405 23.3045 17.405 23.6355C17.405 23.9665 17.6736 24.2352 18.0046 24.2352H24.4509C24.7819 24.2352 25.0506 23.9665 25.0506 23.6355ZM25.0506 21.3868C25.0506 21.0557 24.7819 20.7871 24.4509 20.7871H20.2533C19.9223 20.7871 19.6537 21.0557 19.6537 21.3868C19.6537 21.7178 19.9223 21.9864 20.2533 21.9864H24.4509C24.7819 21.9864 25.0506 21.7178 25.0506 21.3868ZM25.0506 16.9528C25.0506 16.8029 24.9318 16.6839 24.7819 16.6839H23.2756C23.1101 16.6839 22.9803 16.8146 22.9803 16.9798V19.1005C22.9803 19.266 23.111 19.3965 23.2756 19.3965C23.4408 19.3965 23.5712 19.2657 23.5712 19.1005V18.3324H24.6086C24.7585 18.3324 24.8776 18.2133 24.8776 18.0634C24.8776 17.9135 24.7585 17.7945 24.6086 17.7945H23.5712V17.2218H24.7816C24.9315 17.2215 25.0506 17.1027 25.0506 16.9528Z" fill="white"/>
<defs>
<filter id="filter0_d" x="0" y="0" filterUnits="userSpaceOnUse" color-interpolation-filters="sRGB">
<feFlood flood-opacity="0" result="BackgroundImageFix"/>
<feColorMatrix in="SourceAlpha" type="matrix" values="0 0 0 0 0 0 0 0 0 0 0 0 0 0 0 0 0 0 127 0"/>
<feOffset/>
<feGaussianBlur stdDeviation="5"/>
<feColorMatrix type="matrix" values="0 0 0 0 0 0 0 0 0 0.356863 0 0 0 0 0.819608 0 0 0 0.58 0"/>
<feBlend mode="normal" in2="BackgroundImageFix" result="effect1_dropShadow"/>
<feBlend mode="normal" in="SourceGraphic" in2="effect1_dropShadow" result="shape"/>
</filter>
</defs>
</svg>
