<svg width="36" height="36" viewBox="0 0 36 36" fill="none" xmlns="http://www.w3.org/2000/svg">
<path d="M18 36C27.9411 36 36 27.9411 36 18C36 8.05887 27.9411 0 18 0C8.05887 0 0 8.05887 0 18C0 27.9411 8.05887 36 18 36Z" fill="#00CDF7"/>
<path d="M13.8041 12.6179H13.092V11.3687H13.7861C14.2361 11.3687 14.5161 11.5846 14.5161 11.9872V11.9985C14.5161 12.3492 14.2531 12.6179 13.8041 12.6179ZM18.9191 12.6115V12.6001C18.9191 11.876 18.423 11.3687 17.688 11.3687H16.993V13.8316H17.688C18.423 13.8316 18.9191 13.3356 18.9191 12.6115ZM25.9401 10.2771V25.7229C25.9401 26.9803 24.9211 28 23.6631 28H12.3361C11.0791 28 10.0591 26.9803 10.0591 25.7229V10.2771C10.0591 9.0197 11.0791 8 12.3361 8H23.6631C24.9201 8 25.9401 9.0197 25.9401 10.2771ZM16.0931 14.1936C16.0931 14.4446 16.2921 14.6431 16.5431 14.6431H17.6871C18.9711 14.6431 19.8591 13.7501 19.8591 12.6001V12.5888C19.8591 11.4388 18.9721 10.5576 17.6871 10.5576H16.5431C16.2921 10.5576 16.0931 10.7562 16.0931 11.0071V14.1936ZM12.1931 14.2283C12.1931 14.4796 12.3921 14.6777 12.6431 14.6777C12.8941 14.6777 13.092 14.4792 13.092 14.2283V13.4176H13.7751C14.6911 13.4176 15.4261 12.9276 15.4261 11.9821V11.9699C15.4261 11.1355 14.8371 10.5576 13.8621 10.5576H12.6421C12.3911 10.5576 12.1931 10.7562 12.1931 11.0071V14.2283ZM23.8061 24.532C23.8061 24.0292 23.3981 23.6212 22.8951 23.6212H13.1041C12.6011 23.6212 12.1931 24.0292 12.1931 24.532C12.1931 25.0348 12.6011 25.4428 13.1041 25.4428H22.8951C23.3981 25.4428 23.8061 25.0348 23.8061 24.532ZM23.8061 21.1164C23.8061 20.6136 23.3981 20.2056 22.8951 20.2056H13.1041C12.6011 20.2056 12.1931 20.6136 12.1931 21.1164C12.1931 21.6192 12.6011 22.0272 13.1041 22.0272H22.8951C23.3981 22.0272 23.8061 21.6192 23.8061 21.1164ZM23.8061 17.7008C23.8061 17.198 23.3981 16.79 22.8951 16.79H16.5201C16.0171 16.79 15.6091 17.198 15.6091 17.7008C15.6091 18.2036 16.0171 18.6116 16.5201 18.6116H22.8951C23.3981 18.6116 23.8061 18.2036 23.8061 17.7008ZM23.8061 10.9661C23.8061 10.7384 23.6261 10.5576 23.3981 10.5576H21.11C20.859 10.5576 20.662 10.7562 20.662 11.0071V14.2283C20.662 14.4796 20.86 14.6777 21.11 14.6777C21.361 14.6777 21.5591 14.4792 21.5591 14.2283V13.0615H23.1351C23.3631 13.0615 23.5431 12.8807 23.5431 12.653C23.5431 12.4253 23.3631 12.2445 23.1351 12.2445H21.5591V11.3746H23.3981C23.6251 11.3742 23.8061 11.1938 23.8061 10.9661Z" fill="white"/>
</svg>
