<svg viewBox="0 0 21 21" fill="none" xmlns="http://www.w3.org/2000/svg">
<circle cx="10.5" cy="10.5" r="10.5" fill="#D93025"/>
<path d="M8.12225 7.61706H7.71886V6.90911H8.11218C8.36691 6.90911 8.52589 7.03145 8.52589 7.2596V7.26605C8.52589 7.46478 8.37646 7.61706 8.12225 7.61706ZM11.0208 7.61345V7.60699C11.0208 7.19663 10.74 6.90911 10.3232 6.90911H9.92963V8.30488H10.3232C10.74 8.30488 11.0208 8.02381 11.0208 7.61345ZM15 6.29046V15.0439C15 15.7565 14.4227 16.3344 13.7096 16.3344H7.29043C6.5776 16.3344 6 15.7565 6 15.0439V6.29046C6 5.57787 6.5776 5 7.29043 5H13.7093C14.4219 5 15 5.57787 15 6.29046ZM9.41965 8.51006C9.41965 8.65227 9.53243 8.7648 9.67438 8.7648H10.3227C11.0502 8.7648 11.5535 8.25868 11.5535 7.60699V7.60054C11.5535 6.94886 11.051 6.44945 10.3227 6.44945H9.67438C9.53218 6.44945 9.41965 6.56198 9.41965 6.70419V8.51006ZM7.20939 8.52967C7.20939 8.67214 7.32192 8.78441 7.46413 8.78441C7.60633 8.78441 7.7186 8.67188 7.7186 8.52967V8.07027H8.10573C8.625 8.07027 9.04155 7.79256 9.04155 7.25676V7.24979C9.04155 6.77697 8.70759 6.44945 8.15502 6.44945H7.46387C7.3214 6.44945 7.20914 6.56198 7.20914 6.70419L7.20939 8.52967ZM13.7906 14.369C13.7906 14.0841 13.5594 13.8528 13.2744 13.8528H7.72557C7.44064 13.8528 7.20939 14.0841 7.20939 14.369C7.20939 14.654 7.44064 14.8852 7.72557 14.8852H13.2744C13.5594 14.8852 13.7906 14.654 13.7906 14.369ZM13.7906 12.4333C13.7906 12.1484 13.5594 11.9171 13.2744 11.9171H7.72557C7.44064 11.9171 7.20939 12.1484 7.20939 12.4333C7.20939 12.7183 7.44064 12.9495 7.72557 12.9495H13.2744C13.5594 12.9495 13.7906 12.7183 13.7906 12.4333ZM13.7906 10.4976C13.7906 10.2127 13.5594 9.98145 13.2744 9.98145H9.66122C9.37629 9.98145 9.14504 10.2127 9.14504 10.4976C9.14504 10.7826 9.37629 11.0138 9.66122 11.0138H13.2744C13.5594 11.0138 13.7906 10.7826 13.7906 10.4976ZM13.7906 6.68096C13.7906 6.55191 13.6884 6.44945 13.5594 6.44945H12.2627C12.1203 6.44945 12.0085 6.56198 12.0085 6.70419V8.52967C12.0085 8.67214 12.121 8.78441 12.2627 8.78441C12.4049 8.78441 12.5172 8.67188 12.5172 8.52967V7.86844H13.4102C13.5392 7.86844 13.6417 7.76598 13.6417 7.63693C13.6417 7.50789 13.5392 7.40542 13.4102 7.40542H12.5172V6.91247H13.5591C13.6881 6.91221 13.7906 6.81 13.7906 6.68096Z" fill="white"/>
</svg>
