<svg viewBox="0 0 26 26" fill="none" xmlns="http://www.w3.org/2000/svg">
<circle cx="13" cy="13" r="12.5" />
<path d="M20.4375 10.625H19.3438V9.02454L15.3192 5H7.09375V10.625H6V18.625H7.09375V21H19.3438V18.625H20.4375V10.625ZM15.5938 6.60046L17.7433 8.75H15.5938V6.60046ZM8.03125 5.9375H14.6562V9.6875H18.4062V10.625H8.03125V5.9375ZM18.4062 20.0625H8.03125V18.625H18.4062V20.0625ZM19.5 17.6875H6.9375V11.5625H19.5V17.6875Z" fill="#77A8FC"/>
<path d="M9.21875 15.4062H9.67188C10.4559 15.4062 11.0938 14.7684 11.0938 13.9844C11.0938 13.2003 10.4559 12.5625 9.67188 12.5625H8.28125V16.8125H9.21875V15.4062ZM9.21875 13.5H9.67188C9.93896 13.5 10.1562 13.7173 10.1562 13.9844C10.1562 14.2515 9.93896 14.4688 9.67188 14.4688H9.21875V13.5Z" fill="#77A8FC"/>
<path d="M14.8438 14.9375V14.4375C14.8438 13.4036 14.0027 12.5625 12.9688 12.5625H12.0312V16.8125H12.9688C14.0027 16.8125 14.8438 15.9714 14.8438 14.9375ZM12.9688 13.5C13.4857 13.5 13.9062 13.9205 13.9062 14.4375V14.9375C13.9062 15.4545 13.4857 15.875 12.9688 15.875V13.5Z" fill="#77A8FC"/>
<path d="M16.7812 15.5156H17.7188V14.5781H16.7812V13.5H18.1875V12.5625H15.8438V16.8125H16.7812V15.5156Z" fill="#77A8FC"/>
</svg>
