<svg width="40" height="40" viewBox="0 0 40 40" fill="none" xmlns="http://www.w3.org/2000/svg">
<rect width="40" height="40" rx="5" fill="#F2F3FD"/>
<path d="M13 14.5996H14.65H27.85" stroke="#888DB1" stroke-width="1.5" stroke-linecap="round" stroke-linejoin="round"/>
<path d="M17.1254 14.6V12.8C17.1254 12.3226 17.2992 11.8648 17.6087 11.5272C17.9181 11.1896 18.3378 11 18.7754 11H22.0754C22.513 11 22.9327 11.1896 23.2421 11.5272C23.5516 11.8648 23.7254 12.3226 23.7254 12.8V14.6M26.2004 14.6V27.2C26.2004 27.6774 26.0266 28.1352 25.7171 28.4728C25.4077 28.8104 24.988 29 24.5504 29H16.3004C15.8628 29 15.4431 28.8104 15.1337 28.4728C14.8242 28.1352 14.6504 27.6774 14.6504 27.2V14.6H26.2004Z" stroke="#888DB1" stroke-width="1.5" stroke-linecap="round" stroke-linejoin="round"/>
<path d="M18.7754 19.0996V24.4996" stroke="#888DB1" stroke-width="1.5" stroke-linecap="round" stroke-linejoin="round"/>
<path d="M22.0747 19.0996V24.4996" stroke="#888DB1" stroke-width="1.5" stroke-linecap="round" stroke-linejoin="round"/>
</svg>
