<svg xmlns="http://www.w3.org/2000/svg" width="28.09" height="28.094" viewBox="0 0 28.09 28.094">
  <metadata><?xpacket begin="﻿" id="W5M0MpCehiHzreSzNTczkc9d"?>
<x:xmpmeta xmlns:x="adobe:ns:meta/" x:xmptk="Adobe XMP Core 5.6-c138 79.159824, 2016/09/14-01:09:01        ">
   <rdf:RDF xmlns:rdf="http://www.w3.org/1999/02/22-rdf-syntax-ns#">
      <rdf:Description rdf:about=""/>
   </rdf:RDF>
</x:xmpmeta>
                                                                                                    
                                                                                                    
                                                                                                    
                                                                                                    
                                                                                                    
                                                                                                    
                                                                                                    
                                                                                                    
                                                                                                    
                                                                                                    
                                                                                                    
                                                                                                    
                                                                                                    
                                                                                                    
                                                                                                    
                                                                                                    
                                                                                                    
                                                                                                    
                                                                                                    
                                                                                                    
                           
<?xpacket end="w"?></metadata>
<defs>
    <style>
      .cls-1 {
        fill: #9d440e;
        fill-rule: evenodd;
      }
    </style>
  </defs>
  <path id="Path_99" data-name="Path 99" class="cls-1" d="M1652.63,103.559h-5.2a0.5,0.5,0,0,1-.32-0.114l-7.67-6.129h-5.02a0.525,0.525,0,0,1-.52-0.52V82.23a0.525,0.525,0,0,1,.52-0.52h5.02l7.67-6.129a0.5,0.5,0,0,1,.32-0.114h5.2a0.518,0.518,0,0,1,.52.52v27.052A0.518,0.518,0,0,1,1652.63,103.559Zm-0.52-27.052h-4.5l-7.66,6.129a0.5,0.5,0,0,1-.32.114h-4.69V96.276h4.69a0.5,0.5,0,0,1,.32.114l7.66,6.129h4.5V76.507Z" transform="translate(-1633.91 -75.469)"/>
  <path id="Path_100" data-name="Path 100" class="cls-1" d="M1655.4,95.4c-0.01,0-.01.009-0.02,0.013a0.519,0.519,0,0,1-.72-0.748h0a7.273,7.273,0,0,0,0-10.3,0.5,0.5,0,0,1-.15-0.366,0.521,0.521,0,0,1,.89-0.369A8.324,8.324,0,0,1,1655.4,95.4Z" transform="translate(-1633.91 -75.469)"/>
  <path id="Path_101" data-name="Path 101" class="cls-1" d="M1658.34,98.342s-0.01.009-.01,0.013a0.523,0.523,0,0,1-.73-0.748h0.01a11.453,11.453,0,0,0-.01-16.186,0.552,0.552,0,0,1-.15-0.368,0.519,0.519,0,0,1,.52-0.52,0.526,0.526,0,0,1,.37.152h0A12.478,12.478,0,0,1,1658.34,98.342Z" transform="translate(-1633.91 -75.469)"/>
</svg>
