<svg id="behance-network-logo" xmlns="http://www.w3.org/2000/svg" width="37.968" height="24.437" viewBox="0 0 37.968 24.437">
  <metadata><?xpacket begin="﻿" id="W5M0MpCehiHzreSzNTczkc9d"?>
<x:xmpmeta xmlns:x="adobe:ns:meta/" x:xmptk="Adobe XMP Core 5.6-c138 79.159824, 2016/09/14-01:09:01        ">
   <rdf:RDF xmlns:rdf="http://www.w3.org/1999/02/22-rdf-syntax-ns#">
      <rdf:Description rdf:about=""/>
   </rdf:RDF>
</x:xmpmeta>
                                                                                                    
                                                                                                    
                                                                                                    
                                                                                                    
                                                                                                    
                                                                                                    
                                                                                                    
                                                                                                    
                                                                                                    
                                                                                                    
                                                                                                    
                                                                                                    
                                                                                                    
                                                                                                    
                                                                                                    
                                                                                                    
                                                                                                    
                                                                                                    
                                                                                                    
                                                                                                    
                           
<?xpacket end="w"?></metadata>
<defs>
    <style>
      .cls-1 {
        fill: #9d440e;
        fill-rule: evenodd;
      }
    </style>
  </defs>
  <path id="Behance" class="cls-1" d="M595.089,197.387h-9.853v-2.448h9.853v2.448h0Zm-15.06,10.033a6.489,6.489,0,0,1,.953,3.585,7.129,7.129,0,0,1-1.087,3.9,6.765,6.765,0,0,1-4.492,3.153,16.978,16.978,0,0,1-3.453.328H560.931V193.927h11.814c2.978,0.047,5.089.909,6.336,2.606a6.221,6.221,0,0,1,1.118,3.734,5.446,5.446,0,0,1-1.13,3.6,5.74,5.74,0,0,1-1.863,1.393A5.445,5.445,0,0,1,580.029,207.42Zm-13.456-3.849h5.177a4.915,4.915,0,0,0,2.586-.606,2.316,2.316,0,0,0,.992-2.153,2.187,2.187,0,0,0-1.313-2.255,9.24,9.24,0,0,0-2.888-.383h-4.554v5.4Zm9.254,7.084a2.623,2.623,0,0,0-1.557-2.62,6.14,6.14,0,0,0-2.445-.416h-5.252v6.519h5.168a5.722,5.722,0,0,0,2.479-.429A3.08,3.08,0,0,0,575.827,210.655Zm22.916-3.979a22.484,22.484,0,0,1,.151,3.48H586.136a4.188,4.188,0,0,0,1.833,3.7,4.607,4.607,0,0,0,2.526.658,3.853,3.853,0,0,0,2.542-.8,3.814,3.814,0,0,0,.939-1.2h4.678a5.711,5.711,0,0,1-1.7,3.167,8.517,8.517,0,0,1-6.588,2.559,9.569,9.569,0,0,1-6.174-2.159q-2.67-2.157-2.673-7.018,0-4.559,2.413-6.986a8.444,8.444,0,0,1,6.268-2.43,10.021,10.021,0,0,1,4.122.818,7.1,7.1,0,0,1,3.023,2.6A8.664,8.664,0,0,1,598.743,206.676Zm-4.605.457a3.81,3.81,0,0,0-1.225-2.769,3.987,3.987,0,0,0-2.714-.949,3.637,3.637,0,0,0-2.735,1,4.742,4.742,0,0,0-1.222,2.715h7.9Z" transform="translate(-560.938 -193.938)"/>
</svg>
