<svg xmlns="http://www.w3.org/2000/svg" width="37.687" height="37.687" viewBox="0 0 37.687 37.687">
  <metadata><?xpacket begin="﻿" id="W5M0MpCehiHzreSzNTczkc9d"?>
<x:xmpmeta xmlns:x="adobe:ns:meta/" x:xmptk="Adobe XMP Core 5.6-c138 79.159824, 2016/09/14-01:09:01        ">
   <rdf:RDF xmlns:rdf="http://www.w3.org/1999/02/22-rdf-syntax-ns#">
      <rdf:Description rdf:about=""/>
   </rdf:RDF>
</x:xmpmeta>
                                                                                                    
                                                                                                    
                                                                                                    
                                                                                                    
                                                                                                    
                                                                                                    
                                                                                                    
                                                                                                    
                                                                                                    
                                                                                                    
                                                                                                    
                                                                                                    
                                                                                                    
                                                                                                    
                                                                                                    
                                                                                                    
                                                                                                    
                                                                                                    
                                                                                                    
                                                                                                    
                           
<?xpacket end="w"?></metadata>
<defs>
    <style>
      .cls-1 {
        fill: #9d440e;
        fill-rule: evenodd;
      }
    </style>
  </defs>
  <path id="dribbble-logo_2_" data-name="dribbble-logo (2)" class="cls-1" d="M694.145,187.48a18.841,18.841,0,1,0,18.841,18.841A18.862,18.862,0,0,0,694.145,187.48Zm12.279,8.886a15.739,15.739,0,0,1,3.525,9.472,26.6,26.6,0,0,0-10.6-.1c-0.567-1.326-1.154-2.589-1.746-3.783A31.242,31.242,0,0,0,706.424,196.366Zm-2.123-2.157a28.114,28.114,0,0,1-8.1,5.053,72.676,72.676,0,0,0-5.355-8.408A15.769,15.769,0,0,1,704.3,194.209Zm-16.508-2.368a69.252,69.252,0,0,1,5.512,8.5,50.583,50.583,0,0,1-14.538,2.3A15.877,15.877,0,0,1,687.793,191.841Zm-9.447,13.832h0.089a54.627,54.627,0,0,0,9.591-.886,46.494,46.494,0,0,0,6.714-1.731c0.548,1.092,1.092,2.244,1.621,3.451a28.527,28.527,0,0,0-7.4,3.67,33.373,33.373,0,0,0-6.877,6.355,15.739,15.739,0,0,1-3.752-10.211C678.33,206.1,678.337,205.888,678.346,205.673Zm5.916,12.982a30.4,30.4,0,0,1,6.5-6.047,25.39,25.39,0,0,1,6.744-3.315,58.873,58.873,0,0,1,3.176,11.423A15.761,15.761,0,0,1,684.262,218.655Zm19.2,0.432a62.7,62.7,0,0,0-2.973-10.511,23.851,23.851,0,0,1,9.257.313A15.835,15.835,0,0,1,703.466,219.087Z" transform="translate(-675.313 -187.469)"/>
</svg>
