<svg id="speech-bubble" xmlns="http://www.w3.org/2000/svg" width="25.28" height="22.687" viewBox="0 0 25.28 22.687">
  <metadata><?xpacket begin="﻿" id="W5M0MpCehiHzreSzNTczkc9d"?>
<x:xmpmeta xmlns:x="adobe:ns:meta/" x:xmptk="Adobe XMP Core 5.6-c138 79.159824, 2016/09/14-01:09:01        ">
   <rdf:RDF xmlns:rdf="http://www.w3.org/1999/02/22-rdf-syntax-ns#">
      <rdf:Description rdf:about=""/>
   </rdf:RDF>
</x:xmpmeta>
                                                                                                    
                                                                                                    
                                                                                                    
                                                                                                    
                                                                                                    
                                                                                                    
                                                                                                    
                                                                                                    
                                                                                                    
                                                                                                    
                                                                                                    
                                                                                                    
                                                                                                    
                                                                                                    
                                                                                                    
                                                                                                    
                                                                                                    
                                                                                                    
                                                                                                    
                                                                                                    
                           
<?xpacket end="w"?></metadata>
<defs>
    <style>
      .cls-1, .cls-2 {
        fill: #9d440e;
      }

      .cls-2 {
        fill-rule: evenodd;
      }
    </style>
  </defs>
  <circle id="Tracé_174" data-name="Tracé 174" class="cls-1" cx="12.66" cy="5.406" r="0.5"/>
  <circle id="Tracé_175" data-name="Tracé 175" class="cls-1" cx="4.455" cy="13.312" r="0.485"/>
  <path id="Tracé_176" data-name="Tracé 176" class="cls-2" d="M4751.6,221.829c-4.45,0-8.09,3.063-8.37,6.923-4.24.212-8.22,3.264-8.22,7.392a6.912,6.912,0,0,0,1.93,4.72,3.023,3.023,0,0,1-.8,2.829,0.487,0.487,0,0,0-.1.538,0.479,0.479,0,0,0,.45.3,5.461,5.461,0,0,0,3.78-1.524,11.238,11.238,0,0,0,3.43.537c4.44,0,8.09-3.063,8.37-6.922a11.014,11.014,0,0,0,2.96-.526,5.462,5.462,0,0,0,3.78,1.525,0.48,0.48,0,0,0,.45-0.305,0.473,0.473,0,0,0-.11-0.538,3.016,3.016,0,0,1-.79-2.828,6.917,6.917,0,0,0,1.93-4.721C4760.29,224.944,4756,221.829,4751.6,221.829Zm-7.9,20.732a10.013,10.013,0,0,1-3.38-.582,0.5,0.5,0,0,0-.55.125,4.428,4.428,0,0,1-2.21,1.314,4.031,4.031,0,0,0,.3-2.937,0.538,0.538,0,0,0-.12-0.209,5.937,5.937,0,0,1-1.74-4.128c0-3.479,3.53-6.418,7.7-6.418,3.94,0,7.4,2.742,7.4,6.418C4751.1,239.682,4747.78,242.561,4743.7,242.561Zm13.86-9.2a0.545,0.545,0,0,0-.12.209,4.034,4.034,0,0,0,.3,2.938,4.43,4.43,0,0,1-2.21-1.315,0.5,0.5,0,0,0-.55-0.125,9.729,9.729,0,0,1-2.91.57,7.024,7.024,0,0,0-2.67-4.924h6.44a0.494,0.494,0,1,0,0-.988h-7.95a9.2,9.2,0,0,0-3.68-.972c0.29-3.316,3.49-5.938,7.39-5.938,4.17,0,7.7,2.938,7.7,6.417A5.935,5.935,0,0,1,4757.56,233.361Z" transform="translate(-4735 -221.844)"/>
  <path id="Tracé_177" data-name="Tracé 177" class="cls-2" d="M4747.65,234.663h-6.22a0.494,0.494,0,0,0,0,.987h6.22A0.494,0.494,0,0,0,4747.65,234.663Z" transform="translate(-4735 -221.844)"/>
  <path id="Tracé_178" data-name="Tracé 178" class="cls-2" d="M4747.65,237.625h-8.19a0.494,0.494,0,1,0,0,.987h8.19A0.494,0.494,0,0,0,4747.65,237.625Z" transform="translate(-4735 -221.844)"/>
  <path id="Tracé_179" data-name="Tracé 179" class="cls-2" d="M4755.84,226.765h-6.22a0.494,0.494,0,0,0,0,.987h6.22A0.494,0.494,0,1,0,4755.84,226.765Z" transform="translate(-4735 -221.844)"/>
</svg>
