<svg xmlns="http://www.w3.org/2000/svg" width="21.504" height="25.785" viewBox="0 0 21.504 25.785">
  <path id="user_1_" data-name="user (1)" d="M21.7,18.986a8.023,8.023,0,0,0-5.4-2.263V14.364a6.537,6.537,0,0,0,1.529-4.213V6.569a6.569,6.569,0,1,0-13.138,0v3.582a6.537,6.537,0,0,0,1.529,4.213v2.358a8.023,8.023,0,0,0-5.4,2.263,1.007,1.007,0,0,0-.124,1.3,12.91,12.91,0,0,0,21.138,0A1.007,1.007,0,0,0,21.7,18.986ZM6.7,6.569a4.555,4.555,0,1,1,9.109,0v3.582a4.555,4.555,0,1,1-9.109,0Zm4.555,17.2a10.912,10.912,0,0,1-8.36-3.908,6.019,6.019,0,0,1,3.521-1.128H7.22a1.007,1.007,0,0,0,1.007-1.007v-1.74a6.61,6.61,0,0,0,6.051,0v1.74a1.007,1.007,0,0,0,1.007,1.007h.807a6.018,6.018,0,0,1,3.52,1.128A10.912,10.912,0,0,1,11.253,23.771Zm0,0" transform="translate(-0.501)" fill="#c9cff8"/>
</svg>
