<svg xmlns="http://www.w3.org/2000/svg" viewBox="0 0 12.908 20.59">
  <path id="Icon_awesome-behance" data-name="Icon awesome-behance" d="M8.293,5.784a2.713,2.713,0,0,0,1.73-2.645C10.023.615,8.143,0,5.973,0H0V12.669H6.141c2.3,0,4.465-1.1,4.465-3.678A3.053,3.053,0,0,0,8.293,5.784ZM2.785,2.163H5.4c1,0,1.909.282,1.909,1.448,0,1.076-.7,1.509-1.7,1.509H2.785V2.163Zm2.978,8.354H2.785V7.028H5.82c1.226,0,2,.511,2,1.809,0,1.28-.926,1.68-2.059,1.68Zm12.815-8.6H13.441V.665h5.137V1.912Zm2.013,6.3C20.59,5.5,19,3.239,16.126,3.239a4.61,4.61,0,0,0-4.694,4.854,4.468,4.468,0,0,0,4.694,4.815,4.089,4.089,0,0,0,4.293-3.085H18.2a2.087,2.087,0,0,1-1.991,1.2,2.074,2.074,0,0,1-2.252-2.334h6.617C20.58,8.536,20.59,8.376,20.59,8.215ZM13.956,7.1A1.969,1.969,0,0,1,16.047,5.14,1.878,1.878,0,0,1,18.056,7.1Z" transform="translate(12.908) rotate(90)" fill="#686299"/>
</svg>
