<svg width="60" height="60" viewBox="0 0 60 60" fill="none" xmlns="http://www.w3.org/2000/svg">
<rect x="2.5" y="2.5" width="55" height="55" rx="27.5" fill="#FBFFFF" stroke="#F56068" stroke-width="5"/>
<g clip-path="url(#clip0)">
<path d="M30.363 33.947C30.363 32.099 29.484 30.733 27.668 30.221C28.993 29.59 29.684 28.634 29.684 27.147C29.684 24.215 27.492 23.5 24.963 23.5H18V38.221H25.158C27.842 38.221 30.363 36.938 30.363 33.947ZM21.246 26.013H24.292C25.463 26.013 26.517 26.341 26.517 27.695C26.517 28.945 25.697 29.448 24.537 29.448H21.246V26.013ZM21.245 35.721V31.667H24.783C26.212 31.667 27.116 32.261 27.116 33.769C27.116 35.256 26.037 35.721 24.716 35.721H21.245Z" fill="#F56068"/>
<path d="M36.796 38.4999C39.35 38.4999 41.004 37.353 41.8 34.915H39.208C38.929 35.825 37.779 36.306 36.887 36.306C35.166 36.306 34.262 35.301 34.262 33.593H41.975C42.219 30.175 40.315 27.262 36.795 27.262C33.536 27.262 31.324 29.704 31.324 32.903C31.324 36.223 33.42 38.4999 36.796 38.4999V38.4999ZM36.704 29.474C38.179 29.474 38.921 30.338 39.045 31.751H34.266C34.363 30.35 35.296 29.474 36.704 29.474Z" fill="#F56068"/>
<path d="M33.667 24.2729H39.655V25.7229H33.667V24.2729Z" fill="#F56068"/>
</g>
<defs>
<clipPath id="clip0">
<rect width="24" height="24" fill="white" transform="translate(18 19)"/>
</clipPath>
</defs>
</svg>
