<svg width="35" height="35" viewBox="0 0 35 35" fill="none" xmlns="http://www.w3.org/2000/svg">
<rect width="35" height="35" rx="5" fill="#F2F3FF"/>
<path d="M10.5 13H12.1667H25.5" stroke="#888DB1" stroke-width="1.5" stroke-linecap="round" stroke-linejoin="round"/>
<path d="M14.666 12.9998V11.3332C14.666 10.8911 14.8416 10.4672 15.1542 10.1547C15.4667 9.8421 15.8907 9.6665 16.3327 9.6665H19.666C20.108 9.6665 20.532 9.8421 20.8445 10.1547C21.1571 10.4672 21.3327 10.8911 21.3327 11.3332V12.9998M23.8327 12.9998V24.6665C23.8327 25.1085 23.6571 25.5325 23.3445 25.845C23.032 26.1576 22.608 26.3332 22.166 26.3332H13.8327C13.3907 26.3332 12.9667 26.1576 12.6542 25.845C12.3416 25.5325 12.166 25.1085 12.166 24.6665V12.9998H23.8327Z" stroke="#888DB1" stroke-width="1.5" stroke-linecap="round" stroke-linejoin="round"/>
<path d="M16.334 17.1665V22.1665" stroke="#888DB1" stroke-width="1.5" stroke-linecap="round" stroke-linejoin="round"/>
<path d="M19.666 17.1665V22.1665" stroke="#888DB1" stroke-width="1.5" stroke-linecap="round" stroke-linejoin="round"/>
</svg>
