<svg viewBox="0 0 3 10" fill="none" xmlns="http://www.w3.org/2000/svg">
<path d="M1.50008 5.7155C1.96032 5.7155 2.33342 5.3424 2.33342 4.88216C2.33342 4.42192 1.96032 4.04883 1.50008 4.04883C1.03984 4.04883 0.666748 4.42192 0.666748 4.88216C0.666748 5.3424 1.03984 5.7155 1.50008 5.7155Z" fill="#888DB1" stroke="#888DB1" stroke-width="0.5" stroke-linecap="round" stroke-linejoin="round"/>
<path d="M1.50008 2.00016C1.96032 2.00016 2.33342 1.62707 2.33342 1.16683C2.33342 0.706592 1.96032 0.333496 1.50008 0.333496C1.03984 0.333496 0.666748 0.706592 0.666748 1.16683C0.666748 1.62707 1.03984 2.00016 1.50008 2.00016Z" fill="#888DB1" stroke="#888DB1" stroke-width="0.5" stroke-linecap="round" stroke-linejoin="round"/>
<path d="M1.50008 9.43083C1.96032 9.43083 2.33342 9.05773 2.33342 8.59749C2.33342 8.13726 1.96032 7.76416 1.50008 7.76416C1.03984 7.76416 0.666748 8.13726 0.666748 8.59749C0.666748 9.05773 1.03984 9.43083 1.50008 9.43083Z" fill="#888DB1" stroke="#888DB1" stroke-width="0.5" stroke-linecap="round" stroke-linejoin="round"/>
</svg>
