<svg width="4" height="17" viewBox="0 0 4 17" fill="none" xmlns="http://www.w3.org/2000/svg">
<path d="M1.83333 9.33317C2.29357 9.33317 2.66667 8.96007 2.66667 8.49984C2.66667 8.0396 2.29357 7.6665 1.83333 7.6665C1.3731 7.6665 1 8.0396 1 8.49984C1 8.96007 1.3731 9.33317 1.83333 9.33317Z" stroke="#888DB1" stroke-width="2" stroke-linecap="round" stroke-linejoin="round"/>
<path d="M1.83333 3.49992C2.29357 3.49992 2.66667 3.12682 2.66667 2.66659C2.66667 2.20635 2.29357 1.83325 1.83333 1.83325C1.3731 1.83325 1 2.20635 1 2.66659C1 3.12682 1.3731 3.49992 1.83333 3.49992Z" stroke="#888DB1" stroke-width="2" stroke-linecap="round" stroke-linejoin="round"/>
<path d="M1.83333 15.1667C2.29357 15.1667 2.66667 14.7936 2.66667 14.3333C2.66667 13.8731 2.29357 13.5 1.83333 13.5C1.3731 13.5 1 13.8731 1 14.3333C1 14.7936 1.3731 15.1667 1.83333 15.1667Z" stroke="#888DB1" stroke-width="2" stroke-linecap="round" stroke-linejoin="round"/>
</svg>
