<svg xmlns="http://www.w3.org/2000/svg" viewBox="0 0 18.73 18.73">
  <path id="Icon_awesome-dribbble" data-name="Icon awesome-dribbble" d="M8.865,0a8.865,8.865,0,1,0,8.865,8.865A8.875,8.875,0,0,0,8.865,0Zm5.861,4.088a7.536,7.536,0,0,1,1.71,4.717,17.7,17.7,0,0,0-5.273-.244c-.206-.5-.4-.943-.666-1.488A10.087,10.087,0,0,0,14.727,4.088Zm-.842-.876A8.55,8.55,0,0,1,9.916,5.948,40.419,40.419,0,0,0,7.091,1.515a7.553,7.553,0,0,1,6.794,1.7ZM5.646,2.024A48.317,48.317,0,0,1,8.453,6.4a28.245,28.245,0,0,1-7,.923A7.6,7.6,0,0,1,5.646,2.024ZM1.293,8.877c0-.077,0-.154,0-.231A27.933,27.933,0,0,0,9.079,7.568c.217.424.424.855.614,1.285A11.729,11.729,0,0,0,3.24,13.94,7.542,7.542,0,0,1,1.293,8.877Zm2.924,5.974a10.651,10.651,0,0,1,5.99-4.746,31.476,31.476,0,0,1,1.615,5.742,7.557,7.557,0,0,1-7.606-1Zm8.879.3a32.683,32.683,0,0,0-1.471-5.4,11.114,11.114,0,0,1,4.717.324A7.586,7.586,0,0,1,13.1,15.154Z" transform="translate(18.23 0.5) rotate(90)" fill="#28404a" stroke="#28404a" stroke-width="1"/>
</svg>
