<svg width="60" height="60" viewBox="0 0 60 60" fill="none" xmlns="http://www.w3.org/2000/svg">
<rect x="2.5" y="2.5" width="55" height="55" rx="27.5" fill="#FBFFFF" stroke="#39E1AA" stroke-width="5"/>
<g clip-path="url(#clip0)">
<path d="M30 18.001C23.3831 18.001 18 23.3841 18 30.0008C18 36.6176 23.3831 42.0007 30 42.0007C36.6169 42.0007 42 36.6176 42 30.0008C42 23.3841 36.6169 18.001 30 18.001ZM37.8199 23.6604C39.1671 25.3187 39.9965 27.4117 40.0654 29.6933C37.57 29.1767 35.3103 29.2374 33.3155 29.6285C32.9543 28.7838 32.5804 27.9791 32.203 27.2185C34.3755 26.2827 36.2667 25.0873 37.8199 23.6604ZM36.4681 22.2865C34.9264 23.6938 33.1397 24.7358 31.3102 25.505C29.9674 23.0495 28.6826 21.2004 27.9 20.1495C28.5777 20.0052 29.2799 19.9277 30 19.9277C32.4607 19.9277 34.7169 20.8158 36.4681 22.2865ZM25.954 20.7788C26.545 21.5446 27.9527 23.4621 29.4648 26.1902C25.6645 27.4283 21.977 27.6369 20.2051 27.6563C20.9436 24.571 23.1043 22.034 25.954 20.7788ZM19.9373 29.5879C19.9563 29.5879 19.9746 29.588 19.994 29.588C21.2184 29.588 23.4616 29.5057 26.1025 29.0241C27.6092 28.7494 29.0379 28.3796 30.3785 27.9213C30.7275 28.6168 31.0745 29.3505 31.4109 30.1195C29.5337 30.7239 27.9507 31.5935 26.6968 32.4569C24.5941 33.9049 23.1211 35.5114 22.3168 36.5047C20.8275 34.7484 19.9267 32.4785 19.9267 30.0008C19.9267 29.8624 19.9316 29.7251 19.9373 29.5879ZM23.7051 37.8566C24.3976 36.9847 25.8071 35.3977 27.8459 34.0052C29.2315 33.0588 30.665 32.3557 32.1407 31.8942C32.9969 34.1135 33.7279 36.5657 34.1638 39.1695C32.8937 39.7485 31.4846 40.074 30 40.074C27.6196 40.074 25.431 39.2423 23.7051 37.8566ZM35.9364 38.132C35.4872 35.7407 34.8173 33.4922 34.0429 31.4373C35.9478 31.1159 37.9165 31.1822 39.9385 31.6364C39.5025 34.294 38.0236 36.604 35.9364 38.132Z" fill="#39E1AA"/>
</g>
<defs>
<clipPath id="clip0">
<rect width="24" height="24" fill="white" transform="translate(18 18)"/>
</clipPath>
</defs>
</svg>
