<svg id="document" xmlns="http://www.w3.org/2000/svg" width="22.656" height="25.28" viewBox="0 0 22.656 25.28">
  <g id="Group_1319" data-name="Group 1319" transform="translate(0)">
    <g id="Group_1318" data-name="Group 1318">
      <path id="Path_1616" data-name="Path 1616" d="M118.605,200.987a.987.987,0,0,0-.988-.987H107.447a.988.988,0,1,0,0,1.975h10.171A.988.988,0,0,0,118.605,200.987Z" transform="translate(-102.514 -190.125)" fill="#001ce2"/>
      <path id="Path_1617" data-name="Path 1617" d="M107.447,280a.988.988,0,0,0,0,1.975h6.177a.988.988,0,0,0,0-1.975Z" transform="translate(-102.514 -266.175)" fill="#001ce2"/>
      <path id="Path_1618" data-name="Path 1618" d="M33.823,23.305h-3.3a1.977,1.977,0,0,1-1.975-1.975V3.95A1.977,1.977,0,0,1,30.52,1.975H42.661A1.977,1.977,0,0,1,44.636,3.95v6.073a.987.987,0,1,0,1.975,0V3.95A3.954,3.954,0,0,0,42.661,0H30.52a3.954,3.954,0,0,0-3.95,3.95V21.33a3.954,3.954,0,0,0,3.95,3.95h3.3a.988.988,0,1,0,0-1.975Z" transform="translate(-26.57)" fill="#001ce2"/>
      <path id="Path_1619" data-name="Path 1619" d="M254.538,272.891a2.966,2.966,0,0,0-4.189,0l-5.422,5.409a.987.987,0,0,0-.247.412L243.5,282.6a.987.987,0,0,0,1.208,1.239l3.986-1.1a.987.987,0,0,0,.434-.253l5.41-5.4A2.966,2.966,0,0,0,254.538,272.891Zm-6.622,8.008-2.005.556.587-1.932,3.658-3.65,1.4,1.4Zm5.226-5.216-.191.191-1.4-1.4.191-.19a.988.988,0,0,1,1.4,1.4Z" transform="translate(-232.748 -258.593)" fill="#001ce2"/>
      <path id="Path_1620" data-name="Path 1620" d="M117.618,120H107.447a.988.988,0,0,0,0,1.975h10.171a.988.988,0,1,0,0-1.975Z" transform="translate(-102.514 -114.075)" fill="#001ce2"/>
    </g>
  </g>
</svg>
