<svg id="eye" xmlns="http://www.w3.org/2000/svg" viewBox="0 0 42.746 27.245">
  <g id="Group_990" data-name="Group 990" transform="translate(0 0)">
    <g id="Group_989" data-name="Group 989" transform="translate(0 0)">
      <path id="Path_1377" data-name="Path 1377" d="M42.474,105.626c-.382-.522-9.481-12.791-21.1-12.791S.653,105.1.271,105.626a1.411,1.411,0,0,0,0,1.663c.381.522,9.481,12.791,21.1,12.791s20.72-12.269,21.1-12.791A1.409,1.409,0,0,0,42.474,105.626Zm-21.1,11.635c-8.56,0-15.974-8.143-18.169-10.8,2.192-2.664,9.59-10.8,18.169-10.8,8.56,0,15.973,8.142,18.169,10.805C37.35,109.123,29.951,117.261,21.373,117.261Z" transform="translate(0 -92.835)"/>
    </g>
  </g>
  <g id="Group_992" data-name="Group 992" transform="translate(12.918 5.167)">
    <g id="Group_991" data-name="Group 991" transform="translate(0 0)">
      <path id="Path_1378" data-name="Path 1378" d="M163.177,154.725a8.455,8.455,0,1,0,8.455,8.455A8.465,8.465,0,0,0,163.177,154.725Zm0,14.092a5.637,5.637,0,1,1,5.637-5.637A5.643,5.643,0,0,1,163.177,168.817Z" transform="translate(-154.722 -154.725)"/>
    </g>
  </g>
</svg>
