<svg xmlns="http://www.w3.org/2000/svg" viewBox="0 0 56.764 56.764">
  <g id="grid" transform="translate(0 -3)">
    <path id="Path_1643" data-name="Path 1643" d="M25.752,1.281A1.281,1.281,0,0,0,24.471,0H1.281A1.281,1.281,0,0,0,0,1.281v23.19a1.281,1.281,0,0,0,1.281,1.281h23.19a1.281,1.281,0,0,0,1.281-1.281Zm-3.711,20.76H3.711V3.711h18.33Zm0,0" transform="translate(0 3)" fill="#001ce2"/>
    <path id="Path_1666" data-name="Path 1666" d="M25.752,1.281A1.281,1.281,0,0,0,24.471,0H1.281A1.281,1.281,0,0,0,0,1.281v23.19a1.281,1.281,0,0,0,1.281,1.281h23.19a1.281,1.281,0,0,0,1.281-1.281Zm-3.711,20.76H3.711V3.711h18.33Zm0,0" transform="translate(0 34.012)" fill="#001ce2"/>
    <path id="Path_1664" data-name="Path 1664" d="M25.752,1.281A1.281,1.281,0,0,0,24.471,0H1.281A1.281,1.281,0,0,0,0,1.281v23.19a1.281,1.281,0,0,0,1.281,1.281h23.19a1.281,1.281,0,0,0,1.281-1.281Zm-3.711,20.76H3.711V3.711h18.33Zm0,0" transform="translate(31.012 3)" fill="#001ce2"/>
    <path id="Path_1665" data-name="Path 1665" d="M25.752,1.281A1.281,1.281,0,0,0,24.471,0H1.281A1.281,1.281,0,0,0,0,1.281v23.19a1.281,1.281,0,0,0,1.281,1.281h23.19a1.281,1.281,0,0,0,1.281-1.281Zm-3.711,20.76H3.711V3.711h18.33Zm0,0" transform="translate(31.012 34.012)" fill="#001ce2"/>
  </g>
</svg>
