<svg xmlns="http://www.w3.org/2000/svg"  viewBox="0 0 38.813 59.098"><g transform="translate(0 19.709)"><g transform="translate(0)"><path d="M125.3,170.746a1.387,1.387,0,0,0-1.387,1.387V180.8a16.632,16.632,0,0,1-33.264,0v-8.669a1.387,1.387,0,0,0-2.775,0V180.8a19.432,19.432,0,0,0,18.019,19.356v7.2H98.713a1.387,1.387,0,1,0,0,2.775H115.84a1.387,1.387,0,0,0,0-2.775h-7.176v-7.2A19.432,19.432,0,0,0,126.683,180.8v-8.669A1.387,1.387,0,0,0,125.3,170.746Z" transform="translate(-87.87 -170.746)" fill="#001ce2"/></g></g><g transform="translate(6.98)"><g transform="translate(0)"><path d="M161.69,0h-1.849a11.516,11.516,0,0,0-11.5,11.5V30.689a11.516,11.516,0,0,0,11.5,11.5h1.849a11.516,11.516,0,0,0,11.5-11.5V11.5A11.516,11.516,0,0,0,161.69,0Zm8.728,15.1h-5.029a1.387,1.387,0,1,0,0,2.775h5.029v3.862h-5.029a1.387,1.387,0,1,0,0,2.775h5.029v3.862h-5.029a1.387,1.387,0,1,0,0,2.775h5.017a8.738,8.738,0,0,1-8.715,8.265h-1.849a8.738,8.738,0,0,1-8.715-8.265h5.017a1.387,1.387,0,0,0,0-2.775h-5.029V24.515h5.029a1.387,1.387,0,0,0,0-2.775h-5.029V17.879h5.029a1.387,1.387,0,0,0,0-2.775h-5.029V11.5a8.739,8.739,0,0,1,4.946-7.865V7.56a1.387,1.387,0,1,0,2.775,0V2.835c.33-.038,3.531-.038,3.862,0V7.56a1.387,1.387,0,0,0,2.775,0V3.637a8.739,8.739,0,0,1,4.946,7.865Z" transform="translate(-148.338)" fill="#001ce2"/></g></g></svg>