<svg width="24" height="24" viewBox="0 0 24 24" fill="none" xmlns="http://www.w3.org/2000/svg">
<g clip-path="url(#clip0)">
<path d="M23.3433 10.5782C23.2655 10.0907 22.8072 9.75853 22.3197 9.83631C21.8321 9.9141 21.5 10.3724 21.5777 10.86C21.5786 10.8653 21.5795 10.8706 21.5804 10.8759C22.4908 16.235 18.8844 21.3174 13.5253 22.2277C8.16619 23.1381 3.08382 19.5317 2.17345 14.1726C1.26308 8.81353 4.86952 3.73116 10.2286 2.82079C13.5243 2.26095 16.8789 3.41217 19.1363 5.87777L15.1761 7.19723C14.7076 7.35311 14.4543 7.85921 14.6101 8.3277C14.6101 8.32781 14.6102 8.32797 14.6102 8.32807C14.7661 8.79656 15.2722 9.04993 15.7407 8.89409C15.7409 8.89404 15.741 8.89399 15.7411 8.89399L21.1049 7.10609C21.47 6.98446 21.7164 6.64268 21.7163 6.25773V0.893977C21.7163 0.400239 21.3161 0 20.8224 0C20.3286 0 19.9284 0.400239 19.9284 0.893977V4.15958C15.3246 -0.219212 8.04268 -0.0367709 3.66388 4.56705C-0.714915 9.17087 -0.532526 16.4527 4.07135 20.8316C8.67523 25.2104 15.9571 25.028 20.3359 20.4241C22.8328 17.7988 23.9472 14.1507 23.3433 10.5782Z" fill="#888DB1"/>
</g>
<defs>
<clipPath id="clip0">
<rect width="24" height="24" fill="white"/>
</clipPath>
</defs>
</svg>
