<svg xmlns="http://www.w3.org/2000/svg" width="27.81" height="16.119" viewBox="0 0 27.81 16.119">
  <g id="students-cap" transform="translate(0 -166.422)">
    <path id="Path_4843" data-name="Path 4843" d="M168,404.869l-8.3-2.553v4.264c0,1.971,3.715,3.57,8.3,3.57s8.3-1.6,8.3-3.57c0-.016-.005-.031-.005-.046v-4.218Z" transform="translate(-154.092 -227.609)" fill="#686299"/>
    <path id="Path_4844" data-name="Path 4844" d="M0,171.771l2.964,1.06.253-.541,1.089-.093.155.162-.934.222-.136.4s-2.11,4.411-1.8,6.57a2.722,2.722,0,0,0,2.634,0l.35-5.9v-.491l1.96-.442-.138.341-1.461.475.676.241,8.3,2.553,8.3-2.553,5.609-2.006-13.9-5.35Z" transform="translate(0 0)" fill="#686299"/>
  </g>
</svg>
