<svg viewBox="0 0 14 16" fill="none" xmlns="http://www.w3.org/2000/svg">
<path d="M1 3.7998H2.28333H12.55" stroke-linecap="round" stroke-linejoin="round"/>
<path d="M4.20869 3.8V2.4C4.20869 2.0287 4.3439 1.6726 4.58457 1.41005C4.82524 1.1475 5.15166 1 5.49203 1H8.05869C8.39905 1 8.72547 1.1475 8.96615 1.41005C9.20682 1.6726 9.34203 2.0287 9.34203 2.4V3.8M11.267 3.8V13.6C11.267 13.9713 11.1318 14.3274 10.8911 14.5899C10.6505 14.8525 10.3241 15 9.98369 15H3.56702C3.22666 15 2.90024 14.8525 2.65957 14.5899C2.4189 14.3274 2.28369 13.9713 2.28369 13.6V3.8H11.267Z" stroke-linecap="round" stroke-linejoin="round"/>
<path d="M5.49182 7.2998V11.4998" stroke-linecap="round" stroke-linejoin="round"/>
<path d="M8.05811 7.2998V11.4998" stroke-linecap="round" stroke-linejoin="round"/>
</svg>
