<svg xmlns="http://www.w3.org/2000/svg" viewBox="0 0 14.865 18.302">
  <path id="Icon_awesome-twitter" data-name="Icon awesome-twitter" d="M16.421,3.7c.012.163.012.325.012.488A10.6,10.6,0,0,1,5.76,14.865,10.6,10.6,0,0,1,0,13.181a7.76,7.76,0,0,0,.906.046,7.512,7.512,0,0,0,4.657-1.6,3.758,3.758,0,0,1-3.507-2.6,4.73,4.73,0,0,0,.708.058,3.967,3.967,0,0,0,.987-.128A3.752,3.752,0,0,1,.743,5.272V5.226a3.778,3.778,0,0,0,1.7.476A3.757,3.757,0,0,1,1.277.685,10.662,10.662,0,0,0,9.012,4.61a4.235,4.235,0,0,1-.093-.859,3.755,3.755,0,0,1,6.492-2.567A7.385,7.385,0,0,0,17.791.279a3.741,3.741,0,0,1-1.649,2.067,7.52,7.52,0,0,0,2.16-.581A8.063,8.063,0,0,1,16.421,3.7Z" transform="translate(14.865) rotate(90)" fill="#28404a"/>
</svg>
