<svg id="upload" xmlns="http://www.w3.org/2000/svg"  viewBox="0 0 61.182 61.182">
  <defs>
    <style>
      .cls-1 {
        fill: #001ce2;
      }
    </style>
  </defs>
  <g id="Group_254" data-name="Group 254" transform="translate(18.044 50.427)">
    <g id="Group_253" data-name="Group 253">
      <path id="Path_282" data-name="Path 282" class="cls-1" d="M174.3,422a1.792,1.792,0,0,0-1.792,1.792v3.585a1.794,1.794,0,0,1-1.792,1.792H156.377a1.794,1.794,0,0,1-1.792-1.792v-3.585a1.792,1.792,0,0,0-3.585,0v3.585a5.383,5.383,0,0,0,5.377,5.377h14.339a5.383,5.383,0,0,0,5.377-5.377v-3.585A1.792,1.792,0,0,0,174.3,422Z" transform="translate(-151 -422)"/>
    </g>
  </g>
  <g id="Group_256" data-name="Group 256" transform="translate(0)">
    <g id="Group_255" data-name="Group 255">
      <path id="Path_283" data-name="Path 283" class="cls-1" d="M50.238,18.159A19.765,19.765,0,0,0,44.533,5.847a19.545,19.545,0,0,0-27.883,0,19.763,19.763,0,0,0-5.7,12.313,12.54,12.54,0,0,0,1.721,24.978H25.214v5.5a5.377,5.377,0,1,0,10.755,0v-5.5H48.515a12.541,12.541,0,0,0,1.723-24.979ZM35.443,30.808a1.794,1.794,0,0,0-3.06,1.267v16.56h0a1.792,1.792,0,1,1-3.585,0V32.075a1.793,1.793,0,0,0-1.792-1.792c-.912,0-1.26.517-2.318,1.575a1.792,1.792,0,1,1-2.534-2.534l7.17-7.17a1.79,1.79,0,0,1,2.534,0l7.17,7.17a1.792,1.792,0,0,1-2.534,2.534Zm13.072,8.745H35.968v-3.89a5.379,5.379,0,0,0,5.594-8.875l-7.17-7.17a5.383,5.383,0,0,0-7.6,0l-7.17,7.17a5.377,5.377,0,0,0,5.595,8.871v3.893H12.667a8.991,8.991,0,1,1,5-16.4,1.792,1.792,0,0,0,2-2.974,12.466,12.466,0,0,0-5.122-1.992,16.121,16.121,0,0,1,32.1,0,12.531,12.531,0,0,0-4.1,1.371,1.792,1.792,0,1,0,1.71,3.151,8.988,8.988,0,1,1,4.268,16.845Z" transform="translate(0)"/>
    </g>
  </g>
</svg>
