<svg id="eye_3_" data-name="eye (3)" xmlns="http://www.w3.org/2000/svg" width="30.762" height="19.607" viewBox="0 0 30.762 19.607">
  <g id="Group_1321" data-name="Group 1321" transform="translate(0)">
    <g id="Group_1320" data-name="Group 1320">
      <path id="Path_1621" data-name="Path 1621" d="M30.567,102.04c-.275-.376-6.823-9.205-15.186-9.205S.47,101.664.2,102.04a1.015,1.015,0,0,0,0,1.2c.275.376,6.823,9.205,15.186,9.205s14.911-8.829,15.186-9.2A1.014,1.014,0,0,0,30.567,102.04Zm-15.186,8.373c-6.16,0-11.5-5.86-13.075-7.776,1.577-1.917,6.9-7.774,13.075-7.774s11.5,5.859,13.075,7.776C26.879,104.556,21.555,110.414,15.381,110.414Z" transform="translate(0 -92.835)" fill="#c9cff8"/>
    </g>
  </g>
  <g id="Group_1323" data-name="Group 1323" transform="translate(9.296 3.719)">
    <g id="Group_1322" data-name="Group 1322" transform="translate(0 0)">
      <path id="Path_1622" data-name="Path 1622" d="M160.807,154.725a6.085,6.085,0,1,0,6.085,6.085A6.092,6.092,0,0,0,160.807,154.725Zm0,10.141a4.057,4.057,0,1,1,4.057-4.057A4.061,4.061,0,0,1,160.807,164.867Z" transform="translate(-154.722 -154.725)" fill="#c9cff8"/>
    </g>
  </g>
</svg>
