<svg xmlns="http://www.w3.org/2000/svg" viewBox="0 0 24.335 39.543"><g transform="translate(0)"><path d="M38.132,29.983a7.07,7.07,0,0,0,7.062-7.061V7.061a7.062,7.062,0,0,0-14.123,0V22.922A7.069,7.069,0,0,0,38.132,29.983Z" transform="translate(-25.965)" fill="#001ce2"/><path d="M42.105,45.715H40.7a.818.818,0,0,0-.818.818v2.875a9.126,9.126,0,1,1-18.251,0V46.533a.818.818,0,0,0-.818-.818H19.406a.818.818,0,0,0-.818.818v2.875a12.341,12.341,0,0,0,10.646,12.07v2.037H22.955a.818.818,0,0,0-.818.818v1.406a.818.818,0,0,0,.818.818h15.6a.818.818,0,0,0,.818-.818V64.334a.818.818,0,0,0-.818-.818h-6.28V61.478a12.34,12.34,0,0,0,10.646-12.07V46.533A.818.818,0,0,0,42.105,45.715Z" transform="translate(-18.588 -27.014)" fill="#001ce2"/></g></svg>