<svg width="21" height="18" viewBox="0 0 21 18" fill="none" xmlns="http://www.w3.org/2000/svg">
<path d="M20.125 8.10012H2.66919L9.35331 1.5518C9.70331 1.2089 9.71688 0.639212 9.3835 0.279216C9.05056 -0.0803296 8.49669 -0.0947295 8.14625 0.248166L0.51275 7.72708C0.182437 8.06727 0 8.51907 0 9.00011C0 9.4807 0.182437 9.93295 0.528062 10.288L8.14669 17.7516C8.316 17.9177 8.533 18 8.75 18C8.981 18 9.212 17.9064 9.38394 17.7206C9.71731 17.3606 9.70375 16.7913 9.35375 16.4484L2.64162 9.9001H20.125C20.608 9.9001 21 9.4969 21 9.00011C21 8.50332 20.608 8.10012 20.125 8.10012Z" fill="white"/>
</svg>
