<svg width="160" height="44" viewBox="0 0 160 44" fill="none" xmlns="http://www.w3.org/2000/svg">
<g clip-path="url(#clip0)">
<path d="M59.4527 9.41943H50.6834C50.393 9.41925 50.1122 9.52443 49.8915 9.71603C49.6707 9.90763 49.5245 10.1731 49.4793 10.4645L45.9326 33.3157C45.9163 33.4217 45.9228 33.5301 45.9517 33.6334C45.9805 33.7366 46.0311 33.8323 46.0998 33.9137C46.1685 33.9952 46.2538 34.0606 46.3498 34.1054C46.4458 34.1502 46.5502 34.1733 46.6558 34.1731H50.8424C51.1329 34.1732 51.4138 34.0679 51.6346 33.876C51.8554 33.6841 52.0014 33.4184 52.0464 33.1268L53.003 26.9634C53.0479 26.672 53.1937 26.4065 53.4142 26.2146C53.6348 26.0228 53.9154 25.9173 54.2057 25.9171H56.9818C62.7584 25.9171 66.0923 23.0765 66.9629 17.4474C67.3553 14.9847 66.9796 13.0497 65.8448 11.6945C64.5984 10.2065 62.3878 9.41943 59.4527 9.41943ZM60.4644 17.7653C59.9849 20.963 57.5806 20.963 55.2559 20.963H53.9326L54.861 14.9912C54.8881 14.8165 54.9758 14.6574 55.1081 14.5425C55.2405 14.4276 55.4088 14.3644 55.5829 14.3644H56.1894C57.773 14.3644 59.2668 14.3644 60.0387 15.2818C60.499 15.829 60.6401 16.6421 60.4644 17.7653ZM85.6659 17.6624H81.4665C81.2925 17.6624 81.1241 17.7255 80.9918 17.8404C80.8594 17.9553 80.7718 18.1144 80.7446 18.2892L80.5587 19.4827L80.2651 19.0501C79.3559 17.7093 77.3287 17.2611 75.3053 17.2611C70.6648 17.2611 66.7013 20.8327 65.9294 25.8428C65.5281 28.342 66.0987 30.7318 67.4938 32.3984C68.7735 33.9307 70.6045 34.5692 72.7831 34.5692C76.5221 34.5692 78.5956 32.126 78.5956 32.126L78.4083 33.3118C78.3917 33.4178 78.3978 33.5262 78.4263 33.6296C78.4548 33.733 78.5051 33.8289 78.5736 33.9106C78.6421 33.9923 78.7272 34.058 78.8231 34.1031C78.919 34.1482 79.0233 34.1716 79.129 34.1718H82.9116C83.2021 34.1719 83.4831 34.0666 83.7039 33.8747C83.9247 33.6828 84.0707 33.4171 84.1157 33.1255L86.3853 18.5198C86.402 18.414 86.3959 18.3058 86.3674 18.2027C86.3389 18.0995 86.2888 18.0039 86.2204 17.9223C86.152 17.8408 86.067 17.7754 85.9713 17.7305C85.8755 17.6856 85.7713 17.6624 85.6659 17.6624ZM79.8124 25.9679C79.4072 28.4059 77.5031 30.0425 75.0745 30.0425C73.855 30.0425 72.8805 29.6451 72.2548 28.8919C71.6342 28.144 71.3982 27.0794 71.5957 25.8936C71.974 23.4765 73.9102 21.7865 76.3016 21.7865C77.4941 21.7865 78.4635 22.1891 79.102 22.9488C79.7419 23.7163 79.9958 24.7874 79.8124 25.9679ZM108.031 17.6624H103.811C103.612 17.6627 103.416 17.7124 103.24 17.8071C103.064 17.9018 102.914 18.0386 102.802 18.2058L96.9818 26.9178L94.5148 18.5459C94.4391 18.2905 94.2844 18.0667 94.0738 17.9076C93.8632 17.7485 93.6078 17.6625 93.3454 17.6624H89.1985C89.0821 17.6621 88.9673 17.69 88.8637 17.7439C88.7601 17.7978 88.6706 17.876 88.6028 17.9721C88.5349 18.0683 88.4906 18.1794 88.4736 18.2965C88.4565 18.4135 88.4673 18.5329 88.5048 18.6449L93.153 32.5065L88.7831 38.7754C88.7054 38.8866 88.6594 39.0173 88.6499 39.1533C88.6405 39.2892 88.6681 39.4252 88.7297 39.5463C88.7913 39.6674 88.8844 39.769 88.999 39.8399C89.1136 39.9107 89.2452 39.9482 89.3793 39.9481H93.5941C93.7909 39.9484 93.9848 39.9002 94.1592 39.8076C94.3337 39.715 94.4834 39.5808 94.5956 39.4165L108.631 18.8286C108.707 18.7172 108.752 18.5868 108.76 18.4515C108.769 18.3162 108.74 18.1811 108.678 18.061C108.617 17.9408 108.524 17.8402 108.409 17.7699C108.295 17.6996 108.164 17.6625 108.031 17.6624Z" fill="#253B80"/>
<path d="M122.004 9.41927H113.233C112.943 9.4194 112.662 9.52472 112.442 9.71629C112.221 9.90786 112.076 10.1731 112.03 10.4643L108.484 33.3155C108.467 33.4214 108.473 33.5296 108.502 33.6328C108.531 33.7359 108.581 33.8315 108.649 33.913C108.718 33.9945 108.803 34.06 108.899 34.1048C108.995 34.1497 109.099 34.1729 109.204 34.1729H113.705C113.908 34.1726 114.104 34.0987 114.258 33.9645C114.413 33.8302 114.515 33.6445 114.546 33.4406L115.553 26.9633C115.598 26.6718 115.743 26.4063 115.964 26.2145C116.184 26.0226 116.465 25.9171 116.755 25.9169H119.53C125.308 25.9169 128.641 23.0763 129.513 17.4472C129.906 14.9845 129.528 13.0495 128.393 11.6944C127.148 10.2063 124.939 9.41927 122.004 9.41927ZM123.015 17.7652C122.537 20.9628 120.133 20.9628 117.807 20.9628H116.485L117.415 14.991C117.441 14.8163 117.528 14.6571 117.661 14.5421C117.793 14.4271 117.961 14.3641 118.135 14.3643H118.742C120.324 14.3643 121.819 14.3643 122.591 15.2816C123.051 15.8289 123.191 16.642 123.015 17.7652ZM148.216 17.6622H144.019C143.845 17.6618 143.676 17.7247 143.544 17.8398C143.412 17.9548 143.325 18.1142 143.298 18.289L143.112 19.4826L142.817 19.05C141.908 17.7092 139.882 17.2609 137.859 17.2609C133.218 17.2609 129.256 20.8325 128.484 25.8427C128.084 28.3419 128.652 30.7316 130.047 32.3982C131.33 33.9306 133.158 34.5691 135.337 34.5691C139.076 34.5691 141.149 32.1259 141.149 32.1259L140.962 33.3116C140.945 33.4179 140.951 33.5265 140.98 33.6301C141.009 33.7336 141.059 33.8296 141.128 33.9114C141.197 33.9932 141.282 34.0588 141.378 34.1038C141.475 34.1487 141.579 34.1719 141.685 34.1716H145.466C145.757 34.1715 146.037 34.066 146.258 33.8741C146.478 33.6823 146.624 33.4167 146.669 33.1253L148.94 18.5196C148.956 18.4135 148.95 18.3051 148.92 18.2019C148.891 18.0987 148.841 18.003 148.772 17.9216C148.703 17.8401 148.618 17.7748 148.522 17.73C148.426 17.6852 148.321 17.6621 148.216 17.6622ZM142.362 25.9678C141.96 28.4057 140.053 30.0423 137.624 30.0423C136.407 30.0423 135.43 29.6449 134.804 28.8918C134.184 28.1438 133.951 27.0792 134.145 25.8935C134.526 23.4764 136.46 21.7863 138.851 21.7863C140.044 21.7863 141.013 22.189 141.652 22.9486C142.294 23.7161 142.548 24.7872 142.362 25.9678ZM153.166 10.046L149.567 33.3155C149.551 33.4214 149.557 33.5296 149.586 33.6328C149.614 33.7359 149.664 33.8315 149.733 33.913C149.801 33.9945 149.887 34.06 149.982 34.1048C150.078 34.1497 150.182 34.1729 150.288 34.1729H153.906C154.508 34.1729 155.018 33.7299 155.11 33.1266L158.66 10.2767C158.676 10.1707 158.67 10.0625 158.641 9.95925C158.613 9.85603 158.562 9.76034 158.494 9.67875C158.425 9.59716 158.34 9.5316 158.245 9.48658C158.149 9.44157 158.045 9.41816 157.939 9.41797H153.887C153.713 9.41859 153.545 9.48214 153.413 9.59723C153.281 9.71231 153.194 9.87141 153.166 10.046Z" fill="#179BD7"/>
<path d="M9.515 38.6137L10.1856 34.2851L8.6918 34.2499H1.55859L6.5158 2.30869C6.53056 2.2111 6.57934 2.12214 6.65325 2.05804C6.72715 1.99394 6.82127 1.95896 6.91843 1.95948H18.946C22.939 1.95948 25.6945 2.80384 27.1332 4.47042C27.8077 5.25224 28.2373 6.06924 28.445 6.96833C28.663 7.91172 28.6668 9.03884 28.454 10.4135L28.4386 10.5139V11.3947L29.113 11.783C29.6279 12.0481 30.0908 12.4067 30.4786 12.8411C31.0557 13.5095 31.4288 14.3591 31.5865 15.3664C31.7494 16.4023 31.6955 17.6349 31.4288 19.0305C31.1211 20.6358 30.6235 22.034 29.9516 23.178C29.3588 24.2029 28.5617 25.0906 27.6115 25.7841C26.7191 26.4278 25.6586 26.9164 24.4597 27.2291C23.298 27.5367 21.9734 27.6917 20.5206 27.6917H19.5846C18.9152 27.6917 18.2651 27.9367 17.7548 28.3758C17.2452 28.8196 16.9071 29.4328 16.8008 30.1062L16.7303 30.4958L15.5455 38.1251L15.4916 38.4052C15.4775 38.4938 15.4531 38.5381 15.4172 38.5681C15.3825 38.597 15.3391 38.6131 15.2941 38.6137H9.515Z" fill="#253B80"/>
<path d="M29.7532 10.6152C29.7173 10.8485 29.6763 11.0869 29.6301 11.3319C28.0439 19.6074 22.6174 22.4663 15.6868 22.4663H12.158C11.3105 22.4663 10.5962 23.0917 10.4642 23.9413L8.65747 35.5852L8.14585 38.8858C8.12547 39.0167 8.13325 39.1506 8.16866 39.2781C8.20407 39.4057 8.26626 39.524 8.35096 39.6248C8.43565 39.7256 8.54084 39.8065 8.65928 39.8621C8.77771 39.9176 8.90659 39.9464 9.03702 39.9464H15.2957C16.0369 39.9464 16.6665 39.3992 16.7831 38.6564L16.8447 38.3333L18.0231 30.734L18.0987 30.3171C18.2141 29.5717 18.845 29.0244 19.5862 29.0244H20.5222C26.586 29.0244 31.3329 26.5226 32.7203 19.283C33.2999 16.2587 32.9999 13.7334 31.4663 11.9574C30.9802 11.4079 30.3997 10.9531 29.7532 10.6152Z" fill="#179BD7"/>
<path d="M28.0946 9.94278C27.5882 9.7939 27.0729 9.6777 26.5521 9.59487C25.5228 9.43413 24.4826 9.35701 23.4413 9.36423H14.0141C13.6554 9.36395 13.3083 9.49411 13.0358 9.73118C12.7632 9.96825 12.5831 10.2966 12.528 10.6568L10.5225 23.5647L10.4648 23.9412C10.5273 23.5303 10.7325 23.1557 11.0431 22.8852C11.3538 22.6146 11.7496 22.466 12.1587 22.4662H15.6875C22.6181 22.4662 28.0446 19.6061 29.6308 11.3318C29.6782 11.0868 29.718 10.8484 29.7539 10.6151C29.3353 10.3921 28.8991 10.2051 28.4498 10.0561C28.332 10.0164 28.2136 9.97863 28.0946 9.94278Z" fill="#222D65"/>
<path d="M12.5267 10.657C12.5814 10.2967 12.7614 9.96818 13.0341 9.73123C13.3068 9.49428 13.6541 9.3646 14.0129 9.36573H23.44C24.5569 9.36573 25.5994 9.44 26.5508 9.59636C27.1946 9.69919 27.8296 9.85298 28.4498 10.0563C28.9178 10.214 29.3525 10.4003 29.7539 10.6153C30.2257 7.55712 29.75 5.47488 28.1228 3.58939C26.329 1.51367 23.0913 0.625 18.9483 0.625H6.9207C6.07441 0.625 5.3525 1.25045 5.22171 2.10133L0.211926 34.3709C0.188591 34.5207 0.197469 34.6739 0.237949 34.8199C0.278429 34.9659 0.349551 35.1012 0.446421 35.2166C0.543292 35.332 0.663613 35.4248 0.799107 35.4884C0.934601 35.552 1.08205 35.5851 1.23132 35.5853H8.65688L10.5213 23.5648L12.5267 10.657Z" fill="#253B80"/>
</g>
<defs>
<clipPath id="clip0">
<rect width="159" height="43" fill="white" transform="translate(0.199219 0.625)"/>
</clipPath>
</defs>
</svg>
