<svg width="123" height="51" viewBox="0 0 123 51" fill="none" xmlns="http://www.w3.org/2000/svg">
<g clip-path="url(#clip0)">
<path d="M8.77311 20.1307C8.77311 18.8348 9.85755 18.3363 11.6537 18.3363C14.2292 18.3363 17.4826 19.1006 20.0581 20.463V12.6541C17.2453 11.5575 14.4664 11.1255 11.6537 11.1255C4.77422 11.1255 0.199219 14.6478 0.199219 20.5295C0.199219 29.7008 13.077 28.2387 13.077 32.193C13.077 33.7216 11.7214 34.22 9.82366 34.22C7.01089 34.22 3.41866 33.0902 0.571997 31.5617V39.4703C3.72366 40.7995 6.90922 41.3644 9.82366 41.3644C16.8726 41.3644 21.7187 37.9417 21.7187 31.9936C21.6848 22.0913 8.77311 23.8524 8.77311 20.1307ZM31.682 4.47962L23.4131 6.20755L23.3792 32.8244C23.3792 37.7423 27.1409 41.3644 32.1564 41.3644C34.9353 41.3644 36.9687 40.8659 38.087 40.2678V33.5222C37.0026 33.9542 31.6481 35.4827 31.6481 30.5648V18.7683H38.087V11.6904H31.6481L31.682 4.47962ZM48.6264 14.1494L48.0842 11.6904H40.7642V40.7662H49.2364V21.0611C51.2359 18.5025 54.6248 18.9677 55.6753 19.3332V11.6904C54.5909 11.2917 50.6259 10.5606 48.6264 14.1494ZM57.7425 11.6904H66.2487V40.7662H57.7425V11.6904ZM57.7425 9.16498L66.2487 7.37059V0.625L57.7425 2.38616V9.16498ZM83.9387 11.1255C80.6176 11.1255 78.4826 12.6541 77.2964 13.7174L76.8559 11.6572H69.4003V50.4028L77.8726 48.6416L77.9064 39.2377C79.1264 40.1016 80.9225 41.3311 83.9048 41.3311C89.9709 41.3311 95.4948 36.5461 95.4948 26.0123C95.4609 16.3758 89.8692 11.1255 83.9387 11.1255ZM81.9053 34.0206C79.9059 34.0206 78.7198 33.3228 77.9064 32.4589L77.8726 20.1307C78.7537 19.1671 79.9737 18.5025 81.9053 18.5025C84.9892 18.5025 87.1242 21.8919 87.1242 26.2449C87.1242 30.6977 85.0231 34.0206 81.9053 34.0206ZM122.199 26.3446C122.199 17.8379 117.997 11.1255 109.965 11.1255C101.9 11.1255 97.0198 17.8379 97.0198 26.2782C97.0198 36.2802 102.781 41.3311 111.05 41.3311C115.083 41.3311 118.133 40.4339 120.437 39.1712V32.5253C118.133 33.6551 115.489 34.3529 112.134 34.3529C108.847 34.3529 105.933 33.2231 105.56 29.3021H122.131C122.131 28.8701 122.199 27.1421 122.199 26.3446ZM105.458 23.1878C105.458 19.4329 107.796 17.8711 109.931 17.8711C111.999 17.8711 114.201 19.4329 114.201 23.1878H105.458Z" fill="#6772E5"/>
</g>
<defs>
<clipPath id="clip0">
<rect width="122" height="50" fill="white" transform="translate(0.199219 0.625)"/>
</clipPath>
</defs>
</svg>
