<svg xmlns="http://www.w3.org/2000/svg" width="92.89" height="92.89" viewBox="0 0 92.89 92.89">
  <g id="Group_4" data-name="Group 4" transform="translate(92.89 34) rotate(120)">
    <path id="Path_6" data-name="Path 6" d="M0,0H68V68H0Z" fill="none"/>
    <path id="Path_7" data-name="Path 7" d="M28.123,2a2.833,2.833,0,0,1,2.833,2.833v8.5a2.833,2.833,0,1,1-5.667,0v-8.5A2.833,2.833,0,0,1,28.123,2Zm0,42.5a2.833,2.833,0,0,1,2.833,2.833v8.5a2.833,2.833,0,0,1-5.667,0v-8.5A2.833,2.833,0,0,1,28.123,44.5ZM52.659,16.167a2.833,2.833,0,0,1-1.037,3.87l-7.361,4.25a2.833,2.833,0,1,1-2.833-4.907l7.361-4.25A2.833,2.833,0,0,1,52.659,16.167Zm-36.8,21.25a2.833,2.833,0,0,1-1.037,3.87l-7.361,4.25A2.833,2.833,0,1,1,4.623,40.63l7.361-4.25a2.833,2.833,0,0,1,3.87,1.037Zm36.8,7.083a2.833,2.833,0,0,1-3.87,1.037l-7.361-4.25a2.833,2.833,0,1,1,2.833-4.907l7.361,4.25a2.833,2.833,0,0,1,1.037,3.87Zm-36.8-21.25a2.833,2.833,0,0,1-3.87,1.037l-7.361-4.25A2.833,2.833,0,1,1,7.456,15.13l7.361,4.25A2.833,2.833,0,0,1,15.854,23.25Z" transform="translate(5.877 3.667)" fill="#4874f8"/>
  </g>
</svg>
