<svg xmlns="http://www.w3.org/2000/svg" width="42.71" height="42.495" viewBox="0 0 42.71 42.495">
  <g id="edit_3_" data-name="edit (3)" transform="translate(0 -0.261)">
    <path id="Path_1665" data-name="Path 1665" d="M39.419,61.7a1.064,1.064,0,0,0-1.064,1.064v9.444A3.194,3.194,0,0,1,35.165,75.4H5.318a3.194,3.194,0,0,1-3.191-3.191V44.49A3.2,3.2,0,0,1,5.318,41.3h9.444a1.064,1.064,0,0,0,0-2.127H5.318A5.324,5.324,0,0,0,0,44.49V72.21a5.324,5.324,0,0,0,5.318,5.318H35.165a5.324,5.324,0,0,0,5.318-5.318V62.765A1.064,1.064,0,0,0,39.419,61.7Zm0,0" transform="translate(0 -34.772)" fill="#081fe2"/>
    <path id="Path_1666" data-name="Path 1666" d="M136.743,1.663a4.787,4.787,0,0,0-6.769,0L111,20.64a1.063,1.063,0,0,0-.273.468l-2.5,9.009a1.063,1.063,0,0,0,1.309,1.309l9.009-2.5a1.063,1.063,0,0,0,.468-.273L137.992,9.68a4.792,4.792,0,0,0,0-6.769ZM113.315,21.331,128.846,5.8l5.009,5.009L118.323,26.34Zm-1,2.008,4,4-5.535,1.534ZM136.488,8.176,135.359,9.3,130.35,4.295l1.129-1.128a2.659,2.659,0,0,1,3.76,0l1.249,1.248A2.663,2.663,0,0,1,136.488,8.176Zm0,0" transform="translate(-96.682)" fill="#081fe2"/>
  </g>
</svg>
