<svg xmlns="http://www.w3.org/2000/svg"  viewBox="0 0 59.069 59.069"><g transform="translate(0 0)"><g transform="translate(0 0)"><path d="M47.993,20.3V12.921a1.846,1.846,0,0,0-.535-1.311L36.383.535A1.846,1.846,0,0,0,35.072,0H5.538A5.538,5.538,0,0,0,0,5.537V53.531a5.538,5.538,0,0,0,5.538,5.538H18.459V55.376H5.538a1.846,1.846,0,0,1-1.846-1.846V5.537A1.846,1.846,0,0,1,5.538,3.692H33.226v7.384a3.692,3.692,0,0,0,3.692,3.692H44.3V20.3Z" transform="translate(0 0)" fill="#001ce2"/><path d="M281.229,256h-7.384A1.846,1.846,0,0,0,272,257.846v16.613h3.692v-5.538h5.538a3.692,3.692,0,0,0,3.692-3.692v-5.538A3.692,3.692,0,0,0,281.229,256Zm0,9.229h-5.538v-5.538h5.538Z" transform="translate(-240.62 -226.466)" fill="#001ce2"/><path d="M141.622,256.065a1.846,1.846,0,0,0-2.012.406l-4.227,4.227-4.227-4.246A1.846,1.846,0,0,0,128,257.764v16.613h3.692V262.212l2.381,2.381a1.846,1.846,0,0,0,2.6,0l2.4-2.381v12.164h3.692V257.764A1.846,1.846,0,0,0,141.622,256.065Z" transform="translate(-113.233 -226.383)" fill="#001ce2"/><path d="M412.921,261.538A5.538,5.538,0,0,0,407.384,256H400v3.692h7.384a1.846,1.846,0,1,1,0,3.692H400v3.692h7.384a1.846,1.846,0,1,1,0,3.692H400v3.692h7.384a5.538,5.538,0,0,0,4.1-9.229A5.537,5.537,0,0,0,412.921,261.538Z" transform="translate(-353.853 -226.466)" fill="#001ce2"/></g></g></svg>