<svg xmlns="http://www.w3.org/2000/svg" viewBox="0 0 42.927 48.777">
  <g id="Group_1359" data-name="Group 1359" transform="translate(0)">
    <path id="Path_1510" data-name="Path 1510" d="M41.974,19.69H9.472l31.219-9.044a.953.953,0,0,0,.65-1.18l-1.634-5.64A5.333,5.333,0,0,0,34.607,0a5.278,5.278,0,0,0-1.467.209L3.828,8.7A5.314,5.314,0,0,0,.21,15.267l1.6,5.51v22.7a5.308,5.308,0,0,0,5.3,5.3H18.556a.953.953,0,0,0,0-1.905H7.108a3.4,3.4,0,0,1-3.4-3.4V30.511h37.31V43.475a3.4,3.4,0,0,1-3.4,3.4H26.177a.953.953,0,0,0,0,1.905H37.625a5.308,5.308,0,0,0,5.3-5.3V20.642A.953.953,0,0,0,41.974,19.69Zm-16.8,8.916,4.048-7.01h5.265l-4.047,7.01Zm-7.465,0,4.048-7.01h5.265l-4.047,7.01Zm-7.465,0,4.047-7.01h5.265l-4.048,7.01Zm3.542-12.333L7.009,9.762l5.079-1.471a.945.945,0,0,0,.125.147l6.778,6.51-5.079,1.471A.948.948,0,0,0,13.788,16.272ZM26.554,4.284l6.778,6.51-5.079,1.471a.928.928,0,0,0-.125-.147L21.35,5.608l5.079-1.471A.945.945,0,0,0,26.554,4.284Zm-7.17,2.077,6.778,6.51-5.079,1.471a.928.928,0,0,0-.125-.147l-6.778-6.51,5.079-1.471A1.006,1.006,0,0,0,19.383,6.361ZM33.67,2.039a3.368,3.368,0,0,1,.937-.134,3.418,3.418,0,0,1,3.27,2.451l1.369,4.724-3.822,1.107a.968.968,0,0,0-.125-.147L28.52,3.531ZM2.332,12.156A3.371,3.371,0,0,1,4.358,10.53l.56-.162a.969.969,0,0,0,.125.147l6.778,6.51L3.409,19.462,2.041,14.738A3.372,3.372,0,0,1,2.332,12.156ZM3.712,21.6h8.381l-4.047,7.01H3.712Zm28.929,7.01,4.047-7.01h4.334v7.01Zm0,0" fill="#001ce2" fill-rule="evenodd" />
    <path id="Path_1511" data-name="Path 1511" d="M206.342,350.176a.952.952,0,0,0-.476-.825l-8.37-4.832a.953.953,0,0,0-1.429.825v9.665a.952.952,0,0,0,1.429.825l8.37-4.832A.952.952,0,0,0,206.342,350.176Zm-8.37,3.182v-6.364l5.512,3.182Zm0,0" transform="translate(-177.387 -311.582)" fill="#001ce2" fill-rule="evenodd" />
    <path id="Path_1512" data-name="Path 1512" d="M225.726,492a.953.953,0,1,0,.953.953A.955.955,0,0,0,225.726,492Zm0,0" transform="translate(-203.359 -445.128)" fill="#001ce2" fill-rule="evenodd" />
  </g>
</svg>