<svg width="20" height="16" viewBox="0 0 20 16" fill="none" xmlns="http://www.w3.org/2000/svg">
<g clip-path="url(#clip0)">
<path d="M12.0417 10.6077C11.7388 10.9096 11.2375 10.9096 10.9347 10.6077C10.6318 10.3058 10.6318 9.80613 10.9347 9.50424C11.7702 8.67145 11.7702 7.31817 10.9347 6.49579C10.6318 6.1939 10.6318 5.69422 10.9347 5.39234C11.0913 5.23619 11.2898 5.16332 11.4882 5.16332C11.6866 5.16332 11.8851 5.23619 12.0417 5.39234C13.4934 6.8289 13.4934 9.17113 12.0417 10.6077Z" fill="#2BF1E9"/>
<path d="M14.3395 12.8979C14.0366 13.1997 13.5353 13.1997 13.2324 12.8979C12.9295 12.596 12.9295 12.0963 13.2324 11.7944C15.3316 9.70201 15.3316 6.29798 13.2324 4.20559C12.9295 3.9037 12.9295 3.40403 13.2324 3.10214C13.3891 2.94599 13.5875 2.87312 13.7859 2.87312C13.9844 2.87312 14.1828 2.94599 14.3395 3.10214C17.0549 5.80871 17.0549 10.2017 14.3395 12.8979Z" fill="#2BF1E9"/>
<path d="M16.9087 15.4586C16.6058 15.7605 16.1045 15.7605 15.8016 15.4586C15.4987 15.1568 15.4987 14.6571 15.8016 14.3552C17.504 12.6584 18.4439 10.3994 18.4439 8.00516C18.4439 5.61089 17.504 3.35194 15.8016 1.65513C15.4987 1.35324 15.4987 0.853568 15.8016 0.551681C15.9583 0.395533 16.1567 0.322662 16.3551 0.322662C16.5536 0.322662 16.752 0.395533 16.9087 0.551681C18.9034 2.53997 20.0105 5.19449 20.0105 8.00516C20 10.8158 18.9034 13.4599 16.9087 15.4586Z" fill="#2BF1E9"/>
<path d="M8.87728 15.9261C8.5953 16.051 8.27154 16.0094 8.04178 15.8116L3.06005 11.5436H0.78329C0.355091 11.5436 0 11.1896 0 10.7628V5.23516C0 4.80836 0.355091 4.45442 0.78329 4.45442H3.06005L8.04178 0.186369C8.18799 0.06145 8.36553 -0.00100899 8.55352 -0.00100899C8.66841 -0.00100899 8.77285 0.0198097 8.87728 0.0718594C9.15927 0.196778 9.33681 0.477845 9.33681 0.779733V15.2183C9.32637 15.5201 9.14882 15.8012 8.87728 15.9261ZM1.56658 9.98207H2.56919V6.01591H1.56658V9.98207ZM7.75979 2.48695L4.13577 5.5891V10.4089L7.77024 13.5214V2.48695H7.75979Z" fill="#2BF1E9"/>
</g>
<defs>
<clipPath id="clip0">
<rect width="20" height="16" fill="white" transform="matrix(1 0 0 -1 0 16)"/>
</clipPath>
</defs>
</svg>
