<svg width="19" height="19" viewBox="0 0 19 19" fill="none" xmlns="http://www.w3.org/2000/svg">
<path d="M12.468 10.093H6.53203C6.20294 10.093 5.93905 10.36 5.93905 10.6859C5.93905 11.0119 6.20605 11.2789 6.53203 11.2789H12.4711C12.8002 11.2789 13.0641 11.0119 13.0641 10.6859C13.0641 10.36 12.7971 10.093 12.468 10.093ZM13.657 6.53203H5.34297C5.01389 6.53203 4.75 6.79902 4.75 7.125C4.75 7.45098 5.01699 7.71797 5.34297 7.71797H13.657C13.9861 7.71797 14.25 7.45098 14.25 7.125C14.25 6.79902 13.983 6.53203 13.657 6.53203ZM9.5 0C4.25327 0 0 3.72239 0 8.31405C0 10.9374 1.39085 13.2752 3.56405 14.7964V19L7.72418 16.476C8.30163 16.5722 8.8915 16.625 9.5 16.625C14.7467 16.625 19 12.9026 19 8.31095C19 3.71928 14.7467 0 9.5 0ZM9.5 15.4391C8.80768 15.4391 8.13709 15.3583 7.49444 15.2217L4.70033 16.9013L4.73758 14.1475C2.59543 12.8592 1.18905 10.7294 1.18905 8.31405C1.18905 4.37745 4.90833 1.18905 9.5 1.18905C14.0917 1.18905 17.8141 4.37745 17.8141 8.31405C17.8141 12.2507 14.0917 15.4391 9.5 15.4391Z" fill="#2BF1E9"/>
</svg>
