<svg width="30" height="23" viewBox="0 0 30 23" fill="none" xmlns="http://www.w3.org/2000/svg">
<g clip-path="url(#clip0)">
<path opacity="0.85" d="M24.5916 6.12268H18.3634V4.62154H24.5909V6.12268H24.5916ZM15.075 12.2749C15.4928 12.936 15.7022 13.7012 15.6775 14.4762C15.6918 15.3218 15.4531 16.1533 14.9901 16.8699C14.6818 17.366 14.2699 17.7939 13.7809 18.1262C13.2918 18.4585 12.7364 18.6877 12.1505 18.7993C11.4318 18.9383 10.7004 19.0056 9.96758 19.0002H3V4.00305H10.4668C12.3489 4.03217 13.6834 4.56118 14.4718 5.60076C14.9543 6.27068 15.2022 7.07321 15.179 7.8901C15.22 8.68533 14.9666 9.4686 14.4645 10.0985C14.136 10.4576 13.7352 10.7476 13.2867 10.9506C14.0179 11.1857 14.6466 11.652 15.0721 12.2749H15.075ZM6.56651 9.91457H9.83874C10.4085 9.93854 10.9741 9.8098 11.4734 9.54249C11.6908 9.39768 11.8639 9.19857 11.9744 8.96621C12.0848 8.73385 12.1285 8.47687 12.1007 8.22242C12.1331 7.93678 12.0701 7.64861 11.9209 7.40035C11.7717 7.15209 11.5443 6.95686 11.2721 6.84342C10.679 6.67002 10.0612 6.58948 9.44197 6.60483H6.56651V9.91457ZM12.4163 14.2575C12.445 13.9236 12.3657 13.5894 12.1894 13.3013C12.013 13.0133 11.7484 12.7858 11.4324 12.6506C10.9402 12.4647 10.4141 12.3782 9.88632 12.3963H6.56651V16.3935H9.83361C10.3695 16.4196 10.9046 16.3296 11.4002 16.13C11.7427 15.952 12.0225 15.6786 12.2034 15.345C12.3844 15.0114 12.4582 14.6329 12.4155 14.2582L12.4163 14.2575ZM26.9012 11.8183C26.9895 12.525 27.0213 13.2372 26.9963 13.9486H18.9322C18.9068 14.3916 19.0002 14.8333 19.2033 15.2308C19.4064 15.6283 19.7123 15.968 20.091 16.2166C20.572 16.4975 21.1264 16.6376 21.6876 16.62C22.1395 16.6545 22.5916 16.5556 22.9845 16.3362C23.3774 16.1168 23.6927 15.7873 23.8888 15.3908H26.8455C26.7123 16.1334 26.3357 16.8145 25.7716 17.3329C25.2337 17.8684 24.5835 18.2856 23.8651 18.5564C23.1466 18.8271 22.3766 18.945 21.607 18.9022C20.1863 18.9192 18.8048 18.4506 17.7045 17.5786C16.5796 16.6967 16.0164 15.2623 16.015 13.2754C15.9608 12.4988 16.0679 11.7195 16.33 10.9837C16.592 10.248 17.0037 9.57074 17.5406 8.99216C18.0605 8.49372 18.6804 8.10417 19.3619 7.84766C20.0434 7.59115 20.7719 7.47315 21.5024 7.50097C22.3976 7.4874 23.2856 7.65828 24.1077 8.00229C24.8884 8.34481 25.5517 8.89702 26.0191 9.59361C26.4829 10.2609 26.7845 11.0215 26.9012 11.8183ZM23.9906 12.0981C23.988 11.7788 23.918 11.4635 23.7849 11.1715C23.6519 10.8795 23.4585 10.617 23.2168 10.4003C22.7394 10.006 22.1276 9.79835 21.5009 9.818C21.1845 9.79947 20.8676 9.8446 20.57 9.95055C20.2725 10.0565 20.0007 10.221 19.7718 10.4337C19.3368 10.8936 19.066 11.4772 18.9995 12.0981H23.9906Z" fill="#2BF1E9"/>
</g>
<defs>
<clipPath id="clip0">
<rect width="24" height="15" fill="white" transform="translate(3 4)"/>
</clipPath>
</defs>
</svg>
