<svg width="30" height="23" viewBox="0 0 30 23" fill="none" xmlns="http://www.w3.org/2000/svg">
<g clip-path="url(#clip0)">
<path opacity="0.85" d="M14.5 0C12.2255 4.41906e-09 10.0022 0.674445 8.11102 1.93805C6.21987 3.20165 4.74589 4.99767 3.87546 7.09897C3.00503 9.20028 2.77725 11.5125 3.22092 13.7433C3.66459 15.974 4.75979 18.0231 6.36802 19.6315C7.97625 21.2398 10.0253 22.3351 12.256 22.7789C14.4868 23.2227 16.799 22.9951 18.9004 22.1248C21.0017 21.2545 22.7978 19.7806 24.0616 17.8896C25.3253 15.9985 25.9999 13.7752 26 11.5007C25.9968 8.45165 24.7842 5.52838 22.6282 3.3723C20.4723 1.21621 17.5491 0.00341568 14.5 0V0ZM21.997 5.42454C23.33 7.06288 24.0858 9.09488 24.1476 11.2061C22.0173 10.7515 19.8173 10.7303 17.6786 11.1437C17.3323 10.3344 16.9739 9.5666 16.6126 8.83397C18.5862 8.00801 20.4065 6.8554 21.997 5.42454ZM20.6988 4.10765C19.238 5.40991 17.565 6.45247 15.7524 7.19019C14.7818 5.40664 13.6899 3.69192 12.4842 2.05813C13.9191 1.75132 15.4051 1.77648 16.8288 2.13169C18.2525 2.4869 19.5762 3.16276 20.6988 4.10765ZM10.6225 2.66245C11.869 4.30663 12.9934 6.03987 13.9867 7.84827C11.1131 8.74697 8.12335 9.22034 5.11262 9.25333C5.4625 7.80509 6.14164 6.45703 7.09724 5.31393C8.05284 4.17084 9.25917 3.26351 10.6225 2.66245ZM4.85669 11.105H4.91118C6.87459 11.0973 8.83349 10.9164 10.7651 10.5645C12.1553 10.3145 13.525 9.96129 14.8627 9.50782C15.1975 10.1745 15.5294 10.8778 15.852 11.6147C14.2458 12.1382 12.7244 12.8929 11.3357 13.8549C9.7611 14.944 8.34807 16.2498 7.13848 17.7339C5.657 15.995 4.84369 13.7851 4.84451 11.5007C4.84666 11.3681 4.85096 11.2362 4.85669 11.105ZM8.46756 19.0293C9.60274 17.6125 10.9396 16.3698 12.4354 15.341C13.6984 14.4653 15.0847 13.7825 16.5488 13.3151C17.427 15.5681 18.0755 17.9041 18.4844 20.2874C16.862 21.026 15.0664 21.2996 13.2977 21.0774C11.529 20.8553 9.85682 20.1462 8.46756 19.0293ZM20.1891 19.2931C19.7721 17.1057 19.165 14.9589 18.3747 12.8771C20.2525 12.5706 22.1722 12.6354 24.025 13.0678C23.6111 15.5652 22.2338 17.8005 20.1891 19.2931Z" fill="#2BF1E9"/>
</g>
<defs>
<clipPath id="clip0">
<rect width="30" height="23" fill="white"/>
</clipPath>
</defs>
</svg>
