<svg width="24" height="24" viewBox="0 0 24 24" fill="none" xmlns="http://www.w3.org/2000/svg">
<path d="M23.9297 7.05469C23.8734 5.775 23.6672 4.90313 23.3719 4.14375C23.0672 3.3375 22.5984 2.61562 21.9844 2.01562C21.3844 1.40625 20.6578 0.932813 19.8609 0.632812C19.0969 0.3375 18.225 0.135937 16.95 0.075C15.6656 0.0140625 15.2578 0 12 0C8.74219 0 8.33438 0.0140625 7.05469 0.0703125C5.775 0.126563 4.90313 0.332812 4.14375 0.628125C3.3375 0.932812 2.61562 1.40156 2.01562 2.01562C1.40625 2.61562 0.932813 3.34219 0.632812 4.13906C0.3375 4.90313 0.135937 5.775 0.075 7.05C0.0140625 8.33437 0 8.74219 0 12C0 15.2578 0.0140625 15.6703 0.0703125 16.95C0.126563 18.225 0.332812 19.1016 0.628125 19.8609C0.928125 20.6625 1.40156 21.3891 2.01094 21.9844C2.61094 22.5938 3.3375 23.0672 4.13437 23.3672C4.89844 23.6625 5.77031 23.8687 7.04531 23.925C8.325 23.9812 8.73281 23.9953 11.9906 23.9953C15.2484 23.9953 15.6562 23.9812 16.9359 23.925C18.2156 23.8687 19.0875 23.6625 19.8469 23.3672C21.4594 22.7437 22.7344 21.4688 23.3578 19.8563C23.6531 19.0922 23.8594 18.2203 23.9156 16.9453C23.9719 15.6656 23.9859 15.2578 23.9859 12C24 8.74219 23.9859 8.33438 23.9297 7.05469ZM21.7687 16.8469C21.7172 18.0187 21.5203 18.6516 21.3563 19.0734C20.9531 20.1187 20.1234 20.9484 19.0781 21.3516C18.6562 21.5156 18.0187 21.7125 16.8516 21.7641C15.5859 21.8203 15.2063 21.8344 12.0047 21.8344C8.79844 21.8344 8.41875 21.8203 7.15781 21.7641C5.98594 21.7125 5.35312 21.5156 4.93125 21.3516C4.41094 21.1594 3.9375 20.8547 3.55313 20.4516C3.15469 20.0625 2.85 19.5938 2.65312 19.0734C2.48906 18.6516 2.29219 18.0141 2.24062 16.8469C2.18438 15.5812 2.17031 15.2016 2.17031 12C2.17031 8.79375 2.18438 8.41406 2.24062 7.15313C2.29219 5.98125 2.48906 5.34844 2.65312 4.92656C2.84531 4.40625 3.15469 3.93281 3.55313 3.54844C3.94219 3.15 4.41094 2.84531 4.93125 2.65312C5.35312 2.48906 5.99062 2.29219 7.15781 2.24062C8.42344 2.18438 8.80313 2.17031 12.0047 2.17031C15.2109 2.17031 15.5906 2.18438 16.8516 2.24062C18.0234 2.29219 18.6562 2.48906 19.0781 2.65312C19.5984 2.84531 20.0719 3.15 20.4562 3.54844C20.8547 3.9375 21.1594 4.40625 21.3516 4.92656C21.5156 5.34844 21.7125 5.98594 21.7641 7.15313C21.8203 8.41875 21.8344 8.79844 21.8344 12C21.8391 15.2063 21.825 15.5859 21.7687 16.8469Z" fill="#2BF1E9"/>
<path d="M12 5.83594C8.59688 5.83594 5.83594 8.59688 5.83594 12C5.83594 15.4031 8.59688 18.1641 12 18.1641C15.4031 18.1641 18.1641 15.4031 18.1641 12C18.1641 8.59688 15.4031 5.83594 12 5.83594ZM12 15.9984C9.79219 15.9984 8.00156 14.2078 8.00156 12C8.00156 9.79219 9.79219 8.00156 12 8.00156C14.2078 8.00156 15.9984 9.79219 15.9984 12C15.9984 14.2078 14.2078 15.9984 12 15.9984Z" fill="#2BF1E9"/>
<path d="M19.8469 5.59214C19.8469 6.38901 19.2 7.0312 18.4078 7.0312C17.6109 7.0312 16.9688 6.38433 16.9688 5.59214C16.9688 4.79526 17.6156 4.15308 18.4078 4.15308C19.2 4.15308 19.8469 4.79995 19.8469 5.59214Z" fill="#2BF1E9"/>
</svg>
