<svg xmlns="http://www.w3.org/2000/svg" width="454.301" height="394.709" viewBox="0 0 454.301 394.709">
  <g id="edu-2" transform="translate(-1158.939 -603.441)">
    <ellipse id="Ellipse_50" data-name="Ellipse 50" cx="2.5" cy="3.5" rx="2.5" ry="3.5" transform="translate(1468 625)" fill="#ff6584"/>
    <ellipse id="Ellipse_51" data-name="Ellipse 51" cx="3.5" cy="3.5" rx="3.5" ry="3.5" transform="translate(1604 757)" fill="#ff6584"/>
    <ellipse id="Ellipse_52" data-name="Ellipse 52" cx="3.5" cy="3.5" rx="3.5" ry="3.5" transform="translate(1183 764)" fill="#ff6584"/>
    <g id="Group_2514" data-name="Group 2514">
      <ellipse id="Ellipse_47" data-name="Ellipse 47" cx="8" cy="7.5" rx="8" ry="7.5" transform="translate(1586 643)" fill="#723ee6"/>
      <ellipse id="Ellipse_48" data-name="Ellipse 48" cx="7.5" cy="8" rx="7.5" ry="8" transform="translate(1415 616)" fill="#723ee6"/>
      <ellipse id="Ellipse_49" data-name="Ellipse 49" cx="13" cy="13" rx="13" ry="13" transform="translate(1415 732)" fill="#723ee6"/>
      <ellipse id="Ellipse_53" data-name="Ellipse 53" cx="3.5" cy="2.5" rx="3.5" ry="2.5" transform="translate(1515 699)" fill="#723ee6"/>
      <ellipse id="Ellipse_54" data-name="Ellipse 54" cx="2.5" cy="3.5" rx="2.5" ry="3.5" transform="translate(1181 625)" fill="#723ee6"/>
      <ellipse id="Ellipse_55" data-name="Ellipse 55" cx="3.5" cy="3.5" rx="3.5" ry="3.5" transform="translate(1590 857)" fill="#723ee6"/>
      <ellipse id="Ellipse_56" data-name="Ellipse 56" cx="3.5" cy="3.5" rx="3.5" ry="3.5" transform="translate(1229 825)" fill="#723ee6"/>
      <ellipse id="Ellipse_57" data-name="Ellipse 57" cx="3.5" cy="2.5" rx="3.5" ry="2.5" transform="translate(1313 622)" fill="#723ee6"/>
      <path id="Path_157" data-name="Path 157" d="M836.226,236.944A8.225,8.225,0,1,0,828,228.718,8.225,8.225,0,0,0,836.226,236.944Zm0-15.354a7.129,7.129,0,1,1-7.129,7.129A7.129,7.129,0,0,1,836.226,221.59Z" transform="translate(432.455 449.729)" fill="#723ee6"/>
      <path id="Path_158" data-name="Path 158" d="M810.032,278.557A6.032,6.032,0,1,0,804,272.525,6.032,6.032,0,0,0,810.032,278.557Zm0-10.967a4.935,4.935,0,1,1-4.935,4.935,4.935,4.935,0,0,1,4.935-4.935Z" transform="translate(472.899 428.954)" fill="#723ee6"/>
      <path id="Path_159" data-name="Path 159" d="M872.032,331.557A6.032,6.032,0,1,0,866,325.525,6.032,6.032,0,0,0,872.032,331.557Zm0-10.967a4.935,4.935,0,1,1-4.935,4.935A4.935,4.935,0,0,1,872.032,320.59Z" transform="translate(379.177 405.017)" fill="#723ee6"/>
      <path id="Path_160" data-name="Path 160" d="M819.966,282.424A44.966,44.966,0,1,0,775,237.458a44.966,44.966,0,0,0,44.966,44.966Zm0-88.834A43.869,43.869,0,1,1,776.1,237.459a43.869,43.869,0,0,1,43.869-43.869Z" transform="translate(443.141 462.375)" fill="#723ee6"/>
      <path id="Path_161" data-name="Path 161" d="M801.9,280.792c37.514,0,66.9-7.948,66.9-18.1,0-5.913-8.722-10.994-24.559-14.307l-.225,1.074c15.054,3.149,23.687,7.972,23.687,13.233,0,9.215-30.134,17-65.8,17s-65.8-7.785-65.8-17c0-5.271,8.663-10.1,23.767-13.25l-.224-1.074c-15.89,3.314-24.64,8.4-24.64,14.324C735,272.843,764.386,280.792,801.9,280.792Z" transform="translate(467.502 437.138)" fill="#723ee6"/>
      <path id="Path_162" data-name="Path 162" d="M676.661,387.147c1.521,0,3.058-.024,4.567-.071l-.034-1.1c-2.166.068-4.377.086-6.553.056l-.015,1.1Q675.641,387.147,676.661,387.147Zm-8.634-.254.064-1.095c-2.169-.128-4.367-.308-6.53-.534l-.115,1.09c2.18.229,4.395.41,6.581.539Zm19.793-.171c2.188-.168,4.4-.387,6.571-.654l-.134-1.088c-2.156.264-4.349.482-6.52.648ZM654.9,385.515l.164-1.084c-2.155-.327-4.327-.707-6.454-1.129l-.214,1.075c2.143.426,4.331.809,6.5,1.138Zm46.027-.4c2.161-.366,4.342-.787,6.483-1.252l-.233-1.072c-2.125.462-4.289.879-6.434,1.242Zm-58.975-2.173.263-1.065c-2.116-.523-4.243-1.1-6.324-1.718l-.312,1.052c2.1.622,4.24,1.2,6.372,1.731Zm71.877-.629c2.12-.564,4.253-1.184,6.34-1.844l-.33-1.045c-2.072.655-4.188,1.27-6.292,1.829Zm-84.534-3.126.36-1.036c-2.053-.714-4.118-1.485-6.139-2.294l-.407,1.019c2.035.815,4.116,1.592,6.185,2.312Zm97.14-.859c2.059-.757,4.13-1.573,6.157-2.427l-.426-1.011c-2.011.847-4.066,1.657-6.11,2.409Zm-109.384-4.04.454-1c-1.972-.9-3.954-1.852-5.891-2.842l-.5.977C613.063,372.421,615.06,373.385,617.047,374.288Zm121.577-1.093c1.979-.943,3.965-1.946,5.9-2.982l-.517-.967c-1.924,1.028-3.895,2.023-5.859,2.959Zm-133.311-4.9.543-.952c-1.891-1.079-3.779-2.213-5.609-3.372l-.586.926c1.845,1.167,3.747,2.311,5.653,3.4Zm144.973-1.326c1.882-1.12,3.767-2.3,5.6-3.509l-.6-.916c-1.821,1.2-3.691,2.371-5.559,3.482Zm-156.118-5.725.628-.9c-1.781-1.244-3.557-2.547-5.281-3.872l-.668.87C590.583,358.673,592.374,359.986,594.168,361.239Zm167.154-1.544c1.77-1.286,3.538-2.633,5.256-4l-.684-.857c-1.7,1.361-3.459,2.7-5.216,3.973Zm-177.616-6.5.707-.839c-1.66-1.4-3.311-2.86-4.91-4.338l-.744.805C580.37,350.317,582.034,351.788,583.707,353.2Zm187.938-1.747c1.649-1.444,3.286-2.945,4.868-4.463l-.759-.791c-1.57,1.507-3.195,3-4.831,4.43Zm-197.63-7.217.781-.77c-1.53-1.55-3.043-3.155-4.5-4.768l-.815.734c1.466,1.626,2.99,3.243,4.531,4.8Zm207.156-1.926c1.513-1.59,3.006-3.234,4.44-4.886l-.828-.719c-1.423,1.639-2.9,3.27-4.406,4.848Zm-216-7.885.847-.7c-1.382-1.682-2.743-3.418-4.046-5.16l-.878.657c1.311,1.755,2.682,3.5,4.077,5.2Zm224.647-2.082c1.358-1.716,2.7-3.488,3.975-5.267l-.89-.641c-1.27,1.765-2.6,3.523-3.945,5.227Zm-232.56-8.5.907-.616c-1.223-1.8-2.421-3.654-3.56-5.51l-.935.574c1.15,1.869,2.357,3.737,3.591,5.552Zm240.265-2.21c1.2-1.832,2.365-3.717,3.477-5.6l-.945-.557c-1.1,1.873-2.264,3.744-3.45,5.561ZM550.346,312.58l.96-.53c-1.053-1.905-2.076-3.862-3.041-5.816l-.983.486c.975,1.968,2.006,3.94,3.065,5.86Zm253.875-2.306c1.023-1.933,2.015-3.917,2.948-5.895l-.992-.468c-.926,1.963-1.91,3.932-2.925,5.85Zm-259.731-9.55,1-.44c-.874-2-1.713-4.04-2.494-6.075l-1.024.393c.786,2.051,1.631,4.111,2.514,6.122Zm265.353-2.366c.841-2.018,1.646-4.082,2.393-6.136l-1.031-.375c-.741,2.039-1.54,4.087-2.374,6.089Zm-270.1-9.989,1.041-.345c-.684-2.062-1.33-4.17-1.919-6.265l-1.056.3c.6,2.111,1.243,4.236,1.934,6.313Zm274.6-2.4c.652-2.09,1.266-4.225,1.822-6.347l-1.061-.278c-.552,2.106-1.161,4.225-1.808,6.3ZM536.172,275.66l1.068-.249c-.491-2.114-.94-4.272-1.335-6.415l-1.078.2c.4,2.159.85,4.334,1.344,6.465ZM817.7,273.2c.457-2.142.871-4.324,1.23-6.487l-1.082-.18c-.356,2.147-.767,4.312-1.221,6.438Zm-283.915-10.52,1.087-.149c-.3-2.148-.544-4.338-.74-6.51l-1.093.1c.2,2.189.448,4.4.744,6.56Zm286.076-2.5c.259-2.171.471-4.382.631-6.572l-1.094-.08c-.159,2.174-.37,4.368-.627,6.522ZM532.59,249.528l1.1-.049c-.1-2.173-.147-4.377-.147-6.551h-1.1c0,2.19.05,4.411.149,6.6Zm288.232-2.523c.037-1.345.056-2.717.057-4.077q0-1.266-.022-2.527l-1.1.019q.022,1.252.022,2.508c0,1.35-.019,2.712-.056,4.047ZM533.546,241.4c.022-2.174.1-4.378.216-6.551l-1.094-.061c-.122,2.189-.2,4.41-.218,6.6ZM819.5,233.873l1.095-.069c-.137-2.191-.326-4.4-.561-6.578l-1.09.118C819.178,229.5,819.365,231.7,819.5,233.873Zm-285.225-5.558c.219-2.162.492-4.35.81-6.5l-1.085-.16c-.32,2.169-.595,4.373-.816,6.552Zm283.814-7.468,1.084-.168c-.336-2.17-.726-4.356-1.16-6.5l-1.075.217C817.369,216.525,817.756,218.695,818.09,220.848Zm-281.9-5.492c.418-2.139.89-4.293,1.4-6.4l-1.066-.259c-.517,2.124-.992,4.294-1.414,6.449Zm279.3-7.349,1.064-.267c-.533-2.124-1.122-4.266-1.753-6.366l-1.05.315C814.379,203.773,814.964,205.9,815.492,208.007Zm-276.2-5.381c.612-2.088,1.28-4.189,1.986-6.244l-1.037-.357c-.712,2.071-1.386,4.188-2,6.292Zm272.425-7.183,1.035-.364c-.729-2.073-1.516-4.156-2.339-6.191l-1.017.411C810.213,191.317,810.993,193.385,811.717,195.442ZM543.55,190.236c.8-2.018,1.657-4.044,2.547-6.021l-1-.45c-.9,1.992-1.76,4.033-2.566,6.067Zm263.244-6.966,1-.458c-.916-1.995-1.891-4-2.9-5.945l-.975.5C804.918,179.3,805.886,181.29,806.794,183.27Zm-257.877-4.955c.982-1.936,2.022-3.876,3.091-5.766l-.954-.54c-1.078,1.9-2.125,3.859-3.115,5.81Zm251.858-6.706.95-.547c-1.094-1.9-2.248-3.8-3.429-5.652l-.924.59c1.173,1.837,2.318,3.724,3.4,5.609Zm-245.414-4.68c1.159-1.845,2.372-3.683,3.607-5.463l-.9-.625c-1.244,1.794-2.467,3.646-3.634,5.5Zm238.355-6.374.9-.632c-1.264-1.793-2.586-3.58-3.93-5.312l-.866.672C791.149,157,792.462,158.775,793.716,160.554Zm-230.895-4.383c1.322-1.731,2.7-3.452,4.092-5.115l-.841-.7c-1.4,1.676-2.791,3.409-4.123,5.153Zm222.86-5.976.835-.711c-1.419-1.666-2.9-3.325-4.4-4.93l-.8.748C782.8,146.9,784.272,148.541,785.681,150.2Zm-214.447-4.062c1.473-1.6,3-3.193,4.542-4.723l-.773-.778c-1.552,1.543-3.091,3.144-4.576,4.759Zm205.506-5.519.767-.784c-1.568-1.534-3.191-3.051-4.823-4.508l-.73.818c1.62,1.446,3.23,2.951,4.787,4.474ZM580.526,136.9c1.615-1.464,3.282-2.909,4.954-4.293l-.7-.845c-1.685,1.394-3.365,2.85-4.992,4.325Zm186.442-5.007.692-.85c-1.7-1.381-3.449-2.744-5.211-4.049l-.653.881C763.546,129.166,765.286,130.518,766.969,131.889ZM590.626,128.54c1.742-1.312,3.534-2.6,5.327-3.825l-.619-.9c-1.807,1.236-3.613,2.532-5.368,3.854Zm165.824-4.447.612-.91c-1.815-1.221-3.684-2.418-5.555-3.556l-.57.937c1.857,1.129,3.711,2.316,5.513,3.528Zm-155-2.956c1.853-1.147,3.757-2.265,5.657-3.324l-.533-.958c-1.915,1.067-3.833,2.194-5.7,3.349Zm143.819-3.844.526-.962c-1.921-1.051-3.89-2.071-5.853-3.031l-.482.985c1.949.953,3.9,1.965,5.809,3.008Zm-132.358-2.541c1.951-.972,3.95-1.911,5.942-2.792l-.443-1c-2.007.887-4.021,1.833-5.987,2.813Zm120.611-3.2.436-1.006c-2.007-.87-4.06-1.7-6.1-2.48l-.389,1.025C729.495,109.856,731.532,110.684,733.523,111.547Zm-108.6-2.1c2.031-.787,4.109-1.539,6.178-2.233l-.349-1.04c-2.084.7-4.179,1.457-6.225,2.25Zm96.371-2.542.342-1.042c-2.084-.683-4.211-1.327-6.32-1.912L715.019,105C717.112,105.585,719.222,106.223,721.291,106.9Zm-83.934-1.631c2.092-.6,4.225-1.152,6.341-1.65l-.252-1.067c-2.132.5-4.282,1.062-6.39,1.663Zm71.31-1.873.244-1.069c-2.137-.488-4.313-.933-6.469-1.322l-.195,1.079c2.14.386,4.3.827,6.42,1.312Zm-58.558-1.133c2.136-.4,4.311-.757,6.466-1.06l-.152-1.086c-2.172.3-4.364.664-6.516,1.068Zm45.665-1.193.145-1.087c-2.171-.29-4.379-.533-6.562-.723l-.1,1.092c2.167.189,4.358.431,6.513.718Zm-32.691-.629c2.16-.2,4.359-.36,6.536-.466l-.053-1.1c-2.193.106-4.408.264-6.585.469Zm19.639-.51.046-1.1c-2.016-.084-4.07-.127-6.106-.127h-.5l0,1.1h.493c2.021,0,4.06.043,6.061.127Z" transform="translate(626.498 504.732)" fill="#723ee6"/>
      <path id="Path_163" data-name="Path 163" d="M823.919,450.843c-5.136-6.213-10.935-12.054-18.012-15.912s-15.6-5.571-23.331-3.276c-5.768,1.713-10.685,5.481-15.236,9.419-9.323,8.067-17.92,17.3-28.917,22.878s-25.486,6.615-34.827-1.432c-7.392-6.369-10.544-17.4-19.372-21.558-8.7-4.1-18.792.3-27.623,4.116a230.983,230.983,0,0,1-37.1,12.409c-8.587,2.083-17.433,3.68-26.229,2.842s-17.625-4.359-23.362-11.08" transform="translate(602.91 354.827)" fill="#723ee6"/>
    </g>
    <path id="Path_164" data-name="Path 164" d="M516.72,389.473H494.579a77.44,77.44,0,0,1,0-26.4H516.72A47.5,47.5,0,0,0,516.72,389.473Z" transform="translate(931.444 385.334)" fill="#6c63ff"/>
    <path id="Path_165" data-name="Path 165" d="M189.72,411.474H167.579a77.437,77.437,0,0,1,0-26.4H189.72A47.5,47.5,0,0,0,189.72,411.474Z" transform="translate(1423.521 375.398)" fill="#6c63ff"/>
    <path id="Path_166" data-name="Path 166" d="M892.72,265.473H870.579a77.442,77.442,0,0,1,0-26.4H892.72A47.5,47.5,0,0,0,892.72,265.473Z" transform="translate(363.368 441.337)" fill="#6c63ff"/>
    <path id="Path_167" data-name="Path 167" d="M207.929,657.431,212.57,672.2l-14.345,1.266,1.266-16.033Z" transform="translate(1328.041 297.078)" fill="#ffb9b9"/>
    <path id="Path_168" data-name="Path 168" d="M350.1,678.2v20.253H333.644l4.641-20.253Z" transform="translate(1121.297 287.696)" fill="#ffb9b9"/>
    <path id="Path_169" data-name="Path 169" d="M393.131,489.778l6.75,64.132s8.438,56.538,6.751,65.4.422,10.126.422,10.126H394.4s.422-5.485-2.11-8.016-1.266-10.126-1.266-10.126l-32.066-97.886-18.143,54.85s-2.953,60.335-3.375,61.179-1.688,12.236-1.688,12.236H320.138s2.11-6.751-.844-8.86-5.485-.422-2.953-4.219,3.375-8.438,2.531-10.548-.844-10.548-.844-10.548,1.266-113.919,8.438-117.716S393.131,489.778,393.131,489.778Z" transform="translate(1133.286 328.872)" fill="#2f2e41"/>
    <path id="Path_170" data-name="Path 170" d="M467.808,774.977s7.214-1.082,7.214-.721,8.657,23.808,0,23.447S433.54,792.653,435.7,784s12.986-6.132,12.986-6.132l9.74-5.411Z" transform="translate(999.336 200.442)" fill="#2f2e41"/>
    <path id="Path_171" data-name="Path 171" d="M278.57,761.352s-7.214-1.082-7.214-.721-8.657,23.808,0,23.447,41.483-5.05,39.319-13.708-12.986-6.132-12.986-6.132l-9.74-5.411Z" transform="translate(1253.04 206.596)" fill="#2f2e41"/>
    <path id="Path_172" data-name="Path 172" d="M411.553,564.105H390.246a74.522,74.522,0,0,1,0-25.4h21.307A45.712,45.712,0,0,0,411.553,564.105Z" transform="translate(1089.87 306.014)" fill="#d0cde1"/>
    <path id="Path_173" data-name="Path 173" d="M400.238,565.722H378.931a74.525,74.525,0,0,1,0-25.4h21.307A45.712,45.712,0,0,0,400.238,565.722Z" transform="translate(1106.965 305.284)" fill="#6c63ff"/>
    <ellipse id="Ellipse_58" data-name="Ellipse 58" cx="16.604" cy="16.604" rx="16.604" ry="16.604" transform="translate(1476.313 664.912)" fill="#ffb9b9"/>
    <path id="Path_174" data-name="Path 174" d="M389.429,237.258s2.953,29.535,6.751,31.644-29.113,4.219-29.113,4.219,8.017-27,5.485-29.535S389.429,237.258,389.429,237.258Z" transform="translate(1116.355 442.157)" fill="#ffb9b9"/>
    <path id="Path_175" data-name="Path 175" d="M331.083,285.566s11.814-11.392,25.315-9.282,23.206,4.641,23.206,4.641,20.674,10.97,21.1,19.83-7.595,42.192-7.595,42.192-3.8,54.428-4.219,54.428-71.305-.844-71.305-.844l13.08-70.883Z" transform="translate(1138.304 424.649)" fill="#575a89"/>
    <path id="Path_176" data-name="Path 176" d="M305.75,429.356c2.734.738,7.447-.283,12.367-1.894a153.454,153.454,0,0,0,18.206-7.654s30.378-12.236,39.239-18.565,2.953-31.644,2.953-31.644l-13.5,4.219.844,15.611-33.332,21.518a75.19,75.19,0,0,0-15.43,3.1c-5.612,1.844-11.063,4.717-13.033,9.13a8.539,8.539,0,0,0-.65,2.114C303.012,427.622,303.957,428.866,305.75,429.356Z" transform="translate(1165.683 382.387)" fill="#ffb9b9"/>
    <path id="Path_177" data-name="Path 177" d="M416.982,459.789c.586,2.186,1.156,4.266,1.688,6.177,2.734.738,7.447-.283,12.367-1.894l-1.021-13.413C424.4,452.5,418.953,455.375,416.982,459.789Z" transform="translate(1055.986 345.777)" opacity="0.15"/>
    <path id="Path_178" data-name="Path 178" d="M409.466,354.98,412,377.342l4.2,55.176s23.227,27.943,10.147,28.787-20.252-27.425-20.252-27.425-13.08-44.724-12.658-54.006,0-24.894,0-24.894Z" transform="translate(1069.21 388.99)" fill="#ffb9b9"/>
    <path id="Path_179" data-name="Path 179" d="M363.375,220.836a4.331,4.331,0,0,1-1.194-.719c-.906-.88-.754-2.37-.36-3.571s.969-2.441.687-3.672c-.131-.574-.444-1.1-.533-1.68-.212-1.383.891-2.644,2.113-3.327s2.627-1.02,3.781-1.811c1.771-1.213,2.748-3.353,4.546-4.527,1.758-1.147,3.991-1.183,6.09-1.18l6.266.007c3.275,0,6.874.125,9.311,2.312.741.665,1.328,1.489,2.079,2.144,1.512,1.318,3.553,1.845,5.232,2.943a9.074,9.074,0,0,1,4.029,7.641c-.059,2.781-1.415,5.482-1.062,8.241.236,1.851,1.235,3.629.973,5.476-.311,2.191-2.321,3.76-4.382,4.566s-4.307,1.1-6.312,2.031c-1.637.764-3.346,1.981-5.072,1.447-1.459-.452-2.26-1.994-2.783-3.429a27.98,27.98,0,0,1-1.341-5.178,8.764,8.764,0,0,0-1.125-3.808,4.385,4.385,0,0,0-3.921-1.691c-3.384.3-5.289,6.06-8.4,4.7-1.543-.676-2.729-2.7-3.964-3.8a19.9,19.9,0,0,0-4.658-3.109Z" transform="translate(1110.531 458.827)" fill="#2f2e41"/>
    <path id="Path_180" data-name="Path 180" d="M304.826,314.2s8.438,2.953,11.814,14.767,2.11,19.83,2.11,19.83l-17.721,2.953Z" transform="translate(1227.403 407.407)" fill="#575a89"/>
    <path id="Path_181" data-name="Path 181" d="M446.277,291.6s-15.189-3.375-17.3,10.97a229.615,229.615,0,0,0-2.11,29.113s14.345-6.751,20.674,0Z" transform="translate(1034.572 417.769)" fill="#575a89"/>
    <rect id="Rectangle_322" data-name="Rectangle 322" width="15" height="1" transform="translate(1429 757)" fill="#f2f2f2"/>
    <rect id="Rectangle_323" data-name="Rectangle 323" width="14" height="1" transform="translate(1595 771)" fill="#f2f2f2"/>
    <rect id="Rectangle_324" data-name="Rectangle 324" width="15" height="2" transform="translate(1429 761)" fill="#f2f2f2"/>
    <rect id="Rectangle_325" data-name="Rectangle 325" width="14" height="3" transform="translate(1236 686)" fill="#f2f2f2"/>
    <rect id="Rectangle_326" data-name="Rectangle 326" width="14" height="2" transform="translate(1236 694)" fill="#f2f2f2"/>
    <rect id="Rectangle_327" data-name="Rectangle 327" width="14" height="2" transform="translate(1236 690)" fill="#f2f2f2"/>
  </g>
</svg>
