<svg xmlns="http://www.w3.org/2000/svg" width="521.096" height="368.819" viewBox="0 0 521.096 368.819">
  <g id="edu-1" transform="translate(0 0)">
    <path id="Path_119" data-name="Path 119" d="M414.881,587.572a11.74,11.74,0,0,0-6.922,2.435c-5.9-15.591-15.033-25.61-25.293-25.61s-19.394,10.019-25.293,25.61a11.74,11.74,0,0,0-6.922-2.435c-11.657,0-21.107,19.714-21.107,44.033H435.987C435.987,607.286,426.538,587.572,414.881,587.572Z" transform="translate(-198.718 -294.205)" fill="#d0cde1"/>
    <circle id="Ellipse_35" data-name="Ellipse 35" cx="71.749" cy="71.749" r="71.749" transform="translate(0 66.644)" fill="#d0cde1"/>
    <path id="Path_121" data-name="Path 121" d="M224.269,543.5h-4.05V346.44a67.827,67.827,0,0,1,2.025-16.451h0a67.828,67.828,0,0,1,2.025,16.451Z" transform="translate(-150.205 -186.563)" fill="#3f3d56"/>
    <path id="Path_122" data-name="Path 122" d="M222.566,435.281l-2.133-3.443L250.4,413.267a12.76,12.76,0,0,1,6.93-1.912h0a12.76,12.76,0,0,1-4.8,5.355Z" transform="translate(-150.3 -232.042)" fill="#3f3d56"/>
    <path id="Path_123" data-name="Path 123" d="M202.545,406.83l2.133-3.443-20.623-12.78a7.674,7.674,0,0,0-5.482-1.015h0a7.674,7.674,0,0,0,3.349,4.458Z" transform="translate(-131.691 -223.043)" fill="#3f3d56"/>
    <path id="Path_124" data-name="Path 124" d="M202.545,548.509l2.133-3.443-20.624-12.78a7.674,7.674,0,0,0-5.482-1.014h0a7.674,7.674,0,0,0,3.349,4.458Z" transform="translate(-131.69 -282.241)" fill="#3f3d56"/>
    <circle id="Ellipse_36" data-name="Ellipse 36" cx="68.874" cy="68.874" r="68.874" transform="translate(383.348 70.705)" fill="#d0cde1"/>
    <path id="Path_125" data-name="Path 125" d="M904.344,537.351h3.888V348.188a65.11,65.11,0,0,0-1.944-15.791h0a65.116,65.116,0,0,0-1.944,15.791Z" transform="translate(-454.343 -187.633)" fill="#3f3d56"/>
    <path id="Path_126" data-name="Path 126" d="M880.74,433.468l2.048-3.3L854.02,412.337a12.249,12.249,0,0,0-6.652-1.835h0a12.25,12.25,0,0,0,4.6,5.14Z" transform="translate(-429.014 -231.708)" fill="#3f3d56"/>
    <path id="Path_127" data-name="Path 127" d="M908.252,406.158l-2.048-3.3L926,390.586a7.366,7.366,0,0,1,5.262-.974h0a7.368,7.368,0,0,1-3.214,4.279Z" transform="translate(-455.17 -223.067)" fill="#3f3d56"/>
    <path id="Path_128" data-name="Path 128" d="M908.252,542.158l-2.048-3.3L926,526.586a7.366,7.366,0,0,1,5.262-.974h0a7.368,7.368,0,0,1-3.214,4.279Z" transform="translate(-455.17 -279.899)" fill="#3f3d56"/>
    <path id="Path_132" data-name="Path 132" d="M616.949,482.069l-.882,4.191-1.1,4.191L611.435,540.3l12.131.883,5.514-54.48-.882-2.867Z" transform="translate(-271.823 -199.773)" fill="#2f2e41"/>
    <path id="Path_133" data-name="Path 133" d="M686.69,678.2l-5.073,7.72s-14.116,11.469-3.97,12.131,13.9-6.837,13.9-6.837,3.529-1.1,3.97-2.206-.882-10.808-.882-10.808Z" transform="translate(-351.931 -341.365)" fill="#2f2e41"/>
    <path id="Path_134" data-name="Path 134" d="M703.611,688.92s-5.073,12.793-4.411,15,1.765,2.206,1.544,4.191-.882,6.617,7.5,6.838,4.411-11.028,4.411-11.028l-1.1-15Z" transform="translate(-363.117 -346.131)" fill="#2f2e41"/>
    <path id="Path_135" data-name="Path 135" d="M677.239,517.395s-3.088,5.294-2.647,8.6,6.838,38.82,6.838,38.82l5.073,43.231,11.249-.882-4.411-39.923,1.1-31.762,1.985,23.38,13.013.441L717.161,526s-5.735-9.264-6.838-9.925S677.239,517.395,677.239,517.395Z" transform="translate(-352.184 -273.075)" fill="#2f2e41"/>
    <circle id="Ellipse_37" data-name="Ellipse 37" cx="9.484" cy="9.484" r="9.484" transform="translate(330.9 151.56)" fill="#ffb8b8"/>
    <path id="Path_136" data-name="Path 136" d="M607.861,284.75l1.323,12.572,14.557-2.206-7.94-14.778Z" transform="translate(-270.234 -117.143)" fill="#ffb8b8"/>
    <path id="Path_137" data-name="Path 137" d="M707.978,403.8s-7.5,5.514-14.778,2.426l-11.028,28.012v35.07s16.542,4.852,25.806-.882c0,0,6.617-1.323,7.72-1.1s-3.97-59.774-3.97-59.774Z" transform="translate(-355.573 -227.769)" fill="#d0cde1"/>
    <path id="Path_138" data-name="Path 138" d="M716.323,402.533l5.073,7.279a8.781,8.781,0,0,1,.882,5.955c-.662,3.529-1.323,49.627,4.852,51.392a33.96,33.96,0,0,0,10.146,1.544s-5.514-26.468-3.529-31.1l6.176-27.791L723.6,400.548s-1.021-4.191-2.716-1.875A15.68,15.68,0,0,1,716.323,402.533Z" transform="translate(-370.756 -225.265)" fill="#575a89"/>
    <path id="Path_139" data-name="Path 139" d="M674.358,446.146l7.534-42.349-7.534,3.97s-8.6,3.529-10.367,7.72-8.823,24.262-8.823,24.262,1.765,12.131,8.381,7.058,5.073-7.5,5.073-7.5-5.735,23.38-4.852,24.042,1.323,6.838,1.323,6.838l6.838-1.323Z" transform="translate(-343.569 -227.799)" fill="#575a89"/>
    <path id="Path_140" data-name="Path 140" d="M674.23,426.582l2.867-4.191s6.485-13.013,11.183-8.6-8.757,14.557-8.757,14.557Z" transform="translate(-352.043 -232.871)" fill="#ffb8b8"/>
    <path id="Path_141" data-name="Path 141" d="M648.542,416.15l-1.765,2.264,4.411,5.676,1.985-3.97Z" transform="translate(-287.535 -174.16)" fill="#ffb8b8"/>
    <path id="Path_142" data-name="Path 142" d="M693.642,361.525a4.946,4.946,0,0,0-2.623,1.166,4.114,4.114,0,0,1-2.671,1,2.879,2.879,0,0,1-2.095-1.6,8.51,8.51,0,0,1-.735-2.629l1.1.388-.891-1.013,9.475-2.879c2.867-.871,6.107-1.71,8.733-.268a8.6,8.6,0,0,1,3.172,3.458,18.028,18.028,0,0,1-.252,17.751c-1.453-.124-2.4-1.646-2.636-3.085s-.006-2.93-.3-4.359-1.381-2.893-2.839-2.848l-.768,1.637c.491-1.047-2.426-3.6-3.121-4.08a9.479,9.479,0,0,1-1.7-1.238C694.892,362.294,694.74,361.514,693.642,361.525Z" transform="translate(-357.061 -208.522)" fill="#2f2e41"/>
    <path id="Path_143" data-name="Path 143" d="M666.294,433.184l5.294,3.308-5.294,22.057s-8.381,10.367-11.469,0c-2.585-8.677,7.194-20.6,10.449-24.255C665.907,433.582,666.294,433.184,666.294,433.184Z" transform="translate(-343.224 -241)" fill="#575a89"/>
    <path id="Path_144" data-name="Path 144" d="M745.8,418.491h5.073s4.411,8.6,4.852,13.234.441,22.939.441,22.939l-8.6,25.586-6.617-4.852,5.514-15.219s-.662-3.308,0-4.852-1.985-9.484-2.426-9.926S745.8,418.491,745.8,418.491Z" transform="translate(-381.701 -234.017)" fill="#575a89"/>
    <rect id="Rectangle_312" data-name="Rectangle 312" width="59.685" height="5.318" transform="translate(303.931 72.362) rotate(180)" fill="#3f3d56"/>
    <rect id="Rectangle_313" data-name="Rectangle 313" width="59.685" height="5.318" transform="translate(303.931 95.992) rotate(180)" fill="#3f3d56"/>
    <rect id="Rectangle_314" data-name="Rectangle 314" width="59.685" height="5.318" transform="translate(303.931 114.361) rotate(180)" fill="#3f3d56"/>
    <path id="Path_145" data-name="Path 145" d="M264.653,192.971l29.275-29.828h33.094v-1.111H293.464l-.163.165L263.863,192.19Z" transform="translate(-117.304 -67.536)" fill="#3f3d56"/>
    <circle id="Ellipse_38" data-name="Ellipse 38" cx="6.531" cy="6.531" r="6.531" transform="translate(218.94 67.888)" fill="#6c63ff"/>
    <circle id="Ellipse_39" data-name="Ellipse 39" cx="6.531" cy="6.531" r="6.531" transform="translate(218.94 88.412)" fill="#6c63ff"/>
    <circle id="Ellipse_40" data-name="Ellipse 40" cx="6.531" cy="6.531" r="6.531" transform="translate(218.94 106.799)" fill="#6c63ff"/>
    <path id="Path_146" data-name="Path 146" d="M493.488,223.542a6.939,6.939,0,1,1,6.939,6.939,6.939,6.939,0,0,1-6.939-6.939Zm.816,0a6.123,6.123,0,1,0,6.123-6.123,6.123,6.123,0,0,0-6.123,6.123Z" transform="translate(-271.691 -153.839)" fill="#3f3d56"/>
    <path id="Path_147" data-name="Path 147" d="M493.488,258.816a6.939,6.939,0,1,1,6.939,6.939A6.939,6.939,0,0,1,493.488,258.816Zm.816,0a6.123,6.123,0,1,0,6.123-6.123,6.123,6.123,0,0,0-6.123,6.123Z" transform="translate(-271.691 -165.595)" fill="#3f3d56"/>
    <path id="Path_148" data-name="Path 148" d="M493.488,290.416a6.939,6.939,0,1,1,6.939,6.939A6.939,6.939,0,0,1,493.488,290.416Zm.816,0a6.123,6.123,0,1,0,6.123-6.123,6.123,6.123,0,0,0-6.123,6.123Z" transform="translate(-271.691 -178.806)" fill="#3f3d56"/>
    <rect id="Rectangle_315" data-name="Rectangle 315" width="59.685" height="5.318" transform="translate(297.871 4.28)" fill="#3f3d56"/>
    <rect id="Rectangle_316" data-name="Rectangle 316" width="59.685" height="5.318" transform="translate(297.871 23.872)" fill="#3f3d56"/>
    <rect id="Rectangle_317" data-name="Rectangle 317" width="59.685" height="5.318" transform="translate(297.871 41.423)" fill="#3f3d56"/>
    <path id="Path_149" data-name="Path 149" d="M762.719,85.526,739,50.143H705.905V49.032h33.558l.163.165L763.51,84.745Z" transform="translate(-313.821 -21.798)" fill="#3f3d56"/>
    <circle id="Ellipse_41" data-name="Ellipse 41" cx="6.531" cy="6.531" r="6.531" transform="translate(369.801 2.041)" fill="#6c63ff"/>
    <circle id="Ellipse_42" data-name="Ellipse 42" cx="6.531" cy="6.531" r="6.531" transform="translate(369.801 21.633)" fill="#6c63ff"/>
    <circle id="Ellipse_43" data-name="Ellipse 43" cx="6.531" cy="6.531" r="6.531" transform="translate(369.801 39.185)" fill="#6c63ff"/>
    <path id="Path_150" data-name="Path 150" d="M760.277,117.481a6.939,6.939,0,1,1,6.939-6.939A6.939,6.939,0,0,1,760.277,117.481Zm0-13.062a6.123,6.123,0,1,0,6.122,6.123,6.123,6.123,0,0,0-6.122-6.123Z" transform="translate(-387.211 -103.603)" fill="#3f3d56"/>
    <path id="Path_151" data-name="Path 151" d="M760.277,152.755a6.939,6.939,0,1,1,6.939-6.939,6.939,6.939,0,0,1-6.939,6.939Zm0-13.062a6.123,6.123,0,1,0,6.122,6.123,6.123,6.123,0,0,0-6.122-6.123Z" transform="translate(-387.211 -119.285)" fill="#3f3d56"/>
    <path id="Path_152" data-name="Path 152" d="M760.277,184.354a6.939,6.939,0,1,1,6.939-6.939,6.939,6.939,0,0,1-6.939,6.939Zm0-13.062a6.123,6.123,0,1,0,6.122,6.123,6.123,6.123,0,0,0-6.122-6.123Z" transform="translate(-387.211 -133.333)" fill="#3f3d56"/>
    <rect id="Rectangle_318" data-name="Rectangle 318" width="41.685" height="3.714" transform="translate(294.086 222.931) rotate(180)" fill="#3f3d56"/>
    <rect id="Rectangle_319" data-name="Rectangle 319" width="41.685" height="3.714" transform="translate(294.086 237.25) rotate(180)" fill="#3f3d56"/>
    <rect id="Rectangle_320" data-name="Rectangle 320" width="41.685" height="3.714" transform="translate(294.086 250.077) rotate(180)" fill="#3f3d56"/>
    <path id="Path_153" data-name="Path 153" d="M332.139,427.647l20.446-20.833H375.7v-.776H352.261l-.114.115L331.587,427.1Z" transform="translate(-147.412 -169.529)" fill="#3f3d56"/>
    <circle id="Ellipse_44" data-name="Ellipse 44" cx="4.561" cy="4.561" r="4.561" transform="translate(234.727 217.72)" fill="#6c63ff"/>
    <circle id="Ellipse_45" data-name="Ellipse 45" cx="4.561" cy="4.561" r="4.561" transform="translate(234.727 232.047)" fill="#6c63ff"/>
    <circle id="Ellipse_46" data-name="Ellipse 46" cx="4.561" cy="4.561" r="4.561" transform="translate(234.727 244.883)" fill="#6c63ff"/>
    <path id="Path_154" data-name="Path 154" d="M520.36,480.243a4.846,4.846,0,1,1,4.846,4.846A4.846,4.846,0,0,1,520.36,480.243Zm.57,0a4.276,4.276,0,1,0,4.276-4.276,4.276,4.276,0,0,0-4.276,4.276Z" transform="translate(-283.637 -259.155)" fill="#3f3d56"/>
    <path id="Path_155" data-name="Path 155" d="M520.36,504.879a4.846,4.846,0,1,1,4.846,4.846A4.846,4.846,0,0,1,520.36,504.879Zm.57,0a4.276,4.276,0,1,0,4.276-4.276,4.276,4.276,0,0,0-4.276,4.276Z" transform="translate(-283.637 -269.462)" fill="#3f3d56"/>
    <path id="Path_156" data-name="Path 156" d="M520.36,526.948a4.846,4.846,0,1,1,4.846,4.846A4.846,4.846,0,0,1,520.36,526.948Zm.57,0a4.276,4.276,0,1,0,4.276-4.276,4.276,4.276,0,0,0-4.276,4.276Z" transform="translate(-283.637 -278.695)" fill="#3f3d56"/>
  </g>
</svg>
