<svg xmlns="http://www.w3.org/2000/svg" xmlns:xlink="http://www.w3.org/1999/xlink" width="145" height="130.993" viewBox="0 0 145 130.993">
  <defs>
    <linearGradient id="linear-gradient" x1="1" y1="0.564" x2="0" y2="0.594" gradientUnits="objectBoundingBox">
      <stop offset="0" stop-color="#b122e5"/>
      <stop offset="1" stop-color="#ff63de"/>
    </linearGradient>
  </defs>
  <path id="exp-4" d="M8.5,130.993A8.354,8.354,0,0,1,0,122.808V8.188A8.355,8.355,0,0,1,8.5,0H136.5A8.355,8.355,0,0,1,145,8.188V122.808a8.354,8.354,0,0,1-8.5,8.185Zm-2.834-8.185A2.784,2.784,0,0,0,8.5,125.535H136.5a2.784,2.784,0,0,0,2.834-2.727V27.289H5.664Zm0-114.619V21.831H139.336V8.188A2.787,2.787,0,0,0,136.5,5.458H8.5A2.787,2.787,0,0,0,5.664,8.188ZM64.045,111.443l11.327-65.5A2.825,2.825,0,0,1,78.632,43.7a2.743,2.743,0,0,1,2.327,3.144l-11.327,65.5a2.808,2.808,0,0,1-2.789,2.282A2.761,2.761,0,0,1,64.045,111.443Zm29.105-8.54a2.663,2.663,0,0,1,0-3.859l20.656-19.9-20.656-19.9a2.667,2.667,0,0,1,0-3.862,2.916,2.916,0,0,1,4.008,0l22.655,21.834a2.656,2.656,0,0,1,0,3.859L97.159,102.9a2.907,2.907,0,0,1-4.008,0Zm-45.309,0L25.183,81.072a2.663,2.663,0,0,1,0-3.859L47.841,55.378a2.912,2.912,0,0,1,4,0,2.661,2.661,0,0,1,0,3.862l-20.653,19.9,20.653,19.9a2.656,2.656,0,0,1,0,3.859,2.9,2.9,0,0,1-4,0Zm52.979-86.53a2.731,2.731,0,1,1,0-5.458h24.355a2.731,2.731,0,1,1,0,5.458ZM86.659,13.646a2.834,2.834,0,1,1,2.834,2.727A2.782,2.782,0,0,1,86.659,13.646Zm-45.313,0a2.834,2.834,0,1,1,2.834,2.727A2.782,2.782,0,0,1,41.346,13.646Zm-11.327,0a2.834,2.834,0,1,1,2.834,2.727A2.782,2.782,0,0,1,30.019,13.646Zm-11.327,0a2.834,2.834,0,1,1,2.834,2.727A2.782,2.782,0,0,1,18.691,13.646Z" fill="url(#linear-gradient)"/>
</svg>
