<svg xmlns="http://www.w3.org/2000/svg" xmlns:xlink="http://www.w3.org/1999/xlink" width="145" height="135.767" viewBox="0 0 145 135.767">
  <defs>
    <linearGradient id="linear-gradient" x1="1" y1="0.5" x2="0" y2="0.5" gradientUnits="objectBoundingBox">
      <stop offset="0" stop-color="#29b3ba"/>
      <stop offset="1" stop-color="#46eeaa"/>
    </linearGradient>
  </defs>
  <path id="exp-3" d="M38.516,135.767a2.83,2.83,0,0,1-2.834-2.826V118.8H27.189a2.83,2.83,0,0,1-2.834-2.826v-8.487H8.5A8.5,8.5,0,0,1,0,99V48.083A8.5,8.5,0,0,1,8.5,39.6H20.72A22.632,22.632,0,1,1,55.507,11.689,22.64,22.64,0,1,1,90.295,39.6H100.82a8.5,8.5,0,0,1,8.5,8.483v2.83h7.6L140.548,34.45A2.833,2.833,0,0,1,145,36.77v67.884a2.83,2.83,0,0,1-4.452,2.32L116.92,90.514h-7.6V99a8.5,8.5,0,0,1-8.5,8.487H86.659v8.487a2.829,2.829,0,0,1-2.83,2.826h-8.5v14.144a2.83,2.83,0,0,1-2.834,2.826Zm2.83-5.657H69.668V118.8H41.346Zm-11.327-16.97H81v-5.657H30.019ZM5.664,48.083V99a2.835,2.835,0,0,0,2.834,2.83H100.82A2.835,2.835,0,0,0,103.654,99V48.083a2.835,2.835,0,0,0-2.834-2.826H8.5A2.835,2.835,0,0,0,5.664,48.083Zm114.981,7.135V86.209l18.691,13.023V42.192ZM109.318,84.854h5.664V56.57h-5.664ZM58.341,22.627A16.991,16.991,0,1,0,75.332,5.657,17,17,0,0,0,58.341,22.627ZM50.645,39.6h9.724a22.888,22.888,0,0,1-4.862-6.033A22.814,22.814,0,0,1,50.645,39.6ZM18.691,22.627A16.993,16.993,0,1,0,35.682,5.657,17,17,0,0,0,18.691,22.627ZM32.852,90.514a2.83,2.83,0,1,1,0-5.66H89.493a2.83,2.83,0,0,1,0,5.66Zm-14.161-2.83a2.832,2.832,0,1,1,2.834,2.83A2.833,2.833,0,0,1,18.691,87.684ZM86.659,76.37A2.832,2.832,0,1,1,89.493,79.2,2.835,2.835,0,0,1,86.659,76.37ZM21.525,79.2a2.83,2.83,0,0,1-2.834-2.826V59.4a2.831,2.831,0,0,1,2.834-2.83H61.171A2.831,2.831,0,0,1,64,59.4V76.37A2.83,2.83,0,0,1,61.171,79.2Zm2.83-5.657H58.341V62.227H24.355Zm62.3-14.14a2.832,2.832,0,1,1,2.834,2.826A2.833,2.833,0,0,1,86.659,59.4ZM66.834,22.627a8.5,8.5,0,1,1,8.5,8.487A8.5,8.5,0,0,1,66.834,22.627Zm5.667,0a2.832,2.832,0,1,0,2.83-2.826A2.832,2.832,0,0,0,72.5,22.627Zm-45.313,0a8.5,8.5,0,1,1,8.494,8.487A8.5,8.5,0,0,1,27.189,22.627Zm5.664,0a2.832,2.832,0,1,0,2.83-2.826A2.832,2.832,0,0,0,32.852,22.627Z" fill="url(#linear-gradient)"/>
</svg>
