<svg xmlns="http://www.w3.org/2000/svg" xmlns:xlink="http://www.w3.org/1999/xlink" width="145" height="137.155" viewBox="0 0 145 137.155">
  <defs>
    <linearGradient id="linear-gradient" x1="1" y1="0.5" x2="0" y2="0.5" gradientUnits="objectBoundingBox">
      <stop offset="0" stop-color="#1270e3"/>
      <stop offset="1" stop-color="#59c2ff"/>
    </linearGradient>
  </defs>
  <path id="exp-1" d="M72.5,137.036c-1.327.022-19.34.257-21.249,0-1.984-.268,0-1.854,2.509-3.7a7.075,7.075,0,0,0,2.778-4.62l.943-6.013H87.517l.943,6.017a7.082,7.082,0,0,0,2.778,4.617c2.506,1.85,4.489,3.429,2.509,3.7-.665.089-3.28.119-6.464.119C81.321,137.155,73.366,137.05,72.5,137.036ZM5.8,116.916A5.8,5.8,0,0,1,0,111.123V27.148a5.8,5.8,0,0,1,5.8-5.793H89.057l-6.13,8.69H8.7v69.5H136.3v-69.5H113.1l7.994-8.69h18.1a5.8,5.8,0,0,1,5.8,5.793v83.975a5.8,5.8,0,0,1-5.8,5.793ZM38.665,85.281c8.024-.06,9.023-1.992,11.641-10.037,4.825-12.7,26.547,3.325,13.084,8.883a44.316,44.316,0,0,1-16.409,2.83C39.053,86.956,33.762,85.318,38.665,85.281ZM65.216,70.672c-3.893-3.131-3.911-2.167.153-7.2l41.163-58.4C110.6.033,117.047-1.512,120.943,1.623s3.755,9.751-.309,14.792L72.237,69C70.022,71.74,69.3,72.92,68.46,72.92,67.763,72.92,66.991,72.1,65.216,70.672ZM107.748,6.31a22.361,22.361,0,0,1,2.61,2.3s.7-3,6.309-6.3a8.309,8.309,0,0,0-1.107-.063A8.909,8.909,0,0,0,107.748,6.31Z" transform="translate(0 0)" fill="url(#linear-gradient)"/>
</svg>
