<svg xmlns="http://www.w3.org/2000/svg" xmlns:xlink="http://www.w3.org/1999/xlink" width="145" height="112.961" viewBox="0 0 145 112.961">
  <defs>
    <linearGradient id="linear-gradient" x1="1" y1="0.571" x2="0" y2="0.571" gradientUnits="objectBoundingBox">
      <stop offset="0" stop-color="#ff8359"/>
      <stop offset="1" stop-color="#ffdf40"/>
    </linearGradient>
  </defs>
  <path id="exp-2" d="M8.5,112.961A8.493,8.493,0,0,1,0,104.488V31.064a8.5,8.5,0,0,1,8.5-8.473h2.83V19.769a8.493,8.493,0,0,1,8.5-8.473H31.152a8.493,8.493,0,0,1,8.5,8.473v2.822H50.466L54.519,6.417A8.487,8.487,0,0,1,62.763,0h47.793A8.48,8.48,0,0,1,118.8,6.417l4.057,16.173H136.5a8.5,8.5,0,0,1,8.5,8.473v73.424a8.493,8.493,0,0,1-8.5,8.473Zm-2.834-8.473A2.833,2.833,0,0,0,8.5,107.313H136.5a2.833,2.833,0,0,0,2.834-2.826V31.064a2.83,2.83,0,0,0-2.834-2.822H8.5a2.83,2.83,0,0,0-2.834,2.822v8.473H25.488a8.493,8.493,0,0,1,8.5,8.47V87.545a8.493,8.493,0,0,1-8.5,8.473H5.664Zm0-14.117H25.488a2.833,2.833,0,0,0,2.834-2.826V48.007a2.83,2.83,0,0,0-2.834-2.822H5.664v11.3h8.5a2.824,2.824,0,1,1,0,5.648h-8.5v11.3h8.5a2.824,2.824,0,1,1,0,5.648h-8.5ZM60.015,7.789l-3.71,14.8h60.712l-3.71-14.805a2.832,2.832,0,0,0-2.752-2.138H62.763A2.83,2.83,0,0,0,60.015,7.789ZM16.991,19.769v2.822H33.986V19.769a2.833,2.833,0,0,0-2.834-2.826H19.825A2.833,2.833,0,0,0,16.991,19.769ZM52.677,67.776a33.984,33.984,0,1,1,33.982,33.89A33.97,33.97,0,0,1,52.677,67.776Zm5.664,0A28.32,28.32,0,1,0,86.659,39.537,28.313,28.313,0,0,0,58.341,67.776Zm5.664,0A22.657,22.657,0,1,1,86.659,90.37,22.65,22.65,0,0,1,64,67.776Zm5.664,0A16.993,16.993,0,1,0,86.659,50.833,16.985,16.985,0,0,0,69.668,67.776Zm5.664,0a11.325,11.325,0,0,1,11.327-11.3,2.824,2.824,0,1,1,0,5.648A5.665,5.665,0,0,0,81,67.776a2.832,2.832,0,0,1-5.664,0Zm42.479-28.238a2.824,2.824,0,1,1,0-5.648h13.028a2.824,2.824,0,1,1,0,5.648ZM81,16.943A2.824,2.824,0,1,1,81,11.3H103.65a2.824,2.824,0,1,1,0,5.648ZM66.834,14.121a2.834,2.834,0,1,1,2.834,2.822A2.833,2.833,0,0,1,66.834,14.121Z" fill="url(#linear-gradient)"/>
</svg>
