<svg id="facebook" xmlns="http://www.w3.org/2000/svg" width="8.288" height="15.33" viewBox="0 0 8.288 15.33">
  <path id="Path_58" data-name="Path 58" d="M30.053,0,28.065,0a3.491,3.491,0,0,0-3.677,3.773v1.74h-2a.313.313,0,0,0-.313.313v2.52a.313.313,0,0,0,.313.313h2v6.36a.312.312,0,0,0,.313.313h2.608a.313.313,0,0,0,.313-.313V8.658h2.337a.312.312,0,0,0,.313-.313V5.825a.313.313,0,0,0-.313-.313H27.622V4.038c0-.709.169-1.069,1.092-1.069h1.339a.313.313,0,0,0,.312-.313V.316A.313.313,0,0,0,30.053,0Z" transform="translate(-22.077)" fill="#fff"/>
</svg>
