<svg id="twitter" xmlns="http://www.w3.org/2000/svg" width="16.241" height="13.196" viewBox="0 0 16.241 13.196">
  <g id="Group_67" data-name="Group 67" transform="translate(0 0)">
    <path id="Path_59" data-name="Path 59" d="M16.241,80.031a6.942,6.942,0,0,1-1.918.526,3.311,3.311,0,0,0,1.465-1.84,6.654,6.654,0,0,1-2.111.806A3.329,3.329,0,0,0,7.917,81.8a3.428,3.428,0,0,0,.077.759,9.424,9.424,0,0,1-6.863-3.483,3.33,3.33,0,0,0,1.023,4.45,3.288,3.288,0,0,1-1.5-.41v.037a3.345,3.345,0,0,0,2.668,3.272,3.323,3.323,0,0,1-.873.11,2.944,2.944,0,0,1-.63-.057A3.361,3.361,0,0,0,4.925,88.8,6.69,6.69,0,0,1,.8,90.216a6.236,6.236,0,0,1-.8-.046,9.374,9.374,0,0,0,5.108,1.494,9.411,9.411,0,0,0,9.477-9.475c0-.147-.005-.289-.012-.43A6.642,6.642,0,0,0,16.241,80.031Z" transform="translate(0 -78.469)" fill="#fff"/>
  </g>
</svg>
