<svg id="wifi" xmlns="http://www.w3.org/2000/svg" xmlns:xlink="http://www.w3.org/1999/xlink" width="16.844" height="12.094" viewBox="0 0 16.844 12.094">
  <defs>
    <clipPath id="clip-path">
      <path id="Shape" d="M324.116-24.158a9.529,9.529,0,0,1,6.566,2.623.34.34,0,0,0,.478,0l1.275-1.287a.355.355,0,0,0,.1-.252.355.355,0,0,0-.106-.251,12.019,12.019,0,0,0-16.632,0,.355.355,0,0,0-.106.251.355.355,0,0,0,.1.252l1.275,1.287a.339.339,0,0,0,.478,0,9.53,9.53,0,0,1,6.566-2.623Zm0,4.186a5.412,5.412,0,0,1,3.633,1.4.342.342,0,0,0,.478-.006l1.273-1.287a.356.356,0,0,0,.1-.254.356.356,0,0,0-.108-.252,7.9,7.9,0,0,0-10.756,0,.356.356,0,0,0-.108.252.356.356,0,0,0,.1.254l1.273,1.287a.342.342,0,0,0,.478.006,5.411,5.411,0,0,1,3.63-1.4Zm2.447,3.071a.346.346,0,0,0,.1-.254.346.346,0,0,0-.114-.25,3.774,3.774,0,0,0-4.874,0,.346.346,0,0,0-.114.25.346.346,0,0,0,.1.254l2.2,2.223a.344.344,0,0,0,.244.1.344.344,0,0,0,.245-.1Z" transform="translate(-315.694 26.669)" fill="#fff"/>
    </clipPath>
  </defs>
  <g id="Wifi-2" data-name="Wifi" transform="translate(0 0)" clip-path="url(#clip-path)">
    <path id="Fill" d="M310.694-31.669h27.873V-8.547H310.694Z" transform="translate(-316.208 26.155)" fill="#fff"/>
  </g>
</svg>
