<svg width="19" height="19" viewBox="0 0 19 19" fill="none" xmlns="http://www.w3.org/2000/svg">
<path d="M7.81677 8.92958C8.21105 8.73126 8.50914 8.51036 8.7134 8.27166C9.07681 7.84175 9.25613 7.2717 9.25613 6.56508C9.25613 5.87746 9.07681 5.2896 8.71815 4.79675C8.1196 3.99393 7.10658 3.58302 5.67434 3.56165H0V15.1443H5.29075C5.88692 15.1443 6.43915 15.0932 6.94982 14.9887C7.46049 14.883 7.90227 14.6894 8.27637 14.4068C8.60889 14.1609 8.88679 13.8557 9.10769 13.4959C9.45684 12.952 9.63142 12.3356 9.63142 11.6492C9.63142 10.9841 9.47822 10.4176 9.17419 9.95211C8.8666 9.48657 8.41532 9.14573 7.81677 8.92958ZM2.34075 5.57344H4.89646C5.4582 5.57344 5.92136 5.634 6.28477 5.75395C6.70518 5.92853 6.91538 6.28362 6.91538 6.82516C6.91538 7.31089 6.75505 7.65054 6.43797 7.84175C6.1185 8.03295 5.70403 8.12914 5.19574 8.12914H2.34075V5.57344ZM6.38215 12.9306C6.0995 13.0672 5.70166 13.1349 5.19218 13.1349H2.34075V10.0459H5.23137C5.73491 10.0495 6.12682 10.116 6.40709 10.2407C6.90588 10.4663 7.15409 10.8796 7.15409 11.4841C7.15409 12.1967 6.89757 12.6765 6.38215 12.9306Z" fill="#F8F8F8"/>
<path d="M17.1735 4.10217H12.1416V5.54392H17.1735V4.10217Z" fill="#F8F8F8"/>
<path d="M18.922 9.79207C18.8175 9.12108 18.5871 8.53084 18.2284 8.02137C17.8353 7.44419 17.3365 7.02141 16.7297 6.7542C16.1252 6.4858 15.4447 6.3516 14.687 6.35279C13.4151 6.35279 12.3819 6.75064 11.5826 7.54039C10.7858 8.33252 10.3867 9.47142 10.3867 10.9559C10.3867 12.539 10.8273 13.6826 11.7133 14.3845C12.5956 15.0876 13.6146 15.4379 14.7713 15.4379C16.1715 15.4379 17.2605 15.0211 18.0384 14.1897C18.536 13.6648 18.8175 13.1482 18.8792 12.6411H16.561C16.4268 12.8917 16.2713 13.0877 16.0931 13.2302C15.7701 13.4914 15.3497 13.6221 14.8343 13.6221C14.3438 13.6221 13.9281 13.514 13.5814 13.299C13.0089 12.9546 12.7097 12.3513 12.6717 11.4927H18.998C19.0075 10.7528 18.9837 10.184 18.922 9.79207ZM12.7287 10.0142C12.8118 9.45717 13.0137 9.01538 13.3343 8.68879C13.655 8.36339 14.1086 8.1995 14.6894 8.19832C15.225 8.19832 15.6727 8.35152 16.0373 8.6591C16.3971 8.96907 16.6002 9.41917 16.6418 10.0142H12.7287Z" fill="#F8F8F8"/>
</svg>
