<svg width="17" height="17" viewBox="0 0 17 17" fill="none" xmlns="http://www.w3.org/2000/svg">
<path d="M8.5 0C3.81331 0 0 3.81331 0 8.5C0 13.1867 3.81331 17 8.5 17C13.1867 17 17 13.1867 17 8.5C17 3.81331 13.1867 0 8.5 0ZM8.5 15.9375C4.39875 15.9375 1.0625 12.6002 1.0625 8.5C1.0625 4.39875 4.39875 1.0625 8.5 1.0625C12.6002 1.0625 15.9375 4.39875 15.9375 8.5C15.9375 12.6002 12.6002 15.9375 8.5 15.9375Z" fill="#F8F8F8"/>
<path d="M8.49989 2.125C8.05364 2.125 7.61802 2.17175 7.19727 2.25887C7.97077 3.35537 8.67308 4.4965 9.29145 5.67906C10.4613 5.134 11.562 4.43062 12.5671 3.59125C11.4632 2.67538 10.0458 2.125 8.49989 2.125Z" fill="#F8F8F8"/>
<path d="M13.3251 4.34106C12.2318 5.26225 11.0291 6.02619 9.75195 6.62331C10.0314 7.20556 10.2906 7.79525 10.5308 8.3945C11.9418 8.10444 13.4101 8.07788 14.8658 8.31906C14.8233 6.79969 14.2516 5.41419 13.3251 4.34106Z" fill="#F8F8F8"/>
<path d="M6.13063 2.58594C4.21707 3.35306 2.7657 5.01906 2.29395 7.06437C4.35732 7.15256 6.39944 6.80831 8.30026 6.08262C7.66169 4.87031 6.93813 3.70156 6.13063 2.58594Z" fill="#F8F8F8"/>
<path d="M8.77625 7.04297C6.936 7.76016 4.97038 8.15115 2.97181 8.15115C2.69662 8.15115 2.42037 8.13415 2.14412 8.11928C2.13669 8.24572 2.125 8.37109 2.125 8.49965C2.125 10.0647 2.69131 11.497 3.62738 12.6062C5.15844 10.7054 7.2165 9.34328 9.4945 8.65903C9.27244 8.1129 9.03231 7.57528 8.77625 7.04297Z" fill="#F8F8F8"/>
<path d="M10.9209 9.40109C11.4277 10.8142 11.8251 12.2667 12.1162 13.7478C13.5527 12.7565 14.5557 11.1914 14.8075 9.38303C13.5049 9.15247 12.1885 9.16309 10.9209 9.40109Z" fill="#F8F8F8"/>
<path d="M9.87708 9.64783C7.73508 10.2736 5.80027 11.5593 4.38184 13.3623C5.49321 14.3048 6.92865 14.8753 8.50008 14.8753C9.44358 14.8753 10.3371 14.665 11.1425 14.2963C10.8503 12.7089 10.4253 11.1555 9.87708 9.64783Z" fill="#F8F8F8"/>
</svg>
