<svg width="19" height="19" viewBox="0 0 19 19" fill="none" xmlns="http://www.w3.org/2000/svg">
<path d="M16.625 8.3125V5.9375H15.4375V8.3125H13.0625V9.5H15.4375V11.875H16.625V9.5H19V8.3125H16.625Z" fill="#F8F8F8"/>
<path d="M5.9375 8.3125V10.6875H9.29694C8.8065 12.0697 7.486 13.0625 5.9375 13.0625C3.97337 13.0625 2.375 11.4641 2.375 9.5C2.375 7.53587 3.97337 5.9375 5.9375 5.9375C6.78894 5.9375 7.60831 6.24269 8.24481 6.79725L9.80519 5.0065C8.73644 4.0755 7.36369 3.5625 5.9375 3.5625C2.66356 3.5625 0 6.22606 0 9.5C0 12.7739 2.66356 15.4375 5.9375 15.4375C9.21144 15.4375 11.875 12.7739 11.875 9.5V8.3125H5.9375Z" fill="#F8F8F8"/>
</svg>
