<svg width="17" height="17" viewBox="0 0 17 17" fill="none" xmlns="http://www.w3.org/2000/svg">
<path d="M4.3882 5.59631H0.97168V16.0999H4.3882V5.59631Z" fill="#F8F8F8"/>
<path d="M13.6944 5.71949C13.6581 5.70803 13.6238 5.69562 13.5856 5.68512C13.5397 5.67461 13.4939 5.66602 13.4471 5.65838C13.2657 5.6221 13.0671 5.59631 12.8341 5.59631C10.8422 5.59631 9.57894 7.04485 9.16262 7.6044V5.59631H5.74609V16.0999H9.16262V10.3707C9.16262 10.3707 11.7446 6.77462 12.8341 9.41579C12.8341 11.7734 12.8341 16.0999 12.8341 16.0999H16.2497V9.01188C16.2497 7.42489 15.1621 6.10239 13.6944 5.71949Z" fill="#F8F8F8"/>
<path d="M2.6427 4.16431C3.56558 4.16431 4.31372 3.41617 4.31372 2.49329C4.31372 1.57041 3.56558 0.822266 2.6427 0.822266C1.71982 0.822266 0.97168 1.57041 0.97168 2.49329C0.97168 3.41617 1.71982 4.16431 2.6427 4.16431Z" fill="#F8F8F8"/>
</svg>
