<svg width="16" height="16" viewBox="0 0 16 16" fill="none" xmlns="http://www.w3.org/2000/svg">
<path d="M8.00065 0C4.80549 0 2.20605 2.59944 2.20605 5.79456C2.20605 9.75981 7.39165 15.581 7.61243 15.8269C7.8198 16.0579 8.18187 16.0575 8.38886 15.8269C8.60965 15.581 13.7952 9.75981 13.7952 5.79456C13.7952 2.59944 11.1958 0 8.00065 0ZM8.00065 8.70997C6.39308 8.70997 5.08527 7.40213 5.08527 5.79456C5.08527 4.187 6.39312 2.87919 8.00065 2.87919C9.60818 2.87919 10.916 4.18703 10.916 5.79459C10.916 7.40216 9.60818 8.70997 8.00065 8.70997Z" fill="white"/>
</svg>
