<svg width="375" height="1366" viewBox="0 0 375 1366" fill="none" xmlns="http://www.w3.org/2000/svg">
<path d="M375 0H0V1477.8H375V0Z" fill="white"/>
<rect width="375" height="1366" fill="url(#paint0_linear)"/>
<g style="mix-blend-mode:overlay" opacity="0.75">
<g style="mix-blend-mode:overlay" opacity="0.75">
<path d="M242.159 71.7542L182.382 105.809L73.2288 42.8286L26.0263 69.6749L-12.9931 47.1721L-50.1633 68.3349L-161.859 3.87616L-229.449 -113.12L-303.79 -156V-149.115L-231.946 -107.667L-170.365 -1.02177L-316.272 -85.2109V-78.3261L-103.746 44.3073L-161.258 77.1142L-243.088 29.8907L-277.392 49.39L-308.043 31.739V38.6238L-274.941 57.7535L-240.637 38.2079L-158.808 85.4315L-95.3778 49.3438L-47.713 76.6522L-10.5428 55.4894L113.127 126.833L162.733 212.824L78.1294 261.018L42.7159 199.655L-68.4248 135.52L-113.362 161.165L-184.466 120.133V127.018L-110.865 169.482L-65.9745 143.837L40.2195 205.108L73.8299 263.421L14.8846 297.06L-88.7667 237.221L-146.787 270.306L-319 170.914V177.845L-144.337 278.623L-86.3164 245.631L17.3348 305.423L39.4335 292.808L92.0913 383.929L158.896 422.511L212.386 515.156L319.181 576.75V569.865L214.929 509.658L161.392 417.059L94.5878 378.476L43.6868 290.359L166.986 220.125L206.931 289.251L312.292 350.059L312.339 343.174L209.427 283.798L115.623 121.381L34.533 74.6191L75.6791 51.1459L184.832 114.126L244.609 80.0715L312.94 119.532L312.986 112.647L242.159 71.7542Z" fill="white" fill-opacity="0.2"/>
</g>
</g>
<g opacity="0.2">
<g style="mix-blend-mode:overlay" opacity="0.75">
<g style="mix-blend-mode:overlay" opacity="0.75">
<path d="M630.978 966.754L571.201 1000.81L462.048 937.829L414.845 964.675L375.826 942.172L338.656 963.335L226.96 898.876L159.37 781.88L85.0293 739V745.885L156.873 787.333L218.454 893.978L72.5467 809.789V816.674L285.073 939.307L227.561 972.114L145.731 924.891L111.428 944.39L80.776 926.739V933.624L113.878 952.754L148.182 933.208L230.012 980.431L293.441 944.344L341.106 971.652L378.276 950.489L501.946 1021.83L551.552 1107.82L466.948 1156.02L431.535 1094.66L320.394 1030.52L275.457 1056.16L204.353 1015.13V1022.02L277.954 1064.48L322.845 1038.84L429.039 1100.11L462.649 1158.42L403.704 1192.06L300.052 1132.22L242.032 1165.31L69.8191 1065.91V1072.85L244.482 1173.62L302.503 1140.63L406.154 1200.42L428.253 1187.81L480.91 1278.93L547.715 1317.51L601.205 1410.16L708 1471.75V1464.87L603.748 1404.66L550.212 1312.06L483.407 1273.48L432.506 1185.36L555.806 1115.12L595.75 1184.25L701.112 1245.06L701.158 1238.17L598.246 1178.8L504.442 1016.38L423.352 969.619L464.498 946.146L573.651 1009.13L633.428 975.071L701.759 1014.53L701.805 1007.65L630.978 966.754Z" fill="white"/>
</g>
</g>
<g style="mix-blend-mode:overlay">
<g style="mix-blend-mode:overlay">
<path d="M265.749 856.966V862.65C265.753 863.415 265.556 864.167 265.177 864.831C264.797 865.495 264.249 866.048 263.588 866.432C262.926 866.817 262.175 867.02 261.41 867.021C260.645 867.022 259.893 866.821 259.23 866.439L232.416 850.96C231.74 850.597 231.175 850.057 230.784 849.397C230.393 848.738 230.19 847.984 230.197 847.217V841.533C230.263 840.798 230.505 840.09 230.902 839.468C231.298 838.845 231.838 838.327 232.477 837.956C233.115 837.585 233.833 837.372 234.57 837.335C235.308 837.299 236.043 837.439 236.715 837.744L263.576 853.224C264.234 853.603 264.78 854.149 265.162 854.805C265.543 855.462 265.745 856.207 265.749 856.966Z" fill="white"/>
</g>
<g style="mix-blend-mode:overlay">
<path d="M350.768 933.855V939.538C350.773 940.303 350.576 941.056 350.197 941.72C349.817 942.384 349.269 942.936 348.608 943.32C347.946 943.705 347.195 943.908 346.43 943.909C345.664 943.91 344.912 943.71 344.25 943.327L232.416 879.238C231.758 878.859 231.211 878.313 230.83 877.657C230.448 877 230.246 876.255 230.243 875.495V869.766C230.237 869.006 230.432 868.259 230.809 867.599C231.186 866.94 231.731 866.392 232.389 866.011C233.047 865.631 233.794 865.432 234.554 865.434C235.314 865.436 236.059 865.639 236.715 866.023L348.596 930.112C349.257 930.488 349.806 931.033 350.188 931.69C350.569 932.348 350.77 933.095 350.768 933.855Z" fill="white"/>
</g>
</g>
</g>
<defs>
<linearGradient id="paint0_linear" x1="-10.9375" y1="-1.32249e-05" x2="372.631" y2="59.0932" gradientUnits="userSpaceOnUse">
<stop stop-color="#1D0553"/>
<stop offset="1" stop-color="#3C065D"/>
</linearGradient>
</defs>
</svg>
