<svg width="16" height="26" viewBox="0 0 16 26" fill="none" xmlns="http://www.w3.org/2000/svg">
<path d="M11.4607 18.9256C11.3898 18.7801 11.2341 18.6875 11.0626 18.6875H9.31255V13.4062C9.31255 13.182 9.11655 13 8.87505 13H7.12505C6.88355 13 6.68755 13.182 6.68755 13.4062V18.6875H4.93755C4.76605 18.6875 4.6103 18.7809 4.53943 18.9256C4.46768 19.071 4.49568 19.2408 4.60855 19.3611L7.67105 22.6111C7.75418 22.6996 7.87405 22.75 8.00005 22.75C8.12605 22.75 8.24593 22.6988 8.32905 22.6111L11.3916 19.3611C11.5053 19.2416 11.5316 19.071 11.4607 18.9256Z" fill="white"/>
<path d="M12.8125 21.9375V24.375H3.1875V21.9375H1.4375V25.1875C1.4375 25.6368 1.8295 26 2.3125 26H13.6875C14.1714 26 14.5625 25.6368 14.5625 25.1875V21.9375H12.8125Z" fill="white"/>
<path d="M4.76172 5.10547C4.76172 5.74349 4.57292 6.23698 4.19531 6.58594C3.82031 6.93229 3.28646 7.10547 2.59375 7.10547H2.16016V9H0.617188V3.28906H2.59375C3.3151 3.28906 3.85677 3.44661 4.21875 3.76172C4.58073 4.07682 4.76172 4.52474 4.76172 5.10547ZM2.16016 5.84766H2.44141C2.67318 5.84766 2.85677 5.78255 2.99219 5.65234C3.13021 5.52214 3.19922 5.34245 3.19922 5.11328C3.19922 4.72786 2.98568 4.53516 2.55859 4.53516H2.16016V5.84766ZM10.5195 6.02344C10.5195 6.97656 10.2565 7.71094 9.73047 8.22656C9.20703 8.74219 8.47005 9 7.51953 9H5.67188V3.28906H7.64844C8.5651 3.28906 9.27214 3.52344 9.76953 3.99219C10.2695 4.46094 10.5195 5.13802 10.5195 6.02344ZM8.91797 6.07812C8.91797 5.55469 8.8138 5.16667 8.60547 4.91406C8.39974 4.66146 8.08594 4.53516 7.66406 4.53516H7.21484V7.73438H7.55859C8.02734 7.73438 8.37109 7.59896 8.58984 7.32812C8.80859 7.05469 8.91797 6.63802 8.91797 6.07812ZM13.0664 9H11.5469V3.28906H14.9219V4.52734H13.0664V5.61719H14.7773V6.85547H13.0664V9Z" fill="white"/>
</svg>
