<svg width="103" height="90" viewBox="0 0 103 90" fill="none" xmlns="http://www.w3.org/2000/svg">
<g clip-path="url(#clip0)">
<g opacity="0.1">
<path opacity="0.1" d="M17.3229 31.688C21.3213 33.9972 21.3316 37.7563 17.3745 40.0656C15.1486 41.2066 12.6854 41.8014 10.1866 41.8014C7.68786 41.8014 5.22465 41.2066 2.99877 40.0656C-0.979023 37.7563 -0.999633 34.0076 2.99877 31.6983C5.21816 30.5675 7.67122 29.9773 10.1596 29.9755C12.648 29.9737 15.1019 30.5603 17.3229 31.688Z" fill="black"/>
</g>
<path d="M11.3398 7.18719C11.337 7.17631 11.3357 7.1657 11.3357 7.15569L11.3398 7.18719Z" fill="#73C139"/>
<path opacity="0.1" d="M41.7152 32.8582L103 68.4191L66.056 90L4.77124 54.4391L41.7152 32.8582Z" fill="black"/>
<path d="M39.6335 33.0549V35.737L31.1421 40.6973V38.0256L39.6335 33.0549Z" fill="#323A3B"/>
<path d="M50.083 39.1129L50.0727 41.7846L39.6335 35.737V33.0549L50.083 39.1129Z" fill="#232829"/>
<path d="M50.083 39.1129L50.0727 41.7846L41.5813 46.7553L41.5916 44.0732L50.083 39.1129Z" fill="#1D1F1F"/>
<path d="M41.5915 44.0732L41.5812 46.7553L31.1421 40.6973V38.0256L41.5915 44.0732Z" fill="#141515"/>
<path d="M13.4276 48.3604V51.0425L10.6143 52.6787L10.6246 50.0069L13.4276 48.3604Z" fill="#323A3B"/>
<path d="M23.8667 54.4288L23.8564 57.1005L13.4276 51.0425V48.3604L23.8667 54.4288Z" fill="#232829"/>
<path d="M23.8666 54.4288L21.0636 56.0546L10.6245 50.0069L13.4275 48.3604L23.8666 54.4288Z" fill="#40075C"/>
<path d="M21.0637 56.0546L21.0534 58.7366L10.6143 52.6787L10.6246 50.0069L21.0637 56.0546Z" fill="#141515"/>
<path d="M23.8667 54.4287L23.8563 57.1005L21.0533 58.7366L21.0637 56.0546L23.8667 54.4287Z" fill="#1D1F1F"/>
<path d="M52.5562 40.542L52.5459 43.224L22.8671 60.5592V57.8771L52.5562 40.542Z" fill="#323A3B"/>
<path d="M91.8498 63.3449V66.0269L52.5459 43.224L52.5562 40.542L91.8498 63.3449Z" fill="#232829"/>
<path d="M62.1709 80.6697L62.1606 83.3518L22.8671 60.5592V57.8771L62.1709 80.6697Z" fill="#303637"/>
<path d="M91.8498 63.3448V66.0269L62.1606 83.3518L62.171 80.6697L91.8498 63.3448Z" fill="#454E4F"/>
<path d="M91.8498 63.3449L62.1709 80.6697L22.8671 57.8771L52.5562 40.542L91.8498 63.3449Z" fill="#280556"/>
<path d="M39.6748 30.7249L96.6211 63.7694L62.2946 83.8178L5.33801 50.7422L39.6748 30.7249ZM62.1709 80.6697L91.8498 63.3449L52.5562 40.542L22.8671 57.8771L62.1709 80.6593V80.6697ZM41.5606 44.0732L50.0521 39.1129L39.6336 33.0549L31.1421 38.0256L41.5915 44.0732H41.5606ZM21.0637 56.0546L23.8667 54.4287L13.3966 48.3708L10.5936 50.0069L21.0328 56.0546H21.0637Z" fill="white"/>
<path d="M50.083 39.1129L41.5915 44.0732L31.1421 38.0256L39.6335 33.0549L50.083 39.1129Z" fill="#40075C"/>
<path d="M96.6211 63.7694L96.6108 66.4412L62.2843 86.4895L62.2946 83.8178L96.6211 63.7694Z" fill="#E1E1E1"/>
<path d="M62.2946 83.8178L62.2843 86.4895L5.33801 53.4553V50.7733L62.2946 83.8178Z" fill="#E1E1E1"/>
<path opacity="0.1" d="M51.5772 55.485C45.3426 59.1301 45.2705 65.0432 51.5257 68.6883C57.7809 72.3335 67.9212 72.3335 74.1971 68.6883C80.4729 65.0432 80.5038 59.1301 74.2692 55.4953C68.0346 51.8606 57.8634 51.8502 51.5772 55.485Z" fill="#E966EC"/>
<path d="M48.0735 29.824C47.5047 30.5363 47.0012 31.2988 46.5689 32.1022C46.4555 32.5785 45.8888 34.5668 46.8781 35.9234C47.4139 36.6483 47.7025 35.6231 47.8364 34.2872C47.8046 33.9589 47.8581 33.6278 47.9918 33.3265C48.1254 33.0252 48.3347 32.7639 48.599 32.5682C49.1868 32.0145 49.6749 31.3629 50.0417 30.6421C50.2891 30.1346 48.0735 29.824 48.0735 29.824Z" fill="#EFB185"/>
<path d="M50.0211 30.7352C49.5783 31.371 49.231 32.0689 48.9906 32.8064C48.8566 33.6969 47.9086 33.6555 47.8467 34.2561C47.7437 35.2917 47.517 36.1616 47.1872 36.1408C47.3315 35.3538 46.4143 34.7636 47.383 32.941C47.9933 31.981 48.728 31.1069 49.5677 30.3417C49.9593 30.5281 50.1139 30.5488 50.0211 30.7352Z" fill="#E6A376"/>
<path d="M49.4646 30.3314C49.4646 30.3314 49.1967 32.8685 49.0009 33.6245C48.8051 34.3804 48.362 34.8257 48.2692 34.66C48.1765 34.4943 48.6196 32.2265 47.7952 32.2886C47.4036 32.3197 49.341 30.6835 49.4646 30.3314Z" fill="#EFB185"/>
<path d="M55.3386 9.79635C55.3386 9.79635 52.8035 9.23715 51.8039 14.3114C50.8043 19.3856 50.8353 21.3531 50.1242 23.0929C49.4131 24.8326 47.4861 30.4867 47.4861 30.4867C47.9314 30.5057 48.366 30.63 48.7546 30.8496C49.1432 31.0691 49.4747 31.3776 49.7223 31.7501C49.7223 31.7501 53.8444 24.7601 54.576 21.6845C55.3077 18.6089 57.9973 11.1633 55.3386 9.79635Z" fill="#40075C"/>
<path d="M50.1242 23.0929C50.8353 21.3531 50.8147 19.3752 51.804 14.3114C52.3501 11.5465 53.3394 10.4591 54.1432 10.0345C56.5546 11.5982 54.0093 18.8264 53.2364 21.8399C52.113 25.0258 50.7345 28.1149 49.1143 31.077C48.6353 30.7126 48.0557 30.5064 47.4552 30.4867C47.4552 30.4867 49.3926 24.8533 50.1242 23.0929Z" fill="#820B82"/>
<path d="M62.3771 56.3859C62.3771 56.3859 63.0469 57.9703 62.3771 58.3742C61.7072 58.7781 61.6145 59.2337 60.5324 59.1405C59.4504 59.0473 59.6153 59.4097 59.2443 59.8136C58.8733 60.2175 55.0604 61.8847 54.339 61.077C53.6177 60.2693 55.6375 59.3165 56.4001 58.8402C57.4266 58.0682 58.2711 57.0782 58.8733 55.9406C58.8733 55.3918 62.3771 56.3859 62.3771 56.3859Z" fill="#111114"/>
<path d="M62.377 58.3742C61.6969 58.778 61.6145 59.2337 60.5324 59.1405C59.4504 59.0473 59.6153 59.4097 59.2443 59.8136C58.8733 60.2175 55.0604 61.8847 54.339 61.077C54.2861 61.0179 54.2456 60.9486 54.22 60.8734C54.1944 60.7981 54.1841 60.7185 54.1899 60.6392C54.1957 60.5599 54.2174 60.4825 54.2536 60.4119C54.2899 60.3412 54.3399 60.2786 54.4009 60.2278L55.5241 60.4246C56.6474 60.6213 58.0901 59.3165 58.6157 58.8402C59.1412 58.3638 59.8729 58.5399 60.8416 58.3845C61.8103 58.2292 61.666 56.738 61.666 56.738L62.3874 56.4895C62.5522 56.8416 62.9438 57.991 62.377 58.3742Z" fill="#0A0A0A"/>
<path d="M69.1888 61.5119C69.345 62.4934 69.1937 63.4994 68.756 64.3908C68.0449 65.4263 66.4682 67.1557 65.7984 67.0729C65.1286 66.99 65.0049 66.6897 65.0049 66.6897C64.8514 65.6747 64.9253 64.6381 65.2213 63.6555C65.4839 62.9649 65.6638 62.2453 65.7572 61.5119H69.1888Z" fill="#111114"/>
<path d="M68.756 64.3908C68.0557 65.4489 67.143 66.3483 66.0767 67.0314C67.1072 65.7266 65.5717 65.9959 66.7053 65.3745C68.2717 64.5254 67.2721 63.8109 67.9625 63.6141C68.6529 63.4174 68.148 61.688 68.148 61.688L68.5293 61.5119H69.1888C69.345 62.4934 69.1937 63.4994 68.756 64.3908Z" fill="#0A0A0A"/>
<path d="M60.924 31.1495C60.924 31.1495 57.7088 30.7974 56.6783 28.4156C56.5245 32.2162 56.6416 36.0229 57.0286 39.8067C57.6779 45.9165 58.224 56.6552 58.224 56.6552C58.7963 57.1909 59.5493 57.4888 60.3314 57.4888C61.1135 57.4888 61.8666 57.1909 62.4388 56.6552C62.4388 56.6552 63.0365 49.5616 62.4388 45.6369C62.4388 45.6369 62.8407 38.7608 62.1709 35.2813C61.5011 31.8019 60.924 31.1495 60.924 31.1495Z" fill="#EA49BD"/>
<path d="M58.1931 56.6241C58.1931 56.6241 57.6469 45.8854 56.9977 39.7756C56.6085 35.7357 56.4674 31.6756 56.5752 27.6182C57.3552 29.2003 58.6974 30.4308 60.3366 31.0666C60.2645 33.3966 60.0377 40.2623 60.079 42.5406C60.1202 44.8188 60.5324 53.7142 60.7179 57.494C60.2604 57.5276 59.8009 57.4678 59.367 57.3183C58.9331 57.1688 58.5338 56.9327 58.1931 56.6241Z" fill="#FF61CB"/>
<path d="M68.4571 30.7767C68.4571 30.7767 68.7663 34.3493 68.8384 39.8999C68.7963 42.7389 68.9962 45.5764 69.4361 48.3811C69.7772 52.6522 69.8907 56.9386 69.7762 61.222C69.7762 61.222 68.0346 63.9351 65.2832 61.222C65.2832 61.222 64.8194 51.7156 64.3454 49.5409C63.8713 47.3662 61.2538 36.8554 60.2233 33.086C59.7596 31.4187 59.6462 30.7767 59.6462 30.7767C59.6462 30.7767 64.2423 34.1733 68.4571 30.7767Z" fill="#EA49BD"/>
<path d="M65.2831 61.2219C65.2831 61.2219 64.8194 51.7156 64.3453 49.5409C63.8713 47.3662 61.2538 36.8554 60.2233 33.086C59.8985 32.0096 59.374 31.0047 58.6775 30.1243C58.6775 30.1243 61.769 32.2679 64.3453 32.2679C64.4587 33.0756 65.5716 40.8526 65.8293 44.2389C66.0869 47.6251 68.3849 59.4615 67.7666 62.4335C67.2917 62.4154 66.8258 62.2984 66.3983 62.0898C65.9708 61.8812 65.591 61.5857 65.2831 61.2219Z" fill="#FF61CB"/>
<path d="M61.2847 9.10254C61.2847 9.10254 66.5094 10.8733 66.6846 11.2358C66.8598 11.5982 68.2509 12.2713 67.0762 16.8588C67.0762 16.8588 65.3449 21.8813 67.2307 26.3549C67.774 27.7066 68.4182 29.0151 69.1578 30.2693C69.1578 30.2693 67.4678 33.8005 61.0786 32.4543C59.3507 31.9638 57.8146 30.9516 56.6783 29.5547C56.5834 26.6334 56.0946 23.7385 55.2252 20.9493C53.7825 16.4032 52.4738 10.4281 54.9882 9.23716C54.9882 9.23716 55.5447 8.33623 61.2847 9.10254Z" fill="#820B82"/>
<path d="M60.0069 5.1778C60.0069 5.1778 59.4298 7.85988 61.0992 8.87472C62.0267 9.43392 61.3053 11.9193 58.7496 12.7373C58.7496 12.7373 57.5336 12.8927 57.4924 12.4474C57.3894 11.4118 56.8226 11.0494 56.1527 10.4902C55.4829 9.93099 60.0069 5.1778 60.0069 5.1778Z" fill="#EFB185"/>
<path d="M61.0992 8.84366C61.2077 8.91286 61.2965 9.00921 61.3568 9.12326C60.352 8.79635 59.2701 8.79635 58.2653 9.12326L59.6152 5.57131L59.811 5.3642L59.9759 5.56095C59.8626 6.41011 59.8523 8.0877 61.0992 8.84366Z" fill="#DD9569"/>
<path d="M60.0687 3.74871C60.0687 3.74871 60.553 6.85537 59.1 8.85399C57.8324 10.6559 56.1218 12.1781 54.9779 10.2623C54.0504 8.75043 51.6493 4.88782 52.7623 3.48982C54.1844 1.69831 54.3493 0.103556 56.7916 0.0621338C57.689 0.174735 58.5155 0.610231 59.118 1.28801C59.7204 1.96579 60.0582 2.83996 60.0687 3.74871Z" fill="#EFB185"/>
<path d="M60.0687 3.74872C60.2613 4.63118 60.2775 5.54328 60.1165 6.4321C59.9556 7.32092 59.6206 8.16878 59.131 8.92649C58.7572 9.45062 58.325 9.93009 57.8428 10.3556C58.3009 9.62791 58.6482 8.8356 58.8733 8.00485C59.2546 6.96929 57.6367 7.91165 58.018 5.34347C58.152 4.47361 56.5135 6.17192 56.0703 6.37903C53.4013 7.33174 52.9788 5.73698 52.7109 5.11565C52.6593 4.82851 52.6317 4.53754 52.6284 4.24579L52.6903 3.66588C52.6949 3.61075 52.6949 3.55532 52.6903 3.50019C52.8239 3.06401 52.9892 2.63829 53.1849 2.22646C54.3803 1.80188 57.6161 0.610992 57.7089 0.610992C57.8016 0.610992 58.5951 1.13912 59.3886 1.64655C59.7787 2.28282 60.0119 3.00356 60.0687 3.74872Z" fill="#E6A376"/>
<path d="M59.9553 6.93823C60.3419 6.0832 60.5032 5.14266 60.4238 4.20693C60.3444 3.27119 60.027 2.37169 59.5019 1.59477C59.0902 0.979714 58.4968 0.509975 57.8054 0.25174C57.114 -0.00649529 56.3593 -0.040209 55.6478 0.155349C54.6988 0.336117 53.8464 0.854249 53.2465 1.61491C52.6466 2.37558 52.3394 3.3279 52.3811 4.29756C52.3811 5.17779 52.9788 6.73112 55.6478 4.79463C56.0291 4.51503 57.1008 3.92477 57.647 4.13188C57.9189 4.27932 58.1447 4.49968 58.2993 4.76844C58.454 5.0372 58.5314 5.3438 58.5229 5.65414C58.5229 6.22369 59.0073 6.10978 59.0279 5.97516C59.0485 5.84054 59.0279 4.18365 59.8214 4.53574C60.6149 4.88783 59.976 6.82432 59.9553 6.93823Z" fill="#341C09"/>
<path d="M59.9554 6.93822C59.9554 6.8243 60.45 4.86711 59.7699 4.51502C59.0898 4.16293 58.997 5.83017 58.9764 5.95444C58.9558 6.07871 58.5024 6.20297 58.4715 5.63342C58.4742 5.32831 58.3941 5.02823 58.2397 4.76547C58.0854 4.50271 57.8627 4.28723 57.5955 4.14222C57.1009 3.95582 56.1734 4.50466 55.5963 4.80497C55.9673 4.29755 56.9154 3.76942 56.9463 2.83742C56.92 2.3703 56.999 1.90324 57.1774 1.4711C57.3558 1.03896 57.6291 0.652898 57.9768 0.341736C58.5915 0.618753 59.1163 1.06368 59.4917 1.62582C60.0129 2.39829 60.3291 3.29176 60.4102 4.22149C60.4914 5.15121 60.3348 6.08636 59.9554 6.93822Z" fill="#221101"/>
<path d="M55.7612 4.80499C56.2226 4.4438 56.6046 3.9905 56.883 3.47364C57.1615 2.95679 57.3304 2.38758 57.3791 1.80188C57.3802 1.5206 57.4503 1.24393 57.5834 0.996446C57.7164 0.748958 57.9082 0.5383 58.1417 0.38317C57.5559 0.0906345 56.9065 -0.0493924 56.2529 -0.0240614C55.5993 0.00126955 54.9625 0.191147 54.4009 0.528148C53.5035 1.09199 52.7877 1.90482 52.3399 2.8685C51.5258 4.56681 52.6902 7.13498 55.7612 4.80499Z" fill="#341C09"/>
<path d="M66.6846 11.2358C66.8598 11.5879 68.251 12.2713 67.0762 16.8588C67.0762 16.8588 65.3449 21.8813 67.2308 26.3549C67.774 27.7066 68.4182 29.0151 69.1578 30.2693C68.7684 30.8934 68.2471 31.4238 67.631 31.8229C67.0148 32.222 66.3188 32.48 65.5923 32.5786C64.0465 28.7159 63.2839 21.4567 62.5935 16.4964C62.38 15.3807 62.4271 14.2304 62.7311 13.136C63.0351 12.0417 63.5877 11.0332 64.3453 10.1899C65.167 10.4349 65.9534 10.7865 66.6846 11.2358Z" fill="#40075C"/>
<path d="M63.5106 12.1056C63.6961 10.718 65.5716 9.09218 67.1586 11.8468C68.7456 14.6013 71.8166 23.3414 70.7036 24.6048C70.2605 25.1018 69.4876 25.7128 68.7662 25.2158C67.6327 24.4598 66.5094 22.1091 66.0663 20.7732C65.3449 18.64 63.3457 13.4622 63.5106 12.1056Z" fill="#820B82"/>
<path d="M35.8 58.6227L46.1979 51.115L43.9308 52.4508L35.8 58.6227Z" fill="#AAC6C3"/>
<path d="M35.8 58.6227L43.9308 52.4508L38.6958 47.4595L35.8 58.6227Z" fill="#E1E1E1"/>
<path d="M69.1063 16.1443L43.9308 52.4508L46.1979 51.115L71.3425 14.7877L69.1063 16.1443Z" fill="#D8D8D8"/>
<path d="M65.3347 14.3321L40.1592 50.6283L43.9309 52.4508L69.1064 16.1443L65.3347 14.3321Z" fill="white"/>
<path d="M63.8404 11.1219L38.6958 47.4594L40.1591 50.6282L65.3346 14.3321L63.8404 11.1219Z" fill="#E1E1E1"/>
<path d="M65.3346 14.3321L69.1063 16.1443L71.3425 14.7877L69.8482 11.6086L66.0869 9.77563L63.8403 11.1219L65.3346 14.3321Z" fill="#A9D5E0"/>
<path d="M66.8701 13.5761L68.5292 14.3735L69.5082 13.7936L68.8384 12.3852L67.1896 11.5671L66.2106 12.1574L66.8701 13.5761Z" fill="#DEF6FF"/>
<path d="M35.8 58.6227L40.1591 50.6283L38.6958 47.4595L35.8 58.6227Z" fill="#C2C2C2"/>
<path d="M36.7069 56.9969L35.8 58.6227L36.3874 56.3756L36.7069 56.9969Z" fill="#5A5C5D"/>
<path d="M36.7069 56.9969L37.5107 57.4111L35.8 58.6227L36.7069 56.9969Z" fill="#6D6F70"/>
<path d="M61.0065 26.6759C60.2321 26.7928 59.4431 26.7683 58.6775 26.6034C58.2756 26.3238 57.75 26.7898 58.2653 27.0901C58.6343 27.2744 59.0385 27.3768 59.4504 27.3904C59.4504 27.3904 57.3069 28.1257 56.9359 27.5458C56.565 26.9658 57.1833 29.3062 58.2859 29.4719C59.3886 29.6376 60.5427 30.0207 62.2534 27.7943C62.1418 27.5262 61.9719 27.2865 61.7561 27.093C61.5404 26.8995 61.2842 26.757 61.0065 26.6759Z" fill="#E6A376"/>
<path d="M70.8169 24.2113C70.8169 24.2113 68.0139 28.0118 61.4289 28.7573C61.4773 28.3896 61.436 28.0155 61.3085 27.6673C61.1811 27.3191 60.9713 27.0073 60.6973 26.7587C60.6973 26.7587 71.4868 17.6044 70.8169 24.2113Z" fill="#820B82"/>
</g>
<defs>
<clipPath id="clip0">
<rect width="103" height="90" fill="white"/>
</clipPath>
</defs>
</svg>
