<svg width="67" height="67" viewBox="0 0 67 67" fill="none" xmlns="http://www.w3.org/2000/svg">
<path d="M57.0705 28.7857V12.2857C57.0705 10.9838 56.0152 9.92847 54.7134 9.92847H38.2135C38.2135 4.72131 33.9922 0.5 28.7849 0.5C23.5776 0.5 19.3562 4.72131 19.3562 9.92861H2.85635C1.55449 9.92861 0.499162 10.9839 0.499162 12.2857V32.9766C0.499576 34.2785 1.55518 35.3335 2.8569 35.3331C3.43905 35.333 4.00048 35.1174 4.43319 34.7279C6.35864 32.9752 9.34024 33.1153 11.0929 35.0407C12.8456 36.9662 12.7055 39.9478 10.7801 41.7004C8.98128 43.3379 6.23199 43.3379 4.43319 41.7004C3.46557 40.8295 1.97518 40.9079 1.10424 41.8754C0.714757 42.3081 0.499162 42.8696 0.499023 43.4517V64.1428C0.499023 65.4446 1.55435 66.5 2.85621 66.5H23.5472C24.849 66.4997 25.9041 65.4441 25.9037 64.1422C25.9035 63.5601 25.6879 62.9987 25.2985 62.5659C23.5458 60.6405 23.6858 57.6589 25.6113 55.9062C27.5367 54.1536 30.5183 54.2936 32.271 56.2191C33.9085 58.0179 33.9085 60.7672 32.271 62.5659C31.4 63.5336 31.4785 65.024 32.446 65.8949C32.8787 66.2844 33.4401 66.5 34.0223 66.5001H54.7132C56.0151 66.5001 57.0704 65.4448 57.0704 64.1429V47.6428C62.2777 47.6428 66.499 43.4215 66.499 38.2142C66.499 33.0069 62.2779 28.7857 57.0705 28.7857ZM57.0705 42.9285C56.5341 42.9205 56.0031 42.8201 55.5008 42.6316C54.2737 42.1968 52.9264 42.839 52.4917 44.066C52.4022 44.3184 52.3565 44.5842 52.3563 44.8519V61.7856H37.907C38.1107 61.0164 38.2137 60.2241 38.2135 59.4284C38.2135 54.2211 33.9922 49.9998 28.7849 49.9998C23.5776 49.9998 19.3562 54.2211 19.3562 59.4284C19.356 60.2241 19.459 61.0164 19.6627 61.7856H5.2134V47.3364C5.98255 47.5401 6.77491 47.6432 7.57058 47.6429C12.7779 47.6429 16.9992 43.4216 16.9992 38.2143C16.9992 33.007 12.7779 28.7857 7.57058 28.7857C6.77491 28.7854 5.98255 28.8884 5.2134 29.0922V14.6428H22.1471C23.449 14.6422 24.5036 13.5861 24.5029 12.2844C24.5028 12.0166 24.4569 11.7509 24.3676 11.4984C24.179 10.9961 24.0785 10.465 24.0706 9.92861C24.0706 7.32503 26.1813 5.21437 28.7849 5.21437C31.3884 5.21437 33.4991 7.32503 33.4991 9.92861C33.4911 10.465 33.3907 10.9961 33.2021 11.4984C32.7674 12.7254 33.4096 14.0727 34.6366 14.5075C34.8889 14.597 35.1548 14.6427 35.4225 14.6428H52.3562V31.5765C52.3569 32.8784 53.4129 33.933 54.7146 33.9324C54.9824 33.9322 55.2481 33.8864 55.5005 33.797C56.0028 33.6085 56.5338 33.5079 57.0703 33.5001C59.6739 33.5001 61.7845 35.6107 61.7845 38.2143C61.7845 40.8179 59.6741 42.9285 57.0705 42.9285Z" fill="#2943C7"/>
</svg>
