<svg width="153" height="152" viewBox="0 0 153 152" fill="none" xmlns="http://www.w3.org/2000/svg">
<g clip-path="url(#clip0)">
<path d="M143.149 134.084L120.824 95.4168C121.626 94.4825 122.715 93.7914 123.987 93.4916C127.504 92.663 130.42 90.3208 131.987 87.0656C133.555 83.8105 133.568 80.0703 132.023 76.8045C130.841 74.3049 131.517 71.3442 133.667 69.6052C136.476 67.3327 138.087 63.9573 138.087 60.3445C138.087 56.7316 136.476 53.3559 133.667 51.0837C131.517 49.3447 130.841 46.3841 132.023 43.8844C133.568 40.6183 133.555 36.8781 131.987 33.623C130.42 30.3679 127.504 28.0256 123.987 27.197C121.296 26.5629 119.402 24.1889 119.383 21.4236C119.358 17.8107 117.723 14.4466 114.898 12.194C112.074 9.94141 108.43 9.09623 104.902 9.8758C102.202 10.4719 99.4661 9.15472 98.249 6.67173C96.6587 3.42758 93.7266 1.1058 90.2039 0.301884C86.681 -0.502326 83.032 0.317617 80.1916 2.55034C78.0179 4.2594 74.9813 4.2594 72.8073 2.55034C69.9669 0.317617 66.3178 -0.501732 62.7952 0.301884C59.2726 1.1058 56.3405 3.42758 54.7502 6.67173C53.533 9.15472 50.7962 10.4728 48.0971 9.8758C44.5691 9.09683 40.9254 9.94141 38.101 12.194C35.2764 14.4466 33.6418 17.8107 33.6166 21.4236C33.5973 24.1886 31.7039 26.5629 29.0122 27.197C25.4955 28.0256 22.5794 30.3679 21.012 33.623C19.4442 36.8781 19.4314 40.6183 20.976 43.8841C22.1585 46.3838 21.4828 49.3444 19.3329 51.0834C16.5239 53.3559 14.9129 56.7313 14.9129 60.3442C14.9129 63.957 16.5239 67.3327 19.3329 69.6049C21.4828 71.3439 22.1585 74.3046 20.976 76.8042C19.4312 80.0703 19.4442 83.8105 21.012 87.0656C22.5794 90.3208 25.4955 92.663 29.0125 93.4916C30.2843 93.7911 31.3741 94.4825 32.1759 95.4168L9.85129 134.084C9.25014 135.126 9.33653 136.427 10.0698 137.38C10.8033 138.332 12.0389 138.748 13.1993 138.434L28.7483 134.215L32.8697 149.79C33.1772 150.953 34.1557 151.815 35.3476 151.974C35.4791 151.991 35.6103 152 35.7407 152C36.7907 152 37.7757 151.442 38.3106 150.515L57.3599 117.521C58.8686 118.918 60.729 119.915 62.7958 120.387C66.3178 121.19 69.9675 120.371 72.8082 118.139C74.9819 116.43 78.0185 116.43 80.1924 118.139C82.318 119.809 84.896 120.689 87.5354 120.689C88.423 120.689 89.3181 120.59 90.2045 120.387C92.2713 119.915 94.1321 118.918 95.6404 117.521L114.69 150.515C115.225 151.442 116.21 152 117.26 152C117.39 152 117.521 151.991 117.653 151.974C118.845 151.815 119.823 150.953 120.131 149.79L124.252 134.215L139.801 138.434C140.961 138.749 142.197 138.332 142.931 137.38C143.664 136.427 143.75 135.126 143.149 134.084ZM36.7681 141.313L33.724 129.809C33.5216 129.045 33.0231 128.393 32.3386 127.997C31.6537 127.602 30.84 127.496 30.0771 127.703L18.5925 130.819L34.4018 103.437C35.1499 105.397 36.4104 107.146 38.1016 108.495C40.9263 110.748 44.5703 111.593 48.0977 110.813C50.09 110.373 52.1 110.978 53.5069 112.321L36.7681 141.313ZM88.8832 114.599C87.1157 115.002 85.2861 114.591 83.8617 113.471C81.6943 111.767 79.0976 110.916 76.5 110.916C73.903 110.916 71.3052 111.768 69.1384 113.471C67.714 114.591 65.8844 115.002 64.1169 114.599C62.3502 114.196 60.8795 113.031 60.0819 111.404C57.6553 106.453 52.1998 103.826 46.8167 105.016C45.0471 105.407 43.2199 104.983 41.8032 103.853C40.3866 102.723 39.5667 101.036 39.5539 99.2238C39.5156 93.7107 35.7407 88.9772 30.3742 87.7128C28.6102 87.2972 27.1479 86.1225 26.3615 84.4897C25.5754 82.857 25.5688 80.9814 26.3437 79.343C28.7008 74.3592 27.3536 68.4566 23.0672 64.9892C21.6582 63.8496 20.8505 62.1565 20.8505 60.3445C20.8505 58.5324 21.6585 56.8394 23.0675 55.6997C27.3536 52.2323 28.7011 46.3297 26.3437 41.3456C25.5688 39.7075 25.5754 37.8316 26.3618 36.1992C27.1479 34.5664 28.6105 33.3917 30.3742 32.9761C35.7407 31.7118 39.5156 26.9782 39.5539 21.4651C39.5667 19.6531 40.3863 17.9657 41.8032 16.8361C43.2199 15.7062 45.0468 15.282 46.817 15.6733C52.1995 16.8616 57.6553 14.2356 60.0819 9.28504C60.8795 7.65792 62.3502 6.49332 64.1169 6.09017C65.8841 5.68732 67.714 6.09789 69.1384 7.21767C73.4729 10.6254 79.5272 10.6254 83.8617 7.21767C85.2864 6.09789 87.1159 5.68732 88.8832 6.09017C90.6498 6.49332 92.1205 7.65792 92.9182 9.28504C95.3448 14.2356 100.8 16.8616 106.183 15.6733C107.952 15.2817 109.78 15.7062 111.197 16.8361C112.613 17.966 113.433 19.6531 113.446 21.4651C113.484 26.9782 117.259 31.7118 122.626 32.9761C124.39 33.3917 125.852 34.5664 126.639 36.1992C127.425 37.8319 127.431 39.7075 126.656 41.3459C124.299 46.3297 125.646 52.2323 129.933 55.6997C131.342 56.8394 132.15 58.5324 132.15 60.3445C132.15 62.1565 131.342 63.8496 129.933 64.9892C125.646 68.4566 124.299 74.3592 126.656 79.3433C127.431 80.9814 127.425 82.8573 126.638 84.4897C125.852 86.1225 124.39 87.2972 122.626 87.7128C117.259 88.9772 113.484 93.7107 113.446 99.2238C113.433 101.036 112.614 102.723 111.197 103.853C109.78 104.983 107.953 105.406 106.183 105.016C100.8 103.826 95.3448 106.453 92.9182 111.404C92.1205 113.031 90.6498 114.195 88.8832 114.599ZM122.923 127.703C122.16 127.496 121.346 127.602 120.661 127.997C119.977 128.393 119.478 129.045 119.276 129.809L116.232 141.313L99.4935 112.321C100.901 110.977 102.911 110.373 104.902 110.813C108.431 111.592 112.074 110.748 114.898 108.495C116.59 107.146 117.85 105.397 118.598 103.437L134.408 130.819L122.923 127.703Z" fill="#2943C7"/>
<path d="M90.624 82.7943C91.2365 82.7943 91.8489 82.6052 92.369 82.2273C93.4069 81.4733 93.8429 80.1377 93.4502 78.9167L88.7707 64.3679L101.111 55.3007C102.145 54.541 102.574 53.2028 102.174 51.9835C101.775 50.7643 100.637 49.9399 99.3537 49.9399H84.0829L79.3209 35.4306C78.9207 34.2117 77.7831 33.3876 76.5004 33.3876C75.2176 33.3876 74.0797 34.2117 73.6798 35.4306L68.9178 49.9399H53.647C52.364 49.9399 51.2258 50.7643 50.8262 51.9835C50.4263 53.2028 50.8553 54.541 51.8896 55.3007L64.23 64.3679L59.5505 78.9167C59.1578 80.138 59.5938 81.4733 60.6317 82.2273C61.6698 82.9813 63.0746 82.9831 64.1145 82.2324L76.5009 73.289L88.8874 82.2324C89.4051 82.607 90.0143 82.7943 90.624 82.7943ZM78.2376 67.2208C77.7187 66.8461 77.1092 66.6588 76.4998 66.6588C75.8903 66.6588 75.2808 66.8461 74.7619 67.2208L67.9714 72.1238L70.536 64.1503C70.927 62.9346 70.4968 61.6049 69.4676 60.8488L62.7005 55.8766H71.0674C72.3502 55.8766 73.4881 55.0525 73.8879 53.8336L76.4998 45.8755L79.1116 53.8336C79.5118 55.0525 80.6493 55.8766 81.9321 55.8766H90.299L83.5319 60.8488C82.5027 61.6049 82.0725 62.9343 82.4635 64.1503L85.0281 72.1238L78.2376 67.2208Z" fill="#2943C7"/>
<path d="M118.061 60.3445C118.061 37.4276 99.4168 18.7833 76.4999 18.7833C53.5831 18.7833 34.9387 37.4276 34.9387 60.3445C34.9387 77.7785 45.9456 93.4842 62.3281 99.4259C63.8692 99.9846 65.572 99.1888 66.1313 97.6474C66.6903 96.1061 65.8941 94.4036 64.3528 93.8443C50.3107 88.7515 40.8763 75.289 40.8763 60.3445C40.8763 40.7015 56.8572 24.7206 76.5002 24.7206C96.1432 24.7206 112.124 40.7015 112.124 60.3445C112.124 75.2899 102.689 88.7527 88.6459 93.8452C87.1045 94.4042 86.3081 96.1067 86.8671 97.648C87.3049 98.8551 88.444 99.6055 89.6579 99.6055C89.9939 99.6055 90.3356 99.548 90.6699 99.4268C107.053 93.4857 118.061 77.7797 118.061 60.3445Z" fill="#2943C7"/>
<path d="M76.5 95.9678C75.7192 95.9678 74.9533 96.2854 74.4011 96.8376C73.8489 97.3898 73.5312 98.1557 73.5312 98.9365C73.5312 99.7173 73.8489 100.483 74.4011 101.035C74.9533 101.588 75.7192 101.905 76.5 101.905C77.2808 101.905 78.0467 101.588 78.5989 101.035C79.1511 100.483 79.4688 99.7173 79.4688 98.9365C79.4688 98.1557 79.1511 97.3898 78.5989 96.8376C78.0467 96.2854 77.2808 95.9678 76.5 95.9678Z" fill="#2943C7"/>
</g>
<defs>
<clipPath id="clip0">
<rect width="152" height="152" fill="white" transform="translate(0.5)"/>
</clipPath>
</defs>
</svg>
