<svg width="13" height="10" viewBox="0 0 13 10" fill="none" xmlns="http://www.w3.org/2000/svg">
<path d="M12.7758 0H0.224171C0.164717 0 0.107698 0.0229093 0.0656581 0.0636881C0.0236179 0.104467 0 0.159775 0 0.217445L0 9.78255C0 9.84023 0.0236179 9.89553 0.0656581 9.93631C0.107698 9.97709 0.164717 10 0.224171 10H12.7758C12.8351 10 12.892 9.97722 12.934 9.93664C12.976 9.89606 12.9997 9.84099 13 9.78348V0.217445C13 0.159775 12.9764 0.104467 12.9343 0.0636881C12.8923 0.0229093 12.8353 0 12.7758 0ZM2.24139 9.56511H0.448341V7.60934H2.24139V9.56511ZM2.24139 7.17352H0.448341V5.21806H2.24139V7.17352ZM2.24139 4.78194H0.448341V2.82647H2.24139V4.78194ZM2.24139 2.39036H0.448341V0.43489H2.24139V2.39036ZM8.18937 5.18269L5.7238 6.7048C5.68984 6.72573 5.65069 6.7374 5.61047 6.73859C5.57025 6.73978 5.53045 6.73045 5.49523 6.71157C5.46001 6.6927 5.43067 6.66498 5.4103 6.63132C5.38994 6.59766 5.37928 6.5593 5.37946 6.52027V3.47543C5.37925 3.43635 5.38989 3.39794 5.41027 3.36423C5.43066 3.33052 5.46003 3.30277 5.4953 3.28388C5.53057 3.265 5.57044 3.25568 5.6107 3.25692C5.65097 3.25815 5.69015 3.26989 5.72412 3.29089L8.18968 4.8127C8.22143 4.83239 8.24756 4.85951 8.26566 4.89157C8.28376 4.92364 8.29324 4.9596 8.29324 4.99616C8.29324 5.03271 8.28376 5.06867 8.26566 5.10074C8.24756 5.1328 8.22143 5.15992 8.18968 5.17961L8.18937 5.18269ZM12.5517 9.56511H10.7586V7.60934H12.5517V9.56511ZM12.5517 7.17352H10.7586V5.21806H12.5517V7.17352ZM12.5517 4.78194H10.7586V2.82647H12.5517V4.78194ZM12.5517 2.39036H10.7586V0.43489H12.5517V2.39036Z" fill="white"/>
</svg>
