<svg width="14" height="14" viewBox="0 0 14 14" fill="none" xmlns="http://www.w3.org/2000/svg">
<path d="M6.41675 2.3335H2.33341C2.024 2.3335 1.72725 2.45641 1.50846 2.6752C1.28966 2.894 1.16675 3.19074 1.16675 3.50016V11.6668C1.16675 11.9762 1.28966 12.273 1.50846 12.4918C1.72725 12.7106 2.024 12.8335 2.33341 12.8335H10.5001C10.8095 12.8335 11.1062 12.7106 11.325 12.4918C11.5438 12.273 11.6667 11.9762 11.6667 11.6668V7.5835" stroke="#888DB1" stroke-linecap="round" stroke-linejoin="round"/>
<path d="M10.7917 1.45814C11.0238 1.22608 11.3386 1.0957 11.6667 1.0957C11.9949 1.0957 12.3097 1.22608 12.5417 1.45814C12.7738 1.6902 12.9042 2.00495 12.9042 2.33314C12.9042 2.66133 12.7738 2.97608 12.5417 3.20814L7.00008 8.74981L4.66675 9.33314L5.25008 6.99981L10.7917 1.45814Z" stroke="#888DB1" stroke-linecap="round" stroke-linejoin="round"/>
</svg>
