<svg width="64" height="64" viewBox="0 0 64 64" fill="none" xmlns="http://www.w3.org/2000/svg">
<circle cx="32" cy="32" r="32" fill="#5843BE"/>
<path d="M32 17C23.7158 17 17 23.7158 17 32C17 40.2842 23.7158 47 32 47C40.2842 47 47 40.2842 47 32C46.9907 23.7197 40.2803 17.0093 32 17ZM32.5354 21.3245L37.75 19.24C38.3418 19.5078 38.9143 19.8164 39.4634 20.1636L39.4771 20.1721C40.0166 20.5139 40.5322 20.8921 41.0205 21.304L41.0625 21.3406C41.2815 21.5271 41.4944 21.7202 41.7014 21.9194C41.7275 21.9451 41.7549 21.9695 41.781 21.9956C41.998 22.2075 42.2083 22.426 42.4116 22.6509C42.4285 22.6699 42.4446 22.6899 42.4614 22.709C42.6399 22.9089 42.8115 23.116 42.978 23.3264C43.0181 23.3765 43.0581 23.4265 43.0969 23.4766C43.2776 23.7104 43.4524 23.9485 43.6174 24.1941L42.5779 28.613L37.4634 30.3181L32.5366 26.376L32.5354 21.3245ZM20.9026 23.4795C20.9414 23.4294 20.981 23.3794 21.021 23.3296C21.1855 23.1208 21.3557 22.9172 21.5315 22.7185C21.5505 22.6975 21.5681 22.676 21.5869 22.655C21.7891 22.4297 21.9983 22.2114 22.2151 22C22.24 21.9756 22.2649 21.95 22.291 21.9275C22.4963 21.7295 22.7075 21.5376 22.9246 21.3521L22.9746 21.3101C23.4585 20.9011 23.9692 20.5254 24.5034 20.1851L24.5229 20.1726C25.0688 19.8262 25.6377 19.5181 26.2261 19.25L31.4646 21.3245V26.3745L26.5376 30.3159L21.4231 28.614L20.3835 24.1951C20.55 23.95 20.7229 23.7124 20.9026 23.4795ZM20.3 39.6726C20.1531 39.4485 20.0125 39.2202 19.8784 38.9875L19.8459 38.9314C19.7126 38.7 19.5864 38.4646 19.4675 38.2256L19.4634 38.218C19.2129 37.7151 18.9929 37.1975 18.8049 36.668V36.6631C18.7161 36.4131 18.635 36.157 18.5601 35.8994L18.533 35.8044C18.4644 35.5625 18.4021 35.3179 18.3464 35.0706C18.3416 35.0464 18.3354 35.0234 18.3306 34.9995C18.2078 34.4409 18.1196 33.8755 18.0664 33.3059L21.1189 29.6431L26.198 31.3359L27.6721 37.2319L25.25 40.4546L20.3 39.6726ZM35.3296 45.5964C35.0796 45.6584 34.823 45.7119 34.5664 45.76C34.5305 45.7671 34.4939 45.7729 34.458 45.7795C34.2395 45.8186 34.0186 45.8521 33.7971 45.8794C33.738 45.887 33.6794 45.895 33.6206 45.9021C33.415 45.926 33.2075 45.9441 32.9995 45.959C32.9341 45.9634 32.8694 45.97 32.804 45.9741C32.5381 45.9905 32.27 46 32 46C31.7527 46 31.5068 45.9934 31.2625 45.9805C31.2329 45.9805 31.2046 45.9756 31.175 45.9734C30.9575 45.9609 30.741 45.9446 30.5249 45.9236L30.5 45.9189C30.0266 45.8677 29.5559 45.7925 29.0901 45.6941L26.1326 41.0635L28.5166 37.8845H35.4834L37.9065 41.0845L35.3296 45.5964ZM45.6731 35C45.668 35.0239 45.6621 35.0471 45.657 35.071C45.6011 35.3181 45.5388 35.5627 45.4705 35.8049L45.4436 35.8999C45.3684 36.1575 45.2876 36.4126 45.1985 36.6636V36.6685C45.0105 37.198 44.7908 37.7156 44.54 38.2185L44.5359 38.2261C44.4163 38.4653 44.2903 38.7007 44.1575 38.9319L44.125 38.988C43.9917 39.2214 43.8513 39.4492 43.7041 39.6721L38.771 40.45L36.332 37.23L37.8054 31.3354L42.8845 29.6426L45.937 33.3054C45.884 33.8752 45.7959 34.4412 45.6731 35Z" fill="white"/>
</svg>
