<svg width="45" height="45" viewBox="0 0 45 45" fill="none" xmlns="http://www.w3.org/2000/svg">
<rect width="45" height="45" rx="10" fill="none"/>
<g clip-path="url(#clip0)">
<path d="M25.9996 17.7009H31.5996C31.7423 17.7009 31.869 17.6529 31.9603 17.5616C32.0516 17.4703 32.0996 17.3436 32.0996 17.2009V15.6009C32.0996 15.4582 32.0516 15.3315 31.9603 15.2402C31.869 15.1489 31.7423 15.1009 31.5996 15.1009H25.9996C25.8569 15.1009 25.7302 15.1489 25.6389 15.2402C25.5476 15.3315 25.4996 15.4582 25.4996 15.6009V17.2009C25.4996 17.3436 25.5476 17.4703 25.6389 17.5616C25.7302 17.6529 25.8569 17.7009 25.9996 17.7009ZM26.4996 16.1009H31.0996V16.7009H26.4996V16.1009Z" fill="#001CE2" stroke="#001CE2" stroke-width="0.2"/>
<path d="M22.4993 25.3723L22.4994 25.372C22.6419 24.1094 22.3467 23.1751 21.8775 22.4894C21.4531 21.8691 20.8903 21.4578 20.3942 21.1892C20.7654 20.9228 21.1536 20.5376 21.4243 20.0009C21.7298 19.3951 21.8819 18.603 21.6985 17.5837C21.4723 16.248 20.6791 15.4146 19.7727 14.923C18.8701 14.4334 17.8527 14.2807 17.1586 14.3009H10.4C10.2573 14.3009 10.1306 14.3489 10.0393 14.4402C9.94801 14.5314 9.9 14.6581 9.9 14.8009V28.4008C9.9 28.5436 9.94801 28.6703 10.0393 28.7615C10.1306 28.8528 10.2573 28.9008 10.4 28.9008H17.32H17.3207H17.3214H17.3221H17.3228H17.3235H17.3242H17.3249H17.3256H17.3263H17.327H17.3277H17.3284H17.3291H17.3298H17.3305H17.3313H17.332H17.3327H17.3334H17.3341H17.3348H17.3355H17.3362H17.3369H17.3376H17.3383H17.339H17.3397H17.3404H17.3411H17.3418H17.3425H17.3432H17.3439H17.3446H17.3453H17.346H17.3467H17.3474H17.3481H17.3488H17.3495H17.3502H17.3509H17.3516H17.3523H17.353H17.3538H17.3545H17.3552H17.3559H17.3566H17.3573H17.358H17.3587H17.3594H17.3601H17.3608H17.3615H17.3622H17.3629H17.3636H17.3643H17.365H17.3657H17.3664H17.3671H17.3678H17.3685H17.3692H17.3699H17.3706H17.3713H17.372H17.3727H17.3734H17.3741H17.3748H17.3755H17.3763H17.377H17.3777H17.3784H17.3791H17.3798H17.3805H17.3812H17.3819H17.3826H17.3833H17.384H17.3847H17.3854H17.3861H17.3868H17.3875H17.3882H17.3889H17.3896H17.3903H17.391H17.3917H17.3924H17.3931H17.3938H17.3945H17.3952H17.3959H17.3966H17.3973H17.398H17.3988H17.3995H17.4002H17.4009H17.4016H17.4023H17.403H17.4037H17.4044H17.4051H17.4058H17.4065H17.4072H17.4079H17.4086H17.4093H17.41H17.4107H17.4114H17.4121H17.4128H17.4135H17.4142H17.4149H17.4156H17.4163H17.417H17.4177H17.4184H17.4191H17.4198H17.4205H17.4212H17.422H17.4227H17.4234H17.4241H17.4248H17.4255H17.4262H17.4269H17.4276H17.4283H17.429H17.4297H17.4304H17.4311H17.4318H17.4325H17.4332H17.4339H17.4346H17.4353H17.436H17.4367H17.4374H17.4381H17.4388H17.4395H17.4402H17.4409H17.4416H17.4423H17.443H17.4437H17.4445H17.4452H17.4459H17.4466H17.4473H17.448H17.4487H17.4494H17.4501H17.4508H17.4515H17.4522H17.4529H17.4536H17.4543H17.455H17.4557H17.4564H17.4571H17.4578H17.4585H17.4592H17.4599H17.4606H17.4613H17.462H17.4627H17.4634H17.4641H17.4648H17.4655H17.4662H17.467H17.4677H17.4684H17.4691H17.4698H17.4705H17.4712H17.4719H17.4726H17.4733H17.474H17.4747H17.4754H17.4761H17.4768H17.4775H17.4782H17.4789H17.4796H17.4803H17.481H17.4817H17.4824H17.4831H17.4838H17.4845H17.4852H17.4859H17.4866H17.4873H17.488H17.4887H17.4895H17.4902H17.4909H17.4916H17.4923H17.493H17.4937H17.4944H17.4951H17.4958H17.4965H17.4972H17.4979H17.4986H17.4993H17.5H17.5007H17.5014H17.5021H17.5028H17.5035H17.5042H17.5049H17.5056H17.5063H17.507H17.5077H17.5084H17.5091H17.5098H17.5105H17.5113H17.512H17.5127H17.5134H17.5141H17.5148H17.5155H17.5162H17.5169H17.5176H17.5183H17.519H17.5197H17.5204H17.5211H17.5218H17.5225H17.5232H17.5239H17.5246H17.5253H17.526H17.5267H17.5274H17.5281H17.5288H17.5295H17.5302H17.5309H17.5316H17.5323H17.533H17.5338H17.5345H17.5352H17.5359H17.5366H17.5373H17.538H17.5387H17.5394H17.5401H17.5408H17.5415H17.5422H17.5429H17.5436H17.5443H17.545H17.5457H17.5464H17.5471H17.5478H17.5485H17.5492H17.5499H17.5506H17.5513H17.552H17.5527H17.5534H17.5541H17.5548H17.5555H17.5563H17.557H17.5577H17.5584H17.5591H17.5598H17.5605H17.5612H17.5619H17.5626H17.5633H17.564H17.5647H17.5654H17.5661H17.5668H17.5675H17.5682H17.5689H17.5696H17.5703H17.571H17.5717H17.5724H17.5731H17.5738H17.5745H17.5752H17.5759H17.5766H17.5773H17.578H17.5788H17.5795H17.5802H17.5809H17.5816H17.5823H17.583H17.5837H17.5844H17.5851H17.5858H17.5865H17.5872H17.5879H17.5886H17.5893H17.59H17.5907H17.5914H17.5921H17.5928H17.5935H17.5942H17.5949H17.5956H17.5963H17.597H17.5977H17.5984H17.5991H17.5998H17.6005H17.6012H17.602H17.6027H17.6034H17.6041H17.6048H17.6055H17.6062H17.6069H17.6076H17.6083H17.609H17.6097H17.6104H17.6111H17.6118H17.6125H17.6132H17.6139H17.6146H17.6153H17.616H17.6167H17.6174H17.6181H17.6188H17.6195H17.6202H17.6209H17.6216H17.6223H17.623H17.6237H17.6245H17.6252H17.6259H17.6266H17.6273H17.628H17.6287H17.6294H17.6301H17.6308H17.6315H17.6322H17.6329H17.6336H17.6343H17.635H17.6357H17.6364H17.6371H17.6378H17.6385H17.6392H17.6399H17.6406H17.6413H17.642H17.6427H17.6434H17.6441H17.6448H17.6455H17.6462H17.647H17.6477H17.6484H17.6491H17.6498H17.6505H17.6512H17.6519H17.6526H17.6533H17.654H17.6547H17.6554H17.6561H17.6568H17.6575H17.6582H17.6589H17.6596H17.6603H17.661H17.6617H17.6624H17.6631H17.6638H17.6645H17.6652H17.6659H17.6666H17.6673H17.668H17.6687H17.6695H17.6702H17.6709H17.6716H17.6723H17.673H17.6737H17.6744H17.6751H17.6758H17.6765H17.6772H17.6779H17.6786H17.6793H17.68C18.5309 28.9008 19.6491 28.729 20.5984 28.2033C21.5519 27.6753 22.335 26.7894 22.4993 25.3723ZM17.36 27.9009H10.9V15.3009H17.16H17.16C17.1763 15.3009 17.9621 15.3009 18.7953 15.6097C19.6271 15.9179 20.49 16.5266 20.7015 17.7381L20.7015 17.7384C20.9155 18.9444 20.5175 19.6815 20.065 20.1244C19.6687 20.5124 19.234 20.6758 19.0841 20.7321C19.0692 20.7377 19.0571 20.7422 19.0482 20.7458C18.841 20.8016 18.7 21.0053 18.7 21.2409C18.7 21.4849 18.8502 21.6889 19.1004 21.7389L19.1101 21.7409L19.12 21.7409C19.119 21.7409 19.1187 21.7409 19.1192 21.741C19.1206 21.7412 19.1303 21.7424 19.1516 21.7467C19.1755 21.7516 19.2086 21.7594 19.2494 21.7706C19.3311 21.7929 19.4422 21.8283 19.5717 21.88C19.831 21.9835 20.1615 22.1513 20.4768 22.4084C21.1033 22.9192 21.6761 23.7867 21.5007 25.2288C21.3272 26.656 20.3579 27.3226 19.3893 27.6357C18.4916 27.9259 17.61 27.9062 17.3985 27.9015C17.3809 27.9011 17.368 27.9009 17.36 27.9009Z" fill="#001CE2" stroke="#001CE2" stroke-width="0.2"/>
<path d="M34.0998 24.4009C34.0998 22.6188 33.5123 21.0934 32.5029 20.0127C31.4931 18.9315 30.0662 18.3009 28.3998 18.3009C26.7702 18.3009 25.3456 19.0038 24.3293 20.015C23.3141 21.0251 22.6998 22.3495 22.6998 23.6009C22.6998 27.0897 25.1383 29.7009 28.3998 29.7009C30.2499 29.7009 31.5441 28.9477 32.3897 28.1225C32.8119 27.7104 33.1222 27.2806 33.3348 26.9177C33.5439 26.561 33.6618 26.2632 33.6964 26.1071C33.7459 25.9517 33.6947 25.7991 33.5975 25.6973C33.4938 25.5482 33.3403 25.5009 33.1998 25.5009H30.7998C30.5989 25.5009 30.4016 25.6454 30.3458 25.8453C30.2681 25.9995 30.1467 26.2085 29.9193 26.3813C29.6887 26.5565 29.3406 26.7009 28.7998 26.7009C28.2414 26.7009 27.7985 26.5282 27.4805 26.2102C27.1802 25.91 26.9823 25.4712 26.9112 24.9009H33.5998C33.7425 24.9009 33.8692 24.8529 33.9605 24.7616C34.0518 24.6703 34.0998 24.5436 34.0998 24.4009ZM26.3598 23.9009C26.2171 23.9009 26.0904 23.9489 25.9991 24.0402C25.9078 24.1314 25.8598 24.2581 25.8598 24.4009C25.8598 25.3986 26.1348 26.2241 26.6395 26.8017C27.1456 27.3808 27.8742 27.7009 28.7598 27.7009C30.1507 27.7009 30.8255 27.0076 31.1004 26.5009H32.3838C31.8577 27.347 30.6509 28.7009 28.3998 28.7009C25.6629 28.7009 23.6998 26.5538 23.6998 23.6009C23.6998 22.6132 24.2047 21.5377 25.0499 20.7072C25.8938 19.878 27.0695 19.3009 28.3998 19.3009C29.9315 19.3009 31.0638 19.8888 31.8295 20.7666C32.5744 21.6206 32.9766 22.7545 33.0538 23.9009H26.3598Z" fill="#001CE2" stroke="#001CE2" stroke-width="0.2"/>
<path d="M13.1998 20.5009H17.1998C18.375 20.5009 19.2998 19.5761 19.2998 18.4009C19.2998 17.2257 18.375 16.3008 17.1998 16.3008H13.1998C13.0571 16.3008 12.9304 16.3489 12.8391 16.4401C12.7478 16.5314 12.6998 16.6581 12.6998 16.8008L12.6998 20.0008C12.6998 20.0008 12.6998 20.0008 12.6998 20.0008C12.6998 20.1436 12.7478 20.2703 12.8391 20.3616C12.9304 20.4529 13.0571 20.5009 13.1998 20.5009ZM13.6998 17.3009H17.1998C17.8246 17.3009 18.2998 17.7761 18.2998 18.4009C18.2998 19.0257 17.8246 19.5009 17.1998 19.5009H13.6998V17.3009Z" fill="#001CE2" stroke="#001CE2" stroke-width="0.2"/>
<path d="M16.7998 21.9009H13.1998C13.0571 21.9009 12.9304 21.9489 12.8391 22.0402C12.7478 22.1315 12.6998 22.2582 12.6998 22.4009V26.4009C12.6998 26.5436 12.7478 26.6703 12.8391 26.7616C12.9304 26.8528 13.0571 26.9009 13.1998 26.9009H16.7998C18.175 26.9009 19.2998 25.7761 19.2998 24.4009C19.2998 23.0256 18.175 21.9009 16.7998 21.9009ZM16.7998 25.9009H13.6998V22.9009H16.7998C17.6245 22.9009 18.2998 23.5761 18.2998 24.4009C18.2998 25.2257 17.6245 25.9009 16.7998 25.9009Z" fill="#001CE2" stroke="#001CE2" stroke-width="0.2"/>
<path d="M28.6 19.9009C26.9027 19.9009 25.9 21.1877 25.9 22.4009V22.8009C25.9 22.9436 25.948 23.0703 26.0393 23.1616C26.1306 23.2528 26.2573 23.3009 26.4 23.3009H30.8C30.9427 23.3009 31.0694 23.2528 31.1607 23.1616C31.252 23.0703 31.3 22.9436 31.3 22.8009V22.4009C31.3 21.1888 30.3384 19.9009 28.6 19.9009ZM26.904 22.3009C26.9572 21.623 27.5472 20.9009 28.6 20.9009C29.6528 20.9009 30.2429 21.623 30.2961 22.3009H26.904Z" fill="#001CE2" stroke="#001CE2" stroke-width="0.2"/>
</g>
<defs>
<clipPath id="clip0">
<rect width="24" height="24" fill="white" transform="translate(10 10)"/>
</clipPath>
</defs>
</svg>
