<svg width="45" height="45" viewBox="0 0 45 45" fill="none" xmlns="http://www.w3.org/2000/svg">
<rect width="45" height="45" rx="10" fill="none"/>
<g clip-path="url(#clip0)">
<path d="M26.354 33.17C26.374 33.164 26.393 33.156 26.413 33.149C38.628 28.296 35.249 10 22 10C15.351 10 10 15.42 10 22C10 30.327 18.434 36.269 26.354 33.17ZM15.281 30.059C16.133 28.627 18.89 24.587 23.596 23.193C24.58 25.702 25.27 28.629 25.338 31.948C21.772 33.147 18.011 32.34 15.281 30.059ZM26.813 31.322C26.682 28.133 26.031 25.305 25.103 22.855C27.185 22.53 29.595 22.747 32.328 23.842C31.747 27.103 29.662 29.844 26.813 31.322ZM32.485 22.291C29.475 21.16 26.822 21.019 24.526 21.457C24.171 20.657 23.798 19.888 23.403 19.18C26.926 17.773 29.008 16.058 29.94 15.15C31.585 17.054 32.562 19.519 32.485 22.291ZM28.875 14.082C28.027 14.889 26.03 16.519 22.615 17.852C20.941 15.204 19.151 13.336 18.017 12.29C21.645 10.796 25.829 11.434 28.875 14.082ZM16.583 13.023C17.439 13.776 19.318 15.584 21.131 18.38C18.641 19.182 15.519 19.771 11.722 19.854C12.326 16.96 14.13 14.508 16.583 13.023ZM11.532 21.36C15.782 21.291 19.222 20.62 21.941 19.712C22.317 20.371 22.674 21.089 23.017 21.835C18.282 23.343 15.323 27.236 14.19 28.994C12.362 26.954 11.354 24.292 11.532 21.36Z" fill="#001CE2"/>
</g>
<defs>
<clipPath id="clip0">
<rect width="24" height="24" fill="white" transform="translate(10 10)"/>
</clipPath>
</defs>
</svg>
