<svg width="45" height="45" viewBox="0 0 45 45" fill="none" xmlns="http://www.w3.org/2000/svg">
<rect width="45" height="45" rx="10" fill="none"/>
<path d="M22 10C15.4047 10 10 15.4516 10 22.0469C10 28.6039 15.3555 34 22 34C28.6363 34 34 28.6119 34 22.0469C34 15.4516 28.5953 10 22 10ZM24.1094 32.3828C23.4344 32.5234 22.7172 32.5938 22 32.5938C21.2828 32.5938 20.5656 32.5234 19.8906 32.3828V29.0922C19.8906 28.3047 20.1016 28.0234 20.3828 27.6437C20.526 27.48 20.6124 27.3331 21.2546 26.3641L20.1719 26.1953C17.3874 25.7875 16.2906 24.339 15.8546 23.214C15.2921 21.7094 15.5875 19.8249 16.6 18.6298C16.7548 18.4468 16.8813 18.1374 16.7689 17.814C16.5577 17.1671 16.5859 16.1406 16.7266 15.7468C17.4722 15.8533 18.2388 16.3875 18.8782 16.7734C19.1729 16.9454 19.3274 16.9 19.4688 16.9141C19.9825 16.8071 20.784 16.5484 22.0141 16.5484C22.7734 16.5484 23.5751 16.6608 24.3626 16.8859C24.5034 16.8826 24.7297 17.0023 25.1219 16.7734C25.7903 16.3662 26.5309 15.8504 27.2734 15.7468C27.4141 16.1406 27.4423 17.1671 27.2313 17.814C27.1187 18.1374 27.2452 18.4468 27.4001 18.6298C28.4125 19.8251 28.7079 21.7094 28.1454 23.214C27.7094 24.339 26.6126 25.7875 23.8281 26.1953L22.7454 26.3641C23.4092 27.3657 23.4791 27.4858 23.6174 27.6437C23.8984 28.0234 24.1094 28.3047 24.1094 29.0922V32.3828ZM25.5156 31.975V29.0922C25.5156 28.2906 25.3468 27.7563 25.1218 27.3624C27.2593 26.786 28.7782 25.5202 29.4531 23.7062C30.1703 21.7938 29.847 19.5156 28.6515 17.9406C28.8626 16.9985 28.8626 15.4937 28.3563 14.7906C28.1313 14.4813 27.8218 14.3125 27.4282 14.3125C27.4141 14.3125 27.4141 14.3125 27.4141 14.3125C26.3237 14.3715 25.4655 14.9206 24.5453 15.4796C23.7016 15.2546 22.8438 15.1422 21.9859 15.1422C21.1141 15.1422 20.2422 15.2687 19.4689 15.4796C18.5003 14.8955 17.6503 14.37 16.5297 14.3125C16.1782 14.3125 15.8687 14.4813 15.6437 14.7906C15.1376 15.4937 15.1376 16.9985 15.3485 17.9406C14.153 19.5156 13.8297 21.8077 14.5469 23.7062C15.2218 25.5202 16.7407 26.786 18.8782 27.3624C18.7037 27.6677 18.5657 28.0615 18.5113 28.5945C18.0795 28.7434 17.7051 28.7919 17.3568 28.6896C16.9895 28.581 16.7033 28.3358 16.4547 27.9176C15.8962 26.9794 14.9449 26.2134 13.8619 26.313L13.9855 27.7138C14.487 27.6678 14.9861 28.1985 15.2454 28.6359C15.6732 29.3563 16.2494 29.8287 16.9586 30.0381C17.485 30.1932 17.9662 30.1896 18.4844 30.079V31.975C14.3922 30.5406 11.4062 26.6313 11.4062 22.0469C11.4062 16.225 16.1782 11.4062 22 11.4062C27.8218 11.4062 32.5938 16.225 32.5938 22.0469C32.5938 26.6313 29.6078 30.5406 25.5156 31.975Z" fill="#001CE2"/>
</svg>
