<svg width="45" height="45" viewBox="0 0 45 45" fill="none" xmlns="http://www.w3.org/2000/svg">
<rect width="45" height="45" rx="10" fill="none"/>
<g clip-path="url(#clip0)">
<path d="M28.5898 34C28.6928 34 33.3518 33.999 33.2498 33.999C33.6638 33.999 33.9998 33.663 33.9998 33.249C33.6498 25.392 35.8418 17.101 27.6618 17.101C26.0888 17.101 24.8358 17.638 23.9328 18.348C23.9328 16.887 22.3538 17.695 18.7088 17.478C18.2948 17.478 17.9588 17.814 17.9588 18.228C18.2608 32.394 17.2848 33.999 18.7088 33.999H23.3688C24.7218 33.999 23.8608 32.091 24.1188 25.811C24.1188 23.217 24.8688 22.709 26.1648 22.709C27.5988 22.709 27.8398 23.705 27.8398 25.937C28.0968 32.104 27.2418 34 28.5898 34ZM26.1648 21.209C21.6738 21.209 22.6188 26.147 22.6188 32.499H19.4588V18.978H22.4328V20.276C22.4328 20.996 23.5298 21.35 23.9118 20.626C24.4038 19.692 25.6818 18.601 27.6618 18.601C31.1888 18.601 32.4998 20.334 32.4998 24.997V32.5H29.3398C29.3398 25.356 30.0958 21.209 26.1648 21.209Z" fill="#888DB1"/>
<path d="M11.1222 17.479C9.70224 17.479 10.6742 19.064 10.3722 33.25C10.3722 33.664 10.7082 34 11.1222 34H15.7872C17.2072 34 16.2352 32.415 16.5372 18.229C16.5372 16.934 14.6562 17.698 11.1222 17.479ZM15.0372 32.5H11.8722V18.979H15.0372V32.5Z" fill="#888DB1"/>
<path d="M13.4518 9.99999C8.87578 9.99999 8.90378 16.929 13.4518 16.929C17.9968 16.929 18.0328 9.99999 13.4518 9.99999ZM13.4518 15.429C10.8838 15.429 10.8598 11.5 13.4518 11.5C16.0488 11.5 16.0158 15.429 13.4518 15.429Z" fill="#888DB1"/>
</g>
<defs>
<clipPath id="clip0">
<rect width="24" height="24" fill="white" transform="translate(10 10)"/>
</clipPath>
</defs>
</svg>
