<svg width="45" height="45" viewBox="0 0 45 45" fill="none" xmlns="http://www.w3.org/2000/svg">
<rect width="45" height="45" rx="10" fill="none"/>
<path d="M17.0697 25.4409C17.0697 25.0423 16.7932 24.8046 16.3052 24.8046C16.1059 24.8046 15.971 24.8243 15.9004 24.8431V26.1219C15.984 26.1407 16.0867 26.147 16.2283 26.147C16.7485 26.147 17.0697 25.8842 17.0697 25.4409Z" fill="#888DB1"/>
<path d="M20.0907 24.818C19.8722 24.818 19.731 24.8368 19.6475 24.8564V27.6886C19.731 27.7082 19.866 27.7082 19.988 27.7082C20.8745 27.7145 21.4527 27.2265 21.4527 26.1925C21.4589 25.2933 20.9321 24.818 20.0907 24.818Z" fill="#888DB1"/>
<path d="M25.703 10H16.0636C14.6554 10 13.5093 11.1469 13.5093 12.5544V22H13.2598C12.6914 22 12.2305 22.4604 12.2305 23.0293V29.2717C12.2305 29.8405 12.6914 30.3009 13.2598 30.3009H13.5093V31.4456C13.5093 32.8546 14.6554 34 16.0636 34H29.2161C30.6235 34 31.7698 32.8545 31.7698 31.4456V16.0455L25.703 10ZM14.9308 24.1558C15.2324 24.1049 15.6564 24.0664 16.2538 24.0664C16.8575 24.0664 17.2878 24.1817 17.5769 24.4131C17.8531 24.6313 18.0395 24.9913 18.0395 25.415C18.0395 25.8386 17.8983 26.1988 17.6413 26.4427C17.3071 26.7573 16.8128 26.8986 16.2347 26.8986C16.106 26.8986 15.9907 26.8922 15.9005 26.8797V28.4276H14.9308V24.1558ZM29.2161 32.4356H16.0636C15.5184 32.4356 15.0743 31.9916 15.0743 31.4456V30.3009H27.3352C27.9036 30.3009 28.3645 29.8405 28.3645 29.2717V23.0293C28.3645 22.4604 27.9036 22 27.3352 22H15.0743V12.5544C15.0743 12.0099 15.5184 11.5659 16.0636 11.5659L25.1178 11.5564V14.9031C25.1178 15.8807 25.9109 16.6746 26.8892 16.6746L30.1677 16.6652L30.2046 31.4455C30.2046 31.9916 29.7614 32.4356 29.2161 32.4356ZM18.6647 28.408V24.1558C19.0244 24.0986 19.4931 24.0664 19.9878 24.0664C20.81 24.0664 21.3431 24.2139 21.7608 24.5285C22.2104 24.8627 22.4928 25.3954 22.4928 26.1603C22.4928 26.9887 22.1911 27.5607 21.7733 27.9136C21.3175 28.2925 20.6236 28.4722 19.776 28.4722C19.2683 28.4722 18.9087 28.4401 18.6647 28.408ZM25.6748 25.8905V26.6867H24.1203V28.4276H23.1376V24.0986H25.7838V24.9011H24.1203V25.8905H25.6748Z" fill="#888DB1"/>
</svg>
