<svg width="45" height="45" viewBox="0 0 45 45" fill="none" xmlns="http://www.w3.org/2000/svg">
<rect width="45" height="45" rx="10" fill="none"/>
<g clip-path="url(#clip0)">
<path d="M33.2258 25.4836C33.0065 25.4836 10.9668 25.4836 10.7742 25.4836C10.3466 25.4836 10 25.8302 10 26.2578C10 26.6853 10.3466 27.0319 10.7742 27.0319H11.1036C13.0193 31.1794 17.2053 33.9998 22.0007 33.9998C26.7972 33.9998 30.9821 31.1762 32.8964 27.032H33.2257C33.6533 27.032 33.9999 26.6854 33.9999 26.2578C33.9999 25.8302 33.6534 25.4836 33.2258 25.4836ZM17.6422 27.0319H21.2258V31.7447C19.669 30.5183 18.4685 28.9403 17.6422 27.0319ZM22.7742 31.7447V27.0319H26.3578C25.5314 28.9403 24.3309 30.5182 22.7742 31.7447ZM12.8356 27.0319H15.9713C16.7271 28.9968 17.8501 30.7087 19.2852 32.0967C16.5528 31.3678 14.217 29.5548 12.8356 27.0319ZM24.7148 32.0968C26.1498 30.7088 27.2728 28.9969 28.0287 27.032H31.1644C29.783 29.5549 27.4471 31.3678 24.7148 32.0968ZM10.7742 18.5159H33.2258C33.6534 18.5159 34 18.1693 34 17.7417C34 17.3141 33.6534 16.9675 33.2258 16.9675H32.8964C29.757 10.1712 21.2956 7.94569 15.2374 12.0855C13.4336 13.318 12.013 14.9985 11.1035 16.9675H10.7742C10.3466 16.9675 10 17.3141 10 17.7417C10 18.1693 10.3466 18.5159 10.7742 18.5159ZM26.3962 16.9675H22.7742V12.3106C23.8282 13.1972 25.3594 14.7526 26.3962 16.9675ZM21.2258 12.3106V16.9675H17.6037C18.6406 14.7526 20.1718 13.1972 21.2258 12.3106ZM31.1644 16.9675H28.0851C27.17 14.7181 25.7674 13.0152 24.5838 11.869C27.3723 12.5744 29.761 14.4044 31.1644 16.9675ZM19.4162 11.869C18.2326 13.0152 16.83 14.7182 15.9149 16.9675H12.8356C14.239 14.4044 16.6277 12.5744 19.4162 11.869ZM17.562 19.5118C17.9741 19.6263 18.2152 20.053 18.1008 20.465L17.1331 23.9488C16.9689 24.5401 16.2116 24.7144 15.8058 24.2529L15.0323 23.3735L14.2588 24.2529C13.854 24.7133 13.096 24.5414 12.9315 23.9488L11.9638 20.465C11.8493 20.053 12.0905 19.6263 12.5025 19.5118C12.9145 19.3974 13.3413 19.6386 13.4556 20.0506L14.0406 22.1565C14.4395 21.703 14.6024 21.4271 15.0323 21.4271C15.4622 21.4271 15.6239 21.7017 16.0239 22.1565L16.6089 20.0506C16.7233 19.6386 17.1501 19.3975 17.562 19.5118ZM31.4975 19.5118C31.9095 19.6263 32.1507 20.053 32.0362 20.465L31.0685 23.9488C30.9043 24.5401 30.147 24.7144 29.7412 24.2529L28.9677 23.3735L28.1942 24.2529C27.7879 24.7149 27.0309 24.5392 26.8669 23.9488L25.8992 20.465C25.7848 20.053 26.0259 19.6263 26.4379 19.5118C26.8498 19.3974 27.2767 19.6386 27.3911 20.0506L27.9761 22.1565C28.375 21.703 28.5378 21.4271 28.9677 21.4271C29.3976 21.4271 29.5593 21.7017 29.9594 22.1565L30.5444 20.0506C30.6588 19.6386 31.0856 19.3975 31.4975 19.5118ZM24.5298 19.5118C24.9418 19.6263 25.1829 20.053 25.0685 20.465L24.1008 23.9488C23.9366 24.5401 23.1793 24.7144 22.7735 24.2529L22 23.3735L21.2265 24.2529C20.8217 24.7133 20.0637 24.5414 19.8992 23.9488L18.9315 20.465C18.8171 20.053 19.0582 19.6263 19.4702 19.5118C19.8822 19.3974 20.309 19.6386 20.4234 20.0506L21.0084 22.1565C21.4073 21.703 21.5701 21.4271 22 21.4271C22.4299 21.4271 22.5916 21.7017 22.9916 22.1565L23.5766 20.0506C23.6911 19.6386 24.118 19.3975 24.5298 19.5118Z" fill="#001CE2"/>
</g>
<defs>
<clipPath id="clip0">
<rect width="24" height="24" fill="white" transform="translate(10 10)"/>
</clipPath>
</defs>
</svg>
