<svg width="128" height="127" viewBox="0 0 128 127" fill="none" xmlns="http://www.w3.org/2000/svg">
<circle cx="64" cy="63.5625" r="63.4375" fill="#FCD259"/>
<g clip-path="url(#clip0)">
<path d="M81.5705 60.4196V49.4196C81.5705 48.5517 80.851 47.8481 79.9633 47.8481H68.7134C68.7134 44.3767 65.8353 41.5625 62.2848 41.5625C58.7344 41.5625 55.8562 44.3767 55.8562 47.8482H44.6063C43.7187 47.8482 42.9991 48.5518 42.9991 49.4196V63.2136C42.9994 64.0815 43.7191 64.7848 44.6067 64.7846C45.0036 64.7845 45.3864 64.6407 45.6814 64.3811C46.9942 63.2127 49.0271 63.306 50.2221 64.5896C51.4171 65.8733 51.3216 67.861 50.0088 69.0294C48.7824 70.1211 46.9079 70.1211 45.6814 69.0294C45.0217 68.4488 44.0055 68.5011 43.4117 69.1461C43.1461 69.4346 42.9991 69.8089 42.999 70.197V83.991C42.999 84.8589 43.7186 85.5625 44.6062 85.5625H58.7137C59.6013 85.5623 60.3207 84.8586 60.3204 83.9907C60.3203 83.6026 60.1733 83.2283 59.9077 82.9398C58.7127 81.6562 58.8082 79.6684 60.121 78.5C61.4338 77.3316 63.4667 77.4249 64.6617 78.7085C65.7782 79.9077 65.7782 81.7406 64.6617 82.9398C64.0679 83.5849 64.1214 84.5785 64.781 85.1591C65.0761 85.4188 65.4589 85.5625 65.8558 85.5626H79.9633C80.8509 85.5626 81.5704 84.859 81.5704 83.9911V72.991C85.1209 72.991 87.999 70.1768 87.999 66.7053C87.999 63.2337 85.121 60.4196 81.5705 60.4196ZM81.5705 69.8482C81.2048 69.8428 80.8427 69.7759 80.5002 69.6502C79.6636 69.3604 78.745 69.7885 78.4486 70.6065C78.3875 70.7747 78.3564 70.952 78.3563 71.1304V82.4196H68.5045C68.6434 81.9068 68.7136 81.3786 68.7134 80.8481C68.7134 77.3766 65.8353 74.5624 62.2848 74.5624C58.7344 74.5624 55.8562 77.3766 55.8562 80.8481C55.856 81.3786 55.9263 81.9068 56.0652 82.4196H46.2134V72.7868C46.7378 72.9226 47.278 72.9913 47.8205 72.9911C51.371 72.9911 54.2491 70.1769 54.2491 66.7054C54.2491 63.2338 51.371 60.4196 47.8205 60.4196C47.278 60.4194 46.7378 60.4881 46.2134 60.6239V50.9911H57.7591C58.6467 50.9906 59.3658 50.2866 59.3653 49.4188C59.3652 49.2402 59.334 49.0631 59.273 48.8948C59.1445 48.5599 59.0759 48.2059 59.0706 47.8482C59.0706 46.1125 60.5097 44.7054 62.2848 44.7054C64.06 44.7054 65.4991 46.1125 65.4991 47.8482C65.4936 48.2059 65.4252 48.5599 65.2966 48.8948C65.0002 49.7128 65.4381 50.611 66.2746 50.9008C66.4467 50.9605 66.628 50.991 66.8105 50.9911H78.3562V62.2802C78.3566 63.1481 79.0767 63.8512 79.9642 63.8507C80.1468 63.8506 80.328 63.8201 80.5 63.7605C80.8425 63.6348 81.2046 63.5678 81.5703 63.5625C83.3455 63.5625 84.7846 64.9696 84.7846 66.7054C84.7846 68.4411 83.3457 69.8482 81.5705 69.8482Z" fill="#1F1F1F"/>
</g>
<defs>
<clipPath id="clip0">
<rect width="45" height="44" fill="white" transform="translate(43 41.5625)"/>
</clipPath>
</defs>
</svg>
