<svg width="32" height="32" viewBox="0 0 32 32" fill="none" xmlns="http://www.w3.org/2000/svg">
<path d="M16 0C24.8229 0 32 7.17775 32 16C32 24.8223 24.8229 32 16 32C7.17706 32 0 24.8223 0 16C0 7.17775 7.17706 0 16 0ZM17.3333 22C17.3333 22.3685 17.6315 22.6667 18 22.6667H22C22.3685 22.6667 22.6667 22.3685 22.6667 22V10C22.6667 9.6315 22.3685 9.33331 22 9.33331H18C17.6315 9.33331 17.3333 9.6315 17.3333 10V22ZM9.33331 22C9.33331 22.3685 9.6315 22.6667 10 22.6667H14C14.3685 22.6667 14.6667 22.3685 14.6667 22V10C14.6667 9.6315 14.3685 9.33331 14 9.33331H10C9.6315 9.33331 9.33331 9.6315 9.33331 10V22Z" fill="#FAD058"/>
</svg>
