<svg width="72" height="72" viewBox="0 0 72 72" fill="none" xmlns="http://www.w3.org/2000/svg">
<path d="M69.5 35.5069C69.5 53.7036 54.5342 68.5137 36 68.5137C17.4658 68.5137 2.5 53.7036 2.5 35.5069C2.5 17.3101 17.4658 2.5 36 2.5C54.5342 2.5 69.5 17.3101 69.5 35.5069Z" fill="black" stroke="#E0BB4C" stroke-width="5"/>
<path d="M36 20C44.8229 20 52 27.1777 52 36C52 44.8223 44.8229 52 36 52C27.1771 52 20 44.8223 20 36C20 27.1777 27.1771 20 36 20ZM37.3333 42C37.3333 42.3685 37.6315 42.6667 38 42.6667H42C42.3685 42.6667 42.6667 42.3685 42.6667 42V30C42.6667 29.6315 42.3685 29.3333 42 29.3333H38C37.6315 29.3333 37.3333 29.6315 37.3333 30V42ZM29.3333 42C29.3333 42.3685 29.6315 42.6667 30 42.6667H34C34.3685 42.6667 34.6667 42.3685 34.6667 42V30C34.6667 29.6315 34.3685 29.3333 34 29.3333H30C29.6315 29.3333 29.3333 29.6315 29.3333 30V42Z" fill="#FAD058"/>
</svg>
