<svg width="72" height="30" viewBox="0 0 72 30" fill="none" xmlns="http://www.w3.org/2000/svg">
<g clip-path="url(#clip0)">
<path d="M5.00199 11.5805C5.00199 10.802 5.62481 10.51 6.67581 10.51C8.17446 10.51 10.0624 10.9577 11.561 11.7751V7.14293C9.92614 6.50065 8.31071 6.22816 6.67581 6.22816C2.66643 6.22816 0 8.33017 0 11.814C0 17.2637 7.49326 16.3879 7.49326 18.7429C7.49326 19.6576 6.69528 19.9496 5.60535 19.9496C3.97045 19.9496 1.86845 19.2878 0.214093 18.3731V23.0637C2.04362 23.8617 3.91207 24.1925 5.60535 24.1925C9.71204 24.1925 12.5342 22.1684 12.5342 18.6261C12.5147 12.7483 5.00199 13.7993 5.00199 11.5805ZM18.3342 2.29664L13.5268 3.30871L13.5073 19.1127C13.5073 22.0321 15.7066 24.1925 18.6261 24.1925C20.2415 24.1925 21.4288 23.9006 22.0711 23.5502V19.5409C21.4482 19.7939 18.3147 20.7086 18.3147 17.7892V10.7825H22.0711V6.5785H18.3147L18.3342 2.29664ZM28.2019 8.03822L27.8905 6.5785H23.6281V23.8422H28.5522V12.1449C29.72 10.6268 31.6858 10.8993 32.3086 11.1134V6.5785C31.6663 6.32548 29.3697 5.89729 28.2019 8.03822ZM33.5153 6.5785H38.4589V23.8422H33.5153V6.5785ZM33.5153 5.07985L38.4589 4.00938V0L33.5153 1.051V5.07985ZM48.7548 6.22816C46.828 6.22816 45.5824 7.14293 44.8817 7.76574L44.6287 6.53957H40.2884V29.5449L45.2126 28.4939L45.232 22.908C45.9327 23.414 46.9837 24.1536 48.7159 24.1536C52.2387 24.1536 55.4696 21.312 55.4696 15.0644C55.4696 9.36171 52.2193 6.22816 48.7548 6.22816ZM47.5676 19.8328C46.3998 19.8328 45.7186 19.4241 45.232 18.8986L45.2126 11.5805C45.7186 11.0161 46.4387 10.6073 47.5676 10.6073C49.3582 10.6073 50.6038 12.612 50.6038 15.2006C50.6233 17.867 49.3971 19.8328 47.5676 19.8328ZM71.04 15.2785C71.04 10.2181 68.5877 6.24763 63.9165 6.24763C59.2259 6.24763 56.3843 10.2375 56.3843 15.2395C56.3843 21.1758 59.732 24.1731 64.5588 24.1731C66.9138 24.1731 68.685 23.6476 70.0279 22.8885V18.9375C68.685 19.5993 67.1474 20.0274 65.2011 20.0274C63.2937 20.0274 61.581 19.3657 61.3669 17.0301H71.0205C71.0011 16.7771 71.04 15.7456 71.04 15.2785ZM61.289 13.3906C61.289 11.1523 62.6514 10.2375 63.8971 10.2375C65.1038 10.2375 66.3883 11.1718 66.3883 13.3906H61.289Z" fill="#C4C9F5"/>
</g>
<defs>
<clipPath id="clip0">
<rect width="71.04" height="29.5643" fill="white"/>
</clipPath>
</defs>
</svg>
