<?xml version="1.0" encoding="utf-8"?>
<!-- Generator: Adobe Illustrator 24.1.1, SVG Export Plug-In . SVG Version: 6.00 Build 0)  -->
<svg version="1.1" id="Bold" xmlns="http://www.w3.org/2000/svg" xmlns:xlink="http://www.w3.org/1999/xlink" x="0px" y="0px"
	 viewBox="0 0 512 512" style="enable-background:new 0 0 512 512;" xml:space="preserve">
<style type="text/css">
	.st0{fill:#FFFFFF;}
</style>
<path class="st0" d="M256,512c141.2,0,256-114.9,256-256S397.1,0,256,0S0,114.8,0,256S114.8,512,256,512z M256,32
	c123.5,0,224,100.5,224,224c0,123.5-100.5,224-224,224C132.5,480,32,379.5,32,256C32,132.5,132.5,32,256,32z"/>
<path class="st0" d="M378.5,108.2C345.3,80.6,302.6,64,256,64c-13.4,0-26.6,1.4-39.2,4c23.3,33,44.5,67.4,63.1,103
	C315.1,154.6,348.2,133.4,378.5,108.2L378.5,108.2z"/>
<path class="st0" d="M317.1,252.8c42.5-8.7,86.7-9.6,130.6-2.3c-1.3-45.8-18.5-87.5-46.4-119.8c-32.9,27.8-69.2,50.8-107.6,68.7
	C302.1,217,309.9,234.8,317.1,252.8L317.1,252.8z"/>
<path class="st0" d="M250,183.1c-19.2-36.5-41-71.7-65.3-105.3C127,100.9,83.3,151.1,69.1,212.7C131.2,215.4,192.7,205,250,183.1
	L250,183.1z"/>
<path class="st0" d="M286,260.8c-6.7-16.4-13.9-32.6-21.6-48.7c-55.4,21.6-114.6,33.4-174.8,33.4c-8.3,0-16.6-0.5-24.9-1
	c-0.2,3.8-0.6,7.6-0.6,11.5c0,47.1,17.1,90.3,45.2,123.7C155.3,322.4,217.3,281.4,286,260.8L286,260.8z"/>
<path class="st0" d="M328.9,283.1c15.3,42.6,27.2,86.3,36,130.9c43.3-29.8,73.5-77,81-131.5C406.7,275.6,367.1,275.9,328.9,283.1z"
	/>
<path class="st0" d="M131.9,402.4C165.4,430.8,208.7,448,256,448c28.4,0,55.3-6.3,79.6-17.4c-8.8-47.8-21.6-94.6-38.1-140
	C232.9,309.4,174.7,348.1,131.9,402.4z"/>
</svg>
