<?xml version="1.0" encoding="utf-8"?>
<!-- Generator: Adobe Illustrator 24.1.1, SVG Export Plug-In . SVG Version: 6.00 Build 0)  -->
<svg version="1.1"
	 id="Layer_1" text-rendering="geometricPrecision" shape-rendering="geometricPrecision" image-rendering="optimizeQuality"
	 xmlns="http://www.w3.org/2000/svg" xmlns:xlink="http://www.w3.org/1999/xlink" x="0px" y="0px" viewBox="0 0 1329.1 1329.1"
	 style="enable-background:new 0 0 1329.1 1329.1;" xml:space="preserve">
<style type="text/css">
	.st0{display:none;fill:#E5E5E4;}
	.st1{display:none;fill:#FFFFFF;}
	.st2{display:none;fill:#4A8CFF;}
	.st3{fill:#FFFFFF;}
</style>
<g id="_2116467169744">
	<path class="st0" d="M664.5,0c367,0,664.5,297.5,664.5,664.5s-297.5,664.5-664.5,664.5S0,1031.6,0,664.5S297.5,0,664.5,0z"/>
	<path class="st1" d="M664.5,12.9c359.9,0,651.6,291.7,651.6,651.6s-291.7,651.6-651.6,651.6S12.9,1024.4,12.9,664.5
		S304.7,12.9,664.5,12.9L664.5,12.9z"/>
	<path class="st2" d="M664.5,65.2c331,0,599.3,268.3,599.3,599.3s-268.3,599.3-599.3,599.3S65.2,995.5,65.2,664.5
		S333.5,65.2,664.5,65.2L664.5,65.2z"/>
	<path class="st3" d="M10,344.2v480.6c0.4,108.7,89.2,196.1,197.4,195.7h700.5c19.9,0,35.9-16,35.9-35.5V504.4
		c-0.4-108.7-89.2-196.1-197.4-195.7H45.9C26,308.7,10,324.8,10,344.2L10,344.2z M988.4,531.7l289.2-211.3
		c25.1-20.8,44.6-15.6,44.6,22.1v644.2c0,42.9-23.8,37.7-44.6,22.1L988.4,798V531.7z"/>
</g>
</svg>
