<svg width="38" height="38" viewBox="0 0 38 38" fill="none" xmlns="http://www.w3.org/2000/svg">
<path d="M27.8388 11.9291L21.2132 18.5547L27.8423 25.1838C28.5706 25.9121 28.5636 27.1071 27.8353 27.8355C27.1069 28.5638 25.9119 28.5709 25.1836 27.8425L18.5545 21.2134L11.9289 27.839C11.2006 28.5673 10.0098 28.5645 9.28078 27.8355C8.55175 27.1064 8.54892 25.9157 9.27724 25.1874L15.9028 18.5618L9.2737 11.9326C8.54467 11.2036 8.54892 10.0058 9.27724 9.27745C10.0056 8.54913 11.2034 8.54488 11.9324 9.27391L18.5616 15.903L25.1871 9.27745C25.9155 8.54913 27.1062 8.55196 27.8353 9.28099C28.5643 10.01 28.5671 11.2008 27.8388 11.9291Z" fill="white"/>
</svg>
