<svg viewBox="0 0 59 59" fill="none" xmlns="http://www.w3.org/2000/svg">
<path d="M29.5 59C45.7924 59 59 45.7924 59 29.5C59 13.2076 45.7924 0 29.5 0C13.2076 0 0 13.2076 0 29.5C0 45.7924 13.2076 59 29.5 59Z" fill="#5289E7"/>
<path d="M21.0594 30.2135V33.1125C21.0594 33.8656 21.4804 34.5671 22.1538 34.9282L27.4151 37.7447C28.0464 38.0851 28.804 38.0851 29.4353 37.7447L34.6966 34.9282C35.37 34.5671 35.791 33.8656 35.791 33.1125V30.2135L29.4353 33.618C28.804 33.9584 28.0464 33.9584 27.4151 33.618L21.0594 30.2135ZM27.4151 20.2476L18.5445 24.9933C17.8185 25.3853 17.8185 26.417 18.5445 26.809L27.4151 31.5546C28.0464 31.8951 28.804 31.8951 29.4353 31.5546L37.8955 27.0257V33.1228C37.8955 33.6902 38.369 34.1545 38.9477 34.1545C39.5265 34.1545 40 33.6902 40 33.1228V26.5098C40 26.1281 39.7895 25.7877 39.4528 25.602L29.4353 20.2476C28.804 19.9175 28.0464 19.9175 27.4151 20.2476Z" fill="white"/>
</svg>
