<svg width="53" height="53" viewBox="0 0 53 53" fill="none" xmlns="http://www.w3.org/2000/svg">
<path d="M26.5 0C11.887 0 0 11.8881 0 26.5C0 41.1119 11.887 53 26.5 53C41.113 53 53 41.1119 53 26.5C53 11.8881 41.113 0 26.5 0ZM24.2917 36.4375C24.2917 37.0478 23.7978 37.5417 23.1875 37.5417H16.5625C15.9522 37.5417 15.4583 37.0478 15.4583 36.4375V16.5625C15.4583 15.9522 15.9522 15.4583 16.5625 15.4583H23.1875C23.7978 15.4583 24.2917 15.9522 24.2917 16.5625V36.4375ZM37.5417 36.4375C37.5417 37.0478 37.0478 37.5417 36.4375 37.5417H29.8125C29.2022 37.5417 28.7083 37.0478 28.7083 36.4375V16.5625C28.7083 15.9522 29.2022 15.4583 29.8125 15.4583H36.4375C37.0478 15.4583 37.5417 15.9522 37.5417 16.5625V36.4375Z" fill="#5289E7"/>
</svg>
