<svg width="53" height="53" viewBox="0 0 53 53" fill="none" xmlns="http://www.w3.org/2000/svg">
<path d="M26.5 0C11.887 0 0 11.8881 0 26.5C0 41.1119 11.887 53 26.5 53C41.113 53 53 41.1119 53 26.5C53 11.8881 41.113 0 26.5 0ZM37.0349 27.4284L21.5766 37.3659C21.3954 37.4834 21.1862 37.5417 20.9792 37.5417C20.798 37.5417 20.6147 37.4964 20.4509 37.4069C20.095 37.2128 19.875 36.8418 19.875 36.4375V16.5625C19.875 16.1582 20.095 15.7872 20.4509 15.5931C20.8002 15.4012 21.238 15.413 21.5766 15.6341L37.0349 25.5716C37.3498 25.7743 37.5417 26.1248 37.5417 26.5C37.5417 26.8752 37.3498 27.2256 37.0349 27.4284Z" fill="#5289E7"/>
</svg>
