<svg viewBox="0 0 40 40" fill="none" xmlns="http://www.w3.org/2000/svg">
<path d="M20 0C8.97219 0 0 8.97219 0 20C0 31.0278 8.97219 40 20 40C31.0278 40 40 31.0278 40 20C40 8.97219 31.0278 0 20 0ZM20 38.3334C9.89094 38.3334 1.66664 30.1091 1.66664 20C1.66664 9.89094 9.89094 1.66664 20 1.66664C30.1091 1.66664 38.3334 9.89094 38.3334 20C38.3334 30.1091 30.1091 38.3334 20 38.3334Z" fill="black"/>
<path d="M28.0885 11.9115C27.763 11.5859 27.2356 11.5859 26.9102 11.9115L19.9993 18.8223L13.0885 11.9115C12.763 11.586 12.2356 11.586 11.9102 11.9115C11.5846 12.2371 11.5846 12.7644 11.9102 13.0899L18.821 20.0007L11.9102 26.9114C11.5846 27.237 11.5846 27.7643 11.9102 28.0898C12.0729 28.2525 12.2862 28.3339 12.4994 28.3339C12.7126 28.3339 12.9258 28.2525 13.0886 28.0898L19.9993 21.179L26.9101 28.0898C27.0728 28.2525 27.2861 28.3339 27.4993 28.3339C27.7125 28.3339 27.9257 28.2525 28.0885 28.0898C28.4141 27.7643 28.4141 27.2369 28.0885 26.9114L21.1777 20.0007L28.0885 13.0899C28.414 12.7643 28.414 12.237 28.0885 11.9115Z" fill="black"/>
</svg>
