<svg width="1920" height="748" viewBox="0 0 1920 748" fill="none" xmlns="http://www.w3.org/2000/svg">
<path d="M315.305 297H253V129.422C253 111.323 253.781 91.3359 255.344 69.4609H253.781C250.526 86.6484 247.596 99.0182 244.992 106.57L179.367 297H127.805L61.0078 108.523C59.1849 103.445 56.2552 90.4245 52.2188 69.4609H50.4609C52.1536 97.0651 53 121.284 53 142.117V297H-3.83594V16.9219H88.5469L145.773 182.938C150.331 196.219 153.651 209.565 155.734 222.977H156.906C160.422 207.482 164.133 194.005 168.039 182.547L225.266 16.9219H315.305V297ZM539.328 297H480.93V268.289H480.148C466.737 290.685 446.88 301.883 420.578 301.883C401.177 301.883 385.878 296.414 374.68 285.477C363.612 274.409 358.078 259.695 358.078 241.336C358.078 202.534 381.06 180.138 427.023 174.148L481.32 166.922C481.32 145.047 469.471 134.109 445.773 134.109C421.945 134.109 399.289 141.206 377.805 155.398V108.914C386.398 104.487 398.117 100.581 412.961 97.1953C427.935 93.8099 441.542 92.1172 453.781 92.1172C510.812 92.1172 539.328 120.568 539.328 177.469V297ZM481.32 215.75V202.273L444.992 206.961C424.94 209.565 414.914 218.615 414.914 234.109C414.914 241.141 417.323 246.935 422.141 251.492C427.089 255.919 433.729 258.133 442.062 258.133C453.651 258.133 463.091 254.161 470.383 246.219C477.674 238.146 481.32 227.99 481.32 215.75ZM788.547 297H714.523L650.656 197.781H649.875V297H588.156V0.90625H649.875V189.383H650.656L710.227 97H783.469L711.789 190.945L788.547 297ZM985.812 214.578H855.344C857.427 243.615 875.721 258.133 910.227 258.133C932.232 258.133 951.568 252.924 968.234 242.508V287.039C949.745 296.935 925.721 301.883 896.164 301.883C863.872 301.883 838.807 292.964 820.969 275.125C803.13 257.156 794.211 232.156 794.211 200.125C794.211 166.922 803.846 140.62 823.117 121.219C842.388 101.818 866.086 92.1172 894.211 92.1172C923.378 92.1172 945.904 100.776 961.789 118.094C977.805 135.411 985.812 158.914 985.812 188.602V214.578ZM928.586 176.688C928.586 148.042 916.997 133.719 893.82 133.719C883.924 133.719 875.331 137.82 868.039 146.023C860.878 154.227 856.516 164.448 854.953 176.688H928.586ZM1323.51 97L1242.26 313.016C1222.73 364.969 1193.3 390.945 1153.98 390.945C1139 390.945 1126.7 389.253 1117.06 385.867V336.648C1125.27 341.466 1134.18 343.875 1143.82 343.875C1159.71 343.875 1170.77 336.388 1177.02 321.414L1187.57 296.609L1106.32 97H1174.68L1211.98 218.68C1214.33 226.232 1216.15 235.151 1217.45 245.438H1218.23C1219.41 237.885 1221.55 229.096 1224.68 219.07L1262.38 97H1323.51ZM1439.72 301.883C1406.39 301.883 1380.15 292.573 1361.01 273.953C1342 255.203 1332.49 229.812 1332.49 197.781C1332.49 164.708 1342.39 138.862 1362.18 120.242C1381.97 101.492 1408.73 92.1172 1442.45 92.1172C1475.66 92.1172 1501.7 101.492 1520.58 120.242C1539.46 138.862 1548.9 163.536 1548.9 194.266C1548.9 227.469 1539.13 253.706 1519.6 272.977C1500.2 292.247 1473.57 301.883 1439.72 301.883ZM1441.28 139.383C1426.7 139.383 1415.37 144.396 1407.3 154.422C1399.22 164.448 1395.19 178.641 1395.19 197C1395.19 235.411 1410.68 254.617 1441.67 254.617C1471.23 254.617 1486.01 234.891 1486.01 195.438C1486.01 158.068 1471.1 139.383 1441.28 139.383ZM1778.98 297H1717.45V266.531H1716.48C1701.24 290.099 1680.86 301.883 1655.34 301.883C1608.99 301.883 1585.81 273.823 1585.81 217.703V97H1647.34V212.234C1647.34 240.49 1658.53 254.617 1680.93 254.617C1692 254.617 1700.85 250.776 1707.49 243.094C1714.13 235.281 1717.45 224.734 1717.45 211.453V97H1778.98V297ZM1961.59 152.664C1954.17 148.628 1945.51 146.609 1935.62 146.609C1922.21 146.609 1911.72 151.557 1904.17 161.453C1896.62 171.219 1892.84 184.565 1892.84 201.492V297H1831.12V97H1892.84V134.109H1893.62C1903.39 107.026 1920.97 93.4844 1946.36 93.4844C1952.87 93.4844 1957.95 94.2656 1961.59 95.8281V152.664ZM2231.52 152.664C2224.09 148.628 2215.43 146.609 2205.54 146.609C2192.13 146.609 2181.65 151.557 2174.09 161.453C2166.54 171.219 2162.77 184.565 2162.77 201.492V297H2101.05V97H2162.77V134.109H2163.55C2173.31 107.026 2190.89 93.4844 2216.28 93.4844C2222.79 93.4844 2227.87 94.2656 2231.52 95.8281V152.664ZM2438.55 214.578H2308.08C2310.16 243.615 2328.46 258.133 2362.96 258.133C2384.97 258.133 2404.3 252.924 2420.97 242.508V287.039C2402.48 296.935 2378.46 301.883 2348.9 301.883C2316.61 301.883 2291.54 292.964 2273.7 275.125C2255.86 257.156 2246.95 232.156 2246.95 200.125C2246.95 166.922 2256.58 140.62 2275.85 121.219C2295.12 101.818 2318.82 92.1172 2346.95 92.1172C2376.11 92.1172 2398.64 100.776 2414.52 118.094C2430.54 135.411 2438.55 158.914 2438.55 188.602V214.578ZM2381.32 176.688C2381.32 148.042 2369.73 133.719 2346.55 133.719C2336.66 133.719 2328.07 137.82 2320.77 146.023C2313.61 154.227 2309.25 164.448 2307.69 176.688H2381.32ZM2462.18 291.727V241.727C2472.34 247.846 2482.43 252.404 2492.45 255.398C2502.61 258.393 2512.18 259.891 2521.16 259.891C2532.1 259.891 2540.7 258.393 2546.95 255.398C2553.33 252.404 2556.52 247.846 2556.52 241.727C2556.52 237.82 2555.08 234.565 2552.22 231.961C2549.35 229.357 2545.64 227.078 2541.09 225.125C2536.66 223.172 2531.78 221.414 2526.44 219.852C2521.1 218.289 2515.96 216.531 2511.01 214.578C2503.07 211.583 2496.03 208.393 2489.91 205.008C2483.92 201.492 2478.85 197.456 2474.68 192.898C2470.64 188.341 2467.52 183.068 2465.3 177.078C2463.22 171.089 2462.18 163.992 2462.18 155.789C2462.18 144.591 2464.59 134.956 2469.41 126.883C2474.35 118.81 2480.86 112.234 2488.94 107.156C2497.14 101.948 2506.45 98.1719 2516.87 95.8281C2527.41 93.3542 2538.35 92.1172 2549.68 92.1172C2558.53 92.1172 2567.52 92.8333 2576.63 94.2656C2585.75 95.5677 2594.73 97.5208 2603.59 100.125V147.781C2595.77 143.224 2587.38 139.839 2578.39 137.625C2569.54 135.281 2560.81 134.109 2552.22 134.109C2548.18 134.109 2544.34 134.5 2540.7 135.281C2537.18 135.932 2534.05 136.974 2531.32 138.406C2528.59 139.708 2526.44 141.466 2524.88 143.68C2523.31 145.763 2522.53 148.172 2522.53 150.906C2522.53 154.552 2523.7 157.677 2526.05 160.281C2528.39 162.885 2531.45 165.164 2535.23 167.117C2539 168.94 2543.17 170.633 2547.73 172.195C2552.41 173.628 2557.04 175.125 2561.59 176.688C2569.8 179.552 2577.22 182.677 2583.86 186.062C2590.5 189.448 2596.16 193.419 2600.85 197.977C2605.67 202.534 2609.32 207.872 2611.79 213.992C2614.39 220.112 2615.7 227.404 2615.7 235.867C2615.7 247.716 2613.09 257.872 2607.88 266.336C2602.8 274.669 2595.97 281.505 2587.38 286.844C2578.91 292.052 2569.08 295.828 2557.88 298.172C2546.82 300.646 2535.29 301.883 2523.31 301.883C2501.31 301.883 2480.93 298.497 2462.18 291.727ZM2841.48 297H2779.95V266.531H2778.98C2763.74 290.099 2743.36 301.883 2717.84 301.883C2671.49 301.883 2648.31 273.823 2648.31 217.703V97H2709.84V212.234C2709.84 240.49 2721.03 254.617 2743.43 254.617C2754.5 254.617 2763.35 250.776 2769.99 243.094C2776.63 235.281 2779.95 224.734 2779.95 211.453V97H2841.48V297ZM3211.2 297H3149.68V182.938C3149.68 153.901 3139 139.383 3117.65 139.383C3107.49 139.383 3099.22 143.745 3092.84 152.469C3086.46 161.193 3083.27 172.065 3083.27 185.086V297H3021.55V181.766C3021.55 153.51 3011.07 139.383 2990.11 139.383C2979.56 139.383 2971.1 143.549 2964.72 151.883C2958.47 160.216 2955.34 171.544 2955.34 185.867V297H2893.62V97H2955.34V128.25H2956.12C2962.51 117.573 2971.42 108.914 2982.88 102.273C2994.47 95.5026 3007.1 92.1172 3020.77 92.1172C3049.03 92.1172 3068.36 104.552 3078.78 129.422C3094.02 104.552 3116.41 92.1172 3145.97 92.1172C3189.46 92.1172 3211.2 118.94 3211.2 172.586V297ZM3439.72 214.578H3309.25C3311.33 243.615 3329.63 258.133 3364.13 258.133C3386.14 258.133 3405.47 252.924 3422.14 242.508V287.039C3403.65 296.935 3379.63 301.883 3350.07 301.883C3317.78 301.883 3292.71 292.964 3274.88 275.125C3257.04 257.156 3248.12 232.156 3248.12 200.125C3248.12 166.922 3257.75 140.62 3277.02 121.219C3296.29 101.818 3319.99 92.1172 3348.12 92.1172C3377.28 92.1172 3399.81 100.776 3415.7 118.094C3431.71 135.411 3439.72 158.914 3439.72 188.602V214.578ZM3382.49 176.688C3382.49 148.042 3370.9 133.719 3347.73 133.719C3337.83 133.719 3329.24 137.82 3321.95 146.023C3314.78 154.227 3310.42 164.448 3308.86 176.688H3382.49ZM3780.15 297H3718.62V185.867C3718.62 154.878 3707.56 139.383 3685.42 139.383C3674.74 139.383 3665.96 143.484 3659.05 151.688C3652.15 159.891 3648.7 170.307 3648.7 182.938V297H3586.98V97H3648.7V128.641H3649.48C3664.2 104.292 3685.62 92.1172 3713.74 92.1172C3758.01 92.1172 3780.15 119.591 3780.15 174.539V297ZM3924.48 301.883C3891.15 301.883 3864.91 292.573 3845.77 273.953C3826.76 255.203 3817.26 229.812 3817.26 197.781C3817.26 164.708 3827.15 138.862 3846.95 120.242C3866.74 101.492 3893.49 92.1172 3927.22 92.1172C3960.42 92.1172 3986.46 101.492 4005.34 120.242C4024.22 138.862 4033.66 163.536 4033.66 194.266C4033.66 227.469 4023.9 253.706 4004.37 272.977C3984.97 292.247 3958.34 301.883 3924.48 301.883ZM3926.05 139.383C3911.46 139.383 3900.14 144.396 3892.06 154.422C3883.99 164.448 3879.95 178.641 3879.95 197C3879.95 235.411 3895.45 254.617 3926.44 254.617C3955.99 254.617 3970.77 234.891 3970.77 195.438C3970.77 158.068 3955.86 139.383 3926.05 139.383ZM4363.35 97L4305.73 297H4240.89L4211.4 179.812C4209.45 172 4208.34 163.471 4208.08 154.227H4206.91C4205.99 164.383 4204.69 172.651 4203 179.031L4171.36 297H4107.3L4050.85 97H4113.74L4141.28 227.469C4142.58 233.589 4143.56 241.01 4144.21 249.734H4145.38C4146.03 240.62 4147.21 232.938 4148.9 226.688L4183.27 97H4242.06L4272.92 227.469C4273.7 230.724 4274.61 238.276 4275.66 250.125H4277.02C4277.67 242.573 4278.72 235.021 4280.15 227.469L4306.12 97H4363.35Z" fill="#ECECEC" fill-opacity="0.2"/>
<g filter="url(#filter0_d)">
<rect x="1811" y="610" width="87.66" height="87.66" rx="43.83" transform="rotate(27.8846 1811 610)" fill="#F8F8F8"/>
<rect x="1811.62" y="612.027" width="84.66" height="84.66" rx="42.33" transform="rotate(27.8846 1811.62 612.027)" stroke="url(#paint0_linear)" stroke-width="3"/>
</g>
<circle cx="1887.89" cy="546.888" r="17.6136" transform="rotate(42.6272 1887.89 546.888)" fill="#0F4CEE" fill-opacity="0.07"/>
<g filter="url(#filter1_i)">
<path d="M1838.01 692.466C1838.04 692.455 1838.08 692.439 1838.12 692.426C1860.54 683.322 1854.34 649 1830.01 649C1826.78 649 1823.58 649.73 1820.65 651.136C1817.73 652.542 1815.14 654.59 1813.07 657.135C1811.01 659.68 1809.51 662.659 1808.7 665.86C1807.89 669.061 1807.78 672.406 1808.38 675.655C1808.98 678.905 1810.27 681.98 1812.16 684.662C1814.05 687.344 1816.5 689.566 1819.33 691.171C1822.16 692.777 1825.3 693.725 1828.53 693.948C1831.76 694.172 1834.99 693.666 1838.01 692.466ZM1817.68 686.63C1819.24 683.942 1824.3 676.365 1832.94 673.753C1834.96 678.991 1836.04 684.553 1836.14 690.179C1833.03 691.258 1829.69 691.499 1826.46 690.877C1823.22 690.255 1820.2 688.793 1817.68 686.63ZM1838.85 688.999C1838.65 683.567 1837.59 678.203 1835.71 673.116C1840.21 672.487 1844.8 673.127 1848.97 674.967C1848.45 677.942 1847.27 680.754 1845.51 683.187C1843.75 685.62 1841.48 687.608 1838.85 688.999ZM1849.26 672.058C1844.63 670.151 1839.57 669.608 1834.65 670.492C1834 668.991 1833.31 667.549 1832.59 666.22C1837.03 664.516 1841.1 661.949 1844.59 658.661C1847.75 662.363 1849.42 667.149 1849.26 672.058H1849.26ZM1842.64 656.657C1839.28 659.744 1835.38 662.146 1831.14 663.733C1828.78 659.898 1825.94 656.391 1822.7 653.299C1825.99 651.904 1829.61 651.48 1833.13 652.073C1836.66 652.666 1839.95 654.254 1842.64 656.657ZM1820.06 654.676C1823.27 657.63 1826.08 661.009 1828.41 664.723C1822.82 666.491 1817 667.422 1811.15 667.485C1811.7 664.838 1812.77 662.335 1814.31 660.13C1815.84 657.926 1817.8 656.067 1820.07 654.67L1820.06 654.676ZM1810.8 670.311C1817.29 670.286 1823.73 669.243 1829.91 667.219C1830.6 668.456 1831.25 669.802 1831.88 671.201C1823.19 674.032 1817.76 681.333 1815.68 684.631C1813.97 682.7 1812.66 680.437 1811.82 677.978C1810.98 675.518 1810.63 672.911 1810.8 670.311Z" fill="#0046FE"/>
</g>
<defs>
<filter id="filter0_d" x="1755" y="599" width="148.48" height="148.48" filterUnits="userSpaceOnUse" color-interpolation-filters="sRGB">
<feFlood flood-opacity="0" result="BackgroundImageFix"/>
<feColorMatrix in="SourceAlpha" type="matrix" values="0 0 0 0 0 0 0 0 0 0 0 0 0 0 0 0 0 0 127 0"/>
<feOffset dy="4"/>
<feGaussianBlur stdDeviation="7.5"/>
<feColorMatrix type="matrix" values="0 0 0 0 0 0 0 0 0 0 0 0 0 0 0 0 0 0 0.1 0"/>
<feBlend mode="normal" in2="BackgroundImageFix" result="effect1_dropShadow"/>
<feBlend mode="normal" in="SourceGraphic" in2="effect1_dropShadow" result="shape"/>
</filter>
<filter id="filter1_i" x="1808" y="649" width="44" height="46" filterUnits="userSpaceOnUse" color-interpolation-filters="sRGB">
<feFlood flood-opacity="0" result="BackgroundImageFix"/>
<feBlend mode="normal" in="SourceGraphic" in2="BackgroundImageFix" result="shape"/>
<feColorMatrix in="SourceAlpha" type="matrix" values="0 0 0 0 0 0 0 0 0 0 0 0 0 0 0 0 0 0 127 0" result="hardAlpha"/>
<feOffset dy="4"/>
<feGaussianBlur stdDeviation="0.5"/>
<feComposite in2="hardAlpha" operator="arithmetic" k2="-1" k3="1"/>
<feColorMatrix type="matrix" values="0 0 0 0 0 0 0 0 0 0 0 0 0 0 0 0 0 0 0.25 0"/>
<feBlend mode="normal" in2="shape" result="effect1_innerShadow"/>
</filter>
<linearGradient id="paint0_linear" x1="1854.83" y1="610" x2="1854.83" y2="697.66" gradientUnits="userSpaceOnUse">
<stop stop-color="#F7F7F7"/>
<stop offset="1" stop-color="#F7F7F7" stop-opacity="0"/>
</linearGradient>
</defs>
</svg>
