<svg width="1920" height="290" viewBox="0 0 1920 290" fill="none" xmlns="http://www.w3.org/2000/svg">
<path d="M-1466.66 291.727V241.727C-1456.51 247.846 -1446.42 252.404 -1436.39 255.398C-1426.23 258.393 -1416.66 259.891 -1407.68 259.891C-1396.74 259.891 -1388.15 258.393 -1381.9 255.398C-1375.52 252.404 -1372.33 247.846 -1372.33 241.727C-1372.33 237.82 -1373.76 234.565 -1376.62 231.961C-1379.49 229.357 -1383.2 227.078 -1387.76 225.125C-1392.18 223.172 -1397.07 221.414 -1402.41 219.852C-1407.74 218.289 -1412.89 216.531 -1417.84 214.578C-1425.78 211.583 -1432.81 208.393 -1438.93 205.008C-1444.92 201.492 -1450 197.456 -1454.16 192.898C-1458.2 188.341 -1461.33 183.068 -1463.54 177.078C-1465.62 171.089 -1466.66 163.992 -1466.66 155.789C-1466.66 144.591 -1464.26 134.956 -1459.44 126.883C-1454.49 118.81 -1447.98 112.234 -1439.91 107.156C-1431.7 101.948 -1422.39 98.1719 -1411.98 95.8281C-1401.43 93.3542 -1390.49 92.1172 -1379.16 92.1172C-1370.31 92.1172 -1361.33 92.8333 -1352.21 94.2656C-1343.1 95.5677 -1334.11 97.5208 -1325.26 100.125V147.781C-1333.07 143.224 -1341.47 139.839 -1350.45 137.625C-1359.31 135.281 -1368.03 134.109 -1376.62 134.109C-1380.66 134.109 -1384.5 134.5 -1388.15 135.281C-1391.66 135.932 -1394.79 136.974 -1397.52 138.406C-1400.26 139.708 -1402.41 141.466 -1403.97 143.68C-1405.53 145.763 -1406.31 148.172 -1406.31 150.906C-1406.31 154.552 -1405.14 157.677 -1402.8 160.281C-1400.45 162.885 -1397.39 165.164 -1393.62 167.117C-1389.84 168.94 -1385.67 170.633 -1381.12 172.195C-1376.43 173.628 -1371.81 175.125 -1367.25 176.688C-1359.05 179.552 -1351.62 182.677 -1344.98 186.062C-1338.34 189.448 -1332.68 193.419 -1327.99 197.977C-1323.17 202.534 -1319.53 207.872 -1317.05 213.992C-1314.45 220.112 -1313.15 227.404 -1313.15 235.867C-1313.15 247.716 -1315.75 257.872 -1320.96 266.336C-1326.04 274.669 -1332.88 281.505 -1341.47 286.844C-1349.93 292.052 -1359.76 295.828 -1370.96 298.172C-1382.03 300.646 -1393.55 301.883 -1405.53 301.883C-1427.54 301.883 -1447.91 298.497 -1466.66 291.727ZM-1097.72 214.578H-1228.19C-1226.1 243.615 -1207.81 258.133 -1173.3 258.133C-1151.3 258.133 -1131.96 252.924 -1115.3 242.508V287.039C-1133.79 296.935 -1157.81 301.883 -1187.37 301.883C-1219.66 301.883 -1244.72 292.964 -1262.56 275.125C-1280.4 257.156 -1289.32 232.156 -1289.32 200.125C-1289.32 166.922 -1279.68 140.62 -1260.41 121.219C-1241.14 101.818 -1217.45 92.1172 -1189.32 92.1172C-1160.15 92.1172 -1137.63 100.776 -1121.74 118.094C-1105.73 135.411 -1097.72 158.914 -1097.72 188.602V214.578ZM-1154.95 176.688C-1154.95 148.042 -1166.53 133.719 -1189.71 133.719C-1199.61 133.719 -1208.2 137.82 -1215.49 146.023C-1222.65 154.227 -1227.02 164.448 -1228.58 176.688H-1154.95ZM-881.312 214.578H-1011.78C-1009.7 243.615 -991.404 258.133 -956.898 258.133C-934.893 258.133 -915.557 252.924 -898.891 242.508V287.039C-917.38 296.935 -941.404 301.883 -970.961 301.883C-1003.25 301.883 -1028.32 292.964 -1046.16 275.125C-1063.99 257.156 -1072.91 232.156 -1072.91 200.125C-1072.91 166.922 -1063.28 140.62 -1044.01 121.219C-1024.74 101.818 -1001.04 92.1172 -972.914 92.1172C-943.747 92.1172 -921.221 100.776 -905.336 118.094C-889.32 135.411 -881.312 158.914 -881.312 188.602V214.578ZM-938.539 176.688C-938.539 148.042 -950.128 133.719 -973.305 133.719C-983.201 133.719 -991.794 137.82 -999.086 146.023C-1006.25 154.227 -1010.61 164.448 -1012.17 176.688H-938.539ZM-638.734 301.883C-672.068 301.883 -698.305 292.573 -717.445 273.953C-736.456 255.203 -745.961 229.812 -745.961 197.781C-745.961 164.708 -736.065 138.862 -716.273 120.242C-696.482 101.492 -669.724 92.1172 -636 92.1172C-602.797 92.1172 -576.755 101.492 -557.875 120.242C-538.995 138.862 -529.555 163.536 -529.555 194.266C-529.555 227.469 -539.32 253.706 -558.852 272.977C-578.253 292.247 -604.88 301.883 -638.734 301.883ZM-637.172 139.383C-651.755 139.383 -663.083 144.396 -671.156 154.422C-679.229 164.448 -683.266 178.641 -683.266 197C-683.266 235.411 -667.771 254.617 -636.781 254.617C-607.224 254.617 -592.445 234.891 -592.445 195.438C-592.445 158.068 -607.354 139.383 -637.172 139.383ZM-299.477 297H-361V266.531H-361.977C-377.211 290.099 -397.589 301.883 -423.109 301.883C-469.464 301.883 -492.641 273.823 -492.641 217.703V97H-431.117V212.234C-431.117 240.49 -419.919 254.617 -397.523 254.617C-386.456 254.617 -377.602 250.776 -370.961 243.094C-364.32 235.281 -361 224.734 -361 211.453V97H-299.477V297ZM-116.859 152.664C-124.281 148.628 -132.94 146.609 -142.836 146.609C-156.247 146.609 -166.729 151.557 -174.281 161.453C-181.833 171.219 -185.609 184.565 -185.609 201.492V297H-247.328V97H-185.609V134.109H-184.828C-175.062 107.026 -157.484 93.4844 -132.094 93.4844C-125.583 93.4844 -120.505 94.2656 -116.859 95.8281V152.664ZM147.008 301.883C106.904 301.883 74.2214 288.862 48.9609 262.82C23.7005 236.648 11.0703 202.599 11.0703 160.672C11.0703 116.401 23.8958 80.5938 49.5469 53.25C75.1979 25.9062 109.182 12.2344 151.5 12.2344C191.474 12.2344 223.766 25.3203 248.375 51.4922C273.115 77.6641 285.484 112.169 285.484 155.008C285.484 199.018 272.659 234.5 247.008 261.453C221.487 288.406 188.154 301.883 147.008 301.883ZM149.742 66.5312C127.607 66.5312 110.029 74.8646 97.0078 91.5312C83.987 108.068 77.4766 130.008 77.4766 157.352C77.4766 185.086 83.987 207.026 97.0078 223.172C110.029 239.318 127.086 247.391 148.18 247.391C169.924 247.391 187.177 239.578 199.938 223.953C212.698 208.198 219.078 186.388 219.078 158.523C219.078 129.487 212.893 106.896 200.523 90.75C188.154 74.6042 171.227 66.5312 149.742 66.5312ZM519.273 297H457.75V185.867C457.75 154.878 446.682 139.383 424.547 139.383C413.87 139.383 405.081 143.484 398.18 151.688C391.279 159.891 387.828 170.307 387.828 182.938V297H326.109V97H387.828V128.641H388.609C403.323 104.292 424.742 92.1172 452.867 92.1172C497.138 92.1172 519.273 119.591 519.273 174.539V297ZM630.016 297H568.297V0.90625H630.016V297ZM713.219 65.3594C702.802 65.3594 694.273 62.2995 687.633 56.1797C680.992 49.9297 677.672 42.3125 677.672 33.3281C677.672 24.0833 680.992 16.5312 687.633 10.6719C694.273 4.8125 702.802 1.88281 713.219 1.88281C723.766 1.88281 732.294 4.8125 738.805 10.6719C745.445 16.5312 748.766 24.0833 748.766 33.3281C748.766 42.7031 745.445 50.3854 738.805 56.375C732.294 62.3646 723.766 65.3594 713.219 65.3594ZM743.688 297H681.969V97H743.688V297ZM988.805 297H927.281V185.867C927.281 154.878 916.214 139.383 894.078 139.383C883.401 139.383 874.612 143.484 867.711 151.688C860.81 159.891 857.359 170.307 857.359 182.938V297H795.641V97H857.359V128.641H858.141C872.854 104.292 894.273 92.1172 922.398 92.1172C966.669 92.1172 988.805 119.591 988.805 174.539V297ZM1217.52 214.578H1087.05C1089.13 243.615 1107.42 258.133 1141.93 258.133C1163.93 258.133 1183.27 252.924 1199.94 242.508V287.039C1181.45 296.935 1157.42 301.883 1127.87 301.883C1095.58 301.883 1070.51 292.964 1052.67 275.125C1034.83 257.156 1025.91 232.156 1025.91 200.125C1025.91 166.922 1035.55 140.62 1054.82 121.219C1074.09 101.818 1097.79 92.1172 1125.91 92.1172C1155.08 92.1172 1177.61 100.776 1193.49 118.094C1209.51 135.411 1217.52 158.914 1217.52 188.602V214.578ZM1160.29 176.688C1160.29 148.042 1148.7 133.719 1125.52 133.719C1115.63 133.719 1107.03 137.82 1099.74 146.023C1092.58 154.227 1088.22 164.448 1086.66 176.688H1160.29ZM1605.8 297H1533.34L1489.78 224.93C1486.53 219.461 1483.4 214.578 1480.41 210.281C1477.41 205.984 1474.35 202.339 1471.23 199.344C1468.23 196.219 1465.04 193.875 1461.66 192.312C1458.4 190.62 1454.82 189.773 1450.91 189.773H1433.92V297H1370.84V16.9219H1470.84C1538.8 16.9219 1572.79 42.3125 1572.79 93.0938C1572.79 102.859 1571.29 111.909 1568.3 120.242C1565.3 128.445 1561.07 135.867 1555.6 142.508C1550.13 149.148 1543.49 154.878 1535.68 159.695C1528 164.513 1519.4 168.289 1509.9 171.023V171.805C1514.07 173.107 1518.1 175.255 1522.01 178.25C1525.91 181.115 1529.69 184.5 1533.34 188.406C1536.98 192.312 1540.43 196.544 1543.69 201.102C1547.07 205.529 1550.13 209.891 1552.87 214.188L1605.8 297ZM1433.92 64.1875V142.117H1461.27C1474.81 142.117 1485.68 138.211 1493.88 130.398C1502.22 122.456 1506.38 112.625 1506.38 100.906C1506.38 76.4271 1491.73 64.1875 1462.44 64.1875H1433.92ZM1795.64 214.578H1665.17C1667.26 243.615 1685.55 258.133 1720.05 258.133C1742.06 258.133 1761.4 252.924 1778.06 242.508V287.039C1759.57 296.935 1735.55 301.883 1705.99 301.883C1673.7 301.883 1648.64 292.964 1630.8 275.125C1612.96 257.156 1604.04 232.156 1604.04 200.125C1604.04 166.922 1613.67 140.62 1632.95 121.219C1652.22 101.818 1675.91 92.1172 1704.04 92.1172C1733.21 92.1172 1755.73 100.776 1771.62 118.094C1787.63 135.411 1795.64 158.914 1795.64 188.602V214.578ZM1738.41 176.688C1738.41 148.042 1726.83 133.719 1703.65 133.719C1693.75 133.719 1685.16 137.82 1677.87 146.023C1670.71 154.227 1666.34 164.448 1664.78 176.688H1738.41ZM1819.27 291.727V241.727C1829.43 247.846 1839.52 252.404 1849.55 255.398C1859.7 258.393 1869.27 259.891 1878.26 259.891C1889.2 259.891 1897.79 258.393 1904.04 255.398C1910.42 252.404 1913.61 247.846 1913.61 241.727C1913.61 237.82 1912.18 234.565 1909.31 231.961C1906.45 229.357 1902.74 227.078 1898.18 225.125C1893.75 223.172 1888.87 221.414 1883.53 219.852C1878.19 218.289 1873.05 216.531 1868.1 214.578C1860.16 211.583 1853.13 208.393 1847.01 205.008C1841.02 201.492 1835.94 197.456 1831.77 192.898C1827.74 188.341 1824.61 183.068 1822.4 177.078C1820.32 171.089 1819.27 163.992 1819.27 155.789C1819.27 144.591 1821.68 134.956 1826.5 126.883C1831.45 118.81 1837.96 112.234 1846.03 107.156C1854.23 101.948 1863.54 98.1719 1873.96 95.8281C1884.51 93.3542 1895.45 92.1172 1906.77 92.1172C1915.63 92.1172 1924.61 92.8333 1933.73 94.2656C1942.84 95.5677 1951.83 97.5208 1960.68 100.125V147.781C1952.87 143.224 1944.47 139.839 1935.48 137.625C1926.63 135.281 1917.91 134.109 1909.31 134.109C1905.28 134.109 1901.43 134.5 1897.79 135.281C1894.27 135.932 1891.15 136.974 1888.41 138.406C1885.68 139.708 1883.53 141.466 1881.97 143.68C1880.41 145.763 1879.62 148.172 1879.62 150.906C1879.62 154.552 1880.8 157.677 1883.14 160.281C1885.48 162.885 1888.54 165.164 1892.32 167.117C1896.1 168.94 1900.26 170.633 1904.82 172.195C1909.51 173.628 1914.13 175.125 1918.69 176.688C1926.89 179.552 1934.31 182.677 1940.95 186.062C1947.59 189.448 1953.26 193.419 1957.95 197.977C1962.76 202.534 1966.41 207.872 1968.88 213.992C1971.49 220.112 1972.79 227.404 1972.79 235.867C1972.79 247.716 1970.18 257.872 1964.98 266.336C1959.9 274.669 1953.06 281.505 1944.47 286.844C1936.01 292.052 1926.17 295.828 1914.98 298.172C1903.91 300.646 1892.39 301.883 1880.41 301.883C1858.4 301.883 1838.02 298.497 1819.27 291.727ZM2198.57 297H2137.05V266.531H2136.07C2120.84 290.099 2100.46 301.883 2074.94 301.883C2028.58 301.883 2005.41 273.823 2005.41 217.703V97H2066.93V212.234C2066.93 240.49 2078.13 254.617 2100.52 254.617C2111.59 254.617 2120.45 250.776 2127.09 243.094C2133.73 235.281 2137.05 224.734 2137.05 211.453V97H2198.57V297ZM2568.3 297H2506.77V182.938C2506.77 153.901 2496.1 139.383 2474.74 139.383C2464.59 139.383 2456.32 143.745 2449.94 152.469C2443.56 161.193 2440.37 172.065 2440.37 185.086V297H2378.65V181.766C2378.65 153.51 2368.17 139.383 2347.2 139.383C2336.66 139.383 2328.19 143.549 2321.81 151.883C2315.56 160.216 2312.44 171.544 2312.44 185.867V297H2250.72V97H2312.44V128.25H2313.22C2319.6 117.573 2328.52 108.914 2339.98 102.273C2351.57 95.5026 2364.2 92.1172 2377.87 92.1172C2406.12 92.1172 2425.46 104.552 2435.88 129.422C2451.11 104.552 2473.51 92.1172 2503.06 92.1172C2546.55 92.1172 2568.3 118.94 2568.3 172.586V297ZM2796.81 214.578H2666.34C2668.43 243.615 2686.72 258.133 2721.23 258.133C2743.23 258.133 2762.57 252.924 2779.23 242.508V287.039C2760.74 296.935 2736.72 301.883 2707.16 301.883C2674.87 301.883 2649.81 292.964 2631.97 275.125C2614.13 257.156 2605.21 232.156 2605.21 200.125C2605.21 166.922 2614.85 140.62 2634.12 121.219C2653.39 101.818 2677.09 92.1172 2705.21 92.1172C2734.38 92.1172 2756.9 100.776 2772.79 118.094C2788.8 135.411 2796.81 158.914 2796.81 188.602V214.578ZM2739.59 176.688C2739.59 148.042 2728 133.719 2704.82 133.719C2694.92 133.719 2686.33 137.82 2679.04 146.023C2671.88 154.227 2667.52 164.448 2665.95 176.688H2739.59Z" fill="#ECECEC" fill-opacity="0.2"/>
</svg>
