<svg width="20" height="19" viewBox="0 0 20 19" fill="none" xmlns="http://www.w3.org/2000/svg">
<path d="M12.0002 3.99927V1.99927H8.00025V3.99927H12.0002ZM2.00024 5.99927V16.9993H18.0002V5.99927H2.00024ZM18.0002 3.99927C19.1102 3.99927 20.0002 4.88927 20.0002 5.99927V16.9993C20.0002 18.1093 19.1102 18.9993 18.0002 18.9993H2.00024C0.890244 18.9993 0.000244141 18.1093 0.000244141 16.9993L0.0102441 5.99927C0.0102441 4.88927 0.890244 3.99927 2.00024 3.99927H6.00025V1.99927C6.00025 0.889267 6.89024 -0.000732422 8.00025 -0.000732422H12.0002C13.1102 -0.000732422 14.0002 0.889267 14.0002 1.99927V3.99927H18.0002Z" fill="white"/>
</svg>
