<svg width="119" height="30" viewBox="0 0 119 30" fill="none" xmlns="http://www.w3.org/2000/svg">
<g clip-path="url(#clip0)">
<path d="M22.2487 2.26592C20.8794 0.678788 18.3587 -0.00585938 15.1533 -0.00585938H5.81718C5.16365 -0.00585938 4.60348 0.460945 4.51012 1.11447L0.62008 25.7307C0.55784 26.2286 0.931284 26.6643 1.39809 26.6643H7.15535L8.58689 17.4838L8.55577 17.7639C8.64913 17.1103 9.20929 16.6435 9.86282 16.6435H12.6014C17.9852 16.6435 22.1865 14.4651 23.4002 8.14767C23.4313 7.96095 23.4624 7.77422 23.4935 7.5875C23.8981 5.2846 23.5246 3.69746 22.2487 2.26592Z" fill="#003087"/>
<path d="M92.7092 13.9613C92.3669 16.2642 90.5931 16.2642 88.8814 16.2642H87.9167L88.6013 11.9385C88.6325 11.6895 88.8814 11.4717 89.1304 11.4717H89.5661C90.7175 11.4717 91.8379 11.4717 92.398 12.1252C92.7404 12.592 92.8337 13.1522 92.7092 13.9613ZM91.9623 7.95508H85.5204C85.0848 7.95508 84.7113 8.26628 84.6491 8.70197L82.035 25.1957C81.9727 25.5069 82.2217 25.8181 82.564 25.8181H85.8628C86.174 25.8181 86.4229 25.6003 86.4852 25.2891L87.2321 20.6211C87.2943 20.1854 87.6677 19.8742 88.1034 19.8742H90.1262C94.3586 19.8742 96.8171 17.8202 97.4395 13.7435C97.7196 11.9696 97.4395 10.5692 96.6304 9.60446C95.7279 8.51524 94.1096 7.95508 91.9623 7.95508Z" fill="#E6E8FC"/>
<path d="M46.8007 13.9613C46.4583 16.2642 44.6845 16.2642 42.9729 16.2642H42.0081L42.6928 11.9385C42.7239 11.6895 42.9729 11.4717 43.2218 11.4717H43.6575C44.809 11.4717 45.9293 11.4717 46.4895 12.1252C46.8318 12.592 46.9252 13.1522 46.8007 13.9613ZM46.0538 7.95508H39.643C39.2073 7.95508 38.8339 8.26628 38.7716 8.70197L36.1575 25.1957C36.0953 25.5069 36.3442 25.8181 36.6866 25.8181H39.7675C40.2032 25.8181 40.5766 25.5069 40.6388 25.0713L41.3546 20.6211C41.4169 20.1854 41.7903 19.8742 42.226 19.8742H44.2488C48.4812 19.8742 50.9397 17.8202 51.5621 13.7435C51.8422 11.9696 51.5621 10.5692 50.753 9.60446C49.8505 8.51524 48.2322 7.95508 46.0538 7.95508Z" fill="#C4C9F5"/>
<path d="M60.9948 19.8937C60.6836 21.6676 59.3143 22.8502 57.5093 22.8502C56.6068 22.8502 55.891 22.5701 55.4553 22.0099C54.9885 21.4809 54.8329 20.7029 54.9574 19.8315C55.2375 18.0888 56.669 16.8751 58.4118 16.8751C59.2831 16.8751 59.9989 17.1551 60.4657 17.7153C60.9636 18.2755 61.1504 19.0535 60.9948 19.8937ZM65.2894 13.8875H62.2085C61.9595 13.8875 61.7105 14.0742 61.6794 14.3543L61.5549 15.2257L61.3371 14.9145C60.6836 13.9497 59.1898 13.6074 57.696 13.6074C54.3039 13.6074 51.3786 16.1904 50.8184 19.8004C50.5383 21.6053 50.9429 23.317 51.9699 24.5307C52.9035 25.651 54.2416 26.0867 55.8599 26.0867C58.5985 26.0867 60.1234 24.3128 60.1234 24.3128L59.9989 25.1842C59.9367 25.4954 60.1856 25.8066 60.528 25.8066H63.2977C63.7334 25.8066 64.1068 25.4954 64.169 25.0597L65.8495 14.5099C65.8807 14.1987 65.6317 13.8875 65.2894 13.8875Z" fill="#C4C9F5"/>
<path d="M106.903 19.8937C106.592 21.6676 105.223 22.8502 103.418 22.8502C102.515 22.8502 101.8 22.5701 101.364 22.0099C100.897 21.4809 100.742 20.7029 100.866 19.8315C101.146 18.0888 102.578 16.8751 104.32 16.8751C105.192 16.8751 105.908 17.1551 106.374 17.7153C106.841 18.2755 107.028 19.0535 106.903 19.8937ZM111.198 13.8875H108.117C107.868 13.8875 107.619 14.0742 107.588 14.3543L107.464 15.2257L107.246 14.9145C106.592 13.9497 105.098 13.6074 103.605 13.6074C100.213 13.6074 97.2873 16.1904 96.7271 19.8004C96.447 21.6053 96.8516 23.317 97.8786 24.5307C98.8122 25.651 100.15 26.0867 101.769 26.0867C104.507 26.0867 106.032 24.3128 106.032 24.3128L105.908 25.1842C105.845 25.4954 106.094 25.8066 106.437 25.8066H109.206C109.642 25.8066 110.015 25.4954 110.078 25.0597L111.758 14.5099C111.789 14.1987 111.54 13.8875 111.198 13.8875Z" fill="#E6E8FC"/>
<path d="M81.7075 13.8965H78.5954C78.2842 13.8965 78.0353 14.0521 77.8486 14.301L73.5851 20.5874L71.7801 14.55C71.6556 14.1766 71.3133 13.8965 70.9087 13.8965H67.8589C67.4855 13.8965 67.2365 14.2699 67.361 14.6123L70.7842 24.633L67.5788 29.1454C67.3299 29.4878 67.5788 29.9857 68.0145 29.9857H71.0954C71.3755 29.9857 71.6556 29.8301 71.8423 29.6122L82.1432 14.7367C82.3921 14.3944 82.1432 13.8965 81.7075 13.8965Z" fill="#C4C9F5"/>
<path d="M114.825 8.39662L112.179 25.2016C112.117 25.5128 112.366 25.824 112.709 25.824H115.354C115.789 25.824 116.163 25.5128 116.225 25.0771L118.87 8.58334C118.933 8.27214 118.684 7.96094 118.341 7.96094H115.385C115.105 7.96094 114.887 8.14766 114.825 8.39662Z" fill="#E6E8FC"/>
<path d="M22.2487 2.26592C20.8794 0.678788 18.3587 -0.00585938 15.1533 -0.00585938H5.81718C5.16365 -0.00585938 4.60348 0.460945 4.51012 1.11447L0.62008 25.7307C0.55784 26.2286 0.931284 26.6643 1.39809 26.6643H7.15535L8.58689 17.4838L8.55577 17.7639C8.64913 17.1103 9.20929 16.6435 9.86282 16.6435H12.6014C17.9852 16.6435 22.1865 14.4651 23.4002 8.14767C23.4313 7.96095 23.4624 7.77422 23.4935 7.5875C23.8981 5.2846 23.5246 3.69746 22.2487 2.26592Z" fill="#003087"/>
<path d="M10.1835 7.65183C10.2458 7.24726 10.4947 6.93606 10.8371 6.78046C10.9927 6.71822 11.1483 6.65597 11.335 6.65597H18.6171C19.4885 6.65597 20.2976 6.71822 21.0134 6.8427C21.2312 6.87382 21.418 6.90494 21.6358 6.96718C21.8225 6.9983 22.0404 7.06054 22.2271 7.12278C22.3205 7.1539 22.4138 7.18502 22.5072 7.21614C22.8806 7.34062 23.2229 7.4651 23.503 7.65183C23.8765 5.3178 23.503 3.73066 22.2271 2.29913C20.8267 0.711991 18.3371 0.0273438 15.1005 0.0273438H5.76444C5.11091 0.0273438 4.55075 0.494149 4.45739 1.14768L0.567346 25.7639C0.505105 26.2618 0.878549 26.6975 1.34535 26.6975H7.16486L8.59639 17.517L10.1835 7.65183Z" fill="#C4C9F5"/>
<path d="M23.5323 7.63086C23.5012 7.81758 23.47 8.0043 23.4389 8.19103C22.1941 14.4773 17.9929 16.6558 12.609 16.6558H9.87045C9.21693 16.6558 8.65676 17.1226 8.5634 17.7761L7.16298 26.6454L6.75842 29.1661C6.69618 29.6018 7.00738 29.9753 7.44307 29.9753H12.329C12.8891 29.9753 13.387 29.5707 13.4804 28.9794L13.5427 28.7304L14.4451 22.9421L14.5074 22.6309C14.6007 22.0707 15.0987 21.635 15.6588 21.635H16.3746C21.0738 21.635 24.746 19.7367 25.8352 14.1972C26.2709 11.8943 26.053 9.96488 24.8705 8.59559C24.497 8.22215 24.0302 7.91094 23.5323 7.63086Z" fill="#E6E8FC"/>
<path d="M22.2404 7.10743C22.0537 7.04519 21.867 7.01407 21.6492 6.95183C21.4624 6.92071 21.2446 6.85847 21.0267 6.82735C20.2799 6.70287 19.4707 6.64062 18.6305 6.64062H11.3172C11.1305 6.64062 10.9749 6.67175 10.8193 6.76511C10.477 6.92071 10.228 7.23191 10.1658 7.63648L8.60973 17.4705L8.57861 17.7817C8.67197 17.1282 9.23214 16.6614 9.88567 16.6614H12.6243C18.0081 16.6614 22.2093 14.4829 23.423 8.16552C23.4541 7.9788 23.4853 7.79208 23.5164 7.60536C23.2052 7.44975 22.8628 7.29415 22.5205 7.16967C22.4272 7.16967 22.3338 7.13855 22.2404 7.10743Z" fill="#C4C9F5"/>
</g>
<defs>
<clipPath id="clip0">
<rect width="118.257" height="30" fill="white" transform="translate(0.614258)"/>
</clipPath>
</defs>
</svg>
