<svg width="20" height="18" viewBox="0 0 20 18" fill="none" xmlns="http://www.w3.org/2000/svg">
<path d="M5.01495 13C5.56495 13 6.01495 13.45 6.01495 14C6.01495 15.1 5.11495 16 4.01495 16C3.84495 16 3.68495 15.98 3.51495 15.95C3.82495 15.4 4.01495 14.74 4.01495 14C4.01495 13.45 4.46495 13 5.01495 13ZM16.685 0C16.425 0 16.175 0.1 15.975 0.29L7.01495 9.25L9.76495 12L18.725 3.04C19.115 2.65 19.115 2.02 18.725 1.63L17.385 0.29C17.185 0.09 16.935 0 16.685 0ZM5.01495 11C3.35495 11 2.01495 12.34 2.01495 14C2.01495 15.31 0.854954 16 0.0149536 16C0.934954 17.22 2.50495 18 4.01495 18C6.22495 18 8.01495 16.21 8.01495 14C8.01495 12.34 6.67495 11 5.01495 11Z" fill="#F5F2ED"/>
</svg>
