<svg width="19" height="19" viewBox="0 0 19 19" fill="none" xmlns="http://www.w3.org/2000/svg">
<path d="M7.81677 8.92971C8.21105 8.73138 8.50914 8.51049 8.7134 8.27178C9.07681 7.84187 9.25613 7.27182 9.25613 6.5652C9.25613 5.87758 9.07681 5.28972 8.71815 4.79687C8.1196 3.99405 7.10658 3.58314 5.67434 3.56177H0V15.1444H5.29075C5.88692 15.1444 6.43915 15.0933 6.94982 14.9888C7.46049 14.8831 7.90227 14.6896 8.27637 14.4069C8.60889 14.1611 8.88679 13.8559 9.10769 13.496C9.45684 12.9521 9.63142 12.3357 9.63142 11.6493C9.63142 10.9842 9.47822 10.4178 9.17419 9.95223C8.8666 9.48669 8.41532 9.14585 7.81677 8.92971ZM2.34075 5.57356H4.89646C5.4582 5.57356 5.92136 5.63412 6.28477 5.75407C6.70518 5.92865 6.91538 6.28374 6.91538 6.82528C6.91538 7.31101 6.75505 7.65066 6.43797 7.84187C6.1185 8.03307 5.70403 8.12927 5.19574 8.12927H2.34075V5.57356ZM6.38215 12.9307C6.0995 13.0673 5.70166 13.135 5.19218 13.135H2.34075V10.046H5.23137C5.73491 10.0496 6.12682 10.1161 6.40709 10.2408C6.90588 10.4665 7.15409 10.8797 7.15409 11.4842C7.15409 12.1968 6.89757 12.6766 6.38215 12.9307Z" fill="#513FCA"/>
<path d="M17.1739 4.10229H12.1421V5.54404H17.1739V4.10229Z" fill="#513FCA"/>
<path d="M18.922 9.79232C18.8175 9.12132 18.5871 8.53109 18.2284 8.02161C17.8353 7.44444 17.3365 7.02165 16.7297 6.75444C16.1252 6.48605 15.4447 6.35185 14.687 6.35304C13.4151 6.35304 12.3819 6.75088 11.5826 7.54063C10.7858 8.33276 10.3867 9.47166 10.3867 10.9562C10.3867 12.5392 10.8273 13.6829 11.7133 14.3848C12.5956 15.0878 13.6146 15.4382 14.7713 15.4382C16.1715 15.4382 17.2605 15.0213 18.0384 14.19C18.536 13.6651 18.8175 13.1485 18.8792 12.6414H16.561C16.4268 12.8919 16.2713 13.0879 16.0931 13.2304C15.7701 13.4917 15.3497 13.6223 14.8343 13.6223C14.3438 13.6223 13.9281 13.5142 13.5814 13.2993C13.0089 12.9549 12.7097 12.3516 12.6717 11.493H18.998C19.0075 10.7531 18.9837 10.1842 18.922 9.79232ZM12.7287 10.0144C12.8118 9.45741 13.0137 9.01563 13.3343 8.68904C13.655 8.36364 14.1086 8.19975 14.6894 8.19856C15.225 8.19856 15.6727 8.35176 16.0373 8.65935C16.3971 8.96931 16.6002 9.41941 16.6418 10.0144H12.7287Z" fill="#513FCA"/>
</svg>
