<svg width="17" height="17" viewBox="0 0 17 17" fill="none" xmlns="http://www.w3.org/2000/svg">
<path d="M8.5 0C3.81331 0 0 3.81331 0 8.5C0 13.1867 3.81331 17 8.5 17C13.1867 17 17 13.1867 17 8.5C17 3.81331 13.1867 0 8.5 0ZM8.5 15.9375C4.39875 15.9375 1.0625 12.6002 1.0625 8.5C1.0625 4.39875 4.39875 1.0625 8.5 1.0625C12.6002 1.0625 15.9375 4.39875 15.9375 8.5C15.9375 12.6002 12.6002 15.9375 8.5 15.9375Z" fill="#513FCA"/>
<path d="M8.49989 2.125C8.05364 2.125 7.61802 2.17175 7.19727 2.25887C7.97077 3.35537 8.67308 4.4965 9.29145 5.67906C10.4613 5.134 11.562 4.43062 12.5671 3.59125C11.4632 2.67538 10.0458 2.125 8.49989 2.125Z" fill="#513FCA"/>
<path d="M13.3249 4.34106C12.2316 5.26225 11.0288 6.02619 9.75171 6.62331C10.0311 7.20556 10.2904 7.79525 10.5305 8.3945C11.9415 8.10444 13.4099 8.07788 14.8655 8.31906C14.823 6.79969 14.2514 5.41419 13.3249 4.34106Z" fill="#513FCA"/>
<path d="M6.13063 2.58594C4.21707 3.35306 2.7657 5.01906 2.29395 7.06437C4.35732 7.15256 6.39944 6.80831 8.30026 6.08262C7.66169 4.87031 6.93813 3.70156 6.13063 2.58594Z" fill="#513FCA"/>
<path d="M8.77625 7.04297C6.936 7.76016 4.97038 8.15115 2.97181 8.15115C2.69662 8.15115 2.42037 8.13415 2.14412 8.11928C2.13669 8.24572 2.125 8.37109 2.125 8.49965C2.125 10.0647 2.69131 11.497 3.62738 12.6062C5.15844 10.7054 7.2165 9.34328 9.4945 8.65903C9.27244 8.1129 9.03231 7.57528 8.77625 7.04297Z" fill="#513FCA"/>
<path d="M10.9204 9.40097C11.4272 10.8141 11.8246 12.2665 12.1157 13.7477C13.5522 12.7563 14.5552 11.1913 14.807 9.38291C13.5044 9.15235 12.188 9.16297 10.9204 9.40097Z" fill="#513FCA"/>
<path d="M9.87708 9.64771C7.73508 10.2735 5.80027 11.5591 4.38184 13.3622C5.49321 14.3046 6.92865 14.8752 8.50008 14.8752C9.44358 14.8752 10.3371 14.6648 11.1425 14.2961C10.8503 12.7088 10.4253 11.1554 9.87708 9.64771Z" fill="#513FCA"/>
</svg>
