<svg width="13" height="12" viewBox="0 0 13 12" fill="none" xmlns="http://www.w3.org/2000/svg">
<path d="M6.08108 0.944336C5.03948 0.949204 4.0169 1.22871 3.11312 1.75558C2.20933 2.28245 1.45522 3.03869 0.924348 3.95051C0.393477 4.86234 0.103981 5.89861 0.0841052 6.95822C0.0642295 8.01783 0.314653 9.06458 0.810943 9.99635V8.3757C0.81335 8.07921 0.91474 7.79236 1.09847 7.56222C1.08322 7.40053 1.07559 7.23801 1.07559 7.07464C1.07817 5.72221 1.6055 4.42552 2.54289 3.46664C3.48028 2.50776 4.75188 1.96428 6.08108 1.95441C6.78487 1.95714 7.48026 2.11016 8.12226 2.40356C8.76426 2.69697 9.33858 3.12423 9.80805 3.6577C10.2775 4.19118 10.6317 4.81898 10.8477 5.50051C11.0637 6.18204 11.1366 6.9021 11.0618 7.61413C11.2221 7.83472 11.3094 8.10139 11.311 8.3757V10.0788C11.8251 9.14752 12.0911 8.09582 12.0828 7.0278C12.0745 5.95978 11.7922 4.91248 11.2638 3.9896C10.7354 3.06672 9.97928 2.30027 9.07024 1.76614C8.1612 1.23201 7.13081 0.948724 6.08108 0.944336Z" fill="#513FCA"/>
<path d="M1.18056 8.11374C1.15487 8.19853 1.14174 8.28674 1.1416 8.37546V10.6646C1.1416 11.3711 1.96864 11.9439 2.9889 11.9439H3.76647V7.09644H2.9889C2.09818 7.09644 1.35493 7.53273 1.18056 8.11374Z" fill="#513FCA"/>
<path d="M10.9797 10.6646V8.37547C10.9795 8.32089 10.9743 8.26645 10.9642 8.21284C10.8486 7.58371 10.0729 7.09644 9.13237 7.09644H8.35449V11.9442H9.13237C10.153 11.9439 10.9797 11.3711 10.9797 10.6646Z" fill="#513FCA"/>
</svg>
