<svg width="16" height="14" viewBox="0 0 16 14" fill="none" xmlns="http://www.w3.org/2000/svg">
<path d="M14.4 0H1.6C1.17704 0.00231308 0.772127 0.187708 0.473797 0.515647C0.175467 0.843585 0.00799465 1.28738 0.00799994 1.75L0 12.25C0.00115164 12.7137 0.170092 13.1581 0.469901 13.486C0.76971 13.814 1.17601 13.9987 1.6 14H14.4C14.824 13.9987 15.2303 13.814 15.5301 13.486C15.8299 13.1581 15.9988 12.7137 16 12.25V1.75C15.9988 1.28626 15.8299 0.841871 15.5301 0.513955C15.2303 0.186039 14.824 0.0012596 14.4 0ZM14.4 3.5L8 7.875L1.6 3.5V1.75L8 6.125L14.4 1.75V3.5Z" fill="#513FCA"/>
</svg>
