<svg width="16" height="16" viewBox="0 0 16 16" fill="none" xmlns="http://www.w3.org/2000/svg">
<path d="M11.6689 0H4.33105C1.94287 0 0 1.94287 0 4.33105V11.669C0 14.0571 1.94287 16 4.33105 16H11.669C14.0571 16 16 14.0571 16 11.669V4.33105C16 1.94287 14.0571 0 11.6689 0V0ZM7.99998 12.3749C5.58764 12.3749 3.62512 10.4123 3.62512 7.99998C3.62512 5.58764 5.58764 3.62512 7.99998 3.62512C10.4123 3.62512 12.3749 5.58764 12.3749 7.99998C12.3749 10.4123 10.4123 12.3749 7.99998 12.3749ZM12.4795 4.65685C11.7666 4.65685 11.1867 4.07702 11.1867 3.36413C11.1867 2.65124 11.7666 2.07129 12.4795 2.07129C13.1924 2.07129 13.7723 2.65124 13.7723 3.36413C13.7723 4.07702 13.1924 4.65685 12.4795 4.65685Z" fill="#513FCA"/>
<path d="M7.99987 4.5625C6.10486 4.5625 4.56299 6.10425 4.56299 7.99938C4.56299 9.8944 6.10486 11.4363 7.99987 11.4363C9.89501 11.4363 11.4368 9.8944 11.4368 7.99938C11.4368 6.10425 9.89501 4.5625 7.99987 4.5625Z" fill="#513FCA"/>
<path d="M12.4795 3.00879C12.2839 3.00879 12.1248 3.16797 12.1248 3.36352C12.1248 3.55908 12.2839 3.71826 12.4795 3.71826C12.6752 3.71826 12.8343 3.5592 12.8343 3.36352C12.8343 3.16785 12.6752 3.00879 12.4795 3.00879Z" fill="#513FCA"/>
</svg>
