<svg width="17" height="17" viewBox="0 0 17 17" fill="none" xmlns="http://www.w3.org/2000/svg">
<path d="M4.3882 5.59644H0.97168V16.1H4.3882V5.59644Z" fill="#513FCA"/>
<path d="M13.6942 5.71961C13.6579 5.70816 13.6235 5.69574 13.5853 5.68524C13.5395 5.67473 13.4937 5.66614 13.4469 5.6585C13.2654 5.62222 13.0668 5.59644 12.8338 5.59644C10.842 5.59644 9.5787 7.04497 9.16237 7.60453V5.59644H5.74585V16.1H9.16237V10.3708C9.16237 10.3708 11.7443 6.77474 12.8338 9.41591C12.8338 11.7735 12.8338 16.1 12.8338 16.1H16.2494V9.012C16.2494 7.42501 15.1618 6.10252 13.6942 5.71961Z" fill="#513FCA"/>
<path d="M2.6427 4.16431C3.56558 4.16431 4.31372 3.41617 4.31372 2.49329C4.31372 1.57041 3.56558 0.822266 2.6427 0.822266C1.71982 0.822266 0.97168 1.57041 0.97168 2.49329C0.97168 3.41617 1.71982 4.16431 2.6427 4.16431Z" fill="#513FCA"/>
</svg>
