<svg id="review" xmlns="http://www.w3.org/2000/svg" width="26.207" height="26.207" viewBox="0 0 26.207 26.207">
  <g id="Group_332" data-name="Group 332">
    <path id="Path_1319" data-name="Path 1319" d="M23.586,0H2.621A2.609,2.609,0,0,0,.013,2.621L0,26.207l5.241-5.241H23.586a2.62,2.62,0,0,0,2.621-2.621V2.621A2.62,2.62,0,0,0,23.586,0ZM5.241,15.724V12.481l9.015-9.015a.652.652,0,0,1,.924,0L17.5,5.785a.652.652,0,0,1,0,.924L8.485,15.724Zm15.724,0H11.138L13.759,13.1h7.207Z" fill="#2fd5b4"/>
  </g>
</svg>
