<svg id="Group_1253" data-name="Group 1253" xmlns="http://www.w3.org/2000/svg" width="26.68" height="26.68" viewBox="0 0 26.68 26.68">
  <g id="Group_1252" data-name="Group 1252" transform="translate(0 0)">
    <g id="Group_1251" data-name="Group 1251">
      <g id="Group_1249" data-name="Group 1249">
        <path id="Path_2431" data-name="Path 2431" d="M26.846,2.667H22.677V1.75A.823.823,0,0,0,21.844,1H6.836A.823.823,0,0,0,6,1.75c0,.333-.083.584-.083.917H1.834A.835.835,0,0,0,1,3.5v1a8.983,8.983,0,0,0,7.67,8.921,23.61,23.61,0,0,0,1.667,2.334h8a10.93,10.93,0,0,0,1.667-2.334A9.112,9.112,0,0,0,27.68,4.5v-1A.9.9,0,0,0,26.846,2.667ZM2.667,4.5V4.335H5.919a17.327,17.327,0,0,0,1.667,7.087A7.293,7.293,0,0,1,2.667,4.5ZM17.675,8.337,16.508,9.5l.25,1.667a.691.691,0,0,1-.25.667.637.637,0,0,1-.417.167.5.5,0,0,1-.333-.083l-1.417-.75-1.417.75a.635.635,0,0,1-.75-.083.559.559,0,0,1-.25-.667l.25-1.667L11,8.337a.8.8,0,0,1-.167-.75.882.882,0,0,1,.584-.5l1.584-.25.75-1.5a.66.66,0,0,1,.667-.417.85.85,0,0,1,.667.417l.75,1.5,1.584.25a.882.882,0,0,1,.584.5A2.06,2.06,0,0,1,17.675,8.337ZM26.012,4.5a7.293,7.293,0,0,1-4.919,6.92,18,18,0,0,0,1.584-7.087h3.335Zm-8.421,12.84h-6.5a5.987,5.987,0,0,1-1.918,4,.449.449,0,0,0,.333.75h9.838a.449.449,0,0,0,.333-.75A5.878,5.878,0,0,1,17.592,17.341Z" transform="translate(-1 -1)" fill="#2fd5b4"/>
      </g>
      <g id="Group_1250" data-name="Group 1250" transform="translate(6.67 22.845)">
        <path id="Path_2432" data-name="Path 2432" d="M21.59,28.4H9.75a.747.747,0,0,0-.75.75V31.4a.788.788,0,0,0,.834.834H21.506a.788.788,0,0,0,.834-.834V29.067A.735.735,0,0,0,21.59,28.4Z" transform="translate(-9 -28.4)" fill="#2fd5b4"/>
      </g>
    </g>
  </g>
</svg>
