<svg id="Group_1401" data-name="Group 1401" xmlns="http://www.w3.org/2000/svg" width="77.233" height="77.233" viewBox="0 0 77.233 77.233">
  <path id="Path_2482" data-name="Path 2482" d="M0,0H77.233V77.233H0Z" fill="none"/>
  <path id="Path_2483" data-name="Path 2483" d="M34.18,2A32.18,32.18,0,1,1,2,34.18,32.18,32.18,0,0,1,34.18,2Zm1.178,36.576L24.195,57.916a25.915,25.915,0,0,0,14.349,1.641,31.977,31.977,0,0,1,2.523-17.68Zm11.321,6.536A25.6,25.6,0,0,0,44.79,57.643a25.815,25.815,0,0,0,9.9-7.9l-8.013-4.628ZM24.072,32.063A32.019,32.019,0,0,1,10.026,43.094a25.776,25.776,0,0,0,8.6,11.6L29.784,35.358l-5.712-3.3Zm35.73-.418-.83.386A25.574,25.574,0,0,0,49.9,39.538l8.019,4.631A25.664,25.664,0,0,0,59.8,31.641ZM8.436,34.18c0,.856.042,1.706.122,2.539a25.583,25.583,0,0,0,9.905-7.9l-8.019-4.628A25.664,25.664,0,0,0,8.436,34.18Zm41.3-20.512L38.576,33l5.712,3.3a32.019,32.019,0,0,1,14.05-11.038,25.793,25.793,0,0,0-7.784-10.948l-.814-.647ZM34.18,8.436a26.02,26.02,0,0,0-4.367.37,31.949,31.949,0,0,1-2.523,17.68L33,29.784l11.163-19.34A25.664,25.664,0,0,0,34.18,8.436ZM23.57,10.721,22.956,11a25.85,25.85,0,0,0-9.287,7.617l8.013,4.628A25.6,25.6,0,0,0,23.57,10.721Z" transform="translate(4.436 4.436)" fill="#2fd5b4"/>
</svg>
