<svg id="Group_1400" data-name="Group 1400" xmlns="http://www.w3.org/2000/svg" width="74.755" height="74.755" viewBox="0 0 74.755 74.755">
  <path id="Path_2480" data-name="Path 2480" d="M0,0H74.755V74.755H0Z" fill="none"/>
  <path id="Path_2481" data-name="Path 2481" d="M33.148,2A31.148,31.148,0,1,1,2,33.148,31.147,31.147,0,0,1,33.148,2Zm5.2,43.607h-10.4l-4.3,5.909,1.726,5.314a25.058,25.058,0,0,0,15.549,0l1.722-5.314-4.3-5.909ZM12.26,29.634,8.236,32.553l-.006.595A24.812,24.812,0,0,0,12.846,47.6h5.949l4.121-5.669-3.2-9.874L12.26,29.634Zm41.775,0-7.454,2.423-3.2,9.874L47.5,47.6h5.949a24.806,24.806,0,0,0,4.619-14.453l-.009-.592-4.021-2.922ZM33.148,25.473l-7.3,5.3,2.791,8.6h9.017l2.791-8.6ZM40.284,9.267l-4.021,2.928v7.84l8.391,6.1,6.974-2.264,1.726-5.3a24.962,24.962,0,0,0-13.07-9.294Zm-14.275,0a24.962,24.962,0,0,0-13.066,9.3l1.726,5.3,6.974,2.264,8.391-6.1v-7.84L26.009,9.267Z" transform="translate(4.23 4.23)" fill="#2fd5b4"/>
</svg>
