<svg xmlns="http://www.w3.org/2000/svg" width="30.132" height="30.132" viewBox="0 0 30.132 30.132">
  <g id="puzzle" transform="translate(0.001)">
    <g id="Group_1388" data-name="Group 1388" transform="translate(-0.001)">
      <path id="Path_2479" data-name="Path 2479" d="M25.827,12.914V5.381A1.076,1.076,0,0,0,24.75,4.3H17.217a4.3,4.3,0,0,0-8.609,0H1.075A1.076,1.076,0,0,0,0,5.381v9.446a1.076,1.076,0,0,0,1.8.8,2.152,2.152,0,1,1,0,3.183,1.076,1.076,0,0,0-1.8.8v9.446a1.076,1.076,0,0,0,1.076,1.076h9.446a1.076,1.076,0,0,0,.8-1.8,2.152,2.152,0,1,1,3.183,0,1.076,1.076,0,0,0,.8,1.8H24.75a1.076,1.076,0,0,0,1.076-1.076V21.523a4.3,4.3,0,1,0,0-8.609Zm0,6.457a2.13,2.13,0,0,1-.717-.136,1.076,1.076,0,0,0-1.436,1.014V27.98h-6.6a4.2,4.2,0,0,0,.14-1.076,4.3,4.3,0,1,0-8.609,0,4.2,4.2,0,0,0,.14,1.076h-6.6v-6.6a4.2,4.2,0,0,0,1.076.14,4.3,4.3,0,1,0,0-8.609,4.2,4.2,0,0,0-1.076.14v-6.6H9.882A1.076,1.076,0,0,0,10.9,5.021a2.129,2.129,0,0,1-.136-.717,2.152,2.152,0,0,1,4.3,0,2.13,2.13,0,0,1-.136.717,1.076,1.076,0,0,0,1.014,1.436h7.731v7.731A1.076,1.076,0,0,0,25.11,15.2a2.129,2.129,0,0,1,.717-.136,2.152,2.152,0,0,1,0,4.3Z" transform="translate(0.001)" fill="#fff"/>
    </g>
  </g>
</svg>
