<svg xmlns="http://www.w3.org/2000/svg" width="27.38" height="27.38" viewBox="0 0 27.38 27.38">
  <path id="refer" d="M13.417,14.54c.09,0,.181.006.273.006s.169,0,.253-.005a11.777,11.777,0,0,1,5.463,1.474,1.07,1.07,0,1,0,1.04-1.869,13.81,13.81,0,0,0-2.4-1.051,7.273,7.273,0,1,0-8.7,0A13.908,13.908,0,0,0,.069,23.461,3.249,3.249,0,0,0,3.245,27.38H11.6a1.07,1.07,0,1,0,0-2.139H3.245a1.087,1.087,0,0,1-.856-.407,1.117,1.117,0,0,1-.226-.937A11.817,11.817,0,0,1,13.417,14.54ZM8.556,7.273A5.134,5.134,0,1,1,13.944,12.4l-.255,0-.25,0A5.14,5.14,0,0,1,8.556,7.273ZM27.38,19.884a2.644,2.644,0,0,1-.786,1.891L24.6,23.753A1.069,1.069,0,1,1,23.1,22.237l1.333-1.326H18.368a2.165,2.165,0,0,0-.026,4.33,1.07,1.07,0,0,1,0,2.139,4.236,4.236,0,0,1-3.035-1.265,4.314,4.314,0,0,1,3.061-7.344h5.963L23.1,17.552a1.07,1.07,0,0,1,1.5-1.521L26.588,18A2.644,2.644,0,0,1,27.38,19.884Zm0,0" transform="translate(0)" fill="#fff"/>
</svg>
