<svg id="noun_skill_1923796" xmlns="http://www.w3.org/2000/svg" width="24.331" height="27.38" viewBox="0 0 24.331 27.38">
  <circle id="Ellipse_114" data-name="Ellipse 114" cx="2.657" cy="2.657" r="2.657" transform="translate(7.502 8.257)" fill="#2fd5b4"/>
  <path id="Path_2430" data-name="Path 2430" d="M25.289,13.647A10.644,10.644,0,1,0,8.562,22.376v8H20.728V25.812h4.562V19.73l3.041-1.521Zm-5.322.076a5.292,5.292,0,0,1-.387,1.971l1.371.792-.76,1.317L18.807,17a5.311,5.311,0,0,1-1.654,1.387l.547,1.5-1.429.52-.539-1.481a5.3,5.3,0,0,1-2.174,0l-.539,1.481-1.429-.52.547-1.5A5.311,5.311,0,0,1,10.483,17L9.1,17.8l-.76-1.317,1.371-.792a5.292,5.292,0,0,1-.387-1.971c0-.056.015-.108.017-.163l-1.565-.276.264-1.5,1.575.278a5.286,5.286,0,0,1,1.077-1.872L9.664,8.97l1.165-.977,1.023,1.219a5.267,5.267,0,0,1,2.033-.733v-1.6h1.521v1.6a5.267,5.267,0,0,1,2.033.733l1.023-1.219,1.165.977L18.6,10.193a5.286,5.286,0,0,1,1.077,1.871l1.575-.278.264,1.5-1.565.276c0,.056.016.108.016.164Z" transform="translate(-3.999 -2.995)" fill="#2fd5b4"/>
</svg>
