<svg xmlns="http://www.w3.org/2000/svg" width="72.619" height="72.619" viewBox="0 0 72.619 72.619">
  <g id="Group_1402" data-name="Group 1402" transform="translate(0)">
    <path id="Path_2495" data-name="Path 2495" d="M0,0H72.619V72.619H0Z" transform="translate(0)" fill="none"/>
    <path id="Path_2496" data-name="Path 2496" d="M8.052,16.56v38.8L23.377,48.8l18.155,9.077,14.932-6.406v-38.8l3.943-1.688a1.513,1.513,0,0,1,2.109,1.392v43.09L41.335,64.54,23.18,55.463,4.109,63.635A1.513,1.513,0,0,1,2,62.243V19.153ZM45.1,31.992,32.258,44.827,19.419,31.992a18.155,18.155,0,1,1,25.677,0ZM32.258,36.27l8.557-8.56a12.1,12.1,0,1,0-17.114,0Z" transform="translate(4.052 2.027)" fill="#2fd5b4"/>
  </g>
</svg>
