<svg xmlns="http://www.w3.org/2000/svg" width="77.772" height="58.071" viewBox="0 0 77.772 58.071">
  <g id="technology" transform="translate(0)">
    <path id="Path_2484" data-name="Path 2484" d="M77.253,84.468c-1.192-11.606-4.045-21.975-7.634-27.737-1.249-2.006-5.152-3.611-8.207-4.6-1.061-.345-6.451-2.032-8.31-1.357a24.858,24.858,0,0,0-3.43,1.644,19.687,19.687,0,0,1-10.763,2.944h-.047A19.687,19.687,0,0,1,28.1,52.415a24.844,24.844,0,0,0-3.43-1.644c-1.86-.676-7.249,1.012-8.31,1.357-3.054.993-6.958,2.6-8.207,4.6C4.563,62.493,1.71,72.862.518,84.468c-.311,3.033-1.684,18.356,1.89,22.183a6.006,6.006,0,0,0,5.069,2.006c3.135-.286,6.432-2.9,9.284-7.352l.019-.03c.349-.573.674-1.117.983-1.632C19.943,96,21.144,94,23.594,92.917c2.792-1.234,7.712-1.475,15.268-1.475h.047c7.555,0,12.476.242,15.268,1.475C56.626,94,57.828,96,60.008,99.643c.308.515.634,1.058.983,1.632l.019.03c2.851,4.455,6.148,7.067,9.284,7.352q.293.027.581.027a6.028,6.028,0,0,0,4.488-2.032C78.936,102.824,77.564,87.5,77.253,84.468Zm-4.166,20.057a2.919,2.919,0,0,1-2.51,1.03c-2.122-.194-4.649-2.349-6.934-5.915-.342-.562-.661-1.094-.963-1.6-2.342-3.908-3.89-6.49-7.244-7.973-3.312-1.464-8.363-1.741-16.527-1.741h-.047c-8.163,0-13.215.278-16.527,1.741-3.354,1.482-4.9,4.064-7.244,7.973-.3.5-.621,1.037-.963,1.6-2.285,3.566-4.812,5.721-6.934,5.915a2.919,2.919,0,0,1-2.51-1.03c-1.158-1.24-2.255-8.183-1.068-19.739,1.146-11.157,3.829-21.03,7.18-26.409.421-.677,2.551-1.964,6.232-3.191A26.136,26.136,0,0,1,23.5,53.711a1.486,1.486,0,0,1,.169.008,23.041,23.041,0,0,1,2.946,1.431,22.864,22.864,0,0,0,12.053,3.321h.443A22.866,22.866,0,0,0,51.16,55.15a23.028,23.028,0,0,1,2.946-1.431,23.488,23.488,0,0,1,6.638,1.466c3.681,1.227,5.81,2.514,6.232,3.191,3.35,5.379,6.034,15.252,7.18,26.409C75.342,96.342,74.245,103.286,73.087,104.526Z" transform="translate(0.001 -50.613)" fill="#2fd5b4"/>
    <path id="Path_2485" data-name="Path 2485" d="M190.029,118.13a3.115,3.115,0,1,0-3.115,3.115A3.118,3.118,0,0,0,190.029,118.13Z" transform="translate(-148.028 -102.481)" fill="#2fd5b4"/>
    <path id="Path_2486" data-name="Path 2486" d="M161.359,126.135a1.555,1.555,0,1,0-1.1-.455A1.57,1.57,0,0,0,161.359,126.135Z" transform="translate(-128.701 -108.929)" fill="#2fd5b4"/>
    <path id="Path_2487" data-name="Path 2487" d="M225.529,126.135a1.558,1.558,0,1,0-1.1-.455A1.567,1.567,0,0,0,225.529,126.135Z" transform="translate(-180.382 -108.929)" fill="#2fd5b4"/>
    <path id="Path_2488" data-name="Path 2488" d="M255.9,118.151a1.558,1.558,0,0,0-.489-1.133l-1.649-1.554a1.557,1.557,0,0,0-1.068-.424H249.7a1.557,1.557,0,0,0-1.557,1.557V119.7a1.557,1.557,0,0,0,1.557,1.557h2.992a1.557,1.557,0,0,0,1.067-.423l1.649-1.552A1.557,1.557,0,0,0,255.9,118.151Z" transform="translate(-199.851 -102.501)" fill="#2fd5b4"/>
    <path id="Path_2489" data-name="Path 2489" d="M310,115.039h-2.992a1.557,1.557,0,0,0-1.068.424l-1.649,1.554a1.557,1.557,0,0,0,0,2.267l1.649,1.552a1.557,1.557,0,0,0,1.067.423H310a1.557,1.557,0,0,0,1.557-1.557V116.6A1.557,1.557,0,0,0,310,115.039Z" transform="translate(-244.673 -102.5)" fill="#2fd5b4"/>
    <path id="Path_2490" data-name="Path 2490" d="M218.588,167.453a1.557,1.557,0,0,0-1.557,1.557,3.052,3.052,0,1,1-3.054-3.053,1.557,1.557,0,1,0,0-3.114,6.166,6.166,0,1,0,6.168,6.167A1.557,1.557,0,0,0,218.588,167.453Z" transform="translate(-167.368 -141)" fill="#2fd5b4"/>
    <path id="Path_2491" data-name="Path 2491" d="M117.878,151.8h-1.537v-1.561a3.118,3.118,0,0,0-3.114-3.114h-1.512a3.118,3.118,0,0,0-3.114,3.114V151.8H107.01a3.118,3.118,0,0,0-3.114,3.114v1.512a3.118,3.118,0,0,0,3.114,3.114H108.6v1.622a3.118,3.118,0,0,0,3.114,3.114h1.512a3.118,3.118,0,0,0,3.114-3.114v-1.622h1.537a3.118,3.118,0,0,0,3.114-3.114v-1.512A3.118,3.118,0,0,0,117.878,151.8Zm0,4.626h-3.094a1.557,1.557,0,0,0-1.557,1.557v3.179h-1.512v-3.179a1.557,1.557,0,0,0-1.557-1.557H107.01v-1.512h3.149a1.557,1.557,0,0,0,1.557-1.557v-3.118h1.512v3.118a1.557,1.557,0,0,0,1.557,1.557h3.094Z" transform="translate(-83.675 -128.341)" fill="#2fd5b4"/>
    <path id="Path_2492" data-name="Path 2492" d="M284.16,139.414a1.558,1.558,0,0,0-1.133-.49h0a1.557,1.557,0,0,0-1.133.489l-1.554,1.649a1.557,1.557,0,0,0-.424,1.068v2.991a1.557,1.557,0,0,0,1.557,1.557h3.106a1.557,1.557,0,0,0,1.557-1.557V142.13a1.557,1.557,0,0,0-.423-1.067Z" transform="translate(-225.437 -121.737)" fill="#2fd5b4"/>
    <path id="Path_2493" data-name="Path 2493" d="M281.891,90.536a1.557,1.557,0,0,0,1.133.489h0a1.556,1.556,0,0,0,1.133-.49l1.552-1.649a1.558,1.558,0,0,0,.423-1.067V84.828a1.557,1.557,0,0,0-1.557-1.557H281.47a1.557,1.557,0,0,0-1.557,1.557v2.991a1.557,1.557,0,0,0,.424,1.068Z" transform="translate(-225.435 -76.915)" fill="#2fd5b4"/>
    <path id="Path_2494" data-name="Path 2494" d="M76.557,105.505a1.557,1.557,0,0,0-3.114,0,3.052,3.052,0,1,1-3.054-3.053,1.557,1.557,0,1,0,0-3.114,6.166,6.166,0,1,0,6.168,6.167Z" transform="translate(-51.725 -89.855)" fill="#2fd5b4"/>
  </g>
</svg>
