<svg id="noun_Work_1730635" xmlns="http://www.w3.org/2000/svg" width="26.72" height="21.71" viewBox="0 0 26.72 21.71">
  <path id="Path_1204" data-name="Path 1204" d="M25.885,10.175h-8.35V6.835A.835.835,0,0,0,16.7,6H10.02a.835.835,0,0,0-.835.835v3.34H.835A.835.835,0,0,0,0,11.01v3.757a3.833,3.833,0,0,0,3.9,3.757h6.96V17.272a1.67,1.67,0,0,1,1.67-1.67h1.67a1.67,1.67,0,0,1,1.67,1.67v1.252h6.96a3.833,3.833,0,0,0,3.9-3.757V11.01A.835.835,0,0,0,25.885,10.175Zm-10.02,0h-5.01V7.67h5.01ZM26.72,17.368v9.506a.835.835,0,0,1-.835.835H.835A.835.835,0,0,1,0,26.875V17.368A4.768,4.768,0,0,0,3.9,19.36h6.96v1.252a1.67,1.67,0,0,0,1.67,1.67h1.67a1.67,1.67,0,0,0,1.67-1.67V19.36h6.96A4.768,4.768,0,0,0,26.72,17.368ZM12.525,21.447a.835.835,0,0,1-.835-.835v-3.34a.835.835,0,0,1,.835-.835h1.67a.835.835,0,0,1,.835.835v3.34a.835.835,0,0,1-.835.835Z" transform="translate(0 -6)" fill="#2fd5b4"/>
</svg>
