<svg xmlns="http://www.w3.org/2000/svg" width="46.336" height="26.858" viewBox="0 0 46.336 26.858"><g transform="translate(0 -166.422)"><path d="M173.523,406.57,159.7,402.316v7.105c0,3.285,6.191,5.948,13.827,5.948s13.827-2.663,13.827-5.948c0-.026-.008-.052-.009-.077v-7.028Z" transform="translate(-150.355 -222.09)" fill="#fd6562"/><path d="M0,175.335,4.938,177.1l.421-.9,1.814-.154.259.269-1.557.369-.227.672s-3.516,7.35-3,10.946a4.535,4.535,0,0,0,4.388,0l.583-9.831v-.818l3.265-.737-.231.568-2.435.792,1.126.4,13.822,4.254,13.822-4.254,9.345-3.342-23.168-8.913Z" transform="translate(0 0)" fill="#fd6562"/></g></svg>