<svg xmlns="http://www.w3.org/2000/svg" width="29.242" height="20.064" viewBox="0 0 29.242 20.064"><path d="M.072,21.444V5.757q0-.027.082-.517l9.233,7.9L.181,21.988a2.308,2.308,0,0,1-.109-.545ZM1.3,4.15a1.174,1.174,0,0,1,.463-.082H26.626a1.542,1.542,0,0,1,.49.082l-9.26,7.925-1.226.98-2.424,1.988-2.424-1.988-1.226-.98Zm.027,18.9,9.287-8.906,3.595,2.914L17.8,14.145l9.287,8.906a1.308,1.308,0,0,1-.463.082H1.761a1.234,1.234,0,0,1-.436-.082Zm17.7-9.913,9.205-7.9a1.626,1.626,0,0,1,.082.517V21.444a2.087,2.087,0,0,1-.082.545Z" transform="translate(0.428 -3.568)" fill="none" stroke="#fff" stroke-width="1"/></svg>