<svg xmlns="http://www.w3.org/2000/svg" width="29.678" height="29.731" viewBox="0 0 29.678 29.731"><path d="M20.246,6.78a6.6,6.6,0,0,1,5.214,5.214M20.246,1.5A11.88,11.88,0,0,1,30.739,11.98m-1.32,10.533v3.96a2.64,2.64,0,0,1-2.877,2.64,26.122,26.122,0,0,1-11.391-4.052,25.739,25.739,0,0,1-7.92-7.92A26.122,26.122,0,0,1,3.179,5.7,2.64,2.64,0,0,1,5.805,2.82h3.96a2.64,2.64,0,0,1,2.64,2.27A16.948,16.948,0,0,0,13.329,8.8a2.64,2.64,0,0,1-.594,2.785l-1.676,1.676a21.119,21.119,0,0,0,7.92,7.92L20.655,19.5a2.64,2.64,0,0,1,2.785-.594,16.948,16.948,0,0,0,3.709.924A2.64,2.64,0,0,1,29.419,22.514Z" transform="translate(-2.167 -0.396)" fill="none" stroke="#fff" stroke-linecap="round" stroke-linejoin="round" stroke-width="2"/></svg>