<svg xmlns="http://www.w3.org/2000/svg" width="13" height="13" viewBox="0 0 13 13"><g transform="translate(-0.209 -0.042)"><rect width="13" height="13" transform="translate(0.209 0.042)" fill="none"/><path d="M1.545,3.09a.508.508,0,0,1-.36-.154L.154,1.905a.5.5,0,0,1,0-.721.5.5,0,0,1,.721,0l.669.669,1.7-1.7a.5.5,0,0,1,.721,0,.5.5,0,0,1,0,.721l-2.06,2.06A.508.508,0,0,1,1.545,3.09Z" transform="translate(1.075 8.061)" fill="#011b38"/><path d="M8,7H4.991A4.122,4.122,0,0,0,.833,3.231,4.327,4.327,0,0,0,0,3.312V2A2,2,0,0,1,2,0H8a2,2,0,0,1,2,2V5A2,2,0,0,1,8,7ZM1.389.942a.418.418,0,0,0-.367.212.389.389,0,0,0-.034.3.405.405,0,0,0,.2.244L4.8,3.587a.433.433,0,0,0,.4,0L8.808,1.7a.4.4,0,0,0,.2-.243.39.39,0,0,0-.033-.3A.42.42,0,0,0,8.611.942a.429.429,0,0,0-.2.049L5,2.772,1.587.991A.426.426,0,0,0,1.389.942Z" transform="translate(2.209 3.042)" fill="#011b38"/></g></svg>