<svg xmlns="http://www.w3.org/2000/svg" width="34.835" height="29.858" viewBox="0 0 34.835 29.858"><path d="M1.283,110.917A4.191,4.191,0,0,0,0,113.988v16.173a4.19,4.19,0,0,0,1.283,3.071,4.19,4.19,0,0,0,3.071,1.283H5.6V109.634H4.354A4.19,4.19,0,0,0,1.283,110.917Z" transform="translate(0 -104.658)" fill="#fff"/><path d="M127.053,38.414a1.858,1.858,0,0,0-1.866-1.866h-11.2a1.858,1.858,0,0,0-1.866,1.866v3.11h-2.488V66.406h19.906V41.524h-2.488Zm-2.488,3.11h-9.953V39.036h9.953Z" transform="translate(-102.171 -36.548)" fill="#fff"/><path d="M433.716,110.917a4.191,4.191,0,0,0-3.071-1.283H429.4v24.882h1.244A4.38,4.38,0,0,0,435,130.161V113.988A4.192,4.192,0,0,0,433.716,110.917Z" transform="translate(-400.164 -104.658)" fill="#fff"/></svg>