<svg xmlns="http://www.w3.org/2000/svg" width="9.937" height="8.517" viewBox="0 0 9.937 8.517"><g transform="translate(0 0)"><path d="M.366,110a1.2,1.2,0,0,0-.366.876v4.614a1.2,1.2,0,0,0,.366.876,1.2,1.2,0,0,0,.876.366H1.6v-7.1H1.242A1.2,1.2,0,0,0,.366,110Z" transform="translate(0 -108.215)" fill="#011b38"/><path d="M114.6,37.08a.53.53,0,0,0-.532-.532h-3.194a.53.53,0,0,0-.532.532v.887h-.71v7.1h5.678v-7.1h-.71Zm-.71.887h-2.839v-.71h2.839Z" transform="translate(-107.507 -36.548)" fill="#011b38"/><path d="M430.631,110a1.2,1.2,0,0,0-.876-.366H429.4v7.1h.355A1.25,1.25,0,0,0,431,115.49v-4.614A1.2,1.2,0,0,0,430.631,110Z" transform="translate(-421.06 -108.215)" fill="#011b38"/></g></svg>