<?xml version="1.0" encoding="utf-8"?>
<!-- Generator: Adobe Illustrator 24.0.2, SVG Export Plug-In . SVG Version: 6.00 Build 0)  -->
<svg version="1.1" id="Layer_1" xmlns="http://www.w3.org/2000/svg" xmlns:xlink="http://www.w3.org/1999/xlink" x="0px" y="0px"
	 viewBox="0 0 30 30" style="enable-background:new 0 0 30 30;" xml:space="preserve">
<style type="text/css">
	.st0{clip-path:url(#SVGID_2_);}
	.st1{fill:#F56068;}
</style>
<g>
	<defs>
		<rect id="SVGID_1_" x="3" y="4" width="24" height="24"/>
	</defs>
	<clipPath id="SVGID_2_">
		<use xlink:href="#SVGID_1_"  style="overflow:visible;"/>
	</clipPath>
	<g class="st0">
		<path class="st1" d="M15.4,18.9c0-1.8-0.9-3.2-2.7-3.7c1.3-0.6,2-1.6,2-3.1c0-2.9-2.2-3.6-4.7-3.6H3v14.7h7.2
			C12.8,23.2,15.4,21.9,15.4,18.9z M6.2,11h3c1.2,0,2.2,0.3,2.2,1.7c0,1.3-0.8,1.8-2,1.8H6.2V11z M6.2,20.7v-4.1h3.5
			c1.4,0,2.3,0.6,2.3,2.1c0,1.5-1.1,2-2.4,2H6.2z"/>
		<path class="st1" d="M21.8,23.5c2.6,0,4.2-1.1,5-3.6h-2.6c-0.3,0.9-1.4,1.4-2.3,1.4c-1.7,0-2.6-1-2.6-2.7H27
			c0.2-3.4-1.7-6.3-5.2-6.3c-3.3,0-5.5,2.4-5.5,5.6C16.3,21.2,18.4,23.5,21.8,23.5L21.8,23.5z M21.7,14.5c1.5,0,2.2,0.9,2.3,2.3
			h-4.8C19.4,15.4,20.3,14.5,21.7,14.5z"/>
		<path class="st1" d="M18.7,9.3h6v1.5h-6V9.3z"/>
	</g>
</g>
</svg>
