<?xml version="1.0" encoding="utf-8"?>
<!-- Generator: Adobe Illustrator 24.0.2, SVG Export Plug-In . SVG Version: 6.00 Build 0)  -->
<svg version="1.1" id="Layer_1" xmlns="http://www.w3.org/2000/svg" xmlns:xlink="http://www.w3.org/1999/xlink" x="0px" y="0px"
	 viewBox="0 0 30 30" style="enable-background:new 0 0 30 30;" xml:space="preserve">
<style type="text/css">
	.st0{clip-path:url(#SVGID_2_);}
	.st1{fill:#F56068;}
</style>
<g>
	<defs>
		<rect id="SVGID_1_" x="3" y="3" width="24" height="24"/>
	</defs>
	<clipPath id="SVGID_2_">
		<use xlink:href="#SVGID_1_"  style="overflow:visible;"/>
	</clipPath>
	<g class="st0">
		<path class="st1" d="M15,3C8.4,3,3,8.4,3,15c0,6.6,5.4,12,12,12s12-5.4,12-12C27,8.4,21.6,3,15,3z M22.8,8.7
			c1.3,1.7,2.2,3.8,2.2,6c-2.5-0.5-4.8-0.5-6.7-0.1c-0.4-0.8-0.7-1.6-1.1-2.4C19.4,11.3,21.3,10.1,22.8,8.7z M21.5,7.3
			c-1.5,1.4-3.3,2.4-5.2,3.2C15,8,13.7,6.2,12.9,5.1C13.6,5,14.3,4.9,15,4.9C17.5,4.9,19.7,5.8,21.5,7.3z M11,5.8
			c0.6,0.8,2,2.7,3.5,5.4c-3.8,1.2-7.5,1.4-9.3,1.5C5.9,9.6,8.1,7,11,5.8z M4.9,14.6C5,14.6,5,14.6,4.9,14.6c1.3,0,3.5-0.1,6.2-0.6
			c1.5-0.3,2.9-0.6,4.3-1.1c0.3,0.7,0.7,1.4,1,2.2c-1.9,0.6-3.5,1.5-4.7,2.3c-2.1,1.4-3.6,3.1-4.4,4c-1.5-1.8-2.4-4-2.4-6.5
			C4.9,14.9,4.9,14.7,4.9,14.6z M8.7,22.9c0.7-0.9,2.1-2.5,4.1-3.9c1.4-0.9,2.8-1.6,4.3-2.1c0.9,2.2,1.6,4.7,2,7.3
			c-1.3,0.6-2.7,0.9-4.2,0.9C12.6,25.1,10.4,24.2,8.7,22.9z M20.9,23.1c-0.4-2.4-1.1-4.6-1.9-6.7c1.9-0.3,3.9-0.3,5.9,0.2
			C24.5,19.3,23,21.6,20.9,23.1z"/>
	</g>
</g>
</svg>
