<?xml version="1.0" encoding="utf-8"?>
<!-- Generator: Adobe Illustrator 24.1.1, SVG Export Plug-In . SVG Version: 6.00 Build 0)  -->
<svg version="1.1" id="Layer_1" xmlns="http://www.w3.org/2000/svg" xmlns:xlink="http://www.w3.org/1999/xlink" x="0px" y="0px"
	 viewBox="0 0 40 40" style="enable-background:new 0 0 40 40;" xml:space="preserve">
<style type="text/css">
	.st0{clip-path:url(#SVGID_2_);}
	.st1{fill:#F56068;}
</style>
<g>
	<g>
		<g>
			<defs>
				<rect id="SVGID_1_" x="1" y="1.1" width="38" height="38"/>
			</defs>
			<clipPath id="SVGID_2_">
				<use xlink:href="#SVGID_1_"  style="overflow:visible;"/>
			</clipPath>
			<g class="st0">
				<path class="st1" d="M35.4,5.8H4.6C2.6,5.8,1,7.4,1,9.4v21.4c0,2,1.6,3.6,3.6,3.6h30.9c2,0,3.6-1.6,3.6-3.6V9.4
					C39,7.4,37.4,5.8,35.4,5.8L35.4,5.8z M35.4,8.2c0.2,0,0.3,0,0.5,0.1L20,22.1L4.1,8.3c0.1-0.1,0.3-0.1,0.5-0.1H35.4z M35.4,31.9
					H4.6c-0.7,0-1.2-0.5-1.2-1.2v-20l15.8,13.7c0.2,0.2,0.5,0.3,0.8,0.3s0.6-0.1,0.8-0.3l15.8-13.7v20
					C36.6,31.4,36.1,31.9,35.4,31.9L35.4,31.9z"/>
			</g>
		</g>
	</g>
</g>
</svg>
