<?xml version="1.0" encoding="utf-8"?>
<!-- Generator: Adobe Illustrator 24.0.2, SVG Export Plug-In . SVG Version: 6.00 Build 0)  -->
<svg version="1.1" id="Layer_1" xmlns="http://www.w3.org/2000/svg" xmlns:xlink="http://www.w3.org/1999/xlink" x="0px" y="0px"
	 viewBox="0 0 30 30" style="enable-background:new 0 0 30 30;" xml:space="preserve">
<style type="text/css">
	.st0{fill:#F66A70;}
</style>
<path class="st0" d="M15,4C8.4,4,3,9.4,3,16c0,5.6,3.9,10.7,9.2,12v-4c-0.5,0.1-1,0.1-1.5,0c-0.7-0.2-1.3-0.7-1.7-1.4
	c-0.3-0.5-0.8-1-1.3-0.9l-0.1-1.4c1.1-0.1,2,0.7,2.6,1.6c0.2,0.4,0.5,0.7,0.9,0.8c0.4,0.1,0.7,0.1,1.2-0.1c0.1-0.9,0.5-1.2,0.8-1.7
	v0c-3.1-0.5-4.4-2.1-4.9-3.4c-0.7-1.7-0.3-3.9,0.9-5.3c0,0,0.1-0.1,0-0.1c-0.5-1.6,0.1-2.9,0.1-3.1c0.6,0.2,0.7-0.2,2.7,1l0.3,0.2
	c0.1,0.1,0.1,0,0.2,0c0.8-0.2,1.7-0.3,2.5-0.4c0.9,0,1.7,0.1,2.6,0.4l0.1,0c0,0,0,0,0.1,0c2.4-1.5,2.3-1,3-1.2
	c0,0.1,0.7,1.5,0.1,3.1c-0.1,0.2,2.1,2.2,0.9,5.4c-0.5,1.3-1.7,3-4.9,3.4v0c0.4,0.6,0.9,0.9,0.9,2.2v5c5.2-1.3,9.2-6.4,9.2-12
	C27,9.4,21.6,4,15,4L15,4z"/>
</svg>
