<svg width="21" height="24" viewBox="0 0 21 24" fill="none" xmlns="http://www.w3.org/2000/svg">
<g clip-path="url(#clip0)">
<path d="M10.5045 6.60928C7.52329 6.60928 5.1186 9.01396 5.1186 11.9952C5.1186 14.9765 7.52329 17.3812 10.5045 17.3812C13.4858 17.3812 15.8905 14.9765 15.8905 11.9952C15.8905 9.01396 13.4858 6.60928 10.5045 6.60928ZM10.5045 15.4968C8.57798 15.4968 7.00298 13.9265 7.00298 11.9952C7.00298 10.064 8.57329 8.49365 10.5045 8.49365C12.4358 8.49365 14.0061 10.064 14.0061 11.9952C14.0061 13.9265 12.4311 15.4968 10.5045 15.4968ZM17.367 6.38896C17.367 7.0874 16.8045 7.64522 16.1108 7.64522C15.4124 7.64522 14.8545 7.08271 14.8545 6.38896C14.8545 5.69521 15.417 5.13271 16.1108 5.13271C16.8045 5.13271 17.367 5.69521 17.367 6.38896ZM20.9342 7.66397C20.8545 5.98115 20.4702 4.49053 19.2374 3.2624C18.0092 2.03428 16.5186 1.6499 14.8358 1.56553C13.1014 1.46709 7.90298 1.46709 6.1686 1.56553C4.49048 1.64521 2.99985 2.02959 1.76704 3.25771C0.534229 4.48584 0.154541 5.97646 0.070166 7.65928C-0.0282715 9.39365 -0.0282715 14.5921 0.070166 16.3265C0.149854 18.0093 0.534229 19.4999 1.76704 20.728C2.99985 21.9562 4.48579 22.3405 6.1686 22.4249C7.90298 22.5233 13.1014 22.5233 14.8358 22.4249C16.5186 22.3452 18.0092 21.9608 19.2374 20.728C20.4655 19.4999 20.8499 18.0093 20.9342 16.3265C21.0327 14.5921 21.0327 9.39834 20.9342 7.66397ZM18.6936 18.1874C18.328 19.1062 17.6202 19.814 16.6967 20.1843C15.3139 20.7327 12.0327 20.6062 10.5045 20.6062C8.97642 20.6062 5.69048 20.728 4.31235 20.1843C3.3936 19.8187 2.68579 19.1108 2.31548 18.1874C1.76704 16.8046 1.8936 13.5233 1.8936 11.9952C1.8936 10.4671 1.77173 7.18115 2.31548 5.80303C2.6811 4.88428 3.38892 4.17646 4.31235 3.80615C5.69517 3.25771 8.97642 3.38428 10.5045 3.38428C12.0327 3.38428 15.3186 3.2624 16.6967 3.80615C17.6155 4.17178 18.3233 4.87959 18.6936 5.80303C19.242 7.18584 19.1155 10.4671 19.1155 11.9952C19.1155 13.5233 19.242 16.8093 18.6936 18.1874Z" fill="#F66A70"/>
</g>
<defs>
<clipPath id="clip0">
<rect width="21" height="24" fill="white"/>
</clipPath>
</defs>
</svg>
