<?xml version="1.0" encoding="utf-8"?>
<!-- Generator: Adobe Illustrator 24.0.2, SVG Export Plug-In . SVG Version: 6.00 Build 0)  -->
<svg version="1.1" id="Layer_1" xmlns="http://www.w3.org/2000/svg" xmlns:xlink="http://www.w3.org/1999/xlink" x="0px" y="0px"
	 viewBox="0 0 30 30" style="enable-background:new 0 0 30 30;" xml:space="preserve">
<style type="text/css">
	.st0{fill:#F56068;}
</style>
<path class="st0" d="M6.5,4.2c-1.6,0-2.7,1.1-2.7,2.5c0,1.4,1,2.5,2.7,2.5h0c1.7,0,2.7-1.1,2.7-2.5C9.1,5.3,8.1,4.2,6.5,4.2L6.5,4.2
	z"/>
<path class="st0" d="M4,11.2h4.8v14.5H4V11.2z"/>
<path class="st0" d="M20.7,10.9c-2.6,0-4.3,2.4-4.3,2.4v-2.1h-4.8v14.5h4.8v-8.1c0-0.4,0-0.9,0.2-1.2c0.3-0.9,1.1-1.8,2.5-1.8
	c1.7,0,2.4,1.3,2.4,3.3v7.8h4.8v-8.3C26.2,12.9,23.9,10.9,20.7,10.9L20.7,10.9z"/>
</svg>
