<?xml version="1.0" encoding="utf-8"?>
<!-- Generator: Adobe Illustrator 24.0.2, SVG Export Plug-In . SVG Version: 6.00 Build 0)  -->
<svg version="1.1" id="Layer_1" xmlns="http://www.w3.org/2000/svg" xmlns:xlink="http://www.w3.org/1999/xlink" x="0px" y="0px"
	 viewBox="0 0 30 30" style="enable-background:new 0 0 30 30;" xml:space="preserve">
<style type="text/css">
	.st0{fill:#39E1AA;}
</style>
<path class="st0" d="M9,12.8H7.5c-0.2,0-0.4,0.1-0.5,0.2c-0.1,0.1-0.2,0.3-0.2,0.5l0,5.3c0,0.4,0.3,0.7,0.7,0.7
	c0.4,0,0.7-0.3,0.7-0.7v-1.6c0.3,0,0.6,0,0.8,0c1.2,0,2.2-1,2.2-2.2C11.2,13.8,10.2,12.8,9,12.8L9,12.8z M9,15.8c-0.2,0-0.5,0-0.8,0
	c0-0.3,0-0.6,0-0.8c0-0.2,0-0.5,0-0.8H9c0.5,0,0.8,0.4,0.8,0.8C9.8,15.4,9.4,15.8,9,15.8L9,15.8z"/>
<path class="st0" d="M15,12.8h-1.5c-0.2,0-0.4,0.1-0.5,0.2c-0.1,0.1-0.2,0.3-0.2,0.5c0,0,0,5.2,0,5.2c0,0.2,0.1,0.4,0.2,0.5
	c0.1,0.1,0.3,0.2,0.5,0.2h0c0,0,1.1,0,1.5,0c1.6,0,2.7-1.4,2.7-3.3C17.8,14.1,16.6,12.8,15,12.8L15,12.8z M15,18c-0.2,0-0.5,0-0.8,0
	c0-0.6,0-3.1,0-3.8H15c1.3,0,1.4,1.4,1.4,1.9C16.4,17,15.9,18,15,18z"/>
<path class="st0" d="M22.4,14.1c0.4,0,0.7-0.3,0.7-0.7c0-0.4-0.3-0.7-0.7-0.7h-2.1c-0.4,0-0.7,0.3-0.7,0.7v5.3
	c0,0.4,0.3,0.7,0.7,0.7s0.7-0.3,0.7-0.7v-2h1.3c0.4,0,0.7-0.3,0.7-0.7s-0.3-0.7-0.7-0.7H21v-1.2H22.4z"/>
<path class="st0" d="M24.5,9.8H24V9.6c0-0.9-0.3-1.8-1-2.4l-2.9-3.1C19.4,3.4,18.5,3,17.5,3H8.2C7,3,6,3.9,6,5.1v4.7H5.5
	c-1.2,0-2.1,0.9-2.1,2.1v8.4c0,1.2,0.9,2.1,2.1,2.1H6v2.4C6,26.1,7,27,8.2,27h13.7c1.2,0,2.1-0.9,2.1-2.1v-2.4h0.5
	c1.2,0,2.1-0.9,2.1-2.1v-8.4C26.6,10.7,25.6,9.8,24.5,9.8z M7.5,5.1c0-0.4,0.3-0.7,0.7-0.7h9.4c0.6,0,1.1,0.2,1.5,0.7L22,8.1
	c0.4,0.4,0.6,0.9,0.6,1.5v0.2H7.5V5.1z M22.5,24.9c0,0.4-0.3,0.7-0.7,0.7H8.2c-0.4,0-0.7-0.3-0.7-0.7v-2.4h15.1V24.9z M25.2,20.3
	c0,0.4-0.3,0.7-0.7,0.7H5.5c-0.4,0-0.7-0.3-0.7-0.7v-8.4c0-0.4,0.3-0.7,0.7-0.7h18.9c0.4,0,0.7,0.3,0.7,0.7V20.3z"/>
</svg>
