<?xml version="1.0" encoding="utf-8"?>
<!-- Generator: Adobe Illustrator 24.0.2, SVG Export Plug-In . SVG Version: 6.00 Build 0)  -->
<svg version="1.1" id="Layer_1" xmlns="http://www.w3.org/2000/svg" xmlns:xlink="http://www.w3.org/1999/xlink" x="0px" y="0px"
	 viewBox="0 0 30 30" style="enable-background:new 0 0 30 30;" xml:space="preserve">
<style type="text/css">
	.st0{fill:#F66A70;}
</style>
<path class="st0" d="M26.3,17.5c0.2-0.8,0.3-1.6,0.3-2.4c0-6.2-5.1-11.3-11.4-11.3c-0.7,0-1.3,0.1-2,0.2c-1-0.6-2.2-1-3.5-1
	C6,3,3,5.9,3,9.5c0,1.2,0.3,2.3,0.9,3.3c-0.2,0.7-0.2,1.5-0.2,2.3c0,6.2,5.1,11.3,11.4,11.3c0.7,0,1.4-0.1,2.1-0.2
	c0.9,0.5,2,0.8,3.1,0.8c3.7,0,6.6-2.9,6.6-6.5C27,19.4,26.8,18.4,26.3,17.5z M21,20.5c-0.5,0.7-1.3,1.3-2.3,1.7
	c-1,0.4-2.2,0.6-3.6,0.6c-1.6,0-3-0.3-4.1-0.8c-0.8-0.4-1.4-1-1.9-1.6c-0.5-0.7-0.7-1.4-0.7-2c0-0.4,0.2-0.8,0.5-1.1
	c0.3-0.3,0.7-0.4,1.2-0.4c0.4,0,0.7,0.1,1,0.3c0.3,0.2,0.5,0.5,0.7,1c0.2,0.5,0.4,0.8,0.7,1.1c0.2,0.3,0.5,0.5,1,0.7
	c0.4,0.2,1,0.3,1.7,0.3c0.9,0,1.7-0.2,2.3-0.6c0.6-0.4,0.8-0.8,0.8-1.4c0-0.4-0.1-0.8-0.4-1.1c-0.3-0.3-0.7-0.5-1.2-0.7
	c-0.5-0.2-1.2-0.3-2.1-0.5c-1.2-0.3-2.2-0.5-3-0.9c-0.8-0.3-1.5-0.8-2-1.4c-0.5-0.6-0.7-1.4-0.7-2.3c0-0.9,0.3-1.6,0.8-2.3
	c0.5-0.7,1.3-1.2,2.2-1.5c0.9-0.3,2.1-0.5,3.4-0.5c1,0,1.9,0.1,2.7,0.3c0.8,0.2,1.4,0.5,1.9,0.9c0.5,0.4,0.9,0.8,1.1,1.2
	c0.2,0.4,0.4,0.9,0.4,1.3c0,0.4-0.2,0.8-0.5,1.1c-0.3,0.3-0.7,0.5-1.2,0.5c-0.4,0-0.8-0.1-1-0.3c-0.2-0.2-0.4-0.5-0.7-0.9
	c-0.3-0.5-0.6-1-1-1.3c-0.4-0.3-1-0.4-1.9-0.4c-0.8,0-1.5,0.2-2,0.5c-0.5,0.3-0.7,0.7-0.7,1.1c0,0.3,0.1,0.5,0.2,0.7
	c0.2,0.2,0.4,0.4,0.7,0.5c0.3,0.1,0.6,0.3,0.9,0.4c0.3,0.1,0.9,0.2,1.6,0.4c0.9,0.2,1.8,0.4,2.5,0.7c0.8,0.2,1.4,0.5,2,0.9
	c0.5,0.4,1,0.8,1.3,1.3c0.3,0.5,0.5,1.2,0.5,2C21.8,18.9,21.5,19.8,21,20.5z"/>
</svg>
