<?xml version="1.0" encoding="utf-8"?>
<!-- Generator: Adobe Illustrator 24.0.2, SVG Export Plug-In . SVG Version: 6.00 Build 0)  -->
<svg version="1.1" id="Layer_1" xmlns="http://www.w3.org/2000/svg" xmlns:xlink="http://www.w3.org/1999/xlink" x="0px" y="0px"
	 viewBox="0 0 30 30" style="enable-background:new 0 0 30 30;" xml:space="preserve">
<style type="text/css">
	.st0{clip-path:url(#SVGID_2_);}
	.st1{fill:#F56068;}
</style>
<g>
	<defs>
		<rect id="SVGID_1_" x="3" y="3" width="24" height="24"/>
	</defs>
	<clipPath id="SVGID_2_">
		<use xlink:href="#SVGID_1_"  style="overflow:visible;"/>
	</clipPath>
	<g class="st0">
		<path class="st1" d="M26.8,4c-0.2-0.2-0.5-0.3-0.8-0.2L3.4,13.7C3.2,13.8,3,14,3,14.3c0,0.3,0.1,0.5,0.4,0.6l5.4,2.7l1.3,8.1
			c0,0.3,0.3,0.6,0.6,0.6c0.2,0,0.4,0,0.6-0.2l4.3-4.3l6.1,4.3c0.2,0.1,0.4,0.2,0.7,0.1c0.2-0.1,0.4-0.3,0.4-0.5L27,4.6
			C27,4.4,27,4.1,26.8,4z M9.3,16.3l-4-2l15.7-6.9L9.3,16.3z M11.5,18.4l-0.7,3.3l-0.7-4.2l8.6-6.5L11.7,18
			C11.6,18.1,11.6,18.3,11.5,18.4z M12,23.4l0.7-3.7l1.7,1.2L12,23.4z M21.6,24.4l-8.3-5.9L25.2,6.6L21.6,24.4z"/>
	</g>
</g>
</svg>
