<?xml version="1.0" encoding="utf-8"?>
<!-- Generator: Adobe Illustrator 24.0.2, SVG Export Plug-In . SVG Version: 6.00 Build 0)  -->
<svg version="1.1" id="Layer_1" xmlns="http://www.w3.org/2000/svg" xmlns:xlink="http://www.w3.org/1999/xlink" x="0px" y="0px"
	 viewBox="0 0 30 30" style="enable-background:new 0 0 30 30;" xml:space="preserve">
<style type="text/css">
	.st0{clip-path:url(#SVGID_2_);}
	.st1{fill:#39E1AA;}
</style>
<g>
	<defs>
		<rect id="SVGID_1_" x="3" y="3" width="24" height="24"/>
	</defs>
	<clipPath id="SVGID_2_">
		<use xlink:href="#SVGID_1_"  style="overflow:visible;"/>
	</clipPath>
	<g class="st0">
		<path class="st1" d="M23.5,6.5C21.2,4.2,18.2,3,15,3h0c-3.2,0-6.2,1.2-8.5,3.5S3,11.8,3,15s1.2,6.2,3.5,8.5
			C8.8,25.8,11.8,27,15,27s6.2-1.2,8.5-3.5c2.3-2.3,3.5-5.3,3.5-8.5S25.8,8.8,23.5,6.5L23.5,6.5z M24.3,20.1h-3.5
			c0.5-1.4,0.8-2.9,0.8-4.4h4C25.5,17.3,25,18.8,24.3,20.1L24.3,20.1z M15,25.5c-1.5-0.9-2.7-2.3-3.6-4h7.3
			C17.7,23.2,16.5,24.6,15,25.5z M10.7,20.1c-0.5-1.4-0.8-2.9-0.9-4.4h10.3c-0.1,1.6-0.4,3.1-0.9,4.4H10.7z M4.4,15.7h4
			c0.1,1.5,0.3,3,0.8,4.4H5.7C5,18.8,4.5,17.3,4.4,15.7L4.4,15.7z M5.7,9.9h3.5c-0.5,1.4-0.8,2.9-0.8,4.4h-4
			C4.5,12.7,5,11.2,5.7,9.9z M15,4.5c1.5,0.9,2.7,2.3,3.6,4h-7.3C12.3,6.8,13.5,5.4,15,4.5z M19.3,9.9c0.5,1.4,0.8,2.9,0.9,4.4H9.8
			c0.1-1.6,0.4-3.1,0.9-4.4H19.3z M25.6,14.3h-4c-0.1-1.5-0.3-3-0.8-4.4h3.5C25,11.2,25.5,12.7,25.6,14.3z M20.2,8.5
			c-0.7-1.4-1.6-2.7-2.6-3.7c2.3,0.6,4.3,1.9,5.8,3.7H20.2z M12.4,4.7c-1.1,1-2,2.3-2.6,3.7H6.7C8.1,6.6,10.1,5.3,12.4,4.7z
			 M9.8,21.5c0.7,1.4,1.6,2.7,2.6,3.7c-2.3-0.6-4.3-1.9-5.8-3.7H9.8z M17.6,25.3c1.1-1,2-2.3,2.6-3.7h3.1
			C21.9,23.4,19.9,24.7,17.6,25.3z"/>
	</g>
</g>
</svg>
