<svg xmlns="http://www.w3.org/2000/svg" width="81.798" height="49.208"><path d="M81.082 17.852L41.393.106a1.206 1.206 0 00-.988 0L24.314 7.298A1.21 1.21 0 0025.3 9.51l15.6-6.974L55.177 8.92v8.913a49.616 49.616 0 00-14.244-2.989h-.067a49.992 49.992 0 00-15.913 3.634 41.245 41.245 0 00-8.975 4.993 1.21 1.21 0 00-.422.577L4.174 18.957l15.956-7.135a1.21 1.21 0 00-.988-2.209L.716 17.852a1.21 1.21 0 000 2.209l14.772 6.607v5.794a1.21 1.21 0 102.42 0v-7.4a39.149 39.149 0 017.96-4.34A48.663 48.663 0 0140.9 17.264a48.413 48.413 0 0114.277 3.154v12.025a4.274 4.274 0 00-.421 8.051l-.846 2.227a45.216 45.216 0 00-13.011 3.9c-7.18-3.772-19.2-4.838-22.99-5.088v-3.397a1.21 1.21 0 00-2.42 0v4.538a1.21 1.21 0 001.157 1.209c.158.007 15.884.741 23.655 5.167a1.209 1.209 0 001.2 0 38.771 38.771 0 0111.408-3.687l-.715 1.883a1.21 1.21 0 001.131 1.64h6.131a1.211 1.211 0 001.131-1.64l-1.097-2.88a90.624 90.624 0 015.662-.484 1.21 1.21 0 001.158-1.209v-4.537a1.21 1.21 0 10-2.42 0v3.4c-1.13.076-3.007.227-5.286.5l-.585-1.54a4.274 4.274 0 00-.421-8.051v-11a38.333 38.333 0 016.292 3.613v7.4a1.21 1.21 0 102.42 0v-5.79l14.772-6.606a1.21 1.21 0 000-2.209zM55.076 46.465l1.311-3.45 1.311 3.45zm3.167-9.922a1.855 1.855 0 11-1.855-1.855 1.857 1.857 0 011.854 1.855zm8-12.5a1.21 1.21 0 00-.422-.577 40.882 40.882 0 00-8.221-4.668v-8.8l20.026 8.955zm0 0" fill="#fff"/></svg>
