<svg xmlns="http://www.w3.org/2000/svg" width="44.465" height="42.983"><path d="M41.5 0H2.965A2.969 2.969 0 000 2.967V27.42a.741.741 0 00.741.741h42.983a.741.741 0 00.741-.741V2.967A2.968 2.968 0 0041.5 0zm1.483 26.679H1.482V2.967a1.484 1.484 0 011.483-1.483H41.5a1.484 1.484 0 011.483 1.483z" fill="#fff"/><path d="M43.724 26.679H.741A.741.741 0 000 27.42v3.7a2.969 2.969 0 002.965 2.965H41.5a2.969 2.969 0 002.965-2.965v-3.7a.741.741 0 00-.741-.741zm-.741 4.446a1.484 1.484 0 01-1.483 1.483H2.965a1.484 1.484 0 01-1.483-1.483v-2.964h41.5v2.964z" fill="#fff"/><path d="M24.456 29.644h-4.447a.741.741 0 100 1.482h4.447a.741.741 0 100-1.482zM40.759 2.964H3.705a.741.741 0 00-.741.741V27.42a.741.741 0 00.741.741H40.76a.741.741 0 00.741-.741V3.705a.741.741 0 00-.742-.741zm-.741 23.715H4.446V4.446h35.572zM31.866 38.537H12.598a2.223 2.223 0 100 4.446h19.268a2.223 2.223 0 100-4.446zm0 2.964H12.598a.741.741 0 110-1.482h19.268a.741.741 0 110 1.482z" fill="#fff"/><path d="M30.385 38.537c-2.459 0-3.705-1.745-3.705-5.188a.741.741 0 00-.741-.742h-7.411a.741.741 0 00-.741.741c0 3.442-1.246 5.188-3.705 5.188a.741.741 0 100 1.482h16.3a.741.741 0 100-1.482zm-12.694 0a7.1 7.1 0 001.558-4.447h5.969a7.092 7.092 0 001.558 4.447zM35.413 21.832l-1.789-1.789 1-1a.741.741 0 00-.311-1.234l-7.411-2.223a.741.741 0 00-.923.923l2.223 7.411a.741.741 0 001.234.311l1.048-1.049 1.789 1.79a.741.741 0 001.048 0l2.1-2.1a.74.74 0 00-.008-1.04zm-2.62 1.573l-1.629-1.63a.969.969 0 00-1.368 0l-.535.535-1.471-4.9 4.9 1.471-.574.574a.84.84 0 000 1.186l1.719 1.719zM31.125 5.929h-20.75a.741.741 0 00-.741.741v3.705a.741.741 0 00.741.741h20.75a.741.741 0 00.741-.741V6.67a.741.741 0 00-.741-.741zm-.741 3.705H11.116V7.411h19.268zM19.269 14.081H13.34a.741.741 0 00-.741.741v2.964a.741.741 0 00.741.741h5.929a.741.741 0 00.741-.741v-2.964a.741.741 0 00-.741-.741zm-.737 2.964h-4.447v-1.482h4.447z" fill="#fff"/><path d="M31.125 5.929h-20.75a.741.741 0 00-.741.741v14.081a.741.741 0 00.741.741h17.642a.742.742 0 00.71-.955l-.938-3.128 3.124.938a.741.741 0 00.954-.71V6.67a.741.741 0 00-.742-.741zm-.741 10.712L26.9 15.594a.742.742 0 00-.923.923l1.048 3.492H11.116v-12.6h19.268z" fill="#fff"/></svg>
