<svg xmlns="http://www.w3.org/2000/svg" width="67" height="67"><path d="M33.5 0a22.333 22.333 0 00-11.167 41.675v2.992a2.792 2.792 0 00-2.792 2.792v11.166A8.385 8.385 0 0027.916 67h11.167a8.385 8.385 0 008.375-8.375V47.458a2.792 2.792 0 00-2.792-2.792v-2.991A22.333 22.333 0 0033.5 0zm8.372 50.25v2.792H25.125V50.25zm-2.789 11.166H27.916a2.8 2.8 0 01-2.792-2.792h16.748a2.8 2.8 0 01-2.789 2.792zm1.589-23.946a2.792 2.792 0 00-1.594 2.52v4.676h-2.787V32.2l7.132-4.755a2.792 2.792 0 001.243-2.323v-5.58h-5.583v4.089L33.5 27.353l-5.583-3.722v-4.089h-5.584v5.583a2.792 2.792 0 001.239 2.322l7.136 4.753v12.466h-2.792V39.99a2.792 2.792 0 00-1.594-2.522 16.75 16.75 0 1114.354 0z" fill="#fff"/><ellipse cx="3.5" cy="2.5" rx="3.5" ry="2.5" transform="translate(38.5 12.5)" fill="#fff"/><path d="M61.416 19.542h5.583v5.583h-5.583zM56.642 11.987l5.586-5.586 3.948 3.948-5.586 5.586zM56.641 32.685l3.948-3.948 5.586 5.586-3.948 3.948zM0 19.542h5.583v5.583H0zM.817 10.348L4.765 6.4l5.586 5.586-3.948 3.948zM.815 34.313l5.586-5.586 3.948 3.948-5.586 5.586z" fill="#fff"/></svg>
