<svg xmlns="http://www.w3.org/2000/svg" width="53.662" height="48.214"><g fill="#fff"><path d="M48.7 8.713h-2.042a.8.8 0 100 1.594H48.7a3.37 3.37 0 013.367 3.365V27.54q-.722.411-1.453.8a50.472 50.472 0 01-12.144 4.553v-6.68a4.327 4.327 0 00-4.322-4.322H19.517a4.327 4.327 0 00-4.317 4.32v6.681a50.593 50.593 0 01-13.6-5.353V13.673a3.369 3.369 0 013.365-3.365H43.47a.8.8 0 000-1.594h-3.091V5.023A5.029 5.029 0 0035.356 0H18.3a5.029 5.029 0 00-5.023 5.023v3.69H4.959A4.965 4.965 0 000 13.673V28a.8.8 0 00.4.689q.733.427 1.476.827v3.718a.8.8 0 101.594 0v-2.89a52.04 52.04 0 0017.959 5.2v2.718a3.2 3.2 0 003.2 3.2h4.415a3.2 3.2 0 003.2-3.2v-2.714a52.037 52.037 0 0017.958-5.2v12.919a3.357 3.357 0 01-3.353 3.353H6.819a3.357 3.357 0 01-3.353-3.353v-6.845a.8.8 0 10-1.594 0v6.845a4.953 4.953 0 004.947 4.947h40.023a4.953 4.953 0 004.948-4.947V29.516q.742-.4 1.476-.828a.8.8 0 00.4-.689V13.673a4.965 4.965 0 00-4.966-4.96zM34.386 1.594a3.394 3.394 0 01-3.3 2.632h-8.508a3.4 3.4 0 01-3.3-2.632zm-19.51 3.429a3.434 3.434 0 012.787-3.368 4.99 4.99 0 004.915 4.165h8.505A4.99 4.99 0 0036 1.655a3.434 3.434 0 012.788 3.368v3.69H14.877v-3.69zm15.767 33.243a1.607 1.607 0 01-1.605 1.605h-4.415a1.607 1.607 0 01-1.605-1.605v-6.72a1.607 1.607 0 011.605-1.6h4.415a1.607 1.607 0 011.605 1.6zm-1.605-9.919h-4.415a3.2 3.2 0 00-3.2 3.2v2.4q-2.345-.249-4.635-.707v-7.029a2.731 2.731 0 012.728-2.728h14.629a2.731 2.731 0 012.728 2.728v7.026q-2.29.458-4.636.707v-2.4a3.2 3.2 0 00-3.199-3.196zm0 0"/><path d="M28.253 31.537H25.41a.8.8 0 00-.8.8v5.148a.8.8 0 00.8.8h2.843a.8.8 0 00.8-.8v-5.148a.8.8 0 00-.8-.8zm-.8 5.148h-1.249V33.13h1.249zm0 0"/></g></svg>
