<svg width="58" height="64" viewBox="0 0 58 64" fill="none" xmlns="http://www.w3.org/2000/svg">
<path d="M25.9996 64C16.6441 64 7.8202 59.9601 1.65409 52.8372C0.378338 51.3488 0.590963 49.2226 2.07934 48.0532C3.56771 46.7774 5.69395 46.99 6.86339 48.3721C11.6474 54.0066 18.6641 57.196 25.9996 57.196C39.9265 57.196 51.1956 45.9269 51.1956 32C51.1956 18.0731 39.9265 6.80399 25.9996 6.80399C24.086 6.80399 22.5976 5.31561 22.5976 3.40199C22.5976 1.48837 24.086 0 25.9996 0C43.6474 0 57.9996 14.3522 57.9996 32C57.9996 49.6478 43.6474 64 25.9996 64Z" fill="#104EFB"/>
</svg>
