<svg xmlns="http://www.w3.org/2000/svg" width="367.223" height="50.177" viewBox="0 0 367.223 50.177"><path d="M291.751,48.565V2.178A2.158,2.158,0,0,1,292.2.838a1.315,1.315,0,0,1,2.146,0,2.158,2.158,0,0,1,.444,1.34V48.565a2.158,2.158,0,0,1-.444,1.34,1.315,1.315,0,0,1-2.146,0A2.158,2.158,0,0,1,291.751,48.565Zm58.269-4.725V6.893a2.372,2.372,0,0,1,.073-.78,2.053,2.053,0,0,1,.319-.676,1.585,1.585,0,0,1,.511-.458,1.249,1.249,0,0,1,1.23,0,1.585,1.585,0,0,1,.511.458,2.041,2.041,0,0,1,.319.676,2.357,2.357,0,0,1,.074.78V43.848a2.357,2.357,0,0,1-.074.78,2.041,2.041,0,0,1-.319.676,1.585,1.585,0,0,1-.511.458,1.248,1.248,0,0,1-1.23,0,1.585,1.585,0,0,1-.511-.458,2.053,2.053,0,0,1-.319-.676,2.372,2.372,0,0,1-.073-.78Zm-305.918,0V6.893a2.352,2.352,0,0,1,.074-.78,2.051,2.051,0,0,1,.319-.676,1.586,1.586,0,0,1,.51-.458,1.249,1.249,0,0,1,1.23,0,1.586,1.586,0,0,1,.51.458,2.05,2.05,0,0,1,.319.676,2.352,2.352,0,0,1,.074.78V43.848a2.352,2.352,0,0,1-.074.78,2.051,2.051,0,0,1-.319.676,1.587,1.587,0,0,1-.51.458,1.249,1.249,0,0,1-1.23,0,1.587,1.587,0,0,1-.51-.458,2.051,2.051,0,0,1-.319-.676,2.352,2.352,0,0,1-.074-.78Zm254.927-.582V7.483a2.158,2.158,0,0,1,.444-1.34,1.315,1.315,0,0,1,2.146,0,2.158,2.158,0,0,1,.444,1.34V43.258a2.159,2.159,0,0,1-.444,1.34,1.315,1.315,0,0,1-2.146,0A2.158,2.158,0,0,1,299.029,43.258Zm-116.542-1.18V8.663a2.111,2.111,0,0,1,.49-1.234,1.31,1.31,0,0,1,2.056,0,2.107,2.107,0,0,1,.49,1.234V42.069a2.342,2.342,0,0,1-.073.78,2.043,2.043,0,0,1-.319.676,1.583,1.583,0,0,1-.51.458,1.249,1.249,0,0,1-1.23,0,1.589,1.589,0,0,1-.51-.458,2.042,2.042,0,0,1-.319-.676,2.359,2.359,0,0,1-.074-.78Zm-65.546,0V8.663a2.158,2.158,0,0,1,.444-1.34,1.314,1.314,0,0,1,2.146,0,2.158,2.158,0,0,1,.444,1.34V42.069a2.158,2.158,0,0,1-.444,1.34,1.314,1.314,0,0,1-2.146,0,2.158,2.158,0,0,1-.444-1.34Zm116.542-.59V9.255a2.158,2.158,0,0,1,.444-1.34,1.314,1.314,0,0,1,2.146,0,2.158,2.158,0,0,1,.444,1.34v32.23a2.158,2.158,0,0,1-.444,1.34,1.314,1.314,0,0,1-2.146,0,2.158,2.158,0,0,1-.444-1.34Zm123.823-1.771V11.028a2.342,2.342,0,0,1,.073-.78,2.052,2.052,0,0,1,.319-.676,1.59,1.59,0,0,1,.51-.458,1.25,1.25,0,0,1,1.23,0,1.583,1.583,0,0,1,.51.458,2.053,2.053,0,0,1,.319.676,2.344,2.344,0,0,1,.073.78V39.715a2.344,2.344,0,0,1-.073.78,2.054,2.054,0,0,1-.319.676,1.583,1.583,0,0,1-.51.458,1.25,1.25,0,0,1-1.23,0,1.59,1.59,0,0,1-.51-.458,2.053,2.053,0,0,1-.319-.676,2.342,2.342,0,0,1-.073-.78Zm-29.134,0V11.028a2.158,2.158,0,0,1,.444-1.34,1.314,1.314,0,0,1,2.146,0,2.158,2.158,0,0,1,.444,1.34V39.715a2.158,2.158,0,0,1-.444,1.34,1.314,1.314,0,0,1-2.146,0,2.158,2.158,0,0,1-.444-1.34Zm-43.7,0V11.028a2.343,2.343,0,0,1,.073-.78,2.053,2.053,0,0,1,.319-.676,1.584,1.584,0,0,1,.51-.458,1.25,1.25,0,0,1,1.23,0,1.584,1.584,0,0,1,.51.458,2.052,2.052,0,0,1,.319.676,2.342,2.342,0,0,1,.073.78V39.715a2.342,2.342,0,0,1-.073.78,2.053,2.053,0,0,1-.319.676,1.584,1.584,0,0,1-.51.458,1.25,1.25,0,0,1-1.23,0,1.584,1.584,0,0,1-.51-.458,2.053,2.053,0,0,1-.319-.676,2.343,2.343,0,0,1-.073-.78Zm-160.243,0V11.028a2.159,2.159,0,0,1,.444-1.34,1.314,1.314,0,0,1,2.146,0,2.155,2.155,0,0,1,.445,1.34V39.715a2.155,2.155,0,0,1-.445,1.34,1.314,1.314,0,0,1-2.146,0,2.158,2.158,0,0,1-.444-1.34Zm-87.406,0V11.028a2.352,2.352,0,0,1,.074-.78,2.05,2.05,0,0,1,.319-.676,1.586,1.586,0,0,1,.51-.458,1.25,1.25,0,0,1,1.23,0,1.586,1.586,0,0,1,.51.458,2.05,2.05,0,0,1,.319.676,2.352,2.352,0,0,1,.074.78V39.715a2.352,2.352,0,0,1-.074.78,2.051,2.051,0,0,1-.319.676,1.586,1.586,0,0,1-.51.458,1.25,1.25,0,0,1-1.23,0,1.586,1.586,0,0,1-.51-.458,2.051,2.051,0,0,1-.319-.676,2.352,2.352,0,0,1-.074-.78Zm182.087-1.771V12.8a2.359,2.359,0,0,1,.074-.78,2.041,2.041,0,0,1,.319-.676,1.589,1.589,0,0,1,.51-.458,1.25,1.25,0,0,1,1.23,0,1.591,1.591,0,0,1,.511.458,2.041,2.041,0,0,1,.319.676,2.342,2.342,0,0,1,.073.78V37.944a2.107,2.107,0,0,1-.49,1.234,1.31,1.31,0,0,1-2.056,0,2.111,2.111,0,0,1-.49-1.234Zm-29.134,0V12.8a2.158,2.158,0,0,1,.444-1.34,1.315,1.315,0,0,1,2.146,0,2.158,2.158,0,0,1,.444,1.34V37.944a2.158,2.158,0,0,1-.444,1.34,1.315,1.315,0,0,1-2.146,0,2.158,2.158,0,0,1-.444-1.34Zm-87.406,0V12.8a2.158,2.158,0,0,1,.444-1.34,1.314,1.314,0,0,1,2.146,0,2.158,2.158,0,0,1,.444,1.34V37.944a2.158,2.158,0,0,1-.444,1.34,1.314,1.314,0,0,1-2.146,0,2.158,2.158,0,0,1-.444-1.34Zm233.083-1.772v-21.6a2.158,2.158,0,0,1,.444-1.34,1.314,1.314,0,0,1,2.146,0,2.155,2.155,0,0,1,.445,1.34v21.6a2.155,2.155,0,0,1-.445,1.34,1.314,1.314,0,0,1-2.146,0,2.158,2.158,0,0,1-.444-1.34Zm-123.825,0v-21.6a2.111,2.111,0,0,1,.49-1.234,1.31,1.31,0,0,1,2.056,0,2.11,2.11,0,0,1,.49,1.234v21.6a2.11,2.11,0,0,1-.49,1.234,1.31,1.31,0,0,1-2.056,0,2.11,2.11,0,0,1-.49-1.234Zm-101.973,0v-21.6a2.111,2.111,0,0,1,.49-1.234,1.31,1.31,0,0,1,2.056,0,2.111,2.111,0,0,1,.49,1.234v21.6a2.11,2.11,0,0,1-.49,1.234,1.31,1.31,0,0,1-2.056,0,2.11,2.11,0,0,1-.49-1.234Zm-14.567,0v-21.6a2.158,2.158,0,0,1,.444-1.34,1.315,1.315,0,0,1,2.146,0,2.158,2.158,0,0,1,.444,1.34v21.6a2.158,2.158,0,0,1-.444,1.34,1.315,1.315,0,0,1-2.146,0,2.158,2.158,0,0,1-.444-1.34Zm-29.135,0v-21.6a2.158,2.158,0,0,1,.444-1.34,1.314,1.314,0,0,1,2.146,0,2.158,2.158,0,0,1,.444,1.34v21.6a2.312,2.312,0,0,1-.116.725,1.976,1.976,0,0,1-.329.615,1.538,1.538,0,0,1-.492.411,1.241,1.241,0,0,1-1.161,0,1.538,1.538,0,0,1-.492-.411,1.976,1.976,0,0,1-.329-.615,2.312,2.312,0,0,1-.116-.725Zm-43.7,0v-21.6a2.158,2.158,0,0,1,.444-1.34,1.315,1.315,0,0,1,2.146,0,2.158,2.158,0,0,1,.444,1.34v21.6a2.158,2.158,0,0,1-.444,1.34,1.315,1.315,0,0,1-2.146,0,2.158,2.158,0,0,1-.444-1.34Zm284.067-1.18V15.751a2.158,2.158,0,0,1,.444-1.34,1.314,1.314,0,0,1,2.146,0,2.158,2.158,0,0,1,.444,1.34V34.99a2.158,2.158,0,0,1-.444,1.34,1.314,1.314,0,0,1-2.146,0,2.158,2.158,0,0,1-.444-1.34Zm-29.136,0V15.751a2.11,2.11,0,0,1,.49-1.234,1.31,1.31,0,0,1,2.056,0,2.11,2.11,0,0,1,.49,1.234V34.99a2.11,2.11,0,0,1-.49,1.234,1.31,1.31,0,0,1-2.056,0,2.11,2.11,0,0,1-.49-1.234ZM146.07,33.813V16.933a2.374,2.374,0,0,1,.073-.78,2.053,2.053,0,0,1,.319-.676,1.59,1.59,0,0,1,.51-.458,1.25,1.25,0,0,1,1.23,0,1.584,1.584,0,0,1,.51.458,2.053,2.053,0,0,1,.319.676,2.343,2.343,0,0,1,.073.78V33.811a2.343,2.343,0,0,1-.073.78,2.052,2.052,0,0,1-.319.676,1.584,1.584,0,0,1-.51.458,1.25,1.25,0,0,1-1.23,0,1.59,1.59,0,0,1-.51-.458,2.053,2.053,0,0,1-.319-.676,2.374,2.374,0,0,1-.073-.78Zm-116.542,0V16.933a2.158,2.158,0,0,1,.444-1.34,1.314,1.314,0,0,1,2.146,0,2.158,2.158,0,0,1,.444,1.34V33.811a2.158,2.158,0,0,1-.444,1.34,1.315,1.315,0,0,1-2.146,0,2.158,2.158,0,0,1-.444-1.34Zm335.054-1.18V18.114a2.158,2.158,0,0,1,.444-1.34,1.315,1.315,0,0,1,2.146,0,2.158,2.158,0,0,1,.444,1.34V32.629a2.159,2.159,0,0,1-.444,1.34,1.315,1.315,0,0,1-2.146,0,2.158,2.158,0,0,1-.444-1.34Zm-43.7,0V18.114a2.357,2.357,0,0,1,.074-.78,2.039,2.039,0,0,1,.319-.676,1.585,1.585,0,0,1,.511-.458,1.248,1.248,0,0,1,1.23,0,1.585,1.585,0,0,1,.511.458,2.039,2.039,0,0,1,.319.676,2.357,2.357,0,0,1,.074.78V32.629a2.356,2.356,0,0,1-.074.78,2.04,2.04,0,0,1-.319.676,1.585,1.585,0,0,1-.511.458,1.248,1.248,0,0,1-1.23,0,1.585,1.585,0,0,1-.511-.458,2.04,2.04,0,0,1-.319-.676,2.356,2.356,0,0,1-.074-.78Zm-123.824,0V18.114a2.158,2.158,0,0,1,.444-1.34,1.315,1.315,0,0,1,2.146,0,2.158,2.158,0,0,1,.444,1.34V32.629a2.158,2.158,0,0,1-.444,1.34,1.315,1.315,0,0,1-2.146,0,2.158,2.158,0,0,1-.444-1.34Zm-36.419,0V18.114a2.155,2.155,0,0,1,.445-1.34,1.314,1.314,0,0,1,2.146,0,2.158,2.158,0,0,1,.444,1.34V32.629a2.158,2.158,0,0,1-.444,1.34,1.314,1.314,0,0,1-2.146,0,2.155,2.155,0,0,1-.445-1.34Zm80.121-.59V18.714a2.359,2.359,0,0,1,.074-.78,2.04,2.04,0,0,1,.319-.676,1.586,1.586,0,0,1,.511-.458,1.249,1.249,0,0,1,1.23,0,1.585,1.585,0,0,1,.511.458,2.04,2.04,0,0,1,.319.676,2.357,2.357,0,0,1,.074.78V32.042a2.111,2.111,0,0,1-.49,1.234,1.31,1.31,0,0,1-2.056,0A2.111,2.111,0,0,1,240.757,32.042Zm-109.256,0V18.714a2.158,2.158,0,0,1,.444-1.34,1.314,1.314,0,0,1,2.146,0,2.158,2.158,0,0,1,.444,1.34V32.042a2.158,2.158,0,0,1-.444,1.34,1.314,1.314,0,0,1-2.146,0A2.158,2.158,0,0,1,131.5,32.042Zm-43.7,0V18.714a2.158,2.158,0,0,1,.444-1.34,1.315,1.315,0,0,1,2.146,0,2.158,2.158,0,0,1,.444,1.34V32.042a2.158,2.158,0,0,1-.444,1.34,1.315,1.315,0,0,1-2.146,0A2.158,2.158,0,0,1,87.8,32.042ZM58.671,30.858V19.885a2.158,2.158,0,0,1,.444-1.34,1.315,1.315,0,0,1,2.146,0,2.158,2.158,0,0,1,.444,1.34V30.858a2.158,2.158,0,0,1-.444,1.34,1.315,1.315,0,0,1-2.146,0A2.158,2.158,0,0,1,58.671,30.858Zm-50.987,0V19.885a2.11,2.11,0,0,1,.49-1.234,1.31,1.31,0,0,1,2.056,0,2.11,2.11,0,0,1,.49,1.234V30.858a2.11,2.11,0,0,1-.49,1.234,1.31,1.31,0,0,1-2.056,0A2.11,2.11,0,0,1,7.683,30.858Zm335.054-.59V20.475a2.158,2.158,0,0,1,.444-1.34,1.314,1.314,0,0,1,2.146,0,2.158,2.158,0,0,1,.444,1.34v9.791a2.158,2.158,0,0,1-.444,1.34,1.314,1.314,0,0,1-2.146,0,2.158,2.158,0,0,1-.444-1.34Zm-72.838,0V20.475a2.159,2.159,0,0,1,.444-1.34,1.315,1.315,0,0,1,2.146,0,2.158,2.158,0,0,1,.444,1.34v9.791a2.158,2.158,0,0,1-.444,1.34,1.315,1.315,0,0,1-2.146,0,2.158,2.158,0,0,1-.444-1.34Zm43.7-.592V21.065a2.106,2.106,0,0,1,.49-1.234,1.31,1.31,0,0,1,2.056,0,2.114,2.114,0,0,1,.49,1.234v8.609a2.114,2.114,0,0,1-.49,1.234,1.31,1.31,0,0,1-2.056,0,2.106,2.106,0,0,1-.49-1.234Zm-109.257,0V21.065a2.311,2.311,0,0,1,.116-.725,1.976,1.976,0,0,1,.329-.615,1.55,1.55,0,0,1,.492-.411,1.24,1.24,0,0,1,1.161,0,1.546,1.546,0,0,1,.493.411,1.987,1.987,0,0,1,.329.615,2.312,2.312,0,0,1,.116.725v8.609a2.312,2.312,0,0,1-.116.725,1.987,1.987,0,0,1-.329.615,1.546,1.546,0,0,1-.493.411,1.24,1.24,0,0,1-1.161,0,1.55,1.55,0,0,1-.492-.411,1.976,1.976,0,0,1-.329-.615,2.311,2.311,0,0,1-.116-.725Zm-50.986,0V21.065a2.158,2.158,0,0,1,.444-1.34,1.314,1.314,0,0,1,2.146,0,2.158,2.158,0,0,1,.444,1.34v8.609a2.158,2.158,0,0,1-.444,1.34,1.314,1.314,0,0,1-2.146,0,2.158,2.158,0,0,1-.444-1.34Zm94.688-1.18V22.247a2.111,2.111,0,0,1,.49-1.234,1.31,1.31,0,0,1,2.056,0,2.111,2.111,0,0,1,.49,1.234v6.24a2.358,2.358,0,0,1-.074.78,2.041,2.041,0,0,1-.319.676,1.585,1.585,0,0,1-.511.458,1.249,1.249,0,0,1-1.23,0,1.586,1.586,0,0,1-.511-.458,2.04,2.04,0,0,1-.319-.676,2.359,2.359,0,0,1-.074-.78Zm-109.256,0V22.247a2.107,2.107,0,0,1,.49-1.234,1.31,1.31,0,0,1,2.056,0,2.111,2.111,0,0,1,.49,1.234v6.24a2.111,2.111,0,0,1-.49,1.234,1.31,1.31,0,0,1-2.056,0,2.107,2.107,0,0,1-.49-1.234Zm-58.271,0V22.247a2.114,2.114,0,0,1,.49-1.234,1.31,1.31,0,0,1,2.056,0,2.107,2.107,0,0,1,.49,1.234v6.24a2.343,2.343,0,0,1-.073.78,2.053,2.053,0,0,1-.319.676,1.584,1.584,0,0,1-.51.458,1.25,1.25,0,0,1-1.23,0,1.59,1.59,0,0,1-.51-.458,2.052,2.052,0,0,1-.319-.676,2.343,2.343,0,0,1-.073-.78Zm-29.134,0V22.247a2.158,2.158,0,0,1,.444-1.34,1.315,1.315,0,0,1,2.146,0,2.158,2.158,0,0,1,.444,1.34v6.24a2.158,2.158,0,0,1-.444,1.34,1.314,1.314,0,0,1-2.146,0,2.158,2.158,0,0,1-.444-1.34ZM.4,28.487V22.238A2.11,2.11,0,0,1,.89,21a1.372,1.372,0,0,1,1.028-.5,1.372,1.372,0,0,1,1.028.5,2.11,2.11,0,0,1,.49,1.234v6.248a2.352,2.352,0,0,1-.073.78,2.05,2.05,0,0,1-.319.676,1.587,1.587,0,0,1-.51.458,1.25,1.25,0,0,1-1.23,0,1.587,1.587,0,0,1-.51-.458,2.05,2.05,0,0,1-.319-.676A2.352,2.352,0,0,1,.4,28.487Zm254.933-.59V22.837a2.158,2.158,0,0,1,.444-1.34,1.314,1.314,0,0,1,2.146,0,2.158,2.158,0,0,1,.444,1.34v5.068a2.158,2.158,0,0,1-.444,1.34,1.314,1.314,0,0,1-2.146,0,2.158,2.158,0,0,1-.444-1.34Zm-29.136,0V22.837a2.158,2.158,0,0,1,.444-1.34,1.315,1.315,0,0,1,2.146,0,2.159,2.159,0,0,1,.444,1.34v5.068a2.158,2.158,0,0,1-.444,1.34,1.315,1.315,0,0,1-2.146,0,2.158,2.158,0,0,1-.444-1.34Zm-50.987,0V22.837a2.111,2.111,0,0,1,.49-1.234,1.31,1.31,0,0,1,2.056,0,2.107,2.107,0,0,1,.49,1.234v5.068a2.343,2.343,0,0,1-.073.78,2.053,2.053,0,0,1-.319.676,1.584,1.584,0,0,1-.51.458,1.25,1.25,0,0,1-1.23,0,1.59,1.59,0,0,1-.51-.458,2.053,2.053,0,0,1-.319-.676,2.373,2.373,0,0,1-.073-.78ZM73.236,26.716v-2.7a2.373,2.373,0,0,1,.073-.78,2.053,2.053,0,0,1,.319-.676,1.589,1.589,0,0,1,.51-.458,1.249,1.249,0,0,1,1.23,0,1.583,1.583,0,0,1,.51.458,2.053,2.053,0,0,1,.319.676,2.343,2.343,0,0,1,.073.78v2.7a2.343,2.343,0,0,1-.073.78,2.053,2.053,0,0,1-.319.676,1.584,1.584,0,0,1-.51.458,1.249,1.249,0,0,1-1.23,0,1.59,1.59,0,0,1-.51-.458,2.053,2.053,0,0,1-.319-.676,2.373,2.373,0,0,1-.073-.78Zm-58.269,0v-2.7a2.158,2.158,0,0,1,.444-1.34,1.315,1.315,0,0,1,2.146,0A2.158,2.158,0,0,1,18,24.02v2.7a2.158,2.158,0,0,1-.444,1.34,1.315,1.315,0,0,1-2.146,0,2.158,2.158,0,0,1-.444-1.34Zm247.647-1.18V25.19a2.158,2.158,0,0,1,.444-1.34,1.315,1.315,0,0,1,2.146,0,2.158,2.158,0,0,1,.444,1.34v.346a2.158,2.158,0,0,1-.444,1.34,1.315,1.315,0,0,1-2.146,0A2.158,2.158,0,0,1,262.614,25.536Zm-94.69,0V25.19a2.158,2.158,0,0,1,.444-1.34,1.315,1.315,0,0,1,2.146,0,2.158,2.158,0,0,1,.444,1.34v.346a2.158,2.158,0,0,1-.444,1.34,1.315,1.315,0,0,1-2.146,0A2.158,2.158,0,0,1,167.925,25.536Z" transform="translate(-0.394 -0.283)" fill="#3d5ed4"/></svg>