<svg width="36" height="36" viewBox="0 0 36 36" fill="none" xmlns="http://www.w3.org/2000/svg">
<path d="M23.7214 22.108C23.5615 22.0883 23.4146 22.0099 23.3093 21.888C23.2039 21.7662 23.1475 21.6095 23.1511 21.4484C23.1547 21.2874 23.218 21.1334 23.3287 21.0163C23.4394 20.8993 23.5896 20.8275 23.7502 20.8149C27.6031 20.5102 32.0939 16.0432 33.1833 9.03369L28.5689 8.46712C28.4051 8.43772 28.2588 8.34671 28.16 8.21278C28.0613 8.07886 28.0175 7.91219 28.0378 7.74702C28.0581 7.58185 28.1409 7.43071 28.2691 7.32467C28.3973 7.21862 28.5613 7.16571 28.7274 7.17681L33.9968 7.82381C34.1682 7.84485 34.3242 7.93311 34.4305 8.06916C34.5368 8.20522 34.5846 8.37793 34.5636 8.5493C33.5399 16.8867 28.2804 21.7631 23.8526 22.1141C23.8091 22.1169 23.7654 22.1159 23.722 22.1111L23.7214 22.108Z" fill="#92A5E7"/>
<path d="M10.5913 20.4702C10.5436 20.464 10.4967 20.4529 10.4513 20.4369C6.30966 18.9581 2.45394 12.9514 3.46363 4.72818C3.48467 4.55681 3.57293 4.40082 3.70898 4.29452C3.84504 4.18823 4.01775 4.14033 4.18912 4.16137L9.35036 4.79509C9.52655 4.81629 9.68812 4.90361 9.80238 5.03941C9.91663 5.1752 9.97505 5.34932 9.9658 5.52655C9.96155 5.60936 9.9404 5.69043 9.90365 5.76477C9.86691 5.83911 9.81534 5.90514 9.75213 5.95882C9.68892 6.01249 9.6154 6.05266 9.53608 6.07687C9.45677 6.10108 9.37335 6.1088 9.29094 6.09957L4.68652 5.53422C4.0586 12.5026 7.28281 17.925 10.8878 19.2119C11.0384 19.2659 11.1638 19.3734 11.2402 19.514C11.3165 19.6546 11.3384 19.8183 11.3018 19.974C11.2651 20.1297 11.1724 20.2664 11.0413 20.3581C10.9102 20.4498 10.75 20.4901 10.5912 20.4712L10.5913 20.4702Z" fill="#92A5E7"/>
<path d="M18.1243 29.4716L14.2534 28.9963C14.1681 28.9863 14.0856 28.9594 14.0107 28.9173C13.9358 28.8752 13.87 28.8187 13.817 28.751C13.7641 28.6834 13.7251 28.6059 13.7022 28.5231C13.6793 28.4403 13.6731 28.3537 13.6838 28.2685L14.261 23.5678C14.2669 23.4795 14.2908 23.3933 14.3311 23.3145C14.3715 23.2357 14.4275 23.166 14.4957 23.1095C14.5639 23.0531 14.6429 23.0112 14.7279 22.9864C14.8129 22.9615 14.902 22.9543 14.9899 22.9651C15.0778 22.9759 15.1625 23.0045 15.239 23.0491C15.3154 23.0938 15.3819 23.1536 15.4345 23.2248C15.487 23.296 15.5245 23.3773 15.5446 23.4635C15.5647 23.5497 15.567 23.6391 15.5513 23.7262L15.053 27.7848L17.6336 28.1016L18.1319 24.0431C18.1378 23.9548 18.1617 23.8686 18.2021 23.7898C18.2424 23.711 18.2984 23.6412 18.3666 23.5848C18.4349 23.5284 18.5139 23.4865 18.5988 23.4617C18.6838 23.4368 18.773 23.4296 18.8608 23.4404C18.9487 23.4512 19.0334 23.4798 19.1099 23.5244C19.1863 23.5691 19.2528 23.6288 19.3054 23.7001C19.3579 23.7713 19.3954 23.8526 19.4155 23.9388C19.4356 24.025 19.4379 24.1144 19.4222 24.2015L18.8451 28.9022C18.8246 29.0732 18.7373 29.229 18.6022 29.3357C18.4672 29.4424 18.2953 29.4913 18.1243 29.4716Z" fill="#92A5E7"/>
<path d="M21.5248 33.8162L9.9011 32.389C9.73059 32.3681 9.57526 32.2806 9.46897 32.1456C9.36268 32.0107 9.31405 31.8392 9.33368 31.6685L9.49211 30.3782C9.59827 29.5222 10.0395 28.7433 10.7191 28.2122C11.3987 27.681 12.2612 27.4411 13.1174 27.5449L19.5749 28.3378C20.4307 28.4442 21.2093 28.8855 21.7403 29.565C22.2712 30.2446 22.511 31.1069 22.4072 31.963L22.2488 33.2533C22.2268 33.4236 22.1384 33.5784 22.0028 33.6839C21.8672 33.7893 21.6953 33.8369 21.5248 33.8162ZM10.7037 31.1778L21.0361 32.4465L21.1154 31.8003C21.1771 31.2872 21.033 30.7705 20.7146 30.3633C20.3961 29.9562 19.9294 29.6918 19.4165 29.6281L12.959 28.8352C12.4449 28.7723 11.927 28.9161 11.5189 29.235C11.1108 29.5538 10.8459 30.0216 10.7825 30.5356L10.7037 31.1778Z" fill="#92A5E7"/>
<path d="M16.6645 25.3575C16.5946 25.3487 16.5267 25.3288 16.4631 25.2985C16.0682 25.11 6.81733 20.5879 7.76175 12.4695L8.95156 2.77925C9.0151 2.26614 9.2794 1.79913 9.68657 1.48051C10.0937 1.16189 10.6106 1.01762 11.1239 1.07932L27.9138 3.14086C28.4275 3.20446 28.8949 3.46922 29.2135 3.87705C29.5321 4.28488 29.6759 4.80245 29.6134 5.3162L28.4241 15.0025C27.4269 23.1235 17.3038 25.2627 16.877 25.3494C16.8084 25.3634 16.738 25.3663 16.6684 25.358L16.6645 25.3575ZM10.9655 2.36963C10.7941 2.34859 10.6214 2.39649 10.4854 2.50278C10.3493 2.60908 10.2611 2.76507 10.24 2.93644L9.05069 12.6227C8.28661 19.2067 15.5328 23.3406 16.8282 24.0235C18.2553 23.6758 26.3248 21.4245 27.1329 14.8429L28.3221 5.15765C28.3431 4.98628 28.2952 4.81357 28.1889 4.67752C28.0826 4.54146 27.9267 4.45321 27.7553 4.43216L10.9655 2.36963Z" fill="#92A5E7"/>
</svg>
