<svg width="45" height="42" viewBox="0 0 45 42" fill="none" xmlns="http://www.w3.org/2000/svg">
<path d="M32.7233 41.2488C32.4006 41.2489 32.0793 41.2072 31.7673 41.1248L2.77431 33.3608C1.81848 33.0956 1.005 32.4657 0.508994 31.6066C0.012991 30.7476 -0.125868 29.7282 0.122311 28.7678L3.78031 15.1328C3.81209 15.0139 3.86698 14.9024 3.94185 14.8047C4.01671 14.707 4.11009 14.625 4.21665 14.5634C4.3232 14.5018 4.44085 14.4617 4.56287 14.4456C4.68489 14.4295 4.8089 14.4375 4.92781 14.4693C5.04672 14.5011 5.15821 14.556 5.25591 14.6308C5.35361 14.7057 5.43561 14.7991 5.49722 14.9056C5.55883 15.0122 5.59885 15.1298 5.61499 15.2518C5.63114 15.3739 5.62309 15.4979 5.59131 15.6168L1.93531 29.2478C1.81252 29.7291 1.88306 30.2393 2.13184 30.6692C2.38062 31.0991 2.78785 31.4145 3.26631 31.5478L32.2483 39.3088C32.7259 39.4356 33.2343 39.3678 33.6621 39.1204C34.0899 38.8729 34.4021 38.466 34.5303 37.9888L35.9993 32.5658C36.069 32.3315 36.2275 32.1337 36.4409 32.0145C36.6543 31.8952 36.9059 31.8641 37.1419 31.9275C37.378 31.991 37.5799 32.1441 37.7048 32.3543C37.8296 32.5645 37.8675 32.8151 37.8103 33.0528L36.3483 38.4718C36.135 39.2689 35.6644 39.9733 35.0096 40.4755C34.3548 40.9777 33.5525 41.2495 32.7273 41.2488H32.7233Z" fill="#92A5E7"/>
<path d="M41.25 30H11.25C10.2558 29.9989 9.30255 29.6035 8.59952 28.9005C7.89649 28.1974 7.50106 27.2442 7.5 26.25V3.75C7.50106 2.75576 7.89649 1.80255 8.59952 1.09952C9.30255 0.396487 10.2558 0.00105883 11.25 0H41.25C42.2442 0.00105883 43.1974 0.396487 43.9005 1.09952C44.6035 1.80255 44.9989 2.75576 45 3.75V26.25C44.9989 27.2442 44.6035 28.1974 43.9005 28.9005C43.1974 29.6035 42.2442 29.9989 41.25 30ZM11.25 1.875C10.753 1.87579 10.2765 2.07359 9.92505 2.42505C9.57359 2.77651 9.37579 3.25296 9.375 3.75V26.25C9.37579 26.747 9.57359 27.2235 9.92505 27.5749C10.2765 27.9264 10.753 28.1242 11.25 28.125H41.25C41.747 28.1242 42.2235 27.9264 42.5749 27.5749C42.9264 27.2235 43.1242 26.747 43.125 26.25V3.75C43.1242 3.25296 42.9264 2.77651 42.5749 2.42505C42.2235 2.07359 41.747 1.87579 41.25 1.875H11.25Z" fill="#92A5E7"/>
<path d="M16.873 13.125C16.1314 13.125 15.4063 12.9051 14.7897 12.493C14.173 12.081 13.6923 11.4953 13.4085 10.8101C13.1247 10.1248 13.0504 9.37084 13.1951 8.64341C13.3398 7.91598 13.697 7.2478 14.2214 6.72335C14.7458 6.1989 15.414 5.84175 16.1415 5.69706C16.8689 5.55236 17.6229 5.62662 18.3081 5.91045C18.9933 6.19428 19.579 6.67493 19.9911 7.29161C20.4031 7.9083 20.623 8.63332 20.623 9.375C20.622 10.3692 20.2266 11.3225 19.5235 12.0255C18.8205 12.7285 17.8673 13.1239 16.873 13.125ZM16.873 7.5C16.5022 7.5 16.1397 7.60997 15.8314 7.816C15.523 8.02202 15.2827 8.31486 15.1408 8.65747C14.9989 9.00008 14.9617 9.37708 15.0341 9.7408C15.1064 10.1045 15.285 10.4386 15.5472 10.7008C15.8094 10.9631 16.1435 11.1416 16.5073 11.214C16.871 11.2863 17.248 11.2492 17.5906 11.1073C17.9332 10.9654 18.226 10.725 18.4321 10.4167C18.6381 10.1084 18.748 9.74584 18.748 9.375C18.7473 8.87796 18.5495 8.40151 18.198 8.05005C17.8465 7.69859 17.3701 7.50079 16.873 7.5Z" fill="#92A5E7"/>
<path d="M8.56779 27.9932C8.38226 27.9936 8.20079 27.9389 8.04638 27.836C7.89198 27.7332 7.77159 27.5868 7.70047 27.4154C7.62936 27.244 7.61071 27.0554 7.64691 26.8735C7.68311 26.6915 7.77251 26.5244 7.90379 26.3933L16.7598 17.5383C17.2958 17.0273 18.0078 16.7423 18.7483 16.7423C19.4888 16.7423 20.2008 17.0273 20.7368 17.5383L23.3728 20.1743L30.6728 11.4183C30.9345 11.1047 31.2612 10.8517 31.6304 10.677C31.9996 10.5022 32.4024 10.4099 32.8108 10.4063H32.8318C33.2375 10.4059 33.6385 10.4934 34.0072 10.6628C34.376 10.8321 34.7036 11.0793 34.9678 11.3873L44.7738 22.8283C44.854 22.9217 44.9149 23.03 44.9533 23.147C44.9916 23.264 45.0065 23.3874 44.9971 23.5102C44.9877 23.6329 44.9542 23.7526 44.8986 23.8625C44.843 23.9723 44.7662 24.0701 44.6728 24.1503C44.5794 24.2304 44.471 24.2914 44.354 24.3297C44.237 24.368 44.1136 24.3829 43.9909 24.3735C43.8681 24.3642 43.7484 24.3307 43.6386 24.2751C43.5288 24.2194 43.431 24.1427 43.3508 24.0493L33.5438 12.6073C33.456 12.5043 33.3468 12.4218 33.2239 12.3655C33.1009 12.3092 32.9671 12.2804 32.8318 12.2813C32.6951 12.2852 32.5607 12.3172 32.4369 12.3751C32.313 12.4331 32.2024 12.5158 32.1118 12.6183L24.1598 22.1643C24.0764 22.2646 23.9728 22.3463 23.8559 22.4042C23.7389 22.4621 23.6112 22.4948 23.4808 22.5002C23.3513 22.5077 23.2216 22.4871 23.1008 22.4398C22.98 22.3925 22.8708 22.3197 22.7808 22.2263L19.4188 18.8643C19.2398 18.6944 19.0025 18.5997 18.7558 18.5997C18.5091 18.5997 18.2717 18.6944 18.0928 18.8643L9.22979 27.7203C9.14291 27.8072 9.03971 27.8762 8.92611 27.9233C8.81251 27.9703 8.69074 27.9944 8.56779 27.9943V27.9932Z" fill="#92A5E7"/>
</svg>
