<svg width="40" height="42" viewBox="0 0 40 42" fill="none" xmlns="http://www.w3.org/2000/svg">
<path d="M31.3486 21.42C30.8765 21.4196 30.4103 21.3159 29.9826 21.1162C29.5549 20.9165 29.176 20.6256 28.8726 20.264C28.3051 19.596 28.0241 18.731 28.0906 17.857H22.9496C22.7356 17.857 22.5303 17.772 22.3789 17.6206C22.2276 17.4693 22.1426 17.264 22.1426 17.05V11.606C22.1425 11.4876 22.1685 11.3707 22.2187 11.2635C22.2689 11.1563 22.3421 11.0614 22.433 10.9857C22.524 10.9099 22.6304 10.8551 22.7449 10.8251C22.8594 10.795 22.9792 10.7906 23.0956 10.812L23.1436 10.821C23.3827 10.8647 23.6286 10.8553 23.8637 10.7934C24.0988 10.7316 24.3174 10.6188 24.5042 10.4631C24.6909 10.3074 24.8411 10.1126 24.9442 9.89243C25.0472 9.67225 25.1006 9.43211 25.1006 9.189C25.1006 8.94589 25.0472 8.70575 24.9442 8.48557C24.8411 8.2654 24.6909 8.07057 24.5042 7.91487C24.3174 7.75917 24.0988 7.64641 23.8637 7.58457C23.6286 7.52273 23.3827 7.51332 23.1436 7.557L23.0956 7.566C22.9792 7.58742 22.8594 7.58296 22.7449 7.55294C22.6304 7.52293 22.524 7.46809 22.433 7.39232C22.3421 7.31656 22.2689 7.22171 22.2187 7.1145C22.1685 7.0073 22.1425 6.89037 22.1426 6.772V0.807C22.1426 0.59297 22.2276 0.387707 22.3789 0.236365C22.5303 0.085023 22.7356 0 22.9496 0L36.3416 0C37.3112 0.00132338 38.2408 0.387176 38.9264 1.07293C39.6119 1.75868 39.9975 2.68834 39.9986 3.658V17.05C39.9986 17.264 39.9135 17.4693 39.7622 17.6206C39.6109 17.772 39.4056 17.857 39.1916 17.857H34.6066C34.6463 18.3051 34.5933 18.7566 34.4509 19.1833C34.3084 19.61 34.0795 20.0028 33.7785 20.3371C33.4775 20.6714 33.1108 20.9401 32.7013 21.1265C32.2919 21.3128 31.8484 21.4127 31.3986 21.42H31.3486ZM23.7576 16.243H29.0406C29.1589 16.243 29.2759 16.2689 29.3831 16.3191C29.4903 16.3693 29.5851 16.4425 29.6609 16.5334C29.7367 16.6244 29.7915 16.7309 29.8215 16.8454C29.8515 16.9599 29.856 17.0796 29.8346 17.196L29.7246 17.796C29.6784 18.0469 29.6887 18.305 29.7545 18.5514C29.8204 18.7979 29.9403 19.0266 30.1056 19.221C30.2594 19.4071 30.4532 19.5563 30.6725 19.6574C30.8918 19.7585 31.1311 19.8089 31.3726 19.805C31.6136 19.8013 31.8509 19.745 32.0679 19.6403C32.285 19.5355 32.4766 19.3847 32.6295 19.1983C32.7823 19.0119 32.8927 18.7945 32.953 18.5612C33.0133 18.3278 33.022 18.0841 32.9786 17.847L32.8596 17.195C32.8381 17.0786 32.8426 16.9589 32.8726 16.8444C32.9026 16.7299 32.9575 16.6234 33.0332 16.5324C33.109 16.4415 33.2039 16.3683 33.3111 16.3181C33.4183 16.2679 33.5352 16.242 33.6536 16.242H38.3856V3.658C38.3848 3.11641 38.1693 2.59722 37.7863 2.21426C37.4034 1.83129 36.8842 1.61579 36.3426 1.615H23.7576V5.929C24.568 6.00684 25.3203 6.38382 25.8677 6.98639C26.4152 7.58896 26.7185 8.37388 26.7185 9.188C26.7185 10.0021 26.4152 10.787 25.8677 11.3896C25.3203 11.9922 24.568 12.3692 23.7576 12.447V16.243Z" fill="#92A5E7"/>
<path d="M33.292 28.0123C33.506 28.0123 33.7113 27.9273 33.8626 27.7759C34.014 27.6246 34.099 27.4193 34.099 27.2053V24.2823C34.099 24.0683 34.014 23.863 33.8626 23.7117C33.7113 23.5603 33.506 23.4753 33.292 23.4753H27.75C27.6316 23.4753 27.5147 23.5013 27.4075 23.5514C27.3003 23.6016 27.2054 23.6748 27.1297 23.7657C27.0539 23.8567 26.9991 23.9632 26.9691 24.0777C26.939 24.1922 26.9346 24.3119 26.956 24.4283L27.075 25.0803C27.1185 25.3175 27.1097 25.5613 27.0494 25.7947C26.9891 26.0281 26.8786 26.2456 26.7256 26.432C26.5726 26.6184 26.3809 26.7692 26.1637 26.8739C25.9465 26.9786 25.7091 27.0347 25.468 27.0383C25.2265 27.0421 24.9873 26.9917 24.768 26.8906C24.5487 26.7895 24.3549 26.6404 24.201 26.4543C24.0358 26.2599 23.9159 26.0312 23.85 25.7847C23.7841 25.5383 23.7738 25.2802 23.82 25.0293L23.93 24.4293C23.9514 24.3129 23.947 24.1932 23.9169 24.0787C23.8869 23.9642 23.8321 23.8577 23.7563 23.7667C23.6806 23.6758 23.5857 23.6026 23.4785 23.5524C23.3713 23.5023 23.2544 23.4763 23.136 23.4763H17.857V19.6813C18.6674 19.6035 19.4197 19.2265 19.9672 18.6239C20.5146 18.0214 20.818 17.2364 20.818 16.4223C20.818 15.6082 20.5146 14.8233 19.9672 14.2207C19.4197 13.6181 18.6674 13.2411 17.857 13.1633V8.0443C17.857 7.93833 17.8361 7.83338 17.7956 7.73547C17.755 7.63756 17.6956 7.54861 17.6206 7.47367C17.5457 7.39873 17.4567 7.33928 17.3588 7.29873C17.2609 7.25817 17.156 7.2373 17.05 7.2373H3.658C2.68903 7.23836 1.75997 7.62341 1.07434 8.30811C0.388699 8.9928 0.00238084 9.92133 0 10.8903V37.6743C0.00105877 38.6441 0.386794 39.5739 1.07257 40.2597C1.75835 40.9455 2.68816 41.3312 3.658 41.3323H30.442C31.4118 41.3312 32.3416 40.9455 33.0274 40.2597C33.7132 39.5739 34.0989 38.6441 34.1 37.6743V35.3313C34.1 35.1171 34.0149 34.9118 33.8635 34.7603C33.7121 34.6089 33.5067 34.5238 33.2925 34.5238C33.0783 34.5238 32.8729 34.6089 32.7215 34.7603C32.5701 34.9118 32.485 35.1171 32.485 35.3313V37.6743C32.4842 38.2159 32.2687 38.7351 31.8857 39.118C31.5028 39.501 30.9836 39.7165 30.442 39.7173H17.857V34.5103C17.857 34.392 17.831 34.2752 17.7809 34.1681C17.7308 34.061 17.6577 33.9662 17.5669 33.8904C17.4761 33.8147 17.3697 33.7598 17.2553 33.7297C17.1409 33.6996 17.0213 33.6951 16.905 33.7163L16.856 33.7253C16.6168 33.769 16.371 33.7596 16.1359 33.6977C15.9008 33.6359 15.6821 33.5231 15.4954 33.3674C15.3087 33.2117 15.1585 33.0169 15.0554 32.7967C14.9523 32.5766 14.8989 32.3364 14.8989 32.0933C14.8989 31.8502 14.9523 31.6101 15.0554 31.3899C15.1585 31.1697 15.3087 30.9749 15.4954 30.8192C15.6821 30.6635 15.9008 30.5507 16.1359 30.4889C16.371 30.427 16.6168 30.4176 16.856 30.4613L16.904 30.4703C17.0203 30.4915 17.1399 30.487 17.2543 30.4569C17.3687 30.4268 17.4751 30.3719 17.5659 30.2962C17.6567 30.2204 17.7298 30.1256 17.7799 30.0185C17.83 29.9114 17.856 29.7946 17.856 29.6763V25.0893H22.19C22.1234 25.9633 22.4044 26.8283 22.972 27.4963C23.4209 28.0239 24.0261 28.3949 24.6999 28.5557C25.3737 28.7164 26.0812 28.6586 26.7199 28.3905C27.3587 28.1224 27.8955 27.658 28.2528 27.0645C28.61 26.471 28.7691 25.7792 28.707 25.0893H32.485V27.2053C32.485 27.3113 32.5059 27.4162 32.5464 27.5141C32.587 27.612 32.6464 27.701 32.7214 27.7759C32.7963 27.8509 32.8853 27.9103 32.9832 27.9509C33.0811 27.9914 33.186 28.0123 33.292 28.0123ZM1.615 10.8903C1.615 10.3482 1.83015 9.82823 2.2132 9.44462C2.59625 9.061 3.11589 8.84509 3.658 8.8443H16.243V14.0013C16.243 14.1196 16.269 14.2364 16.3191 14.3435C16.3692 14.4506 16.4423 14.5454 16.5331 14.6212C16.6239 14.6969 16.7303 14.7518 16.8447 14.7819C16.9591 14.812 17.0787 14.8166 17.195 14.7953L17.243 14.7863C17.4822 14.7426 17.728 14.752 17.9631 14.8139C18.1982 14.8757 18.4169 14.9885 18.6036 15.1442C18.7903 15.2999 18.9405 15.4947 19.0436 15.7149C19.1467 15.9351 19.2001 16.1752 19.2001 16.4183C19.2001 16.6614 19.1467 16.9016 19.0436 17.1217C18.9405 17.3419 18.7903 17.5367 18.6036 17.6924C18.4169 17.8481 18.1982 17.9609 17.9631 18.0227C17.728 18.0846 17.4822 18.094 17.243 18.0503L17.194 18.0413C17.0776 18.0199 16.9579 18.0243 16.8434 18.0544C16.7289 18.0844 16.6224 18.1392 16.5314 18.215C16.4405 18.2908 16.3673 18.3856 16.3171 18.4928C16.2669 18.6 16.241 18.7169 16.241 18.8353V23.4723H12.779C12.5793 22.7929 12.1651 22.1964 11.5981 21.7722C11.0312 21.3479 10.3421 21.1186 9.634 21.1186C8.92588 21.1186 8.2368 21.3479 7.66988 21.7722C7.10295 22.1964 6.68866 22.7929 6.489 23.4723H1.615V10.8903ZM14.462 29.5783C13.9658 29.9918 13.6029 30.5429 13.4192 31.1622C13.2354 31.7814 13.239 32.4412 13.4294 33.0585C13.6198 33.6758 13.9885 34.2229 14.4892 34.6311C14.9898 35.0392 15.6 35.2902 16.243 35.3523V39.7173H3.658C3.11641 39.7165 2.59722 39.501 2.21426 39.118C1.83129 38.7351 1.61579 38.2159 1.615 37.6743V25.0893H7.17C7.3781 25.0895 7.57823 25.0093 7.72861 24.8654C7.87898 24.7216 7.96797 24.5252 7.977 24.3173C7.99791 23.8917 8.18172 23.4904 8.49037 23.1965C8.79901 22.9027 9.20884 22.7388 9.635 22.7388C10.0612 22.7388 10.471 22.9027 10.7796 23.1965C11.0883 23.4904 11.2721 23.8917 11.293 24.3173C11.302 24.5252 11.391 24.7216 11.5414 24.8654C11.6918 25.0093 11.8919 25.0895 12.1 25.0893H16.244V28.8343C15.5882 28.8968 14.9667 29.1561 14.461 29.5783H14.462Z" fill="#92A5E7"/>
<path d="M33.2927 32.0329C33.1264 32.0328 32.9641 31.9813 32.8282 31.8854C32.6922 31.7895 32.5892 31.6539 32.5333 31.4972C32.4774 31.3406 32.4712 31.1704 32.5157 31.0101C32.5602 30.8498 32.6532 30.7072 32.7818 30.6017C32.9105 30.4963 33.0686 30.4332 33.2346 30.4211C33.4005 30.409 33.5661 30.4484 33.7087 30.534C33.8513 30.6197 33.964 30.7473 34.0313 30.8994C34.0987 31.0516 34.1173 31.2208 34.0847 31.3839C34.0471 31.5665 33.9479 31.7306 33.8037 31.8488C33.6595 31.9669 33.4791 32.032 33.2927 32.0329Z" fill="#92A5E7"/>
</svg>
