<svg width="36" height="36" viewBox="0 0 36 36" fill="none" xmlns="http://www.w3.org/2000/svg">
<path d="M17.6613 19.0545C17.7733 19.0545 17.8863 19.0615 18.0003 19.0615C18.1143 19.0615 18.2103 19.0615 18.3153 19.0555C20.6925 19.1051 23.0218 19.7336 25.1013 20.8865C25.2537 20.9713 25.4213 21.0253 25.5946 21.0454C25.7678 21.0654 25.9433 21.0512 26.1111 21.0034C26.2788 20.9556 26.4355 20.8753 26.5722 20.7669C26.7089 20.6586 26.823 20.5244 26.9078 20.372C26.9926 20.2196 27.0466 20.052 27.0667 19.8787C27.0867 19.7055 27.0725 19.5299 27.0247 19.3622C26.9769 19.1944 26.8966 19.0377 26.7882 18.901C26.6799 18.7643 26.5457 18.6503 26.3933 18.5655C25.4423 18.0368 24.4431 17.5998 23.4093 17.2605C24.9291 16.1253 26.0528 14.5403 26.6211 12.7305C27.1893 10.9207 27.1732 8.97783 26.5751 7.17764C25.977 5.37745 24.8272 3.81131 23.2889 2.70139C21.7505 1.59147 19.9017 0.994141 18.0048 0.994141C16.1078 0.994141 14.259 1.59147 12.7207 2.70139C11.1824 3.81131 10.0326 5.37745 9.43445 7.17764C8.83634 8.97783 8.82027 10.9207 9.38852 12.7305C9.95678 14.5403 11.0805 16.1253 12.6003 17.2605C9.7201 18.2069 7.13977 19.8947 5.11864 22.1544C3.09751 24.4141 1.7068 27.166 1.08629 30.1335C0.962885 30.7206 0.971946 31.3278 1.11281 31.911C1.25368 32.4941 1.52281 33.0385 1.9006 33.5045C2.2784 33.9705 2.75536 34.3464 3.29676 34.6049C3.83816 34.8633 4.43037 34.9978 5.03029 34.9985H15.4103C15.7625 34.9985 16.1003 34.8586 16.3493 34.6095C16.5984 34.3605 16.7383 34.0227 16.7383 33.6705C16.7383 33.3183 16.5984 32.9805 16.3493 32.7315C16.1003 32.4824 15.7625 32.3425 15.4103 32.3425H5.03029C4.82648 32.344 4.62496 32.2994 4.44086 32.2119C4.25676 32.1245 4.09486 31.9965 3.96729 31.8375C3.83668 31.6769 3.74366 31.4891 3.69504 31.2878C3.64642 31.0866 3.64343 30.877 3.68629 30.6745C4.37143 27.4492 6.1229 24.5486 8.65825 22.4405C11.1936 20.3324 14.3651 19.1396 17.6613 19.0545ZM11.6253 10.0305C11.6255 8.78313 11.9915 7.56322 12.6782 6.52188C13.3649 5.48054 14.342 4.66353 15.4884 4.17205C16.6349 3.68057 17.9003 3.53621 19.128 3.75687C20.3557 3.97753 21.4917 4.5535 22.3953 5.41344C23.2988 6.27338 23.9302 7.3795 24.2113 8.59478C24.4924 9.81006 24.4108 11.0811 23.9766 12.2504C23.5424 13.4198 22.7747 14.4361 21.7686 15.1734C20.7624 15.9107 19.5621 16.3367 18.3163 16.3985C18.211 16.3985 18.1056 16.3985 18.0003 16.3985C17.9003 16.3985 17.7933 16.3985 17.6893 16.3985C16.0551 16.3167 14.5147 15.6105 13.3862 14.4256C12.2577 13.2407 11.6273 11.6678 11.6253 10.0315V10.0305ZM35.0013 25.6905C35.0029 26.1271 34.9174 26.5597 34.7498 26.9628C34.5823 27.366 34.3359 27.7317 34.0253 28.0385L31.5543 30.4985C31.431 30.6232 31.2843 30.7223 31.1225 30.79C30.9608 30.8577 30.7872 30.8927 30.6119 30.893C30.4365 30.8933 30.2628 30.8589 30.1009 30.7917C29.9389 30.7245 29.7918 30.6259 29.6682 30.5016C29.5445 30.3772 29.4467 30.2296 29.3804 30.0673C29.3141 29.905 29.2805 29.7311 29.2818 29.5558C29.283 29.3804 29.3189 29.2071 29.3875 29.0457C29.4561 28.8843 29.5559 28.7381 29.6813 28.6155L31.3373 26.9685H23.8103C23.1057 26.9772 22.4327 27.2622 21.9361 27.762C21.4394 28.2619 21.1589 28.9367 21.1547 29.6413C21.1505 30.3459 21.423 31.024 21.9137 31.5297C22.4043 32.0354 23.0739 32.3284 23.7783 32.3455C24.1305 32.3455 24.4683 32.4854 24.7173 32.7345C24.9664 32.9835 25.1063 33.3213 25.1063 33.6735C25.1063 34.0257 24.9664 34.3635 24.7173 34.6125C24.4683 34.8616 24.1305 35.0015 23.7783 35.0015C23.0771 35.004 22.3824 34.8664 21.7352 34.5966C21.0879 34.3268 20.5011 33.9303 20.0093 33.4305C19.0149 32.4267 18.4596 31.0694 18.4653 29.6565C18.4653 26.7095 23.8103 24.3115 23.8103 24.3115H31.2103L29.6833 22.7985C29.4328 22.5508 29.291 22.2137 29.289 21.8614C29.287 21.5091 29.4251 21.1705 29.6728 20.92C29.9205 20.6695 30.2576 20.5277 30.6099 20.5257C30.9622 20.5237 31.3008 20.6618 31.5513 20.9095L34.0173 23.3485C34.3287 23.6539 34.576 24.0183 34.745 24.4205C34.9139 24.8226 35.0011 25.2543 35.0013 25.6905Z" fill="#92A5E7" stroke="white"/>
</svg>
