<svg width="47" height="47" viewBox="0 0 47 47" fill="none" xmlns="http://www.w3.org/2000/svg">
<path d="M40.7268 35.4529C39.7849 35.4519 38.8601 35.7048 38.0498 36.1849L32.1408 30.2759C33.657 28.3473 34.4826 25.966 34.4857 23.5128C34.4888 21.0596 33.6691 18.6763 32.1578 16.7439L38.0738 10.8279C39.1832 11.4744 40.4903 11.694 41.7501 11.4456C43.0098 11.1972 44.1358 10.4979 44.9167 9.47865C45.6977 8.45944 46.0801 7.19037 45.9923 5.90935C45.9044 4.62834 45.3524 3.42335 44.4396 2.52029C43.5268 1.61724 42.3159 1.07813 41.034 1.00404C39.7521 0.929946 38.4872 1.32596 37.4765 2.11784C36.4657 2.90971 35.7785 4.04307 35.5436 5.30544C35.3088 6.5678 35.5424 7.87248 36.2008 8.97488L30.3008 14.8749C28.3686 13.3481 25.9788 12.5161 23.5162 12.5131C21.0537 12.51 18.6617 13.3359 16.7258 14.8579L10.8148 8.94988C11.4678 7.84314 11.6947 6.53622 11.4529 5.27414C11.2112 4.01206 10.5174 2.88149 9.5016 2.09441C8.48583 1.30733 7.21785 0.917775 5.93538 0.998789C4.65291 1.0798 3.44403 1.62582 2.53538 2.53447C1.62673 3.44312 1.08071 4.652 0.999694 5.93447C0.918679 7.21694 1.30823 8.48493 2.09531 9.5007C2.8824 10.5165 4.01296 11.2103 5.27504 11.452C6.53712 11.6938 7.84405 11.4669 8.95079 10.8139L14.8598 16.7229C13.3406 18.6552 12.5147 21.0419 12.5147 23.4999C12.5147 25.9579 13.3406 28.3446 14.8598 30.2769L8.95079 36.1849C7.8442 35.5317 6.53736 35.3045 5.27526 35.546C4.01316 35.7875 2.88247 36.481 2.09517 37.4966C1.30786 38.5121 0.918015 39.78 0.998706 41.0624C1.0794 42.3449 1.62509 43.5539 2.53347 44.4628C3.44185 45.3716 4.65056 45.918 5.93297 45.9993C7.21538 46.0807 8.48345 45.6916 9.49943 44.9048C10.5154 44.118 11.2096 42.9877 11.4517 41.7258C11.6939 40.4638 11.4674 39.1568 10.8148 38.0499L16.7238 32.1409C18.6561 33.6601 21.0428 34.4859 23.5008 34.4859C25.9588 34.4859 28.3455 33.6601 30.2778 32.1409L36.1868 38.0499C35.5976 39.052 35.3562 40.2208 35.5 41.3743C35.6439 42.5279 36.165 43.6015 36.9823 44.4282C37.7995 45.255 38.8671 45.7884 40.0189 45.9455C41.1708 46.1026 42.3422 45.8746 43.351 45.297C44.3599 44.7194 45.1495 43.8245 45.5971 42.7517C46.0447 41.6788 46.1251 40.4881 45.8258 39.3648C45.5266 38.2414 44.8644 37.2485 43.9424 36.5405C43.0204 35.8325 41.8903 35.4491 40.7278 35.4499L40.7268 35.4529ZM40.7268 3.63688C41.2484 3.63668 41.7584 3.7912 42.1922 4.08088C42.626 4.37056 42.9642 4.78239 43.1639 5.26428C43.3636 5.74617 43.4159 6.27647 43.3142 6.78809C43.2124 7.29971 42.9613 7.76967 42.5924 8.13852C42.2236 8.50737 41.7536 8.75854 41.242 8.86026C40.7304 8.96198 40.2001 8.90967 39.7182 8.70996C39.2363 8.51025 38.8245 8.1721 38.5348 7.7383C38.2451 7.30449 38.0906 6.79452 38.0908 6.27288C38.0918 5.5741 38.3699 4.90423 38.864 4.41012C39.3581 3.916 40.028 3.63794 40.7268 3.63688ZM6.27379 8.90988C5.75224 8.90988 5.2424 8.75522 4.80875 8.46547C4.3751 8.17571 4.03711 7.76387 3.83752 7.28202C3.63793 6.80017 3.58571 6.26996 3.68746 5.75843C3.78921 5.2469 4.04036 4.77703 4.40915 4.40824C4.77794 4.03945 5.24781 3.7883 5.75933 3.68655C6.27086 3.5848 6.80107 3.63702 7.28292 3.83661C7.76477 4.0362 8.17662 4.37419 8.46637 4.80784C8.75613 5.2415 8.91079 5.75133 8.91079 6.27288C8.90999 6.97201 8.63191 7.64228 8.13755 8.13665C7.64319 8.63101 6.97292 8.90909 6.27379 8.90988ZM6.27379 43.3629C5.75224 43.3629 5.2424 43.2082 4.80875 42.9185C4.3751 42.6287 4.03711 42.2169 3.83752 41.735C3.63793 41.2532 3.58571 40.723 3.68746 40.2114C3.78921 39.6999 4.04036 39.23 4.40915 38.8612C4.77794 38.4925 5.24781 38.2413 5.75933 38.1395C6.27086 38.0378 6.80107 38.09 7.28292 38.2896C7.76477 38.4892 8.17662 38.8272 8.46637 39.2608C8.75613 39.6945 8.91079 40.2043 8.91079 40.7259C8.90999 41.425 8.63191 42.0953 8.13755 42.5896C7.64319 43.084 6.97292 43.3621 6.27379 43.3629ZM26.5738 31.2629C24.5979 32.046 22.3977 32.046 20.4218 31.2629V30.5319C20.4218 29.9484 20.6536 29.3888 21.0662 28.9762C21.4787 28.5637 22.0383 28.3319 22.6218 28.3319H24.3798C24.9633 28.3319 25.5228 28.5637 25.9354 28.9762C26.348 29.3888 26.5798 29.9484 26.5798 30.5319L26.5738 31.2629ZM21.3008 23.4999C21.3008 23.0648 21.4298 22.6394 21.6716 22.2776C21.9133 21.9158 22.2569 21.6339 22.6589 21.4673C23.0609 21.3008 23.5032 21.2573 23.93 21.3422C24.3567 21.427 24.7487 21.6366 25.0564 21.9442C25.3641 22.2519 25.5736 22.6439 25.6585 23.0707C25.7434 23.4974 25.6998 23.9398 25.5333 24.3418C25.3668 24.7438 25.0848 25.0874 24.723 25.3291C24.3613 25.5709 23.9359 25.6999 23.5008 25.6999C22.9173 25.6999 22.3577 25.4681 21.9452 25.0555C21.5326 24.6429 21.3008 24.0834 21.3008 23.4999ZM29.1308 29.6579C28.9035 28.4299 28.2106 27.3372 27.1968 26.6079C27.7892 25.9033 28.1681 25.0441 28.289 24.1315C28.4098 23.2189 28.2675 22.2907 27.8789 21.4562C27.4902 20.6217 26.8714 19.9155 26.0951 19.4207C25.3188 18.9259 24.4174 18.663 23.4968 18.663C22.5762 18.663 21.6748 18.9259 20.8985 19.4207C20.1222 19.9155 19.5033 20.6217 19.1147 21.4562C18.726 22.2907 18.5838 23.2189 18.7046 24.1315C18.8254 25.0441 19.2044 25.9033 19.7968 26.6079C18.7829 27.3371 18.09 28.4298 17.8628 29.6579C16.62 28.5223 15.7494 27.0375 15.3654 25.3984C14.9814 23.7592 15.1018 22.0423 15.7109 20.4728C16.32 18.9033 17.3892 17.5546 18.7784 16.6036C20.1676 15.6526 21.8118 15.1437 23.4953 15.1437C25.1788 15.1437 26.823 15.6526 28.2122 16.6036C29.6014 17.5546 30.6706 18.9033 31.2797 20.4728C31.8888 22.0423 32.0092 23.7592 31.6252 25.3984C31.2411 27.0375 30.3706 28.5223 29.1278 29.6579H29.1308ZM40.7268 43.3629C40.2052 43.3629 39.6954 43.2082 39.2617 42.9185C38.8281 42.6287 38.4901 42.2169 38.2905 41.735C38.0909 41.2532 38.0387 40.723 38.1405 40.2114C38.2422 39.6999 38.4934 39.23 38.8621 38.8612C39.2309 38.4925 39.7008 38.2413 40.2123 38.1395C40.7239 38.0378 41.2541 38.09 41.7359 38.2896C42.2178 38.4892 42.6296 38.8272 42.9194 39.2608C43.2091 39.6945 43.3638 40.2043 43.3638 40.7259C43.363 41.425 43.0849 42.0953 42.5905 42.5896C42.0962 43.084 41.4259 43.3621 40.7268 43.3629Z" fill="#92A5E7" stroke="white"/>
</svg>
