<svg width="36" height="43" viewBox="0 0 36 43" fill="none" xmlns="http://www.w3.org/2000/svg">
<path d="M17.8447 20.7504C19.144 20.7683 20.4334 20.521 21.6338 20.0236C22.8343 19.5262 23.9208 18.7891 24.8267 17.8574C25.7583 16.9515 26.4953 15.8651 26.9927 14.6646C27.4901 13.4641 27.7375 12.1748 27.7197 10.8754C27.7375 9.57611 27.4901 8.28678 26.9927 7.08629C26.4953 5.88581 25.7583 4.79938 24.8267 3.89345C23.9098 2.97643 22.8214 2.24901 21.6234 1.75271C20.4254 1.25642 19.1414 1.00098 17.8447 1.00098C16.5479 1.00098 15.2639 1.25642 14.0659 1.75271C12.868 2.24901 11.7795 2.97643 10.8627 3.89345C9.93102 4.79935 9.19394 5.88576 8.69652 7.08626C8.19909 8.28676 7.95176 9.5761 7.96966 10.8754C7.95182 12.1748 8.19917 13.4641 8.69659 14.6646C9.19402 15.8651 9.93106 16.9515 10.8627 17.8574C11.7687 18.789 12.8551 19.5259 14.0556 20.0233C15.256 20.5208 16.5453 20.7682 17.8447 20.7504ZM12.5617 5.59245C13.2553 4.89852 14.0789 4.34805 14.9854 3.97249C15.8919 3.59692 16.8635 3.40362 17.8447 3.40362C18.8258 3.40362 19.7974 3.59692 20.7039 3.97249C21.6104 4.34805 22.434 4.89852 23.1277 5.59245C23.837 6.27461 24.3975 7.09605 24.7742 8.00519C25.1509 8.91433 25.3356 9.89154 25.3167 10.8754C25.3356 11.8594 25.1509 12.8366 24.7742 13.7457C24.3975 14.6548 23.837 15.4763 23.1277 16.1584C22.434 16.8525 21.6105 17.4031 20.704 17.7787C19.7975 18.1543 18.8259 18.3477 17.8447 18.3477C16.8634 18.3477 15.8918 18.1543 14.9853 17.7787C14.0789 17.4031 13.2553 16.8525 12.5617 16.1584C11.8521 15.4764 11.2913 14.655 10.9145 13.7459C10.5376 12.8367 10.3528 11.8594 10.3717 10.8754C10.3528 9.89145 10.5376 8.91419 10.9145 8.00503C11.2913 7.09588 11.8521 6.27449 12.5617 5.59245Z" fill="#92A5E7" stroke="white"/>
<path d="M35.1236 32.5279C35.0593 31.6589 34.9485 30.794 34.7916 29.9369C34.6364 29.0572 34.4236 28.1887 34.1546 27.3369C33.8823 26.4925 33.5234 25.6785 33.0836 24.9079C32.6502 24.1334 32.1066 23.426 31.4696 22.8079C30.7982 22.1767 30.0106 21.6819 29.1506 21.3509C28.2063 20.9869 27.2016 20.805 26.1896 20.8149C25.6009 20.8793 25.0442 21.1162 24.5896 21.4959C24.1086 21.8099 23.5456 22.1729 22.9176 22.5739C22.2387 22.9796 21.5122 23.2997 20.7546 23.5269C19.0367 24.097 17.1806 24.097 15.4626 23.5269C14.7053 23.2999 13.9791 22.9798 13.3006 22.5739C12.6786 22.1739 12.1156 21.8139 11.6276 21.4949C11.1732 21.1149 10.6165 20.8779 10.0276 20.8139C9.01563 20.8038 8.01088 20.9857 7.06663 21.3499C6.20619 21.6806 5.41825 22.1755 4.74663 22.8069C4.10974 23.425 3.56606 24.1324 3.13263 24.9069C2.69293 25.6778 2.33402 26.4922 2.06163 27.3369C1.79277 28.1887 1.57998 29.0572 1.42463 29.9369C1.26741 30.7943 1.15659 31.6595 1.09263 32.5289C1.03863 33.3119 1.01063 34.1289 1.01063 34.9499C0.96827 35.9022 1.12636 36.8527 1.47468 37.7401C1.82299 38.6274 2.35377 39.4317 3.03263 40.1009C4.4505 41.397 6.32327 42.0799 8.24263 42.0009H27.9746C29.894 42.0798 31.7667 41.3969 33.1846 40.1009C33.8637 39.4318 34.3945 38.6275 34.7429 37.7402C35.0912 36.8528 35.2492 35.9022 35.2066 34.9499C35.2066 34.1239 35.1786 33.3089 35.1236 32.5279ZM31.5236 38.3599C31.0421 38.7903 30.4802 39.1212 29.8702 39.3337C29.2603 39.5462 28.6144 39.6359 27.9696 39.5979H8.23263C7.58788 39.6359 6.94197 39.5462 6.33204 39.3337C5.72211 39.1212 5.1602 38.7903 4.67863 38.3599C4.23734 37.9137 3.89549 37.3792 3.67557 36.7915C3.45564 36.2038 3.36262 35.5761 3.40263 34.9499C3.40263 34.1819 3.42763 33.4229 3.47863 32.6949C3.53667 31.9124 3.63682 31.1336 3.77863 30.3619C3.91476 29.5838 4.10183 28.8155 4.33863 28.0619C4.56035 27.3754 4.85222 26.7135 5.20963 26.0869C5.52961 25.5148 5.93078 24.992 6.40063 24.5349C6.84804 24.1184 7.37207 23.7927 7.94363 23.5759C8.54807 23.3444 9.18846 23.2209 9.83563 23.2109C9.91963 23.2559 10.0696 23.3409 10.3126 23.4989C10.8066 23.8209 11.3756 24.1879 12.0056 24.5899C12.8564 25.1061 13.7685 25.5136 14.7206 25.8029C16.919 26.5285 19.2923 26.5285 21.4906 25.8029C22.441 25.5128 23.3514 25.105 24.2006 24.5889C24.8446 24.1769 25.4006 23.8209 25.8916 23.4989C26.1346 23.3409 26.2846 23.2549 26.3686 23.2109C27.0161 23.2208 27.6569 23.3444 28.2616 23.5759C28.8331 23.7928 29.3571 24.1185 29.8046 24.5349C30.2731 24.9931 30.6726 25.5169 30.9906 26.0899C31.3486 26.7164 31.6409 27.3782 31.8626 28.0649C32.0999 28.8184 32.2873 29.5867 32.4236 30.3649C32.5651 31.137 32.6653 31.9161 32.7236 32.6989C32.7746 33.4239 32.8006 34.1829 32.8006 34.9529C32.8407 35.5791 32.7477 36.2068 32.5278 36.7945C32.3079 37.3822 31.966 37.9168 31.5246 38.3629L31.5236 38.3599Z" fill="#92A5E7" stroke="white"/>
</svg>
