<svg width="49" height="43" viewBox="0 0 49 43" fill="none" xmlns="http://www.w3.org/2000/svg">
<path d="M46.432 9.13805H34.091V6.42604C34.0894 4.96492 33.5083 3.5641 32.4751 2.53093C31.4419 1.49776 30.0411 0.916627 28.58 0.915039H20.426C18.9649 0.916627 17.564 1.49776 16.5309 2.53093C15.4977 3.5641 14.9166 4.96492 14.915 6.42604V9.13805H2.57398C2.21214 9.13805 1.8651 9.28172 1.60914 9.53749C1.35318 9.79326 1.20925 10.1402 1.20898 10.502V35.302C1.2111 37.0842 1.91999 38.7927 3.18015 40.0529C4.44031 41.313 6.14885 42.0219 7.93098 42.024H41.074C42.8561 42.0219 44.5647 41.313 45.8248 40.0529C47.085 38.7927 47.7939 37.0842 47.796 35.302V10.502C47.7957 10.1404 47.6519 9.79358 47.3962 9.53784C47.1404 9.2821 46.7937 9.13831 46.432 9.13805ZM27.6 26.95C27.5649 27.7478 27.2232 28.5013 26.6463 29.0534C26.0693 29.6055 25.3015 29.9137 24.503 29.9137C23.7044 29.9137 22.9367 29.6055 22.3597 29.0534C21.7827 28.5013 21.4411 27.7478 21.406 26.95V23.85H27.6V26.95ZM28.965 21.123H20.041C19.679 21.123 19.3318 21.2669 19.0758 21.5228C18.8198 21.7788 18.676 22.126 18.676 22.488V24.967C10.739 23.244 4.78898 18.096 4.02398 11.867H44.981C44.215 18.096 38.266 23.244 30.329 24.967V22.488C30.329 22.126 30.1852 21.7788 29.9292 21.5228C29.6732 21.2669 29.326 21.123 28.964 21.123H28.965ZM17.645 6.42304C17.646 5.6858 17.9394 4.97906 18.4607 4.45775C18.982 3.93644 19.6887 3.6431 20.426 3.64204H28.58C29.3173 3.64284 30.0242 3.93609 30.5456 4.45746C31.0669 4.97883 31.3602 5.68572 31.361 6.42304V9.13504H17.644V6.42304H17.645ZM45.067 35.295C45.0649 36.3531 44.6436 37.3673 43.8954 38.1155C43.1472 38.8637 42.1331 39.2849 41.075 39.287H7.93098C6.87289 39.2849 5.85874 38.8637 5.11055 38.1155C4.36236 37.3673 3.9411 36.3531 3.93898 35.295V18.906C5.11434 20.5608 6.54518 22.0183 8.17798 23.224C11.3091 25.5155 14.9183 27.0686 18.735 27.767C18.9325 29.1562 19.6246 30.4273 20.6843 31.347C21.7439 32.2667 23.0999 32.773 24.503 32.773C25.9061 32.773 27.262 32.2667 28.3217 31.347C29.3813 30.4273 30.0735 29.1562 30.271 27.767C34.0877 27.0686 37.6968 25.5155 40.828 23.224C42.4608 22.0183 43.8916 20.5608 45.067 18.906V35.295Z" fill="#92A5E7" stroke="white" stroke-width="0.5"/>
</svg>
