<svg width="1920" height="391" viewBox="0 0 1920 391" fill="none" xmlns="http://www.w3.org/2000/svg">
<path d="M-1580.7 297H-1643V129.422C-1643 111.323 -1642.22 91.3359 -1640.66 69.4609H-1642.22C-1645.47 86.6484 -1648.4 99.0182 -1651.01 106.57L-1716.63 297H-1768.2L-1834.99 108.523C-1836.82 103.445 -1839.74 90.4245 -1843.78 69.4609H-1845.54C-1843.85 97.0651 -1843 121.284 -1843 142.117V297H-1899.84V16.9219H-1807.45L-1750.23 182.938C-1745.67 196.219 -1742.35 209.565 -1740.27 222.977H-1739.09C-1735.58 207.482 -1731.87 194.005 -1727.96 182.547L-1670.73 16.9219H-1580.7V297ZM-1356.67 297H-1415.07V268.289H-1415.85C-1429.26 290.685 -1449.12 301.883 -1475.42 301.883C-1494.82 301.883 -1510.12 296.414 -1521.32 285.477C-1532.39 274.409 -1537.92 259.695 -1537.92 241.336C-1537.92 202.534 -1514.94 180.138 -1468.98 174.148L-1414.68 166.922C-1414.68 145.047 -1426.53 134.109 -1450.23 134.109C-1474.05 134.109 -1496.71 141.206 -1518.2 155.398V108.914C-1509.6 104.487 -1497.88 100.581 -1483.04 97.1953C-1468.07 93.8099 -1454.46 92.1172 -1442.22 92.1172C-1385.19 92.1172 -1356.67 120.568 -1356.67 177.469V297ZM-1414.68 215.75V202.273L-1451.01 206.961C-1471.06 209.565 -1481.09 218.615 -1481.09 234.109C-1481.09 241.141 -1478.68 246.935 -1473.86 251.492C-1468.91 255.919 -1462.27 258.133 -1453.94 258.133C-1442.35 258.133 -1432.91 254.161 -1425.62 246.219C-1418.33 238.146 -1414.68 227.99 -1414.68 215.75ZM-1107.45 297H-1181.48L-1245.34 197.781H-1246.12V297H-1307.84V0.90625H-1246.12V189.383H-1245.34L-1185.77 97H-1112.53L-1184.21 190.945L-1107.45 297ZM-910.188 214.578H-1040.66C-1038.57 243.615 -1020.28 258.133 -985.773 258.133C-963.768 258.133 -944.432 252.924 -927.766 242.508V287.039C-946.255 296.935 -970.279 301.883 -999.836 301.883C-1032.13 301.883 -1057.19 292.964 -1075.03 275.125C-1092.87 257.156 -1101.79 232.156 -1101.79 200.125C-1101.79 166.922 -1092.15 140.62 -1072.88 121.219C-1053.61 101.818 -1029.91 92.1172 -1001.79 92.1172C-972.622 92.1172 -950.096 100.776 -934.211 118.094C-918.195 135.411 -910.188 158.914 -910.188 188.602V214.578ZM-967.414 176.688C-967.414 148.042 -979.003 133.719 -1002.18 133.719C-1012.08 133.719 -1020.67 137.82 -1027.96 146.023C-1035.12 154.227 -1039.48 164.448 -1041.05 176.688H-967.414ZM-572.492 97L-653.742 313.016C-673.273 364.969 -702.701 390.945 -742.023 390.945C-756.997 390.945 -769.302 389.253 -778.938 385.867V336.648C-770.734 341.466 -761.815 343.875 -752.18 343.875C-736.294 343.875 -725.227 336.388 -718.977 321.414L-708.43 296.609L-789.68 97H-721.32L-684.016 218.68C-681.672 226.232 -679.849 235.151 -678.547 245.438H-677.766C-676.594 237.885 -674.445 229.096 -671.32 219.07L-633.625 97H-572.492ZM-456.281 301.883C-489.615 301.883 -515.852 292.573 -534.992 273.953C-554.003 255.203 -563.508 229.812 -563.508 197.781C-563.508 164.708 -553.612 138.862 -533.82 120.242C-514.029 101.492 -487.271 92.1172 -453.547 92.1172C-420.344 92.1172 -394.302 101.492 -375.422 120.242C-356.542 138.862 -347.102 163.536 -347.102 194.266C-347.102 227.469 -356.867 253.706 -376.398 272.977C-395.799 292.247 -422.427 301.883 -456.281 301.883ZM-454.719 139.383C-469.302 139.383 -480.63 144.396 -488.703 154.422C-496.776 164.448 -500.812 178.641 -500.812 197C-500.812 235.411 -485.318 254.617 -454.328 254.617C-424.771 254.617 -409.992 234.891 -409.992 195.438C-409.992 158.068 -424.901 139.383 -454.719 139.383ZM-117.023 297H-178.547V266.531H-179.523C-194.758 290.099 -215.135 301.883 -240.656 301.883C-287.01 301.883 -310.188 273.823 -310.188 217.703V97H-248.664V212.234C-248.664 240.49 -237.466 254.617 -215.07 254.617C-204.003 254.617 -195.148 250.776 -188.508 243.094C-181.867 235.281 -178.547 224.734 -178.547 211.453V97H-117.023V297ZM65.5938 152.664C58.1719 148.628 49.513 146.609 39.6172 146.609C26.2057 146.609 15.724 151.557 8.17188 161.453C0.619792 171.219 -3.15625 184.565 -3.15625 201.492V297H-64.875V97H-3.15625V134.109H-2.375C7.39062 107.026 24.9688 93.4844 50.3594 93.4844C56.8698 93.4844 61.9479 94.2656 65.5938 95.8281V152.664ZM335.516 152.664C328.094 148.628 319.435 146.609 309.539 146.609C296.128 146.609 285.646 151.557 278.094 161.453C270.542 171.219 266.766 184.565 266.766 201.492V297H205.047V97H266.766V134.109H267.547C277.312 107.026 294.891 93.4844 320.281 93.4844C326.792 93.4844 331.87 94.2656 335.516 95.8281V152.664ZM542.547 214.578H412.078C414.161 243.615 432.456 258.133 466.961 258.133C488.966 258.133 508.302 252.924 524.969 242.508V287.039C506.479 296.935 482.456 301.883 452.898 301.883C420.607 301.883 395.542 292.964 377.703 275.125C359.865 257.156 350.945 232.156 350.945 200.125C350.945 166.922 360.581 140.62 379.852 121.219C399.122 101.818 422.82 92.1172 450.945 92.1172C480.112 92.1172 502.638 100.776 518.523 118.094C534.539 135.411 542.547 158.914 542.547 188.602V214.578ZM485.32 176.688C485.32 148.042 473.732 133.719 450.555 133.719C440.659 133.719 432.065 137.82 424.773 146.023C417.612 154.227 413.25 164.448 411.688 176.688H485.32ZM566.18 291.727V241.727C576.336 247.846 586.427 252.404 596.453 255.398C606.609 258.393 616.18 259.891 625.164 259.891C636.102 259.891 644.695 258.393 650.945 255.398C657.326 252.404 660.516 247.846 660.516 241.727C660.516 237.82 659.083 234.565 656.219 231.961C653.354 229.357 649.643 227.078 645.086 225.125C640.659 223.172 635.776 221.414 630.438 219.852C625.099 218.289 619.956 216.531 615.008 214.578C607.065 211.583 600.034 208.393 593.914 205.008C587.924 201.492 582.846 197.456 578.68 192.898C574.643 188.341 571.518 183.068 569.305 177.078C567.221 171.089 566.18 163.992 566.18 155.789C566.18 144.591 568.589 134.956 573.406 126.883C578.354 118.81 584.865 112.234 592.938 107.156C601.141 101.948 610.451 98.1719 620.867 95.8281C631.414 93.3542 642.352 92.1172 653.68 92.1172C662.534 92.1172 671.518 92.8333 680.633 94.2656C689.747 95.5677 698.732 97.5208 707.586 100.125V147.781C699.773 143.224 691.375 139.839 682.391 137.625C673.536 135.281 664.812 134.109 656.219 134.109C652.182 134.109 648.341 134.5 644.695 135.281C641.18 135.932 638.055 136.974 635.32 138.406C632.586 139.708 630.438 141.466 628.875 143.68C627.312 145.763 626.531 148.172 626.531 150.906C626.531 154.552 627.703 157.677 630.047 160.281C632.391 162.885 635.451 165.164 639.227 167.117C643.003 168.94 647.169 170.633 651.727 172.195C656.414 173.628 661.036 175.125 665.594 176.688C673.797 179.552 681.219 182.677 687.859 186.062C694.5 189.448 700.164 193.419 704.852 197.977C709.669 202.534 713.315 207.872 715.789 213.992C718.393 220.112 719.695 227.404 719.695 235.867C719.695 247.716 717.091 257.872 711.883 266.336C706.805 274.669 699.969 281.505 691.375 286.844C682.911 292.052 673.081 295.828 661.883 298.172C650.815 300.646 639.292 301.883 627.312 301.883C605.307 301.883 584.93 298.497 566.18 291.727ZM945.477 297H883.953V266.531H882.977C867.742 290.099 847.365 301.883 821.844 301.883C775.49 301.883 752.312 273.823 752.312 217.703V97H813.836V212.234C813.836 240.49 825.034 254.617 847.43 254.617C858.497 254.617 867.352 250.776 873.992 243.094C880.633 235.281 883.953 224.734 883.953 211.453V97H945.477V297ZM1315.2 297H1253.68V182.938C1253.68 153.901 1243 139.383 1221.65 139.383C1211.49 139.383 1203.22 143.745 1196.84 152.469C1190.46 161.193 1187.27 172.065 1187.27 185.086V297H1125.55V181.766C1125.55 153.51 1115.07 139.383 1094.11 139.383C1083.56 139.383 1075.1 143.549 1068.72 151.883C1062.47 160.216 1059.34 171.544 1059.34 185.867V297H997.625V97H1059.34V128.25H1060.12C1066.51 117.573 1075.42 108.914 1086.88 102.273C1098.47 95.5026 1111.1 92.1172 1124.77 92.1172C1153.03 92.1172 1172.36 104.552 1182.78 129.422C1198.02 104.552 1220.41 92.1172 1249.97 92.1172C1293.46 92.1172 1315.2 118.94 1315.2 172.586V297ZM1543.72 214.578H1413.25C1415.33 243.615 1433.63 258.133 1468.13 258.133C1490.14 258.133 1509.47 252.924 1526.14 242.508V287.039C1507.65 296.935 1483.63 301.883 1454.07 301.883C1421.78 301.883 1396.71 292.964 1378.88 275.125C1361.04 257.156 1352.12 232.156 1352.12 200.125C1352.12 166.922 1361.75 140.62 1381.02 121.219C1400.29 101.818 1423.99 92.1172 1452.12 92.1172C1481.28 92.1172 1503.81 100.776 1519.7 118.094C1535.71 135.411 1543.72 158.914 1543.72 188.602V214.578ZM1486.49 176.688C1486.49 148.042 1474.9 133.719 1451.73 133.719C1441.83 133.719 1433.24 137.82 1425.95 146.023C1418.78 154.227 1414.42 164.448 1412.86 176.688H1486.49ZM1884.15 297H1822.62V185.867C1822.62 154.878 1811.56 139.383 1789.42 139.383C1778.74 139.383 1769.96 143.484 1763.05 151.688C1756.15 159.891 1752.7 170.307 1752.7 182.938V297H1690.98V97H1752.7V128.641H1753.48C1768.2 104.292 1789.62 92.1172 1817.74 92.1172C1862.01 92.1172 1884.15 119.591 1884.15 174.539V297ZM2028.48 301.883C1995.15 301.883 1968.91 292.573 1949.77 273.953C1930.76 255.203 1921.26 229.812 1921.26 197.781C1921.26 164.708 1931.15 138.862 1950.95 120.242C1970.74 101.492 1997.49 92.1172 2031.22 92.1172C2064.42 92.1172 2090.46 101.492 2109.34 120.242C2128.22 138.862 2137.66 163.536 2137.66 194.266C2137.66 227.469 2127.9 253.706 2108.37 272.977C2088.97 292.247 2062.34 301.883 2028.48 301.883ZM2030.05 139.383C2015.46 139.383 2004.14 144.396 1996.06 154.422C1987.99 164.448 1983.95 178.641 1983.95 197C1983.95 235.411 1999.45 254.617 2030.44 254.617C2059.99 254.617 2074.77 234.891 2074.77 195.438C2074.77 158.068 2059.86 139.383 2030.05 139.383ZM2467.35 97L2409.73 297H2344.89L2315.4 179.812C2313.45 172 2312.34 163.471 2312.08 154.227H2310.91C2309.99 164.383 2308.69 172.651 2307 179.031L2275.36 297H2211.3L2154.85 97H2217.74L2245.28 227.469C2246.58 233.589 2247.56 241.01 2248.21 249.734H2249.38C2250.03 240.62 2251.21 232.938 2252.9 226.688L2287.27 97H2346.06L2376.92 227.469C2377.7 230.724 2378.61 238.276 2379.66 250.125H2381.02C2381.67 242.573 2382.72 235.021 2384.15 227.469L2410.12 97H2467.35Z" fill="#F7F7F7"/>
</svg>
