<svg width="1920" height="538" viewBox="0 0 1920 538" fill="none" xmlns="http://www.w3.org/2000/svg">
<path d="M-1305.7 405H-1368V237.422C-1368 219.323 -1367.22 199.336 -1365.66 177.461H-1367.22C-1370.47 194.648 -1373.4 207.018 -1376.01 214.57L-1441.63 405H-1493.2L-1559.99 216.523C-1561.82 211.445 -1564.74 198.424 -1568.78 177.461H-1570.54C-1568.85 205.065 -1568 229.284 -1568 250.117V405H-1624.84V124.922H-1532.45L-1475.23 290.938C-1470.67 304.219 -1467.35 317.565 -1465.27 330.977H-1464.09C-1460.58 315.482 -1456.87 302.005 -1452.96 290.547L-1395.73 124.922H-1305.7V405ZM-1081.67 405H-1140.07V376.289H-1140.85C-1154.26 398.685 -1174.12 409.883 -1200.42 409.883C-1219.82 409.883 -1235.12 404.414 -1246.32 393.477C-1257.39 382.409 -1262.92 367.695 -1262.92 349.336C-1262.92 310.534 -1239.94 288.138 -1193.98 282.148L-1139.68 274.922C-1139.68 253.047 -1151.53 242.109 -1175.23 242.109C-1199.05 242.109 -1221.71 249.206 -1243.2 263.398V216.914C-1234.6 212.487 -1222.88 208.581 -1208.04 205.195C-1193.07 201.81 -1179.46 200.117 -1167.22 200.117C-1110.19 200.117 -1081.67 228.568 -1081.67 285.469V405ZM-1139.68 323.75V310.273L-1176.01 314.961C-1196.06 317.565 -1206.09 326.615 -1206.09 342.109C-1206.09 349.141 -1203.68 354.935 -1198.86 359.492C-1193.91 363.919 -1187.27 366.133 -1178.94 366.133C-1167.35 366.133 -1157.91 362.161 -1150.62 354.219C-1143.33 346.146 -1139.68 335.99 -1139.68 323.75ZM-832.453 405H-906.477L-970.344 305.781H-971.125V405H-1032.84V108.906H-971.125V297.383H-970.344L-910.773 205H-837.531L-909.211 298.945L-832.453 405ZM-635.188 322.578H-765.656C-763.573 351.615 -745.279 366.133 -710.773 366.133C-688.768 366.133 -669.432 360.924 -652.766 350.508V395.039C-671.255 404.935 -695.279 409.883 -724.836 409.883C-757.128 409.883 -782.193 400.964 -800.031 383.125C-817.87 365.156 -826.789 340.156 -826.789 308.125C-826.789 274.922 -817.154 248.62 -797.883 229.219C-778.612 209.818 -754.914 200.117 -726.789 200.117C-697.622 200.117 -675.096 208.776 -659.211 226.094C-643.195 243.411 -635.188 266.914 -635.188 296.602V322.578ZM-692.414 284.688C-692.414 256.042 -704.003 241.719 -727.18 241.719C-737.076 241.719 -745.669 245.82 -752.961 254.023C-760.122 262.227 -764.484 272.448 -766.047 284.688H-692.414ZM-297.492 205L-378.742 421.016C-398.273 472.969 -427.701 498.945 -467.023 498.945C-481.997 498.945 -494.302 497.253 -503.938 493.867V444.648C-495.734 449.466 -486.815 451.875 -477.18 451.875C-461.294 451.875 -450.227 444.388 -443.977 429.414L-433.43 404.609L-514.68 205H-446.32L-409.016 326.68C-406.672 334.232 -404.849 343.151 -403.547 353.438H-402.766C-401.594 345.885 -399.445 337.096 -396.32 327.07L-358.625 205H-297.492ZM-181.281 409.883C-214.615 409.883 -240.852 400.573 -259.992 381.953C-279.003 363.203 -288.508 337.812 -288.508 305.781C-288.508 272.708 -278.612 246.862 -258.82 228.242C-239.029 209.492 -212.271 200.117 -178.547 200.117C-145.344 200.117 -119.302 209.492 -100.422 228.242C-81.5417 246.862 -72.1016 271.536 -72.1016 302.266C-72.1016 335.469 -81.8672 361.706 -101.398 380.977C-120.799 400.247 -147.427 409.883 -181.281 409.883ZM-179.719 247.383C-194.302 247.383 -205.63 252.396 -213.703 262.422C-221.776 272.448 -225.812 286.641 -225.812 305C-225.812 343.411 -210.318 362.617 -179.328 362.617C-149.771 362.617 -134.992 342.891 -134.992 303.438C-134.992 266.068 -149.901 247.383 -179.719 247.383ZM157.977 405H96.4531V374.531H95.4766C80.2422 398.099 59.8646 409.883 34.3438 409.883C-12.0104 409.883 -35.1875 381.823 -35.1875 325.703V205H26.3359V320.234C26.3359 348.49 37.5339 362.617 59.9297 362.617C70.9974 362.617 79.8516 358.776 86.4922 351.094C93.1328 343.281 96.4531 332.734 96.4531 319.453V205H157.977V405ZM340.594 260.664C333.172 256.628 324.513 254.609 314.617 254.609C301.206 254.609 290.724 259.557 283.172 269.453C275.62 279.219 271.844 292.565 271.844 309.492V405H210.125V205H271.844V242.109H272.625C282.391 215.026 299.969 201.484 325.359 201.484C331.87 201.484 336.948 202.266 340.594 203.828V260.664ZM610.516 260.664C603.094 256.628 594.435 254.609 584.539 254.609C571.128 254.609 560.646 259.557 553.094 269.453C545.542 279.219 541.766 292.565 541.766 309.492V405H480.047V205H541.766V242.109H542.547C552.312 215.026 569.891 201.484 595.281 201.484C601.792 201.484 606.87 202.266 610.516 203.828V260.664ZM817.547 322.578H687.078C689.161 351.615 707.456 366.133 741.961 366.133C763.966 366.133 783.302 360.924 799.969 350.508V395.039C781.479 404.935 757.456 409.883 727.898 409.883C695.607 409.883 670.542 400.964 652.703 383.125C634.865 365.156 625.945 340.156 625.945 308.125C625.945 274.922 635.581 248.62 654.852 229.219C674.122 209.818 697.82 200.117 725.945 200.117C755.112 200.117 777.638 208.776 793.523 226.094C809.539 243.411 817.547 266.914 817.547 296.602V322.578ZM760.32 284.688C760.32 256.042 748.732 241.719 725.555 241.719C715.659 241.719 707.065 245.82 699.773 254.023C692.612 262.227 688.25 272.448 686.688 284.688H760.32ZM841.18 399.727V349.727C851.336 355.846 861.427 360.404 871.453 363.398C881.609 366.393 891.18 367.891 900.164 367.891C911.102 367.891 919.695 366.393 925.945 363.398C932.326 360.404 935.516 355.846 935.516 349.727C935.516 345.82 934.083 342.565 931.219 339.961C928.354 337.357 924.643 335.078 920.086 333.125C915.659 331.172 910.776 329.414 905.438 327.852C900.099 326.289 894.956 324.531 890.008 322.578C882.065 319.583 875.034 316.393 868.914 313.008C862.924 309.492 857.846 305.456 853.68 300.898C849.643 296.341 846.518 291.068 844.305 285.078C842.221 279.089 841.18 271.992 841.18 263.789C841.18 252.591 843.589 242.956 848.406 234.883C853.354 226.81 859.865 220.234 867.938 215.156C876.141 209.948 885.451 206.172 895.867 203.828C906.414 201.354 917.352 200.117 928.68 200.117C937.534 200.117 946.518 200.833 955.633 202.266C964.747 203.568 973.732 205.521 982.586 208.125V255.781C974.773 251.224 966.375 247.839 957.391 245.625C948.536 243.281 939.812 242.109 931.219 242.109C927.182 242.109 923.341 242.5 919.695 243.281C916.18 243.932 913.055 244.974 910.32 246.406C907.586 247.708 905.438 249.466 903.875 251.68C902.312 253.763 901.531 256.172 901.531 258.906C901.531 262.552 902.703 265.677 905.047 268.281C907.391 270.885 910.451 273.164 914.227 275.117C918.003 276.94 922.169 278.633 926.727 280.195C931.414 281.628 936.036 283.125 940.594 284.688C948.797 287.552 956.219 290.677 962.859 294.062C969.5 297.448 975.164 301.419 979.852 305.977C984.669 310.534 988.315 315.872 990.789 321.992C993.393 328.112 994.695 335.404 994.695 343.867C994.695 355.716 992.091 365.872 986.883 374.336C981.805 382.669 974.969 389.505 966.375 394.844C957.911 400.052 948.081 403.828 936.883 406.172C925.815 408.646 914.292 409.883 902.312 409.883C880.307 409.883 859.93 406.497 841.18 399.727ZM1220.48 405H1158.95V374.531H1157.98C1142.74 398.099 1122.36 409.883 1096.84 409.883C1050.49 409.883 1027.31 381.823 1027.31 325.703V205H1088.84V320.234C1088.84 348.49 1100.03 362.617 1122.43 362.617C1133.5 362.617 1142.35 358.776 1148.99 351.094C1155.63 343.281 1158.95 332.734 1158.95 319.453V205H1220.48V405ZM1590.2 405H1528.68V290.938C1528.68 261.901 1518 247.383 1496.65 247.383C1486.49 247.383 1478.22 251.745 1471.84 260.469C1465.46 269.193 1462.27 280.065 1462.27 293.086V405H1400.55V289.766C1400.55 261.51 1390.07 247.383 1369.11 247.383C1358.56 247.383 1350.1 251.549 1343.72 259.883C1337.47 268.216 1334.34 279.544 1334.34 293.867V405H1272.62V205H1334.34V236.25H1335.12C1341.51 225.573 1350.42 216.914 1361.88 210.273C1373.47 203.503 1386.1 200.117 1399.77 200.117C1428.03 200.117 1447.36 212.552 1457.78 237.422C1473.02 212.552 1495.41 200.117 1524.97 200.117C1568.46 200.117 1590.2 226.94 1590.2 280.586V405ZM1818.72 322.578H1688.25C1690.33 351.615 1708.63 366.133 1743.13 366.133C1765.14 366.133 1784.47 360.924 1801.14 350.508V395.039C1782.65 404.935 1758.63 409.883 1729.07 409.883C1696.78 409.883 1671.71 400.964 1653.88 383.125C1636.04 365.156 1627.12 340.156 1627.12 308.125C1627.12 274.922 1636.75 248.62 1656.02 229.219C1675.29 209.818 1698.99 200.117 1727.12 200.117C1756.28 200.117 1778.81 208.776 1794.7 226.094C1810.71 243.411 1818.72 266.914 1818.72 296.602V322.578ZM1761.49 284.688C1761.49 256.042 1749.9 241.719 1726.73 241.719C1716.83 241.719 1708.24 245.82 1700.95 254.023C1693.78 262.227 1689.42 272.448 1687.86 284.688H1761.49ZM2159.15 405H2097.62V293.867C2097.62 262.878 2086.56 247.383 2064.42 247.383C2053.74 247.383 2044.96 251.484 2038.05 259.688C2031.15 267.891 2027.7 278.307 2027.7 290.938V405H1965.98V205H2027.7V236.641H2028.48C2043.2 212.292 2064.62 200.117 2092.74 200.117C2137.01 200.117 2159.15 227.591 2159.15 282.539V405ZM2303.48 409.883C2270.15 409.883 2243.91 400.573 2224.77 381.953C2205.76 363.203 2196.26 337.812 2196.26 305.781C2196.26 272.708 2206.15 246.862 2225.95 228.242C2245.74 209.492 2272.49 200.117 2306.22 200.117C2339.42 200.117 2365.46 209.492 2384.34 228.242C2403.22 246.862 2412.66 271.536 2412.66 302.266C2412.66 335.469 2402.9 361.706 2383.37 380.977C2363.97 400.247 2337.34 409.883 2303.48 409.883ZM2305.05 247.383C2290.46 247.383 2279.14 252.396 2271.06 262.422C2262.99 272.448 2258.95 286.641 2258.95 305C2258.95 343.411 2274.45 362.617 2305.44 362.617C2334.99 362.617 2349.77 342.891 2349.77 303.438C2349.77 266.068 2334.86 247.383 2305.05 247.383ZM2742.35 205L2684.73 405H2619.89L2590.4 287.812C2588.45 280 2587.34 271.471 2587.08 262.227H2585.91C2584.99 272.383 2583.69 280.651 2582 287.031L2550.36 405H2486.3L2429.85 205H2492.74L2520.28 335.469C2521.58 341.589 2522.56 349.01 2523.21 357.734H2524.38C2525.03 348.62 2526.21 340.938 2527.9 334.688L2562.27 205H2621.06L2651.92 335.469C2652.7 338.724 2653.61 346.276 2654.66 358.125H2656.02C2656.67 350.573 2657.72 343.021 2659.15 335.469L2685.12 205H2742.35Z" fill="#F7F7F7"/>
<circle cx="140.647" cy="78.6474" r="15.3202" transform="rotate(42.6272 140.647 78.6474)" fill="#0F4CEE" fill-opacity="0.07"/>
<circle cx="1285.04" cy="256.791" r="16.3064" transform="rotate(42.6272 1285.04 256.791)" fill="#0F4CEE" fill-opacity="0.07"/>
<circle cx="840.235" cy="11.2355" r="7.95152" transform="rotate(42.6272 840.235 11.2355)" fill="#0F4CEE" fill-opacity="0.07"/>
<circle cx="1793.81" cy="521.889" r="11.1911" transform="rotate(42.6272 1793.81 521.889)" fill="#0F4CEE" fill-opacity="0.07"/>
<circle cx="749.813" cy="388.813" r="11.1911" transform="rotate(42.6272 749.813 388.813)" fill="#0F4CEE" fill-opacity="0.07"/>
</svg>
