<?xml version="1.0" encoding="utf-8"?>
<!-- Generator: Adobe Illustrator 24.1.1, SVG Export Plug-In . SVG Version: 6.00 Build 0)  -->
<svg version="1.1" id="Layer_1" xmlns="http://www.w3.org/2000/svg" xmlns:xlink="http://www.w3.org/1999/xlink" x="0px" y="0px"
	 viewBox="0 0 512 512" style="enable-background:new 0 0 512 512;" xml:space="preserve">
<style type="text/css">
	.st0{fill:#000;}
	.st1{fill:none;}
</style>
<g>
	<path class="st0" d="M403.1,146.1c-1.3-0.5-2.7-0.8-4.1-0.8H118.7c-1.5,0-2.9,0.3-4.1,0.8l144.3,125L403.1,146.1z"/>
	<path class="st0" d="M259,296.6c-2.5,0-5-0.9-7.1-2.6L108,169.3v181.2c0,6,4.8,10.8,10.8,10.8h280.4c6,0,10.8-4.8,10.8-10.8V169.3
		L266.1,294C264,295.7,261.5,296.6,259,296.6z"/>
	<path class="st0" d="M437,75C337-25,174.9-25,75,75s-100,262.1,0,362s262.1,100,362,0c48-48,75-113.1,75-181S485,123,437,75z
		 M431,350c0,17.9-14.5,32.3-32.3,32.3H118.3c-17.9,0-32.3-14.5-32.3-32.3V155.6c0-17.9,14.5-32.3,32.3-32.3h280.3
		c17.8,0,32.3,14.5,32.3,32.4V350z"/>
	<path class="st1" d="M398.7,123.3H118.3c-17.9,0-32.3,14.5-32.3,32.3V350c0,17.9,14.5,32.3,32.3,32.3h280.3
		c17.9,0,32.3-14.5,32.3-32.3V155.7C431,137.8,416.5,123.3,398.7,123.3z M118.7,145.3h280.3c1.5,0,2.9,0.3,4.1,0.8l-144.3,125
		l-144.3-125C115.8,145.6,117.2,145.3,118.7,145.3z M410,350.5c0,5.9-4.8,10.8-10.8,10.8H118.8c-6,0-10.8-4.8-10.8-10.8V169.3
		L251.9,294c2,1.8,4.6,2.6,7.1,2.6s5-0.9,7.1-2.6L410,169.3V350.5z"/>
</g>
</svg>
