<?xml version="1.0" encoding="utf-8"?>
<!-- Generator: Adobe Illustrator 24.1.1, SVG Export Plug-In . SVG Version: 6.00 Build 0)  -->
<svg version="1.1" id="Capa_1" xmlns="http://www.w3.org/2000/svg" xmlns:xlink="http://www.w3.org/1999/xlink" x="0px" y="0px"
	 viewBox="0 0 512 512" style="enable-background:new 0 0 512 512;" xml:space="preserve">
<style type="text/css">
	.st0{fill:#000;}
</style>
<g>
	<g>
		<path class="st0" d="M163.8,151H241V32.5C208.8,43.1,179.8,88.3,163.8,151z"/>
	</g>
</g>
<g>
	<g>
		<path class="st0" d="M163.8,361c16,62.7,45,107.9,77.2,118.5V361H163.8z"/>
	</g>
</g>
<g>
	<g>
		<path class="st0" d="M497,181H15c-8.3,0-15,6.7-15,15v120c0,8.3,6.7,15,15,15h482c8.3,0,15-6.7,15-15V196
			C512,187.7,505.3,181,497,181z M479.4,232.7l-30,60c-2.5,5.1-7.7,8.3-13.4,8.3s-10.9-3.2-13.4-8.3L406,259.5l-16.6,33.2
			c-5.1,10.2-21.7,10.2-26.8,0l-28.7-57.5c-1.7-2.1-2.7-4.8-3-7.6c-0.2,1.7-0.6,3.5-1.4,5.1l-30,60c-2.5,5.1-7.7,8.3-13.4,8.3
			s-10.9-3.2-13.4-8.3L256,259.5l-16.6,33.2c-5.1,10.2-21.7,10.2-26.8,0l-30-60c-0.8-1.6-1.1-3.3-1.3-4.9c-0.4,3.2-1.6,6.2-3.6,8.4
			l-28.3,56.5c-2.5,5.1-7.7,8.3-13.4,8.3s-10.9-3.2-13.4-8.3L106,259.5l-16.6,33.2c-2.5,5.1-7.7,8.3-13.4,8.3s-10.9-3.2-13.4-8.3
			l-30-60c-3.7-7.4-0.7-16.4,6.7-20.1c7.4-3.7,16.4-0.7,20.1,6.7L76,252.5l16.6-33.2c5.3-10.6,21.3-11.1,26.8,0l16.6,33.2l16.6-33.2
			c2.7-5.4,8.4-8.3,14.4-8.3c7.8,0.5,13.9,6.9,14.2,14.5c0.2-5.3,3-10.4,8.1-13c7.4-3.7,16.4-0.7,20.1,6.7l16.6,33.2l16.6-33.2
			c5.1-10.2,21.7-10.2,26.8,0l16.6,33.2l16.6-33.2c3.7-7.4,12.7-10.4,20.1-6.7c5.1,2.5,7.8,7.5,8.1,12.8c0.3-7.5,5.6-13.8,13.4-14.3
			c6.2-0.1,12.6,2.8,15.3,8.2l16.6,33.2l16.6-33.2c5.1-10.2,21.7-10.2,26.8,0l16.6,33.2l16.6-33.2c3.7-7.4,12.7-10.4,20.1-6.7
			C480.1,216.3,483.1,225.3,479.4,232.7z"/>
	</g>
</g>
<g>
	<g>
		<path class="st0" d="M271,361v118.5c32.2-10.6,61.2-55.8,77.2-118.5H271z"/>
	</g>
</g>
<g>
	<g>
		<path class="st0" d="M271,32.5V151h77.2C332.2,88.3,303.2,43.1,271,32.5z"/>
	</g>
</g>
<g>
	<g>
		<path class="st0" d="M133,361H24.5c41,90,131.8,151,231.5,151C201.8,512,154.5,452.3,133,361z"/>
	</g>
</g>
<g>
	<g>
		<path class="st0" d="M379,361c-21.5,91.3-68.8,151-123,151c99.7,0,190.5-61,231.5-151H379z"/>
	</g>
</g>
<g>
	<g>
		<path class="st0" d="M24.5,151H133C154.5,59.7,201.8,0,256,0C156.3,0,65.5,61,24.5,151z"/>
	</g>
</g>
<g>
	<g>
		<path class="st0" d="M256,0c54.2,0,101.5,59.7,123,151h108.5C446.5,61,355.7,0,256,0z"/>
	</g>
</g>
</svg>
