<svg width="113" height="112" viewBox="0 0 113 112" fill="none" xmlns="http://www.w3.org/2000/svg">
<g filter="url(#filter0_d)">
<path d="M56.8164 78C71.1758 78 82.8164 66.3594 82.8164 52C82.8164 37.6406 71.1758 26 56.8164 26C42.457 26 30.8164 37.6406 30.8164 52C30.8164 66.3594 42.457 78 56.8164 78Z" fill="#3A67FA"/>
<path d="M81.7551 60.7204L69.9482 48.8963L60.9696 50.2785L54.0168 44.041L44.4951 45.368L42.4897 60.751L58.7189 78.0002C69.3806 77.3979 78.3255 70.3695 81.7551 60.7204Z" fill="#2451D1"/>
<path d="M54.9384 50.6414C55.4475 49.8444 55.7384 48.8939 55.7214 47.8745C55.6767 45.1468 53.4191 42.9795 50.7062 42.9795H43.132C42.7773 42.9795 42.4897 43.2687 42.4897 43.6253V60.3745C42.4897 60.7311 42.7773 61.0203 43.132 61.0203H51.5929C54.733 61.0203 57.3344 58.4892 57.3468 55.3317C57.355 53.3966 56.4002 51.6811 54.9384 50.6414ZM45.8125 46.3208H50.771C51.6689 46.3208 52.3996 47.0554 52.3996 47.9584C52.3996 48.8612 51.6689 49.5958 50.771 49.5958H45.8125V46.3208ZM51.6665 57.679H45.8125V52.9371H51.6665C52.9666 52.9371 54.0244 54.0011 54.0244 55.3081C54.0242 56.6154 52.9667 57.679 51.6665 57.679Z" fill="white"/>
<path d="M72.0718 54.0588C72.0718 50.1344 68.9787 46.9414 65.1766 46.9414C61.3743 46.9414 58.2812 50.1344 58.2812 54.0588C58.2812 57.9835 61.3746 61.1761 65.1766 61.1761C67.4835 61.1761 69.6273 59.9936 70.9112 58.0127C71.071 57.7654 71.2166 57.5074 71.3455 57.2414C71.4391 57.0483 71.297 56.8235 71.0824 56.8232L67.6929 56.8147C67.6182 56.8147 67.5468 56.8452 67.4932 56.8975C66.853 57.5198 66.0686 57.8141 65.1768 57.8141C63.4922 57.8141 62.0803 56.5542 61.7287 54.8748H71.3973C71.7699 54.8748 72.0719 54.5726 72.0719 54.1998V54.0587H72.0718V54.0588ZM65.1766 50.3037C66.4101 50.3037 67.4975 50.98 68.1296 52.0014H62.2233C62.8555 50.9801 63.9429 50.3037 65.1766 50.3037Z" fill="#D1D1D1"/>
<path d="M68.0427 46.106H61.9268C61.6416 46.106 61.4102 45.8745 61.4102 45.5893V44.0552C61.4102 43.77 61.6416 43.5386 61.9268 43.5386H68.0427C68.3279 43.5386 68.559 43.77 68.559 44.0552V45.5893C68.5591 45.8749 68.3279 46.106 68.0427 46.106Z" fill="#D1D1D1"/>
</g>
<defs>
<filter id="filter0_d" x="0.816406" y="0" width="112" height="112" filterUnits="userSpaceOnUse" color-interpolation-filters="sRGB">
<feFlood flood-opacity="0" result="BackgroundImageFix"/>
<feColorMatrix in="SourceAlpha" type="matrix" values="0 0 0 0 0 0 0 0 0 0 0 0 0 0 0 0 0 0 127 0"/>
<feOffset dy="4"/>
<feGaussianBlur stdDeviation="15"/>
<feColorMatrix type="matrix" values="0 0 0 0 0.227451 0 0 0 0 0.403922 0 0 0 0 0.980392 0 0 0 0.4 0"/>
<feBlend mode="normal" in2="BackgroundImageFix" result="effect1_dropShadow"/>
<feBlend mode="normal" in="SourceGraphic" in2="effect1_dropShadow" result="shape"/>
</filter>
</defs>
</svg>
