<svg width="113" height="112" viewBox="0 0 113 112" fill="none" xmlns="http://www.w3.org/2000/svg">
<g filter="url(#filter0_d)">
<path d="M56.7754 82C71.1348 82 82.7754 70.3594 82.7754 56C82.7754 41.6406 71.1348 30 56.7754 30C42.416 30 30.7754 41.6406 30.7754 56C30.7754 70.3594 42.416 82 56.7754 82Z" fill="#DC4373"/>
<path d="M67.5879 45.3369C66.9116 45.6018 66.1366 45.5258 65.7757 45.282C61.4034 42.8011 56.6814 42.0923 52.3091 43.3327C46.0503 45.2063 43.4938 52.2382 43.5103 58.8024C44.6578 60.968 46.1763 64.2111 46.6479 66.6714L61.7761 82.0002C72.4553 80.0792 80.8783 71.5457 82.7756 60.7258L67.5879 45.3369Z" fill="#C13366"/>
<path d="M57.3056 40.6123C49.1135 40.6123 42.4487 47.5157 42.4487 56.0004C42.4487 64.485 49.1135 71.3878 57.3056 71.3878C65.4979 71.3878 72.163 64.4853 72.163 56.0004C72.163 47.5157 65.4979 40.6123 57.3056 40.6123ZM67.0819 47.8752C68.7766 50.0535 69.8065 52.8043 69.854 55.8019C69.2902 55.6819 66.902 55.22 64.048 55.22C63.1272 55.22 62.158 55.2678 61.1863 55.3923C61.1043 55.1855 61.0222 54.9794 60.936 54.7713C60.6839 54.1566 60.4125 53.5469 60.1313 52.946C64.5236 51.0693 66.6424 48.4647 67.0819 47.8752ZM57.3056 43.0211C60.4713 43.0211 63.3651 44.2408 65.5754 46.2498C65.2255 46.7448 63.3279 49.2045 59.0926 50.864C57.1322 47.1477 54.9864 44.0705 54.4757 43.3559C55.3858 43.1373 56.333 43.0211 57.3056 43.0211ZM51.914 44.2824C52.3467 44.9005 54.4958 48.0108 56.5066 51.6971C51.1101 53.1682 46.3179 53.2641 45.1614 53.2641H45.0385C45.8694 49.293 48.4566 45.9933 51.914 44.2824ZM44.7537 56.0207C44.7537 55.9135 44.7554 55.8064 44.7587 55.6999C44.8338 55.7008 44.9446 55.7008 45.0883 55.7008C46.6459 55.7008 52.053 55.5674 57.6247 53.8526C57.963 54.5385 58.2849 55.2348 58.5843 55.9307C58.4436 55.9725 58.3048 56.0144 58.1669 56.0612C51.8934 58.1623 48.445 63.7251 47.9145 64.6344C45.9486 62.3372 44.7537 59.3214 44.7537 56.0207ZM57.3056 69.0193C54.4267 69.0193 51.77 68.0082 49.65 66.3128C50.0086 65.5837 52.6112 60.7242 59.4863 58.2427C59.4905 58.241 59.495 58.2393 59.5001 58.238C61.2241 62.8923 61.9542 66.7988 62.1544 68.0094C60.6623 68.66 59.0239 69.0193 57.3056 69.0193ZM64.415 66.7279C64.2466 65.7263 63.5704 62.0653 62.0093 57.6002C62.8849 57.459 63.7366 57.4031 64.5354 57.4031C67.1588 57.4031 69.2111 57.9988 69.6878 58.1499C69.121 61.6957 67.1635 64.7641 64.415 66.7279Z" fill="#F0F1F1"/>
<path d="M57.3639 40.6123C57.3446 40.6123 57.3256 40.6138 57.3063 40.6138V43.0218C57.3254 43.0218 57.3445 43.0209 57.3639 43.0209C60.5173 43.0209 63.3999 44.2406 65.6015 46.2495C65.2529 46.7446 63.3628 49.2043 59.144 50.8638C58.5309 49.697 57.8996 48.5933 57.3063 47.6059V53.965C57.4313 53.9279 57.5564 53.8909 57.6817 53.8523C58.0186 54.5382 58.3392 55.2344 58.6375 55.9303C58.4973 55.9721 58.359 56.014 58.2217 56.0606C57.9088 56.1659 57.605 56.2819 57.3063 56.4033V59.2017C57.9941 58.8567 58.7348 58.5331 59.536 58.2427C59.5402 58.2409 59.5447 58.2392 59.5498 58.238C61.267 62.8923 61.9943 66.7987 62.1938 68.0093C60.7077 68.6599 59.0757 69.0192 57.3638 69.0192C57.3445 69.0192 57.3255 69.0179 57.3062 69.0179V71.3863C57.3254 71.3863 57.3444 71.3878 57.3638 71.3878C65.5242 71.3878 72.1633 64.4853 72.1633 56.0004C72.1634 47.5157 65.5243 40.6123 57.3639 40.6123ZM60.9803 54.7712C60.7292 54.1565 60.4588 53.5467 60.1787 52.9458C64.5538 51.0691 66.6644 48.4647 67.1021 47.8751C68.7902 50.0533 69.8162 52.8042 69.8634 55.8016C69.3018 55.6816 66.9229 55.2197 64.0803 55.2197C63.163 55.2197 62.1976 55.2678 61.2298 55.392C61.1477 55.1853 61.0661 54.9792 60.9803 54.7712ZM64.4456 66.7278C64.2779 65.7262 63.6043 62.0652 62.0493 57.6001C62.9214 57.4589 63.7699 57.4031 64.5656 57.4031C67.1787 57.4031 69.223 57.9987 69.6979 58.1498C69.1332 61.6956 67.1834 64.764 64.4456 66.7278Z" fill="#D1D1D1"/>
</g>
<defs>
<filter id="filter0_d" x="0.775391" y="0" width="112" height="112" filterUnits="userSpaceOnUse" color-interpolation-filters="sRGB">
<feFlood flood-opacity="0" result="BackgroundImageFix"/>
<feColorMatrix in="SourceAlpha" type="matrix" values="0 0 0 0 0 0 0 0 0 0 0 0 0 0 0 0 0 0 127 0"/>
<feOffset/>
<feGaussianBlur stdDeviation="15"/>
<feColorMatrix type="matrix" values="0 0 0 0 0.862745 0 0 0 0 0.262745 0 0 0 0 0.45098 0 0 0 0.4 0"/>
<feBlend mode="normal" in2="BackgroundImageFix" result="effect1_dropShadow"/>
<feBlend mode="normal" in="SourceGraphic" in2="effect1_dropShadow" result="shape"/>
</filter>
</defs>
</svg>
