<svg width="35" height="83" viewBox="0 0 35 83" fill="none" xmlns="http://www.w3.org/2000/svg">
<path d="M23.28 7.43556C20.7358 5.68955 17.7676 4.05995 17.3851 4.23455L17.2188 4.30938C17.2071 4.31136 17.1964 4.31748 17.1888 4.32663C17.1812 4.33578 17.1771 4.34736 17.1773 4.35926C17.1718 4.37244 17.1689 4.38657 17.1689 4.40084C17.1689 4.41511 17.1718 4.42924 17.1773 4.44241C17.1987 4.48523 17.23 4.5223 17.2687 4.55049C18.3219 4.87991 19.3176 5.37075 20.2203 6.0055C20.5695 6.24661 22.9806 8.49979 22.9806 8.49979L23.1469 8.42496L23.28 7.43556Z" fill="#575759"/>
<path d="M19.7711 11.8506C19.7711 12.5573 6.93379 16.4068 3.7993 17.4129L2.90135 16.8558L2.40249 36.7519C2.34802 37.1777 2.40434 37.6103 2.56602 38.0079C2.72769 38.4056 2.98925 38.7548 3.32538 39.0217L4.23164 39.5788C5.00225 40.0653 5.88726 40.3407 6.79788 40.3771C7.7085 40.4136 8.6127 40.21 9.41976 39.7866L16.7447 35.829C17.4828 35.4303 18.1024 34.8434 18.5404 34.1279C18.9785 33.4124 19.2195 32.5937 19.239 31.755C19.4634 24.031 19.5133 22.1354 19.7711 11.8506Z" fill="#494242"/>
<path d="M3.59235 17.2797C2.54475 16.6312 1.33086 15.3924 1.35581 14.6191C0.99829 28.8366 1.04818 26.9409 0.832004 34.5153C0.815445 35.3708 1.01565 36.2167 1.41397 36.9741C1.81229 37.7315 2.39579 38.3758 3.11012 38.847C2.65284 38.4313 3.59235 17.2797 3.59235 17.2797Z" fill="#3A3535"/>
<path d="M17.2685 7.34422L16.3623 6.78716C15.5923 6.30294 14.7089 6.02894 13.8001 5.99247C12.8913 5.956 11.9888 6.15833 11.1825 6.57931L3.84927 10.5369C3.32547 10.8113 2.62707 12.3411 2.62707 12.3411C2.10514 13.0415 1.67746 13.8075 1.35498 14.6192C1.39374 15.095 1.55706 15.5521 1.82852 15.9447C2.09999 16.3373 2.47003 16.6515 2.90144 16.8558L3.79938 17.4128C5.89459 18.5852 9.36996 18.7016 10.9663 17.6207L18.2912 13.6631C19.1975 13.1725 19.7462 12.5573 19.7712 11.8506C19.7828 10.9465 19.5581 10.0551 19.1191 9.26461C18.6801 8.47416 18.0422 7.81216 17.2685 7.34422Z" fill="#757575"/>
<path d="M19.7713 11.8507C19.7838 10.9474 19.5603 10.0565 19.1228 9.26615C18.6853 8.47577 18.0491 7.81333 17.277 7.34436L16.6284 6.97021L10.5091 7.56053L4.89697 11.5597L6.3686 15.06C6.60998 16.1078 6.60998 17.1967 6.3686 18.2444C8.09798 18.5105 9.93544 18.3275 10.9664 17.6208L18.2913 13.6632C19.1976 13.1727 19.7463 12.5574 19.7713 11.8507Z" fill="#9E9E9E"/>
<path d="M19.2141 12.7153C16.1221 14.5869 12.9332 16.2937 9.66098 17.8286C5.45394 18.66 1.73745 16.2821 1.34668 14.7439V15.7583C2.21358 17.0966 3.5674 18.0449 5.12137 18.4022C7.15728 19.022 9.35336 18.8375 11.2573 17.8868C16.4704 15.1015 19.0146 13.8959 19.7629 13.0478V11.8589C19.6407 12.179 19.4539 12.4705 19.2141 12.7153Z" fill="#3A3535"/>
<path d="M19.7629 12.0918C19.6604 12.392 19.4829 12.661 19.2474 12.8733C18.5406 13.5385 12.6375 16.4651 10.9331 17.5127C7.757 19.3252 1.89542 17.3381 1.34668 14.9685V15.6004C1.95362 16.8642 4.15691 18.0033 5.81977 18.3358L6.17729 18.4023C7.83841 18.7514 9.56917 18.5134 11.0744 17.7289C18.9397 13.5135 19.2889 13.3971 19.7795 12.599L19.7629 12.0918Z" fill="#9E9E9E"/>
<path d="M18.8403 5.50638C18.6337 4.99972 18.3535 4.52626 18.0089 4.10126C17.7334 3.77489 17.4078 3.49426 17.0444 3.26983C16.8193 3.09614 16.5522 2.98536 16.2702 2.94884C15.9883 2.91232 15.7017 2.95136 15.4398 3.06198L2.63574 10.021C2.89638 9.90666 3.18308 9.86481 3.46554 9.89994C3.748 9.93506 4.01572 10.0458 4.2404 10.2206C4.60381 10.445 4.92934 10.7256 5.20486 11.052C5.54951 11.477 5.82966 11.9505 6.03629 12.4571C6.26084 12.9828 6.37679 13.5484 6.37718 14.12C6.39583 14.3998 6.34123 14.6796 6.21875 14.9318C6.09628 15.184 5.91017 15.4 5.67878 15.5584L18.4828 8.64918C18.7107 8.48743 18.8942 8.27085 19.0162 8.01945C19.1383 7.76805 19.195 7.48994 19.1812 7.21081C19.1865 6.62522 19.0704 6.04489 18.8403 5.50638Z" fill="#9E9E9E"/>
<g style="mix-blend-mode:screen" opacity="0.4">
<path d="M17.0364 3.24512L4.24072 10.2208C4.60413 10.4452 4.92966 10.7259 5.20518 11.0522L18.0009 4.10149C17.7273 3.76623 17.4017 3.47709 17.0364 3.24512Z" fill="#9E9E9E"/>
</g>
<path opacity="0.7" d="M18.8402 5.50635L6.04453 12.4737C6.26907 12.9994 6.38502 13.565 6.38541 14.1366C6.40407 14.4164 6.34946 14.6962 6.22699 14.9484C6.10452 15.2006 5.9184 15.4166 5.68701 15.575L18.4827 8.64915C18.7106 8.4874 18.8941 8.27082 19.0162 8.01942C19.1382 7.76802 19.195 7.48991 19.1811 7.21078C19.1864 6.62519 19.0703 6.04486 18.8402 5.50635Z" fill="#848484"/>
<path d="M4.24056 10.2205C3.01004 9.46392 1.97907 10.021 1.9375 11.451C1.95857 12.2341 2.16374 13.0012 2.53641 13.6902C2.90908 14.3792 3.43877 14.9707 4.08259 15.417C5.31311 16.1736 6.34408 15.6248 6.38565 14.1864C6.36458 13.4034 6.15941 12.6363 5.78674 11.9473C5.41407 11.2583 4.88438 10.6667 4.24056 10.2205Z" fill="#757575"/>
<g style="mix-blend-mode:multiply" opacity="0.3">
<path d="M4.22391 10.6279C3.16799 9.97942 2.29499 10.4533 2.25342 11.6839C2.27031 12.3553 2.44554 13.0133 2.76484 13.6042C3.08414 14.1951 3.53848 14.7023 4.09088 15.0844C5.13848 15.7329 6.02811 15.259 6.06137 14.0285C6.04648 13.3566 5.87211 12.6979 5.55264 12.1067C5.23317 11.5154 4.77774 11.0086 4.22391 10.6279Z" fill="#757575"/>
</g>
<g style="mix-blend-mode:multiply" opacity="0.3">
<path d="M4.21608 11.002C3.33477 10.4616 2.60311 10.8607 2.55322 11.8833C2.56629 12.4411 2.71091 12.9878 2.97532 13.479C3.23972 13.9703 3.61642 14.3921 4.07474 14.7102C4.95606 15.2506 5.68771 14.8515 5.7376 13.8289C5.72387 13.2713 5.57896 12.7248 5.31462 12.2336C5.05027 11.7425 4.67392 11.3206 4.21608 11.002ZM4.108 14.5356C3.6905 14.249 3.34695 13.8675 3.10558 13.4223C2.8642 12.9771 2.73189 12.481 2.71951 11.9748C2.71951 11.0436 3.4096 10.6861 4.20777 11.1434C4.62639 11.4308 4.97063 11.8136 5.21206 12.2603C5.45349 12.7071 5.58518 13.2048 5.59626 13.7125C5.57131 14.6686 4.90617 15.0261 4.108 14.5356Z" fill="#757575"/>
</g>
<g style="mix-blend-mode:multiply" opacity="0.3">
<path d="M4.1574 11.7258C3.62528 11.3932 3.17631 11.6343 3.15137 12.2579C3.16591 12.6062 3.26512 12.9457 3.44042 13.2471C3.61571 13.5484 3.86181 13.8025 4.1574 13.9873C4.68951 14.3199 5.1468 14.0787 5.16343 13.4552C5.14749 13.1072 5.04769 12.7682 4.87252 12.4671C4.69736 12.166 4.45202 11.9117 4.1574 11.7258ZM4.1574 13.8792C3.90713 13.7029 3.70159 13.4704 3.55722 13.2005C3.41285 12.9305 3.33365 12.6305 3.32597 12.3244C3.32597 11.7591 3.75 11.5429 4.23223 11.8339C4.48361 12.011 4.68983 12.2448 4.83426 12.5163C4.97868 12.7878 5.05726 13.0895 5.06366 13.397C4.98883 13.954 4.60637 14.1369 4.1574 13.8792Z" fill="#757575"/>
</g>
<path d="M4.24796 23.0667L0.489895 20.7886L0.398438 24.4219C1.49091 25.4309 2.7666 26.2211 4.1565 26.7499L4.24796 23.0667Z" fill="#494242"/>
<path d="M1.84513 21.62L0.489895 20.7886L0.398438 24.4219C0.822013 24.8615 1.30305 25.2419 1.8285 25.5527C1.82018 23.8566 1.84513 21.62 1.84513 21.62Z" fill="#3A3535"/>
<path d="M4.02328 22.2768L0.215332 20.5142L0.489704 20.7885C1.59045 21.766 2.86533 22.5275 4.24777 23.0334L4.02328 22.2768Z" fill="#3A3535"/>
<path d="M4.60528 20.7884L0.739133 18.4937L0.215332 20.514C1.37471 21.4038 2.64326 22.1415 3.99002 22.709L4.60528 20.7884Z" fill="#494242"/>
<path d="M2.21908 19.3583L0.739133 18.5269L0.215332 20.514C0.611274 20.8575 1.04015 21.161 1.49573 21.4202L2.21908 19.3583Z" fill="#3A3535"/>
<path d="M5.33707 20.3561C3.90372 19.7927 2.54631 19.0525 1.29632 18.1528L0.739258 18.4937C1.88575 19.4762 3.19382 20.2526 4.60541 20.7885L5.33707 20.3561Z" fill="#615858"/>
<path d="M4.60549 20.755L3.99023 22.7089L4.24798 23.0664L4.14821 26.7497L5.18749 26.1843L5.33715 20.356L4.60549 20.755Z" fill="#524A4A"/>
<path d="M4.02433 31.9797L0.266262 29.7349L0.174805 33.335C1.2679 34.3431 2.54343 35.1332 3.93287 35.663L4.02433 31.9797Z" fill="#494242"/>
<path d="M1.66306 30.5414L0.299519 29.71L0.174805 33.335C0.601955 33.7706 1.08245 34.1506 1.60486 34.4657C1.60486 32.7696 1.66306 30.5414 1.66306 30.5414Z" fill="#3A3535"/>
<path d="M3.80795 31.1899L0 29.4272L0.266058 29.7349C1.3682 30.7104 2.6427 31.4717 4.02412 31.9797L3.80795 31.1899Z" fill="#3A3535"/>
<path d="M4.38164 29.6682L0.523801 27.4399L0 29.4271C1.16074 30.3081 2.42923 31.0374 3.77469 31.5971L4.38164 29.6682Z" fill="#494242"/>
<path d="M2.00375 28.2714L0.523801 27.4399L0 29.4271C0.392911 29.7706 0.81904 30.0742 1.27209 30.3333L2.00375 28.2714Z" fill="#3A3535"/>
<path d="M5.11342 29.2692C3.68333 28.6988 2.32674 27.9591 1.07267 27.0659L0.523926 27.4401C1.66842 28.4148 2.97385 29.1829 4.38176 29.7099L5.11342 29.2692Z" fill="#615858"/>
<path d="M4.38185 29.6681L3.7749 31.622L4.02433 31.9795L3.93287 35.6627L4.97216 35.0974L5.12182 29.269L4.38185 29.6681Z" fill="#524A4A"/>
<path d="M31.3695 34.2742C30.0974 32.5032 26.223 26.7082 26.2147 26.5752C26.2063 26.4421 26.0151 22.6591 25.5911 18.9593C23.9282 19.0091 22.2654 18.8345 20.6607 18.793H20.3198C20.7366 22.2033 21.4658 25.5681 22.4982 28.845C23.4876 30.0672 26.3144 33.0021 28.4678 35.247C29.2603 36.1774 29.9961 37.1548 30.6711 38.1736C31.2947 39.3958 30.6711 40.751 31.7104 40.3021C32.6 39.9362 34.0052 38.8471 34.1299 38.3648C34.2546 37.8826 33.6975 36.8184 33.8721 36.7602C34.1881 36.6521 34.8948 37.0512 34.8366 36.4858C34.637 35.1721 32.2176 35.247 31.3695 34.2742Z" fill="#F7C39F"/>
<path d="M22.4487 23.9895C21.6894 24.0075 20.9403 23.8116 20.287 23.4241C19.6468 19.7824 19.0648 15.4424 19.6136 14.004C19.7561 13.6551 19.9823 13.3466 20.2724 13.1059C20.5624 12.8652 20.9072 12.6996 21.2764 12.6238C23.0474 12.1167 24.968 14.0705 25.4336 15.6253C26.0499 17.9782 26.4232 20.3881 26.5477 22.8172C25.347 23.6471 23.9067 24.059 22.4487 23.9895Z" fill="#F4F4F4"/>
<path d="M20.0709 74.2493C20.0709 74.2493 20.021 74.5985 19.9794 74.7481C19.9794 75.1472 19.9295 75.962 20.2455 76.2614C21.0021 76.9847 21.7088 77.1759 22.5569 77.9242C23.2458 78.6233 24.0294 79.2223 24.8849 79.7035C25.7839 80.057 26.7377 80.2511 27.7034 80.2772C28.8092 80.2772 29.9898 79.7367 30.073 78.7889C30.1312 78.0739 30.0148 77.8078 29.9483 77.7579C29.3912 77.3256 26.7057 76.8101 25.55 76.1948C24.3943 75.5796 23.0557 74.9144 21.9167 74.216C21.3846 73.9084 19.8963 73.1185 20.0709 74.2493Z" fill="#C19259"/>
<path d="M20.5115 75.4965C20.2437 75.1792 20.0594 74.8001 19.9752 74.3936C19.891 73.9871 19.9096 73.566 20.0293 73.1685C20.064 72.8819 20.1727 72.6093 20.3448 72.3776C20.5168 72.1458 20.7462 71.9628 21.0104 71.8465C21.2762 71.7422 21.5568 71.6805 21.8418 71.6636C24.6354 71.5056 24.9846 72.8525 25.4585 73.9251C25.9324 74.9976 31.212 76.8434 29.7238 78.5645C29.5477 78.746 29.3269 78.8779 29.0836 78.9469C28.3687 79.2031 27.6055 79.2957 26.8501 79.218C26.0947 79.1403 25.3663 78.8943 24.7185 78.4979C23.6709 77.8328 22.8811 76.7852 21.767 76.2281C21.3184 76.0399 20.8964 75.794 20.5115 75.4965Z" fill="#302B2B"/>
<path d="M19.2561 59.6745C18.9152 64.5716 20.8774 67.598 20.445 72.5783C20.445 73.5261 24.6022 73.6425 24.6022 72.4868C24.6022 70.9902 24.5107 65.0039 24.6022 62.9503C24.6937 61.3789 25.126 58.4772 25.1509 56.9058C25.1616 56.0992 25.1087 55.293 24.993 54.4947C24.1615 54.4947 20.6778 54.2535 19.863 54.5612C19.4307 54.7275 18.4247 55.0018 18.3415 55.4508C18.2334 56.1409 19.4058 57.5793 19.2561 59.6745Z" fill="#F7C39F"/>
<path d="M3.60866 74.657C3.60866 74.657 3.45069 74.9647 3.36755 75.0977C3.25115 75.4801 2.91857 76.2284 3.12643 76.6192C3.60866 77.5421 4.21561 77.9578 4.78929 78.9389C5.22099 79.8281 5.78129 80.649 6.45215 81.375C6.77459 81.6549 7.1194 81.9079 7.48313 82.1316C7.93275 82.4214 8.4157 82.6559 8.9215 82.83C9.97741 83.1542 11.2578 83.0545 11.6403 82.1898C11.923 81.533 11.9063 81.242 11.8648 81.1754C11.5678 80.8549 11.2295 80.5753 10.8587 80.344C9.92169 79.7332 9.03229 79.0522 8.19815 78.307C7.25864 77.2843 6.28587 76.3033 5.39624 75.2557C4.98884 74.7568 3.81652 73.5263 3.60866 74.657Z" fill="#C19259"/>
<path d="M3.62505 75.9788C3.47095 75.5874 3.41835 75.1634 3.47213 74.7462C3.52592 74.3289 3.68435 73.9321 3.93268 73.5926C4.05776 73.3344 4.24755 73.1129 4.48357 72.9497C4.71959 72.7865 4.99382 72.6872 5.27959 72.6614C5.56023 72.6514 5.84072 72.685 6.11102 72.7612C8.81317 73.5178 8.70508 74.9063 8.80486 76.0869C8.87968 76.9183 10.7837 78.6394 11.5403 80.0528C11.9393 80.8011 12.0225 81.4579 11.3407 81.8487C11.1182 81.9661 10.8688 82.0234 10.6174 82.015C9.6724 82.0279 8.74248 81.7775 7.93185 81.2916C7.44025 80.9917 7.00656 80.6059 6.65145 80.1526C5.86991 79.1881 5.45419 77.9493 4.58951 77.0597C4.2237 76.7415 3.89964 76.3783 3.62505 75.9788Z" fill="#302B2B"/>
<path d="M7.54951 60.5972C5.64554 65.1202 6.52685 68.6205 4.50648 73.1685C4.18222 74.0581 8.07331 75.5131 8.44745 74.4156C8.92968 73.0022 10.7838 67.2736 11.557 65.4029C12.1556 63.9479 13.4942 61.3372 14.0513 59.8573C14.335 59.0261 14.5328 58.168 14.6416 57.2965C13.8102 57.0387 10.5593 55.8913 9.65303 55.9579C9.19574 55.9579 8.14814 55.9579 7.99017 56.3985C7.64928 57.047 8.36431 58.66 7.54951 60.5972Z" fill="#F7C39F"/>
<path d="M23.2798 38.6973L8.04799 40.8922C6.01099 46.6624 7.84014 50.5285 7.37454 57.5208C7.37454 59.6826 14.3918 60.7884 15.2399 58.3523C15.8634 56.5481 16.5036 53.7212 16.9027 52.1581L17.9919 56.7809C18.0402 56.9456 18.122 57.0985 18.2322 57.2301C18.3424 57.3617 18.4785 57.4692 18.6321 57.5458C20.9268 58.6599 25.4415 57.6539 25.4831 55.9411C25.35 53.3969 23.8368 44.1764 23.2798 38.6973Z" fill="#293981"/>
<g opacity="0.5">
<path opacity="0.5" d="M8.82129 49.115C8.82129 49.115 9.07903 48.849 9.42823 48.4166C9.84423 47.874 10.2062 47.292 10.5091 46.6789C10.7989 46.0598 11.0273 45.4138 11.1909 44.75C11.2618 44.4486 11.3145 44.1432 11.3488 43.8354C11.0788 44.7718 10.7311 45.684 10.3095 46.5625C9.88294 47.452 9.38524 48.3056 8.82129 49.115Z" fill="#19255E"/>
</g>
<path d="M20.9271 12.5988C17.2189 13.2889 10.5758 17.0137 8.21454 19.3667C8.00159 19.5845 7.83852 19.8461 7.73659 20.1332C7.63467 20.4203 7.59633 20.7261 7.62422 21.0295C8.69677 36.9431 7.11705 41.94 6.90088 44.0684C6.90088 44.0684 7.73231 43.2952 8.02331 43.3617C8.11477 43.3944 8.20145 43.4391 8.28105 43.4948C9.36671 44.2106 10.572 44.7259 11.8396 45.0163C14.3021 45.579 16.8599 45.579 19.3224 45.0163L19.9876 42.8629L20.5363 44.4758C22.7895 43.6444 23.6043 40.7926 23.5877 40.5764C23.3338 37.1488 23.2699 33.7097 23.3964 30.275C23.4879 28.08 23.6209 23.2411 23.9701 18.9094C24.0928 17.6854 23.9655 16.4493 23.596 15.276C23.1138 13.7379 22.2241 12.3577 20.9271 12.5988Z" fill="#E8E8E8"/>
<path d="M23.5544 26.8998L23.4879 28.0305C24.1863 25.079 24.3193 22.5431 24.1447 17.7541C24.0616 15.5009 23.2135 12.7655 21.243 12.092C19.946 11.7512 18.3081 12.1336 18.3912 13.1396C19.3307 12.7489 20.7192 13.838 21.1349 14.5115C22.3156 16.4072 23.4962 20.2317 23.5544 26.8998Z" fill="#494242"/>
<path d="M14.2754 9.97998C14.2754 10.0299 19.8127 10.1047 19.8959 10.6202C20.0078 11.1691 20.0856 11.7245 20.1287 12.283C20.1831 13.1857 20.3854 14.0732 20.7273 14.9104C20.4342 15.0102 20.134 15.088 19.8293 15.1432C19.7462 15.8 19.4219 17.4379 19.4219 17.4379L18.5905 15.8831C18.5905 15.8831 16.2625 17.2051 15.5724 16.9806C15.0819 16.831 14.5414 16.6564 14.425 16.091C14.3929 15.932 14.3734 15.7708 14.3668 15.6088C14.3668 15.0517 14.3668 14.4531 14.3668 13.9459C14.4766 12.6244 14.446 11.295 14.2754 9.97998Z" fill="#F0B790"/>
<path d="M20.2536 13.2471C20.2536 13.2471 20.4615 14.0785 20.4864 14.2198C20.4826 14.4179 20.4173 14.6099 20.2997 14.7692C20.182 14.9286 20.0177 15.0475 19.8296 15.1095C20.4116 15.5335 21.0435 16.1321 21.6587 16.6726C21.5515 15.7995 21.322 14.9458 20.977 14.1367C20.7963 13.7957 20.5506 13.4935 20.2536 13.2471Z" fill="#F4F4F4"/>
<path d="M18.6076 15.8496C18.2971 16.8816 18.0472 17.931 17.8594 18.9924C13.8934 18.6764 12.8708 16.6727 12.9207 15.9992C13.2991 15.2804 13.7967 14.631 14.3923 14.0786C14.3424 15.1595 15.7226 15.6916 16.4875 15.8745C17.185 16.0451 17.9143 16.0366 18.6076 15.8496Z" fill="#F4F4F4"/>
<path d="M7.48334 35.1224C7.35032 35.1889 7.10089 36.9515 7.48334 36.885C14.0018 35.6628 15.1491 26.7249 15.1408 21.6366C15.1408 19.3834 14.3094 17.0055 12.3056 16.357C11.0086 16.0161 9.37069 17.2965 9.45383 18.2942C9.91703 18.1613 10.4109 18.1826 10.8609 18.3551C11.3109 18.5276 11.6925 18.8419 11.9481 19.2504C13.1371 21.3372 12.6465 32.653 7.48334 35.1224Z" fill="#494242"/>
<path d="M20.9103 14.137C20.5944 14.877 19.8627 15.8581 19.0729 15.7999C17.6262 15.6835 15.24 15.2428 14.9157 14.1786C14.3919 12.3827 12.488 8.35857 13.4192 6.13034C13.8016 5.24903 15.822 6.60426 16.6617 6.00563C17.2614 5.6061 17.9171 5.29788 18.6073 5.09106C20.5528 4.4176 22.1076 4.58388 22.091 6.52111C22.1492 7.49579 22.1492 8.47307 22.091 9.44775C21.9923 11.0706 21.592 12.6609 20.9103 14.137Z" fill="#F7C39F"/>
<path d="M19.7216 0.326901C20.4435 0.745103 21.0229 1.37086 21.3845 2.12279C21.5923 2.55513 21.9498 2.74636 22.1161 3.22859C22.4492 4.20332 22.5627 5.23959 22.4487 6.26331C22.324 7.50214 22.1328 8.50817 22.1328 8.50817C22.2065 7.67428 22.1589 6.8341 21.9914 6.01388C21.5175 5.04111 18.092 6.84531 17.5017 7.41068C17.0285 7.79194 16.6595 8.28677 16.4291 8.84906C16.2778 9.39646 16.1557 9.95153 16.0633 10.5119C16.0614 10.5584 16.0474 10.6036 16.0226 10.643C15.9978 10.6824 15.9631 10.7146 15.922 10.7364C15.7973 10.7364 15.2568 10.6782 15.1404 9.90497C15.0573 9.36454 14.8162 8.59963 14.309 9.07354C13.569 9.78857 14.5834 11.6842 14.7995 13.1559C14.3149 12.9994 13.8832 12.7116 13.5524 12.3244C13.1647 11.9658 12.8035 11.5796 12.4715 11.1687C12.1888 10.7281 12.2886 10.2459 12.0641 9.78857C11.8396 9.33129 11.532 9.00703 11.5985 8.42503C11.5985 8.03426 11.4239 7.8264 11.2743 7.45226C11.0332 6.86194 11.3574 6.26331 11.2244 5.66468C10.817 3.83554 11.69 3.43645 12.8124 1.83179C13.2281 1.22485 14.0596 1.2581 14.5584 0.742616C15.0573 0.227129 15.5063 0.410044 16.2213 0.310272C17.0527 0.185558 16.7451 -0.1969 18.4329 0.127358C18.832 0.210501 19.389 0.0857864 19.7216 0.326901Z" fill="#302625"/>
<path d="M14.2758 27.2901C13.7151 27.6498 13.0918 27.9008 12.4384 28.0301C12.2638 28.0301 12.7876 26.1926 12.1972 26.4836C11.6069 26.7746 11.1164 29.6763 11.1164 29.6763C10.341 30.1644 9.53877 30.6085 8.71355 31.0066C8.71355 30.9567 12.1557 22.9168 11.848 20.3976C11.8121 20.0859 11.698 19.7883 11.5163 19.5325C11.3346 19.2766 11.0912 19.0709 10.8088 18.9343C9.47847 18.2359 7.56618 19.7657 6.90935 21.096C4.62292 25.7769 3.3924 32.9688 3.276 34.1411C2.81871 39.8281 12.7876 31.6967 13.3612 31.5969C13.8524 31.4542 14.2877 31.1639 14.6084 30.7655C15.3151 29.8343 15.5396 26.043 14.8079 26.492C14.6745 26.7848 14.4948 27.0543 14.2758 27.2901Z" fill="#F7C39F"/>
<path d="M7.69898 29.5351C8.44565 29.6856 9.21932 29.6281 9.93553 29.3688C11.2159 25.9017 12.5628 21.7363 12.2885 20.2231C12.214 19.8581 12.0527 19.5165 11.8182 19.227C11.5838 18.9376 11.2831 18.7089 10.9416 18.5602C9.2787 17.7288 7.05047 19.3251 6.32712 20.7718C5.29473 22.9746 4.49499 25.279 3.94092 27.6477C4.95653 28.6667 6.27515 29.329 7.69898 29.5351Z" fill="#F4F4F4"/>
<path d="M19.6552 9.05668L19.4058 10.2623L19.4806 10.3121C19.6035 9.89404 19.687 9.46538 19.73 9.03174L19.6552 9.05668Z" fill="#575759"/>
<path d="M12.1723 7.58507C12.1723 7.58507 11.8979 7.63495 11.9894 7.80124C12.1972 8.15875 12.588 7.72641 14.1594 8.81558C14.5086 9.04838 16.9197 11.3099 16.9197 11.3099L17.086 11.2267L17.1525 10.1874C14.6084 8.46638 12.7127 7.48529 12.1723 7.58507Z" fill="url(#paint0_linear)"/>
<path opacity="0.4" d="M16.8531 10.279L16.7949 11.1769C16.7855 11.2315 16.7914 11.2875 16.8119 11.3389C16.8325 11.3903 16.8669 11.4349 16.9113 11.4679L16.9695 11.5095C17.0011 11.5344 17.0381 11.5514 17.0776 11.5594C17.1216 11.567 17.1666 11.567 17.2106 11.5594L18.8734 11.0023H18.94C19.0091 10.947 19.0707 10.8827 19.1229 10.8111C19.2525 10.6967 19.3548 10.5546 19.4222 10.3954L19.4721 10.2374L19.7215 9.00692L19.655 8.95703L16.8531 10.279Z" fill="#66D4D4"/>
<path opacity="0.4" d="M23.3215 7.40241L23.28 7.36084L20.4614 8.64124L20.5695 9.71379C20.5701 9.75885 20.5809 9.80319 20.6011 9.8435C20.6212 9.88381 20.6502 9.91905 20.6859 9.94659H20.7524C20.7936 9.95445 20.8359 9.95445 20.8771 9.94659L21.0517 9.8967H21.1099L22.7728 8.92393C22.8967 8.86619 23.0064 8.78188 23.094 8.67698C23.1817 8.57208 23.2452 8.44918 23.28 8.31698L23.3215 7.40241ZM20.4947 8.69113L23.28 7.43567L20.4947 8.69113Z" fill="#66D4D4"/>
<path d="M23.3802 7.42727V7.2111L23.2805 7.11133L16.8535 10.038V10.2541L16.9949 10.3539L19.7552 9.09844C19.7552 9.2481 19.6471 9.68045 19.5224 10.3123C19.5639 10.3006 19.6013 10.2776 19.6305 10.2458C19.6721 10.1959 19.8217 9.49753 19.855 9.35619C19.8882 9.21485 20.1626 8.96542 20.3372 9.06519C20.3577 9.0745 20.3758 9.08831 20.3902 9.10559C20.4046 9.12286 20.4149 9.14315 20.4203 9.16496C20.4702 9.28967 20.4702 9.6555 20.5118 9.78853H20.57H20.6532C20.6532 9.78853 20.6116 9.34787 20.5451 8.73262L23.3802 7.42727Z" fill="#575759"/>
<path d="M16.1465 9.94629L15.8887 10.071L15.8555 10.4867L16.8698 11.1768L17.1276 11.0604L17.1608 10.6364L16.1465 9.94629Z" fill="#9E9E9E"/>
<path d="M17.0197 10.8108C16.9866 10.827 16.9583 10.8516 16.9379 10.8823C16.9174 10.913 16.9055 10.9486 16.9033 10.9854C16.9033 11.0519 16.9449 11.0852 17.0031 11.0519C17.0368 11.0355 17.0659 11.011 17.0877 10.9805C17.1094 10.95 17.1232 10.9145 17.1278 10.8773C17.1278 10.8108 17.0862 10.7609 17.0197 10.8108Z" fill="#494242"/>
<path opacity="0.5" d="M21.3428 8.64145V9.46457L22.407 8.84931V8.13428L21.3428 8.64145Z" fill="#F9F9F9"/>
<path d="M13.3031 8.89049C12.7128 9.72192 13.8269 11.1354 14.6916 12.6236L15.1073 9.79675C14.8911 8.51635 13.7437 8.31681 13.3031 8.89049Z" fill="#F7C39F"/>
<path d="M34.9198 36.5272C34.7286 36.0283 34.1798 34.4652 34.0884 34.2075C33.9969 33.9498 33.6228 34.1576 33.3983 34.3572L29.3326 37.4168C29.3096 37.4353 29.2927 37.4602 29.2838 37.4883C29.2749 37.5164 29.2745 37.5465 29.2827 37.5748C29.3742 37.899 29.7816 39.4039 29.9479 39.961C29.9605 39.9969 29.9811 40.0295 30.0082 40.0562C30.0354 40.0829 30.0682 40.103 30.1043 40.1151C30.1405 40.1271 30.1789 40.1307 30.2166 40.1256C30.2543 40.1205 30.2904 40.1069 30.322 40.0857L34.8117 36.8182C34.8554 36.7848 34.8887 36.7398 34.9078 36.6883C34.9269 36.6368 34.9311 36.5809 34.9198 36.5272Z" fill="#494242"/>
<path d="M33.7146 34.2241L29.6821 37.2672L30.3722 39.5536L34.5211 36.4773L33.7146 34.2241Z" fill="#262626"/>
<defs>
<linearGradient id="paint0_linear" x1="12.6046" y1="8.17538" x2="15.0657" y2="9.57218" gradientUnits="userSpaceOnUse">
<stop stop-color="#302625"/>
<stop offset="1" stop-color="#575759"/>
</linearGradient>
</defs>
</svg>
