<svg width="112" height="112" viewBox="0 0 112 112" fill="none" xmlns="http://www.w3.org/2000/svg">
<g filter="url(#filter0_d)">
<path d="M56 78C70.3594 78 82 66.3594 82 52C82 37.6406 70.3594 26 56 26C41.6406 26 30 37.6406 30 52C30 66.3594 41.6406 78 56 78Z" fill="#4E598F"/>
<path d="M81.9596 50.2104L69.8587 37.8101C69.6581 37.8723 69.1579 37.6339 68.9381 37.6791C63.7478 38.5653 58.7306 37.6791 53.7132 39.0969C51.2911 39.8059 51.118 42.8188 50.253 44.7684C49.042 48.3131 49.215 52.2122 47.6579 55.5796C46.6199 57.8837 44.1977 59.3015 43.3326 61.9601C43.0441 63.0689 43.0611 64.4665 42.7349 65.5265L54.8763 77.9584C55.3505 77.9852 55.8277 77.9999 56.3083 77.9999C70.4974 77.9999 82.0002 66.2163 82.0002 51.6807C82.0003 51.1872 81.9859 50.6971 81.9596 50.2104Z" fill="#364270"/>
<path d="M66.8708 37.1177H45.1279C42.9129 37.1177 41.1172 38.9133 41.1172 41.1284V62.8713C41.1172 65.0865 42.9128 66.882 45.1279 66.882H55.8512L55.8698 56.2462H53.1063C52.7472 56.2462 52.4557 55.9557 52.4545 55.5966L52.441 52.168C52.4395 51.8071 52.7321 51.5135 53.093 51.5135H55.8516V48.2007C55.8516 44.3564 58.1995 42.2631 61.6289 42.2631H64.4432C64.803 42.2631 65.0952 42.555 65.0952 42.9151V45.8059C65.0952 46.166 64.8033 46.4579 64.4436 46.4579L62.7164 46.459C60.8514 46.459 60.4901 47.3451 60.4901 48.6459V51.5139H64.5882C64.979 51.5139 65.2819 51.8549 65.2356 52.2424L64.8293 55.671C64.7906 55.9993 64.5122 56.2464 64.1818 56.2464H60.5085L60.49 66.8826H66.8707C69.0857 66.8826 70.8814 65.0868 70.8814 62.8718V41.1284C70.8815 38.9134 69.0858 37.1177 66.8708 37.1177Z" fill="white"/>
<path d="M55.8506 66.8819L55.8692 56.2461H55.8237V66.8819H55.8506Z" fill="white"/>
<path d="M67.1476 36.6123H55.4692V51.4967H55.4981V48.0716C55.4981 44.0967 57.9803 41.9323 61.6058 41.9323H64.5811C64.9615 41.9323 65.2704 42.2341 65.2704 42.6065V45.5954C65.2704 45.9678 64.9618 46.2696 64.5815 46.2696L62.7556 46.2706C60.7839 46.2706 60.4019 47.1869 60.4019 48.5318V51.4972H64.7344C65.1476 51.4972 65.4678 51.8498 65.4189 52.2504L64.9893 55.7955C64.9484 56.1349 64.6541 56.3904 64.3048 56.3904H60.4214L60.4018 67.3878H67.1475C69.4892 67.3878 71.3876 65.531 71.3876 63.2408V40.7592C71.3877 38.469 69.4893 36.6123 67.1476 36.6123Z" fill="#D1D1D1"/>
</g>
<defs>
<filter id="filter0_d" x="0" y="0" width="112" height="112" filterUnits="userSpaceOnUse" color-interpolation-filters="sRGB">
<feFlood flood-opacity="0" result="BackgroundImageFix"/>
<feColorMatrix in="SourceAlpha" type="matrix" values="0 0 0 0 0 0 0 0 0 0 0 0 0 0 0 0 0 0 127 0"/>
<feOffset dy="4"/>
<feGaussianBlur stdDeviation="15"/>
<feColorMatrix type="matrix" values="0 0 0 0 0.305882 0 0 0 0 0.34902 0 0 0 0 0.560784 0 0 0 0.4 0"/>
<feBlend mode="normal" in2="BackgroundImageFix" result="effect1_dropShadow"/>
<feBlend mode="normal" in="SourceGraphic" in2="effect1_dropShadow" result="shape"/>
</filter>
</defs>
</svg>
