<svg width="35" height="31" viewBox="0 0 35 31" fill="none" xmlns="http://www.w3.org/2000/svg">
<g filter="url(#filter0_d)">
<path d="M17.5117 0.177734C15.2752 0.18779 13.0796 0.765067 11.139 1.85324C9.19841 2.94142 7.57919 4.50332 6.43932 6.38657C5.29944 8.26982 4.67785 10.4101 4.63517 12.5986C4.59249 14.787 5.1302 16.9489 6.19582 18.8734V15.5262C6.20099 14.9138 6.41869 14.3214 6.81319 13.846C6.78045 13.5121 6.76407 13.1764 6.76407 12.839C6.76959 10.0458 7.90188 7.36762 9.91462 5.3872C11.9274 3.40677 14.6577 2.28428 17.5117 2.26391C19.0229 2.26954 20.516 2.58557 21.8945 3.19156C23.273 3.79754 24.5062 4.67999 25.5142 5.78181C26.5223 6.88362 27.2828 8.18027 27.7465 9.58787C28.2102 10.9955 28.3669 12.4827 28.2063 13.9532C28.5504 14.4088 28.7378 14.9596 28.7414 15.5262V19.0436C29.8451 17.1203 30.4163 14.9481 30.3985 12.7423C30.3808 10.5364 29.7746 8.37337 28.64 6.46729C27.5055 4.56121 25.8819 2.97822 23.93 1.87505C21.9781 0.771879 19.7657 0.186797 17.5117 0.177734Z" fill="#17057B"/>
<path d="M6.98989 14.9864C6.93474 15.1615 6.90655 15.3437 6.90625 15.5269V20.2547C6.90625 21.714 8.68204 22.8971 10.8727 22.8971H12.5423V12.8853H10.8727C8.96019 12.8853 7.3643 13.7864 6.98989 14.9864Z" fill="#17057B"/>
<path d="M28.0298 20.2548V15.5269C28.0294 15.4142 28.0183 15.3018 27.9966 15.191C27.7484 13.8916 26.0828 12.8853 24.0633 12.8853H22.3931V22.8977H24.0633C26.2547 22.8971 28.0298 21.714 28.0298 20.2548Z" fill="#17057B"/>
</g>
<defs>
<filter id="filter0_d" x="0.632812" y="0.177734" width="33.7661" height="30.72" filterUnits="userSpaceOnUse" color-interpolation-filters="sRGB">
<feFlood flood-opacity="0" result="BackgroundImageFix"/>
<feColorMatrix in="SourceAlpha" type="matrix" values="0 0 0 0 0 0 0 0 0 0 0 0 0 0 0 0 0 0 127 0"/>
<feOffset dy="4"/>
<feGaussianBlur stdDeviation="2"/>
<feColorMatrix type="matrix" values="0 0 0 0 0 0 0 0 0 0 0 0 0 0 0 0 0 0 0.08 0"/>
<feBlend mode="normal" in2="BackgroundImageFix" result="effect1_dropShadow"/>
<feBlend mode="normal" in="SourceGraphic" in2="effect1_dropShadow" result="shape"/>
</filter>
</defs>
</svg>
