<svg width="113" height="112" viewBox="0 0 113 112" fill="none" xmlns="http://www.w3.org/2000/svg">
<g filter="url(#filter0_d)">
<path d="M56.959 78C71.3184 78 82.959 66.3594 82.959 52C82.959 37.6406 71.3184 26 56.959 26C42.5996 26 30.959 37.6406 30.959 52C30.959 66.3594 42.5996 78 56.959 78Z" fill="#6C27B3"/>
<path d="M68.7773 39.5006C65.6091 39.8942 62.3057 39.8805 58.9812 39.5698C54.3385 39.2193 47.5532 37.1162 45.0532 41.3223C41.0372 48.056 43.018 56.6767 43.9538 64.3056L57.91 78.0002C71.4156 77.2964 82.2396 66.6744 82.959 53.4196L68.7773 39.5006Z" fill="#501A96"/>
<path d="M62.7453 37.1177H50.7147C45.8255 37.1177 41.8479 41.0953 41.8479 45.9845V58.0151C41.8479 62.9041 45.8255 66.882 50.7148 66.882H62.7454C67.6344 66.882 71.6123 62.9043 71.6123 58.0151V45.9845C71.6122 41.0953 67.6345 37.1177 62.7453 37.1177ZM68.6179 58.0152C68.6179 61.2585 65.9887 63.8877 62.7454 63.8877H50.7148C47.4715 63.8877 44.8423 61.2585 44.8423 58.0152V45.9846C44.8423 42.7413 47.4715 40.1119 50.7148 40.1119H62.7454C65.9887 40.1119 68.6179 42.7414 68.6179 45.9846V58.0152Z" fill="white"/>
<path d="M56.7302 44.3018C52.4855 44.3018 49.032 47.7553 49.032 52C49.032 56.2444 52.4855 59.6979 56.7302 59.6979C60.9749 59.6979 64.4281 56.2447 64.4281 52C64.4281 47.7553 60.9749 44.3018 56.7302 44.3018ZM56.7302 56.7037C54.1323 56.7037 52.0262 54.598 52.0262 52C52.0262 49.402 54.1323 47.296 56.7302 47.296C59.3281 47.296 61.4339 49.4019 61.4339 52C61.4339 54.5979 59.3281 56.7037 56.7302 56.7037Z" fill="white"/>
<path d="M66.2873 44.3598C66.2873 45.3785 65.4614 46.2045 64.4426 46.2045C63.4239 46.2045 62.5979 45.3785 62.5979 44.3598C62.5979 43.341 63.4239 42.5151 64.4426 42.5151C65.4616 42.5151 66.2873 43.3408 66.2873 44.3598Z" fill="#D1D1D1"/>
<path d="M62.745 37.1177H56.6714V40.1119H62.745C65.9883 40.1119 68.6176 42.7414 68.6176 45.9846V58.0152C68.6176 61.2585 65.9883 63.8877 62.745 63.8877H56.6714V66.882H62.745C67.634 66.882 71.6118 62.9043 71.6118 58.0151V45.9845C71.6118 41.0953 67.6341 37.1177 62.745 37.1177Z" fill="#D1D1D1"/>
<path d="M56.7299 44.3018C56.7103 44.3018 56.6912 44.3032 56.6716 44.3032V47.2974C56.691 47.2972 56.7103 47.296 56.7299 47.296C59.3278 47.296 61.4336 49.4019 61.4336 52C61.4336 54.5979 59.3279 56.7037 56.7299 56.7037C56.7103 56.7037 56.691 56.7024 56.6716 56.7022V59.6965C56.6912 59.6967 56.7103 59.6979 56.7299 59.6979C60.9746 59.6979 64.4279 56.2446 64.4279 52C64.4279 47.7553 60.9746 44.3018 56.7299 44.3018Z" fill="#D1D1D1"/>
</g>
<defs>
<filter id="filter0_d" x="0.958984" y="0" width="112" height="112" filterUnits="userSpaceOnUse" color-interpolation-filters="sRGB">
<feFlood flood-opacity="0" result="BackgroundImageFix"/>
<feColorMatrix in="SourceAlpha" type="matrix" values="0 0 0 0 0 0 0 0 0 0 0 0 0 0 0 0 0 0 127 0"/>
<feOffset dy="4"/>
<feGaussianBlur stdDeviation="15"/>
<feColorMatrix type="matrix" values="0 0 0 0 0.423529 0 0 0 0 0.152941 0 0 0 0 0.701961 0 0 0 0.39 0"/>
<feBlend mode="normal" in2="BackgroundImageFix" result="effect1_dropShadow"/>
<feBlend mode="normal" in="SourceGraphic" in2="effect1_dropShadow" result="shape"/>
</filter>
</defs>
</svg>
