<svg width="113" height="112" viewBox="0 0 113 112" fill="none" xmlns="http://www.w3.org/2000/svg">
<g filter="url(#filter0_d)">
<path d="M56.9185 78C71.2779 78 82.9185 66.3594 82.9185 52C82.9185 37.6406 71.2779 26 56.9185 26C42.5591 26 30.9185 37.6406 30.9185 52C30.9185 66.3594 42.5591 78 56.9185 78Z" fill="#4376B1"/>
<path d="M82.8179 49.5665L70.9364 37.6733C63.6785 38.6168 56.0936 38.4761 48.8356 38.6448C45.8413 38.6448 42.8469 40.0535 43.3754 43.3991C44.4322 50.0903 44.9606 56.6055 43.7277 63.4728C43.5335 64.3456 43.1251 65.2184 42.5918 66.0324L54.4609 77.8981C55.2192 77.9641 55.9863 77.9999 56.7618 77.9999C71.2076 77.9999 82.9183 66.2926 82.9183 51.8512C82.9185 51.081 82.8833 50.3194 82.8179 49.5665Z" fill="#336699"/>
<path d="M68.5573 36.6123H44.2187C42.734 36.6123 41.5308 37.8585 41.5308 39.3962V64.6039C41.5308 66.1412 42.734 67.3878 44.2187 67.3878H68.5571C70.0414 67.3878 71.245 66.1412 71.245 64.6039V39.3962C71.2453 37.8585 70.0416 36.6123 68.5573 36.6123ZM50.7256 63.1859C50.7256 63.6336 50.3755 63.9962 49.9433 63.9962H46.6139C46.1816 63.9962 45.8315 63.6334 45.8315 63.1859V48.7296C45.8315 48.2819 46.1818 47.9193 46.6139 47.9193H49.9435C50.3757 47.9193 50.7258 48.2822 50.7258 48.7296V63.1859H50.7256ZM48.2785 46.5565C46.5315 46.5565 45.1155 45.0895 45.1155 43.2799C45.1155 41.4707 46.5314 40.0039 48.2785 40.0039C50.0257 40.0039 51.4418 41.4709 51.4418 43.2799C51.4418 45.0897 50.0256 46.5565 48.2785 46.5565ZM68.1264 63.2512C68.1264 63.6627 67.8045 63.9964 67.4075 63.9964H63.8343C63.4373 63.9964 63.1152 63.6628 63.1152 63.2512V56.4701C63.1152 55.4588 63.4017 52.0374 60.5629 52.0374C58.3608 52.0374 57.9142 54.3792 57.8245 55.4298V63.251C57.8245 63.6625 57.5026 63.9962 57.1053 63.9962H53.6496C53.2523 63.9962 52.9301 63.6626 52.9301 63.251V48.6643C52.9301 48.2529 53.2522 47.9191 53.6496 47.9191H57.1053C57.5025 47.9191 57.8245 48.2528 57.8245 48.6643V49.9254C58.6411 48.6563 59.8547 47.6764 62.4381 47.6764C68.1592 47.6764 68.1267 53.2124 68.1267 56.2546V63.2513H68.1264V63.2512Z" fill="white"/>
<path d="M68.5671 36.6123H56.3877V47.919H57.16C57.5557 47.919 57.8764 48.2526 57.8764 48.6642V49.9253C58.6898 48.6562 59.8986 47.6763 62.4719 47.6763C68.1705 47.6763 68.1382 53.2123 68.1382 56.2544V63.2508C68.1382 63.6623 67.8175 63.996 67.4221 63.996H63.8629C63.4675 63.996 63.1467 63.6624 63.1467 63.2508V56.4698C63.1467 55.4585 63.4321 52.0372 60.6045 52.0372C58.411 52.0372 57.9661 54.379 57.8768 55.4295V63.2506C57.8768 63.6621 57.5562 63.9958 57.1604 63.9958H56.3881V67.3878H68.5675C70.0459 67.3878 71.2448 66.1412 71.2448 64.6039V39.3962C71.2444 37.8585 70.0455 36.6123 68.5671 36.6123Z" fill="#D1D1D1"/>
</g>
<defs>
<filter id="filter0_d" x="0.918457" y="0" width="112" height="112" filterUnits="userSpaceOnUse" color-interpolation-filters="sRGB">
<feFlood flood-opacity="0" result="BackgroundImageFix"/>
<feColorMatrix in="SourceAlpha" type="matrix" values="0 0 0 0 0 0 0 0 0 0 0 0 0 0 0 0 0 0 127 0"/>
<feOffset dy="4"/>
<feGaussianBlur stdDeviation="15"/>
<feColorMatrix type="matrix" values="0 0 0 0 0.262745 0 0 0 0 0.462745 0 0 0 0 0.694118 0 0 0 0.42 0"/>
<feBlend mode="normal" in2="BackgroundImageFix" result="effect1_dropShadow"/>
<feBlend mode="normal" in="SourceGraphic" in2="effect1_dropShadow" result="shape"/>
</filter>
</defs>
</svg>
