<svg width="61" height="93" viewBox="0 0 61 93" fill="none" xmlns="http://www.w3.org/2000/svg">
<path d="M27.9916 74.4423L16.1789 67.6177C16.1569 67.6071 16.1327 67.6016 16.1083 67.6016C16.0838 67.6016 16.0597 67.6071 16.0376 67.6177L0.193115 76.8331C0.214175 76.8196 0.238699 76.8123 0.263753 76.8123C0.288806 76.8123 0.31333 76.8196 0.33439 76.8331L12.1471 83.6795C12.3036 83.7902 12.4865 83.8575 12.6773 83.8747C12.8682 83.8919 13.0602 83.8583 13.2339 83.7773L29.0892 74.551C28.9132 74.6325 28.7186 74.6654 28.5256 74.6463C28.3326 74.6271 28.1483 74.5567 27.9916 74.4423Z" fill="#BABABA"/>
<path d="M15.3308 69.3888V83.6902C15.371 84.0773 15.3064 84.4681 15.1439 84.8217C14.9814 85.1754 14.727 85.4789 14.4071 85.7006L30.2081 76.4851C30.5278 76.2612 30.7812 75.9554 30.9418 75.5997C31.1024 75.244 31.1643 74.8517 31.121 74.4638L31.1753 60.1733L15.3308 69.3888Z" fill="#DBDBDB"/>
<path d="M17.5586 48.687L1.70325 57.9133L12.2119 63.9773L28.0564 54.7618L17.5586 48.687Z" fill="#F4F4F4"/>
<path d="M1.74672 37.95L1.70325 57.9132L17.5586 48.6868L17.5912 28.7236L1.74672 37.95Z" fill="#DBDBDB"/>
<path d="M17.5587 28.5931C17.523 28.5172 17.4753 28.4475 17.4174 28.3867C17.2344 28.1959 17.026 28.0313 16.798 27.8976C16.4937 27.7238 16.1894 27.6151 16.059 27.6912L0.214478 36.9501C0.334018 36.874 0.649169 36.9501 0.953454 37.1566C1.18346 37.2829 1.39244 37.4442 1.57289 37.6347C1.62848 37.7013 1.67591 37.7743 1.71416 37.8521C1.72395 37.895 1.72395 37.9396 1.71416 37.9825L17.5587 28.7562C17.5725 28.7027 17.5725 28.6466 17.5587 28.5931Z" fill="#F4F4F4"/>
<path d="M12.2121 63.9771L1.70345 57.9131V37.9499C1.70345 37.7 1.30136 37.3522 0.910136 37.124C0.518913 36.8958 0.105956 36.7871 0.105956 37.0262V57.9023C0.114744 58.177 0.190643 58.4455 0.327031 58.6841C0.463418 58.9228 0.656148 59.1245 0.888401 59.2716L12.2013 65.7919C12.6515 66.0829 13.0256 66.4774 13.2921 66.9425C13.5587 67.4076 13.7101 67.9297 13.7335 68.4653L13.6792 82.7558C13.6792 83.7338 12.9946 84.1359 12.1469 83.6578L0.334169 76.844C-0.11139 76.5831 -0.11139 78.4197 0.334169 78.6697L12.1469 85.4943C13.8748 86.4832 15.2767 85.6791 15.2876 83.6904V69.389C15.2322 68.3096 14.9253 67.2582 14.3913 66.3185C13.8573 65.3789 13.1111 64.577 12.2121 63.9771Z" fill="#C6C6C6"/>
<path d="M30.632 57.8044C30.3231 57.1135 29.9129 56.4725 29.4148 55.9026C29.0271 55.4659 28.5677 55.0984 28.0564 54.8159L12.2119 63.977C12.7231 64.282 13.1817 64.6673 13.5703 65.1181C14.0693 65.6913 14.4796 66.336 14.7875 67.0308C15.1243 67.7726 15.3091 68.5745 15.3308 69.389L31.1753 60.1735C31.159 59.3548 30.974 58.5484 30.632 57.8044Z" fill="#F4F4F4"/>
<g style="mix-blend-mode:screen">
<path d="M29.4147 55.9028L13.5702 65.1183C14.0692 65.6915 14.4794 66.3362 14.7873 67.0309L30.6318 57.8046C30.323 57.1137 29.9128 56.4727 29.4147 55.9028Z" fill="#F4F4F4"/>
</g>
<path d="M31.0779 89.1138L30.7518 88.7117C28.9587 85.2015 28.7957 81.1046 28.8175 77.138C28.8175 76.8989 28.8175 76.6707 28.8175 76.4316C27.5727 76.7276 26.2909 76.8374 25.0139 76.7577C25.4614 78.1229 25.6278 79.5646 25.5029 80.9959C24.995 83.051 25.1085 85.2106 25.829 87.2011C26.1107 88.0661 26.5655 88.8648 27.1656 89.5485C27.7762 90.0362 28.4729 90.4048 29.2196 90.6352C29.4837 90.7525 29.7676 90.8189 30.0563 90.8308C30.2824 90.7962 30.4977 90.7108 30.686 90.5809C30.8742 90.451 31.0305 90.2801 31.1431 90.081C31.393 89.8093 31.5126 89.2333 31.0779 89.1138Z" fill="#F4BD98"/>
<path d="M25.1118 90.7217L26.0138 90.1892V87.4507L24.8292 86.1357L25.1118 90.7217Z" fill="#1C2B63"/>
<path d="M24.1556 90.1239L25.1119 90.7325V86.8746C25.3825 87.2046 25.5556 87.6035 25.6118 88.0265C25.8943 89.624 26.3182 91.917 27.0463 92.2973C28.9589 93.2971 31.654 93.0798 32.1322 92.569C32.3549 92.2366 32.4967 91.8566 32.5462 91.4595C32.5958 91.0624 32.5518 90.6592 32.4177 90.2822C32.2835 89.9051 32.063 89.5647 31.7738 89.2882C31.4846 89.0116 31.1347 88.8065 30.752 88.6894C30.3375 89.1132 29.7785 89.3653 29.1864 89.3955C28.5943 89.4257 28.0126 89.2318 27.557 88.8524C26.6212 87.926 25.9916 86.7351 25.7531 85.4401C25.3362 83.9884 25.2581 82.4603 25.5248 80.9736C24.5794 81.6148 23.5361 82.4516 23.5361 83.5926C23.5685 84.0188 23.6561 84.4389 23.7969 84.8424C24.0932 86.5864 24.2134 88.3558 24.1556 90.1239Z" fill="#293981"/>
<path d="M41.1301 83.4626L40.7715 83.0931C39.2422 80.4777 38.3072 77.5578 38.0329 74.5405L36.794 74.8991C36.5767 74.8991 36.3376 75.0078 36.0768 75.0513H35.5986C35.3378 75.0513 35.077 75.0513 34.8162 75.0513C34.8162 75.3338 34.8162 75.6055 34.8162 75.8772C34.6448 78.1119 35.0371 80.3539 35.9573 82.3976C36.2369 83.1215 36.6881 83.7667 37.2722 84.2776C37.9283 84.7288 38.6668 85.0464 39.4457 85.2122C39.7205 85.3111 40.0128 85.3518 40.3042 85.3317C40.54 85.284 40.7613 85.1814 40.9501 85.0323C41.1389 84.8831 41.2899 84.6916 41.3909 84.4732C41.5104 84.1146 41.5213 83.5387 41.1301 83.4626Z" fill="#F4BD98"/>
<path d="M35.3483 85.6359L36.196 85.0056L35.9352 82.2888L34.6202 81.0825L35.3483 85.6359Z" fill="#1C2B63"/>
<path d="M34.3379 85.125L35.3485 85.6358L35.0008 81.7996C35.2973 82.0975 35.5012 82.475 35.5876 82.8864C36.0223 84.4513 36.6743 86.6899 37.4242 86.9942C39.4237 87.8201 42.0971 87.342 42.5101 86.7877C42.6993 86.4352 42.8038 86.0434 42.8152 85.6434C42.8267 85.2434 42.7448 84.8463 42.576 84.4835C42.4073 84.1207 42.1563 83.8022 41.8431 83.5533C41.5298 83.3043 41.1628 83.1318 40.7713 83.0494C40.4007 83.5123 39.8686 83.8179 39.2819 83.9045C38.6953 83.9912 38.0976 83.8527 37.6089 83.5167C36.5631 82.6824 35.8033 81.5428 35.4354 80.2565C34.891 78.8492 34.6682 77.338 34.7834 75.8335C33.914 76.5616 32.9468 77.4962 33.0555 78.6264C33.1326 79.0495 33.2604 79.4618 33.4359 79.8544C33.917 81.5756 34.2192 83.3418 34.3379 85.125Z" fill="#293981"/>
<path d="M31.5127 64.2055C31.6346 65.5663 31.9644 66.9004 32.4907 68.1612C33.4362 70.4759 34.6642 73.4319 34.6642 75.9313C34.9032 76.4747 37.6744 76.4421 38.2612 75.6596C38.0204 74.3581 37.8463 73.045 37.7396 71.7257C37.5043 68.9319 37.4534 66.1257 37.5875 63.3253C37.6923 61.8971 37.6449 60.4618 37.4462 59.0436C37.0817 57.1511 36.0855 55.4384 34.6207 54.1859C33.7187 53.4904 21.7864 48.3067 18.624 48.035C16.6462 47.8611 12.3319 47.3178 12.484 50.1324C12.5238 51.4159 12.8388 52.676 13.4077 53.8273C13.7555 54.4358 14.3858 55.8268 17.559 57.2179C19.7868 58.185 26.7528 60.2824 27.5787 60.478C30.4911 61.3692 31.3714 62.4994 31.5127 64.2055Z" fill="#242426"/>
<path d="M23.3507 69.0305C23.3332 70.3945 23.52 71.7535 23.9049 73.0622C24.6221 75.4639 25.5567 78.4959 25.3176 80.9953C25.5024 81.5604 28.2518 81.7995 28.9256 81.0823C28.8213 79.7774 28.785 78.4679 28.8169 77.1592C28.8495 74.355 29.0674 71.556 29.469 68.7805C29.6863 67.0961 29.469 61.4016 27.3933 59.402C26.5565 58.6196 15.1676 52.3274 12.0596 51.7949C10.1034 51.4363 7.40835 47.448 6.35422 50.0996C5.86746 51.1963 5.61597 52.3828 5.61597 53.5826C5.61597 54.7824 5.86746 55.9689 6.35422 57.0656C6.65851 57.7067 7.14753 59.1521 10.1686 60.8365C12.2878 62.0102 19.0472 64.7487 19.8297 65.0748C22.8182 66.2919 23.3615 67.3786 23.3507 69.0305Z" fill="#242426"/>
<path d="M35.1638 25.3004C33.8597 25.9416 26.9916 29.7778 26.9916 29.7778C26.4165 26.9518 25.691 24.1586 24.8181 21.41C24.4595 19.9537 24.0574 18.5193 23.6119 17.063C22.8403 14.6396 22.0578 12.9443 19.8083 12.8248C12.4946 12.4336 23.2206 35.2875 24.3834 36.1134C24.7855 36.3851 31.8601 32.375 37.2069 28.0825C37.7285 27.4304 36.0006 25.2026 35.1638 25.3004Z" fill="#293981"/>
<path d="M37.6852 26.822C37.294 27.3437 37.0658 28.0066 36.2942 27.7675C35.8813 27.6371 35.0119 26.5721 35.1314 25.9853C35.2731 24.8949 35.6757 23.8548 36.3051 22.9533C38.4785 19.8887 41.9235 20.3343 42.1626 21.0515C42.5864 22.2578 40.2825 23.1163 40.2825 23.1163C39.5043 24.4106 38.6364 25.6489 37.6852 26.822Z" fill="#F9CFB2"/>
<path d="M24.1229 24.5076C24.3511 23.5621 23.6773 22.2472 22.9383 21.1604C21.887 19.6347 20.9914 18.0073 20.265 16.3028C19.3847 14.2271 18.5914 12.9556 17.7438 13.2273C17.4286 13.336 7.13728 18.8566 6.71346 19.0739C5.73235 19.6118 4.9909 20.5008 4.6378 21.5625C4.15964 22.8231 5.72453 27.5504 6.51784 35.4075C7.00286 40.5966 6.66915 45.8296 5.52892 50.9151C7.90886 53.0016 12.2232 53.5993 15.842 53.0885C19.1022 52.6321 22.1341 50.8607 22.6558 49.1002C22.0198 46.0976 21.559 43.0605 21.2756 40.0043C20.7975 32.4407 23.2535 28.0938 24.1229 24.5076Z" fill="#E8E8E8"/>
<path d="M9.68016 12.4882C10.0388 11.9666 15.4942 11.0102 16.7222 15.4115C17.9502 19.8127 15.6354 20.5191 15.6354 20.5191C13.5924 21.3342 11.0712 19.0194 10.0497 17.911C9.94824 17.81 9.88983 17.6737 9.88664 17.5306C9.85404 16.5526 9.63669 12.5425 9.68016 12.4882Z" fill="#F2C3A0"/>
<path d="M17.7004 15.455C17.4505 16.3679 17.1788 17.4763 16.2877 17.748C15.2009 18.0849 12.4298 16.7917 11.0931 15.0855C10.4238 14.3147 9.95392 13.3915 9.72466 12.3967C9.4954 11.402 9.51377 10.3662 9.77815 9.38021C10.3966 8.11141 11.2915 6.99737 12.3972 6.12002C13.081 5.62265 13.8357 5.23069 14.6358 4.95722C16.8962 4.07697 18.8306 4.27258 18.8849 6.54385C18.9556 7.66931 18.9556 8.7981 18.8849 9.92357C18.7642 11.8156 18.3651 13.6795 17.7004 15.455Z" fill="#F9CFB2"/>
<path d="M19.3301 7.40224C19.5583 4.65281 19.2649 1.65344 15.7765 0.349367C14.1246 -0.280936 12.6793 0.00161391 10.7667 0.718855C9.76186 1.12884 8.86753 1.76933 8.15586 2.5886C7.44418 3.40788 6.93509 4.383 6.66968 5.43526C6.12632 7.73913 6.88703 10.3364 7.58253 12.3251C8.1911 14.0856 11.1687 18.2478 13.3748 19.215C12.4402 17.411 12.0273 12.336 12.2881 10.4125C12.6684 7.77173 17.0588 5.39179 18.5694 6.16337C18.6504 6.20071 18.719 6.26047 18.7672 6.33557C18.8153 6.41067 18.8409 6.49798 18.8411 6.58719C18.8411 7.67392 18.4716 11.2927 18.352 12.0208C18.8839 10.5322 19.2129 8.9787 19.3301 7.40224Z" fill="#54361F"/>
<path d="M24.014 39.3519C22.5795 39.0803 13.7118 36.4069 13.7118 36.4069C13.1367 33.5809 12.4112 30.7877 11.5383 28.0391C11.1797 26.5937 10.7776 25.1484 10.332 23.6922C9.65826 21.6056 8.98449 20.0408 7.32179 19.5626C6.81626 19.4361 6.28123 19.5142 5.83297 19.7799C-0.0679677 23.4205 9.51699 39.7649 10.6363 40.5582C14.8658 42.1856 19.3751 42.9612 23.9053 42.8403C24.7747 42.5904 24.7421 39.7758 24.014 39.3519Z" fill="#293981"/>
<path d="M25.0464 42.1665C24.427 42.3513 23.8401 42.7425 23.3728 42.0905C23.2114 41.7456 23.1397 41.3656 23.1644 40.9856C23.1891 40.6056 23.3094 40.2381 23.5141 39.917C24.2817 39.1322 25.2292 38.5466 26.2744 38.2108C29.8497 37.0698 32.3384 39.4932 32.0993 40.2104C31.708 41.4276 29.3607 40.7321 29.3607 40.7321C27.9579 41.3105 26.5163 41.7898 25.0464 42.1665Z" fill="#F9CFB2"/>
<path d="M6.51792 7.13037C6.47424 7.68025 6.51455 8.23358 6.63746 8.77133C7.3873 10.7926 12.4949 12.9444 12.7775 13.0422L13.0383 11.9554C11.5929 11.3903 7.09388 8.91261 6.51792 7.13037Z" fill="#646060"/>
<path d="M19.5803 9.11924C19.6531 8.66865 19.35 8.43255 18.9274 8.59546L12.8396 10.9145C12.6084 11.014 12.4044 11.1673 12.2447 11.3618C12.085 11.5562 11.9742 11.7861 11.9215 12.0322L11.516 14.5426C11.4432 14.9932 11.7356 15.2275 12.1689 15.0664L18.2567 12.7473C18.4851 12.6448 18.6862 12.4901 18.8438 12.2957C19.0014 12.1013 19.1111 11.8725 19.1641 11.6279L19.5803 9.11924Z" fill="#2B2B2D"/>
<path d="M15.4671 13.089C15.4456 13.1639 15.4072 13.2328 15.355 13.2906C15.3028 13.3483 15.238 13.3934 15.1657 13.4222C15.026 13.4639 14.9303 13.3808 14.9491 13.2738C14.9703 13.2004 15.0085 13.133 15.0605 13.077C15.1125 13.021 15.1769 12.9779 15.2485 12.9513C15.3902 12.899 15.4897 12.9606 15.4671 13.089ZM16.2631 12.578C16.1928 12.6055 16.13 12.6492 16.0798 12.7055C16.0296 12.7619 15.9935 12.8294 15.9744 12.9024C15.9518 13.0308 16.0387 13.1013 16.1803 13.049C16.254 13.0223 16.32 12.978 16.3725 12.9199C16.4251 12.8618 16.4625 12.7917 16.4816 12.7158C16.5042 12.5873 16.4154 12.5276 16.2631 12.578ZM17.2884 12.2066C17.2152 12.234 17.1496 12.2786 17.0972 12.3366C17.0448 12.3945 17.007 12.4642 16.987 12.5398C16.9645 12.6682 17.064 12.7299 17.2056 12.6775C17.2779 12.6486 17.3426 12.6036 17.3948 12.5459C17.4471 12.4881 17.4854 12.4192 17.5069 12.3443C17.5081 12.2121 17.43 12.1543 17.2884 12.2066Z" fill="#AEF7FF"/>
<g opacity="0.9">
<path opacity="0.9" d="M28.7191 32.017L22.8182 35.4402C21.9271 35.951 21.199 35.6467 21.199 34.7556V28.8329C21.2504 28.3102 21.4236 27.8069 21.7049 27.3634C21.9861 26.9199 22.3674 26.5485 22.8182 26.2791L28.7191 22.8233C29.6103 22.3125 30.3384 22.6168 30.3384 23.5079V29.4306C30.2919 29.9589 30.121 30.4688 29.8395 30.9183C29.5581 31.3679 29.1741 31.7444 28.7191 32.017Z" fill="#B0D344"/>
<path opacity="0.9" d="M43.553 23.4531L37.6412 26.8763C36.7392 27.3871 36.0111 27.0828 36.0111 26.1917V20.269C36.0629 19.7437 36.2374 19.2379 36.5205 18.7924C36.8037 18.3469 37.1876 17.9742 37.6412 17.7043L43.553 14.292C44.455 13.7703 45.1722 14.0855 45.1722 14.9766V20.8993C45.1225 21.4224 44.95 21.9264 44.6686 22.3702C44.3872 22.814 44.005 23.185 43.553 23.4531Z" fill="#293981"/>
<path opacity="0.9" d="M58.3979 14.89L52.4752 18.3024C51.5841 18.824 50.856 18.5197 50.856 17.6177V11.7059C50.9074 11.1818 51.0806 10.677 51.3617 10.2317C51.6428 9.78646 52.0241 9.41303 52.4752 9.14124L58.3979 5.72891C59.289 5.20728 60.0171 5.51157 60.0171 6.41355V12.3254C59.9656 12.8494 59.7925 13.3543 59.5113 13.7995C59.2302 14.2448 58.8489 14.6182 58.3979 14.89Z" fill="#459133"/>
<path opacity="0.9" d="M28.7191 45.6445L22.8182 49.1003C21.9271 49.6219 21.199 49.3176 21.199 48.4156V42.5038C21.2504 41.9798 21.4236 41.4749 21.7047 41.0297C21.9859 40.5844 22.3672 40.2109 22.8182 39.9392L28.7409 36.5268C29.632 36.0052 30.3601 36.3204 30.3601 37.2115V43.1341C30.2982 43.6506 30.1179 44.1459 29.8333 44.5813C29.5487 45.0167 29.1674 45.3806 28.7191 45.6445Z" fill="#E6AF51"/>
<path opacity="0.9" d="M43.553 37.1244L37.6412 40.5367C36.7392 41.0584 36.0111 40.7541 36.0111 39.8521V33.9403C36.0629 33.415 36.2374 32.9092 36.5205 32.4637C36.8037 32.0182 37.1876 31.6455 37.6412 31.3756L43.553 27.9633C44.455 27.4417 45.1722 27.7459 45.1722 28.6479V34.5597C45.1233 35.0845 44.9512 35.5903 44.6698 36.036C44.3884 36.4817 44.0058 36.8546 43.553 37.1244Z" fill="#993D99"/>
<path opacity="0.9" d="M58.3979 28.5502L52.4752 31.9734C51.5841 32.495 50.856 32.1799 50.856 31.2887V25.3661C50.909 24.8453 51.083 24.3442 51.3642 23.9027C51.6453 23.4612 52.0258 23.0915 52.4752 22.8231L58.3979 19.3999C59.289 18.8892 60.0171 19.1935 60.0171 20.0846V26.0072C59.9649 26.5282 59.7912 27.0297 59.51 27.4713C59.2288 27.913 58.8478 28.2825 58.3979 28.5502Z" fill="#6E3D91"/>
<path opacity="0.9" d="M28.7191 59.3588L22.8182 62.7711C21.9271 63.2927 21.199 62.9776 21.199 62.0865V56.1638C21.252 55.6416 21.426 55.139 21.707 54.6957C21.9881 54.2524 22.3685 53.8807 22.8182 53.61L28.7409 50.1977C29.632 49.676 30.3601 49.9803 30.3601 50.8823V56.7941C30.3063 57.3202 30.1298 57.8263 29.8448 58.2717C29.5598 58.7171 29.1742 59.0895 28.7191 59.3588Z" fill="#45B7BA"/>
<path opacity="0.9" d="M43.553 50.7847L37.6412 54.2079C36.7392 54.7187 36.0111 54.4144 36.0111 53.5232V47.6006C36.0628 47.0767 36.2374 46.5724 36.5207 46.1287C36.8039 45.6849 37.1878 45.3143 37.6412 45.0468L43.553 41.6236C44.455 41.1128 45.1722 41.4171 45.1722 42.3082V48.2309C45.1225 48.754 44.95 49.258 44.6686 49.7018C44.3872 50.1456 44.005 50.5166 43.553 50.7847Z" fill="#D8CE4C"/>
<path opacity="0.9" d="M58.3979 42.2212L52.4752 45.6444C51.5841 46.1551 50.856 45.8508 50.856 44.9597V39.037C50.9065 38.5142 51.0794 38.0105 51.3607 37.5669C51.642 37.1232 52.0238 36.752 52.4752 36.4832L58.3979 33.06C59.289 32.5384 60.0171 32.8536 60.0171 33.7447V39.6673C59.9657 40.19 59.7924 40.6933 59.5112 41.1368C59.23 41.5804 58.8487 41.9517 58.3979 42.2212Z" fill="#BC4444"/>
</g>
<g style="mix-blend-mode:overlay" opacity="0.9">
<path d="M44.1619 45.5247C44.238 45.4377 44.2815 45.329 44.2489 45.2638L44.0098 44.6879C43.9011 44.4162 43.3034 45.2638 43.1187 45.1008C42.7057 44.7531 42.6514 45.1008 42.9122 44.1445C42.9122 44.0467 42.9122 43.9706 42.8253 43.9815L42.1515 44.0358C41.8363 44.0358 41.7711 44.8726 41.4451 45.003C40.7387 45.2856 40.9561 45.4595 40.5431 44.9052C40.5431 44.9052 40.4127 44.9052 40.3258 44.9052L39.6194 45.5573C39.2717 45.8724 39.7824 46.1658 39.5107 46.5136C38.9022 47.2852 39.3043 47.1113 38.424 47.3395C38.3754 47.3568 38.3309 47.3841 38.2935 47.4197C38.256 47.4553 38.2265 47.4983 38.2067 47.546L37.8807 48.4154C37.8807 48.5132 37.8806 48.6001 37.935 48.611C38.6414 48.6979 38.3914 48.611 38.3914 49.3065C38.3926 49.3467 38.3855 49.3868 38.3706 49.4242C38.3556 49.4616 38.3331 49.4955 38.3045 49.5238C37.5872 50.3171 37.6307 50.0889 37.9676 50.904C37.9676 50.9692 38.0871 50.9692 38.1741 50.904C39.0326 50.2628 38.6631 50.4693 39.1847 50.6758C39.3912 50.7627 38.8478 51.6321 39.1847 51.6103C40.141 51.5343 39.9454 51.6103 40.391 50.7627C40.4081 50.7225 40.4333 50.6863 40.4651 50.6563C40.4969 50.6264 40.5346 50.6034 40.5757 50.5888C40.7279 50.5236 40.8909 50.4367 41.0539 50.3497C41.2169 50.2628 41.3582 50.9474 41.6842 50.6432C42.6949 49.7303 42.5645 49.9476 42.4232 49.263C42.4211 49.221 42.4278 49.1791 42.4427 49.1398C42.4577 49.1005 42.4806 49.0648 42.5101 49.0348C42.6419 48.8672 42.7653 48.6931 42.8796 48.5132C43.1078 48.1328 43.6294 48.4154 43.7925 48.0024L44.1293 47.1439C44.2815 46.7418 43.5208 47.0678 43.5642 46.7527C43.6729 45.9811 43.3578 46.4158 44.1619 45.5247ZM40.4019 49.3825C38.7718 49.5347 39.9672 46.394 41.5864 46.2419C43.2056 46.0898 42.0211 49.2304 40.4019 49.3825Z" fill="white"/>
</g>
<g style="mix-blend-mode:overlay" opacity="0.9">
<path d="M57.2462 36.1569C56.855 35.331 55.6813 35.4614 54.6272 36.4612C53.573 37.461 53.0297 38.939 53.41 39.7757C53.7904 40.6125 54.8445 40.4821 55.8552 39.6345L56.1377 40.243L56.0725 40.3082C56.0098 40.3553 55.9614 40.4188 55.9326 40.4917C55.9038 40.5646 55.8958 40.644 55.9095 40.7212L56.5072 42.047C56.5072 42.1557 56.7028 42.1339 56.8332 42.047L57.344 41.5688C57.4038 41.5174 57.4493 41.4513 57.476 41.377C57.5026 41.3027 57.5096 41.2228 57.4961 41.145L56.8876 39.8192C56.8876 39.7214 56.6811 39.7323 56.5507 39.8192L56.4855 39.8844L56.2029 39.265C56.6358 38.8852 56.9604 38.3976 57.1437 37.8516C57.3269 37.3057 57.3623 36.721 57.2462 36.1569ZM53.7035 39.5041C53.5971 38.9837 53.6374 38.444 53.8196 37.9451C54.0019 37.4463 54.3191 37.0078 54.7358 36.6786C55.627 35.8309 56.6268 35.7222 56.9093 36.4286C57.0156 36.949 56.9754 37.4887 56.7931 37.9875C56.6108 38.4864 56.2937 38.9249 55.8769 39.2541C55.0293 40.1018 54.0295 40.2104 53.7035 39.5041Z" fill="white"/>
</g>
<g style="mix-blend-mode:overlay" opacity="0.9">
<path d="M54.8663 13.5095L54.7142 13.5964L53.2471 15.5308L53.4862 14.2919L53.3775 14.3571C53.0515 14.5419 52.7798 14.4332 52.7798 14.1072V11.7924C52.8007 11.6012 52.8656 11.4173 52.9693 11.2552C53.0729 11.0931 53.2126 10.9571 53.3775 10.8579L57.268 8.60833C57.594 8.42358 57.8657 8.53226 57.8657 8.85827V9.945L55.5292 11.336C55.3396 11.4506 55.1804 11.6092 55.065 11.7984C54.9496 11.9875 54.8815 12.2017 54.8663 12.4227V13.5095ZM55.1706 12.2923V14.0202C55.1706 14.2593 55.3662 14.3463 55.6053 14.205L57.5397 13.1183L58.6264 13.3139L58.4416 12.5966H58.5286C58.652 12.5209 58.7563 12.4178 58.8336 12.2953C58.9108 12.1728 58.9589 12.0342 58.9741 11.8902V10.108C58.9741 9.85807 58.7677 9.77113 58.5286 9.9124L55.6161 11.5968C55.493 11.6702 55.3886 11.7713 55.3113 11.892C55.234 12.0127 55.1858 12.1498 55.1706 12.2923Z" fill="white"/>
</g>
<g style="mix-blend-mode:overlay" opacity="0.9">
<path d="M53.2472 25.6373C53.3837 25.3515 53.5985 25.1103 53.8666 24.9418L57.768 22.6922C57.8577 22.626 57.9662 22.5903 58.0777 22.5903C58.1892 22.5903 58.2977 22.626 58.3874 22.6922L55.7901 25.7894C55.5728 25.7351 54.899 25.7025 53.2472 25.6373ZM58.4852 25.4525C58.4955 25.3768 58.4955 25.3 58.4852 25.2243V23.0509C58.4903 23.0112 58.4903 22.971 58.4852 22.9313L56.5074 25.3765L58.4852 25.4525ZM53.1385 25.985C53.1334 26.0392 53.1334 26.0938 53.1385 26.148V28.3215C53.1262 28.3825 53.1262 28.4453 53.1385 28.5062L55.2576 26.0828L53.1385 25.985ZM56.1379 25.7133L55.8227 26.0937H55.4967L53.3232 28.7344C53.4112 28.7894 53.5129 28.8185 53.6167 28.8185C53.7204 28.8185 53.8221 28.7894 53.9101 28.7344L57.8114 26.4741C58.0592 26.3242 58.262 26.1102 58.3983 25.8546L56.1379 25.7133Z" fill="white"/>
</g>
<g style="mix-blend-mode:overlay" opacity="0.9">
<path d="M42.2272 16.1611L39.217 17.8999C39.0479 18.0007 38.9048 18.1397 38.7991 18.3058C38.6935 18.4718 38.6281 18.6604 38.6084 18.8562V24.4746C38.6084 24.8006 38.8801 24.9202 39.217 24.7245L42.2272 22.9858C42.3974 22.8863 42.5414 22.7476 42.6473 22.5813C42.7531 22.415 42.8177 22.2258 42.8358 22.0295V16.4219C42.8358 16.085 42.5641 15.9655 42.2272 16.1611ZM40.7275 23.6595C40.4993 23.7791 40.3146 23.6595 40.3146 23.4857C40.3277 23.3537 40.372 23.2268 40.4438 23.1153C40.5155 23.0038 40.6128 22.911 40.7275 22.8445C40.9449 22.7141 41.1296 22.7902 41.1296 23.0184C41.1152 23.1486 41.0716 23.274 41.002 23.385C40.9324 23.496 40.8385 23.5899 40.7275 23.6595ZM42.5315 21.6056L38.9127 23.6921V18.6715C38.9221 18.5692 38.9556 18.4706 39.0104 18.3838C39.0651 18.2969 39.1396 18.2242 39.2278 18.1716L42.2163 16.4545C42.3902 16.3459 42.5315 16.4545 42.5315 16.5849V21.6056Z" fill="white"/>
</g>
<g style="mix-blend-mode:overlay" opacity="0.9">
<path d="M43.7056 31.8211L40.804 31.1147L39.4674 32.9839V32.5818L38.8479 32.9296V33.8424L37.9025 35.1682L38.4676 34.8531V37.9829L43.1514 35.2878V32.1471L43.7056 31.8211Z" fill="white"/>
</g>
<g style="mix-blend-mode:overlay" opacity="0.9">
<path d="M28.9695 40.0586C28.9106 39.9499 28.8286 39.8553 28.7292 39.7817C28.6299 39.708 28.5157 39.6569 28.3945 39.632C28.2733 39.6072 28.1482 39.6091 28.0279 39.6378C27.9076 39.6664 27.795 39.721 27.698 39.7978L23.8618 41.9713C23.2552 42.3873 22.8071 42.9963 22.5904 43.6992C22.5904 43.6992 21.4384 47.2528 22.6664 46.9594C23.2031 46.7402 23.6428 46.3351 23.9053 45.8183L24.7421 44.1013C24.8362 43.8959 24.9919 43.725 25.1877 43.6122L26.4483 42.8841C26.6221 42.7755 26.796 42.7646 26.8938 42.8841L27.7197 43.6448C27.9181 43.7485 28.1451 43.7833 28.3654 43.744C28.5857 43.7047 28.7867 43.5933 28.9369 43.4275C30.1214 42.2864 28.9695 40.0586 28.9695 40.0586ZM24.7204 43.0254L24.0249 43.4275V44.1121L23.7206 44.286V43.5905L23.0359 43.9926V43.6992L23.7206 43.2971V42.6016L24.0249 42.4277V43.1232L24.7204 42.7211V43.0254ZM26.8177 41.2975C26.6765 41.3736 26.5569 41.2975 26.5569 41.1888C26.5668 41.1049 26.5953 41.0242 26.6404 40.9527C26.6856 40.8813 26.7462 40.8208 26.8177 40.7759C26.959 40.6998 27.0786 40.7759 27.0786 40.8845C27.0687 40.9685 27.0402 41.0492 26.9951 41.1207C26.9499 41.1921 26.8893 41.2526 26.8177 41.2975ZM27.2198 42.0256C27.0786 42.1017 26.959 42.0256 26.959 41.9169C26.9673 41.8325 26.9951 41.7512 27.0404 41.6795C27.0857 41.6078 27.1472 41.5477 27.2198 41.504C27.3611 41.417 27.4807 41.504 27.4807 41.6127C27.4708 41.6966 27.4423 41.7773 27.3972 41.8488C27.352 41.9202 27.2914 41.9807 27.2198 42.0256ZM27.8501 40.6998C27.7089 40.7759 27.5893 40.6998 27.5893 40.5911C27.5991 40.5072 27.6277 40.4265 27.6728 40.355C27.718 40.2836 27.7786 40.2231 27.8501 40.1782C27.9914 40.1021 28.111 40.1782 28.111 40.2868C28.1011 40.3708 28.0726 40.4515 28.0275 40.523C27.9823 40.5944 27.9217 40.6549 27.8501 40.6998ZM28.2631 41.4279C28.111 41.504 28.0023 41.4279 28.0023 41.3192C28.0088 41.2344 28.0359 41.1523 28.0814 41.0804C28.1268 41.0084 28.1892 40.9486 28.2631 40.9063C28.4044 40.8193 28.513 40.9063 28.513 41.015C28.5048 41.0994 28.4769 41.1807 28.4317 41.2524C28.3864 41.3241 28.3249 41.3842 28.2522 41.4279H28.2631Z" fill="white"/>
</g>
<g style="mix-blend-mode:overlay" opacity="0.9">
<path d="M27.0678 29.126C27.3385 28.8742 27.5551 28.5699 27.7045 28.2318C27.854 27.8937 27.9331 27.5287 27.9372 27.159V26.3874C27.9372 25.8875 27.7959 25.5724 27.5025 25.4529C27.2971 25.4102 27.085 25.4123 26.8805 25.4592C26.6761 25.5061 26.4842 25.5966 26.318 25.7245L23.9815 27.0721C23.9204 27.1021 23.8688 27.1485 23.8323 27.206C23.7959 27.2635 23.7761 27.33 23.775 27.3981V33.2773C23.775 33.4077 23.8511 33.4403 23.9815 33.3642L24.8183 32.8752C24.8778 32.846 24.9284 32.8014 24.9647 32.7459C25.001 32.6905 25.0218 32.6263 25.0248 32.5601V30.5061C25.0246 30.4684 25.0359 30.4315 25.0573 30.4005C25.0786 30.3694 25.109 30.3456 25.1443 30.3323L25.7963 29.9519L26.7744 31.5059C26.7744 31.5711 26.8505 31.6037 26.9048 31.5929C26.9955 31.5827 27.0837 31.557 27.1656 31.5168L27.9589 31.0604C28.1219 30.9626 28.1871 30.8539 28.1219 30.7344L27.0678 29.126ZM26.6983 27.8763C26.7009 28.058 26.6478 28.2363 26.5462 28.387C26.4253 28.5528 26.2695 28.6901 26.0898 28.7891L25.1334 29.3433C25.0574 29.3433 25.0248 29.3433 25.0248 29.289V27.6154C25.0237 27.579 25.0334 27.543 25.0528 27.512C25.0721 27.4811 25.1002 27.4566 25.1334 27.4416L26.0898 26.8873C26.2191 26.786 26.3829 26.7393 26.5462 26.7569C26.644 26.7569 26.6983 26.9091 26.6983 27.1155V27.8763Z" fill="white"/>
</g>
<g style="mix-blend-mode:overlay" opacity="0.9">
<path d="M29.2301 55.2185C29.2301 54.523 28.9258 54.0013 28.4477 53.9361C28.1295 53.9012 27.8101 53.9908 27.5565 54.1861C27.5096 53.9741 27.386 53.787 27.2095 53.6606C27.033 53.5342 26.816 53.4776 26.6002 53.5014C26.066 53.6241 25.6015 53.952 25.307 54.4143C24.9289 54.8903 24.6683 55.4488 24.5463 56.0444C23.8182 56.0444 22.9923 56.9464 22.5902 58.0874C22.408 58.5801 22.3447 59.1088 22.4055 59.6306C22.4053 59.7667 22.4438 59.9 22.5166 60.0151C22.5894 60.1301 22.6934 60.222 22.8164 60.2801C22.9395 60.3382 23.0766 60.3601 23.2116 60.3433C23.3467 60.3264 23.4741 60.2714 23.5791 60.1848L28.0238 57.5984C28.4018 57.3308 28.7091 56.9754 28.9192 56.5627C29.1293 56.15 29.236 55.6924 29.2301 55.2293V55.2185Z" fill="white"/>
</g>
</svg>
