<svg width="52" height="90" viewBox="0 0 52 90" fill="none" xmlns="http://www.w3.org/2000/svg">
<g clip-path="url(#clip0)">
<path d="M23.5043 63.2589L13.5861 57.462C13.5684 57.4505 13.5478 57.4443 13.5268 57.4443C13.5057 57.4443 13.4851 57.4505 13.4674 57.462L0.164062 65.2897C0.181745 65.2782 0.202335 65.272 0.223371 65.272C0.244407 65.272 0.264997 65.2782 0.28268 65.2897L10.2009 71.0774C10.3323 71.1714 10.4858 71.2286 10.6461 71.2432C10.8063 71.2577 10.9675 71.2292 11.1134 71.1604L24.4259 63.3328C24.2797 63.4046 24.1172 63.4356 23.9552 63.4226C23.7931 63.4097 23.6375 63.3531 23.5043 63.2589Z" fill="#BABABA"/>
<path d="M12.8742 58.9663V71.1048C12.9096 71.4351 12.8562 71.7689 12.7197 72.0711C12.5832 72.3733 12.3687 72.6326 12.0986 72.8217L25.3655 64.9848C25.6324 64.7954 25.8443 64.5371 25.9791 64.2367C26.1139 63.9364 26.1667 63.605 26.132 63.2771L26.1776 51.1294L12.8742 58.9663Z" fill="#DBDBDB"/>
<path d="M14.7451 41.3818L1.43262 49.2095L10.2559 54.3695L23.5593 46.5326L14.7451 41.3818Z" fill="#F4F4F4"/>
<path d="M1.46911 32.2617L1.43262 49.2094L14.7451 41.3817L14.7725 24.4248L1.46911 32.2617Z" fill="#DBDBDB"/>
<path d="M14.7452 24.3141C14.7131 24.248 14.6732 24.186 14.6266 24.1295C14.475 23.9676 14.2996 23.8306 14.1065 23.7233C13.851 23.5664 13.5955 23.4833 13.486 23.5479L0.182617 31.3848C0.282986 31.3202 0.547593 31.3848 0.803077 31.5602C0.994528 31.6738 1.16955 31.8136 1.32317 31.9756C1.36981 32.0288 1.40966 32.0877 1.44179 32.151C1.44919 32.1907 1.44919 32.2314 1.44179 32.271L14.7452 24.4341C14.7548 24.3947 14.7548 24.3535 14.7452 24.3141Z" fill="#F4F4F4"/>
<path d="M10.2555 54.3696L1.4322 49.2096L1.4687 32.308C1.4687 32.0957 1.1311 31.7911 0.80262 31.5973C0.474141 31.4034 0.127414 31.3111 0.127414 31.5234V49.2465C0.135646 49.4809 0.199662 49.7099 0.31403 49.914C0.428397 50.1181 0.589741 50.2913 0.784371 50.4188L10.2829 55.9573C10.6455 56.2001 10.9473 56.5251 11.1643 56.9064C11.3812 57.2878 11.5074 57.715 11.5329 58.1542L11.4873 70.3019C11.4873 71.1234 10.9125 71.4742 10.2008 71.0588L0.282529 65.2988C-0.091572 65.0773 -0.091572 66.628 0.282529 66.8496L10.2008 72.6373C11.6515 73.4865 12.8286 72.8034 12.8377 71.1049V58.9665C12.7934 58.0492 12.5366 57.1552 12.0881 56.3567C11.6395 55.5583 11.0118 54.8776 10.2555 54.3696Z" fill="#C6C6C6"/>
<path d="M25.7217 49.1266C25.4632 48.5364 25.1187 47.9888 24.6998 47.5019C24.3756 47.1169 23.9901 46.7893 23.5592 46.5327L10.2559 54.3696C10.6885 54.6426 11.0738 54.9856 11.3964 55.385C11.8172 55.8705 12.1618 56.4184 12.4183 57.0096C12.7021 57.6395 12.8573 58.3208 12.8746 59.0127L26.178 51.1758C26.1707 50.4678 26.0152 49.7694 25.7217 49.1266Z" fill="#F4F4F4"/>
<g style="mix-blend-mode:screen">
<path d="M24.6999 47.5015L11.3965 55.3845C11.8172 55.87 12.1619 56.4179 12.4184 57.0092L25.7218 49.1722C25.4673 48.5659 25.1227 48.0024 24.6999 47.5015Z" fill="#F4F4F4"/>
</g>
<path d="M26.0953 75.6923L25.8216 75.36C24.3161 72.3692 24.1792 68.8984 24.1974 65.5292C24.1974 65.3169 24.1974 65.1323 24.1974 64.9292C23.1516 65.176 22.076 65.2693 21.0039 65.2061C21.3806 66.3655 21.5203 67.5904 21.4145 68.8061C20.988 70.5517 21.0833 72.3861 21.6882 74.0769C21.9246 74.8173 22.3063 75.5017 22.8105 76.0892C23.3207 76.5073 23.9064 76.8208 24.5351 77.0123C24.7548 77.1191 24.994 77.1788 25.2376 77.1877C25.4262 77.1546 25.6054 77.0805 25.763 76.9705C25.9205 76.8606 26.0526 76.7174 26.1501 76.5507C26.3599 76.3015 26.4603 75.8215 26.0953 75.6923Z" fill="#F4BD98"/>
<path d="M21.0859 77.0863L21.8432 76.6247V74.2986L20.8486 73.1816L21.0859 77.0863Z" fill="#344A9B"/>
<path d="M20.2835 76.6152L21.0864 77.1229V73.8552C21.3102 74.1428 21.4493 74.4883 21.4879 74.8521C21.7251 76.2183 22.081 78.1568 22.6923 78.4798C24.2982 79.3383 26.561 79.1537 26.9625 78.7198C27.1495 78.4374 27.2686 78.1147 27.3102 77.7774C27.3518 77.4401 27.3148 77.0976 27.2022 76.7774C27.0896 76.4571 26.9045 76.168 26.6616 75.933C26.4188 75.6981 26.125 75.5239 25.8037 75.4245C25.4534 75.7812 24.9837 75.9923 24.4872 76.0162C23.9908 76.0401 23.5034 75.8751 23.1211 75.5537C22.3356 74.7703 21.8069 73.7618 21.6065 72.6645C21.2565 71.4313 21.1909 70.1334 21.4149 68.8706C20.6211 69.4152 19.7451 70.1168 19.7451 71.0952C19.7732 71.4571 19.8468 71.8138 19.9641 72.1568C20.2172 73.6284 20.3241 75.122 20.2835 76.6152Z" fill="#242426"/>
<path d="M34.5351 70.9203L34.234 70.6064C32.95 68.3849 32.165 65.9047 31.9347 63.3418L30.8763 63.6926C30.6938 63.6926 30.493 63.7756 30.274 63.8126C30.1406 63.826 30.0061 63.826 29.8726 63.8126C29.6538 63.8264 29.4344 63.8264 29.2156 63.8126C29.2156 64.0526 29.2156 64.2926 29.2156 64.5141C29.074 66.4122 29.4034 68.3159 30.1737 70.0526C30.411 70.6634 30.7896 71.2079 31.2777 71.6403C31.8244 72.0312 32.4461 72.3017 33.1026 72.4341C33.3323 72.5224 33.5787 72.5571 33.8234 72.5356C34.0216 72.4989 34.2081 72.4142 34.367 72.2889C34.5258 72.1635 34.6524 72.0012 34.7359 71.8156C34.8545 71.4741 34.8636 70.9849 34.5351 70.9203Z" fill="#F4BD98"/>
<path d="M29.6816 72.7569L30.3934 72.2308L30.1744 69.9138L29.0703 68.8984L29.6816 72.7569Z" fill="#344A9B"/>
<path d="M28.8327 72.3322L29.6813 72.7568L29.3893 69.5076C29.6384 69.7606 29.8095 70.0812 29.8821 70.4307C30.247 71.7599 30.7945 73.6522 31.4241 73.9199C33.103 74.6122 35.3476 74.2153 35.6943 73.7445C35.8552 73.4454 35.9445 73.1123 35.9551 72.7719C35.9657 72.4316 35.8972 72.0934 35.7553 71.7847C35.6133 71.4759 35.4018 71.2051 35.1377 70.994C34.8735 70.7829 34.5642 70.6374 34.2344 70.5691C33.922 70.9605 33.4754 71.2187 32.9834 71.2922C32.4915 71.3657 31.9902 71.2493 31.5792 70.966C30.7011 70.2574 30.0632 69.2894 29.7543 68.1968C29.297 66.9983 29.11 65.7116 29.2068 64.4307C28.4769 65.0584 27.6648 65.843 27.7561 66.8122C27.822 67.1683 27.9292 67.5153 28.0754 67.846C28.4794 69.3112 28.7332 70.8145 28.8327 72.3322Z" fill="#242426"/>
<path d="M26.4606 54.563C26.5641 55.7187 26.841 56.8517 27.2818 57.923C28.0756 59.8892 29.1067 62.3907 29.1067 64.5138C29.3074 64.9753 31.6341 64.9569 32.1269 64.2923C31.9253 63.1959 31.7791 62.0898 31.6889 60.9784C31.4912 58.6054 31.4485 56.2217 31.5611 53.843C31.6492 52.633 31.6094 51.4169 31.4425 50.2153C31.1406 48.6063 30.3034 47.1502 29.0702 46.0892C28.3037 45.4892 18.2943 41.0953 15.6391 40.8646C13.9784 40.7169 10.356 40.2553 10.4838 42.6461C10.5194 43.7361 10.7837 44.8059 11.2593 45.7846C11.5513 46.3015 12.0805 47.483 14.7449 48.6553C16.6154 49.4769 22.4641 51.2584 23.1576 51.4246C25.6029 52.1538 26.342 53.1138 26.4606 54.563Z" fill="#242426"/>
<path d="M19.6077 58.6618C19.5937 59.8204 19.7505 60.9746 20.073 62.0864C20.6752 64.1172 21.4599 66.7018 21.2592 68.8249C21.4143 69.3049 23.7228 69.508 24.2885 68.8895C24.1997 67.775 24.1693 66.6565 24.1972 65.5387C24.2246 63.1568 24.4075 60.7793 24.7447 58.4218C24.9272 56.991 24.7447 52.1541 23.0019 50.4557C22.2994 49.791 12.737 44.4464 10.1274 43.9941C8.485 43.6803 6.22215 40.3018 5.33708 42.5449C4.92872 43.4781 4.71777 44.4874 4.71777 45.508C4.71777 46.5285 4.92872 47.5378 5.33708 48.471C5.59257 49.0157 6.00316 50.2341 8.53975 51.6649C10.319 52.671 15.9944 54.988 16.6513 55.2649C19.1606 56.308 19.6168 57.231 19.6077 58.6618Z" fill="#242426"/>
<path d="M29.5264 21.5079C28.4314 22.0617 22.6648 25.311 22.6648 25.311C22.1796 22.9111 21.5705 20.5386 20.8399 18.2033C20.5358 16.9725 20.1982 15.7417 19.8271 14.511C19.1793 12.4525 18.5223 11.0033 16.6336 10.911C10.4929 10.5787 19.4986 29.9817 20.475 30.6833C20.8126 30.9233 26.7525 27.5171 31.2418 23.871C31.6797 23.3171 30.2289 21.434 29.5264 21.5079Z" fill="#293981"/>
<path d="M31.6429 22.8094C31.3144 23.2433 31.1228 23.8156 30.475 23.6125C30.1282 23.5017 29.3983 22.5971 29.4986 22.0894C29.6162 21.1658 29.9544 20.285 30.4841 19.5233C32.309 16.9202 35.2014 17.2986 35.4021 17.8986C35.758 18.9325 33.8236 19.6525 33.8236 19.6525C33.1717 20.7558 32.4429 21.8108 31.6429 22.8094Z" fill="#F9CFB2"/>
<path d="M20.2562 20.8336C20.4478 20.0398 19.8821 18.9136 19.2616 17.9998C18.3778 16.6947 17.6258 15.3031 17.017 13.8459C16.2779 12.0921 15.6118 11.0121 14.9001 11.2428C14.6355 11.3351 5.99471 16.0244 5.63886 16.1998C4.8151 16.6567 4.19256 17.4118 3.8961 18.3136C3.49462 19.3844 4.80854 23.4182 5.47462 30.1013C5.88225 34.5059 5.60205 38.9479 4.6443 43.2644C6.64254 45.0459 10.2649 45.5444 13.3034 45.1105C16.0407 44.7228 18.5864 43.2644 19.0244 41.7228C18.4904 39.1754 18.1035 36.5988 17.8656 34.0059C17.4641 27.5721 19.5262 23.8798 20.2562 20.8336Z" fill="#E8E8E8"/>
<path d="M8.12981 10.6245C8.43091 10.1907 13.0114 9.36916 14.0424 13.1076C15.0735 16.8461 13.13 17.4461 13.13 17.4461C11.4146 18.1476 9.29773 16.1815 8.44004 15.2399C8.35489 15.1541 8.30585 15.0384 8.30317 14.9168C8.2758 14.0768 8.09331 10.6799 8.12981 10.6245Z" fill="#F2C3A0"/>
<path d="M20.1642 33.4521C18.9598 33.2214 11.5142 30.9414 11.5142 30.9414C11.029 28.5415 10.4199 26.1691 9.68935 23.8337C9.39129 22.6029 9.05369 21.3721 8.67654 20.1414C8.10171 18.3414 7.53599 17.0121 6.13996 16.6337C5.92937 16.5798 5.71024 16.5692 5.49552 16.6025C5.28081 16.6358 5.07487 16.7123 4.88991 16.8275C-0.0555134 19.9198 7.99221 33.8029 8.93203 34.4768C12.483 35.8588 16.2697 36.5145 20.0729 36.406C20.8029 36.2029 20.7755 33.8121 20.1642 33.4521Z" fill="#293981"/>
<path d="M21.0318 35.8433C20.5117 35.991 20.019 36.3233 19.6267 35.7787C19.4928 35.4854 19.4335 35.1628 19.4542 34.8404C19.4749 34.518 19.575 34.2059 19.7453 33.9326C20.3898 33.266 21.1853 32.7685 22.0629 32.4833C25.0648 31.5602 27.1543 33.5818 26.9536 34.1818C26.6251 35.2249 24.6542 34.6249 24.6542 34.6249C23.4756 35.114 22.2653 35.5211 21.0318 35.8433Z" fill="#F9CFB2"/>
<path d="M15.11 12.9229C14.9458 13.7075 14.7633 14.6583 14.0333 14.9352C13.1209 15.2583 10.7576 14.2891 9.55323 12.8952C8.96517 12.2724 8.53576 11.5142 8.30208 10.6859C8.0684 9.85771 8.03746 8.9844 8.21194 8.14138C8.67482 7.03287 9.37616 6.0427 10.2649 5.24292C10.8176 4.79198 11.4324 4.42504 12.0898 4.15369C13.9147 3.32292 15.8308 3.23061 15.9768 5.14138C16.0407 6.12493 16.0407 7.11167 15.9768 8.09522C15.9341 9.73989 15.6418 11.3681 15.11 12.9229Z" fill="#F9CFB2"/>
<path d="M16.6155 5.53852C16.6155 3.00928 15.8217 1.17236 12.8471 0.212361C11.4237 -0.239947 10.2284 0.0646684 8.659 0.756976C7.84299 1.15737 7.13038 1.74454 6.57764 2.47196C6.02491 3.19937 5.64724 4.04703 5.47458 4.94775C5.11873 6.93236 5.86693 9.10159 6.53302 10.7539C7.1261 12.2216 9.79955 15.6277 11.6974 16.2924C10.8306 14.8062 10.5843 10.9016 10.639 9.24005C10.712 7.16313 15.5388 4.3939 15.9038 5.77852C15.9358 5.94308 15.9571 6.10959 15.9677 6.27698C16.0237 7.41371 15.984 8.55321 15.849 9.68313C16.6064 8.46467 16.6246 7.26467 16.6155 5.53852Z" fill="#302625"/>
<path d="M15.9404 6.52637C15.9404 6.60944 15.9404 6.70175 15.9404 6.79406L16.7708 7.54175V7.19098L15.9404 6.52637Z" fill="#3A3A3D"/>
<path opacity="0.4" d="M16.7155 8.00295C16.7117 8.04228 16.699 8.08021 16.6785 8.11382C16.6579 8.14742 16.63 8.17581 16.5969 8.19679L14.6808 9.17525L14.5986 9.23064V8.30756C14.6016 8.26923 14.6141 8.23226 14.6348 8.20002C14.6555 8.16778 14.6838 8.14128 14.7172 8.12295L16.6334 7.13525C16.6334 7.13525 16.6334 7.13525 16.679 7.13525L16.7155 8.00295Z" fill="#62D1CE"/>
<path opacity="0.4" d="M13.8779 9.47088C13.8734 9.50879 13.8604 9.54515 13.8398 9.57716C13.8193 9.60917 13.7917 9.63597 13.7593 9.6555L11.8614 10.6432C11.8614 10.6432 11.8158 10.6432 11.8066 10.6432V9.72011C11.8097 9.68059 11.8221 9.64238 11.8428 9.60866C11.8634 9.57495 11.8917 9.5467 11.9253 9.52627L13.376 8.78781L13.8414 8.53857H13.9053L13.8779 9.47088Z" fill="#62D1CE"/>
<path d="M49.4177 69.443L38.2585 62.8891L38.1855 36.8491L49.3447 43.4122L49.4177 69.443Z" fill="#C6C6C6"/>
<path d="M14.2335 90L3.07431 83.4369L2.99219 54.8677L14.1513 61.4308L14.2335 90Z" fill="#C6C6C6"/>
<path d="M14.1513 61.4308L2.99219 54.8677L40.7672 32.8062L51.9173 39.3692L14.1513 61.4308Z" fill="#F4F4F4"/>
<path d="M51.9173 39.3691L51.9994 67.9384L49.4172 69.443L49.3442 43.4122L16.7427 62.4553L16.8157 88.4861L14.2335 89.9999L14.1514 61.4307L51.9173 39.3691Z" fill="#DBDBDB"/>
<path opacity="0.7" d="M11.4869 58.3665L10.9121 58.0341V20.7695L11.4869 21.1018V58.3665Z" fill="#28A59F"/>
<path opacity="0.4" d="M46.963 37.6435L11.4873 58.3666V21.102L46.963 0.378906V37.6435Z" fill="#62D1CE"/>
<path opacity="0.4" d="M11.4869 21.1018L10.9121 20.7695L46.3969 0.0463867L46.9626 0.378694L11.4869 21.1018Z" fill="#A4FFFD"/>
<g style="mix-blend-mode:screen" opacity="0.8">
<g style="mix-blend-mode:screen" opacity="0.8">
<path d="M34.0066 18.3325H34.0613C34.0827 18.3196 34.1011 18.3022 34.1153 18.2815C34.1295 18.2608 34.1391 18.2373 34.1435 18.2125C34.1435 18.1663 34.1435 18.1571 34.0613 18.2125H34.0066C33.9855 18.2247 33.9678 18.2421 33.955 18.2631C33.9423 18.2841 33.9349 18.3079 33.9336 18.3325C33.9336 18.3417 33.961 18.3509 34.0066 18.3325Z" fill="#85DEE0"/>
</g>
<g style="mix-blend-mode:screen" opacity="0.8">
<path d="M23.6049 24.2707C23.5919 24.292 23.5854 24.3166 23.586 24.3416C23.586 24.3785 23.6134 24.397 23.659 24.3324L23.7776 24.2678C23.8166 24.2391 23.8429 24.1959 23.8506 24.1478H23.7776L23.659 24.2216C23.6366 24.2323 23.6178 24.2494 23.6049 24.2707Z" fill="#85DEE0"/>
<path d="M24.1833 23.9313C24.1706 23.9521 24.1629 23.9757 24.1608 24.0001C24.1608 24.0462 24.2338 24.0093 24.2338 24.0093L24.3524 23.9447C24.3728 23.9294 24.3898 23.9101 24.4024 23.8878C24.4149 23.8656 24.4228 23.8409 24.4254 23.8154H24.3524L24.2338 23.8801C24.2132 23.8929 24.1959 23.9105 24.1833 23.9313Z" fill="#85DEE0"/>
<path d="M24.7546 23.5968C24.7416 23.6181 24.735 23.6428 24.7357 23.6678C24.7357 23.7139 24.763 23.7231 24.8086 23.677L24.9273 23.6031C24.9478 23.5903 24.9651 23.5727 24.9778 23.5519C24.9905 23.5311 24.9982 23.5075 25.0003 23.4831H24.9273L24.8086 23.5478C24.7863 23.5585 24.7675 23.5755 24.7546 23.5968Z" fill="#85DEE0"/>
</g>
<g style="mix-blend-mode:screen" opacity="0.8">
<path d="M23.1394 24.6739H23.2033C23.2238 24.661 23.2412 24.6435 23.2538 24.6227C23.2665 24.6018 23.2742 24.5783 23.2763 24.5539C23.2763 24.5539 23.2763 24.4985 23.2124 24.5539C23.1485 24.6093 23.2124 24.5539 23.1394 24.5539C23.1003 24.5826 23.0741 24.6257 23.0664 24.6739V24.7385C23.0664 24.7385 23.1029 24.7016 23.1394 24.6739Z" fill="#85DEE0"/>
</g>
<g style="mix-blend-mode:screen" opacity="0.8">
<path d="M23.0664 24.1201V24.0001C23.069 23.9746 23.0769 23.9499 23.0895 23.9277C23.102 23.9054 23.119 23.8861 23.1394 23.8708C23.185 23.8708 23.2215 23.8708 23.2215 23.8708V24.0001C23.2172 24.0249 23.2076 24.0484 23.1934 24.0691C23.1792 24.0898 23.1608 24.1072 23.1394 24.1201C23.1394 24.1201 23.0664 24.1662 23.0664 24.1201ZM23.0664 23.5478V23.4278C23.0741 23.3796 23.1003 23.3364 23.1394 23.3078C23.185 23.3078 23.2215 23.3078 23.2215 23.3078V23.4278C23.2202 23.4535 23.2119 23.4784 23.1974 23.4996C23.1828 23.5208 23.1628 23.5375 23.1394 23.5478C23.1394 23.5478 23.0664 23.5847 23.0664 23.5478ZM23.0664 22.9662V22.8555C23.069 22.83 23.0769 22.8053 23.0895 22.7831C23.102 22.7608 23.119 22.7415 23.1394 22.7262C23.185 22.7262 23.2215 22.7262 23.2215 22.7262V22.837C23.2191 22.8636 23.2104 22.8893 23.1961 22.9118C23.1818 22.9343 23.1624 22.953 23.1394 22.9662C23.1394 22.9662 23.0664 23.0124 23.0664 22.9662ZM23.0664 22.3939V22.2739C23.0691 22.2497 23.0771 22.2264 23.0897 22.2057C23.1023 22.185 23.1193 22.1673 23.1394 22.1539C23.185 22.1539 23.2215 22.1539 23.2215 22.1539V22.2739C23.2185 22.2992 23.2094 22.3233 23.1951 22.3442C23.1808 22.3651 23.1617 22.3821 23.1394 22.3939C23.1394 22.3939 23.0664 22.4308 23.0664 22.3939ZM23.0664 21.8124V21.7016C23.069 21.6761 23.0769 21.6515 23.0895 21.6292C23.102 21.607 23.119 21.5876 23.1394 21.5724C23.185 21.5724 23.2215 21.5724 23.2215 21.5724V21.6831C23.2191 21.7098 23.2104 21.7354 23.1961 21.7579C23.1818 21.7804 23.1624 21.7991 23.1394 21.8124C23.1394 21.8124 23.0664 21.8585 23.0664 21.8124ZM23.0664 21.2401V21.1201C23.0685 21.0957 23.0762 21.0721 23.0888 21.0513C23.1015 21.0305 23.1188 21.0129 23.1394 21.0001C23.185 21.0001 23.2215 21.0001 23.2215 21.0001V21.1201C23.2172 21.1449 23.2076 21.1684 23.1934 21.1891C23.1792 21.2098 23.1608 21.2272 23.1394 21.2401C23.1394 21.2401 23.0664 21.277 23.0664 21.2308V21.2401ZM23.0664 20.6585V20.5385C23.0741 20.4903 23.1003 20.4472 23.1394 20.4185C23.185 20.4185 23.2215 20.4185 23.2215 20.4185V20.5293C23.2191 20.5559 23.2104 20.5816 23.1961 20.6041C23.1818 20.6266 23.1624 20.6453 23.1394 20.6585C23.1394 20.6585 23.0664 20.7047 23.0664 20.6585ZM23.0664 20.077V19.9662C23.0685 19.9418 23.0762 19.9183 23.0888 19.8975C23.1015 19.8766 23.1188 19.8591 23.1394 19.8462C23.185 19.8462 23.2215 19.8462 23.2215 19.8462V19.9662C23.2172 19.991 23.2076 20.0146 23.1934 20.0353C23.1792 20.056 23.1608 20.0734 23.1394 20.0862L23.0664 20.077ZM23.0664 19.5047V19.3847C23.0741 19.3365 23.1003 19.2933 23.1394 19.2647C23.185 19.2647 23.2215 19.2647 23.2215 19.2647V19.3847C23.2202 19.4104 23.2119 19.4353 23.1974 19.4565C23.1828 19.4777 23.1628 19.4944 23.1394 19.5047C23.1394 19.5047 23.0664 19.5508 23.0664 19.5047ZM23.0664 18.9231V18.8124C23.0685 18.788 23.0762 18.7645 23.0888 18.7436C23.1015 18.7228 23.1188 18.7052 23.1394 18.6924C23.185 18.6924 23.2215 18.6924 23.2215 18.6924V18.8124C23.2172 18.8372 23.2076 18.8607 23.1934 18.8814C23.1792 18.9021 23.1608 18.9195 23.1394 18.9324L23.0664 18.9231ZM23.0664 18.3508V18.2308C23.0741 18.1826 23.1003 18.1395 23.1394 18.1108C23.185 18.1108 23.2215 18.1108 23.2215 18.1108V18.2216C23.2202 18.2474 23.2119 18.2722 23.1974 18.2934C23.1828 18.3146 23.1628 18.3313 23.1394 18.3416C23.1394 18.3416 23.0664 18.3878 23.0664 18.3508Z" fill="#85DEE0"/>
</g>
<g style="mix-blend-mode:screen" opacity="0.8">
<path d="M23.1394 17.8059C23.1608 17.793 23.1792 17.7757 23.1934 17.755C23.2076 17.7343 23.2172 17.7107 23.2215 17.6859V17.6213C23.2215 17.6213 23.2215 17.5659 23.1394 17.6213C23.1188 17.6342 23.1015 17.6517 23.0888 17.6725C23.0762 17.6934 23.0685 17.7169 23.0664 17.7413V17.7967C23.0664 17.8151 23.1029 17.8244 23.1394 17.8059Z" fill="#85DEE0"/>
</g>
<g style="mix-blend-mode:screen" opacity="0.8">
<path d="M31.6797 19.1814L32.3093 18.8214V14.0029L31.6797 14.3722V19.1814Z" fill="#85DEE0"/>
</g>
<g style="mix-blend-mode:screen" opacity="0.8">
<path d="M32.7109 18.5816L33.3405 18.2216V12.9878L32.7109 13.357V18.5816Z" fill="#85DEE0"/>
</g>
<g style="mix-blend-mode:screen" opacity="0.8">
<path d="M30.6758 19.7722L31.3054 19.403V17.2983L30.6758 17.6676V19.7722Z" fill="#85DEE0"/>
</g>
<g style="mix-blend-mode:screen" opacity="0.8">
<path d="M29.6631 20.3628L30.2927 19.9936V18.2397L29.6631 18.5997V20.3628Z" fill="#85DEE0"/>
</g>
<g style="mix-blend-mode:screen" opacity="0.8">
<path d="M28.6592 20.9537L29.2796 20.5845V16.8091L28.6592 17.1783V20.9537Z" fill="#85DEE0"/>
</g>
<g style="mix-blend-mode:screen" opacity="0.8">
<path d="M27.6465 21.5448L28.2761 21.1755V18.8032L27.6465 19.1725V21.5448Z" fill="#85DEE0"/>
</g>
<g style="mix-blend-mode:screen" opacity="0.8">
<path d="M26.6426 22.1263L27.2722 21.7663V18.5171L26.6426 18.8863V22.1263Z" fill="#85DEE0"/>
</g>
<g style="mix-blend-mode:screen" opacity="0.8">
<path d="M25.6299 22.7167L26.2595 22.3567V20.9536L25.6299 21.3228V22.7167Z" fill="#85DEE0"/>
</g>
<g style="mix-blend-mode:screen" opacity="0.8">
<path d="M24.627 23.3077L25.2565 22.9385V20.2246L24.627 20.5938V23.3077Z" fill="#85DEE0"/>
</g>
<g style="mix-blend-mode:screen" opacity="0.8">
<path d="M23.6133 23.8984L24.2429 23.5292V21.1846L23.6133 21.5538V23.8984Z" fill="#85DEE0"/>
</g>
<g style="mix-blend-mode:screen" opacity="0.8">
<g style="mix-blend-mode:screen" opacity="0.8">
<path d="M17.3358 24.305L14.1514 23.3819C14.7145 22.3917 15.4466 21.5104 16.3139 20.7788L17.3358 24.305Z" fill="#85DEE0"/>
</g>
<g style="mix-blend-mode:screen" opacity="0.8">
<path d="M17.3359 24.3048L13.1113 26.7694C13.1463 25.561 13.5025 24.3844 14.1424 23.3633L17.3359 24.3048Z" fill="#85DEE0"/>
</g>
<g style="mix-blend-mode:screen" opacity="0.8">
<path d="M17.3361 24.3047L13.2392 27.6924C13.1515 27.3928 13.1084 27.0817 13.1115 26.7693L17.3361 24.3047Z" fill="#85DEE0"/>
</g>
<g style="mix-blend-mode:screen" opacity="0.8">
<path d="M17.3361 24.3047L13.5039 28.3478C13.3902 28.1538 13.3013 27.9459 13.2393 27.7293L17.3361 24.3047Z" fill="#85DEE0"/>
</g>
<g style="mix-blend-mode:screen" opacity="0.8">
<path d="M17.3358 24.3047L16.104 29.1047C15.6528 29.3048 15.1464 29.3387 14.673 29.2004C14.1996 29.0622 13.7891 28.7605 13.5127 28.3478L17.3358 24.3047Z" fill="#85DEE0"/>
</g>
<g style="mix-blend-mode:screen" opacity="0.8">
<path d="M17.3356 24.3047L20.6569 24.997C19.7256 26.917 18.0879 28.3916 16.0947 29.1047L17.3356 24.3047Z" fill="#85DEE0"/>
</g>
<g style="mix-blend-mode:screen" opacity="0.8">
<path d="M17.3359 24.3048L20.6116 19.6895C20.8497 19.84 21.0539 20.0393 21.211 20.2746C21.3682 20.51 21.4748 20.776 21.524 21.0556L17.3359 24.3048Z" fill="#428787"/>
</g>
<g style="mix-blend-mode:screen" opacity="0.8">
<path d="M17.3359 24.3048L19.69 19.3848C20.0157 19.4086 20.3299 19.5167 20.6025 19.6986L17.3359 24.3048Z" fill="#428787"/>
</g>
<g style="mix-blend-mode:screen" opacity="0.8">
<path d="M17.3359 24.3046V20.0399C18.0338 19.5714 18.863 19.3447 19.6992 19.3938L17.3359 24.3046Z" fill="#428787"/>
</g>
<g style="mix-blend-mode:screen" opacity="0.8">
<path d="M17.3364 24.3047L16.3145 20.76C16.636 20.4934 16.9777 20.2526 17.3364 20.04V24.3047Z" fill="#428787"/>
</g>
<g style="mix-blend-mode:screen" opacity="0.8">
<path d="M17.3359 24.305L21.4784 21.0742C21.6683 22.4389 21.3776 23.8276 20.6572 24.9973L17.3359 24.305Z" fill="#428787"/>
</g>
</g>
<g style="mix-blend-mode:screen" opacity="0.8">
<path d="M16.6249 25.4492C16.6223 25.5667 16.5975 25.6826 16.5519 25.7907C16.473 25.9782 16.3351 26.134 16.1595 26.2338C15.9497 26.363 15.8311 26.3261 15.7763 26.2338C15.7261 26.1574 15.7006 26.0671 15.7033 25.9753V24.6092C15.7031 24.4742 15.7246 24.3402 15.7672 24.2123C15.8461 24.0248 15.984 23.869 16.1595 23.7692C16.3877 23.64 16.4971 23.6769 16.561 23.7692C16.6084 23.8666 16.6304 23.9746 16.6249 24.083V24.2307L16.269 24.4338C16.2817 24.3296 16.2817 24.2242 16.269 24.12C16.269 24.0646 16.269 24.0553 16.1778 24.12C16.1406 24.1483 16.1122 24.1867 16.0957 24.2307C16.0849 24.3011 16.0849 24.3727 16.0957 24.443V24.8769C16.1391 24.8103 16.1988 24.7562 16.269 24.72C16.4515 24.6092 16.5519 24.6461 16.5975 24.72C16.6432 24.8014 16.6654 24.8941 16.6614 24.9877L16.6249 25.4492ZM16.0592 25.8461C16.0592 25.8461 16.0592 25.9384 16.1595 25.8923C16.1896 25.8732 16.215 25.8475 16.234 25.8172C16.2529 25.7868 16.2649 25.7525 16.269 25.7169V24.9969C16.269 24.9969 16.269 24.9046 16.1595 24.9507C16.1311 24.9662 16.107 24.9887 16.0894 25.0161C16.0719 25.0436 16.0615 25.0751 16.0592 25.1077V25.8461Z" fill="#85DEE0"/>
</g>
<g style="mix-blend-mode:screen" opacity="0.8">
<path d="M16.752 23.9997V23.769C16.8724 23.6776 16.9719 23.5611 17.0439 23.4274C17.0786 23.3728 17.1062 23.3138 17.1261 23.252L17.3359 23.0767V25.4951L16.9892 25.6982V23.8336L16.752 23.9997Z" fill="#85DEE0"/>
</g>
<g style="mix-blend-mode:screen" opacity="0.8">
<path d="M18.0572 23.6399C18.0553 23.751 18.0168 23.8582 17.9477 23.9446C17.9131 23.9958 17.866 24.0372 17.8109 24.0646C17.6831 24.1476 17.6193 24.1107 17.5828 24.0646C17.5714 24.0254 17.5714 23.9837 17.5828 23.9446V23.243C17.5847 23.132 17.6232 23.0248 17.6923 22.9384C17.7325 22.8864 17.782 22.8426 17.8383 22.8092C17.966 22.7353 18.0207 22.8092 18.0572 22.8092C18.0687 22.8483 18.0687 22.89 18.0572 22.9292V23.6399ZM17.7196 25.3015L18.6321 22.3753L18.8419 22.2461L17.9751 25.1722L17.7196 25.3015ZM17.8656 23.0769C17.8699 23.0666 17.8721 23.0557 17.8721 23.0446C17.8721 23.0335 17.8699 23.0225 17.8656 23.0122C17.8502 23.0202 17.8371 23.032 17.8275 23.0465C17.8179 23.0611 17.8122 23.0779 17.8109 23.0953V23.7969C17.8109 23.7969 17.8109 23.8892 17.8748 23.8522C17.893 23.8384 17.9076 23.8202 17.9172 23.7993C17.9268 23.7783 17.931 23.7553 17.9295 23.7322L17.8656 23.0769ZM18.9697 24.3415C18.9672 24.4509 18.9323 24.5571 18.8693 24.6461C18.8289 24.6954 18.7793 24.7361 18.7233 24.7661C18.5956 24.8492 18.5317 24.8122 18.4952 24.7661C18.4838 24.7269 18.4838 24.6853 18.4952 24.6461V23.9076C18.4985 23.7968 18.5369 23.6901 18.6047 23.603C18.6449 23.5511 18.6945 23.5072 18.7507 23.4738C18.8784 23.3999 18.9332 23.4738 18.9697 23.4738C18.9801 23.5131 18.9801 23.5545 18.9697 23.5938V24.3415ZM18.7781 23.7599C18.7781 23.7599 18.7781 23.7046 18.7781 23.6953C18.7781 23.6861 18.7781 23.6953 18.7781 23.6953C18.7508 23.7157 18.7315 23.7451 18.7233 23.7784C18.7233 23.7784 18.7233 23.7784 18.7233 23.8246V24.5261C18.7233 24.5261 18.7233 24.5722 18.7233 24.5815C18.7465 24.5629 18.7626 24.5368 18.7689 24.5076C18.7732 24.4894 18.7732 24.4705 18.7689 24.4522L18.7781 23.7599Z" fill="#85DEE0"/>
</g>
<g style="mix-blend-mode:screen" opacity="0.8">
<g style="mix-blend-mode:screen" opacity="0.8">
<path d="M40.0653 11.0769L36.8809 10.1539C37.4385 9.15988 38.1715 8.27763 39.0433 7.55078L40.0653 11.0769Z" fill="#428787"/>
</g>
<g style="mix-blend-mode:screen" opacity="0.8">
<path d="M40.0651 11.0768L35.8496 13.5414C35.8833 12.3327 36.2395 11.1557 36.8807 10.1353L40.0651 11.0768Z" fill="#428787"/>
</g>
<g style="mix-blend-mode:screen" opacity="0.8">
<path d="M40.0652 11.0767L35.9683 14.492C35.8871 14.1913 35.8472 13.8807 35.8497 13.569L40.0652 11.0767Z" fill="#428787"/>
</g>
<g style="mix-blend-mode:screen" opacity="0.8">
<path d="M40.0656 11.0767L36.2425 15.1105C36.1278 14.9158 36.0359 14.7083 35.9688 14.492L40.0656 11.0767Z" fill="#428787"/>
</g>
<g style="mix-blend-mode:screen" opacity="0.8">
<path d="M40.0653 11.0767L38.8335 15.8767C38.3812 16.0759 37.8742 16.1084 37.4007 15.9684C36.9272 15.8284 36.5172 15.5248 36.2422 15.1105L40.0653 11.0767Z" fill="#85DEE0"/>
</g>
<g style="mix-blend-mode:screen" opacity="0.8">
<path d="M40.0651 11.0767L43.3864 11.7597C42.4554 13.6821 40.818 15.1597 38.8242 15.8767L40.0651 11.0767Z" fill="#85DEE0"/>
</g>
<g style="mix-blend-mode:screen" opacity="0.8">
<path d="M40.0654 11.0768L43.3411 6.46143C43.5783 6.61509 43.7817 6.8165 43.9387 7.05311C44.0957 7.28973 44.2028 7.55649 44.2535 7.83681L40.0654 11.0768Z" fill="#85DEE0"/>
</g>
<g style="mix-blend-mode:screen" opacity="0.8">
<path d="M40.0654 11.0767L42.4195 6.15674C42.7451 6.181 43.0592 6.28904 43.332 6.47058L40.0654 11.0767Z" fill="#85DEE0"/>
</g>
<g style="mix-blend-mode:screen" opacity="0.8">
<path d="M40.0654 11.0769V6.75689C40.7605 6.28973 41.5864 6.06302 42.4195 6.11074L40.0654 11.0769Z" fill="#428787"/>
</g>
<g style="mix-blend-mode:screen" opacity="0.8">
<path d="M40.0649 11.0768L39.043 7.48607C39.3621 7.21353 39.704 6.96954 40.0649 6.75684V11.0768Z" fill="#428787"/>
</g>
<g style="mix-blend-mode:screen" opacity="0.8">
<path d="M40.0654 11.077L44.2079 7.84619C44.3972 9.20789 44.1065 10.5935 43.3867 11.76L40.0654 11.077Z" fill="#85DEE0"/>
</g>
</g>
<g style="mix-blend-mode:screen" opacity="0.8">
<path d="M38.705 11.9998V11.6952C38.851 11.6029 38.9149 11.5383 38.9423 11.4459C38.9528 11.4004 38.9528 11.353 38.9423 11.3075V11.0767C38.9521 11.0094 38.9521 10.941 38.9423 10.8736C38.9423 10.8183 38.9423 10.7998 38.851 10.8275C38.8269 10.8393 38.8065 10.8577 38.792 10.8804C38.7776 10.9032 38.7695 10.9296 38.7689 10.9567C38.7562 11.0702 38.7562 11.1848 38.7689 11.2983L38.4222 11.5013C38.4191 11.3299 38.4406 11.1589 38.486 10.9936C38.552 10.7891 38.6922 10.6176 38.8784 10.5136C39.0974 10.3844 39.2069 10.4306 39.2707 10.5136C39.3125 10.5899 39.3344 10.6757 39.3346 10.7629C39.3523 11.0211 39.2919 11.2787 39.1612 11.5013C39.3255 11.5013 39.362 11.769 39.362 12.0459C39.365 12.0705 39.365 12.0953 39.362 12.1198C39.3571 12.2263 39.3387 12.3318 39.3072 12.4336C39.2694 12.5707 39.2007 12.6971 39.1065 12.8029C39.0511 12.865 38.9864 12.9179 38.9149 12.9598C38.6959 13.089 38.5773 13.0429 38.5134 12.9598C38.4635 12.8242 38.4417 12.6797 38.4495 12.5352L38.7963 12.3321C38.7815 12.4362 38.7815 12.5419 38.7963 12.6459C38.7963 12.6459 38.7963 12.7013 38.8875 12.6459C38.9138 12.6279 38.9362 12.6047 38.9534 12.5778C38.9707 12.5508 38.9824 12.5206 38.9879 12.489C38.9924 12.4183 38.9924 12.3474 38.9879 12.2767V12.0644C38.9879 11.9444 38.9879 11.8798 38.8966 11.8706C38.834 11.8754 38.774 11.8978 38.7233 11.9352L38.705 11.9998Z" fill="#428787"/>
</g>
<g style="mix-blend-mode:screen" opacity="0.8">
<path d="M39.9556 10.2829L39.4355 10.5967V10.2459L40.348 9.729V10.0798L39.9921 12.3505L39.6272 12.5628L39.9556 10.2829Z" fill="#428787"/>
</g>
<g style="mix-blend-mode:screen" opacity="0.8">
<path d="M40.9498 10.3105C40.9412 10.4202 40.9033 10.5255 40.8403 10.6152C40.8003 10.6673 40.7507 10.7111 40.6943 10.7444C40.5666 10.8182 40.5118 10.7444 40.4754 10.7444C40.4639 10.7052 40.4639 10.6636 40.4754 10.6244V9.92284C40.4779 9.81627 40.513 9.7131 40.5757 9.62746C40.6132 9.57296 40.6633 9.52859 40.7217 9.49823C40.8495 9.42438 40.9042 9.49823 40.9407 9.49823C40.9472 9.53796 40.9472 9.5785 40.9407 9.61823L40.9498 10.3105ZM40.6031 11.9998L41.5155 9.07361L41.7163 8.95361L40.8495 11.8705L40.6031 11.9998ZM40.7491 9.74746C40.7562 9.7297 40.7562 9.70984 40.7491 9.69208C40.7219 9.7125 40.7025 9.74187 40.6943 9.77515V10.5228C40.6943 10.5228 40.6943 10.6059 40.7491 10.5782C40.7688 10.5636 40.7842 10.5439 40.7939 10.5212C40.8035 10.4984 40.8069 10.4735 40.8038 10.449L40.7491 9.74746ZM41.8623 11.0121C41.8578 11.1226 41.8195 11.229 41.7528 11.3167C41.715 11.3709 41.6649 11.4153 41.6068 11.4459C41.479 11.5198 41.4243 11.4459 41.3878 11.4459C41.3761 11.4037 41.3761 11.359 41.3878 11.3167V10.6152C41.3903 10.5086 41.4254 10.4054 41.4882 10.3198C41.513 10.255 41.5538 10.1978 41.6068 10.1536C41.7345 10.0798 41.7893 10.1536 41.8258 10.1536C41.8351 10.1931 41.8351 10.2342 41.8258 10.2736L41.8623 11.0121ZM41.6706 10.4305C41.6776 10.4096 41.6776 10.3869 41.6706 10.3659C41.6451 10.384 41.6259 10.4099 41.6159 10.4398V11.1875C41.6159 11.1875 41.6159 11.2428 41.6159 11.2521C41.6297 11.2445 41.6418 11.2339 41.6512 11.2212C41.6607 11.2085 41.6673 11.1938 41.6706 11.1782C41.6715 11.1629 41.6715 11.1474 41.6706 11.1321V10.4305Z" fill="#428787"/>
</g>
<g style="mix-blend-mode:screen" opacity="0.8">
<path d="M13.5038 52.0709C12.5914 50.6402 13.44 47.8155 15.3834 45.7663C16.013 45.0782 16.7733 44.5256 17.6189 44.1417C18.2394 43.8832 18.285 46.0432 17.2175 48.2679C16.1499 50.4925 13.9509 52.7909 13.5038 52.0709Z" fill="#85DEE0"/>
</g>
<g style="mix-blend-mode:screen" opacity="0.8">
<path d="M20.5295 44.6678C19.9364 43.7448 18.7046 43.6155 17.4272 44.234L17.0166 48.3694L18.6499 50.9632C20.5934 48.9232 21.4328 46.0986 20.5295 44.6678Z" fill="#428787"/>
</g>
<g style="mix-blend-mode:screen" opacity="0.8">
<path d="M15.9857 52.7445C16.3324 51.9322 16.743 51.1568 17.108 50.3353C17.2776 50.0322 17.3591 49.6868 17.343 49.3389C17.3268 48.991 17.2137 48.6548 17.0167 48.3691L13.2666 51.5445C13.3195 51.7308 13.3994 51.9081 13.5038 52.0707C13.7789 52.4533 14.1753 52.7289 14.627 52.8515C15.0786 52.9742 15.5582 52.9364 15.9857 52.7445Z" fill="#85DEE0"/>
</g>
<g style="mix-blend-mode:screen" opacity="0.8">
<path d="M18.6502 50.9629L17.0169 48.3599L14.9365 52.8829C15.6526 52.8378 16.3519 52.6441 16.9908 52.3138C17.6297 51.9834 18.1945 51.5236 18.6502 50.9629Z" fill="#428787"/>
</g>
<g style="mix-blend-mode:screen" opacity="0.8">
<path d="M34.8554 34.5878L22.209 41.9816V41.7508L34.8554 34.3662V34.5878Z" fill="#85DEE0"/>
</g>
<g style="mix-blend-mode:screen" opacity="0.8">
<path d="M34.8554 35.9817L22.209 43.3664V43.1448L34.8554 35.751V35.9817Z" fill="#85DEE0"/>
</g>
<g style="mix-blend-mode:screen" opacity="0.8">
<path d="M34.8554 37.3661L22.209 44.7507V44.5291L34.8554 37.1445V37.3661Z" fill="#85DEE0"/>
</g>
<g style="mix-blend-mode:screen" opacity="0.8">
<path d="M34.8554 38.7508L22.209 46.1447V45.9139L34.8554 38.5293V38.7508Z" fill="#85DEE0"/>
</g>
<g style="mix-blend-mode:screen" opacity="0.8">
<path d="M34.8554 40.1448L22.209 47.5294V47.3079L34.8554 39.9141V40.1448Z" fill="#85DEE0"/>
</g>
<g style="mix-blend-mode:screen" opacity="0.8">
<path d="M34.8554 41.5292L22.209 48.9138V48.6922L34.8554 41.3076V41.5292Z" fill="#85DEE0"/>
</g>
<g style="mix-blend-mode:screen" opacity="0.8">
<path d="M40.6487 30.729C42.7382 29.9444 44.0886 31.2275 43.6506 33.5998C43.4615 34.5456 43.0927 35.4453 42.5648 36.249C42.1177 36.9413 40.3567 36.7106 39.7271 35.2521C39.0975 33.7936 39.5994 31.1259 40.6487 30.729Z" fill="#428787"/>
</g>
<g style="mix-blend-mode:screen" opacity="0.8">
<path d="M39.0704 39.323C40.6051 38.6494 41.8848 37.494 42.7202 36.0276L39.8825 35.0215L36.0867 36.443C35.6305 38.8153 36.9809 40.1076 39.0704 39.323Z" fill="#428787"/>
</g>
<g style="mix-blend-mode:screen" opacity="0.8">
<path d="M37.4736 33.3321C37.7565 33.8121 37.939 34.3567 38.2036 34.8644C38.6051 35.6121 39.8642 35.0214 39.8642 35.0214L41.315 30.5444C41.0882 30.5867 40.8654 30.6485 40.6489 30.729C39.3702 31.2784 38.2699 32.1804 37.4736 33.3321Z" fill="#85DEE0"/>
</g>
<g style="mix-blend-mode:screen" opacity="0.8">
<path d="M36.0684 36.4433L39.8641 35.0217L38.4772 32.1694C37.2693 33.3178 36.4301 34.8068 36.0684 36.4433Z" fill="#85DEE0"/>
</g>
<g style="mix-blend-mode:screen" opacity="0.8">
<path d="M18.8968 35.1322C18.9607 35.0584 18.9972 34.9661 18.9698 34.9107L18.7782 34.4307C18.6778 34.2091 18.1942 34.9107 18.0391 34.7722C17.7015 34.4861 17.6559 34.7722 17.8749 33.9784C17.8749 33.8953 17.8749 33.8399 17.8019 33.8491H17.2453C16.9898 33.8491 16.9442 34.5507 16.6704 34.6615C16.0865 34.8922 16.269 35.0399 15.9314 34.5784C15.9314 34.5784 15.8219 34.5784 15.7489 34.5784L15.1649 35.123C14.8912 35.3722 15.3109 35.6215 15.0828 35.9168C14.5901 36.5538 14.9094 36.4061 14.1703 36.5907C14.0912 36.6273 14.0291 36.6935 13.997 36.7753L13.7233 37.4861C13.7233 37.5784 13.7233 37.643 13.7233 37.6522C14.3072 37.7261 14.0974 37.6522 14.1065 38.2338C14.1027 38.3008 14.0732 38.3637 14.0244 38.4091C13.4404 39.0645 13.4769 38.8799 13.7506 39.5538C13.7506 39.6091 13.8419 39.6091 13.9149 39.5538C14.6174 39.0184 14.3255 39.1938 14.7452 39.3691C14.9185 39.4338 14.4715 40.163 14.7452 40.1353C15.5208 40.0799 15.3656 40.1815 15.7306 39.4338C15.7646 39.3717 15.8152 39.3205 15.8766 39.2861C16.0155 39.2329 16.1498 39.168 16.2781 39.0922C16.5153 38.9445 16.5244 39.5907 16.7982 39.3415C17.6194 38.5845 17.5099 38.7691 17.4004 38.1876C17.3988 38.1203 17.4215 38.0546 17.4643 38.003C17.5728 37.8643 17.6733 37.7195 17.7654 37.5691C17.9661 37.2553 18.3949 37.4953 18.5227 37.1445L18.7964 36.4338C18.9242 36.1015 18.2946 36.3784 18.3402 36.1107C18.4953 35.5107 18.249 35.8615 18.8968 35.1322ZM15.8127 38.3353C14.4806 38.4553 15.4569 35.843 16.7891 35.723C18.1212 35.603 17.1449 38.2061 15.8127 38.3353Z" fill="#85DEE0"/>
</g>
<g style="mix-blend-mode:screen" opacity="0.8">
<path d="M37.401 27.2952L20.4844 37.1814V32.3906L37.401 22.5137V27.2952Z" fill="#85DEE0"/>
</g>
<g style="mix-blend-mode:screen" opacity="0.8">
<path d="M43.7692 23.5847L39.2617 26.2155V21.4247L43.7692 18.7939V23.5847Z" fill="#428787"/>
</g>
</g>
<g style="mix-blend-mode:multiply" opacity="0.8">
<g style="mix-blend-mode:multiply" opacity="0.8">
<path d="M34.0066 18.3325H34.0613C34.0827 18.3196 34.1011 18.3022 34.1153 18.2815C34.1295 18.2608 34.1391 18.2373 34.1435 18.2125C34.1435 18.1663 34.1435 18.1571 34.0613 18.2125H34.0066C33.9855 18.2247 33.9678 18.2421 33.955 18.2631C33.9423 18.2841 33.9349 18.3079 33.9336 18.3325C33.9336 18.3417 33.961 18.3509 34.0066 18.3325Z" fill="white"/>
</g>
<g style="mix-blend-mode:multiply" opacity="0.8">
<path d="M23.6049 24.2707C23.5919 24.292 23.5854 24.3166 23.586 24.3416C23.586 24.3785 23.6134 24.397 23.659 24.3324L23.7776 24.2678C23.8166 24.2391 23.8429 24.1959 23.8506 24.1478H23.7776L23.659 24.2216C23.6366 24.2323 23.6178 24.2494 23.6049 24.2707Z" fill="white"/>
<path d="M24.1833 23.9313C24.1706 23.9521 24.1629 23.9757 24.1608 24.0001C24.1608 24.0462 24.2338 24.0093 24.2338 24.0093L24.3524 23.9447C24.3728 23.9294 24.3898 23.9101 24.4024 23.8878C24.4149 23.8656 24.4228 23.8409 24.4254 23.8154H24.3524L24.2338 23.8801C24.2132 23.8929 24.1959 23.9105 24.1833 23.9313Z" fill="white"/>
<path d="M24.7546 23.5968C24.7416 23.6181 24.735 23.6428 24.7357 23.6678C24.7357 23.7139 24.763 23.7231 24.8086 23.677L24.9273 23.6031C24.9478 23.5903 24.9651 23.5727 24.9778 23.5519C24.9905 23.5311 24.9982 23.5075 25.0003 23.4831H24.9273L24.8086 23.5478C24.7863 23.5585 24.7675 23.5755 24.7546 23.5968Z" fill="white"/>
</g>
<g style="mix-blend-mode:multiply" opacity="0.8">
<path d="M23.1394 24.6739H23.2033C23.2238 24.661 23.2412 24.6435 23.2538 24.6227C23.2665 24.6018 23.2742 24.5783 23.2763 24.5539C23.2763 24.5539 23.2763 24.4985 23.2124 24.5539C23.1485 24.6093 23.2124 24.5539 23.1394 24.5539C23.1003 24.5826 23.0741 24.6257 23.0664 24.6739V24.7385C23.0664 24.7385 23.1029 24.7016 23.1394 24.6739Z" fill="white"/>
</g>
<g style="mix-blend-mode:multiply" opacity="0.8">
<path d="M23.0664 24.1201V24.0001C23.069 23.9746 23.0769 23.9499 23.0895 23.9277C23.102 23.9054 23.119 23.8861 23.1394 23.8708C23.185 23.8708 23.2215 23.8708 23.2215 23.8708V24.0001C23.2172 24.0249 23.2076 24.0484 23.1934 24.0691C23.1792 24.0898 23.1608 24.1072 23.1394 24.1201C23.1394 24.1201 23.0664 24.1662 23.0664 24.1201ZM23.0664 23.5478V23.4278C23.0741 23.3796 23.1003 23.3364 23.1394 23.3078C23.185 23.3078 23.2215 23.3078 23.2215 23.3078V23.4278C23.2202 23.4535 23.2119 23.4784 23.1974 23.4996C23.1828 23.5208 23.1628 23.5375 23.1394 23.5478C23.1394 23.5478 23.0664 23.5847 23.0664 23.5478ZM23.0664 22.9662V22.8555C23.069 22.83 23.0769 22.8053 23.0895 22.7831C23.102 22.7608 23.119 22.7415 23.1394 22.7262C23.185 22.7262 23.2215 22.7262 23.2215 22.7262V22.837C23.2191 22.8636 23.2104 22.8893 23.1961 22.9118C23.1818 22.9343 23.1624 22.953 23.1394 22.9662C23.1394 22.9662 23.0664 23.0124 23.0664 22.9662ZM23.0664 22.3939V22.2739C23.0691 22.2497 23.0771 22.2264 23.0897 22.2057C23.1023 22.185 23.1193 22.1673 23.1394 22.1539C23.185 22.1539 23.2215 22.1539 23.2215 22.1539V22.2739C23.2185 22.2992 23.2094 22.3233 23.1951 22.3442C23.1808 22.3651 23.1617 22.3821 23.1394 22.3939C23.1394 22.3939 23.0664 22.4308 23.0664 22.3939ZM23.0664 21.8124V21.7016C23.069 21.6761 23.0769 21.6515 23.0895 21.6292C23.102 21.607 23.119 21.5876 23.1394 21.5724C23.185 21.5724 23.2215 21.5724 23.2215 21.5724V21.6831C23.2191 21.7098 23.2104 21.7354 23.1961 21.7579C23.1818 21.7804 23.1624 21.7991 23.1394 21.8124C23.1394 21.8124 23.0664 21.8585 23.0664 21.8124ZM23.0664 21.2401V21.1201C23.0685 21.0957 23.0762 21.0721 23.0888 21.0513C23.1015 21.0305 23.1188 21.0129 23.1394 21.0001C23.185 21.0001 23.2215 21.0001 23.2215 21.0001V21.1201C23.2172 21.1449 23.2076 21.1684 23.1934 21.1891C23.1792 21.2098 23.1608 21.2272 23.1394 21.2401C23.1394 21.2401 23.0664 21.277 23.0664 21.2308V21.2401ZM23.0664 20.6585V20.5385C23.0741 20.4903 23.1003 20.4472 23.1394 20.4185C23.185 20.4185 23.2215 20.4185 23.2215 20.4185V20.5293C23.2191 20.5559 23.2104 20.5816 23.1961 20.6041C23.1818 20.6266 23.1624 20.6453 23.1394 20.6585C23.1394 20.6585 23.0664 20.7047 23.0664 20.6585ZM23.0664 20.077V19.9662C23.0685 19.9418 23.0762 19.9183 23.0888 19.8975C23.1015 19.8766 23.1188 19.8591 23.1394 19.8462C23.185 19.8462 23.2215 19.8462 23.2215 19.8462V19.9662C23.2172 19.991 23.2076 20.0146 23.1934 20.0353C23.1792 20.056 23.1608 20.0734 23.1394 20.0862L23.0664 20.077ZM23.0664 19.5047V19.3847C23.0741 19.3365 23.1003 19.2933 23.1394 19.2647C23.185 19.2647 23.2215 19.2647 23.2215 19.2647V19.3847C23.2202 19.4104 23.2119 19.4353 23.1974 19.4565C23.1828 19.4777 23.1628 19.4944 23.1394 19.5047C23.1394 19.5047 23.0664 19.5508 23.0664 19.5047ZM23.0664 18.9231V18.8124C23.0685 18.788 23.0762 18.7645 23.0888 18.7436C23.1015 18.7228 23.1188 18.7052 23.1394 18.6924C23.185 18.6924 23.2215 18.6924 23.2215 18.6924V18.8124C23.2172 18.8372 23.2076 18.8607 23.1934 18.8814C23.1792 18.9021 23.1608 18.9195 23.1394 18.9324L23.0664 18.9231ZM23.0664 18.3508V18.2308C23.0741 18.1826 23.1003 18.1395 23.1394 18.1108C23.185 18.1108 23.2215 18.1108 23.2215 18.1108V18.2216C23.2202 18.2474 23.2119 18.2722 23.1974 18.2934C23.1828 18.3146 23.1628 18.3313 23.1394 18.3416C23.1394 18.3416 23.0664 18.3878 23.0664 18.3508Z" fill="white"/>
</g>
<g style="mix-blend-mode:multiply" opacity="0.8">
<path d="M23.1394 17.8059C23.1608 17.793 23.1792 17.7757 23.1934 17.755C23.2076 17.7343 23.2172 17.7107 23.2215 17.6859V17.6213C23.2215 17.6213 23.2215 17.5659 23.1394 17.6213C23.1188 17.6342 23.1015 17.6517 23.0888 17.6725C23.0762 17.6934 23.0685 17.7169 23.0664 17.7413V17.7967C23.0664 17.8151 23.1029 17.8244 23.1394 17.8059Z" fill="white"/>
</g>
<g style="mix-blend-mode:multiply" opacity="0.8">
<path d="M31.6797 19.1814L32.3093 18.8214V14.0029L31.6797 14.3722V19.1814Z" fill="white"/>
</g>
<g style="mix-blend-mode:multiply" opacity="0.8">
<path d="M32.7109 18.5816L33.3405 18.2216V12.9878L32.7109 13.357V18.5816Z" fill="white"/>
</g>
<g style="mix-blend-mode:multiply" opacity="0.8">
<path d="M30.6758 19.7722L31.3054 19.403V17.2983L30.6758 17.6676V19.7722Z" fill="white"/>
</g>
<g style="mix-blend-mode:multiply" opacity="0.8">
<path d="M29.6631 20.3628L30.2927 19.9936V18.2397L29.6631 18.5997V20.3628Z" fill="white"/>
</g>
<g style="mix-blend-mode:multiply" opacity="0.8">
<path d="M28.6592 20.9537L29.2796 20.5845V16.8091L28.6592 17.1783V20.9537Z" fill="white"/>
</g>
<g style="mix-blend-mode:multiply" opacity="0.8">
<path d="M27.6465 21.5448L28.2761 21.1755V18.8032L27.6465 19.1725V21.5448Z" fill="white"/>
</g>
<g style="mix-blend-mode:multiply" opacity="0.8">
<path d="M26.6426 22.1263L27.2722 21.7663V18.5171L26.6426 18.8863V22.1263Z" fill="white"/>
</g>
<g style="mix-blend-mode:multiply" opacity="0.8">
<path d="M25.6299 22.7167L26.2595 22.3567V20.9536L25.6299 21.3228V22.7167Z" fill="white"/>
</g>
<g style="mix-blend-mode:multiply" opacity="0.8">
<path d="M24.627 23.3077L25.2565 22.9385V20.2246L24.627 20.5938V23.3077Z" fill="white"/>
</g>
<g style="mix-blend-mode:multiply" opacity="0.8">
<path d="M23.6133 23.8984L24.2429 23.5292V21.1846L23.6133 21.5538V23.8984Z" fill="white"/>
</g>
<g style="mix-blend-mode:multiply" opacity="0.8">
<g style="mix-blend-mode:multiply" opacity="0.8">
<path d="M17.3358 24.305L14.1514 23.3819C14.7145 22.3917 15.4466 21.5104 16.3139 20.7788L17.3358 24.305Z" fill="white"/>
</g>
<g style="mix-blend-mode:multiply" opacity="0.8">
<path d="M17.3359 24.3048L13.1113 26.7694C13.1463 25.561 13.5025 24.3844 14.1424 23.3633L17.3359 24.3048Z" fill="white"/>
</g>
<g style="mix-blend-mode:multiply" opacity="0.8">
<path d="M17.3361 24.3047L13.2392 27.6924C13.1515 27.3928 13.1084 27.0817 13.1115 26.7693L17.3361 24.3047Z" fill="white"/>
</g>
<g style="mix-blend-mode:multiply" opacity="0.8">
<path d="M17.3361 24.3047L13.5039 28.3478C13.3902 28.1538 13.3013 27.9459 13.2393 27.7293L17.3361 24.3047Z" fill="white"/>
</g>
<g style="mix-blend-mode:multiply" opacity="0.8">
<path d="M17.3358 24.3047L16.104 29.1047C15.6528 29.3048 15.1464 29.3387 14.673 29.2004C14.1996 29.0622 13.7891 28.7605 13.5127 28.3478L17.3358 24.3047Z" fill="white"/>
</g>
<g style="mix-blend-mode:multiply" opacity="0.8">
<path d="M17.3356 24.3047L20.6569 24.997C19.7256 26.917 18.0879 28.3916 16.0947 29.1047L17.3356 24.3047Z" fill="white"/>
</g>
<g style="mix-blend-mode:multiply" opacity="0.8">
<path d="M17.3359 24.3048L20.6116 19.6895C20.8497 19.84 21.0539 20.0393 21.211 20.2746C21.3682 20.51 21.4748 20.776 21.524 21.0556L17.3359 24.3048Z" fill="#428787"/>
</g>
<g style="mix-blend-mode:multiply" opacity="0.8">
<path d="M17.3359 24.3048L19.69 19.3848C20.0157 19.4086 20.3299 19.5167 20.6025 19.6986L17.3359 24.3048Z" fill="#428787"/>
</g>
<g style="mix-blend-mode:multiply" opacity="0.8">
<path d="M17.3359 24.3046V20.0399C18.0338 19.5714 18.863 19.3447 19.6992 19.3938L17.3359 24.3046Z" fill="#428787"/>
</g>
<g style="mix-blend-mode:multiply" opacity="0.8">
<path d="M17.3364 24.3047L16.3145 20.76C16.636 20.4934 16.9777 20.2526 17.3364 20.04V24.3047Z" fill="#428787"/>
</g>
<g style="mix-blend-mode:multiply" opacity="0.8">
<path d="M17.3359 24.305L21.4784 21.0742C21.6683 22.4389 21.3776 23.8276 20.6572 24.9973L17.3359 24.305Z" fill="#428787"/>
</g>
</g>
<g style="mix-blend-mode:multiply" opacity="0.8">
<path d="M16.6249 25.4492C16.6223 25.5667 16.5975 25.6826 16.5519 25.7907C16.473 25.9782 16.3351 26.134 16.1595 26.2338C15.9497 26.363 15.8311 26.3261 15.7763 26.2338C15.7261 26.1574 15.7006 26.0671 15.7033 25.9753V24.6092C15.7031 24.4742 15.7246 24.3402 15.7672 24.2123C15.8461 24.0248 15.984 23.869 16.1595 23.7692C16.3877 23.64 16.4971 23.6769 16.561 23.7692C16.6084 23.8666 16.6304 23.9746 16.6249 24.083V24.2307L16.269 24.4338C16.2817 24.3296 16.2817 24.2242 16.269 24.12C16.269 24.0646 16.269 24.0553 16.1778 24.12C16.1406 24.1483 16.1122 24.1867 16.0957 24.2307C16.0849 24.3011 16.0849 24.3727 16.0957 24.443V24.8769C16.1391 24.8103 16.1988 24.7562 16.269 24.72C16.4515 24.6092 16.5519 24.6461 16.5975 24.72C16.6432 24.8014 16.6654 24.8941 16.6614 24.9877L16.6249 25.4492ZM16.0592 25.8461C16.0592 25.8461 16.0592 25.9384 16.1595 25.8923C16.1896 25.8732 16.215 25.8475 16.234 25.8172C16.2529 25.7868 16.2649 25.7525 16.269 25.7169V24.9969C16.269 24.9969 16.269 24.9046 16.1595 24.9507C16.1311 24.9662 16.107 24.9887 16.0894 25.0161C16.0719 25.0436 16.0615 25.0751 16.0592 25.1077V25.8461Z" fill="white"/>
</g>
<g style="mix-blend-mode:multiply" opacity="0.8">
<path d="M16.752 23.9997V23.769C16.8724 23.6776 16.9719 23.5611 17.0439 23.4274C17.0786 23.3728 17.1062 23.3138 17.1261 23.252L17.3359 23.0767V25.4951L16.9892 25.6982V23.8336L16.752 23.9997Z" fill="white"/>
</g>
<g style="mix-blend-mode:multiply" opacity="0.8">
<path d="M18.0572 23.6399C18.0553 23.751 18.0168 23.8582 17.9477 23.9446C17.9131 23.9958 17.866 24.0372 17.8109 24.0646C17.6831 24.1476 17.6193 24.1107 17.5828 24.0646C17.5714 24.0254 17.5714 23.9837 17.5828 23.9446V23.243C17.5847 23.132 17.6232 23.0248 17.6923 22.9384C17.7325 22.8864 17.782 22.8426 17.8383 22.8092C17.966 22.7353 18.0207 22.8092 18.0572 22.8092C18.0687 22.8483 18.0687 22.89 18.0572 22.9292V23.6399ZM17.7196 25.3015L18.6321 22.3753L18.8419 22.2461L17.9751 25.1722L17.7196 25.3015ZM17.8656 23.0769C17.8699 23.0666 17.8721 23.0557 17.8721 23.0446C17.8721 23.0335 17.8699 23.0225 17.8656 23.0122C17.8502 23.0202 17.8371 23.032 17.8275 23.0465C17.8179 23.0611 17.8122 23.0779 17.8109 23.0953V23.7969C17.8109 23.7969 17.8109 23.8892 17.8748 23.8522C17.893 23.8384 17.9076 23.8202 17.9172 23.7993C17.9268 23.7783 17.931 23.7553 17.9295 23.7322L17.8656 23.0769ZM18.9697 24.3415C18.9672 24.4509 18.9323 24.5571 18.8693 24.6461C18.8289 24.6954 18.7793 24.7361 18.7233 24.7661C18.5956 24.8492 18.5317 24.8122 18.4952 24.7661C18.4838 24.7269 18.4838 24.6853 18.4952 24.6461V23.9076C18.4985 23.7968 18.5369 23.6901 18.6047 23.603C18.6449 23.5511 18.6945 23.5072 18.7507 23.4738C18.8784 23.3999 18.9332 23.4738 18.9697 23.4738C18.9801 23.5131 18.9801 23.5545 18.9697 23.5938V24.3415ZM18.7781 23.7599C18.7781 23.7599 18.7781 23.7046 18.7781 23.6953C18.7781 23.6861 18.7781 23.6953 18.7781 23.6953C18.7508 23.7157 18.7315 23.7451 18.7233 23.7784C18.7233 23.7784 18.7233 23.7784 18.7233 23.8246V24.5261C18.7233 24.5261 18.7233 24.5722 18.7233 24.5815C18.7465 24.5629 18.7626 24.5368 18.7689 24.5076C18.7732 24.4894 18.7732 24.4705 18.7689 24.4522L18.7781 23.7599Z" fill="white"/>
</g>
<g style="mix-blend-mode:multiply" opacity="0.8">
<g style="mix-blend-mode:multiply" opacity="0.8">
<path d="M40.0653 11.0769L36.8809 10.1539C37.4385 9.15988 38.1715 8.27763 39.0433 7.55078L40.0653 11.0769Z" fill="#428787"/>
</g>
<g style="mix-blend-mode:multiply" opacity="0.8">
<path d="M40.0651 11.0768L35.8496 13.5414C35.8833 12.3327 36.2395 11.1557 36.8807 10.1353L40.0651 11.0768Z" fill="#428787"/>
</g>
<g style="mix-blend-mode:multiply" opacity="0.8">
<path d="M40.0652 11.0767L35.9683 14.492C35.8871 14.1913 35.8472 13.8807 35.8497 13.569L40.0652 11.0767Z" fill="#428787"/>
</g>
<g style="mix-blend-mode:multiply" opacity="0.8">
<path d="M40.0656 11.0767L36.2425 15.1105C36.1278 14.9158 36.0359 14.7083 35.9688 14.492L40.0656 11.0767Z" fill="#428787"/>
</g>
<g style="mix-blend-mode:multiply" opacity="0.8">
<path d="M40.0653 11.0767L38.8335 15.8767C38.3812 16.0759 37.8742 16.1084 37.4007 15.9684C36.9272 15.8284 36.5172 15.5248 36.2422 15.1105L40.0653 11.0767Z" fill="white"/>
</g>
<g style="mix-blend-mode:multiply" opacity="0.8">
<path d="M40.0651 11.0767L43.3864 11.7597C42.4554 13.6821 40.818 15.1597 38.8242 15.8767L40.0651 11.0767Z" fill="white"/>
</g>
<g style="mix-blend-mode:multiply" opacity="0.8">
<path d="M40.0654 11.0768L43.3411 6.46143C43.5783 6.61509 43.7817 6.8165 43.9387 7.05311C44.0957 7.28973 44.2028 7.55649 44.2535 7.83681L40.0654 11.0768Z" fill="white"/>
</g>
<g style="mix-blend-mode:multiply" opacity="0.8">
<path d="M40.0654 11.0767L42.4195 6.15674C42.7451 6.181 43.0592 6.28904 43.332 6.47058L40.0654 11.0767Z" fill="white"/>
</g>
<g style="mix-blend-mode:multiply" opacity="0.8">
<path d="M40.0654 11.0769V6.75689C40.7605 6.28973 41.5864 6.06302 42.4195 6.11074L40.0654 11.0769Z" fill="#428787"/>
</g>
<g style="mix-blend-mode:multiply" opacity="0.8">
<path d="M40.0649 11.0768L39.043 7.48607C39.3621 7.21353 39.704 6.96954 40.0649 6.75684V11.0768Z" fill="#428787"/>
</g>
<g style="mix-blend-mode:multiply" opacity="0.8">
<path d="M40.0654 11.077L44.2079 7.84619C44.3972 9.20789 44.1065 10.5935 43.3867 11.76L40.0654 11.077Z" fill="white"/>
</g>
</g>
<g style="mix-blend-mode:multiply" opacity="0.8">
<path d="M38.705 11.9998V11.6952C38.851 11.6029 38.9149 11.5383 38.9423 11.4459C38.9528 11.4004 38.9528 11.353 38.9423 11.3075V11.0767C38.9521 11.0094 38.9521 10.941 38.9423 10.8736C38.9423 10.8183 38.9423 10.7998 38.851 10.8275C38.8269 10.8393 38.8065 10.8577 38.792 10.8804C38.7776 10.9032 38.7695 10.9296 38.7689 10.9567C38.7562 11.0702 38.7562 11.1848 38.7689 11.2983L38.4222 11.5013C38.4191 11.3299 38.4406 11.1589 38.486 10.9936C38.552 10.7891 38.6922 10.6176 38.8784 10.5136C39.0974 10.3844 39.2069 10.4306 39.2707 10.5136C39.3125 10.5899 39.3344 10.6757 39.3346 10.7629C39.3523 11.0211 39.2919 11.2787 39.1612 11.5013C39.3255 11.5013 39.362 11.769 39.362 12.0459C39.365 12.0705 39.365 12.0953 39.362 12.1198C39.3571 12.2263 39.3387 12.3318 39.3072 12.4336C39.2694 12.5707 39.2007 12.6971 39.1065 12.8029C39.0511 12.865 38.9864 12.9179 38.9149 12.9598C38.6959 13.089 38.5773 13.0429 38.5134 12.9598C38.4635 12.8242 38.4417 12.6797 38.4495 12.5352L38.7963 12.3321C38.7815 12.4362 38.7815 12.5419 38.7963 12.6459C38.7963 12.6459 38.7963 12.7013 38.8875 12.6459C38.9138 12.6279 38.9362 12.6047 38.9534 12.5778C38.9707 12.5508 38.9824 12.5206 38.9879 12.489C38.9924 12.4183 38.9924 12.3474 38.9879 12.2767V12.0644C38.9879 11.9444 38.9879 11.8798 38.8966 11.8706C38.834 11.8754 38.774 11.8978 38.7233 11.9352L38.705 11.9998Z" fill="#428787"/>
</g>
<g style="mix-blend-mode:multiply" opacity="0.8">
<path d="M39.9556 10.2829L39.4355 10.5967V10.2459L40.348 9.729V10.0798L39.9921 12.3505L39.6272 12.5628L39.9556 10.2829Z" fill="#428787"/>
</g>
<g style="mix-blend-mode:multiply" opacity="0.8">
<path d="M40.9498 10.3105C40.9412 10.4202 40.9033 10.5255 40.8403 10.6152C40.8003 10.6673 40.7507 10.7111 40.6943 10.7444C40.5666 10.8182 40.5118 10.7444 40.4754 10.7444C40.4639 10.7052 40.4639 10.6636 40.4754 10.6244V9.92284C40.4779 9.81627 40.513 9.7131 40.5757 9.62746C40.6132 9.57296 40.6633 9.52859 40.7217 9.49823C40.8495 9.42438 40.9042 9.49823 40.9407 9.49823C40.9472 9.53796 40.9472 9.5785 40.9407 9.61823L40.9498 10.3105ZM40.6031 11.9998L41.5155 9.07361L41.7163 8.95361L40.8495 11.8705L40.6031 11.9998ZM40.7491 9.74746C40.7562 9.7297 40.7562 9.70984 40.7491 9.69208C40.7219 9.7125 40.7025 9.74187 40.6943 9.77515V10.5228C40.6943 10.5228 40.6943 10.6059 40.7491 10.5782C40.7688 10.5636 40.7842 10.5439 40.7939 10.5212C40.8035 10.4984 40.8069 10.4735 40.8038 10.449L40.7491 9.74746ZM41.8623 11.0121C41.8578 11.1226 41.8195 11.229 41.7528 11.3167C41.715 11.3709 41.6649 11.4153 41.6068 11.4459C41.479 11.5198 41.4243 11.4459 41.3878 11.4459C41.3761 11.4037 41.3761 11.359 41.3878 11.3167V10.6152C41.3903 10.5086 41.4254 10.4054 41.4882 10.3198C41.513 10.255 41.5538 10.1978 41.6068 10.1536C41.7345 10.0798 41.7893 10.1536 41.8258 10.1536C41.8351 10.1931 41.8351 10.2342 41.8258 10.2736L41.8623 11.0121ZM41.6706 10.4305C41.6776 10.4096 41.6776 10.3869 41.6706 10.3659C41.6451 10.384 41.6259 10.4099 41.6159 10.4398V11.1875C41.6159 11.1875 41.6159 11.2428 41.6159 11.2521C41.6297 11.2445 41.6418 11.2339 41.6512 11.2212C41.6607 11.2085 41.6673 11.1938 41.6706 11.1782C41.6715 11.1629 41.6715 11.1474 41.6706 11.1321V10.4305Z" fill="#428787"/>
</g>
<g style="mix-blend-mode:multiply" opacity="0.8">
<path d="M13.5038 52.0709C12.5914 50.6402 13.44 47.8155 15.3834 45.7663C16.013 45.0782 16.7733 44.5256 17.6189 44.1417C18.2394 43.8832 18.285 46.0432 17.2175 48.2679C16.1499 50.4925 13.9509 52.7909 13.5038 52.0709Z" fill="white"/>
</g>
<g style="mix-blend-mode:multiply" opacity="0.8">
<path d="M20.5295 44.6678C19.9364 43.7448 18.7046 43.6155 17.4272 44.234L17.0166 48.3694L18.6499 50.9632C20.5934 48.9232 21.4328 46.0986 20.5295 44.6678Z" fill="#428787"/>
</g>
<g style="mix-blend-mode:multiply" opacity="0.8">
<path d="M15.9857 52.7445C16.3324 51.9322 16.743 51.1568 17.108 50.3353C17.2776 50.0322 17.3591 49.6868 17.343 49.3389C17.3268 48.991 17.2137 48.6548 17.0167 48.3691L13.2666 51.5445C13.3195 51.7308 13.3994 51.9081 13.5038 52.0707C13.7789 52.4533 14.1753 52.7289 14.627 52.8515C15.0786 52.9742 15.5582 52.9364 15.9857 52.7445Z" fill="white"/>
</g>
<g style="mix-blend-mode:multiply" opacity="0.8">
<path d="M18.6502 50.9629L17.0169 48.3599L14.9365 52.8829C15.6526 52.8378 16.3519 52.6441 16.9908 52.3138C17.6297 51.9834 18.1945 51.5236 18.6502 50.9629Z" fill="#428787"/>
</g>
<g style="mix-blend-mode:multiply" opacity="0.8">
<path d="M34.8554 34.5878L22.209 41.9816V41.7508L34.8554 34.3662V34.5878Z" fill="white"/>
</g>
<g style="mix-blend-mode:multiply" opacity="0.8">
<path d="M34.8554 35.9817L22.209 43.3664V43.1448L34.8554 35.751V35.9817Z" fill="white"/>
</g>
<g style="mix-blend-mode:multiply" opacity="0.8">
<path d="M34.8554 37.3661L22.209 44.7507V44.5291L34.8554 37.1445V37.3661Z" fill="white"/>
</g>
<g style="mix-blend-mode:multiply" opacity="0.8">
<path d="M34.8554 38.7508L22.209 46.1447V45.9139L34.8554 38.5293V38.7508Z" fill="white"/>
</g>
<g style="mix-blend-mode:multiply" opacity="0.8">
<path d="M34.8554 40.1448L22.209 47.5294V47.3079L34.8554 39.9141V40.1448Z" fill="white"/>
</g>
<g style="mix-blend-mode:multiply" opacity="0.8">
<path d="M34.8554 41.5292L22.209 48.9138V48.6922L34.8554 41.3076V41.5292Z" fill="white"/>
</g>
<g style="mix-blend-mode:multiply" opacity="0.8">
<path d="M40.6487 30.729C42.7382 29.9444 44.0886 31.2275 43.6506 33.5998C43.4615 34.5456 43.0927 35.4453 42.5648 36.249C42.1177 36.9413 40.3567 36.7106 39.7271 35.2521C39.0975 33.7936 39.5994 31.1259 40.6487 30.729Z" fill="#428787"/>
</g>
<g style="mix-blend-mode:multiply" opacity="0.8">
<path d="M39.0704 39.323C40.6051 38.6494 41.8848 37.494 42.7202 36.0276L39.8825 35.0215L36.0867 36.443C35.6305 38.8153 36.9809 40.1076 39.0704 39.323Z" fill="#428787"/>
</g>
<g style="mix-blend-mode:multiply" opacity="0.8">
<path d="M37.4736 33.3321C37.7565 33.8121 37.939 34.3567 38.2036 34.8644C38.6051 35.6121 39.8642 35.0214 39.8642 35.0214L41.315 30.5444C41.0882 30.5867 40.8654 30.6485 40.6489 30.729C39.3702 31.2784 38.2699 32.1804 37.4736 33.3321Z" fill="white"/>
</g>
<g style="mix-blend-mode:multiply" opacity="0.8">
<path d="M36.0684 36.4433L39.8641 35.0217L38.4772 32.1694C37.2693 33.3178 36.4301 34.8068 36.0684 36.4433Z" fill="white"/>
</g>
<g style="mix-blend-mode:multiply" opacity="0.8">
<path d="M18.8968 35.1322C18.9607 35.0584 18.9972 34.9661 18.9698 34.9107L18.7782 34.4307C18.6778 34.2091 18.1942 34.9107 18.0391 34.7722C17.7015 34.4861 17.6559 34.7722 17.8749 33.9784C17.8749 33.8953 17.8749 33.8399 17.8019 33.8491H17.2453C16.9898 33.8491 16.9442 34.5507 16.6704 34.6615C16.0865 34.8922 16.269 35.0399 15.9314 34.5784C15.9314 34.5784 15.8219 34.5784 15.7489 34.5784L15.1649 35.123C14.8912 35.3722 15.3109 35.6215 15.0828 35.9168C14.5901 36.5538 14.9094 36.4061 14.1703 36.5907C14.0912 36.6273 14.0291 36.6935 13.997 36.7753L13.7233 37.4861C13.7233 37.5784 13.7233 37.643 13.7233 37.6522C14.3072 37.7261 14.0974 37.6522 14.1065 38.2338C14.1027 38.3008 14.0732 38.3637 14.0244 38.4091C13.4404 39.0645 13.4769 38.8799 13.7506 39.5538C13.7506 39.6091 13.8419 39.6091 13.9149 39.5538C14.6174 39.0184 14.3255 39.1938 14.7452 39.3691C14.9185 39.4338 14.4715 40.163 14.7452 40.1353C15.5208 40.0799 15.3656 40.1815 15.7306 39.4338C15.7646 39.3717 15.8152 39.3205 15.8766 39.2861C16.0155 39.2329 16.1498 39.168 16.2781 39.0922C16.5153 38.9445 16.5244 39.5907 16.7982 39.3415C17.6194 38.5845 17.5099 38.7691 17.4004 38.1876C17.3988 38.1203 17.4215 38.0546 17.4643 38.003C17.5728 37.8643 17.6733 37.7195 17.7654 37.5691C17.9661 37.2553 18.3949 37.4953 18.5227 37.1445L18.7964 36.4338C18.9242 36.1015 18.2946 36.3784 18.3402 36.1107C18.4953 35.5107 18.249 35.8615 18.8968 35.1322ZM15.8127 38.3353C14.4806 38.4553 15.4569 35.843 16.7891 35.723C18.1212 35.603 17.1449 38.2061 15.8127 38.3353Z" fill="white"/>
</g>
<g style="mix-blend-mode:multiply" opacity="0.8">
<path d="M37.401 27.2952L20.4844 37.1814V32.3906L37.401 22.5137V27.2952Z" fill="white"/>
</g>
<g style="mix-blend-mode:multiply" opacity="0.8">
<path d="M43.7692 23.5847L39.2617 26.2155V21.4247L43.7692 18.7939V23.5847Z" fill="#428787"/>
</g>
</g>
</g>
<defs>
<clipPath id="clip0">
<rect width="52" height="90" fill="white"/>
</clipPath>
</defs>
</svg>
