<svg width="38" height="31" viewBox="0 0 38 31" fill="none" xmlns="http://www.w3.org/2000/svg">
<g filter="url(#filter0_d)">
<path d="M33.4827 0H4.51732C4.38012 0 4.24853 0.0526914 4.15152 0.146483C4.0545 0.240274 4 0.367482 4 0.500123V22.4999C4 22.6325 4.0545 22.7597 4.15152 22.8535C4.24853 22.9473 4.38012 23 4.51732 23H33.4827C33.6195 23 33.7508 22.9476 33.8477 22.8543C33.9447 22.7609 33.9994 22.6343 34 22.502V0.500123C34 0.367482 33.9455 0.240274 33.8485 0.146483C33.7515 0.0526914 33.6199 0 33.4827 0ZM9.17244 21.9998H5.03463V17.5015H9.17244V21.9998ZM9.17244 16.4991H5.03463V12.0015H9.17244V16.4991ZM9.17244 10.9985H5.03463V6.50089H9.17244V10.9985ZM9.17244 5.49782H5.03463V1.00025H9.17244V5.49782ZM22.8985 11.9202L17.2088 15.421C17.1304 15.4692 17.0401 15.496 16.9472 15.4988C16.8544 15.5015 16.7626 15.48 16.6813 15.4366C16.6 15.3932 16.5323 15.3294 16.4853 15.252C16.4383 15.1746 16.4137 15.0864 16.4141 14.9966V7.99348C16.4136 7.9036 16.4382 7.81525 16.4852 7.73773C16.5323 7.6602 16.6001 7.59637 16.6815 7.55293C16.7629 7.5095 16.8549 7.48807 16.9478 7.49091C17.0407 7.49374 17.1311 7.52074 17.2095 7.56905L22.8993 11.0692C22.9725 11.1145 23.0328 11.1769 23.0746 11.2506C23.1164 11.3244 23.1383 11.4071 23.1383 11.4912C23.1383 11.5752 23.1164 11.658 23.0746 11.7317C23.0328 11.8054 22.9725 11.8678 22.8993 11.9131L22.8985 11.9202ZM32.9654 21.9998H28.8276V17.5015H32.9654V21.9998ZM32.9654 16.4991H28.8276V12.0015H32.9654V16.4991ZM32.9654 10.9985H28.8276V6.50089H32.9654V10.9985ZM32.9654 5.49782H28.8276V1.00025H32.9654V5.49782Z" fill="#17057B"/>
</g>
<defs>
<filter id="filter0_d" x="0" y="0" width="38" height="31" filterUnits="userSpaceOnUse" color-interpolation-filters="sRGB">
<feFlood flood-opacity="0" result="BackgroundImageFix"/>
<feColorMatrix in="SourceAlpha" type="matrix" values="0 0 0 0 0 0 0 0 0 0 0 0 0 0 0 0 0 0 127 0"/>
<feOffset dy="4"/>
<feGaussianBlur stdDeviation="2"/>
<feColorMatrix type="matrix" values="0 0 0 0 0 0 0 0 0 0 0 0 0 0 0 0 0 0 0.08 0"/>
<feBlend mode="normal" in2="BackgroundImageFix" result="effect1_dropShadow"/>
<feBlend mode="normal" in="SourceGraphic" in2="effect1_dropShadow" result="shape"/>
</filter>
</defs>
</svg>
