<svg width="58" height="95" viewBox="0 0 58 95" fill="none" xmlns="http://www.w3.org/2000/svg">
<g clip-path="url(#clip0)">
<path d="M27.2319 65.7871L15.7403 59.1131C15.72 59.1014 15.6971 59.0952 15.6737 59.0952C15.6504 59.0952 15.6274 59.1014 15.6072 59.1131L0.189941 68.0849C0.210171 68.0732 0.233118 68.067 0.256477 68.067C0.279836 68.067 0.302783 68.0732 0.323013 68.0849L11.8147 74.7589C11.9653 74.8695 12.1431 74.9369 12.329 74.9537C12.5149 74.9705 12.7018 74.9361 12.8697 74.8543L28.287 65.8539C28.1216 65.9398 27.9361 65.979 27.7502 65.9672C27.5644 65.9554 27.3852 65.8932 27.2319 65.7871Z" fill="#BABABA"/>
<path d="M14.9137 60.8195L14.8566 74.7682C14.8949 75.146 14.8333 75.5273 14.6782 75.8738C14.523 76.2202 14.2797 76.5196 13.9727 76.7418L29.3804 67.7414C29.6883 67.524 29.9333 67.2285 30.0902 66.8851C30.2472 66.5418 30.3106 66.1628 30.2739 65.7869L30.3309 51.8286L14.9137 60.8195Z" fill="#DBDBDB"/>
<path d="M17.0808 40.626L1.66357 49.6168L11.8815 55.5377L27.2988 46.5373L17.0808 40.626Z" fill="#F4F4F4"/>
<path d="M1.70159 30.1383L1.66357 49.617L17.0808 40.6261L17.1188 21.1475L1.70159 30.1383Z" fill="#DBDBDB"/>
<path d="M17.109 20.9757C17.0748 20.9027 17.03 20.8352 16.9759 20.7755C16.798 20.587 16.593 20.4263 16.3676 20.2987C16.073 20.1271 15.7783 20.0222 15.6547 20.0985L0.208984 29.1275C0.33255 29.0608 0.627208 29.1275 0.921865 29.3373C1.14672 29.4617 1.35177 29.6192 1.53019 29.8045C1.58247 29.869 1.62712 29.9394 1.66326 30.0142C1.67594 30.0578 1.67594 30.1041 1.66326 30.1477L17.109 21.1473C17.1211 21.0907 17.1211 21.0322 17.109 20.9757Z" fill="#F4F4F4"/>
<path d="M11.8813 55.5377L1.66335 49.5788V30.1097C1.66335 29.8618 1.27364 29.5185 0.883933 29.2992C0.494225 29.08 0.114022 28.9655 0.114022 29.2039V49.5788C0.126373 49.847 0.201676 50.1086 0.333806 50.3422C0.465937 50.5758 0.651165 50.7748 0.874428 50.9231L11.8813 57.3206C12.3148 57.6073 12.6749 57.9923 12.9325 58.4445C13.1901 58.8967 13.3379 59.4034 13.3641 59.9235L13.3071 73.8722C13.3071 74.8257 12.6322 75.2261 11.8053 74.7494L0.313628 68.0753C-0.1141 67.8275 -0.123605 69.6104 0.313628 69.8583L11.8053 76.5323C13.4782 77.4857 14.8469 76.7134 14.8469 74.7684L14.9039 60.8197C14.8502 59.7628 14.5485 58.7335 14.0232 57.8156C13.498 56.8978 12.7641 56.1173 11.8813 55.5377Z" fill="#C6C6C6"/>
<path d="M29.7984 49.5216C29.5015 48.8486 29.104 48.2249 28.6198 47.6719C28.2428 47.2279 27.7966 46.8479 27.2986 46.5469L11.8813 55.5377C12.3792 55.8352 12.8254 56.212 13.2026 56.6533C13.691 57.2242 14.0886 57.8674 14.3812 58.5601C14.718 59.2799 14.8994 60.0629 14.9135 60.8579L30.3307 51.8575C30.3152 51.0504 30.134 50.2553 29.7984 49.5216Z" fill="#F4F4F4"/>
<g style="mix-blend-mode:screen">
<path d="M28.6199 47.6719L13.2026 56.6532C13.6911 57.2241 14.0887 57.8673 14.3813 58.5601L29.7985 49.5597C29.505 48.8732 29.1074 48.2364 28.6199 47.6719Z" fill="#F4F4F4"/>
</g>
<path d="M28.154 69.1908C28.154 69.1908 28.154 69.5245 28.1064 69.6675C28.1064 70.0393 28.1064 70.8211 28.4391 71.0881C29.1995 71.7269 29.8744 71.8699 30.7203 72.5278C31.4049 73.1517 32.1766 73.672 33.0111 74.0723C33.8776 74.3604 34.7888 74.4896 35.701 74.4537C36.7466 74.3584 37.8301 73.8149 37.8492 72.9092C37.8492 72.2418 37.7351 71.9557 37.6781 71.9557C37.1268 71.5744 34.5604 71.2502 33.4388 70.7258C32.3172 70.2014 31.0435 69.6675 29.8934 69.0668C29.3801 68.7999 27.9354 68.1325 28.154 69.1908Z" fill="#913434"/>
<path d="M32.3173 63.8799L32.4599 65.2528C32.5191 66.3938 32.7933 67.5131 33.2678 68.5517C33.8191 69.61 38.8663 70.983 37.5546 72.6896C37.3981 72.8658 37.2029 73.0029 36.9843 73.09C36.324 73.3726 35.6089 73.503 34.8917 73.4717C34.1744 73.4403 33.4734 73.248 32.8401 72.9089C31.8135 72.3464 31.0056 71.4025 29.9315 70.9448C29.4895 70.8065 29.07 70.6041 28.6864 70.3442C27.7358 69.5147 28.2111 67.951 28.2871 66.6544C28.303 65.9458 28.2133 65.2388 28.021 64.5568L32.3173 63.8799Z" fill="#242426"/>
<path d="M19.9606 73.5669C19.9606 73.5669 19.9606 73.891 19.8845 74.0341C19.8845 74.4154 19.837 75.1877 20.1412 75.4737C20.8636 76.1507 21.5289 76.3318 22.3368 77.0374C22.988 77.6972 23.7307 78.2591 24.542 78.7059C25.3903 79.0407 26.292 79.2183 27.2034 79.2303C28.2585 79.2303 29.3611 78.7059 29.4371 77.8096C29.4847 77.1422 29.3801 76.8562 29.3136 76.8562C28.7908 76.4462 26.2434 75.9791 25.1503 75.3975C24.0573 74.8159 22.8121 74.1866 21.738 73.5287C21.2343 73.2332 19.8275 72.4609 19.9606 73.5669Z" fill="#913434"/>
<path d="M24.4564 68.4849C24.4564 68.9425 24.5039 69.4383 24.5229 69.8673C24.5002 71.0059 24.6937 72.1384 25.0932 73.2043C25.578 74.2913 30.5397 75.9407 29.1519 77.5711C28.9843 77.7406 28.7791 77.868 28.5531 77.9429C27.8793 78.1916 27.1581 78.2839 26.4436 78.2128C25.7291 78.1418 25.04 77.9094 24.4279 77.5329C23.4299 76.9132 22.679 75.9312 21.6239 75.4068C21.1911 75.2489 20.7843 75.0272 20.4167 74.7489C19.4662 73.8622 20.0746 72.3272 20.2171 71.0401C20.2755 70.3309 20.2242 69.6169 20.0651 68.9234L24.4564 68.4849Z" fill="#242426"/>
<path d="M33.0585 48.0627C27.2414 43.1811 23.5534 41.1885 21.0061 38.8335C20.7284 37.9538 20.5779 37.0387 20.5593 36.1162C20.2932 36.488 20.0651 37.2127 19.7894 37.718C18.6203 39.8632 16.1395 40.8738 13.345 41.5317C10.9782 42.0847 8.19322 42.7044 5.99755 42.9905C5.95292 44.8396 6.34712 46.6729 7.14766 48.3392C8.26926 50.5321 16.9284 55.1467 18.7249 56.8724C19.2761 57.4064 19.9225 73.0808 19.9225 73.0808C20.4643 74.7302 25.0647 74.1868 25.0077 72.5945C25.0077 72.5945 26.6236 57.7019 26.4905 54.5937C26.4843 54.3193 26.4191 54.0494 26.2993 53.8026C26.1796 53.5558 26.0081 53.3378 25.7966 53.1636C23.8669 51.4685 21.849 49.8773 19.7514 48.3964C19.1241 47.9578 19.1526 47.8434 19.8845 48.2915C23.4014 50.4368 26.1578 52.2674 27.1178 52.9348C27.1686 52.9674 27.2101 53.0127 27.2384 53.0661C27.2667 53.1195 27.2808 53.1794 27.2794 53.2399L27.9258 68.3899C28.7907 70.5065 33.1726 69.7724 33.2486 68.0371L34.3607 50.7895C34.351 50.268 34.2297 49.7546 34.005 49.2842C33.7804 48.8137 33.4576 48.3972 33.0585 48.0627Z" fill="url(#paint0_linear)"/>
<path d="M32.6501 30.3764C32.4877 30.6753 32.2336 30.9138 31.9254 31.0563C31.6171 31.1989 31.2713 31.238 30.9392 31.1677C28.6485 30.7006 24.3712 29.6995 21.7383 29.1083C20.8353 28.9081 20.8448 28.9749 20.3981 28.1549C19.0103 25.5711 15.6931 16.2084 15.9782 14.1585C16.3204 11.7368 19.1244 11.5747 20.227 12.3089C21.3296 13.043 22.955 21.929 23.7629 23.8835C23.8865 24.1791 32.5171 26.4006 33.1254 27.3445C33.7337 28.2884 33.1919 29.3562 32.6501 30.3764Z" fill="url(#paint1_linear)"/>
<path d="M37.0696 31.7492C36.6134 32.4929 34.7409 32.9315 34.0755 32.3785C33.4102 31.8255 33.5337 30.9197 32.6973 30.8244C32.0129 30.7577 31.1385 31.0342 30.9769 30.1665C30.9033 29.6652 30.9828 29.1533 31.205 28.6983C31.7943 27.3634 32.4977 27.3444 33.8949 27.802C34.969 28.1453 36.4993 28.6315 36.8035 29.7089C36.9936 30.3954 37.2882 31.406 37.0696 31.7492Z" fill="#F4BD98"/>
<path d="M21.149 19.412C21.149 17.0189 20.9209 13.0812 19.305 12.2994C18.7727 12.042 18.1359 12.0801 16.8432 12.5664L16.4345 12.7189L9.84746 15.255C8.43148 15.8619 7.07306 16.5958 5.78879 17.4479C3.62163 19.0688 3.27945 22.2151 4.03035 24.5987C6.81534 33.4561 5.11393 42.7711 5.9979 42.9999C11.2067 45.66 21.206 43.572 21.8714 39.3578C21.8619 39.3578 21.1585 20.0794 21.149 19.412Z" fill="#28282A"/>
<path d="M8.97266 16.0844C9.32434 15.9223 9.54296 15.3598 9.84712 15.2167L16.4341 12.7188C17.6128 16.5325 16.3296 32.4548 16.3296 32.4548C16.3296 32.4548 10.1988 18.201 8.97266 16.0844Z" fill="#D6DADC"/>
<path d="M9.79017 9.63916C9.79017 9.68683 15.3982 9.87752 15.4932 10.4019C15.5883 10.9263 15.6738 11.5651 15.6928 12.0799C15.726 12.9998 15.909 13.908 16.2346 14.7686C15.9243 14.8656 15.6063 14.9358 15.2841 14.9784C15.1891 15.6458 14.9419 17.0473 14.9419 17.0473L13.9914 15.7125C13.9914 15.7125 11.6151 16.9997 10.9118 16.7613C10.4175 16.5992 9.88522 16.4085 9.77116 15.8079C9.74097 15.6443 9.72507 15.4784 9.72363 15.3121C9.72363 14.7496 9.77116 14.1394 9.79017 13.6054C9.92611 12.2869 9.92611 10.9577 9.79017 9.63916Z" fill="#E5AB83"/>
<path d="M15.7785 13.1001C15.7785 13.1001 15.9686 13.9487 15.9876 14.0535C15.9815 14.2549 15.912 14.4492 15.7891 14.6085C15.6662 14.7678 15.4961 14.8839 15.3032 14.9402C15.883 15.3883 16.7385 16.1416 17.3563 16.7136C17.2374 15.5694 16.9853 14.443 16.6054 13.3575C16.3868 12.9189 15.7785 13.1096 15.7785 13.1001Z" fill="#FAFAFA"/>
<path d="M14.0484 15.7125C14.0484 15.7125 13.4115 17.1331 12.7652 18.7063C8.76354 18.2963 8.67799 16.5706 8.40234 15.9032C8.68022 15.0956 9.16937 14.3777 9.8186 13.8247C9.74256 14.9116 11.1303 15.4932 11.9097 15.7316C12.6128 15.9066 13.3485 15.9 14.0484 15.7125Z" fill="#FAFAFA"/>
<path d="M18.3162 6.80757C16.092 5.37742 13.5066 4.06168 13.1834 4.21423L13.0504 4.29051C13.0431 4.31216 13.0431 4.33559 13.0504 4.35725C13.0682 4.39721 13.0982 4.43055 13.1359 4.45259C14.0564 4.7423 14.9281 5.16981 15.7213 5.72066C16.0254 5.91134 18.1546 7.81821 18.1546 7.81821L18.2877 7.74193L18.3162 6.80757Z" fill="#575759"/>
<path d="M16.9571 12.6903C16.7574 13.4721 16.1776 14.5972 15.3792 14.5972C13.9154 14.7021 11.4821 14.5972 11.0164 13.5961C10.2275 11.8894 9.44804 10.1161 10.0659 7.79922C10.3136 6.80638 10.8262 5.89996 11.5487 5.17728C12.0733 4.69816 12.6659 4.29974 13.3071 3.99502C15.1511 3.04159 16.7194 2.96531 16.9856 4.90078C17.1783 5.87089 17.3147 6.8514 17.3943 7.83735C17.5517 9.46821 17.4034 11.1142 16.9571 12.6903Z" fill="#F4BD98"/>
<path d="M13.1647 3.13632e-05C16.9668 3.13632e-05 17.6036 3.81376 17.2519 6.30222C17.2519 6.30222 17.0333 4.99602 16.5961 4.98648C15.1482 5.29435 13.7814 5.90513 12.5849 6.77894C11.4823 7.98979 12.4899 10.6403 12.1287 10.812C11.4918 11.1171 11.4918 10.2113 11.3112 9.9348C10.9785 9.42948 10.8265 8.91462 10.4938 9.06717C10.1611 9.21972 10.1801 11.3459 10.2562 11.67C10.2916 11.847 10.336 12.022 10.3892 12.1944C8.48822 11.4889 7.78484 10.1159 7.12899 8.10421C6.80937 6.96475 6.78933 5.7617 7.07083 4.61217C7.35234 3.46264 7.92579 2.40582 8.73535 1.54459C9.32505 0.990948 10.0239 0.567447 10.7868 0.301409C11.5498 0.0353707 12.3598 -0.0672961 13.1647 3.13632e-05Z" fill="#302625"/>
<path d="M15.2841 8.295L15.1035 9.34377H15.1701C15.2629 8.98124 15.3234 8.61111 15.3506 8.23779L15.2841 8.295Z" fill="#575759"/>
<path d="M8.83023 7.24621C8.83023 7.24621 8.60211 7.29388 8.68765 7.43689C8.87775 7.74199 9.19142 7.35108 10.5887 8.23778C10.8928 8.438 13.022 10.3353 13.022 10.3353L13.1645 10.2686V9.36283C10.9499 7.93268 9.29598 7.1604 8.83023 7.24621Z" fill="url(#paint2_linear)"/>
<path opacity="0.4" d="M12.9172 9.42974V10.202C12.9101 10.2481 12.9151 10.2952 12.9318 10.3387C12.9485 10.3822 12.9762 10.4205 13.0122 10.4499H13.0693C13.1002 10.4595 13.1334 10.4595 13.1643 10.4499L13.3069 10.488L14.7232 9.96366C14.7749 9.93868 14.8229 9.90659 14.8657 9.86832C14.9784 9.77138 15.0636 9.64643 15.1129 9.50601C15.1172 9.45844 15.1172 9.41057 15.1129 9.363L15.2935 8.30469H15.2364L12.9172 9.42974Z" fill="#66D4D4"/>
<path opacity="0.4" d="M18.3732 6.7793H18.3162L15.9399 7.96155L16.0635 8.91499C16.0646 8.95414 16.0746 8.99252 16.0927 9.02722C16.1108 9.06192 16.1366 9.09201 16.1681 9.11521H16.2251C16.2593 9.12501 16.2955 9.12501 16.3296 9.11521C16.3806 9.11239 16.4298 9.09593 16.4722 9.06753H16.5293L17.9455 8.19038C18.0467 8.12379 18.1317 8.03524 18.1943 7.93128C18.2568 7.82731 18.2952 7.71058 18.3067 7.58971L18.3732 6.7793ZM15.997 7.96155L18.3162 6.8079L15.997 7.96155Z" fill="#66D4D4"/>
<path d="M18.4304 6.79821V6.60752L18.2973 6.53125L12.8794 9.21993V9.41062L13.003 9.48689L15.3317 8.33324C15.3317 8.46672 15.2557 8.82902 15.1701 9.38201C15.2064 9.37187 15.2392 9.3521 15.2652 9.32481C15.2652 9.32481 15.3982 8.67647 15.4268 8.55253C15.4553 8.42858 15.6739 8.20929 15.8355 8.28557C15.8677 8.30722 15.8939 8.33675 15.9115 8.37137C15.9115 8.47625 15.959 8.79088 15.9971 8.9053H16.0446C16.0723 8.91474 16.1024 8.91474 16.1301 8.9053C16.1301 8.9053 16.0731 8.51439 16.0066 7.95186L18.4304 6.79821Z" fill="#575759"/>
<path d="M12.2994 9.1626L12.0808 9.26748L12.0713 9.62978L12.9553 10.2018L13.1739 10.0874L13.1929 9.72512L12.2994 9.1626Z" fill="#9E9E9E"/>
<path d="M13.0792 9.85857C13.0503 9.873 13.0255 9.89457 13.0072 9.92126C12.9889 9.94795 12.9777 9.97888 12.9746 10.0111C12.9746 10.0779 12.9746 10.0969 13.0697 10.0779C13.0963 10.0616 13.1187 10.0394 13.1352 10.0129C13.1517 9.98641 13.1618 9.95641 13.1647 9.92531C13.1647 9.85857 13.1267 9.8395 13.0792 9.85857Z" fill="#494242"/>
<path d="M9.25798 8.42845C8.99184 9.06725 9.96136 11.0504 10.3511 12.0515L11.3016 9.93488C10.5127 7.45595 9.50512 7.80872 9.25798 8.42845Z" fill="#F4BD98"/>
<path d="M19.4378 37.2887C19.4378 37.0789 19.799 36.8215 19.8655 36.6499C20.0746 36.1159 19.4948 36.0492 19.1241 36.0778C18.6144 36.1654 18.1453 36.4123 17.7839 36.7833C17.3942 37.1075 17.0235 36.8787 16.6053 36.6975C16.1871 36.5164 16.0255 36.4306 15.7403 36.2876C15.6263 36.5736 15.5027 36.8501 15.3696 37.117C15.2365 37.3935 15.0845 37.6605 14.9419 37.937C14.8222 38.3671 14.6794 38.7904 14.5142 39.2051C14.9873 39.4204 15.4446 39.6689 15.8829 39.9487C16.8363 40.5235 17.9037 40.8816 19.0101 40.9975C19.5614 41.1119 20.7115 41.3407 21.1582 40.9975C21.5229 40.6634 21.7873 40.2338 21.9216 39.7571C22.056 39.2803 22.0549 38.7755 21.9186 38.2993C21.738 37.6414 19.5519 37.5556 19.4853 37.3459C19.4378 37.3173 19.4378 37.3077 19.4378 37.2887Z" fill="#F4BD98"/>
<path d="M9.31506 33.2655C9.26753 33.5134 15.1037 35.7635 16.9191 36.5453C17.2708 36.6978 17.1948 36.9267 17.1948 36.9267C16.9134 37.0793 16.667 37.2893 16.4714 37.5433C16.2759 37.7973 16.1355 38.0895 16.0594 38.4011C15.9833 38.7128 15.9731 39.037 16.0295 39.3529C16.0859 39.6687 16.2076 39.9693 16.3868 40.2351C16.4914 41.6557 5.2754 37.2985 4.35341 35.8969C2.62348 33.2845 2.37635 21.052 3.80211 18.9163C5.40847 16.4755 6.91028 17.6196 7.66118 18.7066C9.27704 21.0806 9.44813 32.5599 9.31506 33.2655Z" fill="url(#paint3_linear)"/>
<path d="M16.6911 26.9152L15.3603 17.1616L14.6475 17.5907L14.7995 28.9365C15.7025 30.9959 16.3299 32.4642 16.3299 32.4642C16.3299 32.4642 16.52 30.0616 16.6911 26.9152Z" fill="#913434"/>
<path d="M15.474 17.3908C15.6801 16.9633 15.7811 16.4925 15.7687 16.0179C15.7687 15.646 15.7687 15.2361 15.3885 15.3695C14.934 15.5249 14.5048 15.7465 14.1148 16.0274C13.7536 16.342 13.8201 16.6567 13.8772 17.0571C13.9817 17.7722 15.2079 18.1154 15.474 17.3908Z" fill="#913434"/>
<path d="M55.3004 73.7099L38.4383 63.8991L38.3623 36.936L55.2243 46.7469L55.3004 73.7099Z" fill="#C6C6C6"/>
<path d="M18.5537 95.0001L1.68223 85.1893L1.59668 55.5947L18.4682 65.4151L18.5537 95.0001Z" fill="#C6C6C6"/>
<path d="M18.4682 65.4151L1.59668 55.5947L41.0523 32.7505L57.9143 42.5613L18.4682 65.4151Z" fill="#F4F4F4"/>
<path d="M57.9143 42.561L57.9999 72.1556L55.3004 73.7097L55.2244 46.7466L21.1772 66.4731L21.2533 93.4362L18.5538 94.9998L18.4683 65.4148L57.9143 42.561Z" fill="#DBDBDB"/>
<path d="M10.0276 55.5184V55.0036C9.95242 54.7238 9.91407 54.4353 9.91357 54.1455V55.2134C9.92549 55.6416 9.96677 56.0684 10.0371 56.491C10.0622 56.1671 10.059 55.8417 10.0276 55.5184Z" fill="#519FA5"/>
<path d="M28.5151 54.9273C27.7167 54.9273 26.9183 54.7843 26.1198 54.6984C24.7796 54.565 23.4489 54.422 22.1087 54.3171L21.2152 54.2503L19.6944 54.1836C18.1546 54.9559 16.5957 55.6519 15.0939 56.51C14.191 57.0248 13.2975 57.5683 12.3945 58.0831L11.8052 58.4073C12.107 58.6505 12.4245 58.8735 12.7557 59.0747C14.8324 60.137 17.1304 60.6907 19.4615 60.6907C21.7927 60.6907 24.0906 60.137 26.1674 59.0747C27.3876 58.4637 28.3269 57.4055 28.7908 56.1191C28.7326 55.7147 28.6404 55.316 28.5151 54.9273Z" fill="#F7DB84"/>
<path d="M26.0532 49.6836V51.3616L19.5137 55.1754L19.4092 55.0896V53.5545L26.0532 49.6836Z" fill="#53BCD0"/>
<path d="M19.4666 53.5448L19.4095 55.0893L19.248 55.137L12.6895 51.3424V49.6548L19.4666 53.5448Z" fill="#519FA5"/>
<path d="M26.0533 49.6832L19.3998 53.5542L12.6797 49.6546C14.7555 48.609 17.0471 48.0668 19.3699 48.0718C21.6928 48.0768 23.982 48.6287 26.0533 49.6832Z" fill="#91DFE5"/>
<path d="M28.7717 53.8594L28.8097 54.994V56.0809L28.7622 56.1095L19.4092 55.2132L19.4187 52.9536L26.0437 53.4971L28.7717 53.8594Z" fill="#0D5B70"/>
<path d="M26.0915 49.0732C28.3252 50.3794 29.2282 52.1719 28.7719 53.8404L19.4189 52.887L26.0915 49.0732Z" fill="#1D7FAA"/>
<path d="M10.0373 54.9939L10.0278 56.1285L19.4093 55.1083V54.0977L10.0373 54.9939Z" fill="#519FA5"/>
<path d="M12.6891 50.1982C10.4459 51.5044 9.56197 53.2969 10.0372 54.9654L19.4092 54.0692L12.6891 50.1982Z" fill="#91DFE5"/>
<path d="M19.4187 54.6411L19.4092 55.2132L12.9268 59.1604V58.6074L19.4187 54.6411Z" fill="#D3B45E"/>
<path d="M19.4091 54.6509L12.9267 58.6076L12.6795 58.4646C11.4668 57.852 10.5249 56.8086 10.0371 55.5376L19.4091 54.6509Z" fill="#F7DB84"/>
<path d="M28.7622 56.1191C28.3055 57.4161 27.3698 58.4878 26.1483 59.1129C24.1025 60.1552 21.8432 60.7063 19.5487 60.7229C17.2542 60.7394 14.9873 60.2209 12.9268 59.2083V59.7708C14.989 60.7835 17.2574 61.3021 19.5535 61.2855C21.8495 61.269 24.1104 60.7178 26.1578 59.6754C26.8608 59.3429 27.4753 58.8482 27.9511 58.2318C28.4269 57.6153 28.7505 56.8946 28.8953 56.1287L28.7622 56.1191Z" fill="#B79748"/>
<path d="M12.6795 58.4646C11.4668 57.8521 10.5249 56.8086 10.0371 55.5376V56.491C10.2514 57.1714 10.6011 57.8011 11.0652 58.3419C11.5292 58.8827 12.0978 59.3234 12.7366 59.6374L12.9267 59.7327V58.6077L12.6795 58.4646Z" fill="#B79748"/>
<path d="M28.8858 53.0107C28.882 53.2978 28.8405 53.5831 28.7622 53.8593V56.7196C28.8215 56.5236 28.8629 56.3225 28.8858 56.1189V53.0107Z" fill="#146784"/>
<path d="M34.7979 38.7855C34.7979 38.7855 34.7979 38.7855 34.7979 38.8427H34.7314C34.7173 38.8521 34.7008 38.8571 34.6838 38.8571C34.6669 38.8571 34.6504 38.8521 34.6363 38.8427C34.6363 38.8427 34.6363 38.8427 34.6363 38.7855H34.7029C34.7169 38.776 34.7335 38.771 34.7504 38.771C34.7673 38.771 34.7838 38.776 34.7979 38.7855ZM34.4367 38.9952C34.4367 38.9952 34.4367 38.9952 34.4367 39.0524H34.3607C34.3466 39.0618 34.3301 39.0669 34.3131 39.0669C34.2962 39.0669 34.2797 39.0618 34.2656 39.0524C34.2656 39.0524 34.2656 39.0524 34.2656 38.9952H34.3417C34.3557 38.9858 34.3723 38.9808 34.3892 38.9808C34.4061 38.9808 34.4226 38.9858 34.4367 38.9952ZM34.0755 39.205C34.0755 39.205 34.0755 39.205 34.0755 39.2622H33.9995C33.9854 39.2716 33.9689 39.2766 33.952 39.2766C33.935 39.2766 33.9185 39.2716 33.9044 39.2622L33.9805 39.2145L34.0755 39.205ZM33.7143 39.4147C33.7143 39.4147 33.7143 39.4147 33.7143 39.4719L33.6383 39.5196H33.5432C33.5432 39.5196 33.5432 39.4719 33.5432 39.4624H33.6098C33.6392 39.4366 33.6756 39.42 33.7143 39.4147ZM33.3436 39.6245C33.3436 39.6245 33.3436 39.6245 33.3436 39.6817L33.2771 39.7294H33.1725C33.1725 39.7294 33.1725 39.6817 33.1725 39.6721H33.2486C33.274 39.646 33.3075 39.6292 33.3436 39.6245ZM32.9824 39.8438C32.9824 39.8438 32.9824 39.8438 32.9824 39.8914H32.9064H32.8113C32.8113 39.8914 32.8113 39.8914 32.8113 39.8342H32.8874C32.9024 39.8262 32.9194 39.8228 32.9364 39.8244C32.9533 39.8261 32.9693 39.8329 32.9824 39.8438ZM32.6212 40.0535C32.6212 40.0535 32.6212 40.0535 32.6212 40.1107H32.5452C32.5311 40.1202 32.5146 40.1252 32.4977 40.1252C32.4808 40.1252 32.4642 40.1202 32.4502 40.1107C32.4502 40.1107 32.4502 40.1107 32.4502 40.0535H32.5167C32.5317 40.0428 32.5493 40.0363 32.5677 40.0346C32.586 40.033 32.6045 40.0362 32.6212 40.044V40.0535ZM32.2505 40.2633C32.2505 40.2633 32.2505 40.2633 32.2505 40.3205H32.184C32.1681 40.3297 32.1501 40.3345 32.1317 40.3345C32.1134 40.3345 32.0954 40.3297 32.0795 40.3205V40.2633H32.1555C32.1696 40.2538 32.1861 40.2488 32.203 40.2488C32.2199 40.2488 32.2365 40.2538 32.2505 40.2633ZM31.8894 40.473C31.8894 40.473 31.8894 40.473 31.8894 40.5302H31.8133C31.7992 40.5397 31.7827 40.5447 31.7658 40.5447C31.7489 40.5447 31.7323 40.5397 31.7183 40.5302C31.7183 40.5302 31.7183 40.5302 31.7183 40.473H31.7943C31.8084 40.4636 31.8249 40.4586 31.8418 40.4586C31.8587 40.4586 31.8753 40.4636 31.8894 40.473Z" fill="#85DEE0"/>
<path d="M35.0356 38.5951C35.0356 38.5951 35.0356 38.5951 35.0356 38.6523C35.0486 38.6598 35.0634 38.6638 35.0784 38.6638C35.0934 38.6638 35.1082 38.6598 35.1212 38.6523C35.1345 38.659 35.1491 38.6625 35.164 38.6625C35.1788 38.6625 35.1935 38.659 35.2067 38.6523C35.2067 38.6523 35.2067 38.6523 35.2067 38.5951C35.2067 38.5723 35.1977 38.5505 35.1817 38.5344C35.1656 38.5183 35.1439 38.5093 35.1212 38.5093C35.0985 38.5093 35.0767 38.5183 35.0607 38.5344C35.0447 38.5505 35.0356 38.5723 35.0356 38.5951Z" fill="#85DEE0"/>
<path d="M35.4539 38.7855H35.53C35.53 38.7855 35.53 38.7855 35.53 38.8427C35.5159 38.8521 35.4994 38.8571 35.4825 38.8571C35.4655 38.8571 35.449 38.8521 35.4349 38.8427H35.3589C35.3589 38.8427 35.3589 38.795 35.3589 38.7855C35.373 38.776 35.3895 38.771 35.4064 38.771C35.4233 38.771 35.4399 38.776 35.4539 38.7855ZM35.8151 38.9952H35.8912C35.8912 38.9952 35.8912 38.9952 35.8912 39.0524C35.8771 39.0618 35.8606 39.0669 35.8436 39.0669C35.8267 39.0669 35.8102 39.0618 35.7961 39.0524H35.7201C35.7201 39.0524 35.7201 39.0047 35.7201 38.9952C35.7341 38.9858 35.7507 38.9808 35.7676 38.9808C35.7845 38.9808 35.8011 38.9858 35.8151 38.9952ZM36.1763 39.205H36.2524C36.2524 39.205 36.2524 39.205 36.2524 39.2622C36.2383 39.2716 36.2218 39.2766 36.2048 39.2766C36.1879 39.2766 36.1714 39.2716 36.1573 39.2622H36.0813C36.0813 39.2622 36.0813 39.2622 36.0813 39.205C36.0953 39.1955 36.1119 39.1905 36.1288 39.1905C36.1457 39.1905 36.1623 39.1955 36.1763 39.205ZM36.5375 39.4147H36.6136C36.6136 39.4147 36.6136 39.4147 36.6136 39.4719C36.5995 39.4814 36.583 39.4864 36.566 39.4864C36.5491 39.4864 36.5326 39.4814 36.5185 39.4719H36.4425C36.4425 39.4719 36.4425 39.4719 36.4425 39.4147C36.4565 39.4053 36.4731 39.4003 36.49 39.4003C36.5069 39.4003 36.5234 39.4053 36.5375 39.4147ZM36.8987 39.6245H36.9748C36.9748 39.6245 36.9748 39.6245 36.9748 39.6817C36.9607 39.6911 36.9441 39.6961 36.9272 39.6961C36.9103 39.6961 36.8938 39.6911 36.8797 39.6817H36.8037C36.8037 39.6817 36.8037 39.6817 36.8037 39.6245C36.8177 39.6151 36.8343 39.61 36.8512 39.61C36.8681 39.61 36.8846 39.6151 36.8987 39.6245ZM37.2599 39.8342H37.3359C37.3359 39.8342 37.3359 39.8342 37.3359 39.8914H37.2409L37.1648 39.8438C37.178 39.8329 37.194 39.8261 37.2109 39.8245C37.2279 39.8228 37.2449 39.8262 37.2599 39.8342ZM37.6211 40.044H37.6971C37.6971 40.044 37.6971 40.044 37.6971 40.1012H37.6021L37.526 40.0535C37.5391 40.0426 37.5552 40.0359 37.5721 40.0342C37.589 40.0325 37.6061 40.0359 37.6211 40.044ZM37.9823 40.2442H38.0583C38.0583 40.2442 38.0583 40.2442 38.0583 40.3014H37.9633H37.8872C37.8872 40.3014 37.8872 40.3014 37.8872 40.2442H37.9823ZM38.3435 40.454H38.4195C38.4195 40.454 38.4195 40.454 38.4195 40.5112H38.3245H38.2484C38.2484 40.5112 38.2484 40.5112 38.2484 40.454H38.3435ZM38.7047 40.6637L38.7807 40.7114C38.7807 40.7114 38.7807 40.7114 38.7807 40.7686C38.7497 40.7782 38.7166 40.7782 38.6857 40.7686H38.6096C38.6096 40.7686 38.6096 40.7686 38.6096 40.7114L38.7047 40.6637ZM39.0659 40.8735L39.1419 40.9211C39.1419 40.9211 39.1419 40.9211 39.1419 40.9784C39.1109 40.9879 39.0778 40.9879 39.0469 40.9784H38.9708C38.9708 40.9784 38.9708 40.9783 38.9708 40.9211L39.0659 40.8735Z" fill="#85DEE0"/>
<path d="M39.332 41.0836C39.332 41.0836 39.332 41.0836 39.332 41.1408C39.3461 41.1502 39.3626 41.1552 39.3796 41.1552C39.3965 41.1552 39.413 41.1502 39.4271 41.1408C39.4271 41.1408 39.4271 41.1408 39.4271 41.0931C39.3966 41.0822 39.364 41.079 39.332 41.0836Z" fill="#85DEE0"/>
<path d="M32.4883 40.4351L32.0986 40.6639L33.5814 41.522L33.9711 41.2931L32.4883 40.4351Z" fill="#F7DB84"/>
<path d="M33.1251 40.0635L32.7354 40.2923L34.7599 41.465L35.1592 41.2362L33.1251 40.0635Z" fill="#F7DB84"/>
<path d="M33.7713 39.6914L33.3721 39.9202L34.2465 40.4256L34.6458 40.1967L33.7713 39.6914Z" fill="#F7DB84"/>
<path d="M34.4085 39.3198L34.0093 39.5486L35.7107 40.5307L36.1099 40.3019L34.4085 39.3198Z" fill="#F7DB84"/>
<path d="M35.0452 38.9478L34.646 39.1766L36.1098 40.0251L36.509 39.7963L35.0452 38.9478Z" fill="#F7DB84"/>
<path d="M41.0713 37.8225L44.8733 37.6699C44.8973 37.9109 44.8621 38.1542 44.771 38.3785C44.6799 38.6028 44.5356 38.8014 44.3505 38.9571L41.0713 37.8225Z" fill="#85DEE0"/>
<path d="M41.0713 37.8224L43.7232 36.2778C44.0041 36.4038 44.2503 36.5963 44.4407 36.8387C44.6311 37.0812 44.76 37.3664 44.8163 37.6698L41.0713 37.8224Z" fill="#85DEE0"/>
<path d="M41.0713 37.8224L42.9723 35.9155C43.2228 36.0003 43.4647 36.1089 43.6947 36.2397L41.0713 37.8224Z" fill="#85DEE0"/>
<path d="M41.0713 37.8223L42.364 35.7725C42.5866 35.8171 42.8058 35.8776 43.0198 35.9536L41.0713 37.8223Z" fill="#85DEE0"/>
<path d="M41.0714 37.8225L39.2939 35.9157C40.2892 35.6072 41.3474 35.5645 42.3641 35.7917L41.0714 37.8225Z" fill="#85DEE0"/>
<path d="M41.0714 37.8224L37.2693 38.0894C37.0792 37.1359 37.8301 36.3351 39.2464 35.8965L41.0714 37.8224Z" fill="#85DEE0"/>
<path d="M41.0716 37.8228L40.6723 40.0443C40.0869 40.0124 39.5098 39.8902 38.9614 39.6819L41.0716 37.8228Z" fill="#F7DB84"/>
<path d="M41.0714 37.8228L41.8223 39.9775C41.449 40.0061 41.074 40.0061 40.7007 39.9775L41.0714 37.8228Z" fill="#F7DB84"/>
<path d="M41.0713 37.8228L43.7232 39.3769C43.1224 39.7107 42.4587 39.9153 41.7747 39.9775L41.0713 37.8228Z" fill="#1D7FAA"/>
<path d="M41.0713 37.8228L44.3125 38.9573C44.1375 39.1167 43.9463 39.2573 43.7422 39.3769L41.0713 37.8228Z" fill="#1D7FAA"/>
<path d="M41.0714 37.8228L38.9708 39.6438C38.5935 39.5472 38.2455 39.3594 37.9572 39.0968C37.6689 38.8342 37.4491 38.5048 37.3169 38.1374L41.0714 37.8228Z" fill="#F7DB84"/>
<path d="M41.062 37.308C41.0055 37.2744 40.9568 37.2288 40.9194 37.1746C40.9194 37.1078 40.9194 37.022 41.024 36.9457C41.1418 36.8774 41.2813 36.8569 41.4137 36.8885C41.4937 36.9001 41.5709 36.9259 41.6418 36.9648L42.5068 37.4701C42.5776 37.5068 42.6393 37.5589 42.6874 37.6227C42.6874 37.6799 42.6874 37.7657 42.5733 37.842C42.4564 37.9127 42.3173 37.9365 42.1836 37.9087C42.0923 37.8902 42.0052 37.8547 41.927 37.8038L41.8319 37.7466L42.0505 37.6227L42.2692 37.7371C42.3057 37.7519 42.3466 37.7519 42.3832 37.7371C42.3832 37.7371 42.3357 37.6894 42.2787 37.6513L42.003 37.4987C41.989 37.5357 41.9619 37.5662 41.927 37.5845C41.8197 37.6247 41.7016 37.6247 41.5943 37.5845C41.5123 37.5696 41.4345 37.5371 41.3662 37.4892L41.062 37.308ZM41.3567 37.0602C41.3358 37.0507 41.3131 37.0458 41.2901 37.0458C41.2672 37.0458 41.2445 37.0507 41.2236 37.0602V37.1364L41.6703 37.4034C41.6929 37.4131 41.7171 37.4181 41.7416 37.4181C41.7661 37.4181 41.7904 37.4131 41.8129 37.4034C41.8129 37.4034 41.8129 37.3366 41.8129 37.3271L41.3567 37.0602Z" fill="#85DEE0"/>
<path d="M41.8222 37.8609L41.9648 37.9467C41.9381 37.9643 41.9163 37.9884 41.9013 38.0168C41.8864 38.0451 41.8788 38.0768 41.8792 38.1088V38.1851L41.7462 38.2614L40.2349 37.3842L40.4535 37.2603L41.6416 37.9467L41.8222 37.8609Z" fill="#85DEE0"/>
<path d="M40.7576 38.1852C40.6911 38.1852 40.6721 38.0994 40.6816 38.0613C40.6911 38.0231 40.6816 38.0136 40.7386 37.985C40.8154 37.9573 40.8994 37.9573 40.9762 37.985H41.0808L41.518 38.2424C41.5846 38.2424 41.6036 38.3187 41.5941 38.3664C41.5846 38.414 41.5941 38.3664 41.537 38.4331C41.5011 38.4489 41.4622 38.457 41.423 38.457C41.3837 38.457 41.3449 38.4489 41.3089 38.4331C41.2713 38.4414 41.2324 38.4414 41.1949 38.4331L40.7576 38.1852ZM40.0638 37.5273L41.0143 38.7287L40.8717 38.8049L39.9212 37.6036L40.0638 37.5273ZM41.3184 38.3664H41.385L40.9477 38.1089C40.9337 38.0995 40.9171 38.0945 40.9002 38.0945C40.8833 38.0945 40.8667 38.0995 40.8527 38.1089L41.3184 38.3664ZM39.4174 38.0803C39.3509 38.0803 39.3224 37.9945 39.3319 37.9564C39.3414 37.9183 39.3319 37.9087 39.3984 37.8896C39.4722 37.8635 39.5527 37.8635 39.6265 37.8896C39.6608 37.8808 39.6968 37.8808 39.7311 37.8896L40.1683 38.1375C40.2348 38.1375 40.2634 38.2233 40.2539 38.2615C40.2443 38.2996 40.2539 38.2615 40.1873 38.3378C40.1138 38.3656 40.0327 38.3656 39.9592 38.3378H39.8546L39.4174 38.0803ZM39.9782 38.2615H40.0352L39.598 38.0041H39.541L39.9782 38.2615Z" fill="#85DEE0"/>
<path d="M21.4433 46.4609H21.5194C21.5334 46.4515 21.55 46.4464 21.5669 46.4464C21.5838 46.4464 21.6004 46.4515 21.6144 46.4609C21.6144 46.4609 21.6144 46.4609 21.6144 46.5181H21.5384C21.5243 46.5275 21.5078 46.5326 21.4909 46.5326C21.4739 46.5326 21.4574 46.5275 21.4433 46.5181C21.4433 46.5181 21.4148 46.48 21.4433 46.4609ZM21.814 46.2511H21.8806C21.8946 46.2417 21.9112 46.2367 21.9281 46.2367C21.945 46.2367 21.9616 46.2417 21.9756 46.2511C21.9756 46.2511 21.9756 46.2511 21.9756 46.3084H21.9091C21.895 46.3178 21.8785 46.3228 21.8616 46.3228C21.8446 46.3228 21.8281 46.3178 21.814 46.3084C21.814 46.3084 21.7855 46.2702 21.8616 46.2511H21.814ZM22.1752 46.0414H22.2513C22.2653 46.032 22.2819 46.0269 22.2988 46.0269C22.3157 46.0269 22.3323 46.032 22.3463 46.0414C22.3463 46.0414 22.3463 46.0414 22.3463 46.0986H22.2703C22.2562 46.108 22.2397 46.1131 22.2228 46.1131C22.2058 46.1131 22.1893 46.108 22.1752 46.0986C22.1752 46.0986 22.1467 46.0605 22.1752 46.0414ZM22.5364 45.8316H22.6125C22.6265 45.8222 22.6431 45.8172 22.66 45.8172C22.6769 45.8172 22.6934 45.8222 22.7075 45.8316L22.6315 45.8793C22.6174 45.8887 22.6009 45.8938 22.5839 45.8938C22.567 45.8938 22.5505 45.8887 22.5364 45.8793C22.5364 45.8793 22.5079 45.8507 22.5364 45.8316ZM22.8976 45.6219L22.9737 45.5742H23.0687C23.0687 45.5742 23.0687 45.6219 23.0687 45.6314H23.0022C22.9679 45.6407 22.9318 45.6407 22.8976 45.6314C22.8976 45.6314 22.8786 45.6314 22.8976 45.6219ZM23.2683 45.4121L23.3349 45.3645H23.4394C23.4394 45.3645 23.4394 45.4121 23.4394 45.4217H23.3634C23.3324 45.4312 23.2993 45.4312 23.2683 45.4217C23.2683 45.4217 23.2398 45.4217 23.2683 45.4121ZM23.6295 45.2024H23.7055H23.7626C23.7626 45.2024 23.7626 45.2024 23.7626 45.2596H23.6865H23.5915C23.5915 45.2596 23.601 45.2119 23.6295 45.2024ZM23.9907 44.9926H24.0667C24.0808 44.9832 24.0974 44.9782 24.1143 44.9782C24.1312 44.9782 24.1477 44.9832 24.1618 44.9926C24.1618 44.9926 24.1618 44.9926 24.1618 45.0498H24.0953C24.0794 45.059 24.0613 45.0639 24.043 45.0639C24.0246 45.0639 24.0066 45.059 23.9907 45.0498V44.9926ZM24.3614 44.7733H24.4279C24.4438 44.7641 24.4619 44.7593 24.4802 44.7593C24.4986 44.7593 24.5166 44.7641 24.5325 44.7733V44.8305H24.4565C24.4424 44.84 24.4258 44.845 24.4089 44.845C24.392 44.845 24.3755 44.84 24.3614 44.8305C24.3614 44.8305 24.3329 44.8115 24.3614 44.8115V44.7733Z" fill="#85DEE0"/>
<path d="M24.7132 44.5633C24.7273 44.5539 24.7439 44.5488 24.7608 44.5488C24.7777 44.5488 24.7942 44.5539 24.8083 44.5633C24.8083 44.5633 24.8083 44.5633 24.8083 44.6205C24.795 44.6272 24.7804 44.6307 24.7655 44.6307C24.7507 44.6307 24.736 44.6272 24.7228 44.6205C24.7097 44.628 24.695 44.632 24.68 44.632C24.665 44.632 24.6502 44.628 24.6372 44.6205C24.6372 44.6205 24.7132 44.5824 24.7132 44.5633Z" fill="#85DEE0"/>
<path d="M25.084 44.7352C25.098 44.7257 25.1146 44.7207 25.1315 44.7207C25.1484 44.7207 25.1649 44.7257 25.179 44.7352H25.2551C25.2551 44.7352 25.2551 44.7352 25.2551 44.7924C25.241 44.8018 25.2244 44.8068 25.2075 44.8068C25.1906 44.8068 25.1741 44.8018 25.16 44.7924H25.084C25.084 44.7924 25.0554 44.7447 25.084 44.7352ZM25.4452 44.9449C25.4592 44.9355 25.4758 44.9305 25.4927 44.9305C25.5096 44.9305 25.5261 44.9355 25.5402 44.9449H25.6162C25.6162 44.9449 25.6162 44.9449 25.6162 45.0021C25.6022 45.0116 25.5856 45.0166 25.5687 45.0166C25.5518 45.0166 25.5353 45.0116 25.5212 45.0021H25.4452C25.4452 45.0021 25.4166 44.9545 25.4452 44.9449ZM25.8063 45.1547C25.8204 45.1452 25.837 45.1402 25.8539 45.1402C25.8708 45.1402 25.8873 45.1452 25.9014 45.1547H25.9774C25.9774 45.1547 25.9774 45.1547 25.9774 45.2119C25.9634 45.2213 25.9468 45.2263 25.9299 45.2263C25.913 45.2263 25.8965 45.2213 25.8824 45.2119H25.8063C25.8063 45.2119 25.7778 45.1642 25.8063 45.1547ZM26.1675 45.3644C26.1816 45.355 26.1981 45.35 26.2151 45.35C26.232 45.35 26.2485 45.355 26.2626 45.3644H26.3386C26.3386 45.3644 26.3386 45.3644 26.3386 45.4216C26.3246 45.4311 26.308 45.4361 26.2911 45.4361C26.2742 45.4361 26.2577 45.4311 26.2436 45.4216H26.1675C26.1675 45.4216 26.139 45.374 26.1675 45.3644ZM26.5287 45.5742C26.5428 45.5648 26.5593 45.5597 26.5763 45.5597C26.5932 45.5597 26.6097 45.5648 26.6238 45.5742H26.6998C26.6998 45.5742 26.6998 45.5742 26.6998 45.6314C26.6858 45.6408 26.6692 45.6458 26.6523 45.6458C26.6354 45.6458 26.6188 45.6408 26.6048 45.6314H26.5287C26.5287 45.6314 26.5002 45.5837 26.5287 45.5742ZM26.8899 45.7839C26.904 45.7745 26.9205 45.7695 26.9375 45.7695C26.9544 45.7695 26.9709 45.7745 26.985 45.7839H27.061C27.061 45.7839 27.061 45.7839 27.061 45.8411C27.047 45.8506 27.0304 45.8556 27.0135 45.8556C26.9966 45.8556 26.98 45.8506 26.966 45.8411H26.8899C26.8899 45.8411 26.8614 45.7649 26.8899 45.7649V45.7839ZM27.2511 45.9937C27.2652 45.9843 27.2817 45.9792 27.2986 45.9792C27.3156 45.9792 27.3321 45.9843 27.3462 45.9937H27.4222C27.4222 45.9937 27.4222 45.9937 27.4222 46.0509C27.4081 46.0603 27.3916 46.0654 27.3747 46.0654C27.3578 46.0654 27.3412 46.0603 27.3272 46.0509L27.2511 46.0032C27.2511 46.0032 27.2226 46.0032 27.2511 45.9937ZM27.6123 46.2034C27.6282 46.1942 27.6462 46.1894 27.6646 46.1894C27.6829 46.1894 27.701 46.1942 27.7169 46.2034H27.7834C27.7834 46.2034 27.7834 46.2034 27.7834 46.2607H27.6884L27.6123 46.213C27.6123 46.213 27.5648 46.213 27.6123 46.2034ZM27.9735 46.4037C28.0077 46.3943 28.0438 46.3943 28.0781 46.4037H28.1446C28.1446 46.4037 28.1446 46.4037 28.1446 46.4609H28.0495L27.9735 46.4132C27.9735 46.4132 27.945 46.4227 27.9735 46.4037ZM28.3347 46.6134H28.4393H28.5058C28.5058 46.6134 28.5058 46.6134 28.5058 46.6706H28.4107H28.3347C28.3347 46.6706 28.3157 46.6325 28.3347 46.6134ZM28.6959 46.8232H28.8005H28.867C28.867 46.8232 28.867 46.8232 28.867 46.8804H28.7719H28.6959C28.6959 46.8804 28.6769 46.8422 28.6959 46.8232Z" fill="#85DEE0"/>
<path d="M29.0568 47.0327H29.1614C29.1473 47.0421 29.1308 47.0472 29.1139 47.0472C29.0969 47.0472 29.0804 47.0421 29.0663 47.0327C29.0663 47.0327 29.0378 47.0518 29.0568 47.0327Z" fill="#85DEE0"/>
<path d="M22.1375 46.4229L21.7383 46.6517L23.3636 47.5956L23.7534 47.3572L22.1375 46.4229Z" fill="#F7DB84"/>
<path d="M22.774 46.0508L22.3843 46.2891L25.0172 47.8146L25.4164 47.5858L22.774 46.0508Z" fill="#F7DB84"/>
<path d="M23.4207 45.6885L23.0215 45.9173L25.7494 47.5L26.1487 47.2712L23.4207 45.6885Z" fill="#F7DB84"/>
<path d="M24.0574 45.3169L23.6582 45.5457L27.4127 47.7195L27.8119 47.4907L24.0574 45.3169Z" fill="#F7DB84"/>
<path d="M24.6941 44.9448L24.2949 45.1736L26.1009 46.2224L26.5001 45.9936L24.6941 44.9448Z" fill="#F7DB84"/>
<path d="M30.7964 43.7812L34.5984 43.6191C34.618 43.8607 34.5799 44.1034 34.4874 44.3272C34.3948 44.5511 34.2504 44.7496 34.0661 44.9063L30.7964 43.7812Z" fill="#1D7FAA"/>
<path d="M30.7964 43.7816L33.4673 42.2275C33.75 42.3523 33.9981 42.5442 34.1902 42.7868C34.3823 43.0293 34.5127 43.3151 34.5699 43.6195L30.7964 43.7816Z" fill="#1D7FAA"/>
<path d="M30.7964 43.7814L32.7449 41.8745C32.9946 41.9616 33.2362 42.07 33.4673 42.1987L30.7964 43.7814Z" fill="#1D7FAA"/>
<path d="M30.7964 43.7816L32.0891 41.7222C32.3117 41.7668 32.5309 41.8273 32.7449 41.9033L30.7964 43.7816Z" fill="#1D7FAA"/>
<path d="M30.7965 43.7815L29.019 41.8746C30.0151 41.5709 31.072 41.5282 32.0892 41.7506L30.7965 43.7815Z" fill="#85DEE0"/>
<path d="M30.7963 43.7817L27.0513 44.0391C26.8517 43.0857 27.6026 42.2848 29.0189 41.8462L30.7963 43.7817Z" fill="#85DEE0"/>
<path d="M30.7964 43.7812L30.4162 45.9551C29.8271 45.9279 29.2461 45.8055 28.6958 45.5928L30.7964 43.7812Z" fill="#F7DB84"/>
<path d="M30.7964 43.7812L31.5188 45.9265C31.1487 45.9551 30.7769 45.9551 30.4067 45.9265L30.7964 43.7812Z" fill="#F7DB84"/>
<path d="M30.7964 43.7812L33.4673 45.3258C32.867 45.661 32.2031 45.8656 31.5188 45.9265L30.7964 43.7812Z" fill="#1D7FAA"/>
<path d="M30.7964 43.7812L34.0376 44.9063C33.8626 45.0656 33.6714 45.2062 33.4673 45.3258L30.7964 43.7812Z" fill="#1D7FAA"/>
<path d="M30.7963 43.7812L28.6861 45.5928C28.3056 45.492 27.9565 45.2968 27.6708 45.0252C27.3851 44.7537 27.1721 44.4144 27.0513 44.0387L30.7963 43.7812Z" fill="#F7DB84"/>
<path d="M31.5569 43.2192L31.7375 43.324C31.652 43.3812 31.6235 43.4194 31.652 43.448C31.6699 43.4715 31.6925 43.491 31.7185 43.5052L31.8421 43.5719L31.9751 43.6482C31.996 43.6577 32.0187 43.6626 32.0417 43.6626C32.0646 43.6626 32.0873 43.6577 32.1082 43.6482C32.1082 43.6482 32.1082 43.6482 32.1082 43.591L31.9181 43.4575L32.1367 43.3336C32.229 43.383 32.3125 43.4475 32.3839 43.5243C32.4409 43.6005 32.4409 43.6768 32.2983 43.7626C32.1756 43.8267 32.0348 43.8468 31.8991 43.8198C31.826 43.8049 31.7555 43.7792 31.69 43.7435C31.4619 43.6101 31.3953 43.5243 31.3953 43.448C31.2015 43.4475 31.0125 43.3876 30.8535 43.2764H30.806C30.7568 43.2444 30.712 43.2059 30.6729 43.1619C30.6569 43.1362 30.6484 43.1065 30.6484 43.0761C30.6484 43.0458 30.6569 43.0161 30.6729 42.9903C30.6949 42.9525 30.7282 42.9225 30.768 42.9045C30.8326 42.877 30.9021 42.8628 30.9724 42.8628C31.0426 42.8628 31.1121 42.877 31.1767 42.9045C31.2941 42.9351 31.4063 42.9834 31.5094 43.0475L31.2908 43.1715C31.2233 43.1262 31.1497 43.0909 31.0722 43.0666C31.0151 43.0666 30.9866 43.0666 30.9581 43.0666C30.9296 43.0666 30.9581 43.0666 30.9581 43.1429L31.0817 43.2192C31.1254 43.2402 31.1668 43.2658 31.2052 43.2954C31.2706 43.3363 31.3469 43.3562 31.4238 43.3526H31.5664L31.5569 43.2192Z" fill="#1D7FAA"/>
<path d="M31.3667 44.0295L31.6993 43.8388L31.9179 43.9628L31.3571 44.2869L31.1385 44.163L30.0645 43.2858L30.3021 43.1523L31.3667 44.0295Z" fill="#1D7FAA"/>
<path d="M30.3591 44.1725C30.2926 44.1725 30.2736 44.0867 30.2831 44.0486C30.2926 44.0104 30.2831 44.0009 30.3401 43.9818C30.4171 43.9549 30.5008 43.9549 30.5777 43.9818H30.6823L31.1195 44.2297C31.1453 44.241 31.1672 44.2597 31.1825 44.2835C31.1977 44.3072 31.2056 44.335 31.2051 44.3632C31.1882 44.3902 31.1655 44.4131 31.1385 44.4299C31.0649 44.4569 30.9841 44.4569 30.9104 44.4299H30.8059L30.3591 44.1725ZM29.6653 43.5146L30.6158 44.716L30.4922 44.7922L29.5417 43.6005L29.6653 43.5146ZM30.9294 44.3537H30.9865L30.5492 44.0962C30.5345 44.0887 30.5182 44.0848 30.5017 44.0848C30.4852 44.0848 30.4689 44.0887 30.4542 44.0962C30.4542 44.0962 30.4542 44.0962 30.4542 44.1534L30.9294 44.3537ZM29.0284 44.0676C28.9619 44.0676 28.9429 43.9914 28.9429 43.9437C28.9569 43.9145 28.9803 43.891 29.0094 43.877C29.0454 43.8612 29.0842 43.8531 29.1235 43.8531C29.1627 43.8531 29.2016 43.8612 29.2375 43.877C29.2718 43.8676 29.3079 43.8676 29.3421 43.877L29.7888 44.1248C29.8137 44.1365 29.8343 44.1556 29.8479 44.1795C29.8615 44.2034 29.8675 44.2309 29.8649 44.2583C29.8649 44.2583 29.8649 44.2583 29.7983 44.3251C29.7248 44.3529 29.6437 44.3529 29.5702 44.3251H29.4656L29.0284 44.0676ZM29.5892 44.2488C29.5981 44.253 29.6079 44.2552 29.6177 44.2552C29.6276 44.2552 29.6373 44.253 29.6462 44.2488L29.1995 43.9914H29.1425L29.5892 44.2488Z" fill="#1D7FAA"/>
<path d="M50.8617 43.8865L49.8066 43.2667L49.8161 38.4424L50.8807 39.0621L50.8617 43.8865Z" fill="#146784"/>
<path opacity="0.6" d="M50.8805 39.0623L49.8159 38.4426L51.0516 37.7275L52.1162 38.3473L50.8805 39.0623Z" fill="#1D7FAA"/>
<path opacity="0.9" d="M52.1165 38.3472L52.0975 43.1715L50.8618 43.8866L50.8808 39.0622L52.1165 38.3472Z" fill="#1D7FAA"/>
<path d="M49.0082 44.9637L47.9531 44.344L47.9626 38.5376L49.0177 39.1478L49.0082 44.9637Z" fill="#146784"/>
<path opacity="0.6" d="M49.0175 39.148L47.9624 38.5378L49.1981 37.8228L50.2531 38.433L49.0175 39.148Z" fill="#1D7FAA"/>
<path opacity="0.9" d="M50.2535 38.4331L50.244 44.249L49.0083 44.9641L49.0178 39.1482L50.2535 38.4331Z" fill="#1D7FAA"/>
<path d="M47.0406 46.1082L45.9761 45.4885L45.9856 37.8896L47.0406 38.5094V46.1082Z" fill="#146784"/>
<path opacity="0.6" d="M47.0404 38.5091L45.9854 37.8894L47.2115 37.1743L48.2761 37.794L47.0404 38.5091Z" fill="#1D7FAA"/>
<path opacity="0.9" d="M48.2762 37.7939L48.2667 45.3928L47.0405 46.1079V38.509L48.2762 37.7939Z" fill="#1D7FAA"/>
<path d="M45.0636 47.2521L44.0085 46.6324L43.999 35.1436L45.0541 35.7633L45.0636 47.2521Z" fill="#146784"/>
<g opacity="0.6">
<path opacity="0.6" d="M45.0541 35.7635L43.999 35.1438L45.2347 34.4287L46.2897 35.0484L45.0541 35.7635Z" fill="#1D7FAA"/>
</g>
<path opacity="0.9" d="M46.2899 35.0483L46.2994 46.5372L45.0637 47.2523L45.0542 35.7634L46.2899 35.0483Z" fill="#1D7FAA"/>
<path d="M43.1056 48.3772L42.0505 47.767L42.041 37.8799L43.1056 38.4996V48.3772Z" fill="#146784"/>
<path opacity="0.6" d="M43.1056 38.4998L42.041 37.8801L43.2767 37.165L44.3412 37.7848L43.1056 38.4998Z" fill="#1D7FAA"/>
<path opacity="0.9" d="M44.3411 37.7847V47.6622L43.1055 48.3773V38.4997L44.3411 37.7847Z" fill="#1D7FAA"/>
<path d="M41.0809 49.5592L40.0449 48.9395L40.0259 40.9307L41.0809 41.5504V49.5592Z" fill="#146784"/>
<path opacity="0.6" d="M41.0809 41.5506L40.0259 40.9309L41.2615 40.2158L42.3166 40.8356L41.0809 41.5506Z" fill="#1D7FAA"/>
<path opacity="0.9" d="M42.3167 40.8354V48.8347L41.0811 49.5594V41.5505L42.3167 40.8354Z" fill="#1D7FAA"/>
<path d="M39.0941 50.7033L38.0391 50.0836V43.2856L39.1036 43.9054L39.0941 50.7033Z" fill="#146784"/>
<path opacity="0.6" d="M39.1036 43.9056L38.0391 43.2859L39.2747 42.5708L40.3393 43.1905L39.1036 43.9056Z" fill="#1D7FAA"/>
<path opacity="0.9" d="M40.3394 43.1904L40.3299 49.9884L39.0942 50.7035L39.1037 43.9055L40.3394 43.1904Z" fill="#1D7FAA"/>
<path d="M37.1459 51.8381L36.0908 51.2184L36.1003 46.394L37.1554 47.0138L37.1459 51.8381Z" fill="#146784"/>
<path opacity="0.6" d="M37.1552 47.014L36.1001 46.3943L37.3358 45.6792L38.3908 46.2894L37.1552 47.014Z" fill="#1D7FAA"/>
<path opacity="0.9" d="M38.3912 46.2891L38.3817 51.123L37.146 51.838L37.1555 47.0137L38.3912 46.2891Z" fill="#1D7FAA"/>
<path d="M35.1879 52.9728L34.1328 52.353V46.5371L35.1974 47.1568L35.1879 52.9728Z" fill="#146784"/>
<path opacity="0.6" d="M35.1974 47.1566L34.1328 46.5369L35.3685 45.8218L36.433 46.4415L35.1974 47.1566Z" fill="#1D7FAA"/>
<path opacity="0.9" d="M36.4332 46.4419L36.4237 52.2483L35.188 52.9729L35.1975 47.157L36.4332 46.4419Z" fill="#1D7FAA"/>
<path d="M33.2489 54.0882L32.1938 53.478V46.6133L33.2584 47.233L33.2489 54.0882Z" fill="#146784"/>
<path opacity="0.6" d="M33.2584 47.2332L32.1938 46.6135L33.4295 45.8984L34.4941 46.5182L33.2584 47.2332Z" fill="#1D7FAA"/>
<path opacity="0.9" d="M34.4937 46.5181L34.4842 53.3732L33.2485 54.0883L33.258 47.2331L34.4937 46.5181Z" fill="#1D7FAA"/>
<path opacity="0.5" d="M16.4819 8.01855V8.88618L17.613 8.23784V7.4751L16.4819 8.01855Z" fill="#F9F9F9"/>
<path style="mix-blend-mode:screen" opacity="0.2" d="M17.6127 7.4751L57.9143 42.5614L18.4682 65.4152L1.59668 55.5948L16.4816 8.88618V8.00902L17.6127 7.4751Z" fill="url(#paint4_linear)"/>
</g>
<defs>
<linearGradient id="paint0_linear" x1="5.99755" y1="55.08" x2="34.3607" y2="55.08" gradientUnits="userSpaceOnUse">
<stop stop-color="#202021"/>
<stop offset="0.85" stop-color="#28282A"/>
</linearGradient>
<linearGradient id="paint1_linear" x1="19.3709" y1="11.3312" x2="28.917" y2="32.4283" gradientUnits="userSpaceOnUse">
<stop stop-color="#28282A"/>
<stop offset="1" stop-color="#313133"/>
</linearGradient>
<linearGradient id="paint2_linear" x1="9.22935" y1="7.73623" x2="12.1259" y2="9.25685" gradientUnits="userSpaceOnUse">
<stop stop-color="#302625"/>
<stop offset="1" stop-color="#575759"/>
</linearGradient>
<linearGradient id="paint3_linear" x1="213.809" y1="-763.125" x2="546.13" y2="-341.177" gradientUnits="userSpaceOnUse">
<stop stop-color="#28282A"/>
<stop offset="1" stop-color="#313133"/>
</linearGradient>
<linearGradient id="paint4_linear" x1="13.2974" y1="34.8577" x2="40.3273" y2="43.8084" gradientUnits="userSpaceOnUse">
<stop stop-color="#F9F9F9"/>
<stop offset="0.26" stop-color="#B7B7B7"/>
<stop offset="1"/>
</linearGradient>
<clipPath id="clip0">
<rect width="58" height="95" fill="white"/>
</clipPath>
</defs>
</svg>
