<svg width="26" height="26" viewBox="0 0 26 26" fill="none" xmlns="http://www.w3.org/2000/svg">
<path d="M10.6966 12.2194C11.2362 11.948 11.6441 11.6457 11.9236 11.3191C12.4209 10.7308 12.6663 9.9507 12.6663 8.98374C12.6663 8.04279 12.4209 7.23835 11.9301 6.56392C11.111 5.46533 9.7248 4.90303 7.76489 4.87378H0V20.7237H7.23997C8.05579 20.7237 8.81147 20.6538 9.51028 20.5108C10.2091 20.3662 10.8136 20.1013 11.3256 19.7145C11.7806 19.3781 12.1609 18.9604 12.4631 18.468C12.9409 17.7237 13.1798 16.8803 13.1798 15.9409C13.1798 15.0309 12.9702 14.2557 12.5542 13.6186C12.1332 12.9816 11.5157 12.5152 10.6966 12.2194ZM3.20314 7.62676H6.70043C7.46911 7.62676 8.10291 7.70964 8.60021 7.87378C9.1755 8.11267 9.46315 8.59858 9.46315 9.33965C9.46315 10.0043 9.24376 10.4691 8.80985 10.7308C8.37269 10.9924 7.80552 11.124 7.10996 11.124H3.20314V7.62676ZM8.73347 17.6945C8.34669 17.8813 7.80227 17.974 7.10508 17.974H3.20314V13.747H7.15871C7.84777 13.7519 8.38406 13.8429 8.76759 14.0135C9.45015 14.3223 9.7898 14.8879 9.7898 15.715C9.7898 16.6901 9.43878 17.3467 8.73347 17.6945Z" fill="#005BD1"/>
<path d="M23.5009 5.61328H16.6152V7.58619H23.5009V5.61328Z" fill="#005BD1"/>
<path d="M25.8932 13.4C25.7502 12.4818 25.4349 11.6741 24.9441 10.9769C24.4062 10.1871 23.7237 9.60856 22.8932 9.24291C22.066 8.87563 21.1348 8.69199 20.098 8.69361C18.3575 8.69361 16.9436 9.23803 15.8499 10.3187C14.7594 11.4027 14.2134 12.9612 14.2134 14.9926C14.2134 17.1589 14.8163 18.7239 16.0287 19.6844C17.2361 20.6465 18.6305 21.1259 20.2134 21.1259C22.1294 21.1259 23.6196 20.5555 24.6841 19.4179C25.365 18.6996 25.7502 17.9926 25.8347 17.2987H22.6624C22.4788 17.6416 22.2659 17.9097 22.0221 18.1048C21.5801 18.4623 21.0048 18.641 20.2995 18.641C19.6283 18.641 19.0595 18.4932 18.585 18.199C17.8017 17.7277 17.3921 16.9022 17.3401 15.7272H25.9972C26.0102 14.7147 25.9777 13.9363 25.8932 13.4ZM17.4181 13.7039C17.5319 12.9417 17.8082 12.3372 18.247 11.8902C18.6857 11.445 19.3065 11.2207 20.1012 11.2191C20.8342 11.2191 21.4468 11.4287 21.9458 11.8496C22.4382 12.2738 22.7161 12.8897 22.7729 13.7039H17.4181Z" fill="#005BD1"/>
</svg>
