<svg width="22" height="23" viewBox="0 0 22 23" fill="none" xmlns="http://www.w3.org/2000/svg">
<path d="M11 0C4.93488 0 0 5.15919 0 11.5C0 17.8408 4.93488 23 11 23C17.0651 23 22 17.8408 22 11.5C22 5.15919 17.0651 0 11 0ZM11 21.5625C5.6925 21.5625 1.375 17.0473 1.375 11.5C1.375 5.95125 5.6925 1.4375 11 1.4375C16.3061 1.4375 20.625 5.95125 20.625 11.5C20.625 17.0473 16.3061 21.5625 11 21.5625Z" fill="#005BD1"/>
<path d="M11.0002 2.875C10.4227 2.875 9.85895 2.93825 9.31445 3.05612C10.3155 4.53962 11.2243 6.0835 12.0246 7.68344C13.5385 6.946 14.963 5.99437 16.2637 4.85875C14.8351 3.61963 13.0008 2.875 11.0002 2.875Z" fill="#005BD1"/>
<path d="M17.2438 5.87378C15.8289 7.12009 14.2724 8.15365 12.6196 8.96153C12.9813 9.74928 13.3168 10.5471 13.6275 11.3578C15.4535 10.9654 17.3538 10.9295 19.2375 11.2558C19.1825 9.20015 18.4428 7.32565 17.2438 5.87378Z" fill="#005BD1"/>
<path d="M7.93387 3.49854C5.4575 4.53641 3.57925 6.79041 2.96875 9.5576C5.639 9.67691 8.28175 9.21116 10.7416 8.22935C9.91525 6.58916 8.97887 5.00791 7.93387 3.49854Z" fill="#005BD1"/>
<path d="M11.3575 9.52881C8.976 10.4991 6.43225 11.0281 3.84587 11.0281C3.48975 11.0281 3.13225 11.0051 2.77475 10.985C2.76512 11.1561 2.75 11.3257 2.75 11.4996C2.75 13.6171 3.48288 15.5548 4.69425 17.0556C6.67563 14.4839 9.339 12.641 12.287 11.7152C11.9996 10.9764 11.6889 10.249 11.3575 9.52881Z" fill="#206FD7"/>
<path d="M14.1323 12.7189C14.7882 14.6308 15.3024 16.5959 15.6792 18.5997C17.5382 17.2585 18.8362 15.1411 19.1621 12.6945C17.4763 12.3825 15.7727 12.3969 14.1323 12.7189Z" fill="#005BD1"/>
<path d="M12.7819 13.0525C10.0099 13.8992 7.50603 15.6386 5.67041 18.078C7.10866 19.3531 8.96628 20.125 10.9999 20.125C12.2209 20.125 13.3773 19.8404 14.4195 19.3416C14.0414 17.1939 13.4914 15.0923 12.7819 13.0525Z" fill="#005BD1"/>
</svg>
