<svg width="32" height="26" viewBox="0 0 32 26" fill="none" xmlns="http://www.w3.org/2000/svg">
<path d="M28.8 0H3.2C2.35408 0.00429573 1.54425 0.348601 0.947594 0.95763C0.350934 1.56666 0.0159893 2.39085 0.0159999 3.25L0 22.75C0.00230328 23.6112 0.340185 24.4365 0.939803 25.0455C1.53942 25.6545 2.35202 25.9977 3.2 26H28.8C29.648 25.9977 30.4606 25.6545 31.0602 25.0455C31.6598 24.4365 31.9977 23.6112 32 22.75V3.25C31.9977 2.38877 31.6598 1.56347 31.0602 0.954487C30.4606 0.3455 29.648 0.00233926 28.8 0ZM28.8 6.5L16 14.625L3.2 6.5V3.25L16 11.375L28.8 3.25V6.5Z" fill="white"/>
</svg>
