<svg width="27" height="27" viewBox="0 0 27 27" fill="none" xmlns="http://www.w3.org/2000/svg">
<path d="M23.625 11.8125V8.4375H21.9375V11.8125H18.5625V13.5H21.9375V16.875H23.625V13.5H27V11.8125H23.625Z" fill="#005BD1"/>
<path d="M8.4375 11.8125V15.1875H13.2114C12.5145 17.1517 10.638 18.5625 8.4375 18.5625C5.64637 18.5625 3.375 16.2911 3.375 13.5C3.375 10.7089 5.64637 8.4375 8.4375 8.4375C9.64744 8.4375 10.8118 8.87119 11.7163 9.65925L13.9337 7.1145C12.4149 5.7915 10.4642 5.0625 8.4375 5.0625C3.78506 5.0625 0 8.84756 0 13.5C0 18.1524 3.78506 21.9375 8.4375 21.9375C13.0899 21.9375 16.875 18.1524 16.875 13.5V11.8125H8.4375Z" fill="#005BD1"/>
</svg>
