<svg width="20" height="20" viewBox="0 0 20 20" fill="none" xmlns="http://www.w3.org/2000/svg">
<path d="M14.5862 0H5.41381C2.42858 0 0 2.42858 0 5.41381V14.5863C0 17.5714 2.42858 20 5.41381 20H14.5863C17.5714 20 20 17.5714 20 14.5863V5.41381C20 2.42858 17.5714 0 14.5862 0V0ZM9.99998 15.4686C6.98454 15.4686 4.53139 13.0154 4.53139 9.99998C4.53139 6.98454 6.98454 4.53139 9.99998 4.53139C13.0154 4.53139 15.4686 6.98454 15.4686 9.99998C15.4686 13.0154 13.0154 15.4686 9.99998 15.4686ZM15.5993 5.82106C14.7082 5.82106 13.9834 5.09627 13.9834 4.20516C13.9834 3.31405 14.7082 2.58911 15.5993 2.58911C16.4904 2.58911 17.2154 3.31405 17.2154 4.20516C17.2154 5.09627 16.4904 5.82106 15.5993 5.82106Z" fill="#005BD1"/>
<path d="M10.0002 5.70312C7.63144 5.70312 5.7041 7.63031 5.7041 9.99923C5.7041 12.368 7.63144 14.2953 10.0002 14.2953C12.3691 14.2953 14.2963 12.368 14.2963 9.99923C14.2963 7.63031 12.3691 5.70312 10.0002 5.70312Z" fill="#206FD7"/>
<path d="M15.5992 3.76123C15.3547 3.76123 15.1558 3.9602 15.1558 4.20465C15.1558 4.4491 15.3547 4.64807 15.5992 4.64807C15.8438 4.64807 16.0428 4.44925 16.0428 4.20465C16.0428 3.96005 15.8438 3.76123 15.5992 3.76123Z" fill="black"/>
</svg>
