<svg width="21" height="21" viewBox="0 0 21 21" fill="none" xmlns="http://www.w3.org/2000/svg">
<path d="M5.24346 6.5127H0.787109V20.2131H5.24346V6.5127Z" fill="#005BD1"/>
<path d="M17.3821 6.67336C17.3348 6.65842 17.2899 6.64223 17.2401 6.62853C17.1803 6.61483 17.1205 6.60362 17.0595 6.59365C16.8229 6.54632 16.5638 6.5127 16.2599 6.5127C13.6618 6.5127 12.014 8.4021 11.471 9.13196V6.5127H7.01465V20.2131H11.471V12.7401C11.471 12.7401 14.8388 8.04963 16.2599 11.4946C16.2599 14.5698 16.2599 20.2131 16.2599 20.2131H20.715V10.9678C20.715 8.8978 19.2964 7.1728 17.3821 6.67336Z" fill="#005BD1"/>
<path d="M2.96671 4.64436C4.17047 4.64436 5.14632 3.66852 5.14632 2.46476C5.14632 1.261 4.17047 0.285156 2.96671 0.285156C1.76295 0.285156 0.787109 1.261 0.787109 2.46476C0.787109 3.66852 1.76295 4.64436 2.96671 4.64436Z" fill="#005BD1"/>
</svg>
