<?xml version="1.0" encoding="utf-8"?>
<!-- Generator: Adobe Illustrator 24.1.1, SVG Export Plug-In . SVG Version: 6.00 Build 0)  -->
<svg version="1.1" id="Capa_1" xmlns="http://www.w3.org/2000/svg" xmlns:xlink="http://www.w3.org/1999/xlink" x="0px" y="0px"
	 viewBox="0 0 512 512" style="enable-background:new 0 0 512 512;" xml:space="preserve">
<style type="text/css">
	.st0{fill:#000;}
</style>
<path class="st0" d="M406,302h78.5l26.6-127.8c2.2-13.1-1.5-26.3-10.1-36.4c-8.6-10.1-21.1-15.9-34.4-15.9H45.4
	c-13.3,0-25.9,5.8-34.4,15.9c-8.5,10-12.2,23.3-9.9,37L27.5,302H106c8.3,0,15,6.7,15,15s-6.7,15-15,15H27.6L0.9,459.8
	c-2.2,13.1,1.5,26.3,10.1,36.4c8.6,10.1,21.1,15.9,34.4,15.9h421.2c13.3,0,25.9-5.8,34.4-15.9c8.5-10,12.2-23.3,9.9-37L484.5,332
	H406c-8.3,0-15-6.7-15-15S397.7,302,406,302L406,302z M256,362c0,33.1-26.9,60-60,60c-25.4,0-48.1-16.1-56.6-40
	c-2.8-7.8,1.3-16.4,9.1-19.1c7.8-2.8,16.4,1.3,19.1,9.1c4.2,12,15.6,20,28.3,20c16.5,0,30-13.5,30-30s-13.5-30-30-30h-18.6
	c-8.3,0-15-6.7-15-15s6.7-15,15-15H196c16.5,0,30-13.5,30-30s-13.5-30-30-30c-12.7,0-24.1,8-28.3,20c-2.8,7.8-11.4,11.9-19.1,9.1
	c-7.8-2.8-11.9-11.3-9.1-19.1c8.5-23.9,31.2-40,56.6-40c33.1,0,60,26.9,60,60c0,17.9-7.9,34-20.4,45C248.1,328,256,344.1,256,362
	L256,362z M361,407c0,8.3-6.7,15-15,15s-15-6.7-15-15V255l-21.7,14.5c-6.9,4.6-16.2,2.7-20.8-4.2c-4.6-6.9-2.7-16.2,4.2-20.8l45-30
	c4.6-3.1,10.5-3.4,15.4-0.7c4.9,2.6,7.9,7.7,7.9,13.2V407z"/>
<path class="st0" d="M32.7,45v45h450V45c0-24.8-20.2-45-45-45h-360C52.9,0,32.7,20.2,32.7,45z M407.7,30c8.3,0,15,6.7,15,15
	c0,8.3-6.7,15-15,15s-15-6.7-15-15C392.7,36.7,399.4,30,407.7,30z M107.7,30c8.3,0,15,6.7,15,15c0,8.3-6.7,15-15,15s-15-6.7-15-15
	C92.7,36.7,99.4,30,107.7,30z"/>
</svg>
