<?xml version="1.0" standalone="no"?>
<!DOCTYPE svg PUBLIC "-//W3C//DTD SVG 20010904//EN"
 "http://www.w3.org/TR/2001/REC-SVG-20010904/DTD/svg10.dtd">
<svg version="1.0" xmlns="http://www.w3.org/2000/svg"
 width="512.000000pt" height="512.000000pt" viewBox="0 0 512.000000 512.000000"
 preserveAspectRatio="xMidYMid meet">

<g transform="translate(0.000000,512.000000) scale(0.100000,-0.100000)"
fill="#000000" stroke="none">
<path d="M1185 5105 c-388 -60 -732 -278 -946 -597 -81 -123 -123 -208 -169
-347 -73 -218 -71 -176 -67 -1651 3 -1304 3 -1316 24 -1406 64 -270 177 -483
357 -672 165 -172 356 -292 582 -365 214 -69 178 -68 1644 -64 1304 3 1316 3
1406 24 270 64 483 177 672 357 172 165 292 356 365 582 69 214 68 178 64
1644 -3 1304 -3 1316 -24 1406 -68 288 -204 529 -407 722 -153 144 -322 245
-525 312 -215 72 -176 70 -1612 69 -978 -1 -1303 -4 -1364 -14z m2880 -656
c326 -60 454 -461 221 -695 -206 -206 -543 -145 -667 120 -93 199 -4 446 194
540 93 44 157 53 252 35z m-1223 -519 c279 -58 499 -180 708 -389 64 -64 138
-150 165 -191 108 -163 183 -344 221 -535 27 -134 25 -396 -4 -532 -120 -559
-535 -974 -1095 -1095 -146 -31 -408 -31 -554 0 -279 60 -508 183 -706 379
-385 380 -516 950 -336 1460 108 306 338 580 624 746 149 87 342 152 517 176
110 15 346 5 460 -19z"/>
<path d="M3954 4150 c-34 -13 -74 -69 -74 -101 0 -124 163 -163 216 -51 42 88
-52 189 -142 152z"/>
<path d="M2375 3644 c-393 -70 -717 -343 -850 -717 -144 -404 -43 -843 264
-1147 222 -220 518 -334 825 -317 519 28 942 405 1030 916 89 521 -215 1037
-717 1216 -174 62 -377 80 -552 49z"/>
</g>
</svg>
