<?xml version="1.0" encoding="utf-8"?>
<!-- Generator: Adobe Illustrator 24.1.1, SVG Export Plug-In . SVG Version: 6.00 Build 0)  -->
<svg version="1.1" id="bold" xmlns="http://www.w3.org/2000/svg" xmlns:xlink="http://www.w3.org/1999/xlink" x="0px" y="0px"
	 viewBox="0 0 512 512" style="enable-background:new 0 0 512 512;" xml:space="preserve">
<style type="text/css">
	.st0{fill:#000;}
</style>
<path class="st0" d="M149.3,330.7h-10.7V352h10.7c5.9,0,10.7-4.8,10.7-10.7S155.2,330.7,149.3,330.7z"/>
<path class="st0" d="M261.3,330.7h-16v64h16c2.9,0,5.3-2.4,5.3-5.3V336C266.7,333.1,264.3,330.7,261.3,330.7z"/>
<path class="st0" d="M410.7,0H101.3C69,0,42.7,26.3,42.7,58.7v394.7c0,32.4,26.3,58.7,58.7,58.7h309.3c32.4,0,58.7-26.3,58.7-58.7
	V58.7C469.3,26.3,443,0,410.7,0z M149.3,384h-10.7v26.7c0,8.8-7.2,16-16,16s-16-7.2-16-16v-96c0-8.8,7.2-16,16-16h26.7
	c23.5,0,42.7,19.1,42.7,42.7S172.9,384,149.3,384z M298.7,389.3c0,20.6-16.7,37.3-37.3,37.3h-32c-8.8,0-16-7.2-16-16v-96
	c0-8.8,7.2-16,16-16h32c20.6,0,37.3,16.7,37.3,37.3V389.3z M389.3,352c8.8,0,16,7.2,16,16c0,8.8-7.2,16-16,16H352v26.7
	c0,8.8-7.2,16-16,16c-8.8,0-16-7.2-16-16V336c0-20.6,16.7-37.3,37.3-37.3h32c8.8,0,16,7.2,16,16c0,8.8-7.2,16-16,16h-32
	c-2.9,0-5.3,2.4-5.3,5.3v16H389.3z"/>
</svg>
