<svg width="153" height="152" viewBox="0 0 153 152" fill="none" xmlns="http://www.w3.org/2000/svg">
<g clip-path="url(#clip0)">
<path d="M143.149 134.084L120.824 95.4168C121.626 94.4826 122.716 93.7915 123.987 93.4917C127.504 92.6631 130.42 90.3208 131.988 87.0657C133.555 83.8106 133.568 80.0704 132.024 76.8045C130.841 74.3049 131.517 71.3443 133.667 69.6052C136.476 67.3327 138.087 63.9574 138.087 60.3445C138.087 56.7317 136.476 53.356 133.667 51.0838C131.517 49.3448 130.841 46.3841 132.024 43.8845C133.568 40.6184 133.555 36.8782 131.988 33.623C130.42 30.3679 127.504 28.0256 123.987 27.1971C121.296 26.563 119.402 24.1889 119.383 21.4236C119.358 17.8108 117.723 14.4467 114.899 12.1941C112.074 9.94147 108.43 9.09629 104.902 9.87586C102.202 10.472 99.4663 9.15478 98.2491 6.67179C96.6588 3.42764 93.7267 1.10586 90.2041 0.301945C86.6812 -0.502265 83.0321 0.317679 80.1917 2.55041C78.018 4.25946 74.9814 4.25946 72.8074 2.55041C69.967 0.317679 66.318 -0.501671 62.7953 0.301945C59.2727 1.10586 56.3406 3.42764 54.7503 6.67179C53.5331 9.15478 50.7963 10.4729 48.0972 9.87586C44.5693 9.09689 40.9255 9.94147 38.1012 12.1941C35.2765 14.4467 33.6419 17.8108 33.6167 21.4236C33.5974 24.1887 31.704 26.563 29.0123 27.1971C25.4956 28.0256 22.5795 30.3679 21.0121 33.623C19.4443 36.8782 19.4316 40.6184 20.9762 43.8842C22.1586 46.3838 21.4829 49.3445 19.333 51.0835C16.5241 53.356 14.913 56.7314 14.913 60.3442C14.913 63.9571 16.5241 67.3327 19.333 69.6049C21.4829 71.344 22.1586 74.3046 20.9762 76.8043C19.4313 80.0704 19.4443 83.8106 21.0121 87.0657C22.5795 90.3208 25.4956 92.6631 29.0126 93.4917C30.2844 93.7912 31.3742 94.4826 32.176 95.4168L9.85142 134.084C9.25026 135.126 9.33665 136.427 10.0699 137.38C10.8035 138.332 12.039 138.748 13.1995 138.434L28.7484 134.215L32.8698 149.79C33.1773 150.953 34.1558 151.815 35.3477 151.974C35.4792 151.991 35.6105 152 35.7408 152C36.7908 152 37.7758 151.442 38.3107 150.515L57.36 117.521C58.8687 118.918 60.7292 119.915 62.7959 120.387C66.318 121.19 69.9676 120.371 72.8083 118.139C74.982 116.43 78.0186 116.43 80.1926 118.139C82.3181 119.809 84.8961 120.689 87.5355 120.689C88.4232 120.689 89.3182 120.59 90.2047 120.387C92.2714 119.915 94.1322 118.918 95.6406 117.521L114.69 150.515C115.225 151.442 116.21 152 117.26 152C117.39 152 117.521 151.991 117.653 151.974C118.845 151.815 119.823 150.953 120.131 149.79L124.252 134.215L139.801 138.434C140.962 138.749 142.197 138.332 142.931 137.38C143.664 136.427 143.75 135.126 143.149 134.084ZM36.7682 141.313L33.7242 129.809C33.5217 129.045 33.0233 128.393 32.3387 127.998C31.6538 127.602 30.8401 127.496 30.0772 127.703L18.5926 130.819L34.4019 103.437C35.15 105.397 36.4105 107.146 38.1018 108.495C40.9264 110.748 44.5705 111.593 48.0978 110.813C50.0901 110.373 52.1002 110.978 53.507 112.321L36.7682 141.313ZM88.8833 114.599C87.1158 115.002 85.2862 114.591 83.8618 113.471C81.6944 111.767 79.0977 110.916 76.5001 110.916C73.9032 110.916 71.3053 111.768 69.1385 113.471C67.7141 114.591 65.8845 115.002 64.117 114.599C62.3503 114.196 60.8797 113.031 60.082 111.404C57.6554 106.453 52.1999 103.826 46.8168 105.016C45.0472 105.407 43.22 104.983 41.8034 103.853C40.3867 102.723 39.5668 101.036 39.554 99.2238C39.5157 93.7108 35.7408 88.9772 30.3743 87.7129C28.6104 87.2973 27.148 86.1226 26.3616 84.4898C25.5755 82.857 25.569 80.9814 26.3438 79.343C28.7009 74.3593 27.3537 68.4567 23.0673 64.9893C21.6584 63.8496 20.8506 62.1566 20.8506 60.3445C20.8506 58.5325 21.6587 56.8394 23.0676 55.6998C27.3537 52.2324 28.7012 46.3298 26.3438 41.3457C25.569 39.7076 25.5755 37.8317 26.3619 36.1992C27.148 34.5665 28.6107 33.3918 30.3743 32.9762C35.7408 31.7118 39.5157 26.9783 39.554 21.4652C39.5668 19.6531 40.3864 17.9658 41.8034 16.8362C43.22 15.7063 45.0469 15.2821 46.8171 15.6734C52.1996 16.8617 57.6554 14.2356 60.082 9.2851C60.8797 7.65798 62.3503 6.49338 64.117 6.09023C65.8842 5.68739 67.7141 6.09795 69.1385 7.21773C73.473 10.6255 79.5273 10.6255 83.8618 7.21773C85.2865 6.09795 87.1161 5.68739 88.8833 6.09023C90.65 6.49338 92.1206 7.65798 92.9183 9.2851C95.3449 14.2356 100.8 16.8617 106.183 15.6734C107.952 15.2818 109.78 15.7063 111.197 16.8362C112.614 17.966 113.434 19.6531 113.446 21.4652C113.485 26.9783 117.26 31.7118 122.626 32.9762C124.39 33.3918 125.852 34.5665 126.639 36.1992C127.425 37.832 127.431 39.7076 126.657 41.346C124.299 46.3298 125.647 52.2324 129.933 55.6998C131.342 56.8394 132.15 58.5325 132.15 60.3445C132.15 62.1566 131.342 63.8496 129.933 64.9893C125.647 68.4567 124.299 74.3593 126.657 79.3433C127.431 80.9814 127.425 82.8573 126.638 84.4898C125.852 86.1226 124.39 87.2973 122.626 87.7129C117.26 88.9772 113.485 93.7108 113.446 99.2238C113.434 101.036 112.614 102.723 111.197 103.853C109.78 104.983 107.953 105.406 106.183 105.016C100.8 103.826 95.3449 106.453 92.9183 111.404C92.1206 113.031 90.65 114.195 88.8833 114.599ZM122.923 127.703C122.16 127.496 121.346 127.602 120.662 127.998C119.977 128.393 119.478 129.045 119.276 129.809L116.232 141.313L99.4936 112.321C100.901 110.977 102.911 110.373 104.902 110.813C108.431 111.592 112.074 110.748 114.899 108.495C116.59 107.146 117.85 105.397 118.598 103.437L134.408 130.819L122.923 127.703Z" fill="black"/>
<path d="M90.6242 82.7944C91.2366 82.7944 91.849 82.6053 92.3691 82.2274C93.407 81.4734 93.8431 80.1378 93.4503 78.9168L88.7708 64.368L101.111 55.3008C102.145 54.5412 102.574 53.2029 102.175 51.9837C101.775 50.7644 100.637 49.94 99.3538 49.94H84.083L79.321 35.4307C78.9208 34.2118 77.7832 33.3877 76.5005 33.3877C75.2177 33.3877 74.0798 34.2118 73.68 35.4307L68.9179 49.94H53.6472C52.3641 49.94 51.2259 50.7644 50.8263 51.9837C50.4265 53.2029 50.8554 54.5412 51.8897 55.3008L64.2301 64.368L59.5506 78.9168C59.1579 80.1381 59.594 81.4734 60.6318 82.2274C61.67 82.9815 63.0747 82.9833 64.1146 82.2325L76.5011 73.2891L88.8875 82.2325C89.4052 82.6071 90.0144 82.7944 90.6242 82.7944ZM78.2377 67.2209C77.7188 66.8462 77.1093 66.6589 76.4999 66.6589C75.8904 66.6589 75.281 66.8462 74.762 67.2209L67.9715 72.1239L70.5361 64.1504C70.9271 62.9347 70.497 61.6051 69.4677 60.849L62.7007 55.8768H71.0675C72.3503 55.8768 73.4882 55.0527 73.8881 53.8337L76.4999 45.8756L79.1117 53.8337C79.5119 55.0527 80.6495 55.8768 81.9322 55.8768H90.2991L83.532 60.849C82.5028 61.6051 82.0726 62.9344 82.4636 64.1504L85.0282 72.1239L78.2377 67.2209Z" fill="black"/>
<path d="M118.061 60.3444C118.061 37.4276 99.4168 18.7832 76.5 18.7832C53.5831 18.7832 34.9388 37.4276 34.9388 60.3444C34.9388 77.7784 45.9457 93.4841 62.3282 99.4259C63.8692 99.9846 65.5721 99.1887 66.1313 97.6474C66.6903 96.106 65.8941 94.4035 64.3528 93.8442C50.3108 88.7515 40.8764 75.2889 40.8764 60.3444C40.8764 40.7014 56.8573 24.7205 76.5003 24.7205C96.1433 24.7205 112.124 40.7014 112.124 60.3444C112.124 75.2898 102.689 88.7527 88.6459 93.8451C87.1046 94.4041 86.3081 96.1066 86.8671 97.6479C87.305 98.855 88.4441 99.6055 89.658 99.6055C89.994 99.6055 90.3357 99.5479 90.67 99.4268C107.053 93.4856 118.061 77.7796 118.061 60.3444Z" fill="black"/>
<path d="M76.5 95.9678C75.7192 95.9678 74.9533 96.2854 74.4011 96.8376C73.8489 97.3898 73.5313 98.1557 73.5313 98.9365C73.5313 99.7173 73.8489 100.483 74.4011 101.035C74.9533 101.588 75.7192 101.905 76.5 101.905C77.2808 101.905 78.0468 101.588 78.5989 101.035C79.1511 100.483 79.4688 99.7173 79.4688 98.9365C79.4688 98.1557 79.1511 97.3898 78.5989 96.8376C78.0468 96.2854 77.2808 95.9678 76.5 95.9678Z" fill="black"/>
</g>
<defs>
<clipPath id="clip0">
<rect width="152" height="152" fill="white" transform="translate(0.5)"/>
</clipPath>
</defs>
</svg>
