<svg width="41" height="41" viewBox="0 0 41 41" fill="none" xmlns="http://www.w3.org/2000/svg">
<circle cx="20.5" cy="20.5" r="20.5" fill="#FCD259"/>
<path d="M20 4C11.1777 4 4 11.1777 4 20C4 28.8223 11.1777 36 20 36C28.8223 36 36 28.8223 36 20C36 11.1777 28.8223 4 20 4ZM20 34.6667C11.9128 34.6667 5.33331 28.0872 5.33331 20C5.33331 11.9128 11.9128 5.33331 20 5.33331C28.0872 5.33331 34.6667 11.9128 34.6667 20C34.6667 28.0872 28.0872 34.6667 20 34.6667Z" fill="black"/>
<path d="M26.4712 13.5291C26.2108 13.2687 25.7889 13.2687 25.5285 13.5291L19.9998 19.0578L14.4712 13.5292C14.2108 13.2688 13.7889 13.2688 13.5285 13.5292C13.2681 13.7896 13.2681 14.2115 13.5285 14.4719L19.0571 20.0005L13.5285 25.5291C13.2681 25.7896 13.2681 26.2114 13.5285 26.4718C13.6587 26.602 13.8293 26.6671 13.9999 26.6671C14.1705 26.6671 14.341 26.602 14.4713 26.4718L19.9998 20.9432L25.5285 26.4718C25.6586 26.602 25.8293 26.6671 25.9998 26.6671C26.1704 26.6671 26.341 26.602 26.4712 26.4718C26.7316 26.2114 26.7316 25.7895 26.4712 25.5291L20.9425 20.0005L26.4711 14.4719C26.7316 14.2114 26.7316 13.7896 26.4712 13.5291Z" fill="black"/>
</svg>
