<svg width="119" height="30" viewBox="0 0 170 43" fill="none" xmlns="http://www.w3.org/2000/svg">
<g clip-path="url(#clip0)">
<path d="M31.2569 3.24792C29.2942 0.973027 25.6812 -0.00830078 21.0868 -0.00830078H7.70501C6.76829 -0.00830078 5.96538 0.660786 5.83157 1.59751L0.255839 36.8807C0.166627 37.5944 0.701898 38.2189 1.37099 38.2189H9.62306L11.6749 25.0602L11.6303 25.4616C11.7641 24.5249 12.567 23.8558 13.5038 23.8558H17.4291C25.1459 23.8558 31.1677 20.7334 32.9073 11.6784C32.9519 11.4108 32.9965 11.1432 33.0411 10.8755C33.621 7.57469 33.0857 5.29979 31.2569 3.24792Z" fill="#003087"/>
<path d="M132.249 20.0115C131.758 23.3123 129.216 23.3123 126.763 23.3123H125.38L126.361 17.1121C126.406 16.7553 126.763 16.443 127.119 16.443H127.744C129.394 16.443 131 16.443 131.803 17.3798C132.294 18.0489 132.427 18.8518 132.249 20.0115ZM131.179 11.4026H121.945C121.321 11.4026 120.785 11.8486 120.696 12.4731L116.949 36.1142C116.86 36.5603 117.217 37.0063 117.708 37.0063H122.436C122.882 37.0063 123.239 36.6941 123.328 36.248L124.398 29.5571C124.488 28.9327 125.023 28.4866 125.647 28.4866H128.547C134.613 28.4866 138.137 25.5426 139.029 19.6993C139.431 17.1567 139.029 15.1495 137.869 13.7667C136.576 12.2055 134.256 11.4026 131.179 11.4026Z" fill="#5A66DC"/>
<path d="M66.4466 20.0115C65.956 23.3123 63.4134 23.3123 60.9601 23.3123H59.5773L60.5587 17.1121C60.6033 16.7553 60.9601 16.443 61.317 16.443H61.9414C63.5919 16.443 65.1977 16.443 66.0006 17.3798C66.4912 18.0489 66.6251 18.8518 66.4466 20.0115ZM65.3761 11.4026H56.1873C55.5628 11.4026 55.0275 11.8486 54.9383 12.4731L51.1914 36.1142C51.1022 36.5603 51.4591 37.0063 51.9497 37.0063H56.3657C56.9902 37.0063 57.5255 36.5603 57.6147 35.9358L58.6406 29.5571C58.7298 28.9327 59.2651 28.4866 59.8896 28.4866H62.789C68.8553 28.4866 72.3792 25.5426 73.2713 19.6993C73.6728 17.1567 73.2713 15.1495 72.1116 13.7667C70.818 12.2055 68.4985 11.4026 65.3761 11.4026Z" fill="#2539EB"/>
<path d="M86.7931 28.5135C86.347 31.0561 84.3843 32.7511 81.7972 32.7511C80.5036 32.7511 79.4777 32.3496 78.8532 31.5467C78.1841 30.7884 77.9611 29.6733 78.1395 28.4243C78.541 25.9264 80.5929 24.1868 83.0908 24.1868C84.3397 24.1868 85.3657 24.5882 86.0348 25.3911C86.7485 26.194 87.0161 27.3092 86.7931 28.5135ZM92.9487 19.9046H88.5327C88.1758 19.9046 87.819 20.1723 87.7744 20.5737L87.596 21.8227L87.2837 21.3766C86.347 19.9938 84.2059 19.5032 82.0648 19.5032C77.2028 19.5032 73.0099 23.2055 72.207 28.3797C71.8055 30.9669 72.3854 33.4202 73.8574 35.1598C75.1955 36.7656 77.1136 37.3901 79.4331 37.3901C83.3584 37.3901 85.5441 34.8476 85.5441 34.8476L85.3657 36.0965C85.2765 36.5426 85.6333 36.9886 86.124 36.9886H90.0939C90.7184 36.9886 91.2536 36.5426 91.3429 35.9181L93.7516 20.7967C93.7962 20.3507 93.4393 19.9046 92.9487 19.9046Z" fill="#2539EB"/>
<path d="M152.595 28.5135C152.149 31.0561 150.186 32.7511 147.599 32.7511C146.305 32.7511 145.279 32.3496 144.655 31.5467C143.986 30.7884 143.763 29.6733 143.941 28.4243C144.343 25.9264 146.395 24.1868 148.893 24.1868C150.142 24.1868 151.167 24.5882 151.837 25.3911C152.506 26.194 152.773 27.3092 152.595 28.5135ZM158.75 19.9046H154.334C153.978 19.9046 153.621 20.1723 153.576 20.5737L153.398 21.8227L153.085 21.3766C152.149 19.9938 150.008 19.5032 147.867 19.5032C143.005 19.5032 138.812 23.2055 138.009 28.3797C137.607 30.9669 138.187 33.4202 139.659 35.1598C140.997 36.7656 142.915 37.3901 145.235 37.3901C149.16 37.3901 151.346 34.8476 151.346 34.8476L151.167 36.0965C151.078 36.5426 151.435 36.9886 151.926 36.9886H155.896C156.52 36.9886 157.055 36.5426 157.145 35.9181L159.553 20.7967C159.598 20.3507 159.241 19.9046 158.75 19.9046Z" fill="#5A66DC"/>
<path d="M116.481 19.9175H112.02C111.574 19.9175 111.217 20.1405 110.95 20.4974L104.839 29.5077L102.252 20.8542C102.073 20.3189 101.582 19.9175 101.003 19.9175H96.6312C96.0959 19.9175 95.7391 20.4527 95.9175 20.9434L100.824 35.3065L96.2297 41.7743C95.8729 42.265 96.2297 42.9787 96.8542 42.9787H101.27C101.672 42.9787 102.073 42.7556 102.341 42.4434L117.105 21.1218C117.462 20.6312 117.105 19.9175 116.481 19.9175Z" fill="#2539EB"/>
<path d="M163.949 12.0349L160.157 36.122C160.068 36.5681 160.425 37.0141 160.916 37.0141H164.707C165.332 37.0141 165.867 36.5681 165.956 35.9436L169.747 12.3025C169.837 11.8565 169.48 11.4104 168.989 11.4104H164.752C164.35 11.4104 164.038 11.678 163.949 12.0349Z" fill="#5A66DC"/>
<path d="M31.2569 3.24792C29.2942 0.973027 25.6812 -0.00830078 21.0868 -0.00830078H7.70501C6.76829 -0.00830078 5.96538 0.660786 5.83157 1.59751L0.255839 36.8807C0.166627 37.5944 0.701898 38.2189 1.37099 38.2189H9.62306L11.6749 25.0602L11.6303 25.4616C11.7641 24.5249 12.567 23.8558 13.5038 23.8558H17.4291C25.1459 23.8558 31.1677 20.7334 32.9073 11.6784C32.9519 11.4108 32.9965 11.1432 33.0411 10.8755C33.621 7.57469 33.0857 5.29979 31.2569 3.24792Z" fill="#003087"/>
<path d="M13.9629 10.9665C14.0521 10.3866 14.4089 9.94058 14.8996 9.71755C15.1226 9.62834 15.3456 9.53912 15.6133 9.53912H26.051C27.3 9.53912 28.4598 9.62834 29.4857 9.80676C29.7979 9.85137 30.0656 9.89597 30.3778 9.98518C30.6454 10.0298 30.9577 10.119 31.2253 10.2082C31.3591 10.2528 31.4929 10.2974 31.6268 10.342C32.162 10.5205 32.6527 10.6989 33.0541 10.9665C33.5894 7.62107 33.0541 5.34618 31.2253 3.29431C29.2181 1.01941 25.6496 0.0380859 21.0106 0.0380859H7.62884C6.69212 0.0380859 5.88921 0.707174 5.75539 1.6439L0.179667 36.9271C0.0904554 37.6408 0.625725 38.2653 1.29481 38.2653H9.6361L11.688 25.1066L13.9629 10.9665Z" fill="#2539EB"/>
<path d="M33.0959 10.9385C33.0513 11.2061 33.0067 11.4737 32.9621 11.7414C31.1778 20.7518 25.1561 23.8742 17.4393 23.8742H13.5139C12.5772 23.8742 11.7743 24.5432 11.6405 25.48L9.63323 38.1926L9.05336 41.8057C8.96415 42.4302 9.41021 42.9654 10.0347 42.9654H17.0378C17.8407 42.9654 18.5544 42.3856 18.6882 41.5381L18.7774 41.1812L20.071 32.8845L20.1602 32.4385C20.294 31.6356 21.0077 31.0111 21.8106 31.0111H22.8366C29.572 31.0111 34.8355 28.2901 36.3967 20.3503C37.0212 17.0495 36.709 14.2839 35.0139 12.3213C34.4787 11.786 33.8096 11.3399 33.0959 10.9385Z" fill="#5A66DC"/>
<path d="M31.245 10.1881C30.9774 10.0989 30.7098 10.0543 30.3975 9.9651C30.1299 9.9205 29.8176 9.83128 29.5054 9.78668C28.4349 9.60825 27.2751 9.51904 26.0708 9.51904H15.5884C15.3208 9.51904 15.0977 9.56365 14.8747 9.69747C14.384 9.9205 14.0272 10.3666 13.938 10.9464L11.7077 25.0419L11.6631 25.4879C11.7969 24.5512 12.5998 23.8821 13.5365 23.8821H17.4618C25.1786 23.8821 31.2004 20.7597 32.9401 11.7047C32.9847 11.4371 33.0293 11.1695 33.0739 10.9018C32.6278 10.6788 32.1371 10.4558 31.6465 10.2773C31.5127 10.2773 31.3789 10.2327 31.245 10.1881Z" fill="#2539EB"/>
</g>
<defs>
<clipPath id="clip0">
<rect width="169.502" height="43" fill="white" transform="translate(0.24707)"/>
</clipPath>
</defs>
</svg>
