<svg width="119" height="30" viewBox="0 0 119 30" fill="none" xmlns="http://www.w3.org/2000/svg">
<g clip-path="url(#clip0)">
<path d="M22.2482 2.26625C20.8789 0.679116 18.3582 -0.00553131 15.1528 -0.00553131H5.81669C5.16316 -0.00553131 4.603 0.461273 4.50963 1.1148L0.619592 25.731C0.557351 26.2289 0.930796 26.6646 1.3976 26.6646H7.15486L8.5864 17.4841L8.55528 17.7642C8.64864 17.1107 9.2088 16.6438 9.86233 16.6438H12.6009C17.9847 16.6438 22.186 14.4654 23.3997 8.148C23.4308 7.96127 23.4619 7.77455 23.493 7.58783C23.8976 5.28492 23.5242 3.69779 22.2482 2.26625Z" fill="#003087"/>
<path d="M92.7085 13.9619C92.3662 16.2648 90.5923 16.2648 88.8807 16.2648H87.916L88.6006 11.9391C88.6317 11.6901 88.8807 11.4723 89.1297 11.4723H89.5653C90.7168 11.4723 91.8371 11.4723 92.3973 12.1258C92.7396 12.5926 92.833 13.1528 92.7085 13.9619ZM91.9616 7.95567H85.5197C85.084 7.95567 84.7106 8.26687 84.6483 8.70255L82.0342 25.1963C81.972 25.5075 82.2209 25.8187 82.5633 25.8187H85.862C86.1732 25.8187 86.4222 25.6009 86.4844 25.2897L87.2313 20.6216C87.2936 20.186 87.667 19.8748 88.1027 19.8748H90.1255C94.3579 19.8748 96.8164 17.8208 97.4388 13.744C97.7189 11.9702 97.4388 10.5698 96.6297 9.60504C95.7272 8.51583 94.1089 7.95567 91.9616 7.95567Z" fill="#E6E8FC"/>
<path d="M46.7999 13.9619C46.4576 16.2648 44.6838 16.2648 42.9721 16.2648H42.0074L42.6921 11.9391C42.7232 11.6901 42.9721 11.4723 43.2211 11.4723H43.6568C44.8082 11.4723 45.9286 11.4723 46.4887 12.1258C46.8311 12.5926 46.9244 13.1528 46.7999 13.9619ZM46.053 7.95567H39.6423C39.2066 7.95567 38.8331 8.26687 38.7709 8.70255L36.1568 25.1963C36.0945 25.5075 36.3435 25.8187 36.6858 25.8187H39.7667C40.2024 25.8187 40.5759 25.5075 40.6381 25.0718L41.3539 20.6216C41.4161 20.186 41.7896 19.8748 42.2252 19.8748H44.2481C48.4804 19.8748 50.9389 17.8208 51.5613 13.744C51.8414 11.9702 51.5613 10.5698 50.7522 9.60504C49.8497 8.51583 48.2315 7.95567 46.053 7.95567Z" fill="#C4C9F5"/>
<path d="M60.9945 19.8935C60.6833 21.6673 59.314 22.8499 57.509 22.8499C56.6065 22.8499 55.8908 22.5698 55.4551 22.0097C54.9883 21.4806 54.8327 20.7026 54.9572 19.8312C55.2373 18.0885 56.6688 16.8748 58.4115 16.8748C59.2829 16.8748 59.9987 17.1549 60.4655 17.7151C60.9634 18.2752 61.1501 19.0532 60.9945 19.8935ZM65.2891 13.8873H62.2082C61.9593 13.8873 61.7103 14.074 61.6792 14.3541L61.5547 15.2254L61.3368 14.9142C60.6833 13.9495 59.1895 13.6072 57.6958 13.6072C54.3036 13.6072 51.3783 16.1902 50.8182 19.8001C50.5381 21.6051 50.9426 23.3167 51.9696 24.5304C52.9032 25.6507 54.2414 26.0864 55.8597 26.0864C58.5983 26.0864 60.1231 24.3126 60.1231 24.3126L59.9987 25.1839C59.9364 25.4951 60.1854 25.8063 60.5277 25.8063H63.2974C63.7331 25.8063 64.1066 25.4951 64.1688 25.0595L65.8493 14.5097C65.8804 14.1985 65.6315 13.8873 65.2891 13.8873Z" fill="#C4C9F5"/>
<path d="M106.903 19.8935C106.592 21.6673 105.223 22.8499 103.418 22.8499C102.515 22.8499 101.799 22.5698 101.364 22.0097C100.897 21.4806 100.741 20.7026 100.866 19.8312C101.146 18.0885 102.577 16.8748 104.32 16.8748C105.192 16.8748 105.907 17.1549 106.374 17.7151C106.841 18.2752 107.028 19.0532 106.903 19.8935ZM111.198 13.8873H108.117C107.868 13.8873 107.619 14.074 107.588 14.3541L107.463 15.2254L107.246 14.9142C106.592 13.9495 105.098 13.6072 103.604 13.6072C100.212 13.6072 97.287 16.1902 96.7269 19.8001C96.4468 21.6051 96.8513 23.3167 97.8783 24.5304C98.8119 25.6507 100.15 26.0864 101.768 26.0864C104.507 26.0864 106.032 24.3126 106.032 24.3126L105.907 25.1839C105.845 25.4951 106.094 25.8063 106.436 25.8063H109.206C109.642 25.8063 110.015 25.4951 110.077 25.0595L111.758 14.5097C111.789 14.1985 111.54 13.8873 111.198 13.8873Z" fill="#E6E8FC"/>
<path d="M81.7072 13.8962H78.5952C78.284 13.8962 78.035 14.0518 77.8483 14.3008L73.5848 20.5871L71.7798 14.5498C71.6554 14.1763 71.313 13.8962 70.9085 13.8962H67.8587C67.4852 13.8962 67.2363 14.2697 67.3608 14.612L70.784 24.6328L67.5786 29.1452C67.3296 29.4875 67.5786 29.9854 68.0143 29.9854H71.0952C71.3753 29.9854 71.6554 29.8298 71.8421 29.612L82.1429 14.7365C82.3919 14.3942 82.1429 13.8962 81.7072 13.8962Z" fill="#C4C9F5"/>
<path d="M114.824 8.39661L112.179 25.2016C112.117 25.5128 112.366 25.824 112.708 25.824H115.353C115.789 25.824 116.162 25.5128 116.225 25.0771L118.87 8.58333C118.932 8.27213 118.683 7.96092 118.341 7.96092H115.384C115.104 7.96092 114.886 8.14764 114.824 8.39661Z" fill="#E6E8FC"/>
<path d="M22.2482 2.26625C20.8789 0.679116 18.3582 -0.00553131 15.1528 -0.00553131H5.81669C5.16316 -0.00553131 4.603 0.461273 4.50963 1.1148L0.619592 25.731C0.557351 26.2289 0.930796 26.6646 1.3976 26.6646H7.15486L8.5864 17.4841L8.55528 17.7642C8.64864 17.1107 9.2088 16.6438 9.86233 16.6438H12.6009C17.9847 16.6438 22.186 14.4654 23.3997 8.148C23.4308 7.96127 23.4619 7.77455 23.493 7.58783C23.8976 5.28492 23.5242 3.69779 22.2482 2.26625Z" fill="#003087"/>
<path d="M10.183 7.65128C10.2453 7.24671 10.4942 6.93551 10.8366 6.77991C10.9922 6.71767 11.1478 6.65543 11.3345 6.65543H18.6166C19.488 6.65543 20.2971 6.71767 21.0129 6.84215C21.2308 6.87327 21.4175 6.90439 21.6353 6.96663C21.822 6.99775 22.0399 7.05999 22.2266 7.12223C22.32 7.15335 22.4133 7.18447 22.5067 7.21559C22.8801 7.34007 23.2225 7.46455 23.5025 7.65128C23.876 5.31725 23.5025 3.73011 22.2266 2.29858C20.8262 0.711442 18.3366 0.0267944 15.1001 0.0267944H5.76395C5.11043 0.0267944 4.55026 0.4936 4.4569 1.14713L0.566858 25.7633C0.504617 26.2612 0.878061 26.6969 1.34487 26.6969H7.16437L8.5959 17.5164L10.183 7.65128Z" fill="#C4C9F5"/>
<path d="M23.5318 7.63184C23.5007 7.81857 23.4695 8.00529 23.4384 8.19201C22.1936 14.4783 17.9924 16.6567 12.6086 16.6567H9.86996C9.21644 16.6567 8.65627 17.1235 8.56291 17.7771L7.16249 26.6464L6.75793 29.1671C6.69569 29.6028 7.00689 29.9762 7.44258 29.9762H12.3285C12.8886 29.9762 13.3866 29.5717 13.4799 28.9804L13.5422 28.7314L14.4447 22.943L14.5069 22.6318C14.6003 22.0717 15.0982 21.636 15.6583 21.636H16.3741C21.0733 21.636 24.7455 19.7377 25.8347 14.1982C26.2704 11.8953 26.0525 9.96587 24.87 8.59657C24.4965 8.22313 24.0297 7.91193 23.5318 7.63184Z" fill="#E6E8FC"/>
<path d="M22.2402 7.10832C22.0535 7.04608 21.8667 7.01496 21.6489 6.95272C21.4622 6.9216 21.2443 6.85936 21.0265 6.82824C20.2796 6.70376 19.4705 6.64152 18.6302 6.64152H11.317C11.1302 6.64152 10.9746 6.67264 10.819 6.766C10.4767 6.9216 10.2277 7.2328 10.1655 7.63737L8.60949 17.4714L8.57837 17.7826C8.67173 17.1291 9.2319 16.6623 9.88542 16.6623H12.624C18.0078 16.6623 22.2091 14.4838 23.4228 8.16641C23.4539 7.97969 23.485 7.79297 23.5161 7.60625C23.2049 7.45065 22.8626 7.29504 22.5203 7.17056C22.4269 7.17056 22.3336 7.13944 22.2402 7.10832Z" fill="#C4C9F5"/>
</g>
<defs>
<clipPath id="clip0">
<rect width="118.257" height="30" fill="white" transform="translate(0.614014)"/>
</clipPath>
</defs>
</svg>
