<svg width="72" height="72" viewBox="0 0 72 72" fill="none" xmlns="http://www.w3.org/2000/svg">
<path d="M69.5 35.5069C69.5 53.7036 54.5342 68.5137 36 68.5137C17.4658 68.5137 2.5 53.7036 2.5 35.5069C2.5 17.3101 17.4658 2.5 36 2.5C54.5342 2.5 69.5 17.3101 69.5 35.5069Z" fill="black" stroke="#E0BB4C" stroke-width="5"/>
<path d="M36 20C27.1771 20 20 27.1777 20 36C20 44.8223 27.1771 52 36 52C44.8229 52 52 44.8223 52 36C52 27.1777 44.8229 20 36 20ZM42.3607 36.5606L33.0274 42.5606C32.918 42.6315 32.7917 42.6667 32.6667 42.6667C32.5573 42.6667 32.4466 42.6393 32.3477 42.5853C32.1328 42.4681 32 42.2441 32 42V30C32 29.7559 32.1328 29.5319 32.3477 29.4147C32.5586 29.2988 32.8229 29.3059 33.0274 29.4394L42.3607 35.4394C42.5508 35.5618 42.6667 35.7734 42.6667 36C42.6667 36.2266 42.5508 36.4381 42.3607 36.5606Z" fill="#E0BB4C"/>
</svg>
