<svg width="72" height="30" viewBox="0 0 102 43" fill="none" xmlns="http://www.w3.org/2000/svg">
<g clip-path="url(#clip0)">
<path d="M7.16952 16.5987C7.16952 15.4828 8.06223 15.0644 9.56866 15.0644C11.7167 15.0644 14.4227 15.706 16.5708 16.8777V10.2382C14.2275 9.31759 11.912 8.92704 9.56866 8.92704C3.82189 8.92704 0 11.9399 0 16.9335C0 24.7446 10.7403 23.4893 10.7403 26.8648C10.7403 28.176 9.59656 28.5944 8.03433 28.5944C5.69098 28.5944 2.67811 27.6459 0.306867 26.3348V33.0579C2.92918 34.2017 5.60729 34.676 8.03433 34.676C13.9206 34.676 17.9657 31.7747 17.9657 26.6974C17.9378 18.2725 7.16952 19.779 7.16952 16.5987ZM26.279 3.29184L19.3884 4.74249L19.3605 27.3948C19.3605 31.5794 22.5129 34.676 26.6974 34.676C29.0129 34.676 30.7146 34.2575 31.6352 33.7554V28.0086C30.7425 28.3712 26.2511 29.6824 26.2511 25.4978V15.4549H31.6352V9.42918H26.2511L26.279 3.29184ZM40.4227 11.5215L39.9764 9.42918H33.8669V34.1738H40.9249V17.4077C42.5987 15.2318 45.4163 15.6223 46.309 15.9292V9.42918C45.3884 9.06652 42.0965 8.45279 40.4227 11.5215ZM48.0386 9.42918H55.1244V34.1738H48.0386V9.42918ZM48.0386 7.28111L55.1244 5.74678V0L48.0386 1.50644V7.28111ZM69.8819 8.92704C67.1201 8.92704 65.3347 10.2382 64.3304 11.1309L63.9678 9.37339H57.7468V42.3476L64.8047 40.8412L64.8326 32.8348C65.8369 33.5601 67.3433 34.6202 69.8261 34.6202C74.8755 34.6202 79.5064 30.5472 79.5064 21.5923C79.5064 13.4185 74.8476 8.92704 69.8819 8.92704ZM68.1802 28.427C66.5064 28.427 65.53 27.8412 64.8326 27.088L64.8047 16.5987C65.53 15.7897 66.5622 15.2039 68.1802 15.2039C70.7467 15.2039 72.5322 18.0772 72.5322 21.7875C72.5601 25.6094 70.8025 28.427 68.1802 28.427ZM101.824 21.8991C101.824 14.6459 98.309 8.95493 91.6137 8.95493C84.8905 8.95493 80.8176 14.6738 80.8176 21.8433C80.8176 30.3519 85.6158 34.6481 92.5343 34.6481C95.9098 34.6481 98.4484 33.8948 100.373 32.8069V27.1438C98.4484 28.0923 96.2446 28.706 93.4549 28.706C90.721 28.706 88.2661 27.7575 87.9592 24.4099H101.796C101.768 24.0472 101.824 22.5687 101.824 21.8991ZM87.8476 19.1931C87.8476 15.985 89.8004 14.6738 91.5858 14.6738C93.3154 14.6738 95.1566 16.0129 95.1566 19.1931H87.8476Z" fill="#2539EB"/>
</g>
<defs>
<clipPath id="clip0">
<rect width="101.824" height="42.3755" fill="white"/>
</clipPath>
</defs>
</svg>
