<svg width="48" height="76" viewBox="0 0 48 76" fill="none" xmlns="http://www.w3.org/2000/svg">
<path d="M21.5072 14.0114L22.1432 13.6445V14.1745L21.5072 14.5496V14.0114Z" fill="#ABBEC5"/>
<path d="M21.515 12.6189L22.151 12.252V12.7901L21.515 13.157V12.6189Z" fill="#ABBEC5"/>
<path d="M21.515 11.1661L22.151 10.791V11.3291L21.515 11.696V11.1661Z" fill="#ABBEC5"/>
<path d="M21.5072 14.5508L22.1432 14.1758L38.1482 23.4217L37.5122 23.7886L21.5072 14.5508Z" fill="#BFD4DC"/>
<path d="M21.5072 14.0114L22.1432 13.6445L38.1563 22.8823L37.5122 23.2573L21.5072 14.0114Z" fill="#36A0B7"/>
<path d="M37.5123 23.2579L38.1564 22.8828L38.1483 23.4209L37.5123 23.7878V23.2579Z" fill="#3190A4"/>
<path d="M21.515 13.156L22.151 12.7891L38.156 22.0268L37.52 22.4018L21.515 13.156Z" fill="#BFD4DC"/>
<path d="M21.515 12.6189L22.151 12.252L38.156 21.4978L37.52 21.8647L21.515 12.6189Z" fill="#36A0B7"/>
<path d="M37.5206 21.863L38.1566 21.4961V22.0261L37.5206 22.4011V21.863Z" fill="#3190A4"/>
<path d="M21.515 11.6989L22.151 11.332L38.156 20.5779L37.52 20.9448L21.515 11.6989Z" fill="#BFD4DC"/>
<path d="M37.5206 20.406L38.1566 20.0391V20.5772L37.5206 20.9441V20.406Z" fill="#3190A4"/>
<path d="M37.52 20.4057V20.9438L21.515 11.6979V11.168L37.52 20.4057Z" fill="#EA49BD"/>
<path d="M21.515 11.1661L22.151 10.791L38.156 20.0369L37.52 20.4038L21.515 11.1661Z" fill="#EA49BD"/>
<path d="M37.3574 19.0101C37.6685 19.2108 37.9276 19.4825 38.1132 19.8028C38.2989 20.1232 38.4059 20.483 38.4255 20.8527V24.3913C38.43 24.4319 38.43 24.4729 38.4255 24.5136V28.843L34.8788 23.5841L21.6296 15.9281C21.3194 15.7264 21.0611 15.4545 20.8755 15.1344C20.6899 14.8142 20.5824 14.4549 20.5615 14.0855V10.5469C20.5615 9.87019 21.0426 9.60113 21.6296 9.94357L37.3574 19.0101ZM37.5205 20.9424V20.4043L21.5155 11.1584V11.6965L37.5205 20.9424ZM37.5205 23.7879V23.258L21.5073 14.0121V14.5502L37.5123 23.7961L37.5205 23.7879ZM37.5205 22.4019V21.8637L21.5155 12.6179V13.1967L37.5205 22.4019Z" fill="#F8F9FD"/>
<path d="M37.5122 23.2576V23.7876L21.5072 14.5498V14.0117L37.5122 23.2576Z" fill="#EA49BD"/>
<path d="M37.52 21.865V22.4031L21.515 13.1573V12.6191L37.52 21.865Z" fill="#EA49BD"/>
<path d="M39.0615 20.4368C39.0653 20.4207 39.0653 20.4039 39.0615 20.3878V20.3308C39.0615 20.3308 39.0615 20.3308 39.0615 20.2818C39.0648 20.263 39.0648 20.2436 39.0615 20.2248C39.0615 20.2248 39.0615 20.2248 39.0615 20.1759C39.0615 20.1269 39.0615 20.1351 39.0615 20.1188C39.0615 20.1025 39.0615 20.078 39.0615 20.0617C39.065 20.0428 39.065 20.0235 39.0615 20.0046V19.9639C39.065 19.9477 39.065 19.9311 39.0615 19.9149C39.0625 19.8959 39.0625 19.8769 39.0615 19.8579V19.809C39.0663 19.7902 39.0663 19.7706 39.0615 19.7519C39.0615 19.7519 39.0615 19.7519 39.0615 19.7111V19.6622V19.6051V19.5399V19.4665C39.0615 19.4176 39.0044 19.3768 38.9799 19.3361L38.9066 19.2382C38.9041 19.2165 38.9041 19.1947 38.9066 19.173V19.1241L38.8658 19.0751H38.8169L38.768 19.0262H38.719H38.6701H38.6212L22.2819 9.56836H22.233H22.1922H22.1515H22.1025H21.7927H21.7193L21.6378 9.60913L21.0018 9.97603L21.1567 9.91895C21.2163 9.9108 21.2766 9.9108 21.3361 9.91895L21.5318 9.95972C21.6093 9.982 21.6834 10.0149 21.7519 10.0576L37.3574 19.0099L37.5694 19.1567L37.7651 19.3361C37.8292 19.4029 37.8891 19.4737 37.9445 19.548C38.0037 19.6245 38.0555 19.7064 38.0994 19.7926C38.1483 19.8742 38.1891 19.9639 38.2298 20.0454L38.3277 20.3145C38.3774 20.4841 38.4048 20.6595 38.4092 20.8363V24.3748C38.4137 24.4155 38.4137 24.4565 38.4092 24.4971V28.8265L39.0452 28.4596V24.1302V24.0079V20.4205L39.0615 20.4368Z" fill="#E1E1E1"/>
<g opacity="0.1">
<path opacity="0.1" d="M32.2231 56.7815C39.6263 61.0539 39.6589 67.9842 32.3046 72.2729C24.9503 76.5615 12.9812 76.5534 5.578 72.2729C-1.82523 67.9924 -1.866 61.062 5.49646 56.7815C12.8589 52.501 24.8117 52.5092 32.2231 56.7815Z" fill="black"/>
</g>
<g opacity="0.1">
<path opacity="0.1" d="M32.2231 56.7815C39.6263 61.0539 39.6589 67.9842 32.3046 72.2729C24.9503 76.5615 12.9812 76.5534 5.578 72.2729C-1.82523 67.9924 -1.866 61.062 5.49646 56.7815C12.8589 52.501 24.8117 52.5092 32.2231 56.7815Z" fill="black"/>
</g>
<path d="M32.1906 55.9306C39.0394 59.885 39.0721 66.3017 32.2722 70.256C25.4723 74.2104 14.3919 74.2104 7.5431 70.256C0.694297 66.3017 0.653531 59.885 7.45341 55.9306C14.2533 51.9763 25.3337 51.9763 32.1906 55.9306Z" fill="#40075C"/>
<path d="M32.1906 51.4462C39.0394 55.4006 39.0721 61.8173 32.2722 65.7717C25.4723 69.726 14.3919 69.726 7.5431 65.7717C0.694297 61.8173 0.653531 55.4006 7.45341 51.4462C14.2533 47.4919 25.3337 47.4919 32.1906 51.4462Z" fill="#3B0F65"/>
<g opacity="0.8">
<path opacity="0.8" d="M29.3535 53.0698C34.6205 55.9805 34.645 60.6931 29.4187 63.6039C24.1924 66.5146 15.6885 66.5146 10.4296 63.6039C5.17067 60.6931 5.1299 55.9805 10.3562 53.0698C15.5825 50.159 24.0864 50.159 29.3535 53.0698Z" fill="#820B82"/>
</g>
<path d="M17.7428 18.9922H16.0958V42.376H17.7428V18.9922Z" fill="url(#paint0_linear)"/>
<path d="M16.7073 54.5114C16.7073 54.5114 17.8324 54.6826 17.5226 55.3267C17.2128 55.9708 15.9653 56.9574 15.7941 57.3732C15.6229 57.789 14.5629 59.2403 14.2287 59.1017C13.8944 58.9631 12.9975 59.1751 13.1035 57.471C13.2095 55.767 15.2152 54.4298 16.7073 54.5114Z" fill="#111114"/>
<path d="M18.8514 60.6213C18.8514 60.6213 18.3052 62.252 19.6668 62.5944C21.0284 62.9369 20.6207 62.1215 23.5804 62.8635C26.54 63.6054 26.8417 62.0889 26.8417 61.7383C26.8417 61.3877 24.8034 60.7925 24.1511 60.6213L22.284 60.1484H18.7536L18.8514 60.6213Z" fill="#111114"/>
<path d="M13.2584 32.5488C13.2584 32.5488 13.2584 42.2024 13.2584 43.2949C13.2584 44.3875 12.0436 52.9485 12.7692 56.6909C12.7692 56.6909 14.8809 58.8026 16.7399 56.6909C16.7399 56.6909 17.3351 45.9611 17.8732 43.5395C18.4113 41.118 18.232 33.7555 18.232 33.7555L13.2584 32.5488Z" fill="#EA49BD"/>
<path d="M16.9518 33.919C16.9518 33.919 17.4328 40.1563 17.9383 46.361C17.9383 46.361 18.2482 58.6399 18.5417 60.401C18.5417 60.401 22.496 61.3876 22.8956 59.5205C22.8956 59.5205 22.7896 48.7173 22.8956 46.4751C23.0016 44.233 23.2217 37.9141 22.333 34.2451C21.4443 30.5761 16.9518 33.919 16.9518 33.919Z" fill="#EA49BD"/>
<path d="M18.5337 60.3747C18.2402 58.5891 17.9385 46.3591 17.9385 46.3591C17.6042 42.2009 17.2781 38.0182 17.1232 35.7598L19.5692 36.355C20.7712 40.0875 21.2769 44.0092 21.0612 47.9245C20.8574 53.2894 20.7677 58.5728 20.7433 60.6927C19.9972 60.6691 19.2561 60.5624 18.5337 60.3747Z" fill="#FF61CB"/>
<path d="M12.7529 56.6901C12.0272 52.9477 13.2421 44.3785 13.2421 43.2942C13.2421 42.2098 13.2421 33.4449 13.2421 32.6133L15.3701 34.2439C15.3701 34.2439 16.0387 41.1498 15.3701 45.0797C14.7504 48.659 15.1499 55.622 14.8483 57.6196C14.0631 57.5623 13.3223 57.2337 12.7529 56.6901Z" fill="#FF61CB"/>
<path d="M12.1661 16.6898C13.3647 16.649 14.1882 20.5381 15.3622 23.6283L21.0696 21.117C21.428 20.7093 21.7449 20.2669 22.0154 19.7962C22.2681 19.2662 22.529 19.2255 22.6432 19.2418C22.7573 19.2581 22.6432 19.6005 22.5861 19.837C22.529 20.0734 22.1784 20.5381 22.4883 20.4811C22.7981 20.424 24.2086 19.6005 24.5755 19.8777C24.7386 20 25.0321 19.8777 24.1434 20.9132C23.4955 21.5421 22.7116 22.0136 21.8523 22.2911C19.9042 24.0421 17.6812 25.4607 15.2726 26.4901C14.9721 26.5566 14.6591 26.5397 14.3675 26.4412C12.4515 24.9246 11.4486 21.8182 11.1062 18.9238C10.7801 16.8528 12.1661 16.6898 12.1661 16.6898Z" fill="#EFB185"/>
<path d="M12.6224 16.4857C12.0109 16.2982 10.8205 16.4368 10.8205 18.3365C10.7146 19.7333 10.9584 21.1343 11.5299 22.4132C11.8478 23.1796 14.1389 22.829 14.7341 21.5979C15.0847 20.8885 13.8617 16.8608 12.6224 16.4857Z" fill="#980898"/>
<path d="M12.2311 16.193C12.2311 16.193 10.4211 17.1469 11.5218 20.2696C12.6225 23.3924 13.3971 25.3736 13.3563 26.5314C13.2644 28.5036 13.0603 30.4691 12.7448 32.4181C12.7448 32.4181 12.4757 34.9456 18.3787 36.3398C18.3787 36.3398 23.2218 36.7312 22.3576 33.5677C21.6109 30.4504 21.2225 27.2581 21.1998 24.0528C21.2976 22.8216 22.0151 20.3675 18.8924 18.7776C15.7697 17.1877 14.1798 15.9973 12.2311 16.193Z" fill="#980898"/>
<path d="M21.1998 24.0528C21.2251 27.2585 21.6163 30.4508 22.3657 33.5678C22.9609 35.7692 20.8166 36.2502 19.4468 36.3399C18.9821 34.9294 19.6751 32.3774 18.5907 29.3036C17.2617 25.496 17.384 22.9603 18.02 20.9138C18.1194 20.5016 18.3419 20.1295 18.6579 19.847C18.974 19.5644 19.3686 19.3848 19.7893 19.332C21.8276 20.8975 21.2813 22.9603 21.1998 24.0528Z" fill="#820B82"/>
<path d="M12.7367 32.354C13.0522 30.405 13.2564 28.4396 13.3482 26.4673C13.389 25.3096 12.59 23.312 11.5137 20.2056C10.4946 17.2704 11.6034 16.4713 12.2231 16.1289C12.5818 17.6536 17.9304 18.1917 17.7836 19.219C17.6369 20.2463 16.3079 21.4775 16.2263 23.5321C16.2132 25.7241 16.4373 27.9111 16.8949 30.0548C17.1964 31.9918 17.1964 33.9638 16.8949 35.9007C12.5166 34.4739 12.7367 32.354 12.7367 32.354Z" fill="#B80EB8"/>
<path d="M14.3671 14.5615C14.4922 15.4594 14.3855 16.3744 14.0573 17.2194C13.5681 18.1489 17.4246 18.9235 17.498 18.0348C17.284 17.5305 17.1853 16.9847 17.2093 16.4374C17.2333 15.89 17.3793 15.355 17.6366 14.8713C18.1013 14.0315 14.3671 14.5615 14.3671 14.5615Z" fill="#EFB185"/>
<path d="M14.074 17.2847C14.3852 16.535 14.5029 15.7192 14.4165 14.9121L17.2457 16.2411C17.1397 16.2411 15.2644 16.7874 14.8812 18.1571C14.2942 17.937 13.862 17.619 14.074 17.2847Z" fill="#DD9569"/>
<path d="M18.3215 10.1576C18.6864 11.0358 18.8695 11.9788 18.8597 12.9297C18.7537 14.2995 18.9657 14.5604 18.8597 15.1882C18.8614 15.5135 18.7585 15.8308 18.5661 16.0932C18.1503 16.509 17.2779 16.6721 16.1201 16.2644C14.6852 15.7752 13.136 13.8184 13.7149 12.0573C14.2938 10.2962 16.1446 8.76334 18.3215 10.1576Z" fill="#EFB185"/>
<path d="M13.8619 13.9407C14.3973 12.6784 15.0354 11.4622 15.7698 10.3044C16.0653 10.0291 16.3972 9.79592 16.7564 9.61133C17.3398 9.64019 17.904 9.82919 18.387 10.1576C18.5148 10.4651 18.621 10.7812 18.705 11.1034C18.3707 11.4947 17.6859 11.9187 17.588 12.2612C17.3984 13.0752 17.4581 13.9275 17.7592 14.7072C17.9957 15.2127 17.0907 15.9791 17.2945 16.4275C17.2985 16.4463 17.2985 16.4658 17.2945 16.4846C16.913 16.4638 16.5366 16.3869 16.1775 16.2563C15.6539 16.0488 15.1784 15.7363 14.7801 15.3381C14.3819 14.9399 14.0694 14.4643 13.8619 13.9407Z" fill="#E6A376"/>
<path d="M18.4111 9.85033C18.477 10.1596 18.4467 10.4815 18.3243 10.773C18.2018 11.0645 17.9932 11.3116 17.7262 11.481C17.0169 11.9131 17.074 13.0709 17.1147 13.291C17.2371 13.7404 17.3028 14.2033 17.3104 14.669C17.1392 14.9217 16.5359 14.1471 16.2586 14.2042C15.5493 14.3591 15.8428 15.0195 16.5032 15.6963C17.1637 16.373 15.4025 16.7644 14.5546 16.1692C14.098 15.8593 13.9349 15.6637 13.3316 14.5385C12.4429 12.9078 12.3613 10.8369 14.3426 9.71173C14.9572 9.32637 15.6731 9.13366 16.3981 9.15836C17.1231 9.18306 17.8242 9.42404 18.4111 9.85033Z" fill="#221101"/>
<path d="M14.5549 16.137C13.9217 15.7877 13.4269 15.2324 13.1525 14.5634C12.2719 12.8838 12.0599 10.0546 14.3266 9.28817C14.9969 9.0226 15.7246 8.93484 16.4389 9.03341C17.1532 9.13198 17.8298 9.41354 18.4032 9.85075C18.4297 10.0018 18.4297 10.1563 18.4032 10.3073C17.7754 10.4215 16.3649 10.5438 15.9572 11.302C15.4273 12.2315 14.8076 11.9462 14.881 13.0876C14.9544 14.2291 14.6772 15.6315 16.5361 16.194C16.2338 16.3715 15.8877 16.4602 15.5373 16.4501C15.1869 16.44 14.8464 16.3315 14.5549 16.137Z" fill="#341C09"/>
<path d="M17.2698 17.5621L18.5417 18.6384C18.5417 18.6384 14.677 19.788 13.4948 17.9046C13.4112 17.6331 13.4358 17.3398 13.5634 17.0861C13.6911 16.8323 13.9119 16.6377 14.1797 16.543C14.1797 16.543 14.3427 18.0921 17.2698 17.5621Z" fill="#980898"/>
<path d="M19.5692 19.5374C20.7677 19.4967 21.5912 23.3858 22.7653 26.4759L28.4726 23.9647C28.8084 23.5541 29.1033 23.1117 29.3532 22.6438C29.6059 22.1139 29.8669 22.065 29.981 22.0894C30.0951 22.1139 29.981 22.4482 29.9321 22.6928C29.8832 22.9374 29.5163 23.3858 29.8261 23.3287C30.1359 23.2717 31.5464 22.4482 31.9133 22.7254C32.0846 22.8477 32.3699 22.7254 31.4812 23.7609C30.8452 24.3944 30.0726 24.8741 29.2227 25.1632C27.2751 26.917 25.0522 28.3384 22.643 29.3704C22.3425 29.4365 22.0296 29.4195 21.738 29.3214C19.8301 27.8049 18.8191 24.6985 18.4359 21.8041C18.1587 19.7005 19.5692 19.5374 19.5692 19.5374Z" fill="#EFB185"/>
<path d="M20.0093 19.3326C19.3897 19.1451 18.1993 19.2918 18.1993 21.1834C18.0934 22.5801 18.3372 23.9812 18.9086 25.2601C19.2266 26.0265 21.5177 25.6759 22.1129 24.4448C22.4635 23.7273 21.2405 19.7077 20.0093 19.3326Z" fill="#980898"/>
<defs>
<linearGradient id="paint0_linear" x1="17.2128" y1="18.9759" x2="16.6176" y2="42.3841" gradientUnits="userSpaceOnUse">
<stop stop-color="#01DFF9"/>
<stop offset="0.99" stop-color="#00E7FF"/>
</linearGradient>
</defs>
</svg>
