<svg width="64" height="87" viewBox="0 0 64 87" fill="none" xmlns="http://www.w3.org/2000/svg">
<path d="M25.7651 41.1139L26.4963 40.6921V41.3014L25.7651 41.7326V41.1139Z" fill="#ABBEC5"/>
<path d="M25.7739 39.511L26.5051 39.0891V39.7078L25.7739 40.1296V39.511Z" fill="#ABBEC5"/>
<path d="M25.7739 37.8425L26.5051 37.4113V38.0299L25.7739 38.4518V37.8425Z" fill="#ABBEC5"/>
<path d="M25.7651 41.7326L26.4963 41.3014L44.8973 51.9314L44.1661 52.3532L25.7651 41.7326Z" fill="#BFD4DC"/>
<path d="M25.7651 41.1139L26.4963 40.6921L44.9066 51.3127L44.1661 51.7439L25.7651 41.1139Z" fill="#36A0B7"/>
<path d="M44.166 51.7439L44.9066 51.3127L44.8972 51.9314L44.166 52.3532V51.7439Z" fill="#3190A4"/>
<path d="M25.7739 40.1296L26.5051 39.7078L44.906 50.3284L44.1749 50.7596L25.7739 40.1296Z" fill="#BFD4DC"/>
<path d="M25.7739 39.511L26.5051 39.0891L44.906 49.7191L44.1749 50.141L25.7739 39.511Z" fill="#36A0B7"/>
<path d="M44.1753 50.1409L44.9065 49.7191V50.3284L44.1753 50.7596V50.1409Z" fill="#3190A4"/>
<path d="M25.7739 38.4517L26.5051 38.0299L44.906 48.6599L44.1749 49.0817L25.7739 38.4517Z" fill="#BFD4DC"/>
<path d="M44.1753 48.463L44.9065 48.0412V48.6599L44.1753 49.0817V48.463Z" fill="#3190A4"/>
<path d="M44.1749 48.463V49.0817L25.7739 38.4517V37.8424L44.1749 48.463Z" fill="#EA49BD"/>
<path d="M25.7739 37.8425L26.5051 37.4113L44.906 48.0413L44.1749 48.4631L25.7739 37.8425Z" fill="#EA49BD"/>
<path d="M43.988 46.8601C44.3457 47.0909 44.6435 47.4033 44.8569 47.7716C45.0704 48.1398 45.1935 48.5535 45.2159 48.9786V53.0469C45.2211 53.0936 45.2211 53.1408 45.2159 53.1875V58.165L41.1383 52.1189L25.9057 43.3168C25.5491 43.0849 25.252 42.7722 25.0387 42.4042C24.8254 42.0361 24.7017 41.623 24.6777 41.1983V37.13C24.6777 36.352 25.2308 36.0426 25.9057 36.4363L43.988 46.8601ZM44.1754 49.0817V48.463L25.7745 37.8331V38.4517L44.1754 49.0817ZM44.1754 52.3532V51.7439L25.7651 41.1139V41.7326L44.1661 52.3626L44.1754 52.3532ZM44.1754 50.7597V50.141L25.7745 39.511V40.1765L44.1754 50.7597Z" fill="#F8F9FD"/>
<path d="M44.1661 51.7439V52.3532L25.7651 41.7326V41.1139L44.1661 51.7439Z" fill="#EA49BD"/>
<path d="M44.1749 50.141V50.7596L25.7739 40.1296V39.511L44.1749 50.141Z" fill="#EA49BD"/>
<path d="M45.9468 48.5005C45.9512 48.482 45.9512 48.4628 45.9468 48.4443V48.3787C45.9468 48.3787 45.9468 48.3787 45.9468 48.3224C45.9506 48.3007 45.9506 48.2785 45.9468 48.2568C45.9468 48.2568 45.9468 48.2568 45.9468 48.2006C45.9468 48.1443 45.9468 48.1537 45.9468 48.135C45.9468 48.1162 45.9468 48.0881 45.9468 48.0693C45.9508 48.0476 45.9508 48.0254 45.9468 48.0037V47.9568C45.9508 47.9383 45.9508 47.9191 45.9468 47.9006C45.948 47.8787 45.948 47.8568 45.9468 47.835V47.7787C45.9523 47.7572 45.9523 47.7346 45.9468 47.7131C45.9468 47.7131 45.9468 47.7131 45.9468 47.6663V47.61V47.5444V47.4694V47.385C45.9468 47.3288 45.8812 47.2819 45.853 47.2351L45.7687 47.1226C45.7658 47.0977 45.7658 47.0725 45.7687 47.0476V46.9913L45.7218 46.9351H45.6656L45.6093 46.8788H45.5531H45.4968H45.4406L26.6553 36.0051H26.5991H26.5522H26.5053H26.4491H26.0929H26.0085L25.9148 36.052L25.1836 36.4738L25.3617 36.4082C25.4301 36.3988 25.4995 36.3988 25.5679 36.4082L25.7929 36.4551C25.8821 36.4807 25.9672 36.5185 26.046 36.5676L43.9876 46.8601L44.2313 47.0288L44.4563 47.2351C44.53 47.312 44.5989 47.3934 44.6625 47.4788C44.7306 47.5667 44.7902 47.6609 44.8407 47.76C44.8969 47.8537 44.9438 47.9568 44.9906 48.0506L45.1031 48.3599C45.1603 48.555 45.1918 48.7567 45.1969 48.9599V53.0281C45.202 53.0748 45.202 53.122 45.1969 53.1687V58.1463L45.928 57.7244V52.7469V52.6063V48.4818L45.9468 48.5005Z" fill="#E1E1E1"/>
<path d="M42.0005 36.0988L42.7785 35.6395V36.2957L42.0005 36.755V36.0988Z" fill="#ABBEC5"/>
<path d="M42.0005 34.3928L42.7879 33.9429L42.7785 34.599L42.0005 35.049V34.3928Z" fill="#ABBEC5"/>
<path d="M42.0098 32.6118L42.7878 32.1525V32.8086L42.0098 33.268V32.6118Z" fill="#ABBEC5"/>
<path d="M42.0005 36.7551L42.7785 36.2957L62.3606 47.61L61.5826 48.06L42.0005 36.7551Z" fill="#BFD4DC"/>
<path d="M42.0005 36.0988L42.7785 35.6395L62.37 46.9538L61.5919 47.4038L42.0005 36.0988Z" fill="#36A0B7"/>
<path d="M61.5919 47.4038L61.5826 48.06L42.0005 36.755V36.0989L61.5919 47.4038Z" fill="#EA49BD"/>
<path d="M61.5914 47.4038L62.3694 46.9538L62.3601 47.61L61.582 48.0599L61.5914 47.4038Z" fill="#3190A4"/>
<path d="M42.0005 35.049L42.7785 34.599L62.37 45.9039L61.5919 46.3539L42.0005 35.049Z" fill="#BFD4DC"/>
<path d="M42.0005 34.3928L42.7879 33.9429L62.37 45.2478L61.5919 45.7071L42.0005 34.3928Z" fill="#36A0B7"/>
<path d="M61.5918 45.7071L62.3698 45.2478V45.904L61.5918 46.3539V45.7071Z" fill="#3190A4"/>
<path d="M42.0098 33.2679L42.7878 32.8086L62.3792 44.1229L61.6012 44.5729L42.0098 33.2679Z" fill="#BFD4DC"/>
<path d="M42.0098 32.6118L42.7878 32.1525L62.3792 43.4668L61.6012 43.9167L42.0098 32.6118Z" fill="#36A0B7"/>
<path d="M61.6016 43.9167L62.3796 43.4667V44.1229L61.6016 44.5729V43.9167Z" fill="#3190A4"/>
<path d="M61.4513 42.2481C61.8303 42.494 62.1459 42.826 62.3723 43.2169C62.5987 43.6079 62.7296 44.0468 62.7543 44.4979V48.8286C62.7543 49.6535 62.1637 49.991 61.4513 49.5692L45.2157 40.1765L40.9131 41.667V36.427C40.9131 36.3707 40.9131 36.3238 40.9131 36.2676V31.89C40.9131 31.0651 41.5036 30.7276 42.2254 31.1494L61.4513 42.2481ZM61.5919 46.3633V45.7071L42.0005 34.3928V35.049L61.5919 46.3633ZM61.5919 48.06V47.4038L42.0005 36.0989V36.755L61.5825 48.06H61.5919ZM61.5919 44.5729V43.9261L42.0098 32.6118V33.2679L61.6013 44.5729H61.5919Z" fill="white"/>
<path d="M61.5919 45.7071V46.3539L42.0005 35.049V34.3928L61.5919 45.7071Z" fill="#980898"/>
<path d="M61.6012 43.9167V44.5729L42.0098 33.268V32.6118L61.6012 43.9167Z" fill="#EA49BD"/>
<path d="M63.5322 43.9917V43.8604C63.5277 43.8388 63.5277 43.8165 63.5322 43.7948C63.5322 43.7948 63.5322 43.7948 63.5322 43.7292C63.5322 43.6636 63.5322 43.7292 63.5322 43.6636C63.5322 43.598 63.5322 43.6636 63.5322 43.598C63.5322 43.5324 63.5322 43.598 63.5322 43.5324C63.528 43.5075 63.528 43.4822 63.5322 43.4574C63.5282 43.4388 63.5282 43.4197 63.5322 43.4011C63.5378 43.3796 63.5378 43.357 63.5322 43.3355C63.5334 43.3137 63.5334 43.2917 63.5322 43.2699V43.2043V43.1387C63.5322 43.1387 63.5322 43.1387 63.5322 43.0824C63.5289 43.0575 63.5289 43.0323 63.5322 43.0074C63.5306 42.9825 63.5306 42.9574 63.5322 42.9324C63.5131 42.9064 63.4974 42.878 63.4854 42.8481L63.3823 42.6887L63.3073 42.5762C63.2906 42.5471 63.2683 42.5216 63.2417 42.5012C63.246 42.4796 63.246 42.4573 63.2417 42.4356V42.3794L63.1854 42.3231L63.1292 42.2669L62.5855 42.0513H62.5199H62.4636H62.4074H62.3511H62.2949L43.0034 30.6901H42.9565H42.9003H42.8441H42.7972H42.7409H42.6847H42.3097H42.2254C42.1882 30.7032 42.1534 30.7222 42.1223 30.7464L41.4192 31.1494L41.3442 31.1963C41.4025 31.1618 41.4657 31.1365 41.5317 31.1213C41.6061 31.1074 41.6823 31.1074 41.7567 31.1213C41.8405 31.1266 41.9228 31.1456 42.0004 31.1776C42.0922 31.2082 42.1802 31.2491 42.2629 31.2994L61.4512 42.2481C61.543 42.301 61.6307 42.3605 61.7137 42.4262L61.9574 42.6512C62.1176 42.8175 62.2562 43.0033 62.3699 43.2043C62.4303 43.3034 62.4836 43.4068 62.5292 43.5136C62.5761 43.6167 62.6136 43.7292 62.6511 43.8323C62.7166 44.0386 62.7513 44.2534 62.7542 44.4697V48.8005C62.7644 48.894 62.7644 48.9882 62.7542 49.0817C62.7406 49.16 62.7153 49.2358 62.6792 49.3067C62.6536 49.36 62.6221 49.4103 62.5855 49.4567L62.4449 49.5691L63.2229 49.1192C63.2743 49.0841 63.3214 49.0432 63.3635 48.9973V48.9317C63.3826 48.9057 63.3984 48.8773 63.4104 48.8474C63.4073 48.8256 63.4073 48.8035 63.4104 48.7817C63.4063 48.7601 63.4063 48.7378 63.4104 48.7161C63.4062 48.6913 63.4062 48.666 63.4104 48.6411C63.4104 48.6411 63.4104 48.5943 63.4104 48.5755C63.4104 48.5568 63.4104 48.5755 63.4104 48.5099V48.388V44.0573L63.5322 43.9917Z" fill="#E1E1E1"/>
<path d="M34.7261 32.7242L35.4854 32.2743C35.3472 32.3546 35.2337 32.4713 35.1573 32.6118L34.3887 33.0523C34.4741 32.9182 34.5896 32.8058 34.7261 32.7242Z" fill="#852858"/>
<path d="M34.3886 33.0523L35.1572 32.6117C35.1237 32.6551 35.0954 32.7023 35.0729 32.7523L34.3042 33.2023L34.3886 33.0523Z" fill="#8A295C"/>
<path d="M34.3047 33.2023L35.0733 32.7524L35.0171 32.8836L34.2578 33.3336C34.2677 33.288 34.2835 33.2439 34.3047 33.2023Z" fill="#8F2B5F"/>
<path d="M34.2574 33.3336L35.0167 32.8836C35.0139 32.9242 35.0139 32.9649 35.0167 33.0055L34.248 33.4554C34.248 33.4554 34.248 33.371 34.248 33.3336H34.2574Z" fill="#942C63"/>
<path d="M34.2104 33.4554L34.9791 33.0055C34.9791 33.0055 34.9791 33.0898 34.9791 33.1273L34.2198 33.5773V33.4554H34.2104Z" fill="#992E66"/>
<path d="M34.1822 33.6148L34.9415 33.1648C34.946 33.2053 34.946 33.2462 34.9415 33.2867L34.1729 33.7273V33.6148H34.1822Z" fill="#9E2F69"/>
<path d="M34.1543 33.6898L34.923 33.2492C34.923 33.2492 34.923 33.3055 34.923 33.3336L34.1637 33.7835C34.1678 33.7524 34.1678 33.7209 34.1637 33.6898H34.1543Z" fill="#A3316D"/>
<path d="M34.7261 32.7243L35.4854 32.2743C35.5298 32.25 35.577 32.2311 35.626 32.2181L34.8573 32.6774L34.7261 32.743V32.7243Z" fill="#818184"/>
<path d="M34.8574 32.6774L35.6261 32.2368H35.7292L34.9699 32.6868H34.8574V32.6774Z" fill="#868689"/>
<path d="M34.9697 32.6774L35.729 32.2274L34.9697 32.668V32.6774Z" fill="#8B8B8E"/>
<path d="M34.8857 32.0493L35.6544 31.6088L34.8857 32.0493Z" fill="#B8377A"/>
<path d="M34.145 33.7835L34.9043 33.3336L38.1008 35.1802L37.3415 35.6208L34.145 33.7835Z" fill="#DC4193"/>
<path d="M35.1392 31.4963L35.8985 31.0557C35.8407 31.0901 35.7923 31.1385 35.7579 31.1963L34.9893 31.6463C35.0269 31.5853 35.0782 31.5339 35.1392 31.4963Z" fill="#852858"/>
<path d="M34.9893 31.6462L35.7579 31.1963C35.7531 31.2179 35.7531 31.2403 35.7579 31.2619L34.9986 31.7025V31.6462H34.9893Z" fill="#8A295C"/>
<path d="M34.9609 31.74L35.7202 31.2994L34.9609 31.74Z" fill="#8F2B5F"/>
<path d="M34.9424 31.74L35.7017 31.2994V31.3463L34.9424 31.7869C34.9424 31.7869 34.9424 31.7869 34.9424 31.74Z" fill="#942C63"/>
<path d="M34.9233 31.7963L35.6826 31.3557L34.9233 31.8056V31.7963Z" fill="#992E66"/>
<path d="M34.9141 31.8431L35.6733 31.3932L34.9141 31.8337V31.8431Z" fill="#9E2F69"/>
<path d="M34.9044 31.8806L35.6637 31.44L34.895 31.8899V31.8431L34.9044 31.8806Z" fill="#A3316D"/>
<path d="M34.895 31.9275L35.6637 31.4775C35.6593 31.4928 35.6593 31.5091 35.6637 31.5244L34.9044 31.965L34.895 31.9275Z" fill="#A83270"/>
<path d="M34.8951 31.965L35.6544 31.5244L34.8857 31.965H34.8951Z" fill="#AD3474"/>
<path d="M34.8857 32.0025L35.6544 31.5619L34.8857 32.0025Z" fill="#B33577"/>
<path d="M34.8857 32.0493L35.6544 31.6088L34.8857 32.0493Z" fill="#B8377A"/>
<path d="M34.8857 32.0868L35.6544 31.6463L34.8857 32.0868Z" fill="#BD387E"/>
<path d="M34.8857 32.1243L35.6544 31.6837L34.8951 32.1337C34.8995 32.1184 34.8995 32.1021 34.8951 32.0868L34.8857 32.1243Z" fill="#C23A81"/>
<path d="M34.8951 32.1712L35.6544 31.7213C35.6544 31.7213 35.6544 31.7213 35.6544 31.7681L34.8857 32.2087L34.8951 32.1712Z" fill="#C73B85"/>
<path d="M34.895 32.2087L35.6637 31.7681L34.9044 32.2087H34.895Z" fill="#CC3D88"/>
<path d="M34.9047 32.2461L35.664 31.8056L34.9047 32.2461C34.9003 32.2308 34.9003 32.2146 34.9047 32.1993V32.2461Z" fill="#D13E8B"/>
<path d="M34.9141 32.2931L35.6733 31.8525L34.9141 32.3024V32.2931Z" fill="#D6408F"/>
<path d="M34.9233 32.3399L35.6826 31.89C35.6826 31.89 35.6826 31.89 35.6826 31.9369L34.9233 32.3774V32.3399Z" fill="#DB4192"/>
<path d="M34.9327 32.3774L35.692 31.9368L34.9233 32.3774H34.9327Z" fill="#E04396"/>
<path d="M34.9424 32.4243L35.711 31.9837C35.711 31.9837 35.711 31.9837 35.711 32.0306L34.9518 32.4711C34.9518 32.4711 34.9518 32.4711 34.9518 32.4243H34.9424Z" fill="#E64499"/>
<path d="M34.961 32.4711L35.7203 32.0306L34.9517 32.4805C34.9517 32.4805 34.9517 32.4805 34.9517 32.4243L34.961 32.4711Z" fill="#EB469C"/>
<path d="M34.9702 32.5274L35.7389 32.0775C35.7348 32.096 35.7348 32.1152 35.7389 32.1337L34.9702 32.5743V32.5274Z" fill="#F047A0"/>
<path d="M34.9893 32.5743L35.7579 32.1337L34.9986 32.5743H34.9893Z" fill="#F549A3"/>
<path d="M36.4883 33.4742L37.2476 33.0336L36.4883 33.4742Z" fill="#F9FAFD"/>
<path d="M36.5259 33.5214L37.2852 33.0808L37.3695 33.2026L36.6102 33.6432L36.5259 33.5214Z" fill="#FAFAFD"/>
<path d="M36.6099 33.6148L37.3692 33.1742L37.5191 33.3992L36.7505 33.8491L36.6099 33.6148Z" fill="#FAFBFE"/>
<path d="M36.751 33.8773L37.5196 33.4273L37.604 33.5773L36.8353 34.0272L36.751 33.8773Z" fill="#FAFAFD"/>
<path d="M36.835 34.0272L37.6036 33.5773L37.6599 33.6898L36.8912 34.1303L36.835 34.0272Z" fill="#F9FAFD"/>
<path d="M36.9193 34.1304L37.688 33.6898V33.7836L36.9287 34.2241C36.9112 34.1939 36.8956 34.1625 36.8818 34.1304H36.9193Z" fill="#F9FAFD"/>
<path d="M36.9194 34.2241L37.6787 33.7835C37.698 33.8128 37.7138 33.8443 37.7256 33.8773L36.9663 34.3179C36.9646 34.2866 36.9646 34.2553 36.9663 34.2241H36.9194Z" fill="#F9FAFD"/>
<path d="M36.9854 34.3178L37.7446 33.8773C37.7484 33.9084 37.7484 33.9399 37.7446 33.971L36.9854 34.4209C36.9854 34.4209 36.9854 34.3553 36.9854 34.3178Z" fill="#F8F9FD"/>
<path d="M37.0226 34.421L37.7818 33.971V34.0741L37.0132 34.5147V34.421H37.0226Z" fill="#F3F4F8"/>
<path d="M37.0605 34.5522L37.8292 34.1116C37.8267 34.146 37.8267 34.1804 37.8292 34.2147L37.0605 34.6553C37.0644 34.6211 37.0644 34.5865 37.0605 34.5522Z" fill="#EEEFF3"/>
<path d="M37.0973 34.6178L37.8565 34.1772C37.8527 34.2115 37.8527 34.2461 37.8565 34.2804L37.0879 34.7303C37.0919 34.6929 37.0919 34.6552 37.0879 34.6178H37.0973Z" fill="#E9EAEE"/>
<path d="M37.1348 34.7303L37.9034 34.2803C37.9006 34.3209 37.9006 34.3616 37.9034 34.4022L37.1348 34.8427C37.1388 34.8054 37.1388 34.7676 37.1348 34.7303Z" fill="#E4E5E9"/>
<path d="M37.1729 34.8428L37.9415 34.4022V34.5147L37.1822 34.9646C37.1875 34.9242 37.1875 34.8832 37.1822 34.8428H37.1729Z" fill="#DFE0E4"/>
<path d="M37.2105 34.9646L37.9698 34.5147C37.9727 34.5552 37.9727 34.596 37.9698 34.6365L37.2012 35.0865V34.9646H37.2105Z" fill="#DADBDF"/>
<path d="M37.2383 35.0865L38.0069 34.6365V34.7584L37.2383 35.2083V35.0865Z" fill="#D5D6DA"/>
<path d="M37.2661 35.2083L38.0348 34.7584V34.8803L37.2661 35.3302V35.2083Z" fill="#D0D1D5"/>
<path d="M37.2944 35.3302L38.0631 34.8803V35.0115L37.2944 35.4521C37.2989 35.4116 37.2989 35.3707 37.2944 35.3302Z" fill="#CBCCCF"/>
<path d="M37.313 35.4896L38.0817 35.049C38.0778 35.0896 38.0778 35.1304 38.0817 35.1709L37.313 35.6115C37.3182 35.571 37.3182 35.5301 37.313 35.4896Z" fill="#C6C7CA"/>
<path d="M37.332 35.5739L38.1007 35.1333V35.1802L37.3414 35.6208L37.332 35.5739Z" fill="#C1C2C5"/>
<path d="M35.1387 31.4966L35.898 31.0561H35.973L35.2043 31.506H35.1387V31.4966Z" fill="#818184"/>
<path d="M35.2036 31.4679L35.9723 31.018H36.0285L35.2692 31.4585H35.2036V31.4679Z" fill="#868689"/>
<path d="M35.2695 31.4494L36.0288 31.0089H36.0757L35.3164 31.4494H35.2695Z" fill="#8B8B8E"/>
<path d="M35.3164 31.4401L36.0757 30.9995L35.3164 31.4401Z" fill="#909093"/>
<path d="M35.3633 31.4401L36.1226 30.9995L35.3633 31.4401Z" fill="#959598"/>
<path d="M35.4009 31.4401L36.1602 30.9995H36.207L35.4384 31.4401H35.4009Z" fill="#9A9A9D"/>
<path d="M35.4385 31.4401L36.2071 30.9995L35.4385 31.4401Z" fill="#9F9FA2"/>
<path d="M35.4761 31.4494L36.2447 31.0089L35.4855 31.4494H35.4761Z" fill="#A4A4A7"/>
<path d="M35.5132 31.4588L36.2725 31.0182L35.5132 31.4588Z" fill="#A9A9AC"/>
<path d="M35.5509 31.4682L36.3102 31.0276L35.5415 31.4682H35.5509Z" fill="#AEAEB1"/>
<path d="M35.5791 31.4775L36.3478 31.0369L35.5791 31.4869V31.4775Z" fill="#B3B3B6"/>
<path d="M35.6167 31.4963L36.3854 31.0463L35.6261 31.4869L35.6167 31.4963Z" fill="#B8B8BB"/>
<path d="M35.6538 31.5056L36.4131 31.0651L35.6538 31.5056Z" fill="#BCBDC0"/>
<path d="M35.6915 31.5244L36.4508 31.0838L35.6821 31.5244H35.6915Z" fill="#C1C2C5"/>
<path d="M35.7197 31.5431L36.4884 31.1026L35.7197 31.5525V31.5431Z" fill="#C6C7CA"/>
<path d="M35.748 31.5619L36.5167 31.1119L36.5261 31.1213L35.7574 31.5619H35.748Z" fill="#C6C7CA"/>
<path d="M35.7583 31.563L36.527 31.1224L35.7583 31.5724V31.563Z" fill="#CBCCCF"/>
<path d="M35.7949 31.5902L36.5636 31.1403L35.7949 31.5808V31.5902Z" fill="#D0D1D5"/>
<path d="M35.8325 31.6088L36.6012 31.1682L35.8419 31.6088H35.8325Z" fill="#D5D6DA"/>
<path d="M35.8701 31.6369L36.6294 31.1963H36.6763L35.9076 31.6369H35.8701Z" fill="#DADBDF"/>
<path d="M35.9072 31.665L36.6759 31.2244L35.9822 31.74L35.9072 31.665Z" fill="#DFE0E4"/>
<path d="M35.9824 31.74L36.7511 31.2995L35.9824 31.74Z" fill="#E4E5E9"/>
<path d="M35.9824 31.74L36.7511 31.2995L35.9918 31.7494L35.9824 31.74Z" fill="#E9EAEE"/>
<path d="M36.0294 31.74L36.7887 31.2901L36.02 31.74H36.0294Z" fill="#EEEFF3"/>
<path d="M36.0576 31.8057L36.8263 31.3557L36.067 31.8057H36.0576Z" fill="#F3F4F8"/>
<path d="M36.0952 31.8431L36.8545 31.3932L36.0952 31.8338V31.8431Z" fill="#F8F9FD"/>
<path d="M36.1324 31.8713L36.8917 31.4307L36.123 31.8806L36.1324 31.8713Z" fill="#F9FAFD"/>
<path d="M36.1606 31.9181L36.9293 31.4682L36.17 31.9087L36.1606 31.9181Z" fill="#F9FAFD"/>
<path d="M36.1982 31.9556L36.9575 31.515C36.9615 31.5304 36.9615 31.5465 36.9575 31.5619L36.1982 32.0025V31.9556Z" fill="#F9FAFD"/>
<path d="M36.2358 32.0026L36.9951 31.562L37.0514 31.637L36.2827 32.0869C36.2858 32.0589 36.2858 32.0306 36.2827 32.0026H36.2358Z" fill="#FAFAFD"/>
<path d="M36.2827 32.0869L37.0514 31.6369L37.117 31.74L36.3483 32.1806C36.3296 32.1473 36.3077 32.1159 36.2827 32.0869Z" fill="#FAFBFE"/>
<path d="M36.3477 32.1806L37.1163 31.74C37.1163 31.74 37.1163 31.74 37.1163 31.815L36.357 32.2556C36.3552 32.2306 36.3552 32.2056 36.357 32.1806H36.3477Z" fill="#FAFAFD"/>
<path d="M36.3945 32.2556L37.1538 31.815V31.8713L36.3945 32.3118V32.2556Z" fill="#F9FAFD"/>
<path d="M36.4233 32.3119L37.1826 31.8713L36.4233 32.3213V32.3119Z" fill="#F9FAFD"/>
<path d="M36.4419 32.3587L37.2012 31.9088L36.4419 32.3493V32.3587Z" fill="#F9FAFD"/>
<path d="M36.4609 32.3962L37.2202 31.9556L36.4609 32.4055V32.3962Z" fill="#F8F9FD"/>
<path d="M36.4795 32.4431L37.2388 31.9931L36.4795 32.4337V32.4431Z" fill="#F3F4F8"/>
<path d="M36.4981 32.4806L37.2574 32.04L36.4888 32.4899C36.4888 32.4899 36.4888 32.4899 36.4888 32.4431L36.4981 32.4806Z" fill="#EEEFF3"/>
<path d="M36.5073 32.5275L37.276 32.0775L36.5073 32.5181V32.5275Z" fill="#E9EAEE"/>
<path d="M36.5259 32.5649L37.2945 32.1243C37.2909 32.1397 37.2909 32.1558 37.2945 32.1712L36.5353 32.6118L36.5259 32.5649Z" fill="#E4E5E9"/>
<path d="M36.545 32.6118L37.3043 32.1712L36.5356 32.6212L36.545 32.6118Z" fill="#DFE0E4"/>
<path d="M36.5542 32.6774L37.3229 32.2274L36.5542 32.6774C36.5551 32.6618 36.5551 32.6461 36.5542 32.6305V32.6774Z" fill="#DADBDF"/>
<path d="M36.5635 32.6774L37.3321 32.2274C37.3321 32.2274 37.3321 32.2274 37.3321 32.2743L36.5635 32.7149V32.6774Z" fill="#D5D6DA"/>
<path d="M36.5728 32.743L37.3414 32.3024L36.5728 32.743Z" fill="#D0D1D5"/>
<path d="M36.5825 32.7899L37.3512 32.3494L36.5825 32.7993C36.5869 32.784 36.5869 32.7678 36.5825 32.7524V32.7899Z" fill="#CBCCCF"/>
<path d="M36.5918 32.8368L37.3605 32.3868V32.4337L36.6012 32.8837L36.5918 32.8368Z" fill="#C6C7CA"/>
<path d="M36.6012 32.8836L37.3605 32.4337L36.5918 32.8743L36.6012 32.8836Z" fill="#C1C2C5"/>
<path d="M36.6011 32.9212L37.3697 32.4806L36.6104 32.9305C36.6068 32.9151 36.6068 32.8991 36.6104 32.8837L36.6011 32.9212Z" fill="#BCBDC0"/>
<path d="M36.6104 32.968L37.3696 32.5181V32.565L36.6104 33.0055V32.968Z" fill="#B8B8BB"/>
<path d="M36.6104 33.0055L37.3696 32.5649L36.6104 33.0055Z" fill="#B3B3B6"/>
<path d="M36.6104 33.043L37.3696 32.6024L36.6104 33.0524V33.043Z" fill="#AEAEB1"/>
<path d="M36.6104 33.0899L37.3697 32.6399L36.6011 33.0805L36.6104 33.0899Z" fill="#A9A9AC"/>
<path d="M36.6011 33.1273L37.3697 32.6868L36.6011 33.1273Z" fill="#A4A4A7"/>
<path d="M36.6011 33.1648L37.3697 32.7243L36.6104 33.1648H36.6011Z" fill="#9F9FA2"/>
<path d="M36.6011 33.2024L37.3604 32.7618L36.6011 33.2117V33.2024Z" fill="#9A9A9D"/>
<path d="M36.5919 33.2492L37.3512 32.7992L36.5825 33.2398L36.5919 33.2492Z" fill="#959598"/>
<path d="M36.5728 33.2867L37.3414 32.8462L36.5821 33.2867C36.5866 33.2714 36.5866 33.2552 36.5821 33.2399L36.5728 33.2867Z" fill="#909093"/>
<path d="M36.5635 33.3335L37.3228 32.893C37.3228 32.893 37.3228 32.893 37.3228 32.9398L36.5635 33.3804V33.3335Z" fill="#8B8B8E"/>
<path d="M36.5449 33.3805L37.3042 32.9399C37.3091 32.9615 37.3091 32.9839 37.3042 33.0055L36.5449 33.4461V33.3805Z" fill="#868689"/>
<path d="M36.5073 33.4461L37.2666 33.0055L36.5073 33.4461Z" fill="#818184"/>
<path d="M35.7576 30.1183C36.5807 30.6637 37.2641 31.395 37.7526 32.2531C38.2411 33.1112 38.521 34.0722 38.5697 35.0584C38.5697 36.8675 37.2761 37.5987 35.7013 36.6894C34.8779 36.1466 34.1941 35.4172 33.7054 34.5605C33.2168 33.7038 32.9372 32.7439 32.8892 31.7588C32.8985 29.9402 34.1828 29.2091 35.7576 30.1183ZM34.1078 33.7835L37.3043 35.6583C37.2066 34.882 36.9131 34.1433 36.4512 33.5117C36.5372 33.3848 36.5799 33.2336 36.5731 33.0805C36.5574 32.7828 36.471 32.4932 36.3211 32.2356C36.1711 31.9781 35.9618 31.76 35.7107 31.5994C35.2326 31.3182 34.8483 31.5432 34.8483 32.0869C34.8537 32.2833 34.895 32.4771 34.9702 32.6587C34.5296 32.7243 34.2015 33.1461 34.1078 33.821V33.7835Z" fill="#FF4CAA"/>
<path d="M50.7841 55.1747L51.5528 54.7342C51.4177 54.8143 51.3049 54.9271 51.2247 55.0622L50.4561 55.5028C50.5408 55.3713 50.6526 55.2594 50.7841 55.1747Z" fill="#852858"/>
<path d="M50.4559 55.5029L51.2246 55.0623C51.191 55.109 51.1627 55.1593 51.1402 55.2123L50.3716 55.6528L50.4559 55.5029Z" fill="#8A295C"/>
<path d="M50.3712 55.6529L51.1398 55.2123L51.0836 55.3435L50.3149 55.7841L50.3712 55.6529Z" fill="#8F2B5F"/>
<path d="M50.3149 55.784L51.0836 55.3435C51.0836 55.3435 51.0836 55.4185 51.0836 55.4653L50.3243 55.9059V55.784H50.3149Z" fill="#942C63"/>
<path d="M50.2778 55.9059L51.0371 55.4653V55.5872L50.2778 56.0277V55.9059Z" fill="#992E66"/>
<path d="M50.2496 56.0277L51.0089 55.5872C51.0044 55.6245 51.0044 55.6623 51.0089 55.6996L50.2402 56.1496V56.0277H50.2496Z" fill="#9E2F69"/>
<path d="M50.2217 56.1121L50.9903 55.6622C50.9903 55.6622 50.9903 55.7278 50.9903 55.7559L50.2311 56.1965C50.2311 56.1965 50.2311 56.1402 50.2311 56.1121H50.2217Z" fill="#A3316D"/>
<path d="M50.7837 55.1749L51.5524 54.7343L51.693 54.6687L50.9243 55.1093L50.7837 55.1749Z" fill="#818184"/>
<path d="M50.9238 55.1091L51.6925 54.6685H51.7956L51.0363 55.1091H50.9238Z" fill="#868689"/>
<path d="M51.0366 55.081L51.7959 54.6404L51.0366 55.081Z" fill="#8B8B8E"/>
<path d="M50.981 54.4998L51.7496 54.0593L50.981 54.5092V54.4998Z" fill="#B8377A"/>
<path d="M50.2124 56.234L50.9717 55.7934L54.1682 57.6401L53.4089 58.0806L50.2124 56.234Z" fill="#DC4193"/>
<path d="M51.2047 53.9562L51.964 53.5062C51.905 53.5464 51.8542 53.5973 51.814 53.6562L51.0547 54.0968C51.0898 54.0362 51.1419 53.9873 51.2047 53.9562Z" fill="#852858"/>
<path d="M51.0558 54.0968L51.815 53.6562V53.7125L51.0464 54.153C51.0491 54.1344 51.0491 54.1154 51.0464 54.0968H51.0558Z" fill="#8A295C"/>
<path d="M50.981 54.153L51.7496 53.7125C51.7496 53.7125 51.7496 53.7125 51.7496 53.7593L50.981 54.2374C50.986 54.2222 50.986 54.2058 50.981 54.1905V54.153Z" fill="#8F2B5F"/>
<path d="M50.981 54.2374L51.7496 53.7968L50.981 54.2374Z" fill="#942C63"/>
<path d="M50.9809 54.2374L51.7401 53.7968C51.7401 53.7968 51.7401 53.7968 51.7401 53.8437L50.9809 54.2843C50.9764 54.269 50.9764 54.2527 50.9809 54.2374Z" fill="#992E66"/>
<path d="M50.9811 54.2937L51.7403 53.8531L50.9717 54.303L50.9811 54.2937Z" fill="#9E2F69"/>
<path d="M50.981 54.3405L51.7496 53.8905L50.9903 54.3311L50.981 54.3405Z" fill="#A3316D"/>
<path d="M50.9811 54.378L51.7403 53.9374L50.9717 54.378H50.9811Z" fill="#A83270"/>
<path d="M50.981 54.4155L51.7496 53.9749V54.0218L50.981 54.4624V54.4155Z" fill="#AD3474"/>
<path d="M50.981 54.4623L51.7496 54.0218L50.981 54.4623Z" fill="#B33577"/>
<path d="M50.981 54.4999L51.7496 54.0593L50.981 54.5092V54.4999Z" fill="#B8377A"/>
<path d="M50.981 54.5468L51.7496 54.0968L50.981 54.5468Z" fill="#BD387E"/>
<path d="M50.981 54.5842L51.7496 54.1343L50.9903 54.5749L50.981 54.5842Z" fill="#C23A81"/>
<path d="M50.9811 54.6217L51.7403 54.1812L50.9717 54.6217H50.9811Z" fill="#C73B85"/>
<path d="M50.981 54.6592L51.7309 54.2374L50.981 54.7061V54.6592Z" fill="#CC3D88"/>
<path d="M50.9811 54.7061L51.731 54.2374L50.9717 54.678L50.9811 54.7061Z" fill="#D13E8B"/>
<path d="M50.9811 54.7436L51.7403 54.303L50.9717 54.7436V54.6967L50.9811 54.7436Z" fill="#D6408F"/>
<path d="M50.981 54.7905L51.7496 54.3499L50.9903 54.7998L50.981 54.7905Z" fill="#DB4192"/>
<path d="M50.981 54.8373L51.7402 54.3874C51.7446 54.4059 51.7446 54.4251 51.7402 54.4436L50.981 54.8842V54.8373Z" fill="#E04396"/>
<path d="M50.9811 54.8842L51.7403 54.4436V54.4905L50.9717 54.9311C50.9726 54.9155 50.9726 54.8998 50.9717 54.8842H50.9811Z" fill="#E64499"/>
<path d="M50.981 54.9311L51.7496 54.4905L50.981 54.9311Z" fill="#EB469C"/>
<path d="M51.0371 54.978L51.8058 54.5374L51.0465 54.978C51.0465 54.978 51.0465 54.978 51.0465 54.9311L51.0371 54.978Z" fill="#F047A0"/>
<path d="M51.0557 55.0248L51.8149 54.5842C51.8149 54.5842 51.8149 54.5842 51.8149 54.6311L51.0557 55.0717V55.0248Z" fill="#F549A3"/>
<path d="M52.5558 55.934L53.315 55.4841V55.531L52.5464 55.9809L52.5558 55.934Z" fill="#F9FAFD"/>
<path d="M52.5845 55.9812L53.3531 55.5312L53.4375 55.6531L52.6782 56.103C52.6523 56.0586 52.6208 56.0176 52.5845 55.9812Z" fill="#FAFAFD"/>
<path d="M52.6777 56.1121L53.437 55.6622C53.4924 55.7367 53.5425 55.815 53.587 55.8965L52.8183 56.3371L52.6777 56.1121Z" fill="#FAFBFE"/>
<path d="M52.856 56.3277L53.6246 55.8871L53.709 56.0371L52.9403 56.4777L52.856 56.3277Z" fill="#FAFAFD"/>
<path d="M52.9028 56.4777L53.6715 56.0371C53.6832 56.0732 53.6989 56.1077 53.7184 56.1403L52.9591 56.5902L52.9028 56.4777Z" fill="#F9FAFD"/>
<path d="M52.959 56.5902L53.7183 56.1403C53.7218 56.1745 53.7218 56.2091 53.7183 56.2434L52.959 56.6839C52.9607 56.6527 52.9607 56.6214 52.959 56.5902Z" fill="#F9FAFD"/>
<path d="M53.0059 56.684L53.7651 56.2434C53.7826 56.2737 53.7983 56.305 53.812 56.3371L53.0527 56.7777C53.0527 56.7777 53.0527 56.7121 53.0059 56.684Z" fill="#F9FAFD"/>
<path d="M53.0526 56.7777L53.8119 56.3371C53.8135 56.3683 53.8135 56.3996 53.8119 56.4308L53.0526 56.8714C53.0489 56.8403 53.0489 56.8088 53.0526 56.7777Z" fill="#F8F9FD"/>
<path d="M53.0906 56.8714L53.8499 56.4308V56.5246L53.0813 56.9651C53.0797 56.9339 53.0797 56.9026 53.0813 56.8714H53.0906Z" fill="#F3F4F8"/>
<path d="M53.1279 56.9651L53.8966 56.5245C53.8927 56.5588 53.8927 56.5934 53.8966 56.6276L53.1279 57.0682C53.1279 57.0682 53.1279 57.0026 53.1279 56.9651Z" fill="#EEEFF3"/>
<path d="M53.1655 57.0496L53.9342 56.609C53.9302 56.6464 53.9302 56.6841 53.9342 56.7215L53.1655 57.162C53.1696 57.1247 53.1696 57.0869 53.1655 57.0496Z" fill="#E9EAEE"/>
<path d="M53.2026 57.1807L53.9713 56.7402C53.9673 56.7776 53.9673 56.8153 53.9713 56.8527L53.2026 57.2932C53.2067 57.2558 53.2067 57.2181 53.2026 57.1807Z" fill="#E4E5E9"/>
<path d="M53.2402 57.2932L54.0089 56.8527V56.9745L53.2496 57.4151V57.2932H53.2402Z" fill="#DFE0E4"/>
<path d="M53.2774 57.4151L54.0367 56.9745C54.0367 56.9745 54.0367 57.0495 54.0367 57.0964L53.2681 57.537V57.4151H53.2774Z" fill="#DADBDF"/>
<path d="M53.3057 57.5369L54.0743 57.0964V57.2182L53.3057 57.6588V57.5369Z" fill="#D5D6DA"/>
<path d="M53.3345 57.6588L54.1031 57.2182V57.3401L53.3345 57.7807V57.6588Z" fill="#D0D1D5"/>
<path d="M53.3623 57.7807L54.131 57.3401V57.462L53.3623 57.9026V57.7807Z" fill="#CBCCCF"/>
<path d="M53.3809 57.9025L54.1495 57.4619C54.1495 57.4619 54.1495 57.5463 54.1495 57.5838L53.3902 58.0244C53.3941 57.9839 53.3941 57.943 53.3902 57.9025H53.3809Z" fill="#C6C7CA"/>
<path d="M53.3998 57.9869L54.1591 57.5464C54.1634 57.5648 54.1634 57.5841 54.1591 57.6026L53.3998 58.0432C53.3954 58.0247 53.3954 58.0054 53.3998 57.9869Z" fill="#C1C2C5"/>
<path d="M51.2056 53.9565L51.9648 53.5066H52.0398L51.2712 53.9472H51.2056V53.9565Z" fill="#818184"/>
<path d="M51.271 53.9188L52.0397 53.4783H52.0959L51.3366 53.9188H51.271Z" fill="#868689"/>
<path d="M51.3364 53.8999L52.0957 53.4593H52.1426L51.3833 53.9093L51.3364 53.8999Z" fill="#8B8B8E"/>
<path d="M51.3833 53.8999L52.1426 53.45L51.3833 53.8905V53.8999Z" fill="#909093"/>
<path d="M51.4307 53.8905L52.19 53.45L51.4307 53.8999V53.8905Z" fill="#959598"/>
<path d="M51.4683 53.8999L52.2275 53.45L51.4683 53.8905V53.8999Z" fill="#9A9A9D"/>
<path d="M51.5054 53.8999L52.2647 53.4593H52.3115L51.5429 53.9093L51.5054 53.8999Z" fill="#9F9FA2"/>
<path d="M51.543 53.9093L52.3116 53.4593L51.5523 53.8999L51.543 53.9093Z" fill="#A4A4A7"/>
<path d="M51.5806 53.9093L52.3399 53.4687L51.5806 53.9093Z" fill="#A9A9AC"/>
<path d="M51.6178 53.9186L52.3771 53.4781L51.6084 53.928L51.6178 53.9186Z" fill="#AEAEB1"/>
<path d="M51.6455 53.9374L52.4142 53.4875L51.6549 53.928L51.6455 53.9374Z" fill="#B3B3B6"/>
<path d="M51.6836 53.9468L52.4429 53.5062L51.6836 53.9561V53.9468Z" fill="#B8B8BB"/>
<path d="M51.7212 53.9655L52.4805 53.5156L51.7212 53.9562V53.9655Z" fill="#BCBDC0"/>
<path d="M51.7584 53.9749L52.5177 53.5343L51.749 53.9749H51.7584Z" fill="#C1C2C5"/>
<path d="M51.7866 53.9936L52.5553 53.5531L51.7866 53.9936Z" fill="#C6C7CA"/>
<path d="M51.8149 54.0124L52.5836 53.5718H52.593L51.8243 54.0218L51.8149 54.0124Z" fill="#C6C7CA"/>
<path d="M51.8243 54.0218L52.5836 53.5718L51.8149 54.0124L51.8243 54.0218Z" fill="#CBCCCF"/>
<path d="M51.8623 54.0407L52.631 53.6001L51.8717 54.0501L51.8623 54.0407Z" fill="#D0D1D5"/>
<path d="M51.9185 54.0686L52.6777 53.6187H52.7246L51.956 54.0593L51.9185 54.0686Z" fill="#D5D6DA"/>
<path d="M51.9185 54.0874L52.6871 53.6468L51.9185 54.0967V54.0874Z" fill="#DADBDF"/>
<path d="M51.9741 54.1249L52.7428 53.675L51.9741 54.1155V54.1249Z" fill="#DFE0E4"/>
<path d="M52.0117 54.153L52.7804 53.7124L52.0117 54.1624V54.153Z" fill="#E4E5E9"/>
<path d="M52.0493 54.2374L52.818 53.7875L52.0493 54.228V54.2374Z" fill="#E9EAEE"/>
<path d="M52.0864 54.2374L52.8551 53.7968L52.0864 54.2374Z" fill="#EEEFF3"/>
<path d="M52.124 54.2374L52.8927 53.7968L52.1334 54.2374H52.124Z" fill="#F3F4F8"/>
<path d="M52.1622 54.2936L52.9215 53.8531L52.1528 54.2936H52.1622Z" fill="#F8F9FD"/>
<path d="M52.1899 54.3311L52.9586 53.8905L52.1993 54.3311H52.1899Z" fill="#F9FAFD"/>
<path d="M52.2275 54.3686L52.9868 53.928L52.2275 54.3686Z" fill="#F9FAFD"/>
<path d="M52.2651 54.4061L53.0244 53.9655L52.2651 54.4155V54.3592V54.4061Z" fill="#F9FAFD"/>
<path d="M52.3022 54.4623L53.0615 54.0124L53.1178 54.0967L52.3491 54.5373C52.3391 54.5092 52.3231 54.4836 52.3022 54.4623Z" fill="#FAFAFD"/>
<path d="M52.3491 54.5373L53.1178 54.0968L53.1834 54.1999L52.4147 54.6405L52.3491 54.5373Z" fill="#FAFBFE"/>
<path d="M52.415 54.6404L53.1837 54.1999V54.2655L52.4244 54.7154C52.4262 54.6905 52.4262 54.6654 52.4244 54.6404H52.415Z" fill="#FAFAFD"/>
<path d="M52.4619 54.7154L53.2212 54.2655V54.3217L52.4619 54.7623V54.7154Z" fill="#F9FAFD"/>
<path d="M52.4897 54.7623L53.249 54.3217L52.4897 54.7623Z" fill="#F9FAFD"/>
<path d="M52.5083 54.8092L53.2676 54.3686L52.5083 54.8186V54.8092Z" fill="#F9FAFD"/>
<path d="M52.5273 54.856L53.2866 54.4061L52.5273 54.8467V54.856Z" fill="#F8F9FD"/>
<path d="M52.5459 54.8935L53.3052 54.453L52.5459 54.8935Z" fill="#F3F4F8"/>
<path d="M52.565 54.9311L53.3243 54.4905L52.5557 54.9311H52.565Z" fill="#EEEFF3"/>
<path d="M52.5742 54.9779L53.3429 54.5374L52.5836 54.9779H52.5742Z" fill="#E9EAEE"/>
<path d="M52.5931 55.0154L53.3523 54.5749L52.5837 55.0154C52.5828 54.9998 52.5828 54.9842 52.5837 54.9686L52.5931 55.0154Z" fill="#E4E5E9"/>
<path d="M52.6025 55.0623L53.3712 54.6217C53.3712 54.6217 53.3712 54.6217 53.3712 54.6686L52.6119 55.1091L52.6025 55.0623Z" fill="#DFE0E4"/>
<path d="M52.6212 55.1092L53.3805 54.6686L52.6118 55.1092H52.6212Z" fill="#DADBDF"/>
<path d="M52.6304 55.1748L53.399 54.7342L52.6304 55.1841C52.6348 55.1688 52.6348 55.1526 52.6304 55.1373V55.1748Z" fill="#D5D6DA"/>
<path d="M52.6396 55.1747L53.4083 54.7248C53.4025 54.7399 53.4025 54.7566 53.4083 54.7717L52.6396 55.2216V55.1747Z" fill="#D0D1D5"/>
<path d="M52.6489 55.2497L53.4176 54.7998L52.6583 55.2403L52.6489 55.2497Z" fill="#CBCCCF"/>
<path d="M52.6586 55.2873L53.4179 54.8467V54.8936L52.6586 55.3341C52.6542 55.3188 52.6542 55.3026 52.6586 55.2873Z" fill="#C6C7CA"/>
<path d="M52.6676 55.3341L53.4269 54.8935L52.6582 55.3435L52.6676 55.3341Z" fill="#C1C2C5"/>
<path d="M52.668 55.381L53.4366 54.931L52.6773 55.3716L52.668 55.381Z" fill="#BCBDC0"/>
<path d="M52.6772 55.4185L53.4365 54.9779L52.6772 55.4279V55.381V55.4185Z" fill="#B8B8BB"/>
<path d="M52.6772 55.4654L53.4365 55.0154L52.6772 55.456V55.4654Z" fill="#B3B3B6"/>
<path d="M52.6772 55.5029L53.4365 55.0623L52.6772 55.5029Z" fill="#AEAEB1"/>
<path d="M52.6772 55.5403L53.4365 55.0998L52.6772 55.5403Z" fill="#A9A9AC"/>
<path d="M52.6772 55.5778L53.4365 55.1373L52.6772 55.5778Z" fill="#A4A4A7"/>
<path d="M52.6676 55.6153L53.4269 55.1747L52.6582 55.6247V55.5778L52.6676 55.6153Z" fill="#9F9FA2"/>
<path d="M52.6582 55.6622L53.4269 55.2123C53.4269 55.2123 53.4269 55.2123 53.4269 55.2591L52.6676 55.6997L52.6582 55.6622Z" fill="#9A9A9D"/>
<path d="M52.6583 55.6997L53.4176 55.2591L52.6489 55.709L52.6583 55.6997Z" fill="#959598"/>
<path d="M52.6396 55.7465L53.4083 55.2966L52.649 55.7372L52.6396 55.7465Z" fill="#909093"/>
<path d="M52.6305 55.784L53.3898 55.3435C53.3898 55.3435 53.3898 55.3435 53.3898 55.3997L52.6211 55.8403V55.784H52.6305Z" fill="#8B8B8E"/>
<path d="M52.6025 55.8404L53.3712 55.3998V55.456L52.6119 55.906V55.8404H52.6025Z" fill="#868689"/>
<path d="M52.5742 55.906L53.3335 55.456L52.5742 55.906Z" fill="#818184"/>
<path d="M51.824 52.5782C52.6464 53.1221 53.3294 53.8517 53.8179 54.7082C54.3064 55.5647 54.5867 56.5241 54.6361 57.5088C54.6361 59.318 53.3425 60.0492 51.7677 59.1399C50.9422 58.5993 50.2568 57.8704 49.7679 57.0132C49.279 56.156 49.0006 55.195 48.9556 54.2092C48.9556 52.3626 50.2398 51.6689 51.824 52.5782ZM50.2117 56.234L53.4082 58.1088C53.3138 57.3316 53.0199 56.5921 52.5551 55.9621C52.6382 55.8339 52.6807 55.6837 52.677 55.5309C52.6628 55.2317 52.5771 54.9402 52.427 54.6808C52.277 54.4215 52.067 54.2019 51.8146 54.0405C51.3365 53.7686 50.9522 53.9842 50.9522 54.5373C50.9575 54.7307 50.9988 54.9215 51.0741 55.0997C50.6335 55.1654 50.3054 55.5872 50.2117 56.2621V56.234Z" fill="#FF61CB"/>
<path d="M25.7651 11.6986L26.4963 11.2768V11.8861L25.7651 12.3173V11.6986Z" fill="#ABBEC5"/>
<path d="M25.7739 10.0957L26.5051 9.67386V10.2925L25.7739 10.7144V10.0957Z" fill="#ABBEC5"/>
<path d="M25.7739 8.42714L26.5051 7.99594V8.61462L25.7739 9.03644V8.42714Z" fill="#ABBEC5"/>
<path d="M25.7651 12.3173L26.4963 11.8861L44.8973 22.5161L44.1661 22.9379L25.7651 12.3173Z" fill="#BFD4DC"/>
<path d="M25.7651 11.6986L26.4963 11.2768L44.9066 21.8974L44.1661 22.3286L25.7651 11.6986Z" fill="#36A0B7"/>
<path d="M44.166 22.3286L44.9066 21.8974L44.8972 22.5161L44.166 22.9379V22.3286Z" fill="#3190A4"/>
<path d="M25.7739 10.7144L26.5051 10.2926L44.906 20.9132L44.1749 21.3444L25.7739 10.7144Z" fill="#BFD4DC"/>
<path d="M25.7739 10.0957L26.5051 9.67386L44.906 20.3039L44.1749 20.7257L25.7739 10.0957Z" fill="#36A0B7"/>
<path d="M44.1753 20.7257L44.9065 20.3039V20.9132L44.1753 21.3444V20.7257Z" fill="#3190A4"/>
<path d="M25.7739 9.03642L26.5051 8.61459L44.906 19.2352L44.1749 19.6664L25.7739 9.03642Z" fill="#BFD4DC"/>
<path d="M44.1753 19.0477L44.9065 18.6259V19.2352L44.1753 19.6664V19.0477Z" fill="#3190A4"/>
<path d="M44.1749 19.0477V19.6664L25.7739 9.0364V8.42709L44.1749 19.0477Z" fill="#3FBAD4"/>
<path d="M25.7739 8.42714L26.5051 7.99594L44.906 18.6259L44.1749 19.0478L25.7739 8.42714Z" fill="#36A0B7"/>
<path d="M43.988 17.4449C44.3444 17.6747 44.6415 17.9856 44.8549 18.3522C45.0683 18.7187 45.192 19.1305 45.2159 19.554V23.6222C45.2211 23.669 45.2211 23.7161 45.2159 23.7629V28.7404L41.1383 22.7036L25.9057 13.9296C25.5491 13.6977 25.252 13.3851 25.0387 13.017C24.8254 12.649 24.7017 12.2359 24.6777 11.8111V7.75224C24.6777 6.96483 25.2308 6.6555 25.9057 7.0492L43.988 17.4449ZM44.1754 19.6665V19.0478L25.7745 8.42716V9.03647L44.1754 19.6665ZM44.1754 22.938V22.3661L25.7651 11.6987V12.3173L44.1661 22.938H44.1754ZM44.1754 21.3444V20.7257L25.7745 10.1051V10.7144L44.1754 21.3444Z" fill="#F8F9FD"/>
<path d="M44.1661 22.3286V22.9379L25.7651 12.3173V11.6986L44.1661 22.3286Z" fill="#3FBAD4"/>
<path d="M44.1749 20.7256V21.3443L25.7739 10.7143V10.0956L44.1749 20.7256Z" fill="#3FBAD4"/>
<path d="M45.9468 19.0853C45.9512 19.0668 45.9512 19.0475 45.9468 19.029V18.9634C45.9468 18.9634 45.9468 18.9634 45.9468 18.9072C45.9506 18.8855 45.9506 18.8633 45.9468 18.8416C45.9468 18.8416 45.9468 18.8416 45.9468 18.7853C45.9468 18.7291 45.9468 18.7384 45.9468 18.7197C45.9468 18.7009 45.9468 18.6728 45.9468 18.6541C45.9499 18.6323 45.9499 18.6102 45.9468 18.5885C45.9508 18.5699 45.9508 18.5507 45.9468 18.5322C45.948 18.5104 45.948 18.4885 45.9468 18.4666V18.4104C45.9523 18.3888 45.9523 18.3663 45.9468 18.3447C45.9418 18.3295 45.9418 18.3131 45.9468 18.2979V18.2416V18.176V18.101V18.0167C45.9468 17.9604 45.8812 17.9135 45.853 17.8667L45.4031 17.6792C45.4002 17.6543 45.4002 17.6291 45.4031 17.6042V17.548L45.3562 17.4917L45.3 17.4448V17.398L45.2437 17.3417H45.1875H45.1312H45.075L26.6553 6.58987H26.5991H26.5522H26.5053H26.4491H26.0929H26.0085H25.9148L25.1836 7.02107C25.2385 6.98662 25.2987 6.96129 25.3617 6.94608C25.4301 6.9367 25.4995 6.9367 25.5679 6.94608H25.7929L26.046 7.05857L43.9876 17.4448L44.2313 17.6136L44.4563 17.8198C44.53 17.8967 44.5989 17.9781 44.6625 18.0635C44.7285 18.1529 44.7881 18.2469 44.8407 18.3447C44.8969 18.4385 44.9438 18.5416 44.9906 18.6353L45.1031 18.9447C45.1603 19.1397 45.1918 19.3414 45.1969 19.5446V23.6129C45.202 23.6596 45.202 23.7068 45.1969 23.7535V28.731L45.928 28.3092V23.3317V23.2098V19.0853H45.9468Z" fill="#E1E1E1"/>
<path d="M34.7266 3.30893L35.4859 2.85898C35.3477 2.93926 35.2342 3.056 35.1578 3.19644L34.3892 3.61826C34.4746 3.48413 34.5901 3.37179 34.7266 3.29018V3.30893Z" fill="#852858"/>
<path d="M34.3893 3.61831L35.158 3.17773C35.1133 3.22537 35.0754 3.279 35.0455 3.33709L34.2769 3.78704L34.3893 3.61831Z" fill="#8A295C"/>
<path d="M34.3049 3.78701L35.0454 3.33707V3.4683L34.2861 3.91825C34.2961 3.87267 34.3118 3.82857 34.333 3.78701H34.3049Z" fill="#8F2B5F"/>
<path d="M34.2578 3.91824L35.0452 3.46829C35.0411 3.50881 35.0411 3.54963 35.0452 3.59015L34.2766 4.0401C34.2766 4.0401 34.2766 3.95574 34.2766 3.91824H34.2578Z" fill="#942C63"/>
<path d="M34.2109 4.04011L34.9796 3.61829C34.9796 3.61829 34.9796 3.70265 34.9796 3.74015L34.2203 4.19009V4.06823L34.2109 4.04011Z" fill="#992E66"/>
<path d="M34.1827 4.16198L34.942 3.71204C34.9465 3.75253 34.9465 3.7934 34.942 3.8339L34.1733 4.27447V4.16198H34.1827Z" fill="#9E2F69"/>
<path d="M34.1548 4.27447L34.9234 3.83389C34.9234 3.83389 34.9234 3.89014 34.9234 3.91826L34.1079 4.36821C34.112 4.3371 34.112 4.30558 34.1079 4.27447H34.1548Z" fill="#A3316D"/>
<path d="M34.7261 3.30923L35.4854 2.85928C35.5298 2.83493 35.577 2.81605 35.626 2.80304L34.8573 3.24361L34.7261 3.30923Z" fill="#818184"/>
<path d="M34.8574 3.24334L35.6261 2.80276H35.7292L34.9699 3.25271H34.8574V3.24334Z" fill="#868689"/>
<path d="M34.9697 3.21524L35.729 2.76529L35.0447 3.20586L34.9697 3.21524Z" fill="#8B8B8E"/>
<path d="M34.8857 2.68096L35.6544 2.24039L34.8857 2.68096Z" fill="#B8377A"/>
<path d="M34.145 4.36822L34.9043 3.91827L38.1008 5.76493L37.3415 6.2055L34.145 4.36822Z" fill="#DC4193"/>
<path d="M35.1392 2.08101L35.8985 1.64044C35.8407 1.67483 35.7923 1.72317 35.7579 1.78105L34.9893 2.231C35.0269 2.16999 35.0782 2.11862 35.1392 2.08101Z" fill="#852858"/>
<path d="M34.9893 2.23097L35.7579 1.74353C35.7531 1.76513 35.7531 1.78754 35.7579 1.80915L34.9986 2.24972V2.19348L34.9893 2.23097Z" fill="#8A295C"/>
<path d="M34.9609 2.28722L35.7202 1.84665C35.7202 1.84665 35.7202 1.84665 35.7202 1.89352L34.9609 2.33409V2.28722Z" fill="#8F2B5F"/>
<path d="M34.9424 2.3341L35.7017 1.89352L34.9424 2.3341C34.9424 2.3341 34.9424 2.3341 34.9424 2.28723V2.3341Z" fill="#942C63"/>
<path d="M34.9233 2.38097L35.6826 1.9404L34.9233 2.39035V2.38097Z" fill="#992E66"/>
<path d="M34.9141 2.42782L35.6733 1.97787L34.9141 2.41845V2.42782Z" fill="#9E2F69"/>
<path d="M34.9044 2.46529L35.6637 2.02472L34.895 2.47467L34.9044 2.46529Z" fill="#A3316D"/>
<path d="M34.895 2.5122L35.6637 2.06226C35.6593 2.07757 35.6593 2.09382 35.6637 2.10913L34.9044 2.5497L34.895 2.5122Z" fill="#A83270"/>
<path d="M34.8951 2.54967L35.6544 2.1091L34.8857 2.54967H34.8951Z" fill="#AD3474"/>
<path d="M34.8857 2.58718L35.6544 2.14661L34.8857 2.68092V2.58718Z" fill="#B33577"/>
<path d="M34.8857 2.68096L35.6544 2.24039L34.8857 2.68096Z" fill="#B8377A"/>
<path d="M34.8857 2.68096L35.6544 2.24039L34.8857 2.68096Z" fill="#BD387E"/>
<path d="M34.8857 2.68096L35.6544 2.24039L34.8951 2.69033C34.8995 2.67502 34.8995 2.65877 34.8951 2.64346L34.8857 2.68096Z" fill="#C23A81"/>
<path d="M34.8951 2.75589L35.6544 2.30594L34.8857 2.74651L34.8951 2.75589Z" fill="#C73B85"/>
<path d="M34.895 2.79342L35.6637 2.35284L34.9044 2.79342H34.895Z" fill="#CC3D88"/>
<path d="M34.9048 2.83092L35.6641 2.39035C35.6698 2.40544 35.6698 2.42213 35.6641 2.43722L34.9048 2.87779V2.83092Z" fill="#D13E8B"/>
<path d="M34.9141 2.87777L35.6733 2.43719L34.9141 2.88714V2.87777Z" fill="#D6408F"/>
<path d="M34.9233 2.92465L35.6826 2.4747C35.6826 2.4747 35.6826 2.4747 35.6826 2.52157L34.9233 2.96214V2.92465Z" fill="#DB4192"/>
<path d="M34.9329 2.96212L35.6922 2.52155L34.9235 2.96212C34.9226 2.94651 34.9226 2.93086 34.9235 2.91525L34.9329 2.96212Z" fill="#E04396"/>
<path d="M34.9424 3.00899L35.711 2.56842C35.711 2.56842 35.711 2.56842 35.711 2.61529L34.9518 3.05586L34.9424 3.00899Z" fill="#E64499"/>
<path d="M34.961 3.05587L35.7203 2.6153L34.9517 3.06524C34.9517 3.06524 34.9517 3.06524 34.9517 3.009L34.961 3.05587Z" fill="#EB469C"/>
<path d="M34.9702 3.11211L35.7389 2.68091C35.7348 2.69944 35.7348 2.71862 35.7389 2.73715L34.9702 3.17772V3.11211Z" fill="#F047A0"/>
<path d="M34.9893 3.15898L35.7579 2.68091L35.0455 3.20585V3.15898H34.9893Z" fill="#F549A3"/>
<path d="M36.4883 4.05889L37.2476 3.61832L36.4883 4.05889Z" fill="#F9FAFD"/>
<path d="M36.5259 4.10607L37.2852 3.6655L37.3695 3.78736L36.6102 4.22793L36.5259 4.10607Z" fill="#FAFAFD"/>
<path d="M36.6099 4.22765L37.3692 3.78708C37.4254 3.86207 37.4723 3.93706 37.5191 4.01205L36.7505 4.462L36.6099 4.22765Z" fill="#FAFBFE"/>
<path d="M36.751 4.46197L37.5196 4.01202L37.604 4.16201L36.8353 4.61195L36.751 4.46197Z" fill="#FAFAFD"/>
<path d="M36.835 4.61193L37.6036 4.16199L37.6599 4.27447L36.9193 4.71505L36.8631 4.61193H36.835Z" fill="#F9FAFD"/>
<path d="M36.9194 4.71511L37.6881 4.27454V4.36828L36.9194 4.80885C36.9019 4.77857 36.8863 4.74727 36.8726 4.71511H36.9194Z" fill="#F9FAFD"/>
<path d="M36.9194 4.80883L37.6787 4.36826L37.7256 4.46199L36.9663 4.91194V4.80883H36.9194Z" fill="#F9FAFD"/>
<path d="M36.9854 4.91192L37.7446 4.46198C37.7484 4.49311 37.7484 4.52458 37.7446 4.55571L36.9854 5.00566C36.9869 4.97443 36.9869 4.94315 36.9854 4.91192Z" fill="#F8F9FD"/>
<path d="M37.0226 5.00567L37.7818 4.55573V4.65884L37.0132 5.09941V5.00567H37.0226Z" fill="#F3F4F8"/>
<path d="M37.0605 5.09936L37.8573 4.65878C37.8548 4.69311 37.8548 4.72757 37.8573 4.7619L37.0887 5.20247C37.0925 5.16821 37.0925 5.13362 37.0887 5.09936H37.0605Z" fill="#EEEFF3"/>
<path d="M37.0973 5.20251L37.8565 4.76193C37.8527 4.79619 37.8527 4.83078 37.8565 4.86505L37.0879 5.31499C37.0919 5.2776 37.0919 5.23989 37.0879 5.20251H37.0973Z" fill="#E9EAEE"/>
<path d="M37.1348 5.315L37.9034 4.86505C37.9006 4.90562 37.9006 4.94634 37.9034 4.98691L37.1348 5.42748C37.1388 5.3901 37.1388 5.35239 37.1348 5.315Z" fill="#E4E5E9"/>
<path d="M37.1729 5.42748L37.9415 4.98691V5.09939L37.1822 5.54934C37.1875 5.50889 37.1875 5.46793 37.1822 5.42748H37.1729Z" fill="#DFE0E4"/>
<path d="M37.2105 5.54934L37.9698 5.0994C37.9727 5.13997 37.9727 5.18069 37.9698 5.22126L37.2012 5.6712V5.54934H37.2105Z" fill="#DADBDF"/>
<path d="M37.2383 5.67117L38.0069 5.22122V5.34308L37.2383 5.79303V5.67117Z" fill="#D5D6DA"/>
<path d="M37.2661 5.79306L38.0348 5.34311V5.47434L37.2661 5.91492V5.79306Z" fill="#D0D1D5"/>
<path d="M37.2944 5.9149L38.0631 5.49307V5.61493L37.2944 6.05551C37.2989 6.01501 37.2989 5.97414 37.2944 5.93365V5.9149Z" fill="#CBCCCF"/>
<path d="M37.313 6.03679L38.0817 5.59622C38.0778 5.63675 38.0778 5.67755 38.0817 5.71808L37.313 6.15866C37.3175 6.11816 37.3175 6.07729 37.313 6.03679Z" fill="#C6C7CA"/>
<path d="M37.332 6.15865L38.1007 5.71808L37.3414 6.15865H37.332Z" fill="#C1C2C5"/>
<path d="M35.1387 2.08135L35.898 1.64078H35.973L35.2043 2.09072H35.1387V2.08135Z" fill="#818184"/>
<path d="M35.2036 2.05267L35.9816 1.60272H36.0379L35.2786 2.0433H35.213L35.2036 2.05267Z" fill="#868689"/>
<path d="M35.2695 2.03411L36.0288 1.59354H36.0757L35.3164 2.03411H35.2695Z" fill="#8B8B8E"/>
<path d="M35.3164 2.02477L36.0757 1.5842L35.3164 2.02477Z" fill="#909093"/>
<path d="M35.3633 2.02477L36.1226 1.5842L35.3633 2.02477Z" fill="#959598"/>
<path d="M35.4009 2.02477L36.1602 1.5842H36.207L35.4384 2.02477H35.4009Z" fill="#9A9A9D"/>
<path d="M35.4385 2.02477L36.2071 1.5842L35.4385 2.02477Z" fill="#9F9FA2"/>
<path d="M35.4761 2.03411L36.2447 1.59354L35.4855 2.03411H35.4761Z" fill="#A4A4A7"/>
<path d="M35.5132 2.04351L36.2725 1.60294L35.5132 2.04351Z" fill="#A9A9AC"/>
<path d="M35.5509 2.05288L36.3102 1.6123L35.5415 2.05288H35.5509Z" fill="#AEAEB1"/>
<path d="M35.5791 2.06228L36.3478 1.6217L35.5791 2.07165V2.06228Z" fill="#B3B3B6"/>
<path d="M35.6167 2.08096L36.3854 1.63101L35.6261 2.07158L35.6167 2.08096Z" fill="#B8B8BB"/>
<path d="M35.6538 2.09038L36.4131 1.64981L35.6538 2.09038Z" fill="#BCBDC0"/>
<path d="M35.6915 2.10912L36.4508 1.66855L35.6821 2.10912H35.6915Z" fill="#C1C2C5"/>
<path d="M35.7197 2.12783L36.4884 1.68726L35.7197 2.1372V2.12783Z" fill="#C6C7CA"/>
<path d="M35.748 2.1466L36.5167 1.69666L36.5261 1.70603L35.7574 2.1466H35.748Z" fill="#C6C7CA"/>
<path d="M35.7573 2.14691L36.526 1.74384L35.7573 2.19378V2.14691Z" fill="#CBCCCF"/>
<path d="M35.7949 2.17503L36.5636 1.74384L35.7949 2.18441V2.17503Z" fill="#D0D1D5"/>
<path d="M35.8325 2.19348L36.6012 1.74353L35.8419 2.1841L35.8325 2.19348Z" fill="#D5D6DA"/>
<path d="M35.8701 2.2216L36.6294 1.74353H36.6763L35.9076 2.1841L35.8701 2.2216Z" fill="#DADBDF"/>
<path d="M35.9072 2.24969L36.6759 1.80911L35.9822 2.27781L35.9072 2.24969Z" fill="#DFE0E4"/>
<path d="M35.9824 2.27785L36.7511 1.83728L35.9824 2.31535V2.27785Z" fill="#E4E5E9"/>
<path d="M35.9824 2.31536L36.7511 1.87479L35.9918 2.32473L35.9824 2.31536Z" fill="#E9EAEE"/>
<path d="M36.0294 2.35281L36.7887 1.90286L36.02 2.35281H36.0294Z" fill="#EEEFF3"/>
<path d="M36.0576 2.39035L36.8263 1.9404L36.067 2.39035H36.0576Z" fill="#F3F4F8"/>
<path d="M36.0952 2.42782L36.8545 1.97787L36.0952 2.42782Z" fill="#F8F9FD"/>
<path d="M36.1323 2.4653L36.9197 2.01535L36.1511 2.4653H36.1323Z" fill="#F9FAFD"/>
<path d="M36.1606 2.5028L36.9199 2.05286L36.1606 2.49343V2.5028Z" fill="#F9FAFD"/>
<path d="M36.1981 2.5403L36.9199 2.09973C36.9239 2.1151 36.9239 2.13123 36.9199 2.1466L36.1606 2.58717L36.1981 2.5403Z" fill="#F9FAFD"/>
<path d="M36.2358 2.58718L36.9951 2.14661L37.0514 2.2216L36.2827 2.68092C36.2858 2.65288 36.2858 2.62459 36.2827 2.59655L36.2358 2.58718Z" fill="#FAFAFD"/>
<path d="M36.2827 2.6809L37.0514 2.23096L37.117 2.33407L36.3483 2.77464C36.3296 2.74128 36.3077 2.70988 36.2827 2.6809Z" fill="#FAFBFE"/>
<path d="M36.3477 2.76528L37.1163 2.32471C37.1163 2.32471 37.1163 2.32471 37.1163 2.3997L36.357 2.84027C36.3552 2.81531 36.3552 2.79025 36.357 2.76528H36.3477Z" fill="#FAFAFD"/>
<path d="M36.3945 2.84026L37.1538 2.39969V2.45593L36.3945 2.89651V2.84026Z" fill="#F9FAFD"/>
<path d="M36.4233 2.89654L37.1826 2.45596L36.4233 2.90591V2.89654Z" fill="#F9FAFD"/>
<path d="M36.4419 2.94339L37.2012 2.49344C37.2012 2.49344 37.2012 2.49344 37.2012 2.54031L36.4419 2.98088V2.94339Z" fill="#F9FAFD"/>
<path d="M36.4609 2.98086L37.2202 2.54028L36.4609 2.99023V2.94336V2.98086Z" fill="#F8F9FD"/>
<path d="M36.4795 3.02777L37.2388 2.57782L36.4795 3.01839V3.02777Z" fill="#F3F4F8"/>
<path d="M36.4981 3.06524L37.2574 2.62466L36.4888 3.06524H36.4981Z" fill="#EEEFF3"/>
<path d="M36.5073 3.10273L37.276 2.68091L36.5073 3.12148V3.10273Z" fill="#E9EAEE"/>
<path d="M36.5259 3.1496L37.2945 2.68091C37.2909 2.69632 37.2909 2.71236 37.2945 2.72778L36.5353 3.16835L36.5259 3.1496Z" fill="#E4E5E9"/>
<path d="M36.5448 3.19649L37.3041 2.75592L36.5354 3.20587C36.5318 3.19045 36.5318 3.17441 36.5354 3.159L36.5448 3.19649Z" fill="#DFE0E4"/>
<path d="M36.5542 3.24337L37.3229 2.79343L36.5542 3.24337Z" fill="#DADBDF"/>
<path d="M36.5635 3.29019L37.3321 2.84024C37.3321 2.84024 37.3321 2.84024 37.3321 2.88711L36.5635 3.32768V3.29019Z" fill="#D5D6DA"/>
<path d="M36.5728 3.32772L37.3414 2.88715L36.5728 3.32772C36.5764 3.3123 36.5764 3.29627 36.5728 3.28085V3.32772Z" fill="#D0D1D5"/>
<path d="M36.5825 3.37459L37.3512 2.93402L36.5825 3.37459Z" fill="#CBCCCF"/>
<path d="M36.5918 3.42144L37.3605 2.98087L36.6012 3.43081L36.5918 3.42144Z" fill="#C6C7CA"/>
<path d="M36.6012 3.46829L37.3605 3.01834C37.3605 3.01834 37.3605 3.01834 37.3605 3.06521L36.5918 3.50578L36.6012 3.46829Z" fill="#C1C2C5"/>
<path d="M36.6011 3.50582L37.3697 3.06525L36.6104 3.51519C36.606 3.49988 36.606 3.48363 36.6104 3.46832L36.6011 3.50582Z" fill="#BCBDC0"/>
<path d="M36.6104 3.5527L37.3696 3.10275L36.6104 3.61832V3.5527Z" fill="#B8B8BB"/>
<path d="M36.6104 3.61831L37.3696 3.17773L36.6104 3.61831Z" fill="#B3B3B6"/>
<path d="M36.6104 3.61831L37.3696 3.17773L36.6104 3.62768V3.61831Z" fill="#AEAEB1"/>
<path d="M36.6104 3.67456L37.3697 3.22461L36.6011 3.66518L36.6104 3.67456Z" fill="#A9A9AC"/>
<path d="M36.6011 3.71206L37.3697 3.27148L36.6011 3.71206Z" fill="#A4A4A7"/>
<path d="M36.6011 3.74956L37.3697 3.30899L36.6104 3.74956H36.6011Z" fill="#9F9FA2"/>
<path d="M36.601 3.78704L37.3603 3.34647L36.601 3.79641C36.5965 3.7811 36.5965 3.76485 36.601 3.74954V3.78704Z" fill="#9A9A9D"/>
<path d="M36.5919 3.83386L37.3512 3.38391L36.5825 3.82448L36.5919 3.83386Z" fill="#959598"/>
<path d="M36.5728 3.87142L37.3414 3.43085V3.47772L36.5821 3.91829C36.5866 3.90298 36.5866 3.88673 36.5821 3.87142H36.5728Z" fill="#909093"/>
<path d="M36.5636 3.91823L37.3229 3.47766L36.5636 3.92761C36.5595 3.90908 36.5595 3.88989 36.5636 3.87136V3.91823Z" fill="#8B8B8E"/>
<path d="M36.5445 3.97451L37.3038 3.52457C37.3086 3.54617 37.3086 3.56858 37.3038 3.59018L36.5445 4.03076C36.5418 4.01211 36.5418 3.99316 36.5445 3.97451Z" fill="#868689"/>
<path d="M36.5073 4.03074L37.2666 3.61829L36.5073 4.05886V4.03074Z" fill="#818184"/>
<path d="M35.7576 0.703058C36.5807 1.24846 37.2641 1.97972 37.7526 2.83784C38.2411 3.69596 38.521 4.65689 38.5697 5.6431C38.5697 7.45226 37.2761 8.18343 35.7013 7.27416C34.8779 6.73133 34.1941 6.00193 33.7054 5.14521C33.2168 4.28849 32.9372 3.32859 32.8892 2.34349C32.8985 0.524954 34.1828 -0.20621 35.7576 0.703058ZM34.1078 4.36825L37.3043 6.24303C37.2066 5.46672 36.9131 4.72801 36.4512 4.09641C36.5608 3.96179 36.6175 3.79179 36.6106 3.61834C36.5949 3.32069 36.5085 3.03106 36.3585 2.77349C36.2086 2.51591 35.9993 2.29781 35.7482 2.13726C35.2701 1.85605 34.8858 2.08102 34.8858 2.62471C34.8912 2.82114 34.9325 3.01493 35.0077 3.19651C34.5671 3.26213 34.239 3.68396 34.1453 4.35888L34.1078 4.36825Z" fill="#820B82"/>
<path d="M50.7841 25.7595L51.5528 25.3189C51.4177 25.399 51.3049 25.5118 51.2247 25.647L50.4561 26.0875C50.5408 25.956 50.6526 25.8442 50.7841 25.7595Z" fill="#852858"/>
<path d="M50.4559 26.1157L51.2246 25.6751C51.191 25.7218 51.1627 25.7721 51.1402 25.8251L50.3716 26.2657L50.4559 26.1157Z" fill="#8A295C"/>
<path d="M50.3712 26.2375L51.1398 25.797L51.0836 25.9282L50.3149 26.3688L50.3712 26.2375Z" fill="#8F2B5F"/>
<path d="M50.3149 26.3688L51.0836 25.9282C51.0836 25.9282 51.0836 26.0032 51.0836 26.0501L50.3243 26.4906V26.3688H50.3149Z" fill="#942C63"/>
<path d="M50.2778 26.4906L51.0371 26.05V26.1719L50.2778 26.6125V26.4906Z" fill="#992E66"/>
<path d="M50.2496 26.6125L51.0089 26.1719C51.0044 26.2093 51.0044 26.2471 51.0089 26.2844L50.2402 26.7344V26.6125H50.2496Z" fill="#9E2F69"/>
<path d="M50.2217 26.7343L50.9903 26.2844C50.9903 26.2844 50.9903 26.3406 50.9903 26.3781L50.2311 26.8187C50.2311 26.8187 50.2311 26.7625 50.2311 26.7343H50.2217Z" fill="#A3316D"/>
<path d="M50.7837 25.7596L51.5524 25.319L51.693 25.2534L50.9243 25.694L50.7837 25.7596Z" fill="#818184"/>
<path d="M50.9238 25.6938L51.6925 25.2533H51.7956L51.0363 25.6938H50.9238Z" fill="#868689"/>
<path d="M51.0366 25.6657L51.7959 25.2251L51.0366 25.6751V25.6657Z" fill="#8B8B8E"/>
<path d="M50.981 25.0846L51.7496 24.644L50.981 25.1783V25.0846Z" fill="#B8377A"/>
<path d="M50.2124 26.8187L50.9717 26.3781L54.1682 28.2248L53.4089 28.6653L50.2124 26.8187Z" fill="#DC4193"/>
<path d="M51.2047 24.5409L51.964 24.0909C51.905 24.1311 51.8542 24.182 51.814 24.2409L51.0547 24.6815C51.0898 24.6209 51.1419 24.572 51.2047 24.5409Z" fill="#852858"/>
<path d="M51.0558 24.6815L51.815 24.2409V24.2971L51.0464 24.7377C51.0491 24.7191 51.0491 24.7001 51.0464 24.6815H51.0558Z" fill="#8A295C"/>
<path d="M50.981 24.7377L51.7496 24.2971C51.7496 24.2971 51.7496 24.2972 51.7496 24.344L50.981 24.794C50.985 24.7754 50.985 24.7563 50.981 24.7377Z" fill="#8F2B5F"/>
<path d="M50.981 24.794L51.7496 24.344V24.3909L50.9903 24.8315L50.981 24.794Z" fill="#942C63"/>
<path d="M50.9807 24.8315L51.74 24.3909C51.74 24.3909 51.74 24.3909 51.74 24.4378L50.9807 24.8783C50.9771 24.8629 50.9771 24.8469 50.9807 24.8315Z" fill="#992E66"/>
<path d="M50.9811 24.8783L51.7403 24.4378L50.9717 24.8877V24.8409L50.9811 24.8783Z" fill="#9E2F69"/>
<path d="M50.981 24.9252L51.7496 24.4753C51.754 24.4906 51.754 24.5068 51.7496 24.5221L50.9903 24.9627L50.981 24.9252Z" fill="#A3316D"/>
<path d="M50.9811 24.9627L51.7403 24.5221L50.9717 24.9627H50.9811Z" fill="#A83270"/>
<path d="M50.981 25.0002L51.7496 24.5596L50.981 25.0096V24.9627V25.0002Z" fill="#AD3474"/>
<path d="M50.981 25.0471L51.7496 24.5971V24.644L50.981 25.0846V25.0471Z" fill="#B33577"/>
<path d="M50.981 25.0846L51.7496 24.644L50.981 25.1783V25.0846Z" fill="#B8377A"/>
<path d="M50.981 25.1782L51.7496 24.7283L50.981 25.1782Z" fill="#BD387E"/>
<path d="M50.981 25.1782L51.7496 24.7283L50.981 25.1782Z" fill="#C23A81"/>
<path d="M50.9811 25.1783L51.7403 24.7377L50.9717 25.1783H50.9811Z" fill="#C73B85"/>
<path d="M50.981 25.2439L51.7496 24.8033L50.9903 25.2533C50.9859 25.238 50.9859 25.2217 50.9903 25.2064L50.981 25.2439Z" fill="#CC3D88"/>
<path d="M50.981 25.2908L51.7402 24.8408V24.8877L50.981 25.3283V25.2908Z" fill="#D13E8B"/>
<path d="M50.9811 25.3283L51.7403 24.8877L50.9717 25.3283V25.2814L50.9811 25.3283Z" fill="#D6408F"/>
<path d="M50.981 25.3751L51.7496 24.9346L50.9903 25.3845V25.3376L50.981 25.3751Z" fill="#DB4192"/>
<path d="M50.981 25.422L51.7402 24.9721L50.981 25.422Z" fill="#E04396"/>
<path d="M50.9811 25.4689L51.7403 25.019V25.0752L50.9717 25.5158C50.9717 25.5158 50.9717 25.5158 50.9717 25.4689H50.9811Z" fill="#E64499"/>
<path d="M50.981 25.5157L51.7496 25.0752V25.122L50.981 25.5626V25.5157Z" fill="#EB469C"/>
<path d="M51.0371 25.5626L51.8058 25.1221L51.0465 25.5626C51.0465 25.5626 51.0465 25.5626 51.0465 25.5158L51.0371 25.5626Z" fill="#F047A0"/>
<path d="M51.0557 25.6095L51.8149 25.1689C51.8149 25.1689 51.8149 25.1689 51.8149 25.2158L51.0557 25.6657C51.0557 25.6657 51.0557 25.6657 51.0557 25.6095Z" fill="#F549A3"/>
<path d="M52.5558 26.5187L53.315 26.0688V26.1157L52.5464 26.5656V26.5187H52.5558Z" fill="#F9FAFD"/>
<path d="M52.5845 26.5659L53.3531 26.1159L53.4375 26.2378L52.6782 26.6877C52.6523 26.6432 52.6208 26.6023 52.5845 26.5659Z" fill="#FAFAFD"/>
<path d="M52.6777 26.6875L53.437 26.2375C53.4924 26.3121 53.5425 26.3904 53.587 26.4719L52.8183 26.9124L52.6777 26.6875Z" fill="#FAFBFE"/>
<path d="M52.856 26.9124L53.6246 26.4718L53.709 26.6218L52.9403 27.0624L52.856 26.9124Z" fill="#FAFAFD"/>
<path d="M52.9028 27.053L53.6715 26.6125C53.6832 26.6485 53.6989 26.6831 53.7184 26.7156L52.9591 27.1655L52.9028 27.053Z" fill="#F9FAFD"/>
<path d="M52.959 27.1749L53.7183 26.7249C53.7218 26.7592 53.7218 26.7938 53.7183 26.8281L52.959 27.2686C52.9607 27.2374 52.9607 27.2061 52.959 27.1749Z" fill="#F9FAFD"/>
<path d="M53.0059 27.2686L53.7651 26.8281C53.7826 26.8583 53.7983 26.8896 53.812 26.9218L53.0527 27.3624C53.0527 27.3624 53.0527 27.2968 53.0059 27.2686Z" fill="#F9FAFD"/>
<path d="M53.0526 27.3624L53.8119 26.9218C53.8135 26.953 53.8135 26.9843 53.8119 27.0156L53.0526 27.4561C53.0489 27.425 53.0489 27.3935 53.0526 27.3624Z" fill="#F8F9FD"/>
<path d="M53.0899 27.4561L53.8492 27.0156V27.1093L53.0806 27.5499V27.4561H53.0899Z" fill="#F3F4F8"/>
<path d="M53.1279 27.5499L53.8966 27.1093C53.8913 27.1435 53.8913 27.1782 53.8966 27.2124L53.1279 27.6623C53.1279 27.6623 53.1279 27.5874 53.1279 27.5499Z" fill="#EEEFF3"/>
<path d="M53.1655 27.6623L53.9342 27.2124V27.3249L53.1655 27.7655C53.1708 27.7313 53.1708 27.6965 53.1655 27.6623Z" fill="#E9EAEE"/>
<path d="M53.2026 27.7654L53.9713 27.3249C53.9673 27.3622 53.9673 27.4 53.9713 27.4373L53.2026 27.8779C53.2067 27.8405 53.2067 27.8028 53.2026 27.7654Z" fill="#E4E5E9"/>
<path d="M53.2402 27.878L54.0089 27.4374V27.5592L53.2496 27.9998C53.2496 27.9998 53.2496 27.9248 53.2496 27.878H53.2402Z" fill="#DFE0E4"/>
<path d="M53.2774 27.9904L54.0367 27.5499C54.0367 27.5499 54.0367 27.6249 54.0367 27.6717L53.2681 28.1123V27.9904H53.2774Z" fill="#DADBDF"/>
<path d="M53.3057 28.1217L54.0743 27.6811V27.803L53.3057 28.2435V28.1217Z" fill="#D5D6DA"/>
<path d="M53.3345 28.2436L54.1031 27.803V27.9248L53.3345 28.3654V28.2436Z" fill="#D0D1D5"/>
<path d="M53.3623 28.3654L54.131 27.9248V28.0467L53.3623 28.4872V28.3654Z" fill="#CBCCCF"/>
<path d="M53.3809 28.4872L54.1495 28.0466C54.1495 28.0466 54.1495 28.131 54.1495 28.1685L53.3902 28.6091C53.3941 28.5685 53.3941 28.5277 53.3902 28.4872H53.3809Z" fill="#C6C7CA"/>
<path d="M53.3998 28.6091L54.1591 28.1685L53.3998 28.6185C53.3954 28.6 53.3954 28.5807 53.3998 28.5622V28.6091Z" fill="#C1C2C5"/>
<path d="M51.2056 24.5413L51.9648 24.0913H52.0398L51.2712 24.5319H51.2056V24.5413Z" fill="#818184"/>
<path d="M51.271 24.5036L52.0397 24.063H52.0959L51.3366 24.5036H51.271Z" fill="#868689"/>
<path d="M51.3364 24.4847L52.0957 24.0441H52.1426L51.3833 24.494L51.3364 24.4847Z" fill="#8B8B8E"/>
<path d="M51.3833 24.4846L52.1426 24.0347L51.3833 24.4752V24.4846Z" fill="#909093"/>
<path d="M51.4307 24.4752L52.19 24.0347L51.4307 24.4846V24.4752Z" fill="#959598"/>
<path d="M51.4683 24.4846L52.2275 24.0347L51.4683 24.4752V24.4846Z" fill="#9A9A9D"/>
<path d="M51.5054 24.4847L52.2647 24.0441H52.3115L51.5429 24.494L51.5054 24.4847Z" fill="#9F9FA2"/>
<path d="M51.543 24.494L52.3116 24.0441L51.5523 24.4847L51.543 24.494Z" fill="#A4A4A7"/>
<path d="M51.5806 24.494L52.3399 24.0534L51.5806 24.494Z" fill="#A9A9AC"/>
<path d="M51.6178 24.5034L52.3771 24.0628L51.6084 24.5128L51.6178 24.5034Z" fill="#AEAEB1"/>
<path d="M51.6455 24.5222L52.4142 24.0722L51.6549 24.5128L51.6455 24.5222Z" fill="#B3B3B6"/>
<path d="M51.6836 24.5315L52.4429 24.0909L51.6836 24.5409V24.5315Z" fill="#B8B8BB"/>
<path d="M51.7212 24.5503L52.4805 24.1003L51.7212 24.5409V24.5503Z" fill="#BCBDC0"/>
<path d="M51.7584 24.5596L52.5177 24.119L51.749 24.5596H51.7584Z" fill="#C1C2C5"/>
<path d="M51.7866 24.5784L52.5553 24.1378L51.7866 24.5784Z" fill="#C6C7CA"/>
<path d="M51.8149 24.5971L52.5836 24.1565H52.593L51.8243 24.6065L51.8149 24.5971Z" fill="#C6C7CA"/>
<path d="M51.8243 24.6065L52.5836 24.1565L51.8149 24.5971L51.8243 24.6065Z" fill="#CBCCCF"/>
<path d="M51.8623 24.6254L52.631 24.1848L51.8717 24.6348L51.8623 24.6254Z" fill="#D0D1D5"/>
<path d="M51.9185 24.6533L52.6777 24.2034H52.7246L51.956 24.6439L51.9185 24.6533Z" fill="#D5D6DA"/>
<path d="M51.9185 24.6721L52.6871 24.2315L51.9185 24.6815V24.6721Z" fill="#DADBDF"/>
<path d="M51.9741 24.7096L52.7428 24.2597L51.9741 24.7002V24.7096Z" fill="#DFE0E4"/>
<path d="M52.0117 24.7377L52.7804 24.2971L52.0117 24.7471V24.7377Z" fill="#E4E5E9"/>
<path d="M52.0493 24.7752L52.818 24.3252L52.0493 24.7658V24.7752Z" fill="#E9EAEE"/>
<path d="M52.0864 24.8033L52.8551 24.3627L52.0864 24.8033Z" fill="#EEEFF3"/>
<path d="M52.124 24.8408L52.8927 24.4003L52.1334 24.8408H52.124Z" fill="#F3F4F8"/>
<path d="M52.1622 24.8783L52.9215 24.4377L52.1528 24.8783H52.1622Z" fill="#F8F9FD"/>
<path d="M52.1899 24.9158L52.9586 24.4753L52.1993 24.9158H52.1899Z" fill="#F9FAFD"/>
<path d="M52.2275 24.9533L52.9868 24.5127L52.2275 24.9533Z" fill="#F9FAFD"/>
<path d="M52.2651 24.9908L53.0244 24.5503V24.5971L52.2651 25.0471V24.9908Z" fill="#F9FAFD"/>
<path d="M52.3022 25.0471L53.0615 24.5971L53.1178 24.6815L52.3491 25.1221C52.3391 25.094 52.3231 25.0684 52.3022 25.0471Z" fill="#FAFAFD"/>
<path d="M52.3491 25.1221L53.1178 24.6815L53.1834 24.7846L52.4147 25.2252L52.3491 25.1221Z" fill="#FAFBFE"/>
<path d="M52.415 25.2251L53.1837 24.7846C53.1854 24.8095 53.1854 24.8346 53.1837 24.8596L52.4244 25.3001C52.4262 25.2752 52.4262 25.2501 52.4244 25.2251H52.415Z" fill="#FAFAFD"/>
<path d="M52.4619 25.3001L53.2212 24.8596V24.9064L52.4619 25.347V25.3001Z" fill="#F9FAFD"/>
<path d="M52.4901 25.347L53.2494 24.9064C53.2494 24.9064 53.2494 24.9064 53.2494 24.9533L52.4901 25.3939C52.4851 25.3787 52.4851 25.3622 52.4901 25.347Z" fill="#F9FAFD"/>
<path d="M52.5083 25.3939L53.2676 24.9533L52.5083 25.4033V25.3564V25.3939Z" fill="#F9FAFD"/>
<path d="M52.5273 25.4407L53.2866 24.9908C53.2866 24.9908 53.2866 24.9908 53.2866 25.0377L52.5273 25.4782V25.4407Z" fill="#F8F9FD"/>
<path d="M52.5459 25.4783L53.3052 25.0377L52.5459 25.4783Z" fill="#F3F4F8"/>
<path d="M52.565 25.5157L53.3243 25.0752V25.122L52.5557 25.5626V25.5157H52.565Z" fill="#EEEFF3"/>
<path d="M52.5742 25.5626L53.3429 25.122L52.5836 25.5626H52.5742Z" fill="#E9EAEE"/>
<path d="M52.5931 25.6001L53.3523 25.1595V25.2064L52.5837 25.647C52.5828 25.6314 52.5828 25.6157 52.5837 25.6001H52.5931Z" fill="#E4E5E9"/>
<path d="M52.6025 25.647L53.3712 25.2064L52.6119 25.647V25.6001L52.6025 25.647Z" fill="#DFE0E4"/>
<path d="M52.6212 25.6939L53.3805 25.2533V25.3002L52.6118 25.7407C52.6118 25.7407 52.6118 25.7407 52.6118 25.6939H52.6212Z" fill="#DADBDF"/>
<path d="M52.6304 25.7407L53.399 25.3001C53.3954 25.3156 53.3954 25.3316 53.399 25.347L52.6304 25.7876V25.7407Z" fill="#D5D6DA"/>
<path d="M52.6396 25.7876L53.4083 25.347L52.6396 25.797C52.6441 25.7817 52.6441 25.7654 52.6396 25.7501V25.7876Z" fill="#D0D1D5"/>
<path d="M52.6489 25.8345L53.4176 25.3845V25.4314L52.6583 25.872L52.6489 25.8345Z" fill="#CBCCCF"/>
<path d="M52.6586 25.872L53.4179 25.4314V25.4783L52.6586 25.9189C52.6542 25.9036 52.6542 25.8873 52.6586 25.872Z" fill="#C6C7CA"/>
<path d="M52.6676 25.9188L53.4269 25.4782L52.6582 25.9282V25.8813L52.6676 25.9188Z" fill="#C1C2C5"/>
<path d="M52.668 25.9657L53.4366 25.5157V25.5626L52.6773 26.0032L52.668 25.9657Z" fill="#BCBDC0"/>
<path d="M52.6772 26.0032L53.4365 25.5626L52.6772 26.0126V25.9657V26.0032Z" fill="#B8B8BB"/>
<path d="M52.6772 26.05L53.4365 25.6001L52.6772 26.0407V26.05Z" fill="#B3B3B6"/>
<path d="M52.6772 26.1157L53.4365 25.6751L52.6772 26.1157Z" fill="#AEAEB1"/>
<path d="M52.6772 26.1157L53.4365 25.6751L52.6772 26.1157Z" fill="#A9A9AC"/>
<path d="M52.6776 26.1625L53.4369 25.722L52.6776 26.1719C52.6732 26.1566 52.6732 26.1403 52.6776 26.125V26.1625Z" fill="#A4A4A7"/>
<path d="M52.6676 26.2094L53.4269 25.7594L52.6582 26.2094H52.6676Z" fill="#9F9FA2"/>
<path d="M52.6582 26.2469L53.4269 25.797C53.4269 25.797 53.4269 25.797 53.4269 25.8438L52.6676 26.2844L52.6582 26.2469Z" fill="#9A9A9D"/>
<path d="M52.6583 26.2844L53.4176 25.8438L52.6489 26.2938V26.2469L52.6583 26.2844Z" fill="#959598"/>
<path d="M52.6396 26.3313L53.4083 25.8813V25.9282L52.649 26.3782V26.3313H52.6396Z" fill="#909093"/>
<path d="M52.6305 26.3781L53.3898 25.9282C53.3898 25.9282 53.3898 25.9282 53.3898 25.9844L52.6211 26.425L52.6305 26.3781Z" fill="#8B8B8E"/>
<path d="M52.6025 26.425L53.3712 25.9845V26.0407L52.6119 26.4907V26.425H52.6025Z" fill="#868689"/>
<path d="M52.5742 26.4907L53.3335 26.0407L52.5742 26.4907Z" fill="#818184"/>
<path d="M51.824 23.1629C52.6464 23.7068 53.3294 24.4364 53.8179 25.2929C54.3064 26.1494 54.5867 27.1088 54.6361 28.0935C54.6361 29.9027 53.3425 30.6432 51.7677 29.7246C50.9422 29.184 50.2568 28.4551 49.7679 27.5979C49.279 26.7407 49.0006 25.7797 48.9556 24.7939C48.9556 22.9848 50.2398 22.2536 51.824 23.1629ZM50.2117 26.8187L53.4082 28.6935C53.3138 27.9163 53.0199 27.1768 52.5551 26.5468C52.6382 26.4186 52.6807 26.2684 52.677 26.1156C52.6628 25.8164 52.5771 25.5249 52.427 25.2655C52.277 25.0062 52.067 24.7866 51.8146 24.6252C51.3365 24.3533 50.9522 24.5689 50.9522 25.122C50.9585 25.3183 50.9997 25.512 51.0741 25.6938C50.6335 25.7594 50.3054 26.1719 50.2117 26.8468V26.8187Z" fill="#980898"/>
<g opacity="0.1">
<path opacity="0.1" d="M37.4073 65.2798C45.9188 70.1917 45.9563 78.1595 37.501 83.0902C29.0457 88.0209 15.2849 88.0115 6.77338 83.0902C-1.73812 78.1689 -1.78499 70.2011 6.67964 65.2798C15.1443 60.3585 28.8864 60.3679 37.4073 65.2798Z" fill="black"/>
</g>
<g opacity="0.1">
<path opacity="0.1" d="M37.4073 65.2798C45.9188 70.1917 45.9563 78.1595 37.501 83.0902C29.0457 88.0209 15.2849 88.0115 6.77338 83.0902C-1.73812 78.1689 -1.78499 70.2011 6.67964 65.2798C15.1443 60.3585 28.8864 60.3679 37.4073 65.2798Z" fill="black"/>
</g>
<path d="M37.3696 64.3049C45.2437 68.8512 45.2812 76.2285 37.4634 80.7748C29.6455 85.3212 16.9064 85.3212 9.03234 80.7748C1.15827 76.2285 1.1114 68.8512 8.92923 64.3049C16.7471 59.7586 29.4862 59.7586 37.3696 64.3049Z" fill="#40075C"/>
<path d="M37.3696 59.1493C45.2437 63.6956 45.2812 71.0729 37.4634 75.6192C29.6455 80.1656 16.9064 80.1656 9.03234 75.6192C1.15827 71.0729 1.1114 63.6956 8.92923 59.1493C16.7471 54.6029 29.4862 54.6029 37.3696 59.1493Z" fill="#3B0F65"/>
<g opacity="0.8">
<path opacity="0.8" d="M34.1078 61.0147C40.1633 64.3612 40.1914 69.7793 34.1828 73.1258C28.1741 76.4722 18.3971 76.4722 12.351 73.1258C6.3048 69.7793 6.25793 64.3612 12.2666 61.0147C18.2753 57.6682 28.0522 57.6682 34.1078 61.0147Z" fill="#820B82"/>
</g>
<path d="M20.7597 21.8318H18.8662V48.7161H20.7597V21.8318Z" fill="url(#paint0_linear)"/>
<path d="M19.5687 62.6738C19.5687 62.6738 20.8623 62.8707 20.5061 63.6112C20.1499 64.3518 18.7157 65.486 18.5189 65.9641C18.322 66.4421 17.1034 68.1107 16.7191 67.9513C16.3347 67.792 15.3036 68.0357 15.4255 66.0766C15.5473 64.1174 17.8533 62.5801 19.5687 62.6738Z" fill="#111114"/>
<path d="M22.0341 69.6949C22.0341 69.6949 21.4061 71.5697 22.9715 71.9634C24.537 72.3571 24.0683 71.4197 27.471 72.2727C30.8737 73.1258 31.2206 71.3822 31.2206 70.9792C31.2206 70.5761 28.8771 69.8918 28.1272 69.6949L25.9805 69.1512H21.9217L22.0341 69.6949Z" fill="#111114"/>
<path d="M15.6036 37.4206C15.6036 37.4206 15.6036 48.5193 15.6036 49.7754C15.6036 51.0315 14.2068 60.8741 15.0411 65.1767C15.0411 65.1767 17.469 67.6045 19.6062 65.1767C19.6062 65.1767 20.2905 52.8406 20.9092 50.0566C21.5279 47.2726 21.3216 38.8079 21.3216 38.8079L15.6036 37.4206Z" fill="#EA49BD"/>
<path d="M19.8501 38.9954C19.8501 38.9954 20.4032 46.1664 20.9843 53.2999C20.9843 53.2999 21.3405 67.417 21.678 69.4418C21.678 69.4418 26.2243 70.576 26.6837 68.4294C26.6837 68.4294 26.5618 56.009 26.6837 53.4312C26.8055 50.8534 27.0586 43.5886 26.0369 39.3703C25.0151 35.1521 19.8501 38.9954 19.8501 38.9954Z" fill="#EA49BD"/>
<path d="M21.6686 69.4137C21.3311 67.3608 20.9843 53.3 20.9843 53.3C20.5999 48.5193 20.225 43.7105 20.0469 41.1139L22.859 41.7982C24.241 46.0895 24.8224 50.5982 24.5745 55.0997C24.3401 61.2678 24.237 67.3421 24.2089 69.7793C23.3512 69.7522 22.4991 69.6295 21.6686 69.4137Z" fill="#FF61CB"/>
<path d="M15.0226 65.1767C14.1883 60.874 15.585 51.0221 15.585 49.7754C15.585 48.5286 15.585 38.4517 15.585 37.4955L18.0316 39.3703C18.0316 39.3703 18.8002 47.31 18.0316 51.8282C17.3192 55.9434 17.7785 63.9487 17.4317 66.2453C16.5289 66.1795 15.6772 65.8017 15.0226 65.1767Z" fill="#FF61CB"/>
<path d="M14.3475 19.1884C15.7255 19.1415 16.6722 23.6128 18.0221 27.1655L24.5838 24.2784C24.9959 23.8097 25.3602 23.3009 25.6712 22.7598C25.9618 22.1505 26.2617 22.1036 26.393 22.1224C26.5242 22.1411 26.393 22.5348 26.3273 22.8067C26.2617 23.0785 25.8587 23.6128 26.2149 23.5472C26.5711 23.4816 28.1928 22.5348 28.6146 22.8535C28.8021 22.9942 29.1395 22.8535 28.1178 24.044C27.3729 24.7671 26.4716 25.3092 25.4837 25.6282C23.2439 27.6414 20.6882 29.2724 17.919 30.4558C17.5735 30.5322 17.2137 30.5128 16.8785 30.3995C14.6756 28.656 13.5226 25.0845 13.1289 21.7568C12.7539 19.3758 14.3475 19.1884 14.3475 19.1884Z" fill="#EFB185"/>
<path d="M14.8723 18.954C14.1693 18.7384 12.8007 18.8978 12.8007 21.0819C12.6789 22.6877 12.9592 24.2985 13.6162 25.7688C13.9818 26.65 16.6159 26.2469 17.3002 24.8314C17.7032 24.0159 16.2972 19.3852 14.8723 18.954Z" fill="#980898"/>
<path d="M14.4225 18.6165C14.4225 18.6165 12.3414 19.7133 13.6069 23.3035C14.8724 26.8937 15.7629 29.1715 15.716 30.5026C15.6105 32.7701 15.3757 35.0298 15.013 37.2706C15.013 37.2706 14.7037 40.1765 21.4904 41.7794C21.4904 41.7794 27.0585 42.2294 26.0648 38.5923C25.2064 35.0084 24.7598 31.3382 24.7337 27.653C24.8462 26.2375 25.6711 23.416 22.0809 21.588C18.4907 19.7601 16.6628 18.3915 14.4225 18.6165Z" fill="#980898"/>
<path d="M24.7335 27.653C24.7627 31.3385 25.2124 35.0087 26.074 38.5923C26.7583 41.1233 24.2929 41.6763 22.7181 41.7794C22.1838 40.1578 22.9806 37.2237 21.7339 33.6898C20.2059 29.3122 20.3465 26.3969 21.0777 24.044C21.1919 23.5702 21.4478 23.1424 21.8111 22.8175C22.1745 22.4927 22.6282 22.2862 23.1118 22.2255C25.4553 24.0253 24.8272 26.3969 24.7335 27.653Z" fill="#820B82"/>
<path d="M15.0037 37.1956C15.3664 34.9548 15.6011 32.6951 15.7067 30.4276C15.7536 29.0965 14.835 26.7999 13.5976 23.2285C12.4259 19.8539 13.7007 18.9352 14.4131 18.5415C14.8256 20.2945 20.9749 20.9131 20.8061 22.0942C20.6374 23.2754 19.1095 24.6908 19.0157 27.053C19.0006 29.5732 19.2583 32.0875 19.7844 34.5521C20.131 36.7791 20.131 39.0463 19.7844 41.2732C14.7506 39.6328 15.0037 37.1956 15.0037 37.1956Z" fill="#B80EB8"/>
<path d="M16.8782 16.7418C17.0219 17.7741 16.8993 18.8261 16.522 19.7977C15.9595 20.8663 20.3934 21.7568 20.4777 20.7351C20.2317 20.1553 20.1183 19.5278 20.1459 18.8985C20.1734 18.2692 20.3413 17.6541 20.6371 17.098C21.1714 16.1325 16.8782 16.7418 16.8782 16.7418Z" fill="#EFB185"/>
<path d="M16.541 19.8727C16.8987 19.0108 17.0341 18.0728 16.9347 17.1449L20.1874 18.6728C20.0655 18.6728 17.9096 19.3009 17.469 20.8757C16.7941 20.6226 16.2972 20.257 16.541 19.8727Z" fill="#DD9569"/>
<path d="M21.4247 11.6799C21.8442 12.6895 22.0546 13.7737 22.0434 14.867C21.9215 16.4418 22.1652 16.7418 22.0434 17.4635C22.0454 17.8376 21.9271 18.2024 21.7059 18.504C21.2278 18.9821 20.2248 19.1696 18.8937 18.7009C17.2439 18.1385 15.4629 15.8887 16.1284 13.864C16.794 11.8392 18.9219 10.0769 21.4247 11.6799Z" fill="#EFB185"/>
<path d="M16.2974 16.0294C16.9128 14.5781 17.6465 13.1798 18.4909 11.8486C18.8305 11.5322 19.2122 11.2641 19.6251 11.0518C20.2958 11.085 20.9445 11.3023 21.4999 11.6799C21.6467 12.0335 21.7689 12.3968 21.8655 12.7673C21.4811 13.2172 20.6937 13.7047 20.5812 14.0984C20.3633 15.0343 20.4319 16.0141 20.7781 16.9105C21.0499 17.4917 20.0094 18.3729 20.2438 18.8884C20.2483 18.9101 20.2483 18.9324 20.2438 18.954C19.8051 18.9301 19.3724 18.8417 18.9595 18.6916C18.3576 18.453 17.8109 18.0938 17.353 17.6359C16.8952 17.1781 16.5359 16.6313 16.2974 16.0294Z" fill="#E6A376"/>
<path d="M21.5279 11.3237C21.6036 11.6792 21.5688 12.0493 21.428 12.3845C21.2873 12.7196 21.0474 13.0036 20.7405 13.1984C19.925 13.6952 19.9906 15.0263 20.0375 15.2794C20.1781 15.7961 20.2537 16.3283 20.2624 16.8636C20.0656 17.1542 19.3719 16.2637 19.0532 16.3293C18.2377 16.5074 18.5751 17.2667 19.3344 18.0447C20.0937 18.8228 18.0689 19.2727 17.094 18.5884C16.5691 18.2322 16.3816 18.0072 15.688 16.7136C14.6662 14.8389 14.5725 12.4579 16.8503 11.1643C17.557 10.7213 18.38 10.4997 19.2135 10.5281C20.0471 10.5565 20.8531 10.8335 21.5279 11.3237Z" fill="#221101"/>
<path d="M17.094 18.5509C16.3661 18.1493 15.7972 17.511 15.4817 16.7418C14.4694 14.8107 14.2256 11.558 16.8316 10.6769C17.6023 10.3715 18.4389 10.2706 19.2601 10.384C20.0813 10.4973 20.8593 10.821 21.5185 11.3237C21.549 11.4973 21.549 11.6749 21.5185 11.8486C20.7967 11.9798 19.1751 12.1204 18.7064 12.9922C18.0971 14.0608 17.3846 13.7327 17.469 15.0451C17.5534 16.3574 17.2347 17.9697 19.3719 18.6165C19.0243 18.8205 18.6264 18.9226 18.2236 18.9109C17.8207 18.8993 17.4293 18.7746 17.094 18.5509Z" fill="#341C09"/>
<path d="M20.2155 20.1914L21.6778 21.4287C21.6778 21.4287 17.2346 22.7505 15.8754 20.5851C15.7793 20.273 15.8075 19.9358 15.9543 19.644C16.101 19.3523 16.3549 19.1286 16.6628 19.0197C16.6628 19.0197 16.8503 20.8007 20.2155 20.1914Z" fill="#980898"/>
<path d="M22.8591 22.4599C24.2371 22.413 25.1838 26.8843 26.5337 30.4371L33.0954 27.5499C33.4815 27.0778 33.8205 26.5692 34.1078 26.0313C34.3984 25.422 34.6983 25.3658 34.8296 25.3939C34.9608 25.422 34.8296 25.8063 34.7733 26.0876C34.7171 26.3688 34.2953 26.8843 34.6515 26.8187C35.0077 26.7531 36.6294 25.8063 37.0512 26.1251C37.248 26.2657 37.5761 26.1251 36.5544 27.3155C35.8231 28.0439 34.935 28.5954 33.9578 28.9279C31.7186 30.9442 29.1629 32.5784 26.3931 33.7648C26.0476 33.8408 25.6879 33.8213 25.3526 33.7085C23.1591 31.965 21.9967 28.3935 21.5561 25.0658C21.2374 22.6473 22.8591 22.4599 22.8591 22.4599Z" fill="#EFB185"/>
<path d="M23.3651 22.2255C22.6527 22.01 21.2841 22.1787 21.2841 24.3534C21.1623 25.9592 21.4426 27.5701 22.0996 29.0404C22.4652 29.9215 25.0993 29.5184 25.7836 28.103C26.1866 27.2781 24.7806 22.6567 23.3651 22.2255Z" fill="#980898"/>
<defs>
<linearGradient id="paint0_linear" x1="20.1504" y1="21.813" x2="19.4661" y2="48.7255" gradientUnits="userSpaceOnUse">
<stop stop-color="#01DFF9"/>
<stop offset="0.99" stop-color="#00E7FF"/>
</linearGradient>
</defs>
</svg>
