<svg width="52" height="52" viewBox="0 0 52 52" fill="none" xmlns="http://www.w3.org/2000/svg">
<g filter="url(#filter0_d)">
<path d="M47.2467 7.87C46.8462 4.11761 43.8827 1.15344 40.13 0.753296C30.7192 -0.251099 21.2808 -0.251099 11.8703 0.753296C8.11761 1.15378 5.15378 4.11761 4.7533 7.87C3.7489 17.2805 3.7489 26.7192 4.7533 36.1297C5.15378 39.8824 8.11761 42.8462 11.87 43.2467C21.2805 44.2511 30.7192 44.2511 40.13 43.2467C43.8827 42.8462 46.8462 39.8824 47.2467 36.1297C48.2511 26.7192 48.2511 17.2808 47.2467 7.87Z" fill="url(#paint0_radial)"/>
<path d="M45.0101 9.35741C44.652 6 42.0003 3.348 38.6426 2.98954C30.2225 2.09121 21.7774 2.09121 13.3573 2.98954C9.99988 3.348 7.34787 6 6.98942 9.35741C6.09109 17.7775 6.09109 26.2226 6.98942 34.6423C7.34787 38.0001 9.99988 40.6521 13.3573 41.0102C21.7774 41.9089 30.2225 41.9089 38.6422 41.0102C42 40.6521 44.652 38.0001 45.0101 34.6423C45.9088 26.2226 45.9088 17.7775 45.0101 9.35741Z" fill="url(#paint1_linear)"/>
<path d="M5.15796 34.7368C5.18747 35.0576 5.21796 35.3784 5.24976 35.6992C5.64088 39.657 8.53545 42.783 12.2005 43.2054C21.391 44.2648 30.6091 44.2648 39.7997 43.2054C43.4647 42.783 46.3589 39.657 46.75 35.6992C46.7818 35.3784 46.8123 35.0576 46.8422 34.7368H5.15796Z" fill="url(#paint2_linear)"/>
<path d="M47.2458 36.0728C47.7866 30.9796 48.0361 25.8784 47.9957 20.7778L37.9196 10.6476C36.6607 9.20277 34.822 8.301 32.6615 8.22289C28.2184 8.06194 23.7611 8.07006 19.3173 8.22357C15.6265 8.35138 13.0456 10.8454 12.3837 14.511C12.267 15.1581 12.197 15.8138 12.1052 16.4657V27.2119C12.156 27.5602 12.2307 27.9068 12.2539 28.2571C12.4019 30.4867 13.3133 32.3964 14.7726 33.6883L25.0264 43.9967C30.0584 44.0322 35.0908 43.7807 40.1157 43.2414C43.8755 42.838 46.8445 39.8527 47.2458 36.0728Z" fill="url(#paint3_linear)"/>
<path d="M47.2373 36.0177C46.832 39.8233 43.8291 42.8302 40.0285 43.2361C34.9486 43.7788 29.8596 44.0325 24.7726 43.9967L14.4211 33.6315C15.6211 34.6833 17.1853 35.3238 19.0005 35.3922C23.4924 35.5611 27.9999 35.5567 32.4919 35.3946C36.5547 35.2475 39.4946 32.2366 39.6215 28.1684C39.7568 23.849 39.7568 19.5183 39.6215 15.1988C39.5637 13.322 38.9057 11.6707 37.8148 10.4211L47.996 20.6157C48.0361 25.7513 47.7838 30.8889 47.2373 36.0177Z" fill="url(#paint4_linear)"/>
<path d="M31.4646 17.3678C30.1581 15.9452 28.2834 15.0526 26.1996 15.0526C22.2527 15.0526 19.0527 18.2526 19.0527 22.1995C19.0527 24.2832 19.9453 26.158 21.368 27.4645L37.9034 44C38.7787 43.9237 39.6539 43.839 40.5285 43.7457C44.3341 43.3396 47.3397 40.3339 47.7458 36.5283C47.8391 35.6538 47.9238 34.7785 48.0001 33.9033L31.4646 17.3678Z" fill="url(#paint5_linear)"/>
<path d="M48.0001 26.7347L34.8136 13.4097C34.506 13.0017 34.0213 12.7368 33.4745 12.7368C32.5441 12.7368 31.7896 13.499 31.7896 14.4395C31.7896 14.992 32.0516 15.4818 32.4554 15.7927L47.7643 31.2631C47.8682 29.7541 47.9468 28.2444 48.0001 26.7347Z" fill="url(#paint6_linear)"/>
<path d="M12.1052 16.5626C12.1973 15.9032 12.2675 15.2399 12.3845 14.5853C13.048 10.8772 15.6369 8.35423 19.3385 8.22494C23.7954 8.06965 28.2657 8.06144 32.7219 8.22425C36.7507 8.37133 39.6684 11.3964 39.7943 15.4831C39.9282 19.8226 39.9282 24.1728 39.7943 28.5123C39.6684 32.599 36.7517 35.6237 32.7222 35.7712C28.266 35.9343 23.7947 35.9384 19.3388 35.7688C15.3093 35.6152 12.5238 32.5833 12.2543 28.4904C12.231 28.1364 12.1562 27.7854 12.1052 27.4331C12.1052 23.8095 12.1052 20.1859 12.1052 16.5626ZM26.0037 33.3491C28.0431 33.3491 30.0845 33.411 32.1212 33.3348C35.3145 33.2147 37.2786 31.2822 37.3532 28.0471C37.4456 24.0161 37.4456 19.9796 37.3532 15.9483C37.2786 12.7139 35.3131 10.7362 32.1212 10.6675C28.0697 10.5806 24.0139 10.5813 19.9625 10.6675C16.7948 10.7349 14.8249 12.6725 14.7389 15.8713C14.6296 19.9533 14.6296 24.0424 14.7389 28.1244C14.8249 31.3229 16.7948 33.2157 19.9628 33.3348C21.9739 33.4107 23.99 33.3491 26.0037 33.3491Z" fill="url(#paint7_linear)"/>
<path d="M12.1719 16.6635C12.2635 16.0163 12.3333 15.3654 12.4498 14.7229C13.1101 11.0836 15.6866 8.60754 19.3705 8.48065C23.806 8.32825 28.2549 8.32019 32.6898 8.47998C36.6993 8.62433 39.6031 11.5932 39.7283 15.6041C39.8615 19.863 39.8615 24.1324 39.7283 28.3913C39.6031 32.4022 36.7003 35.3707 32.6901 35.5154C28.2553 35.6755 23.8053 35.6795 19.3708 35.513C15.3606 35.3623 12.5885 32.3867 12.3203 28.3698C12.2971 28.0224 12.2226 27.6779 12.1719 27.3322C12.1719 23.7758 12.1719 20.2195 12.1719 16.6635ZM26.0038 33.1383C28.0334 33.1383 30.065 33.1991 32.0919 33.1242C35.2699 33.0064 37.2247 31.1097 37.2989 27.9348C37.3908 23.9786 37.3908 20.0171 37.2989 16.0606C37.2247 12.8863 35.2686 10.9453 32.0919 10.8778C28.0599 10.7926 24.0235 10.7932 19.9915 10.8778C16.839 10.944 14.8786 12.8457 14.793 15.9851C14.6842 19.9912 14.6842 24.0045 14.793 28.0106C14.8786 31.1497 16.839 33.0074 19.9919 33.1242C21.9933 33.1988 23.9997 33.1383 26.0038 33.1383Z" fill="white"/>
<path d="M26.0002 14.9528C22.1082 14.9528 18.9526 18.108 18.9526 22C18.9526 25.8924 22.1082 29.0476 26.0002 29.0476C29.8925 29.0476 33.0477 25.8924 33.0477 22C33.0477 18.108 29.8925 14.9528 26.0002 14.9528ZM26.0002 26.6212C23.4479 26.6212 21.379 24.5523 21.379 22C21.379 19.4478 23.4479 17.3789 26.0002 17.3789C28.5525 17.3789 30.6213 19.4478 30.6213 22C30.6213 24.5523 28.5525 26.6212 26.0002 26.6212Z" fill="white"/>
<path d="M35.1357 14.6313C35.1357 15.5571 34.3851 16.3077 33.4593 16.3077C32.5334 16.3077 31.7825 15.5571 31.7825 14.6313C31.7825 13.7051 32.5334 12.9545 33.4593 12.9545C34.3851 12.9545 35.1357 13.7051 35.1357 14.6313Z" fill="white"/>
</g>
<defs>
<filter id="filter0_d" x="0" y="0" width="52.0001" height="52" filterUnits="userSpaceOnUse" color-interpolation-filters="sRGB">
<feFlood flood-opacity="0" result="BackgroundImageFix"/>
<feColorMatrix in="SourceAlpha" type="matrix" values="0 0 0 0 0 0 0 0 0 0 0 0 0 0 0 0 0 0 127 0"/>
<feOffset dy="4"/>
<feGaussianBlur stdDeviation="2"/>
<feColorMatrix type="matrix" values="0 0 0 0 0 0 0 0 0 0 0 0 0 0 0 0 0 0 0.15 0"/>
<feBlend mode="normal" in2="BackgroundImageFix" result="effect1_dropShadow"/>
<feBlend mode="normal" in="SourceGraphic" in2="effect1_dropShadow" result="shape"/>
</filter>
<radialGradient id="paint0_radial" cx="0" cy="0" r="1" gradientUnits="userSpaceOnUse" gradientTransform="translate(13.0198 38.4525) scale(48.5243)">
<stop stop-color="#FAE100"/>
<stop offset="0.0544" stop-color="#FADC04"/>
<stop offset="0.1167" stop-color="#FBCE0E"/>
<stop offset="0.1829" stop-color="#FCB720"/>
<stop offset="0.2514" stop-color="#FE9838"/>
<stop offset="0.3054" stop-color="#FF7950"/>
<stop offset="0.4922" stop-color="#FF1C74"/>
<stop offset="1" stop-color="#6C1CD1"/>
</radialGradient>
<linearGradient id="paint1_linear" x1="20.8331" y1="19.0937" x2="-54.3273" y2="-23.184" gradientUnits="userSpaceOnUse">
<stop stop-color="#A1B5D8" stop-opacity="0"/>
<stop offset="0.3094" stop-color="#90A2BD" stop-opacity="0.309804"/>
<stop offset="0.7554" stop-color="#7C8B9C" stop-opacity="0.756863"/>
<stop offset="1" stop-color="#748290"/>
</linearGradient>
<linearGradient id="paint2_linear" x1="25.9999" y1="38.5584" x2="25.9999" y2="45.7923" gradientUnits="userSpaceOnUse">
<stop stop-color="#FAE100" stop-opacity="0"/>
<stop offset="0.3068" stop-color="#FCA800" stop-opacity="0.305882"/>
<stop offset="0.6275" stop-color="#FE7300" stop-opacity="0.627451"/>
<stop offset="0.8685" stop-color="#FF5200" stop-opacity="0.866667"/>
<stop offset="1" stop-color="#FF4500"/>
</linearGradient>
<linearGradient id="paint3_linear" x1="23.4515" y1="19.2568" x2="12.4835" y2="8.34734" gradientUnits="userSpaceOnUse">
<stop stop-color="#833AB4" stop-opacity="0"/>
<stop offset="1" stop-color="#833AB4"/>
</linearGradient>
<linearGradient id="paint4_linear" x1="33.9766" y1="40.1899" x2="28.4572" y2="14.2046" gradientUnits="userSpaceOnUse">
<stop stop-color="#833AB4" stop-opacity="0"/>
<stop offset="1" stop-color="#833AB4"/>
</linearGradient>
<linearGradient id="paint5_linear" x1="36.5673" y1="32.5672" x2="14.4294" y2="10.4293" gradientUnits="userSpaceOnUse">
<stop stop-color="#833AB4" stop-opacity="0"/>
<stop offset="1" stop-color="#833AB4"/>
</linearGradient>
<linearGradient id="paint6_linear" x1="37.8793" y1="18.8907" x2="30.5496" y2="11.6373" gradientUnits="userSpaceOnUse">
<stop stop-color="#833AB4" stop-opacity="0"/>
<stop offset="1" stop-color="#833AB4"/>
</linearGradient>
<linearGradient id="paint7_linear" x1="34.7783" y1="13.1605" x2="16.6443" y2="31.0435" gradientUnits="userSpaceOnUse">
<stop stop-color="#833AB4"/>
<stop offset="0.0922" stop-color="#9C3495"/>
<stop offset="0.2927" stop-color="#DC2546"/>
<stop offset="0.392" stop-color="#FD1D1D"/>
<stop offset="0.5589" stop-color="#FC6831"/>
<stop offset="0.6887" stop-color="#FC9B40"/>
<stop offset="0.7521" stop-color="#FCAF45"/>
<stop offset="0.7806" stop-color="#FDB750"/>
<stop offset="0.8656" stop-color="#FECB6A"/>
<stop offset="0.9415" stop-color="#FFD87A"/>
<stop offset="1" stop-color="#FFDC80"/>
</linearGradient>
</defs>
</svg>
