<svg width="20" height="20" viewBox="0 0 20 20" fill="none" xmlns="http://www.w3.org/2000/svg">
<path d="M10.0009 0C6.00699 0 2.75769 3.2493 2.75769 7.2432C2.75769 12.1998 9.23968 19.4763 9.51566 19.7836C9.77488 20.0723 10.2275 20.0718 10.4862 19.7836C10.7622 19.4763 17.2442 12.1998 17.2442 7.2432C17.2441 3.2493 13.9948 0 10.0009 0ZM10.0009 10.8875C7.99148 10.8875 6.35671 9.25266 6.35671 7.2432C6.35671 5.23375 7.99152 3.59899 10.0009 3.59899C12.0103 3.59899 13.6451 5.23379 13.6451 7.24324C13.6451 9.2527 12.0103 10.8875 10.0009 10.8875Z" fill="white"/>
</svg>
