<svg width="87" height="84" viewBox="0 0 87 84" fill="none" xmlns="http://www.w3.org/2000/svg">
<g opacity="0.1">
<path opacity="0.1" d="M84.8933 50.5066C87.6986 52.11 87.7066 54.7716 84.8933 56.399C83.3282 57.2053 81.595 57.6258 79.8365 57.6258C78.0781 57.6258 76.3449 57.2053 74.7798 56.399C71.9824 54.7956 71.9665 52.134 74.7798 50.5066C76.3464 49.7054 78.079 49.2877 79.8365 49.2877C81.594 49.2877 83.3267 49.7054 84.8933 50.5066Z" fill="black"/>
</g>
<g opacity="0.1">
<path opacity="0.1" d="M0 71.3426L21.2233 83.7528L70.2289 55.2927L48.4955 42.4336L0 71.3426Z" fill="black"/>
</g>
<path d="M19.6299 69.3463L19.6379 71.7033L31.0744 78.3975L31.0664 76.0325L19.6299 69.3463Z" fill="#C4C4C4"/>
<path d="M31.0664 76.0325L31.0744 78.3975L58.1873 62.6522L58.1793 60.2872L31.0664 76.0325Z" fill="#E6E6E6"/>
<path d="M19.6299 69.3464L31.0664 76.0325L58.1793 60.2872L46.7428 53.6011L19.6299 69.3464Z" fill="white"/>
<path opacity="0.5" d="M19.6299 69.3464L58.1793 60.2872L46.7428 53.6011L19.6299 69.3464Z" fill="#DEF6FF"/>
<path d="M30.1976 71.6231L28.1574 70.4366L28.1016 49.1597L30.1338 50.3462L30.1976 71.6231Z" fill="#CCCCCC"/>
<path d="M30.1338 50.3463L28.1016 49.1598L46.5195 38.4652L48.5518 39.6517L30.1338 50.3463Z" fill="#C0C5D1"/>
<path d="M48.5517 39.6517L48.6155 60.9366L30.1975 71.6232L30.1338 50.3463L48.5517 39.6517Z" fill="#E1E1E1"/>
<path d="M11.6519 74.0604L9.68341 73.5072L1.27539 31.7711L3.23593 32.3243L11.6519 74.0604Z" fill="#D2D2D2"/>
<path d="M3.23593 32.3242L1.27539 31.7711L55.9873 0L57.9478 0.545151L3.23593 32.3242Z" fill="#E4E4E4"/>
<path d="M57.9472 0.545166L66.3632 42.2813L11.6513 74.0603L3.23535 32.3242L57.9472 0.545166Z" fill="white"/>
<path d="M56.4815 3.87219L63.957 41.4635L13.2937 70.9498L5.53125 32.8694L56.4815 3.87219Z" fill="#40075C"/>
<path d="M50.0896 12.338L50.4164 13.7811L42.4068 18.4309L42.0801 16.9878L50.0896 12.338Z" fill="#3D0C62"/>
<path d="M35.1152 35.3386L53.6607 24.5719L57.6933 42.5298L39.1479 53.3045L35.1152 35.3386ZM54.7207 35.3386L52.9036 27.2576L37.1634 36.3969L38.9726 44.4779L54.7207 35.3306V35.3386Z" fill="#980898"/>
<path d="M52.2496 18.2866L52.5524 19.6414L34.0069 30.4162L33.7041 29.0533L52.2496 18.2866Z" fill="white"/>
<path d="M28.3004 34.5609L28.5554 35.6913L17.4775 42.1209L17.2305 40.9905L28.3004 34.5609Z" fill="white"/>
<path d="M27.7351 32.0115L27.9901 33.1419L16.9123 39.5795L16.6572 38.4411L27.7351 32.0115Z" fill="white"/>
<path d="M14.9834 37.0462L29.1296 28.8609L35.322 56.4632L21.1758 64.6484L14.9834 37.0462ZM33.0746 55.8298L31.2734 47.8129L20.2035 54.2264L21.9967 62.2434L33.0746 55.8298ZM29.815 41.3032L29.56 40.1648L18.4821 46.5783L18.7371 47.7087L29.815 41.2951V41.3032ZM27.982 33.1419L27.7349 32.0116L16.657 38.4812L16.9121 39.6196L27.982 33.2061V33.1419ZM29.2412 38.7538L28.9861 37.6154L17.9162 44.093L18.1633 45.2234L29.2412 38.8099V38.7538ZM28.5558 35.6913L28.3007 34.5609L17.2309 40.9745L17.4779 42.0968L28.5558 35.6833V35.6913Z" fill="#310559"/>
<path d="M52.9351 21.341L53.238 22.6959L34.6925 33.4706L34.3896 32.1157L52.9351 21.341Z" fill="white"/>
<path d="M34.342 21.4854L34.6687 22.9284L14.4496 34.6652L14.1309 33.2221L34.342 21.4854Z" fill="#3D0C62"/>
<g opacity="0.8">
<path opacity="0.8" d="M52.1541 9.10721L12.2578 32.2841L20.0362 66.9653L59.9325 43.7964L52.1541 9.10721ZM53.2379 22.736L46.4557 26.6803L40.5781 30.0755L34.7004 33.4706L34.3896 32.1158L52.9351 21.341L53.2379 22.6959V22.736ZM52.2497 18.3267L52.5525 19.6815L34.0071 30.4082L33.7042 29.0533L52.2497 18.2866V18.3267ZM51.9867 17.1321L33.4731 27.8668L33.1703 26.5039L51.6759 15.7372L51.9867 17.0921V17.1321ZM13.4214 32.7651L50.6478 11.1195L51.3332 14.1819L14.1068 35.8276L13.4214 32.7651ZM21.1759 64.6484L14.9834 37.0462L29.1296 28.8609L35.3221 56.4632L21.1759 64.6484ZM35.1149 35.3386L53.6603 24.5719L57.693 42.5298L39.1475 53.3045L35.1149 35.3386Z" fill="#3B0F65"/>
</g>
<path d="M54.7203 35.3386L52.9032 27.2495L37.1631 36.3968L38.9722 44.4779L54.7203 35.3386Z" fill="white"/>
<path d="M51.6762 15.7372L51.987 17.0921L33.4415 27.8668L33.1387 26.5039L51.6762 15.7372Z" fill="white"/>
<path d="M31.273 47.8129L33.0742 55.8298L21.9963 62.2674L20.2031 54.2425L31.273 47.8129Z" fill="white"/>
<path d="M13.4219 32.7651L50.6483 11.1194L51.3337 14.1819L14.1073 35.8276L13.4219 32.7651ZM34.6691 22.9284L34.3423 21.4853L14.1312 33.2221L14.45 34.6651L34.6691 22.9284ZM50.4092 13.7811L50.0904 12.338L42.0809 16.9878L42.4076 18.4309L50.3773 13.7811H50.4092Z" fill="white"/>
<path d="M28.9859 37.6154L29.2409 38.7538L18.171 45.1834L17.916 44.053L28.9859 37.6154Z" fill="white"/>
<path d="M29.5591 40.1648L29.8142 41.3032L18.7363 47.7328L18.4893 46.6024L29.5591 40.1648Z" fill="white"/>
<path d="M18.8805 25.1651L21.0722 36.02L14.9834 39.4833L12.194 38.6335L10.3291 38.0242L8.89453 30.9694L18.8805 25.1651Z" fill="#980898"/>
<path d="M10.3291 38.0243L13.8756 36.4529L14.9834 39.4833L10.3291 38.0243Z" fill="#820B82"/>
<path d="M17.5655 28.1714L17.693 28.8208L11.4766 32.5166L11.3252 31.7951L17.5655 28.1714Z" fill="#DEF6FF"/>
<path d="M18.035 30.1516L18.1705 30.801L11.9462 34.4968L11.8027 33.7753L18.035 30.1516Z" fill="#DEF6FF"/>
<path d="M18.6494 32.0276L18.777 32.677L12.5606 36.3648L12.4092 35.6432L18.6494 32.0276Z" fill="#DEF6FF"/>
<g opacity="0.1">
<path opacity="0.1" d="M69.009 67.8071C72.9938 70.1481 73.0496 73.9321 69.009 76.265C64.9684 78.5979 58.5209 78.6059 54.5042 76.265C50.4875 73.9241 50.4556 70.1481 54.4564 67.8071C58.4571 65.4662 64.9843 65.4742 69.009 67.8071Z" fill="black"/>
</g>
<path d="M62.6658 30.1196C62.6658 30.1196 62.4985 28.2516 59.8685 28.3879C58.102 28.4949 56.3432 28.7037 54.6005 29.0133L50.2491 24.7402C50.2491 24.7402 49.1174 24.9807 48.9102 25.7584C48.9102 25.7584 51.9227 30.9293 54.0745 31.7631C54.0745 31.7631 63.5664 34.2082 62.6658 30.1196Z" fill="#820B82"/>
<path d="M50.0256 24.8044C49.9266 24.1668 49.719 23.5512 49.4119 22.9846C49.177 22.6635 48.8679 22.4048 48.5113 22.231C48.3519 22.1748 48.6867 22.8002 48.7982 23.0327C48.9098 23.2651 48.862 23.7943 47.7781 22.8723C46.6942 21.9504 46.8616 22.2791 46.8536 22.3993C46.8457 22.5196 47.5789 24.8044 48.9417 25.6462C49.1873 25.2406 49.5734 24.9408 50.0256 24.8044Z" fill="#EFB185"/>
<path d="M54.0745 31.763C51.9227 30.9613 48.9102 25.7583 48.9102 25.7583C48.973 25.5512 49.095 25.3673 49.2608 25.2292C49.9781 26.2073 52.106 29.0613 53.4768 30.5605C55.1504 32.3803 62.6818 30.9132 62.7057 30.8571C62.3311 33.8955 54.0745 31.763 54.0745 31.763Z" fill="#980898"/>
<path d="M61.5664 66.2919C61.5664 66.2919 60.5224 66.5485 60.8332 67.0936C61.144 67.6388 62.4271 68.5046 62.6343 68.8814C62.8415 69.2582 63.9334 70.5409 64.2283 70.3886C64.5231 70.2363 65.3839 70.3886 65.1448 68.7852C64.9057 67.1818 62.9611 66.1075 61.5664 66.2919Z" fill="#111114"/>
<path d="M62.9608 69.651C62.9608 69.651 63.7578 71.0299 62.5703 71.6312C61.3828 72.2324 61.5741 71.3506 58.976 72.5932C56.3778 73.8358 55.7881 72.473 55.7881 72.1443C55.7881 71.8156 57.4936 70.8856 58.0594 70.613L59.7012 69.8114L62.9608 69.186V69.651Z" fill="#111114"/>
<path d="M62.9612 45.2956C62.9612 45.2956 63.7582 54.4109 63.8697 55.437C63.9813 56.4632 65.8064 64.4481 65.4637 68.0396C65.4637 68.0396 63.6625 70.2042 61.7418 68.3683C61.7418 68.3683 60.2993 58.2911 59.59 56.0543C58.8807 53.8176 58.4424 46.8108 58.4424 46.8108L62.9612 45.2956Z" fill="#EA49BD"/>
<path d="M59.837 44.4859C59.837 44.4859 60.5303 50.3703 61.1998 56.2066C61.1998 56.2066 63.1444 67.6708 63.1922 69.3624C63.1922 69.3624 59.7174 70.9658 59.0081 69.3624C59.0081 69.3624 57.1432 59.3092 56.6172 57.2248C56.0912 55.1404 54.3538 48.6467 54.5132 45.1112C54.6726 41.5758 59.837 44.4859 59.837 44.4859Z" fill="#EA49BD"/>
<path d="M63.1915 69.3624C63.1436 67.6708 61.199 56.2066 61.199 56.2066C60.7448 52.2783 60.2108 47.6766 59.9558 45.512L57.5649 46.4821C57.3407 50.4136 57.6897 54.357 58.6009 58.1868C59.7645 63.1412 60.8085 68.0396 61.2229 69.9957C61.9006 69.8592 62.5609 69.6468 63.1915 69.3624Z" fill="#FE61CA"/>
<path d="M65.4549 68.0396C65.8294 64.448 63.9805 56.4632 63.8609 55.437C63.7414 54.4109 63.3509 46.6184 63.2871 45.8167L61.1034 47.0513C61.1034 47.0513 61.0397 53.6172 61.996 57.2729C62.8727 60.5999 63.0719 67.2059 63.5182 69.0658C64.2625 68.9598 64.947 68.5971 65.4549 68.0396Z" fill="#FE61CA"/>
<path d="M61.8684 28.412C61.8684 28.412 63.8927 29.1495 63.1754 32.5407C62.4582 35.9318 61.9322 38.1525 62.1314 39.339C62.4729 41.5201 62.9251 43.6821 63.4863 45.8167C63.4863 45.8167 63.7891 47.2036 58.7045 48.4943C58.7045 48.4943 54.082 49.5686 54.5363 46.1534C54.9906 42.7382 53.9466 39.1626 53.6756 37.904C53.4046 36.6453 52.3526 34.1601 55.3492 32.0677C58.3458 29.9753 59.8202 28.5162 61.8684 28.412Z" fill="#B80EB8"/>
<path d="M59.4299 27.0491C59.4258 28.0049 59.6645 28.9459 60.1233 29.7828C60.7608 30.6888 56.8636 32.0276 56.6644 31.1457C56.8179 30.5894 56.846 30.0057 56.7467 29.437C56.6475 28.8684 56.4233 28.3292 56.0906 27.8588C55.4849 27.001 59.4299 27.0491 59.4299 27.0491Z" fill="#EFB185"/>
<path d="M60.1078 29.847C59.6855 29.1149 59.4526 28.288 59.4304 27.4419L56.6729 29.2297C56.7765 29.2297 58.8008 29.5263 59.3905 30.9052C59.9723 30.5605 60.3389 30.1757 60.1078 29.847Z" fill="#DD9569"/>
<path d="M54.7118 23.0006C54.4587 23.9571 54.4017 24.9554 54.5444 25.9347C54.8313 27.3618 54.656 27.6744 54.8154 28.2997C54.8587 28.6403 55.0096 28.9578 55.2457 29.2057C55.7319 29.5824 56.6564 29.6386 57.8359 29.0453C59.2625 28.3318 60.6014 26.0951 59.7566 24.3153C58.9118 22.5356 56.7839 21.2368 54.7118 23.0006Z" fill="#EFB185"/>
<path d="M59.9161 26.3195C59.1868 25.0758 58.3551 23.8959 57.4296 22.7921C57.084 22.5431 56.7059 22.3435 56.3059 22.1989C55.7139 22.3211 55.1643 22.5975 54.7119 23.0005C54.6237 23.3461 54.5571 23.6968 54.5127 24.0508C54.9191 24.4115 55.6922 24.7883 55.8357 25.117C56.1445 25.9309 56.2001 26.82 55.9951 27.6664C55.8197 28.2276 56.8638 28.901 56.7123 29.398C56.705 29.4188 56.705 29.4414 56.7123 29.4622C57.1009 29.3852 57.4766 29.2529 57.8281 29.0693C58.3445 28.7789 58.7962 28.3851 59.1554 27.9121C59.5145 27.4391 59.7734 26.8971 59.9161 26.3195Z" fill="#E6A376"/>
<path d="M54.1944 22.4474C54.1916 22.854 54.3165 23.2511 54.5512 23.5821C54.7859 23.9132 55.1184 24.1614 55.5014 24.2913C56.2984 24.5879 56.402 25.8946 56.386 26.1031C56.3264 26.5876 56.3264 27.0777 56.386 27.5622C56.6012 27.8027 57.1193 26.9128 57.4141 26.9368C58.1712 26.993 57.9561 27.7385 57.3663 28.5402C56.7766 29.3419 58.6574 29.5023 59.4544 28.7647C59.8847 28.3719 60.0282 28.1474 60.4984 26.8647C61.1838 24.9967 60.9925 22.8562 58.7849 21.9664C56.5773 21.0765 55.5572 22.7761 54.1944 22.4474Z" fill="#221101"/>
<path d="M59.4543 28.7166C59.8847 28.3238 60.0282 28.0993 60.4984 26.8166C61.1838 24.9487 60.9925 22.8082 58.7849 21.9183C56.5773 21.0284 55.5572 22.7761 54.1943 22.4474C54.1948 22.6262 54.2189 22.8041 54.2661 22.9765C54.9435 22.9765 56.7845 23.1609 57.3344 23.8904C58.0198 24.7883 58.6175 24.4035 58.7052 25.6061C58.7929 26.8086 59.2471 28.2356 57.4061 29.1014C57.7486 29.2394 58.1231 29.2764 58.4858 29.2083C58.8485 29.1401 59.1844 28.9696 59.4543 28.7166Z" fill="#341C09"/>
<path d="M56.8319 30.5846L55.6523 31.8352C55.6523 31.8352 59.8364 32.5407 60.8008 30.4082C60.8462 30.1138 60.7783 29.8131 60.611 29.5674C60.4436 29.3216 60.1895 29.1492 59.9002 29.0854C59.9002 29.0854 59.94 30.7289 56.8319 30.5846Z" fill="#820B82"/>
<path d="M54.1935 46.0412C54.4625 43.3169 54.2766 40.5666 53.6436 37.904C53.3806 36.6454 52.3525 34.2082 55.2375 32.1318C56.3851 32.669 58.0906 33.8956 57.477 36.3808C56.68 39.4433 57.0785 45.8648 57.1741 48.6547C55.8751 48.6547 53.9225 48.1416 54.1935 46.0412Z" fill="#820B82"/>
<path d="M47.3162 26.3596C47.3162 26.3596 47.4516 25.3575 47.1408 25.0208C46.83 24.6841 46.1526 23.3052 45.8657 23.1208C45.5788 22.9364 45.6824 23.4816 45.77 23.8503C45.8577 24.2191 45.77 24.9246 45.6824 24.8364C45.5947 24.7482 44.9731 25.1731 45.0846 25.6862C45.1962 26.1993 46.0171 27.0331 46.033 27.1453C46.049 27.2575 47.3162 26.3596 47.3162 26.3596Z" fill="#EFB185"/>
<path d="M56.6719 34.4166C56.6719 34.4166 57.0225 32.7571 54.7033 32.1799C53.1529 31.8067 51.5832 31.5204 50.0012 31.3221L47.3553 26.512C47.3553 26.512 46.3033 26.4158 45.9287 27.0331C45.9287 27.0331 47.172 32.3002 48.8217 33.5909C48.8217 33.5669 56.3849 38.1926 56.6719 34.4166Z" fill="#B80EB8"/>
</svg>
