<svg width="93" height="86" viewBox="0 0 93 86" fill="none" xmlns="http://www.w3.org/2000/svg">
<g opacity="0.1">
<path opacity="0.1" d="M6.1583 31.9417C2.07881 34.2829 2.07099 38.0913 6.1036 40.4325C10.1362 42.7737 16.7009 42.7737 20.7726 40.4325C24.8443 38.0913 24.8599 34.2907 20.8195 31.9573C16.7791 29.6239 10.2144 29.6005 6.1583 31.9417Z" fill="black"/>
</g>
<path d="M5.2596 16.4508C2.13355 18.2614 2.13355 21.1957 5.22053 23.0062C6.97595 23.8972 8.9173 24.3616 10.8865 24.3616C12.8557 24.3616 14.797 23.8972 16.5525 23.0062C19.6785 21.1957 19.6785 18.2614 16.5525 16.4508C14.8021 15.5662 12.8678 15.1053 10.906 15.1053C8.94425 15.1053 7.00998 15.5662 5.2596 16.4508Z" fill="#E53399"/>
<path d="M5.22052 23.0062C6.97595 23.8972 8.9173 24.3616 10.8865 24.3616C12.8557 24.3616 14.797 23.8972 16.5525 23.0062C19.6785 21.1956 19.6785 18.2613 16.5525 16.4508C14.798 15.5611 12.8581 15.0974 10.8904 15.0974C8.92269 15.0974 6.98275 15.5611 5.22833 16.4508C2.11791 18.2613 2.10228 21.1956 5.22052 23.0062ZM6.25212 17.0439C7.69083 16.3108 9.28302 15.9286 10.8982 15.9286C12.5134 15.9286 14.1056 16.3108 15.5443 17.0439C18.0998 18.5267 18.0842 20.9459 15.5443 22.4131C14.1061 23.148 12.5137 23.5312 10.8982 23.5312C9.28268 23.5312 7.69027 23.148 6.25212 22.4131C3.69657 20.9303 3.70438 18.5267 6.25212 17.0439Z" fill="#FF76C4"/>
<path d="M10.5425 6.92214C10.5394 6.94806 10.5394 6.97426 10.5425 7.00018V7.02359C10.5588 7.05527 10.5798 7.08423 10.605 7.10943L10.6597 7.16406L10.7066 7.21089C10.782 7.26873 10.8665 7.31358 10.9567 7.34355C11.0522 7.38136 11.1519 7.40756 11.2537 7.42159C11.3602 7.4332 11.4676 7.4332 11.5741 7.42159C11.6732 7.41116 11.7704 7.38754 11.8633 7.35136C11.9379 7.32986 12.0055 7.28888 12.0591 7.23265C12.1127 7.17641 12.1503 7.10695 12.168 7.0314L9.19829 30.4356C9.17978 30.5108 9.14192 30.5799 9.08847 30.636C9.03501 30.6921 8.9678 30.7333 8.8935 30.7555L8.76065 30.8024H8.65123H8.20577H8.11199H8.00258H7.9635H7.91661H7.84628C7.78207 30.7735 7.72169 30.7368 7.66653 30.6931H7.62745C7.64026 30.6024 7.6179 30.5103 7.56493 30.4356H7.51022C7.50766 30.4175 7.50766 30.3991 7.51022 30.3809V30.3263L10.5425 6.82849C10.5386 6.85958 10.5386 6.89105 10.5425 6.92214Z" fill="white"/>
<path d="M10.8473 6.50852C10.7707 6.52497 10.7011 6.56444 10.6477 6.62161C10.5944 6.67878 10.5598 6.7509 10.5488 6.82827C10.5377 6.90564 10.5506 6.98454 10.5858 7.05434C10.621 7.12414 10.6768 7.1815 10.7457 7.21869C10.9214 7.34034 11.1236 7.41862 11.3355 7.44711C11.5474 7.4756 11.7631 7.45348 11.9648 7.38257C12.3321 7.22649 12.379 6.91433 12.0664 6.67241C11.8907 6.55076 11.6885 6.47247 11.4766 6.44398C11.2646 6.4155 11.049 6.43761 10.8473 6.50852Z" fill="white"/>
<path d="M2.21974 9.36478C2.23643 9.38937 2.25764 9.41055 2.28226 9.42722L2.36823 9.48184H2.43856H2.50108C2.5971 9.49376 2.69423 9.49376 2.79024 9.48184C2.89959 9.51272 3.01266 9.52848 3.12629 9.52867C3.24336 9.49089 3.35403 9.43564 3.45453 9.36478C3.54131 9.31084 3.6202 9.24519 3.68898 9.16968C3.74665 9.11928 3.78948 9.05416 3.81289 8.98129C3.83629 8.90842 3.83939 8.83056 3.82184 8.75607L11.043 31.216C11.0586 31.2924 11.0538 31.3715 11.0291 31.4455C11.0044 31.5194 10.9607 31.5856 10.9023 31.6374L10.8007 31.731L10.7148 31.8013H10.6679L10.5897 31.8403H10.5116H10.4334H10.3865H10.2928H10.1834H10.0114C9.9413 31.848 9.87053 31.848 9.80041 31.8403H9.75352H9.67537H9.60503V31.7935V31.7466L2.18066 9.31016C2.19199 9.32952 2.20507 9.34781 2.21974 9.36478Z" fill="white"/>
<path d="M2.34442 8.88874C2.0787 9.17749 2.17248 9.48184 2.55542 9.56769C2.76778 9.60363 2.98567 9.58839 3.19094 9.52323C3.3962 9.45807 3.58291 9.34489 3.73551 9.1931C4.00122 8.90435 3.90744 8.59999 3.5245 8.51415C3.31217 8.48012 3.0948 8.49628 2.88986 8.56134C2.68491 8.62639 2.4981 8.73853 2.34442 8.88874Z" fill="white"/>
<path d="M9.90187 9.48184L9.95657 9.55208L10.0425 9.61451L10.1129 9.65353H10.1676C10.2556 9.68623 10.3476 9.70723 10.4411 9.71596H10.488C10.5893 9.72764 10.6915 9.72764 10.7928 9.71596C10.8989 9.69826 11.0034 9.67216 11.1054 9.63792C11.2012 9.60267 11.2908 9.55263 11.3711 9.48965C11.4366 9.44652 11.4897 9.38718 11.5253 9.31742C11.5609 9.24766 11.5778 9.16987 11.5743 9.09164L15.0755 32.3866C15.0784 32.4636 15.0612 32.5401 15.0256 32.6085C14.9899 32.6769 14.9371 32.7349 14.8723 32.7768L14.7551 32.8548L14.6535 32.9094H14.6066H14.5284H14.4425H14.3565H14.1689C14.1326 32.9134 14.0959 32.9134 14.0595 32.9094H13.8954C13.8253 32.9016 13.7568 32.8832 13.6922 32.8548H13.6453L13.575 32.8158L13.5125 32.769V32.7221C13.5091 32.7067 13.5091 32.6907 13.5125 32.6753L9.87061 9.36478C9.877 9.40477 9.88747 9.44399 9.90187 9.48184Z" fill="url(#paint0_linear)"/>
<path d="M10.0738 8.99801C10.0049 9.03519 9.94917 9.09255 9.91397 9.16235C9.87877 9.23216 9.86583 9.31105 9.8769 9.38842C9.88796 9.46579 9.92251 9.53791 9.97587 9.59508C10.0292 9.65225 10.0989 9.69172 10.1754 9.70817C10.3787 9.77438 10.5945 9.79263 10.8061 9.76149C11.0176 9.73034 11.219 9.65065 11.3945 9.52868C11.4634 9.49149 11.5192 9.43414 11.5544 9.36433C11.5896 9.29453 11.6025 9.21563 11.5914 9.13826C11.5804 9.0609 11.5458 8.98877 11.4924 8.9316C11.4391 8.87443 11.3695 8.83497 11.2929 8.81852C11.0897 8.75231 10.8738 8.73406 10.6622 8.7652C10.4507 8.79634 10.2493 8.87603 10.0738 8.99801Z" fill="#40075C"/>
<path d="M7.4479 7.14845L7.48698 7.22649L7.5495 7.29673L7.61984 7.34355L7.66673 7.38257C7.75267 7.42907 7.84476 7.46322 7.94026 7.48403H7.97933C8.0806 7.49556 8.18286 7.49556 8.28412 7.48403C8.38716 7.50318 8.49198 7.51103 8.59673 7.50744C8.69506 7.48399 8.78971 7.44723 8.87807 7.39818C8.95813 7.37042 9.02859 7.32043 9.0812 7.25408C9.1338 7.18773 9.16636 7.10777 9.17505 7.02359L9.44858 30.576C9.44063 30.6531 9.41265 30.7268 9.36741 30.7898C9.32218 30.8527 9.26126 30.9028 9.19068 30.935C9.15147 30.9604 9.10952 30.9814 9.06564 30.9975L8.95622 31.0365H8.87026H8.78429H8.4248H8.31538H8.26849H8.22942H8.15127L7.95589 30.9584H7.909L7.81522 30.8726C7.79507 30.8564 7.77672 30.8381 7.76051 30.818V30.7711C7.76051 30.7711 7.76051 30.7711 7.76051 30.7243L7.43227 7.02359C7.42353 7.06579 7.42903 7.1097 7.4479 7.14845Z" fill="#820B82"/>
<path d="M7.6824 6.69583C7.60791 6.72082 7.54317 6.76854 7.4973 6.83225C7.45143 6.89596 7.42676 6.97244 7.42676 7.05091C7.42676 7.12937 7.45143 7.20586 7.4973 7.26957C7.54317 7.33328 7.60791 7.381 7.6824 7.40599C7.87398 7.50208 8.0854 7.55213 8.29979 7.55213C8.51419 7.55213 8.72561 7.50208 8.91719 7.40599C8.9908 7.37901 9.05435 7.33012 9.09924 7.26592C9.14413 7.20172 9.1682 7.12531 9.1682 7.04701C9.1682 6.9687 9.14413 6.89229 9.09924 6.82809C9.05435 6.76389 8.9908 6.715 8.91719 6.68802C8.72554 6.59131 8.51358 6.54158 8.29885 6.54293C8.08412 6.54429 7.87281 6.5967 7.6824 6.69583Z" fill="#820B82"/>
<path d="M16.5524 23.0062C14.797 23.8972 12.8556 24.3616 10.8865 24.3616C8.91727 24.3616 6.97592 23.8972 5.22049 23.0062C3.06351 21.7575 2.40704 19.9704 3.24326 18.3862H4.80629C3.90755 19.7441 4.37645 21.3283 6.25208 22.4131C7.69024 23.148 9.28265 23.5312 10.8982 23.5312C12.5137 23.5312 14.1061 23.148 15.5443 22.4131C17.4355 21.3283 17.9357 19.7441 17.0604 18.3862H18.5765C19.3971 19.9704 18.7563 21.7575 16.5524 23.0062Z" fill="#FF76C4"/>
<path d="M2.91505 19.986V20.2358C2.91505 20.306 2.95412 20.3684 2.96975 20.4387C2.98852 20.5206 3.012 20.6014 3.04009 20.6806C3.04009 20.743 3.09479 20.8054 3.11824 20.8757L3.23547 21.1254C3.23547 21.1878 3.3058 21.2425 3.34488 21.3049C3.40193 21.4021 3.46456 21.4959 3.53244 21.5858C3.60278 21.6717 3.6653 21.7575 3.74345 21.8434L3.79816 21.9058C3.90236 22.0228 4.01465 22.1323 4.13421 22.2336L4.38429 22.4443L4.60311 22.616L4.89227 22.8111L5.19706 23.0062C5.45008 23.1484 5.711 23.276 5.97858 23.3886L6.20521 23.4822C6.40841 23.5681 6.61942 23.6461 6.83824 23.7241L7.06488 23.8022L7.47908 23.9192L7.79169 24.0051L8.22933 24.0987L8.54194 24.1612C8.83891 24.2158 9.1437 24.2548 9.44849 24.286H9.72984L10.2769 24.325H11.4257H11.8321H12.1994L12.6058 24.2782L12.9653 24.2314L13.3873 24.1534L13.7156 24.0909L14.2157 23.9661L14.4892 23.8958C14.7784 23.81 15.0676 23.7163 15.3489 23.6071L15.7709 23.4276L15.9585 23.3417C16.1617 23.2481 16.3571 23.1466 16.5524 23.0374C18.1155 22.1243 18.897 20.9303 18.897 19.7363L18.9439 35.4379C18.9439 36.6319 18.1624 37.826 16.5993 38.7312C16.4118 38.8405 16.2164 38.9497 16.0132 39.0434L15.8022 39.137L15.4427 39.2931H15.3958C15.1145 39.4024 14.8253 39.496 14.5283 39.5897H14.4658L14.2626 39.6443L13.7546 39.8004H13.6296H13.4342L13.0044 39.8784H12.8324C12.77 39.8822 12.7073 39.8822 12.6449 39.8784L12.2385 39.9252H12.0587H11.8868H11.4648H10.3238C10.1362 39.9252 9.95648 39.9252 9.76891 39.8862H9.49538C9.19059 39.8472 8.87799 39.8082 8.58101 39.7535H8.54194L8.28404 39.8004L7.81513 39.6989L7.50253 39.6209L7.08051 39.496C7.05457 39.4994 7.02829 39.4994 7.00236 39.496L6.86169 39.4492L6.25211 39.1838L6.02547 39.0824C5.75777 38.9701 5.49683 38.8425 5.24395 38.7L5.14236 38.6454L4.93916 38.5127L4.68908 38.3176L4.46244 38.1381C4.37648 38.0679 4.29051 38.0054 4.22017 37.9352H4.16547L3.87631 37.6465L3.82942 37.584C3.77471 37.5216 3.72 37.467 3.67311 37.4045L3.61841 37.3187C3.55052 37.2287 3.4879 37.1349 3.43085 37.0378C3.40035 37.0019 3.37413 36.9626 3.35269 36.9207C3.35013 36.9026 3.35013 36.8842 3.35269 36.8661L3.23547 36.6163L3.12606 36.429C3.12506 36.4108 3.12506 36.3926 3.12606 36.3744C3.12606 36.3042 3.08698 36.2261 3.06353 36.1481C3.04329 36.0922 3.02761 36.0348 3.01664 35.9764C3.01364 35.9636 3.01364 35.9502 3.01664 35.9374C3.01664 35.8515 3.01664 35.7735 3.01664 35.6955C3.01664 35.6174 3.01664 35.5784 3.01664 35.5238V35.4535L2.8916 19.7519C2.8916 19.8299 2.90723 19.908 2.91505 19.986Z" fill="url(#paint1_linear)"/>
<g opacity="0.1">
<path opacity="0.1" d="M82.2386 62.8065L51.4392 80.6855L0 51.0225L30.7916 33.1592L82.2386 62.8065Z" fill="black"/>
</g>
<path d="M76.9712 62.0808C76.5882 63.4308 53.3226 75.808 53.3226 75.808C51.8143 76.682 48.7898 76.5884 47.2737 75.6675C36.7311 69.596 5.99418 51.678 5.99418 51.678C4.47804 50.804 4.01695 48.5564 5.51746 47.6668L29.7443 34.4C29.7443 34.4 80.4098 49.4149 76.9712 62.0808Z" fill="#95C4DE"/>
<path d="M77.1353 61.0116L53.3226 74.8403C51.8143 75.7065 48.7898 75.5739 47.2737 74.6998C36.7311 68.6283 5.72846 50.5543 5.72846 50.5543C4.20451 49.6724 4.16544 48.2599 5.72846 47.3858L29.7991 33.4167L77.1353 61.0116Z" fill="white"/>
<path d="M39.7319 0.593106C38.372 -0.187294 36.9419 0.593106 36.5511 2.30998L29.7754 33.4167L76.2129 61.5579L83.3481 29.2806C83.5363 28.427 83.4668 27.5369 83.1482 26.7228C82.8296 25.9088 82.2763 25.2074 81.5584 24.7074L39.7319 0.593106Z" fill="white"/>
<path d="M81.7151 30.1937L37.4815 4.98676L31.6123 31.7076L75.2598 58.4441L81.7151 30.1937Z" fill="#40075C"/>
<path d="M28.1346 37.7713L70.3363 62.0808L56.2065 70.2359L14.0674 45.9499L28.1346 37.7713ZM46.1876 63.2124L48.0788 62.112L28.4394 50.8118L26.5716 51.9044L46.1876 63.2124ZM33.6833 47.737L31.8077 48.853L33.5505 49.8519L35.4418 48.7516L33.7068 47.7448L33.6833 47.737ZM27.5876 46.4104L29.4788 45.3178L27.7439 44.3033L25.8448 45.4192L27.5876 46.4104ZM51.4471 60.1766L53.3462 59.0684L51.58 58.0695L49.6887 59.1699L51.4237 60.1766H51.4471ZM45.6405 54.628L43.7649 55.7283L45.4842 56.735L47.3833 55.6269L45.6405 54.628ZM57.4101 63.6104L59.3092 62.51L57.5742 61.5033L55.6751 62.6114L57.4101 63.6104ZM37.7785 52.2868L39.5056 53.2857L41.4203 52.1931L39.6854 51.1864L37.7785 52.2868ZM37.6847 50.0314L35.7934 51.1396L37.5128 52.1463L39.404 51.0537L37.6612 50.0392L37.6847 50.0314ZM61.388 65.9047L63.3027 64.7732L61.5755 63.7664L59.6686 64.8668L61.4036 65.8735L61.388 65.9047ZM25.5947 45.2632L27.4938 44.1628L25.7901 43.1561L23.8988 44.2643L25.5947 45.2632ZM43.6555 53.4886L41.7642 54.5811L43.507 55.5879L45.3904 54.4875L43.6555 53.4886ZM31.5576 48.7047L33.4567 47.6044L31.7218 46.5976L29.8227 47.698L31.5576 48.6969V48.7047ZM49.6262 56.9223L47.7271 58.0227L49.4621 59.0216L51.3612 57.9291L49.6262 56.9223ZM55.425 62.432L57.3241 61.3316L55.5891 60.3327L53.6823 61.4252L55.425 62.432ZM52.1583 66.6305L54.0496 65.5536L52.299 64.5468L50.4155 65.6472L52.1583 66.6461V66.6305ZM24.9539 47.9009L26.8529 46.824L25.1102 45.8094L23.2111 46.9332L24.9539 47.9399V47.9009ZM42.9834 56.1888L41.0921 57.2891L42.8349 58.288L44.7261 57.1955L42.9834 56.1888ZM36.3327 46.2231L34.4492 47.3156L36.1842 48.3223L38.0755 47.2298L36.3327 46.2231ZM30.2212 44.8808L32.1125 43.7804L30.3697 42.7815L28.4863 43.8741L30.2212 44.8808ZM38.7788 53.7149L37.036 52.7238L35.1682 53.8476L36.9188 54.8543L38.8101 53.7461L38.7788 53.7149ZM40.42 50.726L42.1549 51.7327L44.054 50.6323L42.3034 49.6256L40.42 50.726ZM31.0418 49.2432L29.1506 50.3436L30.8934 51.3503L32.8237 50.2733L31.0809 49.2744L31.0418 49.2432ZM22.2967 49.4383L24.227 48.3848L22.4765 47.3702L20.5852 48.4628L22.328 49.4695L22.2967 49.4383ZM48.2742 53.0672L46.3829 54.1597L48.1179 55.1742L50.017 54.1129L48.2742 53.0672ZM54.7842 65.1321L56.6755 64.0396L54.9327 63.0329L53.0492 64.141L54.7842 65.1321ZM48.8213 61.6984L50.7125 60.6058L48.9776 59.5991L47.0785 60.6917L48.8213 61.6984ZM54.0808 58.647L55.9721 57.5389L54.245 56.5399L52.3615 57.6403L54.0965 58.647H54.0808ZM60.0516 62.0808L61.9507 60.9882L60.1766 59.9737L58.2932 61.0741L60.0281 62.0808H60.0516ZM40.3184 48.5096L38.4271 49.6178L40.1699 50.6167L42.0612 49.5163L40.3184 48.5096ZM52.7991 63.9928L54.706 62.8924L52.9633 61.8935L51.072 62.986L52.7991 63.9928ZM58.0587 60.9336L59.9578 59.8332L58.215 58.8265L56.3238 59.9347L58.0587 60.9414V60.9336ZM41.0218 55.0182L39.1305 56.1029L40.8733 57.1096L42.7645 56.0171L41.0218 55.0182ZM34.1991 47.2142L36.0904 46.0436L34.3867 45.0837L32.4876 46.1762L34.2304 47.1751L34.1991 47.2142ZM46.2813 51.9902L44.3901 53.0672L46.1094 54.0583L47.9928 52.9657L46.2501 51.9512L46.2813 51.9902ZM28.9161 50.2343L30.8308 49.1652L29.0881 48.1663L27.1968 49.2354L28.9161 50.2343ZM35.0197 51.5688L33.1363 52.6692L34.8791 53.6681L36.7703 52.5755L35.0197 51.5688ZM26.2824 51.7639L28.1737 50.6635L26.4231 49.6568L24.5631 50.726L26.3059 51.7327L26.2824 51.7639ZM46.9847 58.4519L45.0934 59.5445L46.8362 60.5512L48.7275 59.4508L46.9847 58.4519ZM52.2521 55.4084L50.353 56.5087L52.1036 57.5154L53.9949 56.4073L52.2521 55.4084ZM56.1597 68.9795L58.0275 67.8947L56.2691 66.8568L54.3778 67.9494L56.1206 68.9639L56.1597 68.9795ZM20.3195 48.3223L22.2029 47.2298L20.4602 46.2231L18.6002 47.3234L20.3195 48.3223ZM22.9454 46.7615L24.8366 45.669L23.1017 44.6545L21.2104 45.7626L22.9688 46.824L22.9454 46.7615ZM58.7387 67.4031L60.6534 66.334L58.9184 65.3272L57.0506 66.4276L58.7934 67.4343L58.7387 67.4031ZM28.2362 43.7414L30.1275 42.641L28.3925 41.6343L26.4934 42.7347L28.2362 43.7414ZM50.1733 65.5536L52.0567 64.4532L50.3139 63.4465L48.4539 64.5078L50.1733 65.5536ZM64.0373 64.3986L65.9207 63.3138L64.178 62.2759L62.2867 63.3762L64.0373 64.3673V64.3986ZM23.6018 44.116L25.5087 43.0156L23.766 42.0167L21.8825 43.1171L23.6097 44.116H23.6018ZM47.6724 55.7751L45.7812 56.8755L47.5083 57.8666L49.3996 56.7819L47.6724 55.7751ZM53.4791 61.316L55.3781 60.2156L53.6432 59.2167L51.7441 60.3093L53.4791 61.316ZM29.5726 47.5575L31.4717 46.4572L29.7367 45.4583L27.8376 46.5586L29.5726 47.5575ZM35.6997 48.8998L33.8084 50.0002L35.5355 51.0069L37.4346 49.8987L35.6997 48.8998ZM59.3951 64.7732L61.2942 63.6806L59.5592 62.6739L57.668 63.7742L59.3951 64.7732ZM39.7713 53.4418L41.5063 54.4329L43.3897 53.3403L41.6704 52.3336L39.7713 53.4418ZM62.0366 63.2124L63.9279 62.1198L62.1929 61.1287L60.3095 62.2212L62.0366 63.2124ZM20.9838 45.6456L22.875 44.553L21.101 43.5541L19.2097 44.6466L20.9525 45.6456H20.9838ZM56.7771 66.2871L58.6683 65.1868L56.9255 64.1879L55.0421 65.2882L56.7771 66.2871ZM33.0581 50.4216L31.1669 51.5064L32.9097 52.5053L34.8009 51.4049L33.0581 50.4216ZM32.2063 46.0436L34.0976 44.951L32.3704 43.9443L30.4791 45.029L32.2063 46.0436ZM38.3334 47.3859L36.4421 48.4862L38.177 49.4851L40.0605 48.3848L38.3334 47.3702V47.3859ZM48.1726 64.3673L50.0639 63.2826L48.3289 62.2759L46.4376 63.3762L48.1726 64.3673ZM18.3501 47.1986L20.2335 46.0436L18.5064 45.0525L16.6073 46.145L18.3501 47.1439V47.1986ZM50.7985 62.8456L52.6819 61.7452L50.947 60.7463L49.0479 61.8467L50.7985 62.8456ZM26.9467 49.0871L28.838 47.9868L27.103 46.9878L25.2039 48.0882L26.9467 49.0871ZM56.0659 59.7864L57.9649 58.6938L56.2691 57.6949L54.37 58.7797L56.0971 59.7864H56.0659ZM54.1512 67.8167L56.0268 66.7085L54.2918 65.7096L52.4084 66.81L54.1512 67.8167ZM50.2436 54.2456L48.3758 55.3459L50.1029 56.3448L51.9942 55.2523L50.2671 54.2456H50.2436ZM24.3052 50.6089L26.2043 49.5163L24.4693 48.5174L22.5781 49.6178L24.3052 50.6089ZM42.405 51.9044L44.14 52.9111L46.0313 51.8107L44.3041 50.8118L42.405 51.9044ZM40.7639 54.8621L39.0289 53.8476L37.1455 54.9479L38.8804 55.9546L40.7639 54.8465V54.8621ZM26.2434 42.5942L28.1346 41.4938L26.4075 40.4949L24.5084 41.5875L26.2512 42.5942H26.2434ZM44.9997 57.3047L43.1162 58.4051L44.8512 59.404L46.7424 58.3036L44.9997 57.3047ZM43.2022 47.6044L41.8892 48.3848L43.632 49.3915L44.9371 48.6111L43.2022 47.6044ZM55.7923 54.8621L54.4872 55.6425L56.2691 56.6336L57.582 55.8532L55.7923 54.8621ZM31.2607 40.729L29.9321 41.5094L31.6827 42.5162L32.9878 41.7358L31.2607 40.729ZM38.5444 44.9354L37.2314 45.7158L38.9586 46.7147L40.2871 45.9343L38.5444 44.9276V44.9354ZM35.895 43.3746L34.5743 44.155L36.317 45.1617L37.6378 44.3813L35.9497 43.4058L35.895 43.3746ZM63.0917 59.0684L61.7709 59.8488L63.5137 60.8712L64.8188 60.0908L63.0917 59.0762V59.0684ZM65.7332 60.6292L64.4359 61.4096L66.1708 62.4241L67.476 61.6437L65.7332 60.6448V60.6292ZM58.8715 58.1866L60.1844 57.4062L58.4495 56.4073L57.1444 57.1877L58.8715 58.1866ZM29.0412 41.0178L30.3619 40.2374L28.627 39.2385L27.314 40.0189L29.0412 41.0178ZM45.8593 49.1652L44.5464 49.9456L46.2813 50.9445L47.5943 50.1641L45.8593 49.1652Z" fill="#820B82"/>
<path d="M42.0608 49.5163L40.1695 50.6167L38.4268 49.6178L40.318 48.5174L42.0608 49.5163Z" fill="#72B5D3"/>
<path d="M28.1267 41.4938L26.2433 42.5942L24.5005 41.5875L26.3996 40.4949L28.1267 41.4938Z" fill="#72B5D3"/>
<path d="M36.0901 46.0748L34.2066 47.1752L32.4561 46.1762L34.3551 45.0837L36.0901 46.0748Z" fill="#72B5D3"/>
<path d="M30.8308 49.134L28.9317 50.2343L27.1968 49.2354L29.088 48.135L30.8308 49.134Z" fill="#72B5D3"/>
<path d="M30.3619 40.2062L29.0411 40.9632L27.314 39.9643L28.6269 39.2073L30.3619 40.2062Z" fill="white"/>
<path d="M33.0035 41.7279L31.6983 42.5005L29.9556 41.4938L31.2763 40.729L33.0035 41.7279Z" fill="white"/>
<path d="M30.1272 42.641L28.2359 43.7414L26.4932 42.7347L28.3922 41.6343L30.1272 42.641Z" fill="#72B5D3"/>
<path d="M25.5085 43.0156L23.6017 44.116L21.8745 43.1171L23.7658 42.0167L25.5085 43.0156Z" fill="#72B5D3"/>
<path d="M32.1125 43.7804L30.2213 44.8808L28.4863 43.8741L30.3698 42.7815L32.1125 43.7804Z" fill="#72B5D3"/>
<path d="M37.6534 44.4125L36.3326 45.1773L34.5977 44.1706L35.9106 43.4058L37.6534 44.4125Z" fill="white"/>
<path d="M27.4934 44.1706L25.5943 45.271L23.8672 44.2642L25.7584 43.1561L27.4934 44.1706Z" fill="#72B5D3"/>
<path d="M22.8748 44.553L20.9835 45.6455L19.2407 44.6466L21.1398 43.5541L22.8748 44.553Z" fill="#72B5D3"/>
<path d="M34.0974 44.9354L32.214 46.028L30.4712 45.0291L32.3703 43.9365L34.0974 44.9354Z" fill="#72B5D3"/>
<path d="M29.4788 45.31L27.5875 46.4104L25.8447 45.4193L27.7438 44.3033L29.4788 45.31Z" fill="#72B5D3"/>
<path d="M40.3028 45.9421L38.9742 46.6991L37.2471 45.7002L38.56 44.9354L40.3028 45.9421Z" fill="white"/>
<path d="M24.8601 45.7002L22.9688 46.7927L21.2261 45.7938L23.1251 44.6857L24.8601 45.7002Z" fill="#72B5D3"/>
<path d="M20.2332 46.0748L18.3497 47.1752L16.6069 46.1762L18.506 45.0837L20.2332 46.0748Z" fill="#72B5D3"/>
<path d="M31.4714 46.4572L29.5724 47.5575L27.8374 46.5586L29.7365 45.4583L31.4714 46.4572Z" fill="#72B5D3"/>
<path d="M26.8528 46.8474L24.9537 47.9321L23.2109 46.9332L25.11 45.8329L26.8528 46.8474Z" fill="#72B5D3"/>
<path d="M38.0754 47.2298L36.1842 48.3223L34.4492 47.3156L36.3327 46.2231L38.0754 47.2298Z" fill="#72B5D3"/>
<path d="M33.4568 47.6122L31.5577 48.7047L29.8228 47.7058L31.7218 46.6054L33.4568 47.6122Z" fill="white"/>
<path d="M28.8376 47.9868L26.9464 49.0871L25.2036 48.0882L27.1027 46.9879L28.8376 47.9868Z" fill="#72B5D3"/>
<path d="M44.9371 48.6189L43.6319 49.3759L41.8892 48.3691L43.2021 47.6122L44.9371 48.6189Z" fill="white"/>
<path d="M40.0603 48.3691L38.1769 49.4695L36.4419 48.4706L38.3332 47.3702L40.0603 48.3691Z" fill="#72B5D3"/>
<path d="M35.4416 48.7515L33.5504 49.8519L31.8076 48.853L33.7067 47.7448L35.4416 48.7515Z" fill="white"/>
<path d="M26.2043 49.5163L24.3053 50.6089L22.5781 49.6178L24.4694 48.5174L26.2043 49.5163Z" fill="white"/>
<path d="M47.5943 50.1407L46.2813 50.9055L44.5464 49.9065L45.8593 49.1339L47.5943 50.1407Z" fill="#72B5D3"/>
<path d="M37.4343 49.8987L35.5352 51.0069L33.8081 50.0002L35.6994 48.8998L37.4343 49.8987Z" fill="white"/>
<path d="M32.8079 50.2733L30.9244 51.3815L29.1816 50.3748L31.0729 49.2744L32.8079 50.2733Z" fill="#72B5D3"/>
<path d="M44.054 50.6635L42.1549 51.7639L40.4199 50.7572L42.3034 49.6568L44.054 50.6635Z" fill="#72B5D3"/>
<path d="M28.197 50.6635L26.3058 51.7639L24.563 50.7572L26.4464 49.6568L28.197 50.6635Z" fill="white"/>
<path d="M34.8005 51.4283L32.9093 52.5287L31.1665 51.5298L33.0578 50.4216L34.8005 51.4283Z" fill="#72B5D3"/>
<path d="M46.031 51.8107L44.1397 52.9111L42.4126 51.9044L44.3039 50.8118L46.031 51.8107Z" fill="#72B5D3"/>
<path d="M41.4124 52.1931L39.5055 53.2935L37.7783 52.2946L39.6774 51.1864L41.4124 52.1931Z" fill="white"/>
<path d="M36.7937 52.5755L34.9024 53.6681L33.1597 52.6691L35.0431 51.5688L36.7937 52.5755Z" fill="#72B5D3"/>
<path d="M48.0242 52.9657L46.1407 54.0582L44.3901 53.0437L46.2814 51.9512L48.0242 52.9657Z" fill="white"/>
<path d="M43.3894 53.3403L41.4981 54.4329L39.771 53.4418L41.6701 52.3336L43.3894 53.3403Z" fill="white"/>
<path d="M38.7786 53.7149L36.8873 54.8231L35.1445 53.8163L37.0358 52.7238L38.7786 53.7149Z" fill="#72B5D3"/>
<path d="M50.0168 54.1051L48.11 55.2054L46.3828 54.1909L48.2741 53.0984L50.0168 54.1051Z" fill="white"/>
<path d="M45.3982 54.4875L43.5069 55.5878L41.7642 54.5811L43.6554 53.4886L45.3982 54.4875Z" fill="white"/>
<path d="M40.7639 54.8621L38.8805 55.9702L37.1455 54.9557L39.029 53.8632L40.7639 54.8621Z" fill="#72B5D3"/>
<path d="M51.9939 55.2523L50.1026 56.3448L48.3755 55.3459L50.2667 54.2455L51.9939 55.2523Z" fill="white"/>
<path d="M57.543 55.861L56.2301 56.6336L54.4873 55.6268L55.7924 54.8621L57.543 55.861Z" fill="white"/>
<path d="M47.3831 55.6269L45.484 56.735L43.749 55.7283L45.6403 54.628L47.3831 55.6269Z" fill="white"/>
<path d="M42.7644 56.0171L40.8731 57.1174L39.1304 56.1029L41.0216 55.0182L42.7644 56.0171Z" fill="white"/>
<path d="M53.9871 56.3917L52.1036 57.4998L50.353 56.4931L52.2521 55.3928L53.9871 56.3917Z" fill="white"/>
<path d="M49.3601 56.7741L47.4688 57.8744L45.7417 56.8755L47.633 55.7751L49.3601 56.7741Z" fill="white"/>
<path d="M60.1841 57.3906L58.8712 58.1632L57.144 57.1643L58.457 56.3917L60.1841 57.3906Z" fill="white"/>
<path d="M44.7493 57.1642L42.858 58.2568L41.1152 57.2579L42.9987 56.1575L44.7493 57.1642Z" fill="white"/>
<path d="M55.9719 57.5388L54.0807 58.647L52.3457 57.6403L54.2448 56.5399L55.9719 57.5388Z" fill="white"/>
<path d="M51.3611 57.929L49.462 59.0294L47.7271 58.0227L49.6261 56.9223L51.3611 57.929Z" fill="white"/>
<path d="M46.7346 58.3036L44.8434 59.404L43.1084 58.4051L44.9918 57.3047L46.7346 58.3036Z" fill="white"/>
<path d="M57.9646 58.686L56.0655 59.7864L54.3384 58.7797L56.2375 57.6949L57.9646 58.686Z" fill="white"/>
<path d="M53.3459 59.0684L51.4469 60.1766L49.7119 59.1699L51.6032 58.0695L53.3459 59.0684Z" fill="white"/>
<path d="M48.7273 59.4508L46.836 60.5512L45.0933 59.5445L46.9845 58.4519L48.7273 59.4508Z" fill="white"/>
<path d="M64.8184 60.0829L63.5133 60.8399L61.7705 59.8332L63.0913 59.0684L64.8184 60.0829Z" fill="white"/>
<path d="M59.9578 59.841L58.0665 60.9414L56.3237 59.9347L58.215 58.8343L59.9578 59.841Z" fill="white"/>
<path d="M55.3391 60.2156L53.44 61.3082L51.7051 60.3093L53.6041 59.2167L55.3391 60.2156Z" fill="white"/>
<path d="M61.9504 60.9804L60.0514 62.0808L58.3164 61.0741L60.1998 59.9737L61.9504 60.9804Z" fill="white"/>
<path d="M67.4756 61.6047L66.1705 62.3695L64.4355 61.3628L65.7329 60.6058L67.4756 61.6047Z" fill="white"/>
<path d="M57.324 61.3628L55.4249 62.4632L53.6821 61.4564L55.589 60.3639L57.324 61.3628Z" fill="white"/>
<path d="M52.6975 61.7452L50.8141 62.8456L49.0635 61.8466L50.9625 60.7463L52.6975 61.7452Z" fill="white"/>
<path d="M63.9275 62.1198L62.0362 63.2201L60.3091 62.2212L62.1925 61.1287L63.9275 62.1198Z" fill="white"/>
<path d="M48.0785 62.1198L46.1873 63.2201L26.5479 51.9044L28.4469 50.8118L48.0785 62.1198Z" fill="white"/>
<path d="M59.3088 62.51L57.4098 63.6103L55.6748 62.6114L57.5739 61.5033L59.3088 62.51Z" fill="white"/>
<path d="M54.6902 62.8924L52.7989 64.0005L51.0562 62.986L52.9474 61.8935L54.6902 62.8924Z" fill="white"/>
<path d="M65.9207 63.2748L64.0372 64.3673L62.2866 63.3762L64.1779 62.2759L65.9207 63.2748Z" fill="white"/>
<path d="M50.0637 63.2748L48.1725 64.3673L46.4375 63.3762L48.3288 62.2759L50.0637 63.2748Z" fill="white"/>
<path d="M61.2942 63.6572L59.3951 64.7497L57.668 63.7508L59.5592 62.6505L61.2942 63.6572Z" fill="white"/>
<path d="M56.675 64.0396L54.7838 65.1321L53.0488 64.141L54.9323 63.0328L56.675 64.0396Z" fill="white"/>
<path d="M52.0564 64.422L50.173 65.5223L48.4224 64.5078L50.3136 63.4153L52.0564 64.422Z" fill="white"/>
<path d="M63.2869 64.8044L61.3956 65.9047L59.6528 64.898L61.5597 63.7976L63.2869 64.8044Z" fill="white"/>
<path d="M58.6682 65.1867L56.777 66.2871L55.0342 65.2882L56.9254 64.1878L58.6682 65.1867Z" fill="white"/>
<path d="M54.0496 65.5692L52.1583 66.6617L50.4155 65.6628L52.299 64.5624L54.0496 65.5692Z" fill="white"/>
<path d="M60.6531 66.3339L58.7618 67.4343L57.019 66.4276L58.9181 65.3272L60.6531 66.3339Z" fill="white"/>
<path d="M56.0266 66.7085L54.1432 67.8167L52.4082 66.81L54.2916 65.7096L56.0266 66.7085Z" fill="white"/>
<path d="M58.0271 67.8557L56.1358 68.9639L54.3931 67.9494L56.2843 66.8568L58.0271 67.8557Z" fill="white"/>
<path d="M39.4275 51.0537L37.5362 52.1463L35.7935 51.1396L37.6847 50.0392L39.4275 51.0537Z" fill="white"/>
<path d="M50.7122 60.6058L48.8209 61.6984L47.0781 60.6916L48.9694 59.5991L50.7122 60.6058Z" fill="white"/>
<path d="M24.219 48.3691L22.3277 49.4695L20.585 48.4628L22.4762 47.3702L24.219 48.3691Z" fill="#72B5D3"/>
<path d="M22.2263 47.2298L20.3429 48.3223L18.6001 47.3234L20.4835 46.2231L22.2263 47.2298Z" fill="#72B5D3"/>
<path d="M36.5982 59.9425C36.7288 59.989 36.8418 60.0747 36.9217 60.1879C37.0016 60.301 37.0445 60.4361 37.0445 60.5746C37.0445 60.713 37.0016 60.8481 36.9217 60.9613C36.8418 61.0745 36.7288 61.1602 36.5982 61.2067L32.636 63.5011C32.2954 63.6726 31.9193 63.7619 31.5379 63.7619C31.1565 63.7619 30.7804 63.6726 30.4399 63.5011L25.0553 60.3795C24.9255 60.3311 24.8136 60.2442 24.7346 60.1305C24.6556 60.0169 24.6133 59.8818 24.6133 59.7435C24.6133 59.6051 24.6556 59.47 24.7346 59.3564C24.8136 59.2427 24.9255 59.1558 25.0553 59.1074L29.0097 56.7662C29.3533 56.6004 29.73 56.5143 30.1117 56.5143C30.4933 56.5143 30.87 56.6004 31.2136 56.7662L36.5982 59.9425Z" fill="#820B82"/>
<path d="M35.691 60.1166C36.2928 60.4677 36.3006 61.0374 35.691 61.3808L31.7287 63.6752C31.3882 63.8467 31.0121 63.936 30.6307 63.936C30.2493 63.936 29.8732 63.8467 29.5327 63.6752L24.1481 60.5536C24.0183 60.5052 23.9064 60.4183 23.8274 60.3046C23.7484 60.191 23.7061 60.0559 23.7061 59.9176C23.7061 59.7792 23.7484 59.6441 23.8274 59.5305C23.9064 59.4168 24.0183 59.3299 24.1481 59.2815L28.1025 56.9872C28.4439 56.8138 28.8215 56.7234 29.2044 56.7234C29.5874 56.7234 29.965 56.8138 30.3064 56.9872L35.691 60.1166Z" fill="#40075C"/>
<g opacity="0.1">
<path opacity="0.1" d="M89.8036 75.3241C94.0472 77.7746 94.0628 81.7312 89.8583 84.1661C85.6538 86.6009 78.8312 86.6165 74.5875 84.1661C70.3439 81.7156 70.3361 77.7746 74.5328 75.3398C78.7296 72.9049 85.5756 72.8893 89.8036 75.3241Z" fill="black"/>
</g>
<path d="M44.3663 11.0036L44.0928 12.0884L50.0948 15.7797L50.3683 14.6949L44.3663 11.0036Z" fill="white"/>
<path d="M51.8377 42.2274L37.9346 33.643L41.4201 20.1811L55.3232 28.7655L51.8377 42.2274ZM40.3494 28.2973L52.1503 35.555L53.7133 29.4835L41.9125 22.2258L40.3494 28.2973Z" fill="#40075C"/>
<path d="M42.5924 15.4519L42.3345 16.4742L56.2376 25.0196L56.4955 23.9973L42.5924 15.4519Z" fill="white"/>
<path d="M60.4971 28.2817L60.2783 29.1323L68.5858 34.2361L68.8046 33.3855L60.4971 28.2817Z" fill="white"/>
<path d="M60.9893 26.3697L60.7705 27.2203L69.0702 32.3241L69.289 31.4735L60.9893 26.3697Z" fill="white"/>
<path d="M65.2877 51.1942L54.7061 44.6778L60.0125 23.927L70.5942 30.4356L65.2877 51.1942ZM56.4098 44.272L64.7094 49.3759L66.2724 43.3512L57.9493 38.2396L56.3863 44.2642L56.4098 44.272ZM59.1998 33.3465L67.5072 38.4503L67.7261 37.5996L59.3951 32.4958L59.1763 33.3465H59.1998ZM60.7628 27.2203L69.0624 32.3241L69.2813 31.4735L60.9582 26.3697L60.7393 27.2203H60.7628ZM59.6843 31.4345L67.9918 36.5383L68.2028 35.6876L59.9109 30.576L59.6921 31.4345H59.6843ZM60.2704 29.0933L68.5779 34.1971L68.7733 33.3855L60.4971 28.2817L60.2782 29.1323L60.2704 29.0933Z" fill="#3B0F65"/>
<path d="M42.0064 17.7541L41.7407 18.7764L55.6516 27.3218L55.9095 26.2995L42.0064 17.7541Z" fill="white"/>
<path d="M56.1754 18.2614L55.894 19.3461L71.0554 28.6641L71.3289 27.5715L56.1754 18.2614Z" fill="white"/>
<g opacity="0.8">
<path opacity="0.8" d="M36.1919 34.5873L66.1082 52.9735L73.9233 25.7532L43.1083 8.0303L36.1919 34.5873ZM41.7406 18.7764L42.0063 17.7541L55.9095 26.3385L55.6516 27.314L46.8361 21.9058L41.7406 18.7842V18.7764ZM42.5925 15.4597L56.4956 24.0441L56.269 25.0196L42.3658 16.4352L42.6237 15.4207L42.5925 15.4597ZM42.8191 14.5622L43.0848 13.5399L56.9879 22.1243L56.7222 23.1466L42.8191 14.5622ZM71.8992 27.2437L71.3131 29.5849L43.4053 12.4161L43.9914 10.1218L71.8992 27.2437ZM65.2876 51.1942L54.7059 44.6779L60.0124 23.927L70.5941 30.4356L65.2876 51.1942ZM55.2921 28.7265L51.8378 42.2274L37.9347 33.643L41.4202 20.1811L55.3233 28.7655L55.2921 28.7265Z" fill="#820B82"/>
</g>
<path d="M40.3496 28.2973L41.9048 22.2258L53.7057 29.4835L52.1505 35.555L40.3496 28.2973Z" fill="white"/>
<path d="M43.0851 13.5399L42.8193 14.5622L56.7224 23.1076L56.9882 22.0853L43.0851 13.5399Z" fill="white"/>
<path d="M57.9492 38.2474L56.4097 44.2721L64.7093 49.3759L66.2567 43.3512L57.9492 38.2474Z" fill="#40075C"/>
<path d="M71.2897 29.5459L43.3818 12.3771L44.093 9.52866L72.376 26.3697L71.2897 29.5459ZM55.8939 19.3461L71.0552 28.664L71.3287 27.5715L56.1752 18.2613L55.8939 19.3461ZM44.093 12.0884L50.095 15.7797L50.3686 14.6949L44.3665 11.0036L44.093 12.0884Z" fill="#820B82"/>
<path d="M59.9107 30.5838L59.6919 31.4267L67.9916 36.5383L68.2104 35.6876L59.9107 30.5838Z" fill="#40075C"/>
<path d="M59.4185 32.4958L59.1997 33.3465L67.5072 38.4503L67.726 37.5996L59.4185 32.4958Z" fill="#40075C"/>
<path d="M45.9453 49.3525C45.9453 49.3525 44.3823 50.6401 44.7262 51.9902C44.7262 51.9902 45.242 52.5365 45.7265 51.5688C46.2111 50.6011 46.7112 49.3212 45.9453 49.3525Z" fill="#0A1014"/>
<path d="M44.7261 52.1229C44.7261 52.1229 47.0706 52.9033 47.4457 52.1229C47.7321 51.5288 48.1033 50.9794 48.5477 50.4918C48.8368 50.2109 50.7515 46.9878 50.1107 46.4806C49.4699 45.9733 48.5477 46.8786 48.2898 47.1049L45.0934 49.6334L44.7261 52.1229Z" fill="#111114"/>
<path d="M25.4617 37.8181C25.4617 37.8181 33.6051 42.5005 35.4573 44.0613C37.0203 45.3724 45.4606 49.4149 45.4606 49.4149C45.1143 50.2541 44.883 51.1361 44.7729 52.037C44.7729 52.037 37.0281 51.9278 32.1593 47.4561C32.1593 47.4561 15.81 44.0613 17.2089 35.633C20.0148 36.1358 22.7749 36.8667 25.4617 37.8181Z" fill="#EA49BD"/>
<path d="M48.5474 50.5309C48.7975 50.2811 50.3449 47.7058 50.2277 46.7849C50.0197 46.7516 49.8066 46.795 49.6283 46.907C49.45 47.019 49.3186 47.192 49.2586 47.3936C48.7418 48.5424 48.1491 49.6556 47.4846 50.726C47.3048 50.9601 46.2498 51.9746 46.4217 52.4897C46.8828 52.4897 47.297 52.4897 47.4455 52.1697C47.7312 51.5729 48.1024 51.0208 48.5474 50.5309Z" fill="#1D1D21"/>
<path d="M41.2012 56.1887C41.2012 56.1887 43.8349 56.5946 44.1162 55.9078C44.3098 55.3738 44.5725 54.8675 44.8977 54.4016C45.1244 54.1441 46.5311 51.202 45.9371 50.804C45.3432 50.406 44.632 51.2722 44.4132 51.4907C44.1944 51.7092 41.8186 53.8475 41.8186 53.8475L41.2012 56.1887Z" fill="#161619"/>
<path d="M44.9367 54.386C45.1399 54.1519 46.2731 51.7951 46.0934 51.0069C45.9127 51.0025 45.7361 51.0607 45.5936 51.1717C45.4511 51.2827 45.3516 51.4396 45.3119 51.6156C44.9502 52.6451 44.5247 53.6511 44.038 54.6279C43.8973 54.8465 43.0689 55.8141 43.2565 56.2434C43.6629 56.2434 44.038 56.1419 44.1162 55.8844C44.3226 55.3511 44.5985 54.8473 44.9367 54.386Z" fill="#1D1D21"/>
<path d="M21.945 22.7096C21.4946 22.7792 21.0889 23.0208 20.8134 23.3833C20.5378 23.7458 20.414 24.2009 20.4679 24.6528C20.5227 26.4009 22.1482 33.9708 24.0082 35.4692C25.8682 36.9675 25.8291 33.3933 25.8291 33.3933C25.8291 33.3933 24.6881 22.3194 21.945 22.7096Z" fill="#820B82"/>
<path d="M24.1017 37.0768C24.1017 37.0768 22.7496 41.0802 22.0463 41.9543C22.0463 41.9543 30.1896 46.6367 32.034 48.1975C33.597 49.5085 42.1937 53.4808 42.1937 53.4808C41.738 54.3198 41.4513 55.2397 41.3496 56.1888C41.3496 56.1888 33.6049 56.0717 28.736 51.6078C28.736 51.6078 12.3946 48.2053 13.7857 39.7848C13.7857 39.8004 19.1938 41.9309 24.1017 37.0768Z" fill="#FF61CB"/>
<path d="M17.5292 23.3105C17.5292 23.3105 13.1137 25.7532 13.0121 26.0888C12.9105 26.4243 12.4103 26.6272 13.8561 30.061C14.6918 32.2198 14.8311 34.5853 14.2547 36.827C13.9425 37.758 13.7816 38.7328 13.778 39.7145C13.778 39.7145 15.4895 43.3902 20.3739 41.5953C22.0658 40.5617 23.5135 39.1747 24.6175 37.5294C24.6175 37.5294 23.0545 35.6174 23.6719 31.8949C24.2893 28.1724 24.6332 23.3105 22.5153 22.694C22.5153 22.694 21.976 22.0463 17.5292 23.3105Z" fill="#B80EB8"/>
<path d="M18.9048 22.1087C18.9048 22.1087 21.7495 23.6071 20.4678 25.7532L21.812 26.4867C21.812 26.4867 23.1328 22.7408 18.9048 22.1087Z" fill="#FEFFFF"/>
<path d="M17.084 20.6025C17.084 20.6025 18.2797 22.4209 17.3341 23.6461C16.8026 24.3328 18.0531 25.9873 20.1788 25.8234C20.1788 25.8234 21.1322 25.5893 21.0384 25.2459C20.9627 24.9279 20.9621 24.5966 21.0367 24.2783C21.1113 23.96 21.2591 23.6634 21.4683 23.412C21.8043 22.8189 17.084 20.6025 17.084 20.6025Z" fill="#EFB185"/>
<path d="M17.334 23.6461C17.2715 23.7282 17.2311 23.8249 17.2168 23.927C17.8846 23.3929 18.7063 23.0865 19.5613 23.053L17.5294 20.8133L17.3262 20.7196L17.2637 20.9147C17.5528 21.4922 18.0374 22.733 17.334 23.6461Z" fill="#DD9569"/>
<path d="M21.0385 25.2459C20.8353 24.0051 21.1323 24.0207 21.4684 23.4198C21.5621 23.2559 21.273 22.9749 20.8041 22.6394C20.6684 22.7493 20.5522 22.8812 20.4602 23.0296C19.864 23.8314 19.6034 24.8332 19.7334 25.8234C19.8815 25.839 20.0308 25.839 20.1789 25.8234C20.4368 25.7532 21.101 25.6283 21.0385 25.2459Z" fill="#F2B78F"/>
<path d="M16.6384 19.588C16.6384 19.588 17.1542 21.9839 18.811 23.0764C20.2803 24.0441 21.9918 24.684 22.3044 22.9281C22.5545 21.539 23.2344 18.0038 22.0074 17.2937C20.4444 16.3728 19.8426 15.249 18.0061 15.9201C17.9748 15.9201 15.9116 16.88 16.6384 19.588Z" fill="#EFB185"/>
<path d="M16.6384 19.588C16.7494 20.2892 16.9977 20.9617 17.3691 21.5669C17.7406 22.1722 18.2279 22.6984 18.8032 23.1154C19.2389 23.4095 19.7054 23.6555 20.1943 23.849C19.6422 23.449 19.1569 22.9644 18.7563 22.4131C18.1545 21.7107 19.6472 21.9838 18.6235 20.2045C18.2796 19.5958 19.9755 20.384 20.3584 20.3684C22.617 20.3138 22.4451 19.0261 22.4919 18.4799C22.4491 18.2511 22.3864 18.0265 22.3044 17.8087L22.0934 17.4029L22.0152 17.2936C21.7891 17.0165 21.5436 16.7557 21.2806 16.5132C20.3115 16.5132 17.5684 16.5913 17.5137 16.6069C17.459 16.6225 16.9979 17.2546 16.5603 17.8633C16.4494 18.4363 16.4762 19.0274 16.6384 19.588Z" fill="#E6A376"/>
<path d="M17.631 21.9136C17.0948 21.3945 16.7011 20.7465 16.4876 20.0319C16.2741 19.3172 16.248 18.5597 16.4118 17.8321C16.537 17.2409 16.8491 16.7056 17.3023 16.3051C17.7554 15.9046 18.3254 15.6602 18.9283 15.608C19.6953 15.445 20.4952 15.5576 21.1872 15.926C21.8792 16.2943 22.4188 16.8947 22.7108 17.6214C22.9531 18.2691 22.789 19.6817 20.2491 19.0261C19.8896 18.9325 18.9205 18.7998 18.5766 19.112C18.4178 19.3007 18.3142 19.5294 18.2769 19.773C18.2397 20.0167 18.2704 20.2659 18.3656 20.4933C18.5063 20.9225 18.1312 20.9693 18.0765 20.8757C18.0217 20.782 17.5372 19.5568 17.0761 20.0328C16.615 20.5089 17.5841 21.8512 17.631 21.9136Z" fill="#CC963E"/>
<path d="M17.631 21.9136C17.5841 21.8278 16.6619 20.5011 17.0761 20.0641C17.4903 19.627 18.0217 20.8445 18.0764 20.9069C18.1311 20.9693 18.5063 20.9537 18.3656 20.5245C18.2704 20.2971 18.2397 20.0479 18.2769 19.8043C18.3141 19.5606 18.4178 19.3319 18.5766 19.1432C18.8892 18.8622 19.7332 19.0027 20.249 19.0573C19.827 18.7842 18.9908 18.6906 18.686 17.9882C18.5715 17.6323 18.3776 17.307 18.1191 17.0367C17.8606 16.7664 17.544 16.558 17.1933 16.4274C16.8078 16.8052 16.5369 17.284 16.4118 17.8087C16.2437 18.5398 16.2677 19.3019 16.4813 20.0211C16.6949 20.7403 17.0909 21.3922 17.631 21.9136Z" fill="#CC963E"/>
<path d="M17.623 23.0608C17.8004 23.7315 18.1624 24.3392 18.6679 24.815C19.1735 25.2909 19.8023 25.6159 20.4833 25.7532L19.7878 27.4466C19.7878 27.4466 15.4347 25.2615 17.623 23.0608Z" fill="#FEFFFF"/>
<path d="M22.7109 17.6526C22.7109 17.6526 23.086 19.9938 20.1397 19.1276C19.6919 18.9932 19.2768 18.7679 18.9204 18.4657C18.564 18.1636 18.2741 17.7911 18.0687 17.3717C17.9879 17.1662 17.8581 16.9834 17.6906 16.8392C17.5231 16.6951 17.3229 16.5939 17.1074 16.5445C17.4621 16.168 17.9048 15.8853 18.3959 15.7219C18.8869 15.5584 19.4109 15.5193 19.9209 15.608C20.7348 15.8019 21.4871 16.1963 22.1091 16.7552C22.3514 16.8722 21.9606 17.8399 22.7109 17.6526Z" fill="#F7C479"/>
<path d="M32.4561 34.7824C33.6456 35.0015 34.8705 34.9319 36.0276 34.5795C37.4812 33.9786 37.1295 33.9239 37.0201 33.7054C36.7778 33.2294 34.8631 33.3621 34.5114 33.2684C34.1598 33.1748 34.8006 32.8938 34.9491 32.6519C35.0976 32.41 35.4258 32.1212 35.3086 32.0432C35.1913 31.9651 34.9022 31.8793 34.3629 32.3085C33.7624 32.7042 33.1267 33.0438 32.4639 33.323L32.4561 34.7824Z" fill="#EFB185"/>
<path d="M32.761 33.1201C32.6816 33.4259 32.6422 33.7407 32.6437 34.0566C32.6454 34.4415 32.7507 34.8189 32.9485 35.1492C32.9485 35.1492 26.0165 36.5383 24.2581 35.6486C24.2581 35.6486 22.5544 33.0265 25.1569 32.3241L32.761 33.1201Z" fill="#820B82"/>
<path d="M22.4527 40.9632C22.4527 40.9632 24.7972 42.8986 27.0949 42.4459C27.0949 42.4459 27.0949 41.8528 26.0711 41.6655C25.7578 41.6199 25.4623 41.4918 25.2151 41.2942C24.9678 41.0967 24.7777 40.837 24.6644 40.5417C24.6644 40.4247 25.4459 40.3623 25.8367 40.3388C26.2274 40.3154 26.6182 39.8394 25.7507 39.777C24.6907 39.5923 23.6133 39.5269 22.5387 39.5819C22.5387 39.5819 21.6946 40.4403 22.4527 40.9632Z" fill="#EFB185"/>
<path d="M14.4973 25.6283C14.0476 25.5596 13.5888 25.6676 13.2172 25.9295C12.8456 26.1914 12.5901 26.587 12.5044 27.033C12.0355 28.7265 11.3165 36.3978 12.6451 38.419C13.9736 40.4403 22.6094 41.4548 22.6094 41.4548C22.4308 41.0696 22.3605 40.6432 22.4059 40.2212C22.4514 39.7992 22.6108 39.3975 22.8673 39.059L15.4038 35.9374C15.4038 35.9374 17.1935 26.0809 14.4973 25.6283Z" fill="#820B82"/>
<path d="M15.3957 35.9452L22.8591 39.0668C22.6857 39.3031 22.5536 39.5669 22.4683 39.8472C20.7725 39.3165 14.5125 38.38 14.6532 37.0378C15.4347 30.0922 15.4347 26.4633 15.4347 26.4633L15.7551 27.314C16.4507 30.2483 15.3957 35.9452 15.3957 35.9452Z" fill="#980898"/>
<defs>
<linearGradient id="paint0_linear" x1="15.0989" y1="21.102" x2="9.87061" y2="21.102" gradientUnits="userSpaceOnUse">
<stop stop-color="#40075C"/>
</linearGradient>
<linearGradient id="paint1_linear" x1="10.9256" y1="22.6472" x2="10.9256" y2="42.5474" gradientUnits="userSpaceOnUse">
<stop stop-color="#FF4CAA"/>
<stop offset="1" stop-color="#E53399"/>
</linearGradient>
</defs>
</svg>
