<svg xmlns="http://www.w3.org/2000/svg" width="24" height="24" viewBox="0 0 24 24"><rect width="24" height="24" fill="none"/><path d="M2.875,5.75A.946.946,0,0,1,2.2,5.463L.287,3.546a.926.926,0,0,1,0-1.342.926.926,0,0,1,1.342,0L2.875,3.45,6.037.287a.926.926,0,0,1,1.342,0,.926.926,0,0,1,0,1.342L3.546,5.463A.946.946,0,0,1,2.875,5.75Z" transform="translate(2 15)" fill="#28404a"/><path d="M16,13H8.984A7.507,7.507,0,0,0,0,6.15V2A2,2,0,0,1,2,0H16a2,2,0,0,1,2,2v9A2,2,0,0,1,16,13ZM2.5,1.75a.75.75,0,0,0-.356,1.411l6.5,3.5a.747.747,0,0,0,.711,0l6.5-3.5a.75.75,0,1,0-.711-1.321L9,5.148,2.856,1.84A.752.752,0,0,0,2.5,1.75Z" transform="translate(4 5)" fill="#28404a"/></svg>