<svg xmlns="http://www.w3.org/2000/svg" width="24" height="24" viewBox="0 0 24 24"><rect width="24" height="24" fill="none"/><g transform="translate(4 -33.824)"><g transform="translate(0 36.548)"><path d="M.681,110.315A2.225,2.225,0,0,0,0,111.946v8.585a2.224,2.224,0,0,0,.681,1.63,2.224,2.224,0,0,0,1.63.681h.66V109.634h-.66A2.224,2.224,0,0,0,.681,110.315Z" transform="translate(0 -106.992)" fill="#28404a"/><path d="M118.882,37.539a.986.986,0,0,0-.99-.991h-5.944a.986.986,0,0,0-.991.991V39.19h-1.321V52.4H120.2V39.19h-1.321Zm-1.321,1.651h-5.283V37.869h5.283Z" transform="translate(-105.673 -36.548)" fill="#28404a"/><path d="M431.691,110.315a2.225,2.225,0,0,0-1.63-.681h-.66v13.208h.66a2.325,2.325,0,0,0,2.311-2.311v-8.585A2.225,2.225,0,0,0,431.691,110.315Z" transform="translate(-413.88 -106.992)" fill="#28404a"/></g></g></svg>