<svg width="47" height="46" viewBox="0 0 47 46" fill="none" xmlns="http://www.w3.org/2000/svg">
<path d="M23.5002 11.5C25.6543 11.5 27.4168 13.225 27.4168 15.3333C27.4168 17.4416 25.6543 19.1666 23.5002 19.1666C21.346 19.1666 19.5835 17.4416 19.5835 15.3333C19.5835 13.225 21.346 11.5 23.5002 11.5ZM23.5002 30.6666C28.7877 30.6666 34.8585 33.1391 35.2502 34.5H11.7502C12.2006 33.12 18.2322 30.6666 23.5002 30.6666ZM23.5002 7.66663C19.1722 7.66663 15.6668 11.0975 15.6668 15.3333C15.6668 19.5691 19.1722 23 23.5002 23C27.8281 23 31.3335 19.5691 31.3335 15.3333C31.3335 11.0975 27.8281 7.66663 23.5002 7.66663ZM23.5002 26.8333C18.2714 26.8333 7.8335 29.4016 7.8335 34.5V38.3333H39.1668V34.5C39.1668 29.4016 28.7289 26.8333 23.5002 26.8333Z" fill="#5843BE"/>
</svg>
