<svg width="40" height="41" viewBox="0 0 40 41" fill="none" xmlns="http://www.w3.org/2000/svg">
<path d="M35 27.6351V14.3018C34.9994 13.7172 34.8451 13.1431 34.5526 12.637C34.26 12.131 33.8396 11.7107 33.3333 11.4184L21.6667 4.75176C21.1599 4.4592 20.5851 4.30518 20 4.30518C19.4149 4.30518 18.8401 4.4592 18.3333 4.75176L6.66667 11.4184C6.16044 11.7107 5.73997 12.131 5.44744 12.637C5.1549 13.1431 5.0006 13.7172 5 14.3018V27.6351C5.0006 28.2196 5.1549 28.7937 5.44744 29.2998C5.73997 29.8059 6.16044 30.2262 6.66667 30.5184L18.3333 37.1851C18.8401 37.4777 19.4149 37.6317 20 37.6317C20.5851 37.6317 21.1599 37.4777 21.6667 37.1851L33.3333 30.5184C33.8396 30.2262 34.26 29.8059 34.5526 29.2998C34.8451 28.7937 34.9994 28.2196 35 27.6351Z" stroke="#5843BE" stroke-width="3" stroke-linecap="round" stroke-linejoin="round"/>
<path d="M12.5 7.98486L20 12.3182L27.5 7.98486" stroke="#5843BE" stroke-width="3" stroke-linecap="round" stroke-linejoin="round"/>
<path d="M12.5 33.9516V25.3016L5 20.9683" stroke="#5843BE" stroke-width="3" stroke-linecap="round" stroke-linejoin="round"/>
<path d="M35 20.9683L27.5 25.3016V33.9516" stroke="#5843BE" stroke-width="3" stroke-linecap="round" stroke-linejoin="round"/>
<path d="M5.4502 12.5684L20.0002 20.985L34.5502 12.5684" stroke="#5843BE" stroke-width="3" stroke-linecap="round" stroke-linejoin="round"/>
<path d="M20 37.7683V20.9683" stroke="#5843BE" stroke-width="3" stroke-linecap="round" stroke-linejoin="round"/>
</svg>
