<svg width="37" height="30" viewBox="0 0 37 30" fill="none" xmlns="http://www.w3.org/2000/svg">
<path d="M2.04501 22.9692H7.51001L19.237 29.4252C19.5377 29.591 19.8763 29.6754 20.2196 29.6703C20.5629 29.6651 20.8989 29.5706 21.1944 29.3959C21.49 29.2212 21.7348 28.9725 21.9049 28.6742C22.0749 28.376 22.1642 28.0385 22.164 27.6952V2.97723C22.1642 2.63393 22.0749 2.29649 21.9049 1.99825C21.7348 1.70001 21.49 1.45127 21.1944 1.27659C20.8989 1.1019 20.5629 1.00732 20.2196 1.00218C19.8763 0.997027 19.5377 1.08149 19.237 1.24724L7.51001 7.69923H2.04501C1.90744 7.69923 1.77122 7.72639 1.64418 7.77916C1.51713 7.83193 1.40175 7.90926 1.30466 8.00672C1.20757 8.10418 1.13068 8.21985 1.0784 8.3471C1.02612 8.47435 0.999481 8.61067 1.00001 8.74823V21.9242C1.00001 22.2014 1.11011 22.4672 1.30608 22.6632C1.50206 22.8591 1.76786 22.9692 2.04501 22.9692ZM20.074 3.16923V27.4992L8.82401 21.3062V9.36623L20.074 3.16923ZM3.09001 9.79323H6.73401V20.8792H3.09001V9.79323Z" fill="#92A5E7" stroke="white" stroke-width="0.5"/>
<path d="M30.603 4.26708C30.506 4.36412 30.429 4.47933 30.3764 4.60613C30.3239 4.73293 30.2969 4.86883 30.2969 5.00608C30.2969 5.14333 30.3239 5.27924 30.3764 5.40604C30.429 5.53284 30.506 5.64804 30.603 5.74508C31.8626 7.00454 32.8618 8.49978 33.5435 10.1454C34.2252 11.791 34.576 13.5548 34.576 15.3361C34.576 17.1173 34.2252 18.8811 33.5435 20.5267C32.8618 22.1724 31.8626 23.6676 30.603 24.9271C30.5067 25.0248 30.4306 25.1406 30.379 25.2678C30.3274 25.395 30.3014 25.5311 30.3024 25.6684C30.3035 25.8056 30.3315 25.9413 30.3849 26.0677C30.4384 26.1941 30.5162 26.3088 30.614 26.4051C30.7118 26.5014 30.8276 26.5775 30.9548 26.6291C31.082 26.6807 31.2181 26.7067 31.3553 26.7057C31.4926 26.7047 31.6283 26.6766 31.7547 26.6232C31.8811 26.5697 31.9957 26.4918 32.092 26.3941C35.0231 23.4575 36.6684 19.4774 36.6664 15.3283C36.6643 11.1792 35.015 7.20074 32.081 4.26708C31.984 4.17002 31.8688 4.09303 31.742 4.0405C31.6152 3.98797 31.4793 3.96094 31.342 3.96094C31.2048 3.96094 31.0689 3.98797 30.9421 4.0405C30.8153 4.09303 30.7001 4.17002 30.603 4.26708Z" fill="#92A5E7" stroke="white" stroke-width="0.5"/>
<path d="M27.6483 21.9731C27.5478 22.0693 27.4676 22.1847 27.4123 22.3124C27.357 22.4401 27.3277 22.5775 27.3262 22.7167C27.3248 22.8558 27.3511 22.9938 27.4037 23.1227C27.4563 23.2515 27.5341 23.3685 27.6325 23.4669C27.7309 23.5653 27.848 23.643 27.9769 23.6955C28.1057 23.748 28.2438 23.7742 28.383 23.7727C28.5221 23.7711 28.6595 23.7418 28.7872 23.6864C28.9148 23.631 29.0301 23.5506 29.1263 23.4501C31.2783 21.2981 32.4872 18.3794 32.4872 15.3361C32.4872 12.2927 31.2783 9.37404 29.1263 7.22207C29.0301 7.12151 28.9148 7.04118 28.7872 6.98578C28.6595 6.93039 28.5221 6.90105 28.383 6.89948C28.2438 6.89791 28.1057 6.92415 27.9769 6.97666C27.848 7.02916 27.7309 7.10687 27.6325 7.20524C27.5341 7.3036 27.4563 7.42063 27.4037 7.54946C27.3511 7.67829 27.3248 7.81633 27.3262 7.95548C27.3277 8.09463 27.357 8.23207 27.4123 8.35976C27.4676 8.48745 27.5478 8.60282 27.6483 8.69907C29.4083 10.4593 30.397 12.8464 30.397 15.3356C30.397 17.8247 29.4083 20.2119 27.6483 21.9721V21.9731Z" fill="#92A5E7" stroke="white" stroke-width="0.5"/>
<path d="M24.6929 20.4946C24.7899 20.5916 24.9051 20.6686 25.0319 20.7211C25.1587 20.7737 25.2946 20.8007 25.4319 20.8007C25.5691 20.8007 25.705 20.7737 25.8318 20.7211C25.9586 20.6686 26.0738 20.5916 26.1709 20.4946C26.8484 19.8172 27.3859 19.013 27.7527 18.1279C28.1194 17.2428 28.3081 16.2941 28.3081 15.336C28.3081 14.378 28.1194 13.4293 27.7527 12.5442C27.3859 11.6591 26.8484 10.8549 26.1709 10.1776C25.9734 9.98871 25.7099 9.88468 25.4367 9.88776C25.1636 9.89084 24.9025 10.0008 24.7094 10.194C24.5162 10.3873 24.4065 10.6485 24.4036 10.9216C24.4007 11.1948 24.5049 11.4583 24.6939 11.6556C25.1777 12.1385 25.5614 12.7121 25.8233 13.3436C26.0852 13.9751 26.22 14.6519 26.22 15.3355C26.22 16.0191 26.0852 16.696 25.8233 17.3275C25.5614 17.9589 25.1777 18.5326 24.6939 19.0156C24.5966 19.1125 24.5194 19.2278 24.4667 19.3546C24.414 19.4815 24.3868 19.6175 24.3867 19.7548C24.3866 19.8922 24.4136 20.0282 24.4662 20.1552C24.5187 20.2821 24.5957 20.3974 24.6929 20.4946Z" fill="#92A5E7" stroke="white" stroke-width="0.5"/>
</svg>
