<svg width="41" height="41" viewBox="0 0 41 41" fill="none" xmlns="http://www.w3.org/2000/svg">
<path d="M36.868 4.09645V28.6751H12.2893V4.09645H36.868ZM36.868 0H12.2893C10.0363 0 8.19289 1.8434 8.19289 4.09645V28.6751C8.19289 30.9282 10.0363 32.7716 12.2893 32.7716H36.868C39.1211 32.7716 40.9645 30.9282 40.9645 28.6751V4.09645C40.9645 1.8434 39.1211 0 36.868 0ZM19.4581 19.8063L22.9196 24.4353L27.9992 18.0858L34.8198 26.6269H14.3376L19.4581 19.8063ZM0 8.19289V36.868C0 39.1211 1.8434 40.9645 4.09645 40.9645H32.7716V36.868H4.09645V8.19289H0Z" fill="#5843BE"/>
</svg>
