<svg width="37" height="36" viewBox="0 0 37 36" fill="none" xmlns="http://www.w3.org/2000/svg">
<g clip-path="url(#clip0)">
<path d="M25.9028 31.1917V28.2306C25.9028 26.6599 25.2788 25.1536 24.1682 24.0429C23.0575 22.9323 21.5512 22.3083 19.9805 22.3083H8.13609C6.56542 22.3083 5.05908 22.9323 3.94845 24.0429C2.83781 25.1536 2.21387 26.6599 2.21387 28.2306V31.1917" stroke="#5843BE" stroke-width="3" stroke-linecap="round" stroke-linejoin="round"/>
<path d="M14.0585 16.3861C17.3292 16.3861 19.9807 13.7346 19.9807 10.4638C19.9807 7.1931 17.3292 4.54163 14.0585 4.54163C10.7877 4.54163 8.13623 7.1931 8.13623 10.4638C8.13623 13.7346 10.7877 16.3861 14.0585 16.3861Z" stroke="#5843BE" stroke-width="3" stroke-linecap="round" stroke-linejoin="round"/>
<path d="M34.7864 31.1917V28.2306C34.7854 26.9184 34.3487 25.6437 33.5447 24.6067C32.7408 23.5696 31.6152 22.8289 30.3447 22.5009" stroke="#5843BE" stroke-width="3" stroke-linecap="round" stroke-linejoin="round"/>
<path d="M24.4224 4.73413C25.6963 5.0603 26.8254 5.80117 27.6317 6.83994C28.438 7.87871 28.8756 9.1563 28.8756 10.4713C28.8756 11.7863 28.438 13.0639 27.6317 14.1026C26.8254 15.1414 25.6963 15.8823 24.4224 16.2084" stroke="#5843BE" stroke-width="3" stroke-linecap="round" stroke-linejoin="round"/>
</g>
<defs>
<clipPath id="clip0">
<rect width="35.5333" height="35.5333" fill="white" transform="translate(0.733398 0.0999756)"/>
</clipPath>
</defs>
</svg>
