<svg width="41" height="42" viewBox="0 0 41 42" fill="none" xmlns="http://www.w3.org/2000/svg">
<path d="M11.9478 28.0609C12.8866 28.0609 13.6547 28.829 13.6547 29.7678C13.6547 31.6453 12.1185 33.1815 10.241 33.1815C9.95082 33.1815 9.67772 33.1473 9.38756 33.0961C9.91668 32.1574 10.241 31.0308 10.241 29.7678C10.241 28.829 11.0091 28.0609 11.9478 28.0609ZM31.8668 5.87183C31.423 5.87183 30.9963 6.04251 30.6549 6.36681L15.3615 21.6602L20.0554 26.3541L35.3488 11.0607C36.0145 10.395 36.0145 9.31967 35.3488 8.654L33.0616 6.36681C32.7202 6.02544 32.2935 5.87183 31.8668 5.87183ZM11.9478 24.6472C9.11446 24.6472 6.82728 26.9344 6.82728 29.7678C6.82728 32.0037 4.84733 33.1815 3.41357 33.1815C4.98388 35.2638 7.66364 36.5952 10.241 36.5952C14.0131 36.5952 17.0684 33.5399 17.0684 29.7678C17.0684 26.9344 14.7812 24.6472 11.9478 24.6472Z" fill="#5843BE"/>
</svg>
