<svg width="47" height="46" viewBox="0 0 47 46" fill="none" xmlns="http://www.w3.org/2000/svg">
<path d="M27.4165 11.5V7.66671H19.5832V11.5H27.4165ZM7.83317 15.3334V36.4167H39.1665V15.3334H7.83317ZM39.1665 11.5C41.3403 11.5 43.0832 13.2059 43.0832 15.3334V36.4167C43.0832 38.5442 41.3403 40.25 39.1665 40.25H7.83317C5.65942 40.25 3.9165 38.5442 3.9165 36.4167L3.93609 15.3334C3.93609 13.2059 5.65942 11.5 7.83317 11.5H15.6665V7.66671C15.6665 5.53921 17.4094 3.83337 19.5832 3.83337H27.4165C29.5903 3.83337 31.3332 5.53921 31.3332 7.66671V11.5H39.1665Z" fill="#5843BE"/>
</svg>
