<svg xmlns="http://www.w3.org/2000/svg" width="22.891" height="13.012" viewBox="0 0 22.891 13.012">
  <g id="noun_Camera_2146906" transform="translate(-2.5 -23)">
    <g id="Group_327" data-name="Group 327" transform="translate(2.5 23)">
      <path id="Path_1310" data-name="Path 1310" d="M80.476,31.8l-3.518,1.614a.8.8,0,0,0-.458.7V38.16a.758.758,0,0,0,.458.7l3.518,1.614a.765.765,0,0,0,1.084-.7V32.5A.774.774,0,0,0,80.476,31.8Z" transform="translate(-58.669 -29.63)" fill="#6d1cff"/>
      <path id="Path_1311" data-name="Path 1311" d="M17.006,23H4.114A1.615,1.615,0,0,0,2.5,24.614V34.4a1.615,1.615,0,0,0,1.614,1.614H17.006A1.615,1.615,0,0,0,18.62,34.4V24.614A1.6,1.6,0,0,0,17.006,23Zm-4.072,6.94L9.367,32.325a.524.524,0,0,1-.819-.434V27.12a.521.521,0,0,1,.819-.434l3.566,2.385A.518.518,0,0,1,12.933,29.94Z" transform="translate(-2.5 -23)" fill="#6d1cff"/>
    </g>
  </g>
</svg>
