<svg id="pause" xmlns="http://www.w3.org/2000/svg" width="54" height="54" viewBox="0 0 54 54">
  <g id="Group_1479" data-name="Group 1479">
    <path id="Path_2491" data-name="Path 2491" d="M27,0A27,27,0,1,0,54,27,27.03,27.03,0,0,0,27,0ZM24.75,37.125a1.124,1.124,0,0,1-1.125,1.125h-6.75a1.124,1.124,0,0,1-1.125-1.125V16.875a1.124,1.124,0,0,1,1.125-1.125h6.75a1.124,1.124,0,0,1,1.125,1.125v20.25Zm13.5,0a1.124,1.124,0,0,1-1.125,1.125h-6.75a1.124,1.124,0,0,1-1.125-1.125V16.875a1.124,1.124,0,0,1,1.125-1.125h6.75a1.124,1.124,0,0,1,1.125,1.125Z" fill="#fc5c8a"/>
  </g>
</svg>
