<svg xmlns="http://www.w3.org/2000/svg" width="24.333" height="17.393" viewBox="0 0 24.333 17.393">
  <g id="telephone-handle-silhouette" transform="translate(4.99 -16)">
    <g id="speaker" transform="translate(-4.99 -52.096)">
      <g id="Group_1519" data-name="Group 1519" transform="translate(0 69.833)">
        <g id="Group_1518" data-name="Group 1518" transform="translate(0 0)">
          <path id="Path_2496" data-name="Path 2496" d="M10.871,102.291a.87.87,0,0,0-.87,0l-5.884,3.361H.87a.87.87,0,0,0-.87.87v5.218a.87.87,0,0,0,.87.87H4.117L10,115.973a.87.87,0,0,0,1.3-.755V103.043A.87.87,0,0,0,10.871,102.291Z" transform="translate(0 -102.174)" fill="#fff"/>
        </g>
      </g>
      <g id="Group_1521" data-name="Group 1521" transform="translate(13.042 73.311)">
        <g id="Group_1520" data-name="Group 1520" transform="translate(0 0)">
          <path id="Path_2497" data-name="Path 2497" d="M257.491,170.756a.87.87,0,0,0-1.355,1.09h0a3.494,3.494,0,0,1,0,4.127.87.87,0,0,0,1.349,1.1l.006-.007A5.2,5.2,0,0,0,257.491,170.756Z" transform="translate(-255.94 -170.433)" fill="#fff"/>
        </g>
      </g>
      <g id="Group_1523" data-name="Group 1523" transform="translate(16.521 70.702)">
        <g id="Group_1522" data-name="Group 1522" transform="translate(0 0)">
          <path id="Path_2498" data-name="Path 2498" d="M325.757,119.556a.87.87,0,0,0-1.355,1.09h0a7.8,7.8,0,0,1,0,9.345.87.87,0,0,0,1.349,1.1l.006-.007A9.625,9.625,0,0,0,325.757,119.556Z" transform="translate(-324.207 -119.233)" fill="#fff"/>
        </g>
      </g>
      <g id="Group_1525" data-name="Group 1525" transform="translate(19.999 68.096)">
        <g id="Group_1524" data-name="Group 1524" transform="translate(0 0)">
          <path id="Path_2499" data-name="Path 2499" d="M394.024,68.417a.87.87,0,0,0-1.355,1.091,12.161,12.161,0,0,1,0,14.563.87.87,0,1,0,1.349,1.1l.006-.007A13.982,13.982,0,0,0,394.024,68.417Z" transform="translate(-392.474 -68.096)" fill="#fff"/>
        </g>
      </g>
    </g>
  </g>
</svg>
