<svg width="45" height="45" viewBox="0 0 45 45" fill="none" xmlns="http://www.w3.org/2000/svg">
<rect width="45" height="45" rx="10" fill="none"/>
<g clip-path="url(#clip0)">
<path d="M23.62 35H19.7691C19.1259 35 18.6026 34.4767 18.6026 33.8335V25.1476H16.3559C15.7127 25.1476 15.1895 24.6242 15.1895 23.9811V20.2592C15.1895 19.616 15.7127 19.0927 16.3559 19.0927H18.6026V17.2289C18.6026 15.3809 19.1829 13.8086 20.2806 12.6823C21.3832 11.5509 22.9241 10.953 24.7367 10.953L27.6736 10.9578C28.3157 10.9589 28.8381 11.4821 28.8381 12.1242V15.58C28.8381 16.2232 28.315 16.7464 27.672 16.7464L25.6946 16.7472C25.0915 16.7472 24.938 16.8681 24.9051 16.9051C24.851 16.9666 24.7866 17.1403 24.7866 17.6201V19.0926H27.5234C27.7294 19.0926 27.929 19.1434 28.1005 19.2391C28.4706 19.4459 28.7006 19.8369 28.7006 20.2594L28.6992 23.9813C28.6992 24.6242 28.1759 25.1474 27.5327 25.1474H24.7866V33.8335C24.7866 34.4767 24.2632 35 23.62 35ZM20.0124 33.5902H23.3767V24.5165C23.3767 24.087 23.7262 23.7377 24.1555 23.7377H27.2894L27.2907 20.5025H24.1553C23.726 20.5025 23.3767 20.1532 23.3767 19.7237V17.6201C23.3767 17.0693 23.4327 16.443 23.8484 15.9722C24.3507 15.4031 25.1424 15.3374 25.6942 15.3374L27.4283 15.3367V12.3671L24.7356 12.3627C21.8226 12.3627 20.0124 14.2275 20.0124 17.2289V19.7237C20.0124 20.153 19.663 20.5025 19.2337 20.5025H16.5992V23.7377H19.2337C19.663 23.7377 20.0124 24.087 20.0124 24.5165V33.5902ZM27.6709 12.3675H27.671H27.6709Z" fill="#001CE2"/>
</g>
<defs>
<clipPath id="clip0">
<rect width="24" height="24.047" fill="white" transform="translate(10 11)"/>
</clipPath>
</defs>
</svg>
