<svg width="45" height="45" viewBox="0 0 45 45" fill="none" xmlns="http://www.w3.org/2000/svg">
<rect width="45" height="45" rx="10" fill="none"/>
<path d="M27.5034 11H16.4966C12.9143 11 10 13.9143 10 17.4966V28.5036C10 32.0857 12.9143 35 16.4966 35H27.5036C31.0857 35 34 32.0857 34 28.5036V17.4966C34 13.9143 31.0857 11 27.5034 11V11ZM32.593 28.5036C32.593 31.3098 30.3098 33.593 27.5034 33.593H16.4966C13.6901 33.593 11.407 31.3098 11.407 28.5036V17.4966C11.407 14.6901 13.6901 12.407 16.4966 12.407H27.5036C30.3098 12.407 32.593 14.6901 32.593 17.4966V28.5036Z" fill="#888DB1"/>
<path d="M21.9998 16.4377C18.3813 16.4377 15.4375 19.3815 15.4375 23C15.4375 26.6185 18.3813 29.5623 21.9998 29.5623C25.6183 29.5623 28.5621 26.6185 28.5621 23C28.5621 19.3815 25.6183 16.4377 21.9998 16.4377ZM21.9998 28.1553C19.1573 28.1553 16.8445 25.8427 16.8445 23C16.8445 20.1575 19.1573 17.8447 21.9998 17.8447C24.8425 17.8447 27.1551 20.1575 27.1551 23C27.1551 25.8427 24.8425 28.1553 21.9998 28.1553Z" fill="#888DB1"/>
<path d="M28.7194 14.1071C27.65 14.1071 26.7803 14.977 26.7803 16.0462C26.7803 17.1155 27.65 17.9855 28.7194 17.9855C29.7887 17.9855 30.6586 17.1155 30.6586 16.0462C30.6586 14.9769 29.7887 14.1071 28.7194 14.1071ZM28.7194 16.5783C28.426 16.5783 28.1873 16.3395 28.1873 16.0462C28.1873 15.7527 28.426 15.5141 28.7194 15.5141C29.0129 15.5141 29.2516 15.7527 29.2516 16.0462C29.2516 16.3395 29.0129 16.5783 28.7194 16.5783Z" fill="#888DB1"/>
</svg>
