<svg width="45" height="45" viewBox="0 0 45 45" fill="none" xmlns="http://www.w3.org/2000/svg">
<rect width="45" height="45" rx="10" fill="none"/>
<path d="M28.5034 11H17.4966C13.9143 11 11 13.9143 11 17.4966V28.5036C11 32.0857 13.9143 35 17.4966 35H28.5036C32.0857 35 35 32.0857 35 28.5036V17.4966C35 13.9143 32.0857 11 28.5034 11V11ZM33.593 28.5036C33.593 31.3098 31.3098 33.593 28.5034 33.593H17.4966C14.6901 33.593 12.407 31.3098 12.407 28.5036V17.4966C12.407 14.6901 14.6901 12.407 17.4966 12.407H28.5036C31.3098 12.407 33.593 14.6901 33.593 17.4966V28.5036Z" fill="#001CE2"/>
<path d="M22.9998 16.4377C19.3813 16.4377 16.4375 19.3815 16.4375 23C16.4375 26.6185 19.3813 29.5623 22.9998 29.5623C26.6183 29.5623 29.5621 26.6185 29.5621 23C29.5621 19.3815 26.6183 16.4377 22.9998 16.4377ZM22.9998 28.1553C20.1573 28.1553 17.8445 25.8427 17.8445 23C17.8445 20.1575 20.1573 17.8447 22.9998 17.8447C25.8425 17.8447 28.1551 20.1575 28.1551 23C28.1551 25.8427 25.8425 28.1553 22.9998 28.1553Z" fill="#001CE2"/>
<path d="M29.7194 14.1071C28.65 14.1071 27.7803 14.977 27.7803 16.0462C27.7803 17.1155 28.65 17.9855 29.7194 17.9855C30.7887 17.9855 31.6586 17.1155 31.6586 16.0462C31.6586 14.9769 30.7887 14.1071 29.7194 14.1071ZM29.7194 16.5783C29.426 16.5783 29.1873 16.3395 29.1873 16.0462C29.1873 15.7527 29.426 15.5141 29.7194 15.5141C30.0129 15.5141 30.2516 15.7527 30.2516 16.0462C30.2516 16.3395 30.0129 16.5783 29.7194 16.5783Z" fill="#001CE2"/>
</svg>
