<svg width="45" height="45" viewBox="0 0 45 45" fill="none" xmlns="http://www.w3.org/2000/svg">
<rect width="45" height="45" rx="10" fill="none"/>
<g clip-path="url(#clip0)">
<path d="M16.7884 22.003C16.0744 20.663 16.1714 18.932 17.0394 17.484C19.4884 13.406 27.0754 14.093 27.0754 19.69C27.0754 24.657 23.6614 25.909 22.3654 24.858C21.2264 23.938 23.2334 21.25 23.2334 18.927C23.2334 14.966 17.4054 15.417 17.4054 20.324C17.4054 21.29 17.6364 22.034 17.7874 22.416C17.5174 23.521 16.4224 28.019 16.1964 28.954C16.1304 29.227 15.5834 34.348 16.8254 34.934C18.4704 35.711 20.4324 29.734 20.8484 28.009C21.6244 28.536 22.6584 28.865 23.6914 28.865C33.8014 28.864 35.4454 11 22.3014 11V11.001C12.4484 11.001 9.90736 21.093 14.2394 25.103C15.4244 26.193 17.4124 23.172 16.7884 22.003ZM22.3014 12.5C33.4354 12.5 31.8594 27.364 23.6924 27.364C22.5004 27.364 21.4294 26.755 21.1214 26.191C20.9824 25.937 20.7304 25.791 20.4204 25.801C19.1244 25.875 19.9024 28.475 17.5484 32.457C17.3324 28.513 18.0494 28.626 19.3064 22.525C19.3934 22.168 18.1924 19.851 19.5604 18.336C19.8924 17.967 20.3274 17.756 20.7524 17.756C22.7674 17.756 21.1044 21.166 20.5874 23.295C19.9524 25.95 22.6804 27.485 25.2634 26.254C26.2594 25.778 28.5764 24.187 28.5764 19.69C28.5764 12.563 18.9874 11.328 15.7554 16.712C14.6334 18.58 14.5094 20.838 15.4244 22.628C15.3934 22.86 15.1314 23.312 14.8934 23.612C12.0954 20.192 14.1934 12.501 22.3014 12.5Z" fill="#888DB1"/>
</g>
<defs>
<clipPath id="clip0">
<rect width="24" height="24" fill="white" transform="translate(10 11)"/>
</clipPath>
</defs>
</svg>
