<svg width="45" height="45" viewBox="0 0 45 45" fill="none" xmlns="http://www.w3.org/2000/svg">
<rect width="45" height="45" rx="10" fill="none"/>
<g clip-path="url(#clip0)">
<g clip-path="url(#clip1)">
<path d="M17.7884 22.003C17.0744 20.663 17.1714 18.932 18.0394 17.484C20.4884 13.406 28.0754 14.093 28.0754 19.69C28.0754 24.657 24.6614 25.909 23.3654 24.858C22.2264 23.938 24.2334 21.25 24.2334 18.927C24.2334 14.966 18.4054 15.417 18.4054 20.324C18.4054 21.29 18.6364 22.034 18.7874 22.416C18.5174 23.521 17.4224 28.019 17.1964 28.954C17.1304 29.227 16.5834 34.348 17.8254 34.934C19.4704 35.711 21.4324 29.734 21.8484 28.009C22.6244 28.536 23.6584 28.865 24.6914 28.865C34.8014 28.864 36.4454 11 23.3014 11V11.001C13.4484 11.001 10.9074 21.093 15.2394 25.103C16.4244 26.193 18.4124 23.172 17.7884 22.003ZM23.3014 12.5C34.4354 12.5 32.8594 27.364 24.6924 27.364C23.5004 27.364 22.4294 26.755 22.1214 26.191C21.9824 25.937 21.7304 25.791 21.4204 25.801C20.1244 25.875 20.9024 28.475 18.5484 32.457C18.3324 28.513 19.0494 28.626 20.3064 22.525C20.3934 22.168 19.1924 19.851 20.5604 18.336C20.8924 17.967 21.3274 17.756 21.7524 17.756C23.7674 17.756 22.1044 21.166 21.5874 23.295C20.9524 25.95 23.6804 27.485 26.2634 26.254C27.2594 25.778 29.5764 24.187 29.5764 19.69C29.5764 12.563 19.9874 11.328 16.7554 16.712C15.6334 18.58 15.5094 20.838 16.4244 22.628C16.3934 22.86 16.1314 23.312 15.8934 23.612C13.0954 20.192 15.1934 12.501 23.3014 12.5Z" fill="#001CE2"/>
</g>
</g>
<defs>
<clipPath id="clip0">
<rect width="24" height="24" fill="white" transform="translate(11 10)"/>
</clipPath>
<clipPath id="clip1">
<rect width="24" height="24" fill="white" transform="translate(11 11)"/>
</clipPath>
</defs>
</svg>
