<svg width="45" height="45" viewBox="0 0 45 45" fill="none" xmlns="http://www.w3.org/2000/svg">
<rect width="45" height="45" rx="10" fill="none"/>
<g clip-path="url(#clip0)">
<path d="M34 15.8265C32.4903 15.896 32.5233 15.8904 32.3526 15.9046L33.2467 13.3512C33.2467 13.3512 30.4558 14.3779 29.7483 14.5616C27.8901 12.8915 25.1282 12.8177 23.1536 14.0313C21.5366 15.0254 20.6686 16.7325 20.9581 18.7278C17.8111 18.2911 15.1595 16.7993 13.0661 14.2845L12.404 13.4893L11.9092 14.3979C11.2839 15.5459 11.0763 16.8586 11.3244 18.094C11.4262 18.6009 11.5992 19.0843 11.8389 19.5369L11.2709 19.3168L11.2036 20.2659C11.1353 21.2299 11.4562 22.3553 12.0623 23.2759C12.233 23.5352 12.4527 23.8199 12.7312 24.1008L12.4377 24.0558L12.7958 25.1432C13.2666 26.572 14.2444 27.6774 15.5133 28.2919C14.246 28.8297 13.2223 29.1728 11.5396 29.7264L10 30.2325L11.422 31.0099C11.9642 31.3064 13.88 32.2964 15.7729 32.5934C19.9807 33.2533 24.7182 32.7159 27.9075 29.8435C30.5939 27.4242 31.4753 23.9827 31.2922 20.4013C31.2646 19.8592 31.4131 19.3417 31.7104 18.9446C32.3061 18.1493 33.9963 15.8318 34 15.8265ZM30.586 18.1023C30.0922 18.7616 29.8448 19.6037 29.8891 20.4731C30.0738 24.0856 29.0909 26.8871 26.9675 28.7995C24.4869 31.0336 20.4859 31.9104 15.9907 31.2053C15.1766 31.0777 14.3352 30.7919 13.6389 30.5064C15.0497 30.021 16.1392 29.5883 17.8986 28.7555L20.3548 27.593L17.643 27.4194C16.3441 27.3363 15.2625 26.7068 14.5976 25.6847C14.9506 25.6642 15.291 25.607 15.6299 25.5126L18.2163 24.7922L15.6083 24.1535C14.3411 23.8432 13.6187 23.0849 13.2358 22.5034C12.9844 22.1213 12.8202 21.7298 12.7217 21.3689C12.9832 21.439 13.288 21.489 13.7797 21.5377L16.1935 21.7765L14.281 20.2845C12.903 19.2097 12.3507 17.5949 12.7556 16.0425C17.0563 20.5033 22.106 20.1681 22.6143 20.286C22.5024 19.1993 22.4995 19.1967 22.4702 19.0932C21.8193 16.7922 23.2458 15.6238 23.8893 15.2283C25.2333 14.4023 27.3666 14.2778 28.8443 15.6386C29.1634 15.9323 29.595 16.0478 29.999 15.9475C30.3615 15.8574 30.6591 15.762 30.9504 15.6582L30.3439 17.39L31.1181 17.3905C30.972 17.5865 30.7967 17.821 30.586 18.1023Z" fill="#888DB1"/>
</g>
<defs>
<clipPath id="clip0">
<rect width="24" height="24" fill="white" transform="translate(10 11)"/>
</clipPath>
</defs>
</svg>
