<svg width="45" height="45" viewBox="0 0 45 45" fill="none" xmlns="http://www.w3.org/2000/svg">
<rect width="45" height="45" rx="10" fill="none"/>
<g clip-path="url(#clip0)">
<g clip-path="url(#clip1)">
<path d="M35 15.8265C33.4903 15.896 33.5233 15.8904 33.3526 15.9046L34.2467 13.3512C34.2467 13.3512 31.4558 14.3779 30.7483 14.5616C28.8901 12.8915 26.1282 12.8177 24.1536 14.0313C22.5366 15.0254 21.6686 16.7325 21.9581 18.7278C18.8111 18.2911 16.1595 16.7993 14.0661 14.2845L13.404 13.4893L12.9092 14.3979C12.2839 15.5459 12.0763 16.8586 12.3244 18.094C12.4262 18.6009 12.5992 19.0843 12.8389 19.5369L12.2709 19.3168L12.2036 20.2659C12.1353 21.2299 12.4562 22.3553 13.0623 23.2759C13.233 23.5352 13.4527 23.8199 13.7312 24.1008L13.4377 24.0558L13.7958 25.1432C14.2666 26.572 15.2444 27.6774 16.5133 28.2919C15.246 28.8297 14.2223 29.1728 12.5396 29.7264L11 30.2325L12.422 31.0099C12.9642 31.3064 14.88 32.2964 16.7729 32.5934C20.9807 33.2533 25.7182 32.7159 28.9075 29.8435C31.5939 27.4242 32.4753 23.9827 32.2922 20.4013C32.2646 19.8592 32.4131 19.3417 32.7104 18.9446C33.3061 18.1493 34.9963 15.8318 35 15.8265ZM31.586 18.1023C31.0922 18.7616 30.8448 19.6037 30.8891 20.4731C31.0738 24.0856 30.0909 26.8871 27.9675 28.7995C25.4869 31.0336 21.4859 31.9104 16.9907 31.2053C16.1766 31.0777 15.3352 30.7919 14.6389 30.5064C16.0497 30.021 17.1392 29.5883 18.8986 28.7555L21.3548 27.593L18.643 27.4194C17.3441 27.3363 16.2625 26.7068 15.5976 25.6847C15.9506 25.6642 16.291 25.607 16.6299 25.5126L19.2163 24.7922L16.6083 24.1535C15.3411 23.8432 14.6187 23.0849 14.2358 22.5034C13.9844 22.1213 13.8202 21.7298 13.7217 21.3689C13.9832 21.439 14.288 21.489 14.7797 21.5377L17.1935 21.7765L15.281 20.2845C13.903 19.2097 13.3507 17.5949 13.7556 16.0425C18.0563 20.5033 23.106 20.1681 23.6143 20.286C23.5024 19.1993 23.4995 19.1967 23.4702 19.0932C22.8193 16.7922 24.2458 15.6238 24.8893 15.2283C26.2333 14.4023 28.3666 14.2778 29.8443 15.6386C30.1634 15.9323 30.595 16.0478 30.999 15.9475C31.3615 15.8574 31.6591 15.762 31.9504 15.6582L31.3439 17.39L32.1181 17.3905C31.972 17.5865 31.7967 17.821 31.586 18.1023Z" fill="#3D51E8"/>
</g>
</g>
<defs>
<clipPath id="clip0">
<rect width="24" height="24" fill="white" transform="translate(11 10)"/>
</clipPath>
<clipPath id="clip1">
<rect width="24" height="24" fill="white" transform="translate(11 11)"/>
</clipPath>
</defs>
</svg>
