<svg width="19" height="19" viewBox="0 0 19 19" fill="none" xmlns="http://www.w3.org/2000/svg">
<path d="M18.6001 0.400168C18.2339 0.0339283 17.6406 0.0339283 17.2745 0.400168L9.49976 8.17488L1.72514 0.400257C1.3589 0.0340168 0.765634 0.0340168 0.399482 0.400257C0.0332416 0.766497 0.0332416 1.35976 0.399482 1.72591L8.17411 9.50053L0.399482 17.2752C0.0332416 17.6414 0.0332416 18.2347 0.399482 18.6008C0.582558 18.7839 0.8225 18.8755 1.06235 18.8755C1.30221 18.8755 1.54206 18.7839 1.72522 18.6008L9.49976 10.8262L17.2744 18.6008C17.4575 18.7839 17.6974 18.8755 17.9373 18.8755C18.1771 18.8755 18.417 18.7839 18.6001 18.6008C18.9664 18.2346 18.9664 17.6413 18.6001 17.2752L10.8254 9.50053L18.6 1.72591C18.9663 1.35967 18.9663 0.766408 18.6001 0.400168Z" fill="#005BD1"/>
</svg>
