<svg width="68" height="68" viewBox="0 0 68 68" fill="none" xmlns="http://www.w3.org/2000/svg">
<path d="M68 26.0412C68 16.3577 53.0675 8.77246 34.0049 8.77246C14.9417 8.77246 0.0091746 16.3577 0.0091746 26.0412C0.0091746 26.1815 0.0194286 26.3208 0.0253651 26.46C0.0178095 26.4935 0 26.5248 0 26.5604V42.2598C0 51.6157 15.253 59.2274 33.9978 59.2274C52.7432 59.2274 67.9957 51.6157 67.9957 42.2598V26.5604C67.9957 26.5253 67.9844 26.494 67.9784 26.46C67.9844 26.3208 68 26.1815 68 26.0412ZM34.0049 40.1232C17.3049 40.1232 3.196 33.674 3.196 26.0412C3.196 18.408 17.3044 11.9593 34.0049 11.9593C50.7048 11.9593 64.8137 18.408 64.8137 26.0412C64.8137 33.6745 50.7048 40.1232 34.0049 40.1232Z" fill="#005BD1"/>
</svg>
