<svg width="68" height="68" viewBox="0 0 68 68" fill="none" xmlns="http://www.w3.org/2000/svg">
<path d="M58.0417 9.95828C51.6198 3.53653 43.0817 0 33.9999 0C24.9183 0 16.3802 3.53653 9.95841 9.95828C3.53666 16.38 0 24.9183 0 33.9999C0 43.0815 3.53666 51.62 9.95841 58.0416C16.3802 64.4635 24.9183 68 34 68C43.0817 68 51.62 64.4635 58.0416 58.0417C64.4635 51.62 68 43.0819 68 33.9999C68 24.9183 64.4635 16.38 58.0417 9.95828ZM35.0038 4.06101C48.559 4.50952 59.862 14.0059 63.0545 26.6913C59.4839 22.8584 55.1301 19.964 50.0403 18.0535C44.2008 15.8614 37.5113 15.0673 30.5611 15.7234C31.168 10.1138 33.8348 5.74321 35.0038 4.06101ZM19.4991 7.7937C22.7174 6.00578 26.2967 4.7928 30.0989 4.29609C28.3966 7.3687 26.3942 12.2141 26.3942 18.0106C26.3942 25.8404 30.0476 31.9357 31.68 34.2684C30.7426 36.244 28.193 40.8227 23.4399 44.1244C18.6445 37.4651 11.09 23.2324 19.4991 7.7937ZM7.57496 48.1007C5.32206 43.8957 4.04215 39.0948 4.04215 34C4.04215 25.5871 7.52941 17.9746 13.1324 12.5278C11.6075 17.5255 11.2815 22.7315 12.1696 28.082C13.1909 34.2351 15.8479 40.4256 19.8913 46.1165C14.7341 48.3936 9.61974 48.2715 7.57496 48.1007ZM10.2449 52.23C13.7567 52.1658 18.9445 51.4748 23.9557 48.5815C30.7363 44.6667 34.1885 38.4551 35.3924 35.875C37.572 35.6992 42.812 35.6175 48.0481 38.0831C44.6789 45.5653 36.1307 59.2236 18.5567 59.6612C15.3441 57.7206 12.5244 55.1934 10.2449 52.23ZM33.9999 63.9577C31.1575 63.9577 28.4065 63.5597 25.7992 62.8167C30.9049 61.6412 35.5896 59.3176 39.7898 55.8644C44.6079 51.9034 48.6405 46.5071 51.5472 40.1598C56.0947 43.4852 58.546 47.9713 59.4219 49.8302C54.1249 58.3064 44.7108 63.9577 33.9999 63.9577ZM51.6501 35.4078C44.8731 31.495 37.7713 31.6088 34.9321 31.8559C33.6908 30.0466 30.9986 25.5286 30.513 19.7922C38.6796 18.9688 54.7862 19.5436 63.9508 34.5526C63.8804 38.4126 63.077 42.0963 61.6733 45.4702C59.863 42.4602 56.6683 38.3051 51.6501 35.4078Z" fill="#005BD1"/>
</svg>
